<svg xmlns="http://www.w3.org/2000/svg" xmlns:xlink="http://www.w3.org/1999/xlink" width="588" height="258"><defs><path id="a" d="M0 209.15h534V0H0z"/></defs><g fill="none" fill-rule="evenodd"><path d="M1 258.15h534V49H1z"/><path fill="#01015B" d="M272.45 238.57h-20.767L241.3 215.43h20.767z"/><path fill="#534731" d="M269.78 238.57h-20.767l-10.383-23.14h20.767z"/><g transform="translate(1 49)"><path fill="#534731" d="M273.425 186.735h-41.157a.596.596 0 0 0-.597.596v1.834c0 .33.267.596.597.596h41.157c.33 0 .596-.267.596-.596v-1.834a.596.596 0 0 0-.596-.596"/><path fill="#FAE27E" d="M212.137 174.443c-3.785 0-6.43-3.076-5.894-6.856l8.893-62.827c.535-3.781 4.05-6.857 7.836-6.857h80.891c3.785 0 6.43 3.076 5.894 6.856l-8.893 62.828c-.535 3.78-4.05 6.856-7.835 6.856z"/><path fill="#987721" d="M208.394 174.443c-3.785 0-6.43-3.076-5.894-6.856l8.893-62.827c.535-3.781 4.05-6.857 7.836-6.857h80.891c3.785 0 6.43 3.076 5.894 6.856l-8.893 62.828c-.535 3.78-4.05 6.856-7.835 6.856z"/><path fill="#FAE27E" d="M209.109 169.393c-2.196 0-3.724-1.778-3.414-3.97l8.281-58.5c.31-2.192 2.342-3.97 4.538-3.97h80.891c2.196 0 3.724 1.777 3.414 3.97l-8.281 58.5c-.31 2.192-2.342 3.97-4.538 3.97h-80.89z"/><path fill="#FFCA00" d="M297.598 116.865h-81.12c-.812 0-1.377-.659-1.26-1.471l.538-3.732c.117-.812.87-1.47 1.684-1.47h81.12c.813 0 1.377.658 1.26 1.47l-.537 3.732c-.117.812-.871 1.47-1.685 1.47m-75.986 39.452H210.89c-.865 0-1.466-.7-1.342-1.565l4.832-33.54c.125-.865.928-1.566 1.793-1.566h10.722c.865 0 1.466.701 1.341 1.566l-4.831 33.54c-.125.864-.927 1.565-1.793 1.565m71.52-10.659h-28.507c-.865 0-1.466-.7-1.342-1.565l3.297-22.881c.124-.865.927-1.565 1.793-1.565h28.506c.866 0 1.466.7 1.342 1.565l-3.297 22.881c-.124.865-.927 1.565-1.792 1.565m1.003 3.911c.134-.928-.412-1.68-1.218-1.68h-28.72c-.807 0-1.569.752-1.703 1.68l-1.812 12.586h31.64zm-33.655-11.754c.133-.928-.412-1.68-1.22-1.68h-10.934c-.807 0-1.57.752-1.703 1.68l-3.506 24.34h13.856l3.506-24.34zm-37.88 22.519c.134-.928-.411-1.68-1.218-1.68h-10.935c-.807 0-1.57.752-1.703 1.68l-.262 1.821h13.856zm17.925-16.807h-10.722c-.866 0-1.466-.701-1.342-1.566l2.99-20.75c.124-.864.927-1.564 1.792-1.564h10.722c.866 0 1.466.7 1.342 1.565l-2.99 20.75c-.124.864-.927 1.565-1.792 1.565m8.715-23.881-1.826 12.678c-.133.928.412 1.68 1.219 1.68h10.935c.807 0 1.569-.752 1.703-1.68l1.826-12.678zm-7.203 27.692c.134-.928-.411-1.68-1.218-1.68h-10.935c-.807 0-1.57.752-1.703 1.68l-2.134 14.817h13.856zm131.158 21.964-28.615-16.606-5.705 5.738 28.248 30.523c6.567 6.13 16.96 5.016 21.003-3.002l11.91-23.416-20.36-16.163z"/><path fill="#987721" d="m399.775 114.249-9.607-4.99-10.492 37.116 20.36 16.163 6.92-13.604z"/><path fill="#534731" d="M370.864 68.557c1.19 1.591 2.433 1 2.164-.951-.858-6.241-1.178-7.199 1.073-13.109 1.239-3.251 1.715-3.564.18-4.465-5.086-2.982-13.269 5.358-3.417 18.525"/><path fill="#FFCA00" d="M394.26 51.69c-7.187-7.214-19.964-4.466-23.626 5.744-3.352 9.348 2.291 27.232 6.036 31.144 6.55 6.842 21.444-3.018 22.823-8.35 2.021-7.811.81-22.472-5.234-28.539"/><path fill="#534731" d="M407.435 42.427c-12.538-6.99-32.031-8.109-37.243-4.275-7.757 5.706-.246 18.928 2.934 19.371 1.452.202 2.634-1.047 3.754-1.992 5.313-4.485 10.742-2.037 15.123-1.691 7.762.614 26.116-5.458 15.432-11.413"/><path fill="#534731" d="M392.69 52.98c-.246 1.475 5.119 20.17 5.622 19.899 1.79-.967-.766-6.838 2.789-7.002.497-.023 3.03 6.687 4.038 12.532 1.847-.018 3.031-12.725 2.924-13.999-1.207-14.339-.567-13.668-3.256-14.716-5.928-2.31-11.677.656-12.116 3.286"/><path fill="#FFCA00" d="M408.37 63.646a9.1 9.1 0 0 1-1.299 6.698c-3.661 5.58-8.595-.942-8.071-5.376.624-5.286 8.123-7.542 9.37-1.322"/><mask id="b" fill="#fff"><use xlink:href="#a"/></mask><path fill="#E9B531" d="M224.822 200.207h162.001v-9.686H224.822z" mask="url(#b)"/><path fill="#534731" d="M129.72 200.207h95.102v-9.686h-95.103z" mask="url(#b)"/><path fill="#987721" d="m386.824 200.207-98.466 44.204-7.957 23.344-53.21-67.548z" mask="url(#b)"/><path fill="#534731" d="m280.401 267.755-14.919 72.018 20.887 17.384h-64.65l27.85-18.377-22.379-138.573" mask="url(#b)"/><path fill="#987721" d="m120.503 144.758 22.344 35.236 40.377 6.656 7.448-1.957 10.192 6.264h-66.64l-32.537-31.713z" mask="url(#b)"/><path fill="#FFCA00" d="m390.896 81.289 15.73 27.1s12.441-11.87 12.926-12.749c.485-.878-17.967-26.911-17.967-26.911" mask="url(#b)"/><path fill="#534731" d="m488.024 259.808 21.633-44.204 17.933-77.062-39.814 3.056-39.613 103.581-9.372 14.629z" mask="url(#b)"/><path fill="#FAE27E" d="M130.17 93.362s-21.14-7.86-23.896-14.06c2.548-5.844-1.684-18.666 1.831-27.444 4.904-12.244 18.182-14.643 25.903-6.99 6.703 6.646 10.097 16.16 7.407 25.955-2.963 5.389-11.245 22.539-11.245 22.539" mask="url(#b)"/><path fill="#FAE27E" d="m107.013 75.238-16.697 26.305 19.846 4.985 8.35-19.036z" mask="url(#b)"/><path fill="#E9B531" d="m55.126 236.634 5.015-50.703-1.447-40.166c6.023-14.187 17.048-42.372 32.716-46.115l28.564 6-2.607 87.778-2.084 19.16z" mask="url(#b)"/><path fill="#987721" d="m390.168 109.259 47.592-25.498 26.837 23.711 14.468 99.405-63.935 2.486 6.744-25.17z" mask="url(#b)"/><path fill="#534731" d="m411.191 209.147-61.75 8.901a16.07 16.07 0 0 0-13.277 11.894l-30.152 117.033 16.411 5.215s35.806-97.597 34.314-100.577 100.703-6.705 100.703-6.705l17.903-37.251z" mask="url(#b)"/><path fill="#FAE27E" d="m24.028 153.776 45.385 3.092 46.382 107.907-58.93-3.477zm419.825 61.96s-2.078-19.254 15.825-21.862 58.685-7.093 58.685-7.093l-1.23 4.076-54.847 22.23-18.433 2.65z" mask="url(#b)"/><path fill="#987721" d="M450.75 215.564s-1.888-18.151 11.726-19.455c13.613-1.304 54.658-5.252 54.658-5.252l-14.19 37.66s-13.224-16.074-27.583-15.701c-14.36.372-24.612 2.748-24.612 2.748" mask="url(#b)"/><path fill="#FAE27E" d="M379.099 177.068s-10.427 3.426-13.968-.268-14.13-3.751-16.985-5.751l-.124 2.218s1.986 1.957 5.67 2.637l3.862 2.382s-13.96 4.657-19.62 7.93l.124.87 13.078-3.052s-7.956 5.318-10.335 7.856l-.232 1.671 11.997-6.557s-6.58 6.47-7.455 8.795l.217 1.096 8.739-6.802-2.523 5.603s-.305.649-.076 1.214l6.247-6.73 11.76-4.623 10.316-.426z" mask="url(#b)"/><path fill="#FFCA00" d="M347.19 154.252s-10.363-5.344-10.302-10.484-7.857-12.985-8.528-16.46l-1.729 1.428s.05 2.803 2.318 5.984l1.148 4.477s-13.929-7.107-20.597-9.041l-.547.687 12.08 7.555-1.113 3.087-1.15 3.22 2.68 2.75 12.247 5.51 7.512 7.933 5.982-6.646z" mask="url(#b)"/><path fill="#FAE27E" d="m120.432 105.65 26.459 70.153 43.06 12.103-2.038 3.394-41.022-1.923c-8.023-.202-13.128-11.765-16.158-16.035l-32.945-46.439z" mask="url(#b)"/><path fill="#E9B531" d="m139.518 188.525 11.318-11.954-1.69-9.745-28.713-61.177-26.328 20.64z" mask="url(#b)"/><path fill="#FAE27E" d="m25.174 156.623 46.622 3.166-2.61-4.283-46.436-2.608zm471.802 93.127 17.174-58.606 2.984-.287-10.461 71.931z" mask="url(#b)"/><path fill="#987721" d="m83.307 104.159 2.75-6.412 20.986 2.028a9.15 9.15 0 0 1 6.788 4.115l6.143 1.759-31.735-1.09" mask="url(#b)"/><path fill="#FAE27E" d="m189.45 188.078 14.03-4.031 10.57 6.334-26.137.576z" mask="url(#b)"/><path fill="#534731" d="M101.749 55.004s-4.183-21.31 12.308-23.25c19.636-2.31 26.985 5.781 30.361 26.593l-16.04-9.036s-.925 7.785-6.282 16.06l-6.563-7.406s-9.002 1.56-4.329 9.133l-5.287 7.88z" mask="url(#b)"/><path fill="#FAE27E" d="m427.61 168.36-55.907 10.035-2.228 7.162 64.407-2.662a17.9 17.9 0 0 0 11.988-12.763l9.982-33.4-23.915-5.424c-2.417 20.371-4.327 37.052-4.327 37.052" mask="url(#b)"/><path fill="#987721" d="M437.76 83.761c-1.817 14.111-3.97 31.916-5.823 47.547l23.915 5.425 8.745-29.26s1.013-28.971-26.838-23.712" mask="url(#b)"/><path fill="#534731" d="M106.693 63.547c3.53 4.245 1.464 11.777-4.617 16.823s-13.873 5.696-17.405 1.451c-3.53-4.244-2.877-12.08 3.204-17.127 6.082-5.046 15.286-5.391 18.818-1.147" mask="url(#b)"/><path fill="#FFCA00" d="M403.107 102.327c5.958 8.862 18.766-1.888 16.055-8.602z" mask="url(#b)"/></g></g></svg>