<svg width="590" height="326" xmlns="http://www.w3.org/2000/svg" xmlns:xlink="http://www.w3.org/1999/xlink"><defs><path id="a" d="M0 0h40.071v32.604H0z"/><path id="c" d="M0 0h23.239v13.257H0z"/><path id="e" d="M0 0h19.709v15.214H0z"/></defs><g fill="none" fill-rule="evenodd"><path d="M280.401 77.91c-.211 3.118-1.031 6.094-1.389 9.195 6.781 2.757 13.193 5.962 12.756 2.901-.496-3.677-.479-8.996-.145-12.68 1.166-9.617-7.725-11.511-10.348-6.993-.343 1.184-.791 6.37-.874 7.578" fill="#9C6659"/><path d="M278.853 55.552c-.942 2.817-2.297 11.355 2.655 19.033 2.217 3.437 5.612 4.774 9.277 5.84 4.098 1.188 7.655 1.378 9.285-2.366.891-2.05.533-4.94.866-7.163.777-.006 2.303-.22 3.207-.29-.618-3.983-.599-5.304-1.826-11.58-.959-4.89-4.642-8.1-9.67-9.198-4.362-.95-11.563-.955-13.794 5.724" fill="#9C6659"/><path d="M279.485 71.073c.007-2.096-2.216-9.195 2.255-8.717 1.94.207 2.779 3.536 4.957 1.816 1.54-1.213 2.09-4.61 2.18-6.396.096-1.913-.776-5.646-1.28-7.287 2.853.527 7.215 1.578 10.031 1.183-3.097-2.595-8.438-2.727-12.133-2.31-5.166.581-7.695 6.02-8.231 10.822a17.967 17.967 0 0 0 2.087 10.71" fill="#5A3737"/><path d="M290.162 142.022c-4.532-.133-15.307 3.173-14.054 15.461.352 3.465 3.617 12.778 4.837 15.96 2.825 7.372 9.945 22.673 12.052 28.788 1.87 5.418 2.023 13.645 6.432 16.118 1.89 1.06 6.484 2.116 10.189.071.917-.507 5.55-3.584 4.743-9.526-.438-3.234-.863-2.654-1.372-5.879-1.02-6.484-1.593-12.078-3.102-18.453-1.422-6.009-4.182-15.176-5.984-20.949-2.501-8.023-1.44-21.232-13.741-21.59" fill="#5A8F2B"/><path d="M315.617 213.791c-3.114-11.947-13.471-14.796-19.353-5.298-2.42 3.91 1.162 8.15 2.132 13.626.569 3.208.7 8.906 2.977 15.926 1.656 5.106 8.955 18.937 10.007 21.413 1.143 2.686 2.532 5.838 3.615 8.595-.066.706 8.432-.825 8.492-1.85.034-.618-1.764-9.04-1.922-10.589-.573-5.705-3.401-23.653-4.486-29.409-.816-4.337-.482-8.653-1.462-12.414" fill="#5A8F2B"/><path d="M317.84 274.635c1.462-.367 1.436-.733 2.585-.846 1.547-.15 1.63.026 3.165-.226 2.472-.407 3.158-.582 5.423-1.532.397-.166 1.788-1.978.913-2.038-1.757-.123-2.978-.15-4.619-.682-2.47-1.189-.954-.75-4.4-3.663-1.839-1.553-3.702-.292-4.48.84-.54.784-.102 2.046-.556 3.075-1.029 2.342-.659 3.721.166 5.298.441.05 1.051-.038 1.803-.226" fill="#00005C"/><path d="M249.89 181.756c.126-1.967.352-5.492 2.233-6.666 3.152-1.97 4.538 3.572 4.79 5.562.212 1.66.532 4.889-.775 6.074-.328-.981-.722-2.13-1.278-3.04-.01 1.256.068 3.246 0 4.508-1.503-.3-3.18-.241-4.207-1.202-1.236-1.157-.86-3.738-.763-5.236" fill="#9C6659"/><path d="m258.95 191.154.385-3.676a2.003 2.003 0 0 0-.394-1.426 1.858 1.858 0 0 0-1.303-.739l-8.153-.853c-1.049-.11-1.993.682-2.106 1.765l-.362 3.452-10.92-1.353-2.585 20.876 32.806 4.064 2.585-20.876-9.954-1.234zm-9.779-4.742c.011-.104.082-.164.126-.16l8.154.855c.03.006.038.013.055.036a.206.206 0 0 1 .034.147l-.38 3.642-8.353-1.033.364-3.487z" fill="#A3A6BD"/><path d="M257.114 181.683s.349 3.305-.501 5.36l-2.355-4.258 2.856-1.102z" fill="#9C6659"/><path d="M263.82 137.166c.75 1.296.827 2.868.771 4.365-.447 12.215-6.87 22.994-7.825 35.18-.249 1.33-6.5 1.315-6.581-.774-.356-4.927.774-26.287 1.036-29.183.185-2.057.373-4.126.933-6.114.55-1.944 1.663-3.504 3.159-4.846.526-.474 1.08-.93 1.715-1.243 2.504-1.238 5.475.34 6.792 2.615" fill="#E3D676"/><path d="M262.27 107.013c1.299-3.494 2.799-7.078 5.595-9.541 2.798-2.465 7.257-3.435 10.27-1.242 1.588 1.154 2.559 3.021 2.937 4.947.379 1.927.21 3.921-.128 5.856-1.006 5.71-3.482 11.043-6.042 16.245-2.638 5.365-5.387 10.674-8.136 15.983-.282.54-.567 1.09-.985 1.538-.925.992-2.604 2.013-3.953 1.892-1.351-.121-2.956-.28-4.21-.8-1.674-.695-2.693-2.754-3.473-4.493-.848-1.886.119-4.466.629-6.33.739-2.702 1.494-5.4 2.28-8.09 1.57-5.373 3.267-10.715 5.217-15.965" fill="#E3D676"/><path d="M245.14 268.024c1.229.876 1.879.727 2.756 1.477 1.18 1.012 1.109 1.195 2.353 2.129 2.004 1.502 2.604 1.879 4.859 2.856.394.17 2.664-.08 2.104-.753-1.128-1.351-1.955-2.252-2.705-3.806-.852-2.604-.12-1.206-.4-5.71-.152-2.403-2.351-2.874-3.706-2.655-.942.154-1.548 1.343-2.605 1.729-2.406.876-3.19 1.896-3.757 3.58.35.603.985 1.07 1.102 1.153" fill="#00005C"/><path d="M282.82 221.142c5.245-11.176-.897-19.99-11.493-16.448-4.36 1.458-4.316 7.009-7.073 11.84-1.616 2.83-5.155 7.297-7.894 14.149-1.992 4.985-5.223 20.286-5.999 22.862-.84 2.794-1.784 6.106-2.717 8.919-.501.5 7.013 4.759 7.715 4.007.422-.45 4.424-8.08 5.293-9.371 3.205-4.752 12.508-20.36 15.355-25.48 2.144-3.855 5.161-6.96 6.813-10.478" fill="#5A8F2B"/><path d="M287.43 142.173c-4.234-1.884-15.706-2.94-19.29 9.166-1.01 3.414-1.539 13.488-1.623 16.97-.187 8.068.606 25.3.226 31.9-.334 5.85-3.384 13.688-.172 17.738 1.376 1.736 5.31 4.518 9.607 4.021 1.063-.12 6.638-1.234 8.181-7.167.842-3.229.213-2.845.985-6.09 1.551-6.528 3.181-12.04 4.228-18.654.986-6.236 1.935-15.975 2.474-22.134.746-8.556 6.875-20.635-4.616-25.75" fill="#5A8F2B"/><path d="M299.734 103.397c-1.626-8.017-3.069-11.323-9.215-13.876-6.412-2.66-11.42-2.09-16.629.192-14.719 6.445-11.629 23.542-7.815 36.49 1.782 6.045 2.903 14.1 3.608 20.338.301 2.662 4.098 2.206 4.608 2.28 6.41.95 12.111.972 17.831-.19 6.22-1.263 4.273-2.154 5.609-7.221 1.602-6.083 2.203-10.643 2.404-19.006.138-5.798.601-14.065-.401-19.007" fill="#E3D676"/><path d="M321.306 170.311c1.1.771 2.248 1.35 3.348 2.12 1.87 1.311 2.621 2.782 3.691 4.755.13.236.222.6-.019.716-.105.051-.228.023-.339-.009-1.078-.298-1.694-1.07-2.527-1.817.884 1.93 1.291 4.123 2.005 6.122.087.25.168.552.002.761-.213.267-.639.154-.948.004-2.517-1.199-4.659-3.14-6.163-5.483-.99-1.54-3.474-5.888-1.644-7.46.578-.5 1.631-.515 1.982.084" fill="#9C6659"/><path d="M297.191 136.697c1.466.309 2.685 1.304 3.761 2.346 8.781 8.503 12.497 20.487 20.917 29.348.823 1.074-3.369 5.713-4.978 4.375-3.9-3.033-19.022-18.16-21-20.288-1.404-1.515-2.817-3.04-3.919-4.784-1.078-1.71-1.494-3.581-1.492-5.59 0-.708.032-1.424.224-2.106.756-2.692 3.915-3.844 6.487-3.301" fill="#E3D676"/><path d="M278.868 114.188c-1.076-3.567-2.048-7.332-1.306-10.984.739-3.652 3.704-7.12 7.43-7.194 1.964-.04 3.865.86 5.33 2.166 1.467 1.31 2.539 2.998 3.436 4.745 2.649 5.156 3.898 10.902 5.004 16.592 1.14 5.87 2.157 11.761 3.173 17.653.105.602.209 1.212.147 1.82-.138 1.349-1.095 2.504-2.244 3.222-1.15.72-2.483 1.072-3.793 1.415-1.756.46-3.62.599-5.29-.313-1.815-.992-2.606-3.632-3.324-5.424a509.273 509.273 0 0 1-3.073-7.823c-1.995-5.232-3.872-10.513-5.49-15.875" fill="#E3D676"/><path d="M44.294 86.09c-.248 2.976-2.035 8.561-2.435 11.524 6.99 2.704 14.508 3.085 14.085.154-.482-3.52-.415-8.606-.034-12.123 1.298-9.183-7.883-11.085-10.641-6.79-.365 1.126-.88 6.08-.975 7.234" fill="#D8A26C"/><path d="M42.902 64.7c-1 2.684-2.485 10.832 2.57 18.221 2.26 3.308 5.761 4.621 9.544 5.677 4.227 1.177 7.906 1.396 9.627-2.169.944-1.949.598-4.716.964-6.839.805.004 2.386-.185 3.321-.244-.602-3.812-.569-5.074-1.78-11.087-.947-4.687-4.728-7.793-9.92-8.893-4.503-.952-11.955-1.029-14.326 5.333" fill="#D8A26C"/><g transform="translate(26.14 48)"><mask id="b" fill="#fff"><use xlink:href="#a"/></mask><path d="M19.136 32.017c-.625.326-3.896.736-5.048.532-3.312-.588-6.958-2.857-8.872-5.133C2.445 24.13-.04 20.904 0 16.515.064 9.674 5.774 1.472 13.947 1.965c1.954.117 5.387.808 7.189 1.631 1.56.712 3.08 2.046 4.804 1.433 1.779-.635 1.975-2.584 3.369-3.603 3.556-2.603 8.856-1.577 10.3 2.537.43 1.22.585 2.79.36 4.087-.273 1.563-1.305 3.325-2.538 4.413-1.63 1.436-3.702.942-5.725 1.62-1.435.485-3.274 2.2-3.712 3.848-.523 1.976-1.471 2.392-3.473 3.23-2.346.982-3.998 1.762-3.316 3.45 1.585 3.924 1.206 5.69-2.07 7.405" fill="#DDD" mask="url(#b)"/></g><path d="M53.227 148.092c-4.793-.177-16.217 2.942-15.011 14.962.34 3.392 3.701 12.525 4.962 15.647 2.916 7.233 10.3 22.26 12.473 28.256 1.924 5.316 2.005 13.355 6.646 15.818 1.99 1.054 6.838 2.135 10.776.175.975-.486 5.904-3.444 5.108-9.26-.433-3.165-.888-2.602-1.394-5.758-1.019-6.348-1.569-11.82-3.104-18.064-1.448-5.888-4.279-14.875-6.129-20.535-2.569-7.864-1.32-20.762-14.327-21.24" fill="#E9B531"/><path d="M81.186 274.536c1.517-.335 1.492-.685 2.68-.783 1.605-.13 1.689.04 3.28-.184 2.56-.364 3.273-.523 5.625-1.41.412-.154 1.869-1.871.964-1.94-1.816-.133-3.081-.172-4.774-.697-2.544-1.161-.98-.725-4.517-3.546-1.89-1.504-3.827-.317-4.643.756-.567.746-.125 1.956-.605 2.935-1.087 2.23-.716 3.552.12 5.067.458.05 1.09-.025 1.87-.198" fill="#AFAFF9"/><path d="M78.757 270.657a.508.508 0 0 0 .008-.035l-.008.035zM79.532 267.172c-.008.027-.015.038-.015.038.007-.025.015-.044.015-.038M79.806 266.607c-.007.012-.014.019-.02.029a.12.12 0 0 1 .02-.03M78.766 270.621l.023-.094c.01-.004-.01.05-.023.094M78.47 272.175l.002.029-.01.025.007-.054zM78.667 273.327a.127.127 0 0 0 .004.06c-.004.002-.008 0-.019-.006-.008-.027.009-.042.015-.054M78.556 271.305c-.002-.004-.004-.008-.004-.012 0 0 .004.004.004.012M82.484 274.02l.003.004c-.008 0-.01 0-.002-.004M80.623 265.815l-.005.004c-.026.015-.012.004.005-.004M89.356 269.548c-.117-.012.175.073.002.046.017-.002-.144-.073-.002-.046M83.129 265.24c-.006.002-.017.002-.027.002 0 0 .006-.002.027-.002M81.222 265.517l.042-.023c-.021.013-.032.017-.042.023M84.08 265.65l-.02-.007.02.008M84.08 265.65c.013.007.023.01.044.026l-.011-.004c-.008-.006-.016-.013-.033-.021M84.896 266.266l-.02-.008-.024-.021zM85.611 273.61a.152.152 0 0 0-.048.018c.017-.015-.135-.019.048-.019M84.013 265.802c.048.025.09.058.133.087-.037-.022-.083-.06-.133-.087M92.761 272.067a.112.112 0 0 1 .03-.012l-.03.012zM84.528 266.178a.491.491 0 0 1 .08.048c.005.007.01.01.012.014l-.092-.062zM80.38 266.211l.014-.01-.013.01zM85.124 266.669l-.017-.017.017.017zM84.204 265.752l-.002-.002.002.002z" fill="#05528A"/><path d="M80.354 274.66c.027-.017-.065-.01-.102-.015.117-.008.302-.031.342-.018l-.055.014c.013-.006-.006-.014-.03-.014-.105 0-.145.029-.15.037l.074-.006c-.069.054-.298.035-.446.05l.065.025-.156-.013c-.034.009-.054.027.021.027-.107.02-.096-.004-.188.015-.01.004-.006.006.002.006l-.106-.008c.021.006-.017.023.048.019a1.002 1.002 0 0 1-.388-.042l.01.019c-.13-.263.003-.04-.07-.233l-.11-.092.008-.033c-.013-.023-.04-.071-.044-.06-.029-.097.017.012.004-.047-.079-.106-.143-.331-.189-.343-.002-.05.064.11.018-.023-.054-.021-.054-.152-.116-.257-.004.04.048.144-.013.038 0-.08-.085-.22-.112-.32.021-.01-.05-.213-.079-.38-.009.012-.077-.313-.098-.471l-.002.004c.018-.031.008-.196.008-.314-.015.006-.02.027-.025.09l-.004-.111c.006-.027.012-.061.02-.133l-.024.027c.006-.15.035-.3.05-.492.018-.006.033.158.068-.04-.008-.01-.025-.018-.035.032.004-.017.015-.061.017-.094l-.028.077c.003-.088.02-.044.03-.113-.015 0 0-.052-.013-.043-.006.016-.006.06-.017.087.013-.08.021-.173.017-.206.006.008.02.004.031-.052.03-.148-.006-.056.007-.142.018-.033.033-.127.054-.125.012-.041.004-.052.002-.071.023-.073.112-.341.106-.252l-.006.019.004-.01c.096-.234.17-.498.277-.723l-.006-.002c.07-.132.146-.3.198-.39.016-.04.027-.098.012-.085.038-.104.06-.113.084-.273-.04.106 0-.04-.038.11.03-.144.03-.175.073-.327-.029.05-.004-.11.004-.177l.002.102c.013-.077.017-.146.023-.214l-.027.035c-.004-.298.08-.538.042-.771.021-.08.004.167.027.094.002-.138-.023-.285-.019-.331.004-.194.052-.175.077-.375.002.027.02.054.063-.09.03-.135.018-.177-.02-.094-.014.032-.009.048-.009.048-.015.044-.032.102-.028.046l.013-.017c.002-.07.077-.258.046-.22.054-.098.027-.04.006.039.054-.177.121-.27.231-.423-.016.027-.025.054-.006.032.167-.217.085-.086.213-.22.062-.085-.048.007.087-.12.073-.09 0-.035-.035-.006.131-.111.223-.227.295-.294-.025.017-.05.033-.072.054.056-.044.08-.062.112-.09l-.027.046c.04-.035.073-.062.07-.068.047-.023-.016.05.078-.005.048-.054.177-.116.183-.15-.177.132.008-.033-.148.07l.11-.076c.005-.006-.01 0-.022.009.166-.136.091-.04.281-.15-.03.002.031-.048.065-.063-.078.044-.027.04.047.008.117-.08.14-.06.205-.095l-.073.039c.031 0 .094-.03.185-.067.002-.012-.083.03-.054.01.104-.026.217-.112.367-.147.062-.031-.002-.027.056-.052.171-.021.175-.065.356-.085-.05.025-.058.02.07.022-.099.005-.195.028-.29.044l.187-.02c-.086.022-.184.035-.236.049.092-.006.082-.008.044.015.111-.054.236-.04.371-.071l-.01-.042c.21-.047.38-.01.652.007l-.09-.004c.035.022.17.022.256.039-.006-.014.05-.014.09-.01-.008.008.196.048.212.08.04.005.084.005.123.016.206.079.225.118.413.216-.05-.044.04-.008-.082-.085.063.033.121.06.117.07.042.013.163.11.227.13.023.02.021.04.086.085.006.002.006-.004.006-.004.008.015.09.075.03.052.207.08.474.367.643.454.12.102.256.22.358.309-.004-.01.004-.005-.017-.021.155.112.063.108.238.235.1.054-.079-.083-.02-.046.055-.016.195.175.322.252l-.025-.027c.094.065.194.194.33.315 0 0-.005-.008.003-.006.075.104.244.268.363.398-.027-.053-.05-.063-.013-.053.054.057-.037.007.071.119.044.027.13.102.154.098l-.104-.104c.073.033.133.137.192.19l.002-.015c.154.164.135.189.302.364l-.023-.012c.07.117.088.07.165.179l.048.008c.054.067.202.228.33.32-.064-.065-.197-.188-.268-.276.06.06.217.19.246.227-.027-.023-.056-.056-.086-.073.067.084.175.173.323.26 0-.06.398.209.534.222.264.14.554.28.873.375-.134.006.097.029.064.066a.57.57 0 0 0 .117.034l-.017-.005.02.005.247.037c.06.004-.073-.03-.063-.037.175.043.077.002.196.018-.027.01.056.038.158.057l-.145-.015c.24.083.22.013.464.09l-.077-.03c.127.036.473.09.596.146.023 0 .054-.008-.002-.021.308.046.685.136.93.138l-.022-.013c.056.009.098.03.173.028-.004-.007-.023-.015.004-.013.03.008.152.033.231.033l-.064-.016c.304.012.464.068.721.096.002-.034.243-.025.364-.023l-.004-.005c.177.01.33.028.477.048.136.034.313-.004.477.16.117.105.1.342.021.522a2.944 2.944 0 0 1-.277.51c.025-.046-.025-.008-.063.04-.039.068-.15.158-.118.166l.016-.023c-.012.067-.123.188-.208.282l-.044-.013a1.5 1.5 0 0 1-.423.406c-.2.115-.356.134-.433.198l-.246.07.013.02c-.204.079-.304.118-.56.204l.056-.004c-.144.052-.202.006-.334.05l-.03.043c-.25.084-.5.192-.76.238.005.004.015.01.057 0-.12.035-.462.15-.429.096.004.027-.265.073-.406.09l.025.016c-.123.002-.13-.004-.296.025-.04.01-.03.023.021.006-.13.038-.107.004-.263.046l.063.002c-.136.027-.127.019-.202.017-.088.01-.257.052-.273.075a.428.428 0 0 0-.175.01c-.009.009.02.009.035.007-.225.052-.339.033-.492.077-.002.008-.012.012-.025.016.165-.027.292-.05.311-.052.002.019-.14.046-.02.052-.122.007-.326.007-.466.036-.004.004-.01.006-.016.01h.014a.512.512 0 0 1-.09.01l-.116.023c-.015.019-.165.034-.237.044.002-.021-.09-.004-.009-.031l.065-.008c.01 0 .02 0 .031-.002h-.004c.046-.01.108-.017.18-.028-.059 0-.12 0-.199.023-.04-.008-.085-.014-.106-.018-.096.043-.283.085-.308.106-.223.023-.525.064-.669.042-.065.002-.073.018-.096.027.038 0 .081-.005.102-.002-.127.004-.377.033-.41.006-.159.025.091.02-.129.029l.031.006c-.436.073-.708-.054-1.188.009.034-.005.052-.007.06-.011-.545.038-1.135.006-1.65.144-.147.039-.166.027-.26.042l-.025.03-.156.028c-.219.062-.339.202-.623.277l.03-.03c-.094.045-.31.109-.29.117-.01.003-.038-.004-.073.017l.002.013-.25.056c-.187.06.042.035-.237.112-.107.02-.305.038-.267.02.042-.01.104-.03.106-.043l-.098.017c-.023-.03-.102-.048.123-.125l.165-.02.048-.03-.136.036c.073-.036.123-.036.181-.04a.139.139 0 0 1 .063-.035l.165-.017c.014-.017-.08-.004.022-.042.078-.008-.06.05.063.02.071-.04.044-.043.137-.06.01-.012-.012-.012-.047-.004.081-.016.206-.068.252-.068.068-.046.26-.102.24-.127.026-.005.145-.036.218-.065-.148.017.267-.11.221-.133.11-.004.375-.098.564-.104a.096.096 0 0 0-.048 0c.105-.02.132-.032.198-.048.02.027.182.014.27.027.124-.038-.08-.03-.043-.06-.004.024.223.008.182.03.093-.022.081-.014.13-.041.02.035.09.002.174.019.137-.025.033-.036.19-.032.072-.014-.067-.02-.067-.02.158-.01.075.022.11.037.188 0 .086-.023.15-.04.117.003.208.028.294.025.008-.004.025-.006.004-.012.125.02.37.002.51.027a.05.05 0 0 0 .02-.006c-.024.014-.028.027-.022.037.071 0 .132.017.157-.002-.044.002-.046-.006-.067-.012l.073.008c.067-.027-.1-.008-.1-.027.144.008.31.023.42.01.02-.025-.258.002-.112-.027l-.169.015c.128-.042-.102.006.015-.04.221-.012.248.007.47-.016.051.01-.016.023.034.03.317-.001.242-.082.475-.076.063.01.09.039.252 0l-.06-.021c.212-.031.127.025.35-.025-.042-.006-.17.015-.138.006.142-.044.104.002.217-.014l.02-.03c.215-.022.494-.054.734-.081-.014-.004-.058-.006 0-.023.32-.035.677-.112.98-.183h.118c.027-.006.05-.021.02-.02.115-.03.007.014.065.012.07-.013.088-.032.044-.03.213-.022.602-.087.813-.168l-.044.006c.166-.052.202-.006.352-.071l-.029.004c.36-.11.766-.218 1.031-.346.062.013.35-.137.387-.104.198-.093.136-.081.42-.198.074-.031.122-.018.218-.047l-.006-.023.137-.025.06-.052c.028-.01.063-.017.084-.03-.023.019-.069.04-.058.044a.527.527 0 0 0 .264-.204c.09-.07.177-.146.258-.225a.211.211 0 0 0-.06.046c.094-.084-.012-.027.108-.125-.012.019.02 0 .023 0 .046-.073.17-.22.26-.327l-.03.012c.141-.204.324-.44.383-.694-.01.09.02.082.037.005l-.016-.036c.025-.046-.009.08.031-.016.002-.094-.025-.061-.033-.015.006-.033.002-.065.006-.1-.006-.004-.01.02-.019.027.011-.054-.058-.098-.123-.121l-.006.006c-.25-.037-.41-.043-.64-.064-.002-.021-.095-.023-.164-.046-.175-.004-.369-.002-.579-.021-.148-.023-.042-.021-.107-.04-.012.019-.223 0-.116.024a9.298 9.298 0 0 1-.638-.08c.036-.004.075-.004.054-.012-.056-.008-.13-.006-.125.002l.015.004c-.352-.064-.83-.052-1.108-.146l.016.005-.289-.078c-.134-.027.077.032-.025.02-.306-.097-.494-.11-.746-.2a1.468 1.468 0 0 1-.47-.122 4.61 4.61 0 0 0-.482-.216l.021-.004c-.059-.044-.08-.032-.129-.053.01-.006.075.023.037-.002-.269-.14-.55-.277-.82-.452-.276-.175-.5-.416-.713-.633-.156-.163-.038-.14-.259-.323l.04.075c-.296-.344-.664-.644-.98-.954.016.023.011.029.043.058-.08-.05-.263-.227-.255-.24-.054-.043-.02 0-.058-.022-.079-.052-.164-.17-.214-.188-.007-.002.002.007.012.017-.058-.056-.2-.163-.146-.144-.137-.098-.24-.208-.354-.283-.052-.071-.227-.173-.23-.211-.012.032-.249-.143-.326-.218.025.025-.084-.036-.054-.002-.102-.057-.194-.113-.169-.12-.202-.072-.388-.201-.519-.195a2.592 2.592 0 0 0-.966-.144c.012.027.347 0 .333.034-.294-.015-.473-.036-.76.039-.073.02.045.004.07.002-.293.046-.55.167-.798.265 0 0 .032-.006.057-.017-.048.02-.109.056-.109.042a.25.25 0 0 1 .046-.02c.065-.061-.204.059-.219.055.098-.008-.222.146-.073.119-.029.017-.068.035-.068.023-.042.03-.052.044 0 .025-.16.1-.12.042-.254.148.006.006.035-.013.054-.017-.075.044-.159.08-.263.184.01-.003.004.008.021-.007-.179.159-.333.254-.489.473.077-.041-.053.079-.038.109l-.083.11.021-.054a.97.97 0 0 0-.155.308l.04-.085c-.027.073-.056.148-.073.225.006-.044.013-.09.025-.134-.052.119-.03-.023-.067.146.01-.035-.029.125-.018.196a.744.744 0 0 0-.038.223c.006.025.031-.02.038-.002-.03.062-.027.302-.055.38.01-.024.023-.026.025-.016l-.02.052c.004.06.006.069.018.06-.004.182-.033-.057-.027.157.002-.017.004-.008.01-.044 0 .219-.035.419-.05.619.02.063.026-.173.04-.102-.035.29-.133.592-.252.848l.02-.05c-.05.02-.07.198-.145.317.017-.03.04-.034.031-.025-.077.168-.154.345-.275.614l.021-.031c-.025.11-.09.279-.118.396-.019.033-.036.1-.038.054-.048.369-.183.689-.154 1.023.002-.04.012-.094.012-.063l-.018.279c-.019-.022-.01-.037-.02-.095a.512.512 0 0 0-.018.185c.006-.127.027 0 .038.052-.004-.008-.01.013-.015.006.04.144-.042.029.002.227l.01-.012c.003.075-.004.144.011.225.025.03-.002-.081.015-.088.01.113.002.227.04.323l-.022-.164c.044.106.04.12.061.2l.033.098-.025-.073.048.15-.019-.046c-.016.152.071.279.104.47-.033-.187.007-.035.021-.056.023.044.06.11.056.088.017.09.065.135.094.26.01.002.04.09.048.063.044.108-.023-.021-.027-.008.052.177.208.372.302.616.031.11.073.088.148.108.065.015.127.025.231.03.071-.013-.058-.025-.058-.025.115-.013.198-.015.306-.015-.023-.004-.002-.01.031-.021.086-.004.061.02.171-.002-.018-.004-.046-.014-.087-.02.102-.001.202-.001.306-.01m8.064-1.334-.13.02c-.01.009.001.015.032.009-.018-.002.055-.017.098-.03" fill="#05528A"/><path d="m81.246 265.659.019-.008a.239.239 0 0 1-.019.008M79.543 267.503l.023-.08c-.006.046-.01.08-.023.08M84.013 265.803l-.015-.01.015.01zM79.59 267.302a3.041 3.041 0 0 0-.024.12.525.525 0 0 1 .025-.12M79.027 274.285c-.127-.204.035.04-.073-.185.027.056.056.112.088.168-.023-.027-.053-.06-.015.017M78.722 273.555c.029.097-.013.002-.015.007-.012-.064-.016-.079.015-.007M79.242 269.43l-.02.005c.024-.073.005.002.02-.004M79.494 268.733l-.023.035.017-.112zM79.378 268.169l-.004.033.014-.131zM84.763 266.136l-.033.002c-.038-.035-.032-.062.033-.002M87.024 268.238a.455.455 0 0 1 .125.12c-.05-.047-.102-.093-.125-.12" fill="#05528A"/><path d="M20.75 180.05c.239 1.272.654 2.45.892 3.724.404 2.16-.124 3.654-.785 5.7-.081.246-.277.549-.54.459-.112-.04-.182-.143-.242-.24-.568-.946-.45-1.883-.511-2.954-.767 1.887-2.075 3.618-3.018 5.433-.118.228-.282.483-.554.505-.351.027-.58-.344-.697-.655a13.6 13.6 0 0 1-.482-7.897c.405-1.706 1.773-6.298 4.26-6.067.786.072 1.565.792 1.382 1.43" fill="#D8A26C"/><path d="M27.584 141.302c.836 1.224.991 2.727 1.008 4.162.133 11.706-7.349 22.375-7.742 34.065.021 2.323-3.249 2.124-3.436.124l-1.816-14.131c-.275-2.131-.55-4.266-.662-6.406-.146-2.785-.016-5.567.113-8.347.092-1.972.183-3.958.667-5.874.471-1.876 1.544-3.393 3.021-4.713.522-.465 1.07-.914 1.711-1.23 2.524-1.24 5.666.2 7.136 2.35" fill="#D8A26C"/><path d="M25.261 113.726c1.375-3.327 2.962-6.737 5.88-9.064 2.915-2.327 7.538-3.21 10.636-1.084 1.631 1.121 2.62 2.915 2.992 4.761.373 1.845.183 3.752-.188 5.597-1.094 5.448-3.708 10.521-6.404 15.467-2.779 5.101-5.673 10.15-8.568 15.197-.296.514-.596 1.037-1.03 1.46-.968.938-2.483 1.25-3.878 1.121-1.396-.129-2.71-.644-4.002-1.152-1.727-.68-3.34-1.669-4.13-3.337-.862-1.813.163-4.269.71-6.044a465.52 465.52 0 0 1 2.432-7.712c1.677-5.123 3.483-10.21 5.55-15.21" fill="#DDD"/><path d="M6.026 267.477c1.26.85 1.937.712 2.835 1.44 1.215.98 1.138 1.154 2.417 2.06 2.058 1.456 2.677 1.82 5 2.779.408.167 2.758-.048 2.183-.698-1.152-1.304-2-2.175-2.762-3.666-.857-2.498-.113-1.155-.361-5.463-.133-2.3-2.404-2.773-3.81-2.575-.975.136-1.613 1.267-2.71 1.625-2.496.815-3.32 1.779-3.921 3.386.356.579 1.01 1.03 1.129 1.112" fill="#AFAFF9"/><path d="m11.002 261.475-.037.015c.02-.013.041-.019.037-.015M12.717 261.251h-.004c-.031-.006-.013-.004.004 0M16.057 269.871c-.073-.09.075.173-.031.035.014.01-.05-.154.03-.035M14.956 262.478a.08.08 0 0 1-.023-.015l.023.015M13.357 261.427l.046.012-.046-.012M15.33 263.438l-.006-.02a.079.079 0 0 0 .006.02M15.33 263.438a.42.42 0 0 1 .013.048l-.007-.01a.18.18 0 0 0-.006-.038M15.422 264.449l-.006-.02v-.03zM15.175 263.492c.017.05.02.102.027.154-.008-.042-.008-.1-.027-.154M16.066 273.574c.015.006.027.01.033.017l-.033-.017zM15.244 264.12a.597.597 0 0 1 .019.091c-.002.006-.002.014-.004.018l-.015-.11zM12.275 261.381h.015-.015zM15.276 264.862l-.002.023a.082.082 0 0 0 .002-.023M15.341 263.598l.002-.002-.002.002z" fill="#05528A"/><path d="M5.4 266.928c.029.01-.031-.058-.05-.09.075.09.208.217.223.255l-.046-.034c.015.006.008-.014-.008-.03-.063-.08-.11-.094-.12-.094l.053.053c-.087-.02-.21-.212-.306-.325l.019.067-.08-.132c-.027-.022-.054-.028-.01.032-.081-.075-.05-.082-.12-.147-.007-.007-.005-.002-.001.005l-.052-.092c.004.017-.031-.01.013.05a.843.843 0 0 1-.048-.068c-.015-.022.012-.048.016-.07l.044-.096c.027-.056.05-.099.052-.135l-.008.014c.112-.238.03-.014.133-.183l.004-.144.032-.014c.01-.026.033-.074.02-.07.059-.08.002.022.04-.024.035-.13.179-.31.162-.355.038-.03-.05.115.03 0-.015-.053.09-.13.14-.24-.034.02-.088.12-.038.012.064-.044.133-.195.198-.272.02.01.148-.162.27-.276-.014 0 .215-.236.336-.34h-.006c.037-.002.164-.105.262-.168-.012-.012-.033-.002-.09.03l.09-.067c.027-.007.056-.026.119-.062l-.036-.002.423-.245c.019.01-.106.118.075.03.002-.012 0-.03-.048-.008.015-.006.057-.022.086-.043l-.08.025c.074-.05.047-.01.107-.047-.008-.012.039-.032.025-.036-.015.006-.05.033-.075.04.067-.04.148-.089.17-.111-.001.01.009.015.06-.007.135-.065.039-.04.114-.084.035-.007.116-.055.129-.036.037-.017.042-.03.054-.043.073-.02.329-.14.258-.082l-.016.007.01-.004c.24-.07.479-.2.717-.267l-.002-.007.41-.132c.04-.018.088-.056.067-.056.104-.041.116-.046.25-.135-.104.046.027-.028-.104.05.122-.076.14-.107.283-.175-.054.017.075-.084.133-.12l-.075.072c.065-.045.119-.084.173-.13l-.046.005c.217-.204.45-.3.598-.481.073-.038-.121.111-.052.082.104-.089.198-.206.233-.233.148-.123.167-.077.33-.19-.017.02-.025.05.108-.014.119-.068.139-.106.054-.079-.033.014-.042.028-.042.028-.041.017-.095.044-.05.01l.019-.002c.054-.044.24-.12.19-.115.106-.031.048-.008-.023.031.162-.084.27-.1.456-.135-.03.005-.054.02-.025.017.267-.038.119.002.302-.008.102-.02-.04-.033.146-.029.112-.012.023-.022-.023-.029.169.007.317-.007.413-.012l-.088-.009.142.01-.052.014c.052-.002.095.005.095-.002.052.014-.043.024.063.05.069-.002.208.026.233.012-.216-.02.029-.022-.156-.046l.13.012c.01 0-.005-.004-.02-.007.213.012.092.041.307.075-.025-.02.054-.012.089 0-.087-.022-.046.01.029.04.138.024.146.04.215.06-.025-.009-.054-.01-.081-.018.025.017.09.036.18.072.01-.007-.078-.034-.045-.027.094.055.24.05.369.13.069.02.017-.02.075-.002.15.082.173.072.323.17-.054-.012-.06-.02.04.055l-.246-.154.15.115c-.078-.041-.155-.103-.205-.122.073.051.065.047.023.038.115.038.202.123.323.19l.02-.04c.186.108.289.245.48.437-.02-.022-.04-.045-.064-.062.016.034.106.132.158.205.006-.017.046.026.077.048-.006-.002.104.173.094.209l.079.094c.096.2.069.245.137.44-.004-.063.038.024.003-.113.029.064.039.129.033.13.019.038.029.195.058.255.002.029-.012.042-.002.12.004.005.006 0 .006 0-.004.018.004.118-.016.057.079.207.043.594.09.776.003.156.008.337.008.47.004-.008.008 0 .006-.025.019.187-.04.116-.02.33.028.112.01-.113.022-.046.05.03-.002.262.025.404l.002-.034c.017.113-.015.27-.017.452 0 0 .004-.008.007-.002-.028.125-.042.358-.061.53.02-.052.015-.077.03-.043-.005.077-.028-.024-.042.132.006.05.006.161.025.178l.012-.146c.02.077-.014.19-.017.267l.013-.008c-.027.224-.056.224-.077.464l-.006-.024c-.04.126.004.108-.021.236l.027.043c-.015.082-.02.298.004.452.004-.09-.006-.27.006-.377 0 .082.019.283.015.329-.002-.036-.002-.08-.011-.11-.01.103.003.244.044.41.044-.041.13.424.213.531.035.147.087.29.14.438.043.127.147.274.224.426-.1-.087.05.09 0 .094.038.072.052.099.059.105l-.01-.016.012.016.15.2c.04.043-.032-.073-.02-.072.097.153.055.055.128.149-.027-.012.015.065.075.147l-.096-.11c.115.225.15.162.27.383l-.032-.072c.064.111.277.387.327.51.019.014.046.031.012-.017.192.243.402.565.577.733l-.006-.024c.035.048.05.091.106.14 0-.007-.008-.025.01-.007.017.026.088.129.142.184l-.033-.058c.21.22.285.37.45.565.023-.02.192.15.275.236v-.007l.163.19c.047.075.116.149.112.262-.015.231-.21.31-.352.377-.183.132-.68.221-1.008.267.052-.01-.01-.024-.07-.022-.076.014-.216-.007-.201.02l.029-.002c-.058.034-.221.032-.348.032l-.02-.04a1.034 1.034 0 0 1-.282-.002c-.113-.019-.208-.067-.294-.104-.175-.08-.335-.154-.425-.165a16.326 16.326 0 0 0-.225-.116l-.004.02c-.2-.08-.302-.12-.544-.236l.044.036c-.137-.06-.148-.133-.273-.193l-.052.01c-.237-.11-.49-.209-.708-.355.002.007.004.02.04.04-.11-.055-.432-.213-.37-.228-.016.022-.24-.132-.351-.217l.008.029c-.09-.086-.09-.091-.227-.188-.036-.019-.04-.007.008.018-.116-.061-.077-.07-.216-.147l.04.043c-.113-.072-.101-.075-.155-.127-.067-.051-.22-.139-.246-.135a.373.373 0 0 0-.131-.113c-.013 0 .01.02.02.03-.195-.116-.266-.21-.406-.281-.006.002-.016 0-.03-.006.139.091.245.164.262.175-.013.014-.134-.066-.052.022-.09-.077-.236-.216-.36-.291a.093.093 0 0 0-.017-.007l.01.01a.441.441 0 0 1-.071-.053c-.044-.027-.067-.041-.1-.063-.023.005-.141-.09-.2-.129.015-.014-.062-.065.017-.03 0 0 .017.015.05.04l.025.02-.004-.005c.039.027.089.064.148.104-.042-.04-.086-.084-.157-.118l-.064-.086c-.098-.034-.263-.134-.296-.135-.173-.14-.417-.32-.5-.44-.046-.043-.065-.038-.085-.048.025.027.058.054.07.072-.093-.087-.283-.247-.29-.288-.124-.099.05.079-.108-.072l.015.026c-.346-.26-.452-.538-.848-.81a.169.169 0 0 0 .048.029c-.421-.336-.831-.757-1.344-.923-.141-.053-.15-.075-.231-.12l-.04.01-.14-.082c-.201-.096-.384-.084-.636-.23h.04c-.097-.034-.293-.14-.284-.12-.01-.006-.023-.03-.063-.04l-.008.008-.215-.135c-.173-.091.005.056-.245-.09-.088-.06-.238-.19-.198-.177.035.024.095.055.104.046l-.077-.058c.004-.038-.038-.106.17.002l.13.104.054.012-.12-.07c.076.027.112.063.155.1.015-.002.038.005.067.019l.127.103c.023-.001-.052-.055.046-.012.06.048-.077-.007.029.06.077.022.063-.001.138.05.016-.002.002-.014-.03-.034.067.048.194.096.225.128.082.017.255.111.259.077.02.017.125.077.195.105-.116-.084.267.097.248.046.084.068.346.147.505.25a.155.155 0 0 0-.04-.027l.19.075c0 .029.137.116.2.178.12.048-.046-.07.002-.07-.02.017.173.144.125.135.089.045.073.045.127.057-.01.037.07.058.118.126.119.076.048-.001.16.103.063.04-.032-.058-.032-.058.12.1.037.067.054.1.137.127.079.042.137.073.083.078.134.157.2.214.008.001.02.01.01-.007.078.099.27.248.355.368.01.005.018.007.018.007-.027-.005-.04 0-.041.012.05.05.08.101.112.108-.031-.03-.03-.038-.04-.055l.049.055c.064.029-.067-.076-.054-.089.097.106.202.234.287.305.033-.005-.18-.182-.058-.098l-.13-.108c.12.058-.075-.072.04-.019.165.147.169.182.335.322.03.045-.025.005.003.048.22.224.227.113.385.283.035.05.035.089.175.174l-.027-.056c.173.126.073.108.264.224-.025-.032-.13-.106-.102-.09.13.067.073.072.165.138l.033-.005.586.443c-.01-.014-.04-.046.014-.018.254.193.563.385.827.543l.086.082c.023.014.048.02.025 0 .106.058-.002.014.04.053.058.038.085.038.05.008.168.132.49.358.697.445l-.035-.027c.154.079.148.135.3.195l-.025-.019c.333.173.698.374.973.466.037.05.345.139.35.188.206.067.152.036.437.143.075.029.1.072.19.114l.012-.019.117.076.077.002.083.041c-.035-.012-.077-.02-.075-.012.132.063.34.126.342.108.083.035.204.047.314.058-.006-.005-.04-.01-.072-.017.122.017.01-.023.162-.002-.023.007.013.015.015.02.083-.013.273-.017.412-.025l-.027-.016c.25-.022.533-.05.804-.123-.096.033-.066.053.015.034l.023-.031c.056-.002-.08.034.03.019.1-.034.059-.048 0-.037.04-.012.084-.017.122-.033.004-.01-.023-.002-.034-.007.057-.005.184-.102.248-.12l.002-.007c.17-.144.094-.19-.075-.388.013-.017-.052-.084-.085-.146-.121-.125-.26-.258-.398-.414-.09-.118-.014-.045-.05-.103-.021.005-.158-.151-.096-.063-.164-.19-.21-.243-.404-.495.029.024.056.05.048.03-.035-.046-.092-.094-.094-.084l.009.014c-.21-.288-.563-.606-.698-.861l.008.014-.154-.255c-.08-.11.033.075-.031-.002-.154-.279-.28-.42-.398-.656a1.772 1.772 0 0 1-.248-.401l-.065-.127c-.027-.07-.033-.097-.05-.145a2.284 2.284 0 0 0-.087-.226l.016.01c-.01-.071-.035-.077-.052-.127.01.003.034.07.027.024-.081-.287-.181-.58-.247-.894-.071-.312-.061-.65-.032-.952.019-.22.084-.118.075-.401l-.031.077c.067-.444.054-.915.073-1.355-.006.028-.013.028-.013.072-.016-.094-.002-.344.01-.346-.003-.07-.014-.017-.022-.058-.013-.092.017-.233-.002-.284-.002-.007-.004.007-.004.02.002-.078-.011-.255.01-.203-.02-.165-.006-.315-.025-.449.017-.084-.023-.283.004-.31-.033.015-.058-.276-.06-.38 0 .032-.031-.084-.036-.045-.027-.11-.047-.214-.027-.2-.097-.19-.114-.418-.225-.495a2.1 2.1 0 0 0-.608-.75c-.002.022.26.226.225.243-.198-.214-.327-.334-.587-.472-.07-.034.029.034.05.051-.248-.16-.52-.236-.77-.325 0 0 .028.013.055.022-.052-.014-.121-.024-.11-.036l.048.014c.087 0-.192-.094-.198-.106.079.056-.263-.036-.134.042-.033-.008-.075-.02-.064-.03-.052-.006-.07-.004-.02.017-.182-.04-.116-.041-.284-.058 0 .006.033.012.05.023-.084-.02-.17-.048-.315-.041.008.002-.002.005.019.007-.238-.01-.413-.036-.677.007.085.022-.092.017-.098.053l-.14.02.052-.025c-.118.027-.231.05-.327.104l.09-.026c-.071.03-.146.058-.215.097.038-.026.075-.05.115-.07-.121.04-.004-.04-.15.047.03-.014-.113.065-.16.117a.865.865 0 0 0-.188.12c-.013.022.035.013.025.027-.065.017-.242.18-.317.212.023-.013.034-.003.029.005l-.054.02c-.041.04-.048.05-.031.051-.137.118.02-.063-.135.085.014-.007.01-.001.039-.022-.162.142-.33.255-.487.377-.032.055.145-.096.104-.04-.233.17-.513.31-.77.418l.049-.02c-.052-.023-.19.094-.327.118.033-.007.05.007.04.007-.175.066-.367.113-.638.207l.038-.002-.377.163c-.036.007-.098.034-.067.005-.311.202-.65.28-.898.5.03-.02.08-.043.056-.027-.08.05-.16.091-.237.145.01-.024.023-.03.064-.072a.677.677 0 0 0-.158.091c.108-.065.015.024-.023.063.004-.01-.015-.002-.012-.01-.098.111-.046-.017-.186.128h.015c-.061.045-.121.08-.18.137-.01.035.067-.048.082-.038-.088.07-.186.127-.246.21l.125-.107c-.063.095-.077.099-.131.16h-.002l-.061.08c.02-.026.034-.046.046-.06l-.096.123.027-.041c-.135.07-.19.214-.327.346.134-.13.03-.012.056-.012-.02.045-.056.108-.037.095-.063.065-.075.128-.158.224.004.008-.046.084-.021.075-.063.099.004-.029-.01-.024-.113.14-.171.382-.303.606-.041.077-.08.146-.114.214-.02.057-.11.11-.025.2.048.053-.011-.063-.01-.056.066.079.118.154.179.24-.011-.022.008-.009.035.012.052.065.017.06.098.137a.573.573 0 0 0-.033-.082c.058.08.118.16.187.236m6.694 4.553-.11-.073c-.011 0-.007.01.018.029-.011-.014.052.024.092.043" fill="#05528A"/><path d="m13.282 261.548.02.006c.045.021.015.006-.02-.006M10.767 261.704c.027-.015.054-.027.075-.037-.037.027-.067.045-.075.037M15.174 263.493l-.004-.017.004.017zM15.43 264.265l-.024-.023c.002-.052.027-.064.025.023M15.345 267.327a.42.42 0 0 1-.006.17c.004-.068 0-.135.006-.17M16.572 273.902a1.066 1.066 0 0 1-.121-.017l.059.007.062.01z" fill="#05528A"/><path d="M45.452 223.04c5.531-10.63-.74-19.117-11.737-15.84-4.525 1.35-4.533 6.658-7.43 11.247-1.697 2.69-5.403 6.923-8.3 13.446-2.107 4.745-5.596 19.34-6.42 21.797-.897 2.662-1.905 5.818-2.897 8.498-.523.472 7.212 4.62 7.943 3.908.442-.427 4.654-7.68 5.567-8.904 3.36-4.51 13.133-19.337 16.126-24.201 2.254-3.665 5.406-6.604 7.148-9.95" fill="#E9B531"/><path d="M50.963 147.595c-4.364-1.846-16.222-2.971-20.045 8.566-1.079 3.254-1.72 12.879-1.838 16.208-.27 7.71.388 24.19-.066 30.497-.4 5.589-3.629 13.052-.346 16.956 1.408 1.675 5.452 4.372 9.902 3.943 1.104-.108 6.881-1.114 8.535-6.768.9-3.08.248-2.72 1.075-5.815 1.666-6.224 3.406-11.478 4.552-17.79 1.08-5.948 2.15-15.25 2.764-21.133.854-8.173 7.308-19.658-4.533-24.664" fill="#E9B531"/><path d="M64.058 110.65c-1.606-7.68-3.069-10.856-9.406-13.358-6.608-2.608-11.795-2.114-17.206.013-15.286 6.01-12.332 23.986-7.618 36.263.77 1.998 1.548 4.075 1.4 6.208-.077 1.11-.404 2.194-.473 3.304-.069 1.113.18 2.331 1.031 3.05.294.25.667.448.813.804.252.613-.286 1.227-.6 1.808-2.002 3.715 3.031 4.742 5.306 5.075 6.625.975 12.522 1.052 18.451 0 6.45-1.146 4.444-2.016 5.873-6.847 1.714-5.798 2.38-10.154 2.664-18.146.2-5.54.755-13.439-.235-18.174" fill="#6894CD"/><path d="M82.866 176.903c.344 1.311.494 2.615.837 3.927.584 2.226 1.673 3.407 3.119 5.051.173.198.47.399.656.195.08-.087.094-.218.102-.337.08-1.148-.425-1.983-.831-3.026 1.475 1.458 1.896 4.763 3.467 6.052.198.163.446.33.687.23.313-.13.604-1.72.57-2.067-.274-2.834.622-4.743-1.791-8.809-.916-1.543-4.216-5.179-6.24-3.851-.638.417-.995 1.447-.566 1.972" fill="#D8A26C"/><path d="M61.134 142.7c1.513.316 2.76 1.284 3.858 2.295 8.971 8.252 11.843 20.818 20.435 29.407.95 1.683-.981 3.052-2.304 2.367-3.994-2.952-7.987-5.906-11.981-8.86-1.808-1.336-3.617-2.673-5.319-4.125-2.212-1.886-4.233-3.954-6.249-6.019-1.432-1.466-2.873-2.944-3.99-4.629-1.093-1.648-1.496-3.44-1.466-5.362.01-.677.052-1.363.258-2.013.819-2.56 4.104-3.618 6.758-3.062" fill="#D8A26C"/><path d="M42.367 120.754c-1.081-3.421-2.05-7.03-1.25-10.514.8-3.483 3.902-6.77 7.756-6.802 2.033-.017 3.99.862 5.496 2.127 1.504 1.265 2.597 2.892 3.51 4.569 2.694 4.958 3.93 10.462 5.02 15.914.386 1.929.796 3.772 1.384 5.643.562 1.8 1.898 4.392 1.219 6.279-.173.479-.48.917-.55 1.423-.234 1.627 1.945 2.723 2.018 4.364.027.59-.231 1.152-.36 1.729-.131.578.366 1.088.837 1.446-1.07.677-2.864.886-4.127.99a22.94 22.94 0 0 0-6.481 1.5c-1.248.487-3.014 1.237-4.141.054-.808-.85-.388-1.88-.567-2.93-.606-3.534-2.896-7.232-4.233-10.561-2.015-5.021-3.906-10.09-5.531-15.231" fill="#DDD"/><path d="M195.655 164.52c-1.041-1.212-1.651-2.704-2.68-3.925-.312-.371-2.8-2.72-3.04-2.604-.683.325-1.486.56-2.226.85-.921.36-1.57.32-1.71 1.26-.141.95.265 2.282.476 3.239.818 3.705 2.49 6.898 2.836 7.47.054.006.797.199.777.128-.214-.785-1.411-3.023-1.36-3.852.42.884 1.656 3.51 2.154 4.399.073 0 1.082.022 1.059-.038-.404-1.07-1.538-3.593-1.6-4.528.302 1.062.93 1.793 2.078 4.566a5.05 5.05 0 0 0 1.224-.218c-.324-1.172-1.646-3.71-1.884-4.964.689 1.01 1.768 3.558 2.247 4.65.163.37.817-.57.847-.665.127-.378-.855-2.47-.954-2.86-.41-1.596-1.288-3.476-1.41-5.043.749.966 1.543 1.986 2.662 2.565.094-.062.43-.345.504-.43M156.24 191.085c.045 4.312.343 8.614.788 12.847.347 3.307.742 7.182 3.876 8.28 6.976 2.444 10.428-7.894 12.291-13.84 2.95-9.425 4.712-19.215 5.791-28.956.962-8.676 2.437-16.794 1.95-25.36-.39-6.854-4.094-18.832-12.163-14.575-6.48 3.417-8.412 17.127-9.783 24.004-2.505 12.561-2.877 25.163-2.75 37.6" fill="#FFC7BF"/><path d="M157.243 225.495c4.456-6.615 13.497-14.912 9.142-19.615-4.218-4.554-9.187-1.979-12.51 1.24-2.861 2.772-6.238 8.892-7.487 13.011l10.855 5.364z" fill="#FFC7BF"/><path d="M162.81 218.157c-6.026 8.603-24.94 34.385-26.328 41.549-2.007-1.12-4.33-1.908-5.872-3.932 12.9-32.985 19.66-45.531 20.368-45.13 4.1 2.316 7.916 4.877 11.831 7.513M178.01 125.216a4.592 4.592 0 0 1 2.412 1.29c1.275 1.294 1.612 3.28 2.047 4.958.77 2.97 1.093 5.987 2.01 8.898 1.783 5.653 3.35 12.78 6.04 18.103-1.746.378-2.314 1.052-4.031 1.243-.28.03-4.635-7.444-5.068-8.157a44.56 44.56 0 0 1-3.851-7.957c-1.468-3.99-2.98-7.978-4.076-12.082-.713-2.673-.833-5.618 2.597-6.287a5.069 5.069 0 0 1 1.92-.009M164.513 55.136c-.61 1.526-.94 3.233-.996 4.87-.06 1.771.412 3.574-.19 5.382-1.323 3.966-1.96 7.746.855 11.292 2.263 2.851 7.118 6.079 10.65 3.757 2.154-1.419 3.275-4.424 3.704-6.85.219-1.24.496-1.781 1.266-2.7.934-1.116.964-1.146.294-2.398-1.511-2.827-.888-4.192-.588-7.285.455-4.681-1.912-9.262-6.467-10.709-4.308-1.369-7.14 1.166-8.528 4.641" fill="#FFC7BF"/><path d="M164.037 75.922c-.107 1.657-.46 3.565-.305 5.201.043.449-.09.914-.163 1.357-.066.397-.107.792-.051 1.187.023.16.04.287.023.455-.056.506-.167 1.013-.251 1.517-.384 2.284 6.963 2.149 8.672 3.003-1.136-4.156-.605-8.925-1.651-13.003-1.95.985-4.188.184-6.274.283" fill="#FFC7BF"/><path d="M166.227 107.673c2.61-2.917 4.12-6.914 3.542-10.857-.674-4.613-2.456-8.818-3.999-13.15-.758-2.124-1.23-4.352-2.029-6.484-.835-2.226-1.7-4.456-2.163-6.8-.264-1.337.277-2.786.727-4.025 1.082-2.957 1.086-6.791-1.08-9.322-2.242-2.612-5.43-1.702-7.448.569-2.14 2.408-2.479 5.83-5.306 7.648-2.58 1.659-6.08 3.248-6.924 6.564-1.213 4.754 3.865 10.028 2.163 14.493-.987 2.584-7.684 6.996-8.645 9.68-2.246 6.263 2.702 11.713 7.53 14.898 2.374 1.565 9.12 3.925 11.992 4.242 2.696.299 6.497-3.52 8.751-4.975a14.362 14.362 0 0 0 2.89-2.481" fill="#C3992A"/><path d="M169.047 49.26c2.338.212 4.666.92 6.927 1.571-.176 4.1-.425 9.777-4.755 11.905-1.756.863-5.428.274-6.418 2.681-1.03 2.5 2.147 4.396 3.1 6.321 1.198 2.413 1.06 5.525-.292 7.828-1.42 2.42-3.422 3.147-6.193 2.758-3.232-.45-7.394-3.118-8.841-5.973-1.63-3.216.534-10.782.567-11.435.246-5.138.244-9.964 4.754-13.188 2.975-2.127 7.549-2.796 11.15-2.468" fill="#C3992A"/><path d="M167.682 193.638c1.097 4.158 2.438 8.234 3.904 12.205 1.145 3.104 2.473 6.742 5.77 6.961 7.34.487 8.15-10.432 8.496-16.68.545-9.904-.144-19.84-1.483-29.547-1.192-8.644-1.752-16.886-4.32-25.036-2.051-6.519-8.56-17.1-15.318-10.816-5.427 5.044-3.944 18.816-3.587 25.83.65 12.817 3.374 25.097 6.538 37.083" fill="#FFC7BF"/><path d="M181.751 125.81c-.056-.422-.165-.84-.236-1.182-.232-1.112-.249-2.217-.459-3.348-.483-2.606-.964-5.478-.157-8.07.867-2.79 3.378-4.234 4.518-6.84 1.651-3.773-4.945-10.39-7.105-13.744-5.645-8.772-21.679-9.521-22.55 3.31-.393 5.779 1.742 8.96 3.893 14.053.421.994.704 2.078 1.118 3.08.35.842.576 1.76.89 2.6.647 1.732 1.497 3.439 2.012 5.216.524 1.803 1.11 3.967 1.924 5.66.635 1.322 1.648 1.582 3.046 1.584 2.198.002 4.387-.11 6.587-.107 1.091.002 2.162.019 3.248-.047.972-.063 2.005.204 2.83-.483.484-.402.525-1.046.441-1.681" fill="#A94645"/><path d="M169.66 127.81c-9.144.638-11.23 7.215-13.746 19.523-2.056 10.052-8.734 32.468-15.526 47.322.11-.245 32.668 6.649 48.517 5.518-1.543-36.252-3.558-54.396-6.873-72.93-2.85.109-8.841.32-12.372.568" fill="#A94645"/><path d="M183.165 226.559c.537-8.08 4.158-20.091-1.89-21.742-5.86-1.6-8.59 3.38-10.08 7.865-1.956 5.88-.875 12.16-.336 18.325l12.306-4.448z" fill="#FFC7BF"/><path d="M184.292 217.257c-.893 10.632-4.304 42.962-1.945 49.84-2.27.134-4.647.727-6.965-.166-5.294-35.215-5.725-49.618-4.922-49.66 4.653-.25 9.178-.138 13.832-.014" fill="#FFC7BF"/><path fill="#ABB8DE" d="m140.04 162.793 30.856 1.503.448-12.021-30.413-1.899z"/><path d="m167.388 154.806-.612-55.594s-.918-7.43-7.165-5.16c0 0-5.144 1.651-7.534 14.448-2.387 12.8-8.08 46.031-8.08 46.031" stroke="#ABB8DE" stroke-width="2.205"/><path d="M156.8 132.415c1.026-1.037 1.275-2.185 1.712-3.606.512-1.672 1.383-3.224 1.917-4.896 1.12-3.52 2.16-7.049 3.333-10.55 1.351-4.04 3.409-10.035 3.513-14.345.11-4.534-5.05-8.573-9.24-4.654-2.059 1.928-3.048 5.41-3.77 8.09-.793 2.95-1.197 5.991-1.903 8.968-1.14 4.8-2.188 9.863-2.606 14.777-.191 2.226-.475 5.13 1.744 6.467 1.501.902 3.448 1.305 4.88.131.153-.124.292-.253.42-.382" fill="#FFC7BF"/><path d="M155.33 127.83a4.524 4.524 0 0 1 1.93 1.918c.842 1.6.59 3.606.522 5.342-.122 3.074-.687 6.069-.652 9.127.066 5.937-.5 13.235.532 19.11-1.777-.124-2.516.365-4.21.069-.276-.05-2.274-8.461-2.483-9.266a44.715 44.715 0 0 1-1.376-8.736c-.246-4.25-.538-8.511-.397-12.768.09-2.771.827-5.64 4.298-5.323.656.06 1.279.238 1.837.528" fill="#FFC7BF"/><path d="M160.007 169.617c-.509-1.516-.51-3.127-1.007-4.645-.15-.462-1.57-3.575-1.837-3.558-.754.044-1.586-.04-2.383-.048-.987-.014-1.573-.295-2.056.525-.489.827-.614 2.212-.779 3.178-.369 2.168-.53 6.179-.177 8.422.05.023.506.154.515.081.094-.809-.016-3.436.34-4.184.058.977.061 3.98.188 4.992.07.028.994.427.996.363.028-1.142.08-4.014.377-4.904-.123 1.097.033 2.118.052 5.118a5.02 5.02 0 0 0 1.217.257c.14-1.208.023-4.16.272-5.412.26 1.197.147 4.067.181 5.26.011.403.97-.219 1.037-.299.257-.302.29-2.715.342-3.112.221-1.633.116-3.707.593-5.203.33 1.174.682 2.42 1.5 3.376.11-.02.53-.159.63-.208" fill="#FFC7BF"/><path d="M132.131 252.754c-2.168 1.354-5.529 4.94-7.008 7.227.596.988 1.736 2.291 2.728 3.233.758-1.267.908-1.196 1.668-2.117-.597 6.365 7.18 11.737 7.221 11.697-.265-8.314-.471-10.17.972-16.288 0 0-1.754-6.143-5.581-3.752M174.87 264.53c-.61 2.567-.55 7.594-.044 10.307 1.088.252 2.773.32 4.111.247-.325-1.457-.17-1.519-.26-2.732 3.89 4.926 13.005 2.921 13.005 2.863-5.812-5.66-7.216-6.813-10.34-12.196 0 0-5.395-3.022-6.473 1.511" fill="#DDD"/><path d="M79.45 216.966c-3.11-11.452-13.799-14.28-19.976-5.26-2.54 3.71 1.129 7.803 2.079 13.048.558 3.073.641 8.523 2.931 15.254 1.667 4.9 9.087 18.196 10.154 20.573 1.156 2.58 2.566 5.604 3.658 8.255-.073.673 8.735-.704 8.804-1.684.043-.59-1.74-8.661-1.888-10.143-.541-5.459-3.297-22.648-4.366-28.16-.804-4.153-.417-8.276-1.396-11.882" fill="#E9B531"/><path d="M412.38 72c6.672 6.61-20.93 6.849-2.722 22.627 8.789 7.617 14.649-8.187 14.649-8.187l1.802-7.134.383-5.271-1.171-6.463L424 51.747c4.649.418 5.496-1.051 5.496-1.051-14.663-19.948-27.78 10.74-17.116 21.304" fill="#161616"/><path d="M502.524 138.603c4.033.857 4.622 2.276 4.377 2.399-.246.124-.86 2.48-4.123 1.554-3.263-.927-5.14-2.93-5.14-2.93s.413-1.973 4.886-1.023M536.062 140.914c3.907-1.317 5.137-.396 4.99-.165-2.023 3.151 6.794.921-2.758 3.437-3.28.865-5.915.097-5.915.097s-.65-1.908 3.683-3.369M549.145 250.226l1.472 1.719.724 6.446-6.64-.12-1.155-5.58-.928-4.458z" fill="#D38742"/><g transform="translate(542.787 258.379)"><mask id="d" fill="#fff"><use xlink:href="#c"/></mask><path d="M1.003.075C-.27 4.974.03 7.295.03 7.295S1.408 9.054 4.95 8.91l.684-1.904.717 2.324c4.725 3.44 13.13 4.236 15.95 3.83 1.328-.665 1.257-1.352-.29-3.08-9.24-2.51-8.497-6.953-12.348-8.438C4.062-.52 1.003.075 1.003.075" fill="#01015B" mask="url(#d)"/></g><path d="M531.197 204.413c1.218 2.523 2.871 5.367 5.25 6.06 1.648.48 6.252-2.662 7.17-3.917.917-1.256-4.36-60.722-6.455-64.376-2.81-4.902-23.25 2.763-22.439 11.293 1.036 10.906 5.935 19.751 9.694 30.547 2.256 6.48 3.76 14.136 6.78 20.393" fill="#01015B"/><path d="M542.914 197.402c-3.163-4.986-10.732-8.37-13.847.336-4.751 13.275 10.749 37.95 13.134 53.929l8.214-.053c.218-1.55-5.746-51.446-7.501-54.212" fill="#01015B"/><path fill="#D38742" d="m495.923 250.09-.872 11.346 5.639.103 2.652-12.935zM561.106 119.932c-.09 1.219-1.28 4.276-2.424 4.69-.624.228-1.342.06-1.917-.288-.574-.347-1.031-.857-1.473-1.363-5.15-5.91-6.836-14.195-11.107-20.764-1.313-2.017-2.64-4.064-3.402-6.342-.762-2.278-.91-4.851.119-6.995.539-1.122 1.74-2.617 3.102-2.734 1.095-.095 2.39 1.072 3.228 1.642 2.97 2.022 3.853 2.43 6.1 5.236 1.276 1.593 8.27 20.147 7.774 26.918"/><path d="M527.486 82.95c-.865-1.41-1.703-3.195-.884-4.632.865-1.515-4.023-3.641-2.285-3.503 21.048 1.664 25.818 11.424 29.014 18.199l-11.087 8.645c-6.106-5.82-10.354-11.515-14.759-18.708" fill="#0063CB"/><path d="M540.085 140.732c.11 1.27 3.078 2.647 4.352 2.701 1.274.054 13.747-16.755 15.785-20.744.62-1.213 1.24-2.656.644-3.882-.533-1.094-1.838-1.558-3.038-1.76-2.016-.344-4.475-.376-6.407.395-1.332.531-1.53 1.866-2.135 3.024-2.223 4.256-9.272 19.453-9.2 20.266" fill="#D38742"/><path d="M556.698 265.337c.083-1.444-.269-1.727-1.09-2.668-1.058-1.213-1.562-3.121-2.782-6.691-.559-1.633-3.825-2.145-5.51.618-.548.896-1.05 1.475-1.646 1.444-.499-.025-1.042-.903-1.532-.338-.432.498-.57 1.83-.695 2.778-.214 1.634.37 2.236.165 3.876-.046.363-.09.742-.11 1.117l4.77-1.798 8.105 3.089a4.25 4.25 0 0 0 .325-1.427M483.145 266.613c5.272-.6 7.093-2.07 9.345-4.913 1-1.262.57-.846 1.92-4.369.616-1.611 2.304-1.7 3.89 1.122.513.916.858 1.35 1.454 1.341.5-.007 1.71-1.368 2.178-.786.142.175.243.448.322.764v.001l.003.016c.027.112.053.228.074.349.993 4.685-.11 6.751-.11 6.751s-.108 1.672-3.644 1.4l-1.216-1.627-1.303 2.478c-4.724 2.329-15.081 1.462-17.884.953.059-3.239 3.066-3.263 4.97-3.48M502.87 140.419c-1.017 2.045-4.68 50.96-4.933 55.423.244 5.502-2.014 54.249-2.014 54.249l8.592 1.014c2.397-21.791 11.706-39.666 7.3-54.52 8.188-17.717 14.464-34.753 14.464-34.753s8.557-17.417 6.627-20.251c-1.93-2.834-11.722-2.84-11.722-2.84l-18.313 1.678z" fill="#01015B"/><path d="M541.746 86.755c1.727 2.656 2.584 8.946 1.587 11.846-3.073 8.945-4.475 10.288-5.899 16.706-1.423 6.42-4.51 16.85-1.299 22.693.436.794.9 1.338 1.142 2.178.44 1.528.882 2.705.23 2.983-.61.26-32.653 5.901-34.047-.402-.28-1.264-.679-2.186-.264-3.317 2.776-7.57 3.753-19.155 1.5-26.879-2.238-7.665-4.985-17.134-3.524-25.079 3.298-3.882 10.062-12.907 23.145-12.67 9.177.167 15.88 9.558 17.43 11.941" fill="#0063CB"/><path d="M492.793 90.972c-4.379 1.009-11.048 23.238-10.972 28.62.076 5.383 12.074 21.713 15.253 22.288 3.964 4.529 3.107-.992 1.632-3.266-2.448-3.776-3.024-14.527-6.845-19.196 5.806-5.214 6.866-14.681 12.073-22.865 1.379-2.168-3.982-6.558-3.982-6.558l-7.159.977z" fill="#D38742"/><path d="M493.932 137.424c.772 7.154 2.243 9.129 5.03 11.267 4.222 3.237 8.566 3.57 8.684.33.195-5.377-7.504-9.68-7.504-9.68s-8.928-4.661-6.21-1.917" fill="#D38742"/><path d="M525.151 83.372c1.013-1.527 2.014-3.47 1.164-5.094-.896-1.712-4.69-3.06-6.618-2.932-11.686.774-21.525 7.078-28.336 16.28l15.441 12.832a108.013 108.013 0 0 0 18.35-21.086" fill="#0063CB"/><path d="M509.563 57c.357.962 1.058.85 1.21-.155.488-3.22.47-3.741 2.449-6.341 1.088-1.431 1.37-1.516.741-2.187-2.081-2.221-7.352.718-4.4 8.683" fill="#01015B"/><path d="M524.6 51.47c-2.504-4.624-9.23-5.128-12.536-.602-3.026 4.143-2.42 14.198-.903 16.549 2.65 4.11 10.393 1.405 11.857-1.036 2.141-3.577 3.687-11.02 1.582-14.91" fill="#D38742"/><path d="M522.646 52.467c-.338.695-.416 10.745-.127 10.684 1.028-.218 2.75-2.723 4.534-2.285.57.14 1.295.662 1.53-.488 1.5-7.284 1.72-6.858.542-7.77-2.597-2.01-5.877-1.38-6.48-.14" fill="#01015B"/><path d="M531.488 49.39c-5.185-5.295-14.67-8.698-17.81-7.56-4.676 1.697-2.89 9.347-1.382 10.032.69.312 1.457-.135 2.15-.44 3.286-1.447 5.615.56 7.733 1.37 3.753 1.439 13.727 1.11 9.31-3.402" fill="#01015B"/><path d="M528.848 60.044a4.707 4.707 0 0 1-1.622 3.13c-2.63 2.232-4.117-1.722-3.21-3.843 1.082-2.53 5.124-2.552 4.832.713" fill="#D38742"/><path d="M509.563 57c.357.962 1.058.85 1.21-.155.488-3.22.47-3.741 2.449-6.341 1.088-1.431 1.37-1.516.741-2.187-2.081-2.221-7.352.718-4.4 8.683" fill="#01015B"/><path d="M518.03 63.222c1.938-4.499 5.695-4.939 7.552-3.428-.31 9.037-1.034 9.923 1.521 15.358-3.417 5.632-10.087 4.9-11.83.824.067-.717 1.756-10.428 2.758-12.754" fill="#D38742"/><path d="M524.6 51.47c-2.504-4.624-9.23-5.128-12.536-.602-3.026 4.143-2.42 14.198-.903 16.549 2.65 4.11 10.393 1.405 11.857-1.036 2.141-3.577 3.687-11.02 1.582-14.91" fill="#D38742"/><path d="M522.646 52.467c-.338.695-.416 10.745-.127 10.684 1.028-.218 2.75-2.723 4.534-2.285.57.14 1.295.662 1.53-.488 1.5-7.284 1.72-6.858.542-7.77-2.597-2.01-5.877-1.38-6.48-.14" fill="#01015B"/><path d="M531.488 49.39c-5.185-5.295-14.67-8.698-17.81-7.56-4.676 1.697-2.89 9.347-1.382 10.032.69.312 1.457-.135 2.15-.44 3.286-1.447 5.615.56 7.733 1.37 3.753 1.439 13.727 1.11 9.31-3.402" fill="#01015B"/><path d="M528.848 60.044a4.707 4.707 0 0 1-1.622 3.13c-2.63 2.232-4.117-1.722-3.21-3.843 1.082-2.53 5.124-2.552 4.832.713M537.374 151.876c6.654-1.782 7.298-8.887 7.298-8.887l-4.819-2.128s-.393 2.037-4.192 3.092c-3.676 1.02-5.993 9.988 1.713 7.923" fill="#D38742"/><path d="M436.516 248.398c-.184-2.984 7.17-4.416 7.789-.52.618 3.895-1.25 16.497-2.258 18.251-1.008 1.755-4.272 2.638-5.531-17.73M410.173 238.322c4.22.236 5.841 8.566 6.36 13.453.372 3.516-1.215 4.664-2.134 5.03a.724.724 0 0 1-.896-.321c-1.689-2.981-10.19-18.546-3.33-18.162" fill="#AFAFF9"/><path d="M439.568 137.56c19.35 13.703 8.77 77.913 8.187 113.33 0 0-3.712 2.984-11.872-.1-1.457-11.073-.432-58.137-14.405-78.308-13.973-20.172-7.69-44.16-7.69-44.16l25.78 9.238z" fill="#01015B"/><path d="M440.407 140.347s-25.4 3.509-30.596 1.044c-13.32 22.636-15.798 38.729-16.584 55.164 1.597 20.737 11.602 38.918 13.02 47.044.03.17 6.6 1.21 8.983-2.025a.745.745 0 0 0 .113-.631c-5.288-19.508-.929-24.801-4.965-36.524a.756.756 0 0 1 .015-.53c4.97-11.952 10.283-21.293 14.647-29.74 5.556-10.755 16.34-13.773 15.367-33.802" fill="#01015B"/><g transform="translate(426.705 259.147)"><mask id="f" fill="#fff"><use xlink:href="#e"/></mask><path d="M19.674 8.379c.053-1.523.103-3.076-.317-4.541-.411-1.434-.63-2.904-1.792-3.838-.271.737-1.342 1.767-2.125 1.826-.62.046-3.705-1.489-4.28-1.256-.413.168-.912 6.491-2.718 7.818-1.805 1.328-3.948 2.1-5.948 3.11-.698.352-1.397.749-1.896 1.35-.5.602-.764 1.454-.484 2.183.027.071.068.122.1.183l13.455-.465c.3-.47.553-.978.798-1.477l2.64-5.382a22.98 22.98 0 0 1 .848 6.711l1.503-.052.216-6.17" fill="#01015B" mask="url(#f)"/></g><path d="M419.178 259.091a15.219 15.219 0 0 0-.984-5.54 5.002 5.002 0 0 0-.5-1.008c-.275-.414-.87-.415-1.184-.03-.426.52-1.042.99-1.544 1.04-.592.057-3.584-1.346-4.13-1.11-.393.17-.731 6.242-2.432 7.555-1.701 1.313-3.738 2.1-5.633 3.113-.661.353-1.323.748-1.788 1.336-.465.588-.7 1.411-.415 2.104.028.066.067.114.1.172l12.489-.72a.723.723 0 0 0 .597-.37c.193-.355.366-.724.534-1.088l1.545-3.34c.296-.64 1.243-.534 1.384.157a22.26 22.26 0 0 1 .43 3.62c.015.415.358.74.772.716a.732.732 0 0 0 .69-.722l.069-5.885" fill="#01015B"/><path d="M406.845 98.823c-1.814 6.694 5.107 32.603 5.107 32.603s3.043-2.695 3.095-2.852c.052-.157 3.15-17.804 3.15-17.804l-1.75-12.212s-7.814 1.394-8.075 1.29c-.261-.104-1.527-1.025-1.527-1.025M436.451 81.32c-5.85-1.969-13.163-1.286-21.03.845-.908.246-1.403 1.68-2.323 1.962-10.199 3.144 13.9 1.78 14.776 1.61.878-.172 8.577-4.417 8.577-4.417" fill="#AFAFF9"/><path d="M410.169 102.908c-1.758.015-6.04-3.739-6.005-5.042 2.539-14.894 11.256-15.7 11.256-15.7s3.102 1.807 9.38 1.807c8.156 0 9.446-4.148 13.09-1.939 3.644 2.21 1.424 6.822 3.66 18.163 2.236 11.341-.926 32.334 4.864 39.958-5.037 6.452-29.43 11.204-36.603 1.236 2.396-13.704 3.55-12.57 3.555-23.295.003-7.496-4.341-8.616-3.197-15.188" fill="#CE0500"/><path d="M437.594 100.257c.138.822-1.143 23.805 3.426 26.183 6.809 3.543 8.723-23.633 6.27-26.652-2.454-3.018-9.696.47-9.696.47" fill="#AFAFF9"/><path d="M436.451 81.32c10.278 2.608 12.826 21.476 12.826 21.476s-7.396 3.76-12.715 3.281c-5.319-.478-4.32-15.887-4.32-15.887l4.21-8.87z" fill="#CE0500"/><path d="M441.494 118.775c-2.821-1.065-24-2.748-36.448-6.291-5.836-1.661-4.458 2.856.933 5.78 5.39 2.924 13.1 5.776 21.664 7.197 17.126 2.84 16.925.905 18.704-4.07 1.779-4.974-4.853-2.616-4.853-2.616M429.398 68.73c-4.922 6.365-11.368 5.62-12.8-2.075-1.228-6.611-.272-15.91 7.448-14.843 7.943 1.097 6.468 6.706 7.35 6.245.883-.462 3.327 4.834-1.998 10.673" fill="#AFAFF9"/><path fill="#AFAFF9" d="m431.798 65.197.695 14.764-10.62 1.425 1.947-11.284z"/><path d="M424.44 46.361c8.916-4.25 17.01-.495 14.916 20.78-.544 5.527 4.615 6.763 7.057 9.581 2.858 3.298 3.666 11.926-2.18 11.926-3.54 0-3.566 4.522-7.782 4.847-8.67.667-4.293-4.079-9.158-6.746-2.785-1.528-.193-5.81 2.258-10.058 1.39-2.41-1.399-5.084 1.463-10.313-.236-8-6.6-5.708-8.423-13.272-2.327-.602-4.687.15-5.762 3.674-1.966-1.339.53-7.043 7.611-10.419" fill="#161616"/><path d="M428.967 63.893c-.175-2.32 2.941-6.098 4.057-3.827 1.115 2.27-.755 6.658-2.98 6.468-2.227-.19-1.077-2.641-1.077-2.641M400.135 111.235c-2.76-.164-5.517-.33-8.276-.493-.521.247-.254.963.277 1.197.53.234 1.174.192 1.757.317s1.177.579.98 1.046c-.2.469-.97.52-1.572.487-2.783-.156-2.758-3.032-5.541-3.188-.97 1.619.107 5.539 1.803 6.688 1.697 1.149 2.784 2.47 4.975 2.603 3.049.186 5.559-1.802 8.496-2.496 1.695-.4 2.259.652 3.179-.584 2.342-3.151-3.154-5.403-6.078-5.577" fill="#AFAFF9"/><path d="m5.995 267.418-.02-.044.07.056c.015.017-.004.023-.05-.012M5.712 267.218c-.02-.008-.008.008-.006.015-.046-.052-.095-.12-.045-.107.036.06.054.065.095.132.042.037.084.056.082.04.013.02.075.053.093.082a.633.633 0 0 1-.22-.162M7.941 263.265a.144.144 0 0 0 .033-.017l-.033.017zM7.974 263.249l.085-.042c.01.007-.042.023-.084.042M5.183 266.65l.029.041c-.01-.013-.021-.025-.029-.038v-.004zM6.577 263.963l-.022.017-.026.006.048-.023zM5.739 264.764a.11.11 0 0 0-.048.038c-.004-.003-.006-.01-.004-.02.014-.022.039-.016.052-.018M7.32 263.52c0-.005.004-.009.006-.013 0 0 0 .006-.006.012M7.294 268.032l-.002.004c-.004-.004-.006-.008.002-.004M5.161 266.627l-.029-.038c.014.02.021.028.03.038M9.914 269.729a.137.137 0 0 0-.048-.02c.023 0-.083-.107.048.02M5.174 266.657c0-.008-.004-.017-.013-.03l.021.028c-.002.002-.002.006-.008.002M5.528 267.06a.063.063 0 0 1-.015-.01l.015.01z" fill="#05528A"/></g></svg>
