<svg xmlns="http://www.w3.org/2000/svg" width="590" height="326"><g fill="none" fill-rule="evenodd"><path fill="#CE0500" d="m293.662 243.1-14.491 32.493s33.469 11.641 40.144 10.742 14.49-32.493 14.49-32.493z"/><path fill="#7070F3" d="m150.2 288.27 145.79 37.507.012-129.347-95.407-29.66z"/><path fill="#CACAFB" d="M150.195 190.505 53 312.57l97.2-24.299 50.395-121.5zm145.816 5.925-.01 129.347 145.795-39.053-50.383-119.962z"/><path fill="#7070F3" d="m441.803 190.505-50.39-23.743 50.383 119.961L539 312.569z"/><path fill="#FFEB86" d="m189.833 192.685-23.475 9.735-4.257 6.801 22.074-2.864z"/><path fill="#CAAA2A" d="m285.236 199.389-3.182 6.568-27.76-.467-38.828-16.465-2.74.85 5.93 12.525-28.808-9.721-5.673 13.678 14.82 16.358 13.497 6.053-.457 8.099 7.533 6.509 1.37 6.958-11.642-10.664-19.455 21.434-13.58 2.084 32.143 18.874 39.24 11.379 48.348 19.129.013-.004v-110.36z"/><path fill="#5A8F2B" d="m418.707 231.749 1.265-.707-2.598-2.481"/><path fill="#CAAA2A" d="m443.037 255.143 2.05-4.734-21.957-8.128 6.104 14.532z"/><path fill="#FFEB86" d="m423.13 242.28-.526-.194h-3.64l1.928-3.781-11.921-1.707 9.736-4.85-1.339-3.186-3.632-4.833-11.79-3.688-15.95 10.118.656-7.216 20.772-18.032-4.624-14.2-1.85-1.244-24.57 3.118-15.712 3.846-27.373 4.634-32.636-1.223-4.647 2.365-.007-.001v110.36l24.507-7.457v-11.135l20.757-16.406 38.308-3.724 43.027-10.526 6.012-6.43.619-.074z"/><path fill="#CAAA2A" d="m416.412 205.83-1.378-9.753-14.085-6.61 6.474 15.443z"/><path fill="#E1000F" d="m194.314 234.903-9.445 5.453v10.906l8.94 15.428h1.009l8.94-15.428v-10.906z"/><path fill="#FFF" d="M197.015 244.25h3.579v-2.066l-6.28-3.626-6.28 3.626v7.252l6.28 3.626 6.28-3.626v-2.067h-3.58z"/><path fill="#000091" d="M197.015 247.369v-3.118l-2.701-1.56-2.7 1.56v3.118l2.7 1.56z"/><path fill="#E1000F" d="m248.295 198.565-9.445 5.453v10.906l8.94 15.428h1.009l8.94-15.428v-10.906z"/><path fill="#FFF" d="M250.995 207.912h3.58v-2.067l-6.28-3.626-6.28 3.626v7.252l6.28 3.626 6.28-3.626v-2.067h-3.58z"/><path fill="#000091" d="M250.995 211.03v-3.118l-2.7-1.56-2.7 1.56v3.118l2.7 1.56z"/><path fill="#E1000F" d="m264.196 251.016-9.445 5.453v10.906l8.941 15.428h1.008l8.941-15.428V256.47z"/><path fill="#FFF" d="M266.897 260.363h3.579v-2.067l-6.28-3.626-6.28 3.626v7.252l6.28 3.626 6.28-3.626v-2.067h-3.579z"/><path fill="#000091" d="M266.897 263.482v-3.118l-2.701-1.56-2.7 1.56v3.118l2.7 1.56z"/><path fill="#E1000F" d="m168.791 173.573-9.445 5.453v10.906l8.941 15.428h1.008l8.941-15.428v-10.906z"/><path fill="#FFF" d="M171.492 182.92h3.579v-2.066l-6.28-3.627-6.28 3.626v7.252l6.28 3.627 6.28-3.626v-2.067h-3.579z"/><path fill="#000091" d="M171.492 186.039v-3.118l-2.701-1.56-2.7 1.56v3.118l2.7 1.56z"/><path fill="#E1000F" d="m359.601 230.376-9.445 5.453v10.906l8.941 15.428h1.008l8.941-15.428v-10.906z"/><path fill="#FFF" d="M362.302 239.723h3.579v-2.067l-6.28-3.626-6.28 3.626v7.252l6.28 3.626 6.28-3.626v-2.067h-3.579z"/><path fill="#000091" d="M362.302 242.841v-3.118l-2.701-1.56-2.7 1.56v3.118l2.7 1.56z"/><path fill="#E1000F" d="m375.509 182.181-9.445 5.453v10.906l8.941 15.428h1.008l8.941-15.428v-10.906z"/><path fill="#FFF" d="M378.21 191.529h3.579v-2.067l-6.28-3.626-6.28 3.625v7.252l6.28 3.626 6.28-3.625v-2.067h-3.58z"/><path fill="#000091" d="M378.21 194.647v-3.118l-2.701-1.56-2.7 1.56v3.118l2.7 1.56z"/><path fill="#E1000F" d="M295.998 119.312 258.264 141.1v43.573l37.734 61.64 37.738-61.64V141.1z"/><path fill="#FFF" d="M306.789 156.656h14.3V148.4L296 133.911l-25.093 14.488v28.974L296 191.861l25.09-14.488v-8.258h-14.3z"/><path fill="#000091" d="M306.789 169.115v-12.458l-10.79-6.232-10.79 6.232v12.458l10.79 6.23z"/><path fill="#CAAA2A" d="m481.813 266.433-3.03-5.33h3.866l6.06 9.927 9.717 9.613-.417 5.164 4.702 4.762v6.895l-23.197-14.627-12.224-15.464 3.03-2.716z"/><path fill="#E1000F" d="m489.823 252.151-9.445 5.453v10.906l8.94 15.428h1.009l8.94-15.428v-10.906z"/><path fill="#FFF" d="M492.524 261.498h3.579v-2.067l-6.28-3.626-6.28 3.626v7.252l6.28 3.626 6.28-3.626v-2.067h-3.58z"/><path fill="#000091" d="M492.524 264.617v-3.118l-2.701-1.56-2.7 1.56v3.118l2.7 1.56z"/><path fill="#00B2BA" d="M536.618 195.024c2.122 4.192 5.629 10.38 8.192 14.375 2.003 3.122 3.531 6.701 7.814 6.84 9.54.31 9.254-5.495 8.635-11.848-.982-10.066-4.092-25.44-7.468-35.261-3.008-8.745-5.13-17.098-9.824-25.309-3.754-6.565-13.943-17.15-21.577-10.593-13.902 11.939-1.876 19.202-.222 26.316 3.02 12.994 8.334 23.39 14.45 35.48"/><path fill="#00B2BA" d="M555.029 193.819c-7.249-.163-9.231 5.923-9.323 11.173-.025 1.462.194 3.245.581 5.13q-.034.01-.069.018c-.917.262 3.846 15.686 20.393 52.275 2.944.344 5.515-.928 8.1-1.68-4.695-6.693-10.99-41.631-13.174-53.849-.893-6.78-1.512-12.954-6.508-13.067"/><path fill="#D38742" d="M544.092 56.324c-.957 1.514-1.642 3.282-2.007 5.035-.396 1.895-.209 3.935-1.21 5.753-2.199 3.995-3.607 7.933-1.157 12.337 1.97 3.541 6.868 6.133 11.621 5.7 2.643-1.076 3.462-3.813 4.387-6.335.472-1.29.078-2.045 1.333-2.464 2.156-.718 2.383-.733 1.763-2.39-1.25-3.323-.202-4.7.706-7.965 1.371-4.947-.39-10.374-5.153-12.885-4.5-2.373-8.103-.237-10.283 3.214"/><path fill="#1B1B35" d="M519.034 100.346c3.725-1.25 6.979-3.97 8.34-7.66 1.592-4.319 11.767-8.29 11.27-12.504-.277-2.344-.4-6.115.302-8.367.399-1.284 1.573-2.272 2.568-3.123 2.375-2.032 4.206-5.343 3.468-8.586-1.144-5.047-5-6.674-8.224-2.753-2.64 3.207-2.397 7.298-6.288 11.19-3.577 3.575-17.532-3.14-28.218 3.712-6.085 3.903-6.053 14.078-2.821 19.964 1.378 2.509 4.62 5.509 7.576 6.719 2.556 1.049 5.548 2.305 8.259 2.144a14.6 14.6 0 0 0 3.768-.736"/><path fill="#D38742" d="M544.36 84.611c-1.46 3.12-2.708 8.808-4.756 9.603-5.288 2.058-6.24-4.427-6.24-4.427l5.636-10.7s7.375 1.218 5.36 5.524"/><path fill="#1B1B35" d="M550.194 50.946c2.46.976 8.606 3.853 10.981 5.029.914 4.008-1.653 9.65-6.832 11.036-2.099.56-10.305-1.941-11.847.442-1.6 2.475-1.048 4.485-.35 6.758.871 2.849.278 10.706-1.644 12.903-2.018 2.309-5.352 3.245-8.342 2.248-3.487-1.161-3.428-19.083-1.693-20.818 1.738-1.737-.289-.893-.289-5.731 0-9.275 3.624-10.71 7.506-12.575 3.641-1.748 7.7-1.2 12.51.708"/><path fill="#00B2BA" d="M491.99 189.577c-1.912 4.438-4.721 11.349-6.162 15.888-1.127 3.547-1.565 5.933 1.318 8.502 6.418 5.718 12.539-1.461 17.249-6.694 7.464-8.291 12.159-14.7 17.749-24.177 4.98-8.44 10.26-16.074 13.624-25.073 2.692-7.195 4.138-21.168-6.504-20.526-8.544.515-7.738-4.202-13.171 1.525-15.993 16.852-18.591 37.76-24.103 50.555"/><path fill="#C4000D" d="M538.779 138.029c.138-.461.215-.948.3-1.335.27-1.26.77-2.41 1.072-3.68.7-2.923 1.528-6.12 3.597-8.407 2.227-2.462 6.926-4.265 8.683-7.142 3.446-5.654-3.626-13.335-5.355-22.56-3.545-7.58-17.996-11.514-22.725 1.255-2.28 6.154-1.675 8.589-1.756 14.887-.017 1.227-.22 2.482-.245 3.717-.021 1.038-.208 2.095-.265 3.11-.115 2.104-.007 4.275-.285 6.359-.285 2.114-2.012 8.503-1.935 10.645.06 1.67 8.584 1.23 10.932 2.294 1.16.525 2.294 1.06 3.483 1.514 1.067.406 2.043 1.178 3.244.866.704-.181 1.047-.826 1.255-1.523"/><path fill="#1B1B35" d="M443.749 251.492c-2.951-.5-8.63-.017-11.651.8-.191 1.29-.125 3.264.07 4.818 1.619-.498 1.704-.323 3.067-.53-5.235 4.946-1.552 15.28-1.486 15.277 5.9-7.251 6.443-8.844 12.258-12.935 0 0 2.958-6.545-2.258-7.43m123.218 12.121c.312 2.978 2.305 8.314 3.905 11.006 1.295-.164 3.176-.757 4.62-1.365-.914-1.425-.768-1.552-1.333-2.81 6.172 3.71 15.134-2.616 15.112-2.681-8.573-3.73-10.25-3.823-15.757-8.325 0 0-7.1-1.086-6.547 4.175"/><path fill="#00B2BA" d="M492.351 218.546c5.43-3.734 9.943-7.632 7.834-11.795-3.205-6.33-9.67-5.235-14.5-2.894-1.304.634-2.775 1.6-4.268 2.758-1.916.753-17.056 16.413-41.137 45.056 1.048 2.7 3.581 5.218 5.458 7.102 3.99-7.242 37.036-32.861 46.73-40.087z"/><path fill="#D38742" d="M503.45 118.53a5.34 5.34 0 0 1 .074 3.225c-.595 2.08-2.456 3.64-3.944 5.11-2.628 2.6-5.57 4.78-8.055 7.493-4.82 5.27-11.3 11.225-15.244 17.211-1.416-1.53-2.45-1.69-3.653-3.307-.198-.263 5.005-9.249 5.49-10.12a55 55 0 0 1 6.001-8.775c3.28-3.93 6.53-7.906 10.147-11.53 2.354-2.36 5.342-4.292 8.046-1.24a5.7 5.7 0 0 1 1.138 1.932"/><path fill="#D38742" d="M473.119 158.968c.81-1.737 2.133-3.156 2.956-4.884.25-.526 1.592-4.393 1.352-4.593-.68-.564-1.323-1.304-1.997-1.948-.833-.802-1.103-1.516-2.19-1.185-1.097.34-2.341 1.455-3.274 2.172-2.1 1.607-4.15 3.723-5.69 5.975.025.06.28.582.346.525.746-.634 2.384-2.518 3.287-3.069-.752.906-2.743 3.224-3.466 4.213.036.08.332.855.392.804.729-.63 1.558-1.368 4.499-3.917-.783.927-1.57 2.15-4.02 4.803.222.438.44.528.762.898 1.112-.949 3.09-3.328 4.334-4.23-.761 1.26-2.87 3.383-3.82 4.457-.324.364.783.334.903.317.47-.059 1.029-.672 1.4-.978 1.532-1.257 3.458-3.589 5.098-4.523-.685 1.297-1.493 3.35-1.58 4.842.11.07.583.285.708.321"/><path fill="#C4000D" d="M501.02 123.597c.841.495 1.811.57 2.931-.185 2.29-1.54 4.685-2.886 7.073-4.249 3.85-2.194 7.638-4.463 11.518-6.6 4.474-2.469 11.158-6.09 14.787-9.792 3.817-3.891 2.726-11.565-4.076-11.472-3.34.047-7.047 2.314-9.866 4.091-3.103 1.954-5.946 4.304-8.995 6.354-3.813 2.562-7.576 5.214-11.138 8.123-1.669 1.365-3.309 2.792-4.944 4.185-1.227 1.044-1.914 2.192-1.284 3.808.397 1.023 1.022 2.118 1.56 2.979.668 1.07 1.468 2.19 2.433 2.758"/><path fill="#D38742" d="M551.252 128.306a5.34 5.34 0 0 1 3.21.307c1.997.836 3.326 2.87 4.61 4.519 2.273 2.919 4.09 6.098 6.49 8.885 4.664 5.41 9.814 12.545 15.29 17.17-1.686 1.226-1.966 2.232-3.715 3.239-.282.162-8.59-6.065-9.403-6.65a55.3 55.3 0 0 1-8.003-6.993c-3.516-3.723-7.08-7.42-10.253-11.44-2.066-2.617-3.63-5.81-.28-8.137a5.7 5.7 0 0 1 2.054-.9"/><path fill="#C4000D" d="M555.997 131.318c.592-.78.778-1.732.163-2.934-1.26-2.455-2.314-4.992-3.385-7.526-1.725-4.08-3.528-8.109-5.194-12.214-1.922-4.734-4.73-11.798-7.976-15.842-3.415-4.25-11.166-4.072-11.875 2.694-.35 3.322 1.465 7.272 2.898 10.28 1.576 3.313 3.572 6.413 5.248 9.682 2.094 4.09 4.282 8.138 6.75 12.02 1.16 1.819 2.384 3.616 3.572 5.403.893 1.342 1.953 2.16 3.631 1.726 1.062-.276 2.224-.766 3.14-1.2 1.144-.537 2.351-1.198 3.028-2.089"/><path fill="#D38742" d="M586.953 162.663c-1.752-1.085-3.096-2.674-4.837-3.773-.53-.337-4.488-2.259-4.73-2.027-.69.655-1.56 1.246-2.333 1.883-.96.788-1.76.987-1.541 2.188.219 1.212 1.253 2.683 1.9 3.771 1.45 2.442 3.447 4.9 5.656 6.83.065-.019.656-.226.606-.303-.583-.875-2.387-2.862-2.858-3.899.87.92 3.092 3.337 4.056 4.234.087-.028.952-.246.906-.315-.58-.856-1.261-1.837-3.608-5.3.888.955 2.094 1.95 4.615 4.9.497-.18.62-.403 1.054-.698-.87-1.308-3.16-3.721-3.961-5.162 1.244.973 3.246 3.49 4.268 4.642.35.391.458-.792.455-.924-.004-.509-.588-1.182-.867-1.62-1.146-1.792-3.39-4.144-4.18-6.01 1.297.893 3.384 2.016 4.969 2.298.086-.11.376-.586.43-.715"/></g></svg>