<svg xmlns="http://www.w3.org/2000/svg" xmlns:xlink="http://www.w3.org/1999/xlink" width="588" height="258"><defs><path id="a" d="M0 0h38.663v75.198H0z"/><path id="c" d="M0 0h43.465v76.916H0z"/><path id="e" d="M0 0h70.42v80.23H0z"/><path id="g" d="M0 0h186.314v52.321H0z"/><path id="i" d="M0 0h154.97v34.869H0z"/><path id="k" d="M0 0h158.497v37.022H0z"/><path id="m" d="M0 0h170.968v31.365H0z"/></defs><g fill="none" fill-rule="evenodd"><path fill="#C3FAD5" d="M395.7 157.443H266.3a6.227 6.227 0 0 1-6.226-6.227V72.31a6.227 6.227 0 0 1 6.227-6.227h129.398a6.227 6.227 0 0 1 6.227 6.227v78.906a6.227 6.227 0 0 1-6.227 6.227"/><g transform="translate(218.086 182.916)"><mask id="b" fill="#fff"><use xlink:href="#a"/></mask><path fill="#294232" d="M11.419 89.014C9.219 80.649-.025 33.084 0 23.544c.029-9.54.17-9.281 6.555-15.785C14.717-.553 28.444-4.535 32.316 8c13.617 44.074 1.617 117.513-1.896 134.135-.973 4.602-2.02 9.19-3.13 13.77l-12.395 1.032c-.173-25.326-8.657-53.864-3.476-67.922" mask="url(#b)"/></g><g transform="translate(178.166 181.197)"><mask id="d" fill="#fff"><use xlink:href="#c"/></mask><path fill="#294232" d="M15.045 102.425c-2.742 3.431-6.533 7.058-10.284 5.957-2.276-.67-3.798-3.023-4.38-5.566-.583-2.54-.377-5.28-.168-7.965.904-11.599 7.677-80.79 29.364-93.354C39.303-4.138 44.56 7.02 43.273 20.252 41.564 37.778 39.616 60.9 31.649 76.565c-4.678 9.206-10.247 17.911-16.604 25.86" mask="url(#d)"/></g><g transform="translate(180.71 177.883)"><mask id="f" fill="#fff"><use xlink:href="#e"/></mask><path fill="#294232" d="M5.83 80.23C.347 80.163-7.955 63.846 17.24 4.87 19.907-1.375 28.87 1.375 35.607.525 44.734-.627 62.51-.538 66.9 7.745c13.688 25.848-16.479 37.518-23.517 37.321l-6.006-5.97-6.598 5.367L29.695 59.1z" mask="url(#f)"/></g><path fill="#297254" d="M235.979 121.624c-4.718-5.16-9.454-11.362-10.514-18.477-.332-2.224-.365-2.589 1.82-2.49 1.719.079 3.636.84 5.245 1.41 3.288 1.166 6.4 2.808 9.321 4.71 3.05 1.99 5.896 4.266 8.657 6.648l-9.678 13.183a117 117 0 0 1-4.851-4.984"/><path fill="#1DD884" d="M249.6 113.879a210 210 0 0 1 4.578 3.58c8.306 6.633 11.235 11.845 19.542 18.48.785.625 1.613 1.325 1.738 2.31.2 1.568-1.567 3.142-3.353 3.54-1.786.395-3.523-.061-5.14-.555-12.174-3.724-17.803-8.3-26.87-16.1z"/><path fill="#1DD884" d="M297.273 104.438c.188-1.336.155-3.026-1.054-3.618-1.15-.564-2.457.324-3.413 1.177-8.071 7.197-27.462 31.162-26.177 35.848 1.198 4.374 4.118 5.615 7.687 2.868 7.264-5.583 22.207-30.93 22.957-36.275"/><path fill="#1DD884" d="M292.948 96.055c.89-2.606 2.704-5.038 5.288-5.989 2.074-.763 4.411-.493 6.49.252.905.322 1.93.987 1.815 1.94-.102.848-1.033 1.282-1.671 1.849-1.457 1.295-1.47 3.511-2.078 5.36a8.06 8.06 0 0 1-4.17 4.714c-1.548.727-5.346 1.559-6.497-.26-1.073-1.688.23-6.134.823-7.866"/><path fill="#297254" d="M209.44 163.715c3.062-15.711-12.805-30.5-9.817-46.227 2.039-10.727 13.484-18.337 24.35-17.24 10.865 1.092 20.167 9.875 23.164 20.375a31.6 31.6 0 0 1 .473 15.374c-.774 3.534-2.147 6.906-3.065 10.404-1.882 7.165-1.784 14.652-.688 21.933.955 6.351 2.85 10.912 4.736 18.85-17.726-8.387-50.644-4.432-50.644-4.432 1.692-2.432 10.607-14.501 11.492-19.037"/><path fill="#297254" d="M194.322 119.275c2.07-5.083 5.396-9.828 10.128-12.604 1.164-.685 2.629-1.24 3.817-.602 1.118.6 1.502 1.994 1.701 3.247 1.315 8.217-.565 16.54-2.708 24.626l-15.93-3.943c.71-3.658 1.588-7.279 2.992-10.724"/><path fill="#1DD884" d="M190.564 134.775c.285-1.741.572-3.489.894-5.227l15.215 3.94q-.294 1.16-.592 2.316-3.12 12.12-6.238 24.245c-.777 3.031-1.015 6.741-3.83 8.5-2.018 1.266-4.833 1.349-6.725-.217-1.642-1.36-2.48-3.566-2.686-5.746-.208-2.18.146-4.37.499-6.529a50617 50617 0 0 1 3.463-21.282"/><path fill="#1DD884" d="M232.845 185.77c1.661.955 2.69 1.478 1.814 3.184-.68 1.32-1.79 2.518-3.198 2.037-9.75-3.317-42.692-20.628-44.388-22.33-2.79-2.807-.755-11.628 4.804-10.981 5.64.66 23.029 17.586 38.126 26.273"/><path fill="#1DD884" d="M233.68 180.583c2.788-1.136 5.576-2.276 8.363-3.412.642.134.662 1.126.207 1.598-.452.475-1.137.64-1.69.993-.552.354-.978 1.125-.58 1.649s1.217.328 1.83.08q4.222-1.703 8.448-3.403c1.67 1.712 1.556 4.624.274 6.643s-3.465 3.288-5.677 4.194a28.3 28.3 0 0 1-9.709 2.09c-1.92.07-3.997-.118-5.46-1.364-3.72-3.175 1.04-7.861 3.994-9.068"/><path fill="#21402C" d="M241.964 57.192c-1.05-3.455-4.078-6.234-7.613-6.983-3.531-.75-7.428.558-9.79 3.289-1.204 1.391-2.07 3.142-3.633 4.109-2.058 1.268-4.695.823-7.082 1.21-3.623.586-6.808 3.347-7.898 6.854-2.211 7.1 7.699 21.31-.845 29.85-2.395 2.396-3.587 5.282-5.202 8.258-10.399 19.2 11.725 24.2 18.715 14.52 7.929-10.976-2.5-12.954-1.318-22.824.685-5.712 13.998-5.174 16.098-10.527 1.152-2.939.427-6.268 1.004-9.367.566-3.025 2.319-5.042 4.456-7.1 1.597-1.538 2.798-4.001 3.274-6.133.378-1.698.341-3.491-.166-5.156"/><path fill="#1DD884" d="M230.858 88.343a27.5 27.5 0 0 0-.323 12.143c.25 1.238.538 2.678-.28 3.642-.78.921-2.17.93-3.374.866-2.018-.113-4.079-.233-5.958-.973-1.882-.743-3.587-2.23-4.054-4.195-.383-1.625.108-3.314.596-4.91q1.403-4.593 2.807-9.186c.276-.897.577-1.84 1.262-2.478 1.152-1.075 3.059-.916 4.386-.071 1.33.848 2.21 2.22 3.052 3.553z"/><path fill="#1DD884" d="M236.9 87.51c1.182-1.928 1.633-4.2 2.057-6.421.584-3.056 1.152-6.157.89-9.256-.263-3.102-1.46-6.246-3.866-8.221-2.898-2.386-7.063-2.672-10.711-1.784-3.17.77-6.305 2.509-7.779 5.417-.802 1.582-1.05 3.375-1.29 5.129-.313 2.281-.62 4.621-.113 6.866.562 2.488 2.103 4.671 3.995 6.379s4.13 2.985 6.39 4.16c1.306.68 2.654 1.34 4.11 1.558 2.902.436 4.895-1.505 6.317-3.826"/><path fill="#21402C" d="M225.986 67.413c-1.563 2.826-1.382 6.575-3.648 8.875-1.84 1.87-5.1 2.1-7.186.507-1.588-1.213-2.405-3.28-2.343-5.28.061-1.998.93-3.918 2.18-5.478 1.25-1.563 2.865-2.794 4.564-3.85 2.613-1.625 5.506-2.888 8.565-3.262 1.934-.237 3.933-.096 5.8.491 1.407.445 4.119 1.471 4.355 3.203.234 1.714-1.271 1.892-2.435 1.456-1.772-.66-3.384-.946-5.257-.378a7.93 7.93 0 0 0-4.595 3.716"/><path fill="#1DD884" d="M218.093 75.262c-.55-.251-1.133-.466-1.738-.494-.605-.03-1.244.144-1.667.577-.575.581-.66 1.493-.522 2.297.346 2.03 1.968 3.615 4.105 3.382 1.619-.175 2.359-1.557 2.199-3.111-.135-1.327-1.25-2.132-2.377-2.65"/><g transform="translate(317.044 205.792)"><mask id="h" fill="#fff"><use xlink:href="#g"/></mask><path fill="#52CD80" d="M183.37 97.629c.414 4.531 3.415 55.553 2.88 55.553q-83.117-.075-166.219-1.667c-5.313-.102-11.125-.395-15.078-3.948C.436 143.507-.033 136.694 0 130.62a299.8 299.8 0 0 1 7.494-64.78c2.3-10.1 5.986-20 7.628-30.152 1.356-8.391 7.563-13.924 15.09-17.69 7.038-3.521 14.807-5.25 22.375-7.406 3.908-1.114 8.308-2.903 12.019-4.25 9.223.51 15.54-5.506 24.491-6.018 10.227-.584 22.636-.808 32.275 3.193 4.037 1.676 10.826 6.024 15.366 5.432 6.28 2.445 9.449 4.26 15.869 6.487 3.636 1.262 7.32 2.547 10.508 4.704 10.379 7.018 13.038 19.642 13.87 31.104 1.12 15.396 4.97 30.899 6.385 46.385" mask="url(#h)"/></g><path fill="#45A07A" d="M434.04 198.114c1.103 4.5 2.863 8.481 5.77 10.406 1.38.914 3.064 1.212 4.607 1.81 3.233 1.255 5.94 3.87 9.365 4.412-7.837 8.578-18.95 15.312-28.918 21.263-.899.537-1.866 1.084-2.913 1.05-.852-.027-1.638-.44-2.389-.844a317 317 0 0 1-37.912-24.076c5.755-1.455 16.202-3.376 18.062-10.096.738-2.662-.68-23.746-1.369-23.793l33.591 2.282c.31 4.131.578 11.355 2.106 17.586m-40.728-27.058c-.14.748-.995 1.195-1.752 1.114s-1.413-.553-1.971-1.07c-3.081-2.854-4.182-7.268-4.438-11.46-.05-.816-.056-1.7.412-2.372.56-.804 1.625-1.06 2.6-1.161a15.4 15.4 0 0 1 5.019.31m46.541-2.585a11.25 11.25 0 0 1 5.391-.132c.42.093.85.22 1.165.51.585.54.592 1.446.556 2.241-.113 2.47-.228 4.962-.877 7.348-.649 2.385-1.883 4.687-3.858 6.174-1.148.863-2.492 1.418-3.82 1.964"/><path fill="#21B1FE" d="M425.889 163.291c-.798 3.296-4.272 5.474-7.662 5.54-3.374.065-6.05-2.277-8.37-4.482.366.349 7.482-.29 8.341-.337a99 99 0 0 0 7.69-.72"/><path fill="#21402C" d="M388.023 145.433c.196-3.363 3.289-3.247 6.195-3.618 9.25-1.18 18.613-2.156 27.946-1.487 4.603.33 9.188 1.068 13.615 2.389 4.251 1.267 4.263-1.616 6.29 2.963 4.765 10.771-1.416 17.185.096 19.2 3.397 4.53-.871 21.602-12.792 26.482-.704.587.48-5.36-3.6-1.68-3.077 2.775-7.44 5.52-7.44 5.52s-11.108-1.754-14.92-8.822c0 2.86 3.839 4.924.874 4.924-6.144 0-8.832-19.346-8.737-11.797.106 8.492-8.87-11.04-7.527-34.074"/><path fill="#21402C" d="M442.066 145.62c-.089-2.39-.746-4.211.064-6.552.498-1.44 1.594-3.557.25-4.88-1.91-1.88-7.055.268-8.573-2.24-.865-1.432 4.49-4.5 5.654-5.41.5-.39 1.033-.825 1.186-1.44.132-.533-.053-1.092-.283-1.591-1.595-3.455-5.36-5.498-9.126-6.043-3.764-.545-7.585.168-11.322.879l1.268-3.098c-10.293-2.646-22.077 2.72-26.837 12.223a14.2 14.2 0 0 0-4.836-4.69c-1.357 3.911-2.723 7.87-3.117 11.99-.347 3.64.559 7.221 1.629 10.665 13.927-.547 27.864-1.994 41.734-2.543 1.881-.078 4.194.44 6.009.11-2.147.268-4.253.85-6.233 1.721.946-.416 5.244 1.147 6.577 1.186 1.763.052 4.26.194 5.958-.227z"/><g transform="translate(64 223.245)"><mask id="j" fill="#fff"><use xlink:href="#i"/></mask><path fill="#52CD80" d="M-7.058 125.815A431 431 0 0 1-.017 53.274C3.792 32.5 10.64 15.068 31.736 7.827c5.209-1.788 10.425-3.578 15.77-4.91C66.144-1.727 85.996-.62 104.431 4.78c14.346 4.2 28.621 11.574 36.496 24.28 7.503 12.107 5.272 25.255 9.577 37.967 4.549 13.43 4.385 28.365 4.454 42.507.091 18.96-.38 37.926-1.539 56.857-.127 2.083-.274 4.21-1.136 6.14-2.012 4.505-7.344 6.878-12.355 8.48-38.136 12.197-80.001 2.668-119.013-6.92" mask="url(#j)"/></g><path fill="#45A07A" d="M130.759 191.628c.788 6.635 1.134 13.317.518 19.97-1.02 11.042-7.665 11.388-13.44 12.92 4.672 7.403 16.612 13.163 25.353 13.655 8.74.491 20.904-3.663 26.378-10.496-4.286-.424-10.761-4.314-11.592-8.54-.83-4.226-.061-13.726.93-17.918"/><g transform="translate(250.805 221.09)"><mask id="l" fill="#fff"><use xlink:href="#k"/></mask><path fill="#142018" d="M0 109.496a720 720 0 0 1 5.052-72.267c.924-7.654 2.39-16.07 8.4-20.898 2.53-2.033 5.629-3.202 8.682-4.302a415 415 0 0 1 27.744-8.915c24.049-6.804 47.94-1.45 70.946 6.384 4.555 1.551 9.204 3.307 12.708 6.607 4.22 3.974 6.262 9.682 8.054 15.193a457 457 0 0 1 16.91 70.67" mask="url(#l)"/></g><g transform="translate(427.032 226.748)"><mask id="n" fill="#fff"><use xlink:href="#m"/></mask><path fill="#142018" d="M170.545 146.868c1.087-19.932 2.477-40.008 1.511-59.881-.894-18.408-.179-35.126-9.705-51.86C146.324 6.97 107.794-1.02 77.131.1 66.613.485 57.053 5.843 46.873 5.119 42.27 6.193 36.69 7.197 32.125 8.276c-6.352 1.5-13.114 3.416-17.253 8.462-2.742 3.342-3.964 7.644-5.06 11.826C5.323 45.707-.394 63.824.023 81.508c.442 18.786 2.564 37.485 3.084 56.27" mask="url(#n)"/></g><path fill="#45A07A" d="M540.517 175.743c.547-3.76.933-7.578.575-11.331-.992-10.396-8.122-19.491-17.283-22.476-10.486-3.418-19.967.986-26.13 9.705-7.585 10.733-8.582 23.86-6.022 36.502.766 3.782 1.912 7.542 3.984 10.797 7.064 11.098 20.476 14.169 30.776 5.572 8.263-6.898 12.587-18.386 14.1-28.77"/><path fill="#45A07A" d="M498.297 198.36c.024-.76.8.071.83.83.172 4.284 2.141 8.042 1.895 12.263-.353 6.066-2.042 10.58-7.176 13.776-6.002 3.737-12.892 6.052-19.94 6.638.608-.05 6.557 7.92 7.547 8.846a53.8 53.8 0 0 0 9.778 7.234c6.455 3.733 15.47 7.554 23.113 7 3.125-.228 6.39-1.585 9.475-2.23 3.926-.82 7.722-2.125 11.298-3.945 7.128-3.625 12.932-8.551 17.069-15.415-5.175-1.967-11.023-3.279-16.793-4.473-4.873-1.007-10.56-2.256-12.643-6.774-1.028-2.23-.976-4.797-.72-7.24a48.8 48.8 0 0 1 3.788-14.366"/><path fill="#21402C" d="M537.398 122.934c-.455-2.369-1.41-4.626-2.888-6.55-2.461-3.204-6.107-5.33-9.926-6.646-6.694-2.304-14.487-2.179-20.469 1.606-6.68 4.227-10.606 13.765-8.017 21.432 2.594 7.68 11.898 12.27 19.576 12.27 7.665 0 15.339-2.799 19.5-9.62 2.25-3.692 3.033-8.27 2.224-12.492"/><path fill="#45A07A" d="M490.838 182.914c-2.497.077-4.724-1.854-5.694-4.157s-.914-4.9-.653-7.385c.126-1.198.312-2.436.972-3.444.866-1.323 2.457-2.05 4.034-2.157s3.144.338 4.599.957m43.027 18.904c1.407 1.45 5.993-1.978 6.866-3.801.714-1.488 2.178-8.143 1.594-9.686-.742-1.962-1.982-3.056-4.046-3.433"/><path fill="#21402C" d="M488.8 156.637c-8.188 40.423 14.646 44.527 25.25 44.527s-.358-37.598.023-38.46c2.354-5.326-11.223-11.436-10.425-17.334.08-.602.146-1.263-.187-1.77-.355-.539-1.049-.73-1.689-.812-3.214-.41-12.848 13.234-12.972 13.85"/><path fill="#21402C" d="M540.849 178.135c3.66-5.817 4.773-13.175 2.999-19.815-1.919-7.18-6.697-10.877-11.74-15.765-5.287-5.124-12.18-7.923-19.663-7.875-11.165.073-12.66 7.158-9.457 16.237 3.811 10.802 9.351 50.247 11.061 50.247 17.527 0 26.078-3.105 26.8-23.029m-241.322 72.4c20.093-13.955 15.036 1.823 30.526 3.7 6.5.788 7.789 2.08 21.054-10.124 10.728-9.869 17.529-7.407 20.521-13.523 7.076-14.458-12.184-13.027-5.526-21.75 5.72-7.491-2.781-11.052-5.857-13.5-11.481-9.139-3.275-8.906-5.623-12.76-3.015-4.947-8.416-6.21-9.67-9.55-1.215-3.233.903-6.096.903-10.329 0-5.332-6.693-8.811-12.461-11.126-7.284-2.924-5.887-10.037-25.248-10.037-8.476 0-17.102 11.127-23.847 15.191-8.882 5.352-.003 18.184-7.506 22.342-15.45 8.56-1.16 18.79-1.16 24.436 0 21.659-18.099 8.658-6.007 30.879 7.9 14.517.755 3.868 6.655 14.358 2.52 4.482 9.29 11.485 23.246 1.793M120.394 185.76c-2.923-.87-5.304-3.362-6.04-6.32-.41-1.651-.336-3.388-.686-5.052-.67-3.183-2.804-5.818-4.465-8.614-1.66-2.797-2.89-6.27-1.587-9.251.798-1.827 2.417-3.144 3.622-4.733 2.234-2.944 2.98-6.71 4.105-10.23s2.95-7.175 6.307-8.718c4.511-2.072 10.058.423 14.688-1.368 1.645-.636 3.04-1.768 4.513-2.737 2.78-1.828 6-3.124 9.327-3.134 3.327-.011 6.75 1.404 8.676 4.117 1.391 1.96 1.955 4.468 3.598 6.223 2.066 2.207 5.329 2.724 7.955 4.22 3.274 1.866 5.53 5.409 5.834 9.164.304 3.742-1.205 7.509-.575 11.21.756 4.449 4.53 8.512 3.387 12.878-.852 3.254-4.21 5.328-5.27 8.52-.405 1.22-.448 2.539-.884 3.747-.82 2.275-3.113 3.936-5.53 4.007"/><path fill="#21402C" d="M131.791 202.886c2.913.842-.239 4.215 4.116 6.067 7.586 3.226 6.188-2.259 9.603-2.402s2.548 3.096 9.505 1.626c1.76-.371 3.233-3.878 4.29-5.273 1.553-2.049 3.814-1.476 5.411-3.154 4.852-5.096 1.274-5.193 3.74-10.204 2.46-5-1.044-9.777-.915-14.08.147-4.937 1.57-11.502.55-16.206-1.311-6.04-7.606-11.12-13.084-13.188-7.16-2.701-15.291-1.976-22.448.735-3.206 1.214-6.367 2.894-8.464 5.605-1.939 2.507-2.803 5.683-3.245 8.82a42.5 42.5 0 0 0-.309 8.6c.31 4.907 1.381 7.88-.147 15.928-1.82 9.587 1.428 14.243 11.397 17.126"/><path fill="#21402C" d="M120.827 157.915c1.6 2.17 4.964 1.769 7.444.713 2.481-1.055 5.079-2.574 7.691-1.906 2.998.767 4.877 4.21 7.95 4.578 3.31.397 6.013-2.975 9.341-3.159 3.949-.218 7.124 4.064 11.065 3.741 2.368-.194 4.354-2.152 5.05-4.424.697-2.272.276-4.767-.658-6.952-2.87-6.716-10.09-10.6-17.231-12.133a43.3 43.3 0 0 0-21.22.8c-3.93 1.158-7.78 2.94-10.658 5.856-2.88 2.917-4.667 7.106-3.99 11.147"/></g></svg>