<svg width="386" height="312" fill="none" xmlns="http://www.w3.org/2000/svg"><g clip-path="url(#a)"><ellipse cx="208.073" cy="211.638" rx="174.932" ry="88.723" transform="rotate(-14.67 208.073 211.638)" fill="#E5E5E5"/><path d="m177.673 202.137-31.103 68.79 89.981 21.231.008-73.228-58.886-16.793z" fill="#7070F3"/><path d="m146.57 215.572-59.99 69.11 59.99-13.755 31.103-68.791-31.103 13.436zM236.566 218.93l-.007 73.228 89.988-22.108-31.103-67.92-58.878 16.8z" fill="#CACAFB"/><path d="m326.547 215.573-31.103-13.443 31.103 67.92 59.99 14.632-59.99-69.109z" fill="#7070F3"/><path d="m171.034 216.809-14.492 5.512-2.63 3.847 13.625-1.618 3.497-7.741z" fill="#FFEB86"/><path d="m229.913 220.602-1.964 3.717-17.129-.258-23.968-9.324-1.689.482 3.66 7.088-17.781-5.504-3.505 7.747 9.15 9.256 8.328 3.432-.282 4.581 4.653 3.69.845 3.935-7.187-6.035-12.01 12.138-8.379 1.176 19.841 10.683 24.219 6.443 29.836 10.833h.007v-62.483l-6.645-1.597z" fill="#CAAA2A"/><path d="m312.292 238.924.778-.401-1.6-1.4" fill="#5A8F2B"/><path d="m327.31 252.17 1.267-2.678-13.551-4.608 3.764 8.23 8.52-.944z" fill="#CAAA2A"/><path d="m315.026 244.884-.326-.109h-2.245l1.186-2.14-7.357-.965 6.008-2.746-.822-1.801-2.245-2.739-7.276-2.086-9.846 5.729.407-4.091 12.818-10.208-2.853-8.04-1.141-.7-15.166 1.76-9.698 2.182-16.892 2.623-20.145-.693-2.867 1.339h-.007v62.483l15.129-4.227v-6.3l12.809-9.29 23.642-2.107 26.561-5.96 3.712-3.643.378-.041-3.764-8.23z" fill="#FFEB86"/><path d="m310.877 224.251-.852-5.525-8.691-3.738 3.994 8.74 5.549.523zM351.241 258.558l-1.867-3.011h2.385l3.742 5.614 5.994 5.444-.26 2.922 2.904 2.698v3.908l-14.313-8.285-7.55-8.753 1.874-1.543 7.091 1.006z" fill="#CAAA2A"/><path d="M231.046 110.437s4.542 6.449 5.572 16.399c1.029 9.949 2.244 13.442 3.126 16.487.882 3.045 0 12.186 0 12.186s2.734 11.648-2.148 12.729c-4.883 1.08-12.41-1.074-15.537-19.988-3.126-18.913 8.987-37.82 8.987-37.82v.007z" fill="#B67342"/><path d="m244.931 227.391 5.208-8.285v-5.865l-5.512-2.915-5.512 2.915v5.865l5.201 8.285h.615z" fill="#E1000F" stroke="#fff" stroke-width=".67" stroke-miterlimit="10"/><path d="m248.302 214.227-3.675-1.937-3.675 1.937v3.894l3.675 1.93 3.675-1.93V217h-2.112v-1.652h2.112v-1.121z" fill="#fff"/><path d="M243.056 215.348V217l1.571.842 1.563-.842v-1.652l-1.563-.842-1.571.842z" fill="#000091"/><path d="m191.994 236.335 7.35-11.696v-8.278l-7.78-4.112-7.779 4.112v8.278l7.35 11.696h.859z" fill="#E1000F" stroke="#fff" stroke-width=".95" stroke-miterlimit="10"/><path d="m196.751 217.754-5.187-2.725-5.186 2.725v5.498l5.186 2.725 5.187-2.725v-1.583h-2.971v-2.331h2.971v-1.584z" fill="#fff"/><path d="M189.349 219.338v2.331l2.215 1.189 2.215-1.189v-2.331l-2.215-1.19-2.215 1.19z" fill="#000091"/><path d="M126.47 87.88s-17.974 26.682 55.492 45.324c0 0-4.052 10.303 19.249 25.764 0 0 13.506 6.952 13.862-13.327 0 0-6.261-20.504-18.863-23.726 0 0-8.987-21.088-15.633-30.562-6.646-9.474-17.959-11.92-17.959-11.92L126.47 87.88z" fill="#B67342"/><path d="m206.086 238.02 4.764 23.8c.503 2.515 8.468 3.283 17.788 1.713 9.321-1.57 16.47-4.88 15.966-7.394l-4.763-23.8-33.748 5.681h-.007z" fill="#041A91"/><path d="M223.887 239.723c9.321-1.569 16.469-4.879 15.966-7.393-.503-2.514-8.467-3.28-17.787-1.711-9.321 1.569-16.47 4.879-15.967 7.393.503 2.514 8.467 3.28 17.788 1.711z" fill="#000091"/><path d="m240.537 191.229-5.668-26.342-27.953-8.937-22.672 17.46 5.283 26.402 31.236 31.038 2.326-.394 17.448-39.227z" fill="#000091" stroke="#fff" stroke-width="5.12" stroke-miterlimit="10"/><path d="m231.024 188.279-3.519-17.602-18.634-5.96-15.114 11.642 3.52 17.602 15.114-11.642 18.633 5.96z" fill="#fff"/><path d="m220.348 184.868-1.504-7.517-7.957-2.548-6.453 4.974 1.504 7.517 7.957 2.542 6.453-4.968z" fill="#E1000F"/><path d="M259.822 218.855v13.225c0 1.4 4.201 2.528 9.38 2.528 5.179 0 9.38-1.135 9.38-2.528v-13.225H259.822z" fill="#041A91"/><path d="M269.195 222.124c5.106 0 9.246-1.117 9.246-2.494 0-1.378-4.14-2.494-9.246-2.494-5.107 0-9.247 1.116-9.247 2.494 0 1.377 4.14 2.494 9.247 2.494z" fill="#000091"/><path d="m283.167 197.549-.207-14.115-13.869-7.231-13.87 7.231v14.115l13.269 19.587h1.275l13.402-19.587z" fill="#000091" stroke="#fff" stroke-width="2.73" stroke-miterlimit="10"/><path d="m282.864 197.794.096-14.36-13.869-7.231-13.87 7.231v14.469l13.973-7.238 13.67 7.129z" fill="#fff"/><path d="M273.144 192.724v-4.118l-3.949-2.06-3.942 2.06v4.118l3.942 2.059 3.949-2.059z" fill="#E1000F"/><path d="m235.751 278.831 13.313-21.197v-14.999l-14.099-7.449-14.099 7.449v14.999l13.314 21.197h1.571z" fill="#E1000F" stroke="#fff" stroke-width="1.72" stroke-miterlimit="10"/><path d="m244.368 245.149-9.402-4.934-9.395 4.934v9.97l9.395 4.941 9.402-4.941v-2.875h-5.387v-4.22h5.387v-2.875z" fill="#fff"/><path d="M230.95 248.024v4.22l4.015 2.155 4.016-2.155v-4.22l-4.016-2.154-4.015 2.154z" fill="#000091"/><path d="m76.675 16.603 43.527 18.954s24.768 13.579 34.296 16.263c9.528 2.685 36.933 9.277 47.187 10.086 10.254.809 14.358 5.511 15.973 9.813 1.616 4.302 6.446 17.772 6.446 17.772s12.603 13.953 12.455 25.778c-.149 11.825-3.275 35.489-12.455 46.424 0 0-22.471 12.817-14.558-7.979l4.008-11.159-.296-12.906s-9.965 12.634-15.389 13.579c-5.423.945-19.048-1.482-21.834-.938 0 0-5.667-1.21-5.667-7.306s6.742-7.883 18.559-7.53l.192-3.581s-9.772-7.082-18.559-10.487c0 0-7.231-5.464 8.113-11.295l-16.707-6.361s-35.755 3.942-41.179 1.386c-5.423-2.555-16.707-14.115-16.707-14.115l-55.1-15.862.734-29.441 26.968-21.102-.007.007z" fill="#D38742"/><path d="m46.343 24.18 15.825 22.856s-5.86 29.576 6.446 23.929c0 0-2.341 5.11-7.327 5.376L5.017 61.552s-.875-33.613 10.26-48.395C26.413-1.624 46.343 24.18 46.343 24.18z" fill="#ABB8DF"/><path d="m32.57 42.462 39.86-13.17s4.393-12.098 17.588-6.994l2.49 1.482s2.34-4.574-3.809-7.53C82.542 13.286 48.543.116 48.543.116S23.338-2.447 13.077 16.582c0 0-3.001 3.95-4.742 12.798l24.234 13.082z" fill="#ACF0FA"/></g><defs><clipPath id="a"><path fill="#fff" d="M0 0h386v312H0z"/></clipPath></defs></svg>