<svg width="386" height="312" viewBox="0 0 386 312" fill="none" xmlns="http://www.w3.org/2000/svg">
<g clip-path="url(#clip0_157_1202)">
<ellipse cx="208.073" cy="211.638" rx="174.932" ry="88.7234" transform="rotate(-14.6704 208.073 211.638)" fill="#E5E5E5"/>
<path d="M177.673 202.137L146.57 270.927L236.551 292.158L236.559 218.93L177.673 202.137Z" fill="#7070F3"/>
<path d="M146.57 215.572L86.5806 284.682L146.57 270.927L177.673 202.136L146.57 215.572Z" fill="#CACAFB"/>
<path d="M236.566 218.93L236.559 292.158L326.547 270.05L295.444 202.13L236.566 218.93Z" fill="#CACAFB"/>
<path d="M326.547 215.573L295.444 202.13L326.547 270.05L386.537 284.682L326.547 215.573Z" fill="#7070F3"/>
<path d="M171.034 216.809L156.542 222.321L153.912 226.168L167.537 224.55L171.034 216.809Z" fill="#FFEB86"/>
<path d="M229.913 220.602L227.949 224.319L210.82 224.061L186.852 214.737L185.163 215.219L188.823 222.307L171.042 216.803L167.537 224.55L176.687 233.806L185.015 237.238L184.733 241.819L189.386 245.509L190.231 249.444L183.044 243.409L171.034 255.547L162.655 256.723L182.496 267.406L206.715 273.849L236.551 284.682H236.558V222.199L229.913 220.602Z" fill="#CAAA2A"/>
<path d="M312.292 238.924L313.07 238.523L311.47 237.123" fill="#5A8F2B"/>
<path d="M327.31 252.17L328.577 249.492L315.026 244.884L318.79 253.114L327.31 252.17Z" fill="#CAAA2A"/>
<path d="M315.026 244.884L314.7 244.775H312.455L313.641 242.635L306.284 241.67L312.292 238.924L311.47 237.123L309.225 234.384L301.949 232.298L292.103 238.027L292.51 233.936L305.328 223.728L302.475 215.688L301.334 214.988L286.168 216.748L276.47 218.93L259.578 221.553L239.433 220.86L236.566 222.199H236.559V284.682L251.688 280.455V274.155L264.497 264.865L288.139 262.758L314.7 256.798L318.412 253.155L318.79 253.114L315.026 244.884Z" fill="#FFEB86"/>
<path d="M310.877 224.251L310.025 218.726L301.334 214.988L305.328 223.728L310.877 224.251Z" fill="#CAAA2A"/>
<path d="M351.241 258.558L349.374 255.547H351.759L355.501 261.161L361.495 266.605L361.235 269.527L364.139 272.225V276.133L349.826 267.848L342.276 259.095L344.15 257.552L351.241 258.558Z" fill="#CAAA2A"/>
<path d="M231.046 110.437C231.046 110.437 235.588 116.886 236.618 126.836C237.647 136.785 238.862 140.278 239.744 143.323C240.626 146.368 239.744 155.509 239.744 155.509C239.744 155.509 242.478 167.157 237.596 168.238C232.713 169.318 225.186 167.164 222.059 148.25C218.933 129.337 231.046 110.43 231.046 110.43V110.437Z" fill="#B67342"/>
<path d="M244.931 227.391L250.139 219.106V213.241L244.627 210.326L239.115 213.241V219.106L244.316 227.391H244.931Z" fill="#E1000F" stroke="white" stroke-width="0.67" stroke-miterlimit="10"/>
<path d="M248.302 214.227L244.627 212.29L240.952 214.227V218.121L244.627 220.051L248.302 218.121V217H246.19V215.348H248.302V214.227Z" fill="white"/>
<path d="M243.056 215.348V217L244.627 217.842L246.19 217V215.348L244.627 214.506L243.056 215.348Z" fill="#000091"/>
<path d="M191.994 236.335L199.344 224.639V216.361L191.564 212.249L183.785 216.361V224.639L191.135 236.335H191.994Z" fill="#E1000F" stroke="white" stroke-width="0.95" stroke-miterlimit="10"/>
<path d="M196.751 217.754L191.564 215.029L186.378 217.754V223.252L191.564 225.977L196.751 223.252V221.669H193.78V219.338H196.751V217.754Z" fill="white"/>
<path d="M189.349 219.338V221.669L191.564 222.858L193.779 221.669V219.338L191.564 218.148L189.349 219.338Z" fill="#000091"/>
<path d="M126.47 87.8805C126.47 87.8805 108.496 114.562 181.962 133.204C181.962 133.204 177.91 143.507 201.211 158.968C201.211 158.968 214.717 165.92 215.073 145.641C215.073 145.641 208.812 125.137 196.21 121.915C196.21 121.915 187.223 100.827 180.577 91.3533C173.931 81.8795 162.618 79.4329 162.618 79.4329L126.47 87.8805Z" fill="#B67342"/>
<path d="M206.086 238.02L210.85 261.82C211.353 264.335 219.318 265.103 228.638 263.533C237.959 261.963 245.108 258.653 244.604 256.139L239.841 232.339L206.093 238.02H206.086Z" fill="#041A91"/>
<path d="M223.887 239.723C233.208 238.154 240.356 234.844 239.853 232.33C239.35 229.816 231.386 229.05 222.066 230.619C212.745 232.188 205.596 235.498 206.099 238.012C206.602 240.526 214.566 241.292 223.887 239.723Z" fill="#000091"/>
<path d="M240.537 191.229L234.869 164.887L206.916 155.95L184.244 173.41L189.527 199.812L220.763 230.85L223.089 230.456L240.537 191.229Z" fill="#000091" stroke="white" stroke-width="5.12" stroke-miterlimit="10"/>
<path d="M231.024 188.279L227.505 170.677L208.871 164.717L193.757 176.359L197.277 193.961L212.391 182.319L231.024 188.279Z" fill="white"/>
<path d="M220.348 184.868L218.844 177.351L210.887 174.803L204.434 179.777L205.938 187.294L213.895 189.836L220.348 184.868Z" fill="#E1000F"/>
<path d="M259.822 218.855V232.08C259.822 233.48 264.023 234.608 269.202 234.608C274.381 234.608 278.582 233.473 278.582 232.08V218.855H259.83H259.822Z" fill="#041A91"/>
<path d="M269.195 222.124C274.301 222.124 278.441 221.007 278.441 219.63C278.441 218.252 274.301 217.136 269.195 217.136C264.088 217.136 259.948 218.252 259.948 219.63C259.948 221.007 264.088 222.124 269.195 222.124Z" fill="#000091"/>
<path d="M283.167 197.549L282.96 183.434L269.091 176.203L255.221 183.434V197.549L268.49 217.136H269.765L283.167 197.549Z" fill="#000091" stroke="white" stroke-width="2.73" stroke-miterlimit="10"/>
<path d="M282.864 197.794L282.96 183.434L269.091 176.203L255.221 183.434V197.903L269.194 190.665L282.864 197.794Z" fill="white"/>
<path d="M273.144 192.724V188.606L269.195 186.546L265.253 188.606V192.724L269.195 194.783L273.144 192.724Z" fill="#E1000F"/>
<path d="M235.751 278.831L249.064 257.634V242.635L234.965 235.186L220.866 242.635V257.634L234.18 278.831H235.751Z" fill="#E1000F" stroke="white" stroke-width="1.72" stroke-miterlimit="10"/>
<path d="M244.368 245.149L234.966 240.215L225.571 245.149V255.119L234.966 260.06L244.368 255.119V252.244H238.981V248.024H244.368V245.149Z" fill="white"/>
<path d="M230.95 248.024V252.244L234.965 254.399L238.981 252.244V248.024L234.965 245.87L230.95 248.024Z" fill="#000091"/>
<path d="M76.6749 16.6029L120.202 35.5573C120.202 35.5573 144.97 49.1359 154.498 51.8204C164.026 54.5048 191.431 61.097 201.685 61.9058C211.939 62.7145 216.043 67.4174 217.658 71.7194C219.274 76.0213 224.104 89.4912 224.104 89.4912C224.104 89.4912 236.707 103.444 236.559 115.269C236.41 127.094 233.284 150.758 224.104 161.693C224.104 161.693 201.633 174.51 209.546 153.714L213.554 142.555L213.258 129.649C213.258 129.649 203.293 142.283 197.869 143.228C192.446 144.173 178.821 141.746 176.035 142.29C176.035 142.29 170.368 141.08 170.368 134.984C170.368 128.888 177.11 127.101 188.927 127.454L189.119 123.873C189.119 123.873 179.347 116.791 170.56 113.386C170.56 113.386 163.329 107.922 178.673 102.091L161.966 95.73C161.966 95.73 126.211 99.6717 120.787 97.1164C115.364 94.5611 104.08 83.0009 104.08 83.0009L48.9805 67.1388L49.7139 37.698L76.6823 16.5961L76.6749 16.6029Z" fill="#D38742"/>
<path d="M46.3428 24.1805L62.1682 47.0358C62.1682 47.0358 56.3078 76.6125 68.6139 70.9649C68.6139 70.9649 66.2727 76.0756 61.2866 76.3407L5.0161 61.5523C5.0161 61.5523 4.14185 27.9388 15.2774 13.1572C26.413 -1.62429 46.3428 24.1805 46.3428 24.1805Z" fill="#ABB8DF"/>
<path d="M32.5694 42.4621L72.4292 29.2913C72.4292 29.2913 76.8226 17.1942 90.0179 22.2981L92.5072 23.7796C92.5072 23.7796 94.8485 19.2058 88.6991 16.2495C82.5423 13.2864 48.543 0.115565 48.543 0.115565C48.543 0.115565 23.3379 -2.44657 13.0766 16.5825C13.0766 16.5825 10.076 20.5311 8.33496 29.3796L32.5694 42.4621Z" fill="#ACF0FA"/>
</g>
<defs>
<clipPath id="clip0_157_1202">
<rect width="386" height="312" fill="white"/>
</clipPath>
</defs>
</svg>
