<svg width="1111" height="497" xmlns="http://www.w3.org/2000/svg"><g fill="none" fill-rule="evenodd"><path d="M288.4 132.806s14.186-21.412 29.681-30.95l22.553 21.683-20.222 24.976a6.313 6.313 0 0 1-8.597 1.15L288.4 132.806z" fill="#000091"/><path d="m765.183 112.479-37.286 4.707 5.793-55.594 47.115 2.122.312 30.953c.093 9.164-6.816 16.887-15.934 17.812M1050.886 414.974l8.026 8.819-15.486 8.642-8.048-12.616 7.977-5.73a5.623 5.623 0 0 1 7.53.885M989.732 245.532l-14.225-16.397 15.083-15.326 17.955 17.285zM949.259 268.274l-14.225-16.397 15.083-15.326 17.955 17.285zM992.778 385.27l-18.712-21.57 19.841-20.162 23.62 22.74zM908.367 319.14s-3.188-20.482-.54-29.712l24.225-4.873c3.541-.712 6.956 1.697 7.458 5.273 1.122 7.986 2.315 21.246-.804 28.025l-30.339 1.287zM932.747 220.394l-14.225-16.397 15.083-15.326 17.955 17.285zM842.607 370.167c-7.145-3.423-18.964-9.694-27.88-17.465-2.504-2.183-3.012-5.836-1.222-8.588l11.512-17.696c1.889-2.904 5.733-3.882 8.847-2.25l24.675 12.921c3.145 1.647 4.458 5.415 2.992 8.587l-9.844 21.301c-1.566 3.388-5.66 4.83-9.08 3.19M486.575 263.901l-17.555-32.103s-30.378 20.129-33.802 26.15c-3.423 6.021 17.555 32.102 17.555 32.102l33.802-26.149zM872.005 200.292s-17.632-25.595-20.06-39.786l29.553-22.344c4.32-3.264 10.501-2.233 13.506 2.272 6.711 10.058 16.95 27.192 17.146 38.38l-40.145 21.478zM14.872 137.72s38.438 47.88 47.733 91.82C35.995 253.756 15.46 268.53 1 273.863c0 0 .154-128.291 0-128.204-3.64 2.061.983-.585 13.872-7.94zM520.001 0s33.348 41.541 41.413 79.662l-72.735 50.963-41.445-89.424L520.001 0zM695.351 177.51c-4.41-4.833-13.244-14.795-20.26-24.503a3.165 3.165 0 0 1 .587-4.342L701.22 128.4c1.858-1.475 4.595-1.078 5.975.865l16.078 22.635a5.168 5.168 0 0 1-.76 6.864l-21.382 19.06c-1.674 1.492-4.258 1.353-5.78-.314M193.577 228.21s-39.256-18.735-58.91-42.47l31.038-42.939 46.658 28.017a10.691 10.691 0 0 1 3.959 14.144l-22.745 43.248zM625.672 34.472l-30.006 67.286s69.305 24.105 83.126 22.243c13.822-1.862 30.007-67.286 30.007-67.286l-83.127-22.243zM399.767 54.046s10.005 31.065 8.161 46.071l-36.47 13.546c-5.33 1.98-11.236-.925-12.898-6.363-3.712-12.14-8.834-32.467-5.654-43.777l46.861-9.477zM811.249 294.593l-19.497-4.912c-5.631-1.174-6.272 3.722-8.473 9.037l-4.347 10.496a3.64 3.64 0 0 0 2.569 4.947l21.673 4.849a3.64 3.64 0 0 0 4.2-2.266l6.538-17.3a3.64 3.64 0 0 0-2.663-4.851M632.328 329.3c-5.357-2.59-14.218-7.338-20.894-13.238-1.875-1.658-2.245-4.444-.891-6.548l8.706-13.536a5.084 5.084 0 0 1 6.654-1.745l18.5 9.78a5.03 5.03 0 0 1 2.221 6.543l-7.462 16.281a5.083 5.083 0 0 1-6.834 2.463M712.8 347.394l14.608 17.947a8.04 8.04 0 0 0 11.42 1.069l21.37-18.034a8.04 8.04 0 0 0 1.42-10.73l-11.514-16.582a8.04 8.04 0 0 0-11.168-2.033 2740.866 2740.866 0 0 1-24.388 16.617c-3.921 2.64-4.732 8.08-1.748 11.746M116.995 327.43l38.108-14.861a19.761 19.761 0 0 0 12.246-22.04l-6.017-32.217c-1.113-5.957-7.329-9.47-13.006-7.352l-47.2 17.615a9.759 9.759 0 0 0-6.12 11.234l8.91 40.62c1.285 5.856 7.495 9.18 13.08 7.002M797.444 201.053s-36.167-5.2-57.868-19.314l14.144-42.201 44.426 10.79a8.982 8.982 0 0 1 6.715 10.352l-7.417 40.373zM544.5 347.649l-14.409-25.882 42.357-12.115 12.306 35.078-22.543 9.332c-6.674 2.763-14.354-.018-17.712-6.413M834.348 82.198l21.17-27.688 32.942 40.024-32.078 29.733-20.646-19.947c-6.112-5.906-6.714-15.497-1.388-22.121M925.739 381.828l-10.37-18.63 30.487-8.72 8.857 25.249-16.226 6.717a10.055 10.055 0 0 1-12.748-4.616M575.962 205.04l22.965 27.508s25.362-25.11 27.507-31.546c2.145-6.435-22.964-27.507-22.964-27.507l-27.508 31.546zM1004.202 165.116l-15.961-13.237a7.204 7.204 0 0 0-10.225 1.046l-15.651 19.567a7.205 7.205 0 0 0 .618 9.679l13.004 12.575a7.205 7.205 0 0 0 10.17-.154 2459.723 2459.723 0 0 1 18.55-18.847c2.988-3.002 2.755-7.925-.505-10.63M250.202 255.116l-15.961-13.237a7.204 7.204 0 0 0-10.225 1.046l-15.651 19.567a7.205 7.205 0 0 0 .618 9.679l13.004 12.575a7.205 7.205 0 0 0 10.17-.154 2459.723 2459.723 0 0 1 18.55-18.847c2.988-3.002 2.755-7.925-.505-10.63M1075.69 282.092s10.383-.36 17.165 2.5l-1.839 12.521-12.976-.789a2.553 2.553 0 0 1-2.399-2.56l.048-11.672zM447.184 137.9l-8.443-12.467a5.232 5.232 0 0 0-7.34-1.345l-14.883 10.468a5.232 5.232 0 0 0-1.532 6.874l6.515 11.405a5.231 5.231 0 0 0 7.122 1.956c3.853-2.184 9.85-5.561 16.757-9.378a5.233 5.233 0 0 0 1.804-7.513M699.406 187.115s1.1 16.519-1.653 23.676l-19.615 2.178a5.013 5.013 0 0 1-5.564-4.718c-.333-6.432-.352-17.065 2.605-22.24l24.227 1.104zM548.897 161.206l6.505-22.854-17.57-.797-3.795 18.395zM470.673 317.63l18.861-.712-5.349 27.557-23.477-3.138 1.208-15.5a8.902 8.902 0 0 1 8.757-8.208M355.225 164.586l-11.43-15.02 25.619-11.474 10.936 21.01-13.373 7.926a8.901 8.901 0 0 1-11.752-2.442M225.297 307.285l21.923 30.279-28.19 24.01-28.188-32.366zM540.423 229.484s1.424 21.393-2.141 30.663l-25.404 2.821c-3.713.413-7.014-2.38-7.207-6.11-.43-8.33-.455-22.101 3.375-28.802l31.377 1.428zM94.072 75.994s1.769 26.566-2.66 38.077l-31.545 3.503c-4.61.512-8.709-2.956-8.947-7.588-.535-10.344-.568-27.444 4.188-35.766l38.964 1.774zM554.114 170.072s1.483 22.274-2.229 31.925l-26.449 2.937c-3.866.429-7.302-2.478-7.503-6.362-.448-8.673-.474-23.01 3.513-29.987l32.668 1.487zM468.338 203.022l13.686-24.617s-25.585-11.507-30.91-11.261c-5.327.245-13.687 24.617-13.687 24.617l30.911 11.26zM940.716 102.834c9.16 5.425 24.243 15.215 35.26 26.669 3.096 3.218 3.345 8.168.624 11.64l-17.498 22.33c-2.871 3.666-8.133 4.522-12.11 1.97l-31.506-20.21c-4.015-2.574-5.328-7.773-2.992-11.846l15.69-27.354c2.496-4.351 8.146-5.796 12.532-3.2M390.719 194.318c6.695 8.773 20.06 26.818 30.41 44.168 1.473 2.468.759 5.632-1.63 7.206l-45.911 30.266c-3.341 2.203-7.88 1.132-9.912-2.338l-23.66-40.41c-2.26-3.858-1.274-8.763 2.292-11.42l38.746-28.855c3.034-2.26 7.355-1.643 9.665 1.383M1037.87 289.596l10.934-19.67s-20.443-9.194-24.699-8.998c-4.255.196-10.935 19.67-10.935 19.67l24.7 8.998zM720.656 240.66l27.94 8.44a14.103 14.103 0 0 0 16.582-6.98l10.81-20.739c1.999-3.834.056-8.544-4.064-9.855l-34.257-10.898a6.964 6.964 0 0 0-8.384 3.612l-12.886 26.73c-1.858 3.852.165 8.453 4.259 9.69M241.656 101.66l27.94 8.44a14.103 14.103 0 0 0 16.582-6.98l10.81-20.739c1.999-3.834.056-8.544-4.064-9.855l-34.257-10.898a6.964 6.964 0 0 0-8.384 3.612l-12.886 26.73c-1.858 3.852.165 8.453 4.259 9.69M1038.31 353.108l25.662 7.751a12.952 12.952 0 0 0 15.23-6.41l9.928-19.048c1.836-3.522.052-7.848-3.732-9.052l-31.464-10.009a6.395 6.395 0 0 0-7.7 3.317l-11.836 24.551c-1.706 3.538.152 7.764 3.912 8.9M152.954 95.928l40.497 12.232c9.4 2.84 19.494-1.409 24.033-10.118l15.669-30.058c2.897-5.557.082-12.384-5.891-14.283L177.61 37.905a10.093 10.093 0 0 0-12.152 5.235L146.78 81.883c-2.693 5.584.239 12.253 6.173 14.045M291.24 206.728l-23.319 5.893a8.356 8.356 0 0 0-6.016 10.292l7.62 28.047a8.355 8.355 0 0 0 9.487 6.043l20.675-3.576a8.357 8.357 0 0 0 6.814-9.631 2875.392 2875.392 0 0 1-4.96-30.27c-.769-4.851-5.539-8.002-10.302-6.798M335.918 339.139l-42.83-30.904-14.972 36.11 35.564 21.864zM800.298 114.549l20.868-5.977 7.53 20.142-23.248 8.983zM873.914 289.893l-19.209 4.147-4.286-16.3 21.675-6.475zM125.466 160.168l1.612-29.867a4.301 4.301 0 0 0-4.478-4.536c-10.414.442-34.788 1.753-39.76 4.468-4.973 2.71-3.439 24.515-2.534 33.935a4.305 4.305 0 0 0 4.734 3.865l36.572-3.813a4.313 4.313 0 0 0 3.854-4.052M692.275 316.044l10.63-3.326a3.873 3.873 0 0 0 2.518-4.914l-4.248-12.772a3.87 3.87 0 0 0-4.543-2.552l-9.467 2.188a3.873 3.873 0 0 0-2.904 4.63c.729 3.194 1.844 8.162 3.076 13.869a3.87 3.87 0 0 0 4.938 2.877M14.265 324.146l17.554 7.998a6.7 6.7 0 0 0 8.925-3.429l9.29-21.386a6.701 6.701 0 0 0-2.914-8.54l-14.733-8.119a6.703 6.703 0 0 0-9.099 2.615 2199.865 2199.865 0 0 1-12.069 21.438c-1.949 3.425-.539 7.786 3.046 9.423M954.878 327.618c1.067 3.564 3.342 10.785 6.032 17.05a1.827 1.827 0 0 0 2.305.992l17.5-6.426a2.353 2.353 0 0 0 1.345-3.155l-6.352-14.467a2.98 2.98 0 0 0-3.593-1.654l-15.68 4.763a2.33 2.33 0 0 0-1.557 2.897M1066.135 393.85l3.566-10.51c1.144-2.963 3.605-1.792 6.729-1.22l6.17 1.129a2.013 2.013 0 0 1 1.524 2.675l-4.25 11.5a2.013 2.013 0 0 1-2.308 1.272l-9.981-2.155a2.012 2.012 0 0 1-1.45-2.69M1078.727 459.988l-15.48-7.905 9.02-12.225 11.742 7.133zM966.844 290.712l3.67-9.508a4.924 4.924 0 0 1 5.484-3.07l8.032 1.472a2.431 2.431 0 0 1 1.842 3.234l-4.348 11.777a2.433 2.433 0 0 1-2.795 1.535l-10.13-2.187a2.431 2.431 0 0 1-1.755-3.253M1005.276 316.211l3.67-9.508a4.924 4.924 0 0 1 5.484-3.07l8.032 1.472a2.431 2.431 0 0 1 1.842 3.234l-4.348 11.777a2.433 2.433 0 0 1-2.795 1.535l-10.13-2.187a2.431 2.431 0 0 1-1.755-3.253M387.103 308.22l15.488 2.413s-3.7 15.165-5.627 17.42c-1.93 2.255-15.49-2.41-15.49-2.41l5.629-17.422zM591.097 137.456l15.49 2.41s-3.702 15.167-5.629 17.423c-1.93 2.254-15.488-2.411-15.488-2.411l5.627-17.422zM660.207 352.539s5.479 4.525 8.663 5.359l5.677-6.287a2.152 2.152 0 0 0-.25-3.122c-2.156-1.728-5.857-4.4-8.401-4.667l-5.69 8.717zM81.982 233.399s10.844 8.957 17.146 10.608l11.237-12.444a4.261 4.261 0 0 0-.493-6.181c-4.269-3.42-11.594-8.708-16.629-9.236l-11.261 17.253zM1095.273 427.895c-.651-2.74-2.26-9.126-4.288-14.641a1.407 1.407 0 0 0-1.736-.861l-15.067 4.626a1.408 1.408 0 0 0-.905 1.843l5.03 13.364c.25.668.961 1.041 1.653.871l14.278-3.51a1.406 1.406 0 0 0 1.034-1.692M1108.135 468.365l-6.213 3.769a1.046 1.046 0 0 1-1.485-.44c-1.098-2.283-3.611-7.653-3.6-9.03.01-1.375 4.857-3.546 6.98-4.431a1.045 1.045 0 0 1 1.37.57l3.374 8.272a1.047 1.047 0 0 1-.426 1.29M1093.18 485.698l-3.492 2.118a.586.586 0 0 1-.834-.247c-.618-1.283-2.03-4.3-2.024-5.075.006-.773 2.73-1.993 3.923-2.49a.588.588 0 0 1 .77.32l1.896 4.65a.587.587 0 0 1-.239.724M1053.495 306.07l-3.492 2.117a.586.586 0 0 1-.834-.247c-.618-1.283-2.03-4.3-2.024-5.075.006-.773 2.73-1.993 3.923-2.49a.588.588 0 0 1 .77.32l1.896 4.65a.587.587 0 0 1-.239.724M913.485 264.921c.372-3.002.792-8.096.116-12.573a2.582 2.582 0 0 0-2.55-2.188l-8.182-.02a2.585 2.585 0 0 0-2.58 2.36l-.932 10.597a2.555 2.555 0 0 0 2.18 2.753l9.011 1.308a2.585 2.585 0 0 0 2.937-2.237M657.478 235.929c.372-3.002.792-8.096.116-12.573a2.582 2.582 0 0 0-2.55-2.188l-8.182-.021a2.585 2.585 0 0 0-2.581 2.36l-.931 10.598a2.555 2.555 0 0 0 2.18 2.753l9.01 1.308a2.585 2.585 0 0 0 2.938-2.237M1042.057 381.116l4.46 13.755c.87 2.67-.625 5.531-3.31 6.356l-16.713 5.094a5.026 5.026 0 0 1-6.11-2.895l-4.794-11.664a5.02 5.02 0 0 1 2.719-6.551 1746.103 1746.103 0 0 0 16.993-7.162 5.024 5.024 0 0 1 6.755 3.067M1026.005 226.124l1.442 4.445a1.624 1.624 0 0 1-1.072 2.053l-5.4 1.646a1.622 1.622 0 0 1-1.973-.936l-1.551-3.768a1.625 1.625 0 0 1 .88-2.118 604.396 604.396 0 0 0 5.49-2.313 1.624 1.624 0 0 1 2.184.991M831.576 185.296l-10.342-3.733a2.368 2.368 0 0 1-1.257-3.395l4.93-8.695a2.37 2.37 0 0 1 3.025-.994l7.95 3.555a2.366 2.366 0 0 1 1.312 2.812l-2.538 8.873a2.367 2.367 0 0 1-3.08 1.577M733.448 271.664s2.74 7.868 7.38 12.099l14.081-5.416-8.759-12.913-12.702 6.23zM821.913 257.62c-2.42-2.614-7.42-7.863-12.374-12.114a1.747 1.747 0 0 0-2.4.117L794.8 258.528a2.255 2.255 0 0 0 .174 3.28l11.562 9.76a2.855 2.855 0 0 0 3.787-.094l11.474-10.707a2.23 2.23 0 0 0 .116-3.147M890.568 234.642c2.528-2.51 7.598-7.69 11.674-12.789a1.746 1.746 0 0 0-.2-2.395l-13.328-11.88a2.253 2.253 0 0 0-3.27.287l-9.352 11.896a2.853 2.853 0 0 0 .226 3.782l11.101 11.092a2.23 2.23 0 0 0 3.15.007M276.568 185.642c2.528-2.51 7.598-7.69 11.674-12.789a1.746 1.746 0 0 0-.2-2.395l-13.328-11.88a2.253 2.253 0 0 0-3.27.287l-9.352 11.896a2.853 2.853 0 0 0 .226 3.782l11.101 11.092a2.23 2.23 0 0 0 3.15.007M1110.899 495.7s-.426-4.424-2.296-7.205l-7.986 1.028 2.908 7.802 7.374-1.624zM900.804 335.745l15.19 2.364s-3.627 14.875-5.518 17.087c-1.893 2.21-15.19-2.365-15.19-2.365l5.518-17.086zM603.196 252.982l15.19 2.363s-3.627 14.876-5.519 17.088c-1.892 2.21-15.19-2.365-15.19-2.365l5.519-17.086zM698.942 265.758l-16.88 13.218a3.609 3.609 0 0 1-4.856-.376c-3.499-3.703-10.219-10.942-14.339-16.179-.786-1-.689-2.433.223-3.309 3.85-3.699 13.958-13.074 21.225-16.744a2.448 2.448 0 0 1 3.114.802l12.245 17.616c1.11 1.597.788 3.782-.732 4.972M865.753 232.616l-27.36-13.535s-10.688 16.707-14.645 25.318c0 0 20.19 13.229 30.497 14.865l11.508-26.648z" fill="#000091"/></g></svg>
