<svg xmlns="http://www.w3.org/2000/svg" viewBox="0 0 452.91 254.76" style="enable-background:new 0 0 452.91 254.76" xml:space="preserve"><style>.st0{fill:#fff}.st3{fill:#abcdf5}.st6{fill:#d38742}.st10,.st7{fill-rule:evenodd;clip-rule:evenodd;fill:#000090}.st10{fill:#01015b}.st12{fill:#0067e2}.st15{fill:#000090}.st22{fill:none;stroke:#000090;stroke-width:4;stroke-linecap:round;stroke-miterlimit:10}</style><g id="Calque_1"><path class="st0" d="M0 0h452.91v254.76H0z"/><path class="st10" d="M364.94 196.05c0-17.46-36.73-14.02-53.29-8.63-3.57 1.16-8.77 2.29-11.21 5.62-2.18 2.98-8.46 30.17-3.8 36.1 27.94 6.83 66.23 5.02 66.61-.63s1.5-21.52 1.44-28.42c.16-1.29.25-2.63.25-4.04zM160.65 194.99c-6.08-16.88-37.75-14.4-54.77-8.87-3.67 1.19-6.59 3.93-9.1 7.35-2.24 3.07-15.99 34.98-7.12 37.15 28.72 7.02 68.86 3.53 69.25-2.27.38-5.81 3.48-28.53 1.74-33.36z"/><path d="M350.01 106.1c1.15 16.28 4.35 32.96 13.51 46.47 1.97 2.91 4.84 5.93 8.34 5.57 2.05-.22 3.82-1.62 4.93-3.36 1.1-1.74 1.62-3.77 2-5.8 2.97-15.91-1.89-32.12-6.73-47.57-1.99-6.36-4.64-17.62-11.12-21.05-6.75-3.57-10.14 7.46-10.76 11.96-.62 4.57-.49 9.21-.17 13.78z" style="fill:#f4a086"/><path d="M349.23 82.97c.31-2.69 1.03-5.87 3.53-7.04 2.64-1.24 5.47.57 7.52 2.41 12.44 11.16 17.15 26.9 19.4 43.81l-29.82 1.84a158.089 158.089 0 0 1-.63-41.02z" style="fill-rule:evenodd;clip-rule:evenodd;fill:#66bcd5"/><path d="M390.73 150.09c.84 1.88-.03 4.17-1.54 5.56-1.51 1.4-11.99 6.33-22.29 1.78-5.18-2.29-5.97-7.28-4.15-12.02 2.53-6.58 26.98 2.46 27.98 4.68z" style="fill:#f7b690"/><path class="st7" d="M294.38 142.17c-4.83-15.51-10.77-34.66-8.09-50.87 6.56-8.01 19.99-26.62 46.6-26.62 18.67 0 32.65 18.85 35.89 23.64 3.61 5.34 2.3 12.95 1.4 19.12-1.92 13.16-7.61 64.87-2.67 100.76h-75.39c.15-17.12 7.13-50.4 2.26-66.03z"/><path class="st6" d="M277.04 123.32c3.73-14.24 11.71-27.35 22.64-37.21 1.97-1.78 4.64-3.55 7.07-2.52 1.33.57 2.22 1.89 2.61 3.28.39 1.39-2.34 5.21-2.4 6.65-.67 16.85-1.04 31.16-4.09 47.74-.94 5.1-1.9 10.26-4.1 14.95-2.2 4.69-5.82 8.94-10.67 10.77-2.54.96-6.68 1.53-9.02-.3-1.88-1.47-2.19-5.21-2.67-7.34a77.02 77.02 0 0 1-1.59-23.06c.37-4.37 1.1-8.72 2.22-12.96z"/><path class="st7" d="M310.13 82.97c-.14-2.69 9.54-.9 7.12-2.08-2.56-1.24 5.15-14.78 2.32-14.52-32.34 3.02-45.78 35.58-45.78 55.77l33.12 1.84c2.84-13.45 3.93-27.28 3.22-41.01z"/><path class="st6" d="M340.37 46.02c-1.82-8.05-7.91-9.93-11.45-8-2.27 15.06-4.58 21.76-10.48 29.97 7.34 4.71 19.87 3.83 22.58 0 .1-1.21.29-17.81-.65-21.97z"/><path class="st6" d="M339.97 27.12c7.29-5.04 17.77-.67 19.29 8.65 1.39 8.53-7.19 23.17-11.26 25.55-7.12 4.15-16.68-5.82-17.02-10.6-.49-7 2.87-19.36 8.99-23.6z"/><path class="st10" d="M334.79 28.92c-.57-.38-1.33-.34-1.96-.07s-1.14.74-1.64 1.21c-1.7 1.57-2.52-.81-3.87 1.08s-3.21 8.1-3.22 10.42c0 1.5.39 3.07-.13 4.48-.46 1.27-1.64 2.43-1.29 3.73.26.97 1.36 1.54 2.36 1.43 1-.11 1.86-.76 2.49-1.53.63-.78 1.07-1.69 1.58-2.55 1.69-2.86 4.16-5.19 5.93-8.01 1.76-2.82 2.74-6.52 1.15-9.44l-1.4-.75z"/><path class="st10" d="M368.6 32.68c-1.57-.64-3.15-1.27-4.72-1.91.72.9 1.47 1.83 1.75 2.94.28 1.12-.03 2.47-1.02 3.05-.77.45-1.77.33-2.57-.08-.8-.41-1.43-1.07-2.05-1.72.32.6.66 1.23.66 1.91s-.44 1.42-1.12 1.49c-.54.06-1.03-.29-1.45-.63-2.14-1.68-4.27-3.37-6.41-5.05.13.67.25 1.36.14 2.03-.11.67-.5 1.34-1.13 1.59-1.11.44-2.26-.55-2.94-1.54s-1.38-2.17-2.57-2.35c-1.33-.2-2.42.99-3.23 2.06-.15.19-.29.38-.44.58-1.5 1.97-3 3.94-4.49 5.91-.46.6-.93 1.22-1.55 1.65-.63.43-1.45.64-2.15.37-1.21-.46-14.25-19.71 2.44-25.59 2.42-.85 5.83.09 8.27.86 2.44.77 4.76 1.99 7.28 2.44 2 .36 4.05.22 6.07.42 5.66.57 11.08 5.76 11.23 11.57z"/><path class="st6" d="M327.05 36.76c-.75 1.89-.74 4.07.05 5.94 2.25 5.36 7.5.55 7.75-3.33.31-4.62-5.74-7.74-7.8-2.61z"/><path class="st12" d="M331.02 172.16h45.23c2.68 0 5.45-2.17 6.2-4.85l19.9-71.07c.75-2.68-.81-4.85-3.49-4.85h-45.23c-2.68 0-5.45 2.17-6.2 4.85l-19.9 71.07c-.75 2.68.82 4.85 3.49 4.85z"/><path class="st3" d="m327.53 167.32 19.9-71.07c.75-2.68 3.53-4.85 6.2-4.85h4.82c-2.68 0-5.45 2.17-6.2 4.85l-19.9 71.07c-.75 2.68.81 4.85 3.49 4.85h-4.82c-2.67-.01-4.24-2.18-3.49-4.85z"/><path class="st6" d="M334 151.07c2.21 1.44 2.58 4.72 1.44 7.1-1.14 2.38-39.6 11.71-48.87 11.55-2.82-.05-6.06-.32-7.72-2.6-1.48-2.04-1.06-4.87-.27-7.26 1.33-4.02 3.67-8.54 6.95-11.32 2.26-1.91 47.05 1.61 48.47 2.53z"/><path class="st6" d="M347.87 144.27c.93-1.29 1.86-3.06.92-4.34-.63-.85-1.87-1.02-2.87-.7-1 .32-1.83 1.02-2.65 1.69-1.1.9-2.31 1.79-3.72 1.99-1.41.2-3.05-.53-3.38-1.92-.36-1.51.82-3.42-.3-4.5-.58-.57-1.57-.53-2.28-.14s-1.22 1.07-1.71 1.73c-2.58 3.49-5.22 7.09-6.26 11.31-1.04 4.21-.07 9.23 3.45 11.76 3.15 2.27 7.79 1.93 10.82-.49 2.59-2.07 3.58-5.02 3.92-8.19.38-3.49 1.95-5.26 4.06-8.2zM393.15 140.66c-.17-.49-.44-8.25-.84-8.57-.73-.59-3.46 8.54-2.89 9.3-1.97-.21-2.56-.27-4.54-.48-1.44-.15-3.31-.04-3.75 1.34-.35 1.1.53 2.16 1.14 3.13 1.09 1.74-.51 11.88.34 12.74 3.14 3.19 10.01-2.34 11.16-5.45 1.59-4.31.8-7.86-.62-12.01z"/><path class="st3" d="M368.94 123.46c.51.95 1.04 1.62 2.3 1.95 1.77.46 3.48-.87 3.48-1.95s-1.11-1.56-2.35-1.95c-2.34-.73-4.38.2-3.43 1.95z"/><path class="st22" d="m421.53 71.85-12.82 12.4M401.05 62.98l-3.78 16.43M426.11 98.32l-12.51.97"/><path class="st6" d="M149.8 121.96c1.25 17.71 4.73 35.84 14.69 50.54 2.15 3.17 7.59 7.61 11.41 7.36 7.36-.48 4.79-9.06 5.2-11.26 3.23-17.3-2.05-34.93-7.31-51.73-2.17-6.92-5.05-19.16-12.09-22.89-7.34-3.89-11.03 8.12-11.7 13.01-.7 4.96-.56 10-.2 14.97z"/><path class="st15" d="M148.95 96.81c.34-2.93-7.42-17.85-4.64-16.73 32.6 13.14 35.31 40.95 37.76 59.32l-32.43 2a171.396 171.396 0 0 1-.69-44.59z"/><path class="st6" d="M203.5 121.91c1.98-1.76 4.43-3.65 6.99-3 2.17.54 5.31 1.88 5.49 4.11.18 2.23-25.07 49.81-35.89 55.53-5.44 2.88-7.72-.16-10.54-4.9-3.92-6.59 26.76-45.32 33.95-51.74z"/><path d="M65.84 146.5c-.03.11-.04.23-.04.34.01-.11.03-.22.04-.34z" style="fill-rule:evenodd;clip-rule:evenodd;fill:#18898d"/><path class="st6" d="M210.16 105.28c2.36-2.57 8.34-7.17 10.91-4.81 2.13 1.96 3.19 8.48.82 13.68-1.06 2.31-3.54 8.38-7.67 9.82-1.15.4-1.73-.66-3.28-.92-4.38-.72-5.35-3.55-5.42-7.45-.09-4.38 1.69-7.1 4.64-10.32z"/><path class="st6" d="M206.29 113.45c1.96-3.75 4.62-8.41 5.85-10.72.33-.61.79-1.14 1.02-1.8.23-.65.13-1.5-.47-1.85-.76-.45-1.69.2-2.33.8-3.15 2.93-6.47 6.18-7.22 10.41-.26 1.48 2.64 7.77 3.03 9.45 0 .01.36-5.87.12-6.29z"/><path class="st12" d="M205.27 50.86c11.61 4.63 25.49 8.7 37.21 13.58.6.23.89.9.66 1.49-7.6 15.62-11.93 35.57-18.85 52.08-.19.54-.75.85-1.31.73l-39.51-15.08c-.53-.19-.84-.75-.73-1.31 3.4-15.37 15.01-42.01 18.71-50.07a3.071 3.071 0 0 1 3.65-1.48l.17.06z"/><path class="st0" d="m202 95.57 5.8 2.21 5.87 2.02 2.9 1.11c.89.41 1.87.63 2.86.64 1.37-.13 1.31-1.71.68-2.39-.88-.56-1.87-.93-2.9-1.11l-2.9-1.11-5.94-1.83-5.55-1.67-2.97-.92c-.87-.36-1.74-.74-2.67-.65-.78-.3-1.29 1.13-.51 1.43-.01.01 3.47 1.88 5.33 2.27zm.35-12.5 13.72 5.24c1.78.97 3.74 1.57 5.75 1.76 1.19-.22 1.31-1.71.62-2.2-.84-.65-1.8-1.09-2.83-1.3l-2.9-1.11-5.49-1.88-5.56-1.69c-1.78-.82-3.68-1.31-5.63-1.48-.92.09-.91.89-.47 1.5 0 .01 1.86.83 2.79 1.16zm3.19-13.6c1.48.9 3.09 1.58 4.76 2.03l15.65 5.97c1.31-.02 1.92-1.62.96-2.5l-10.51-3.79-5.21-1.99c-1.62-.65-3.32-1.07-5.05-1.27-1.03-.4-1.62 1.16-.6 1.55z"/><path d="M193.76 51.82c-4.1 4.39-8.59 8.39-13.42 11.96-1.06.62-.1.79.34.75l11.7-.47a.37.37 0 0 1 .54.21v9.67c.04 2.07-.06 2.86 1.04 2.66 1.1-.19 10.24-13.07 14.19-18.56a.384.384 0 0 0-.41-.56c-4.25-.19-9.86-1.39-13.33-4.15l-.65-1.51z" style="fill:#ff2d2d"/><path class="st15" d="M161.81 165.94c2.89-14.25 7.82-28.17 9.91-42.53.98-6.71 2.4-14.98-1.52-20.79-3.52-5.21-18.72-25.71-39.02-25.71-28.94 0-43.84 9.91-50.98 18.63-2.91 17.63 3.84 48.78 9.1 65.64 3.75 12.02 3.29 25.01 6.07 32.94 2.98 3.43 62.27 4.99 65.01 1.37 2.73-3.61-.72-18.96 1.43-29.55z"/><path class="st6" d="M80.71 167.34c-2.52-3.94-4.98-6.48-9.12-8.5-2.46-1.2-5.46-2.06-7.87-.76-2.7 1.46.33 12.64-.13 15.67-.64 4.23 1.62 8.88 5.27 14.52 3.5 5.4 9.76 11.66 11.55 7.25 1.99-4.9-5.75-18.27-5.24-21.89.4-2.92 7.27-3.57 5.54-6.29z"/><path class="st6" d="M68.69 129.32c4.06-15.49 7.83-18.37 19.72-29.1 2.14-1.93 5.04-3.87 7.69-2.74 1.45.62 2.41 2.05 2.84 3.57.43 1.51 6.56 6.72 6.49 8.29-.73 18.32-17.26 48.08-23.33 62.31-2.21 5.18-1 14.52-6.27 16.51-2.76 1.05-14.44-9.56-16.23-20.23-1.63-9.69 7.87-33.99 9.09-38.61z"/><path class="st15" d="M110.45 100.22c.48-2.89.66-6.39-1.65-8.2-2.43-1.91-26.55 1.21-28.6 3.52-6.21 7-12.89 24.2-15.91 34.06l35.01 11.8c7.67-17.43 8.72-26.43 11.15-41.18z"/><path class="st6" d="M90.35 227.69c-1.02 2.33-12.42-2.71-13.99-4.72-3.69-4.71-14.96-32.86-16.77-55.04-.22-2.71 1.15 4.86 3.06 2.92 1.71-1.73 4.48-1.77 6.88-1.38 4.03.65 11.69-.28 12.56 2.18 3.22 9.01 8.91 54.55 8.26 56.04z"/><path class="st6" d="M75.63 229.84c-.05-3.24.25-5.81.73-6.87 2.27-4.92 13.59-.18 14.04 3.07.17 1.21.13 4.19.05 5.23-.18 2.41-13.12.43-14.82-1.43z"/><path class="st10" d="M152.85 45.34c-.67 1.76-1.95 1.54-2.21-.3-.84-5.9-.8-6.86-4.39-11.65-1.97-2.64-2.49-2.8-1.32-4.02 3.84-4.04 13.45 1.42 7.92 15.97z"/><path class="st6" d="M139.31 56.63c-1.98-8.75-8.6-10.8-12.45-8.7-2.47 16.38-4.98 23.66-11.4 32.59 3.61 4.73 21.04 9.55 24.55 0 .12-1.32.33-19.37-.7-23.89z"/><path class="st6" d="M125.39 34.98c4.66-8.43 16.99-9.25 22.97-.91 5.48 7.64 4.21 26.05 1.4 30.33-4.92 7.49-19.06 2.41-21.7-2.08-3.87-6.59-6.58-20.25-2.67-27.34z"/><path class="st10" d="M128.95 36.83c.61 1.28.33 19.1.07 19.57-2.1 3.7-.22 4.18-4.39 3.61-10.64-1.44-13.58-17.2-8.86-21.8 4.32-4.19 12.1-3.66 13.18-1.38z"/><path class="st10" d="M112.81 31.06c9.58-9.62 27.01-15.7 32.74-13.57 8.54 3.18 5.48 18.23 1.13 18.23-1.39 0-2.87-.3-4.13-.87-6-2.7-8.86 1.13-12.75 2.59-6.89 2.57-25.16 1.81-16.99-6.38z"/><path class="st6" d="M121.64 52c.18 2.2 1.25 4.32 2.92 5.76 4.78 4.13 7.57-3.09 5.94-6.99-1.94-4.65-9.35-4.75-8.86 1.23z"/><path class="st15" d="M194.3 41.73c-2.5 3.1-2.53 9.44.16 12.38 7.08 7.73 17.67 3.49 19.93 1.51 2.67-2.69 6.58-11.84-1.7-16.59-9.38-5.37-15.45-.94-18.39 2.7z"/><path class="st0" d="M198.88 45.97c-.09-.7 1.01-1.06 1.42-.49.6.69 1.15 1.46 1.6 2.25l.73 1.31 3.5-2.16 2.3-1.18c.77-.48 1.61-.84 2.48-1.11.64-.15 1.29.18 1.55.8.31.68 0 1.5-.69 1.8l.24-.11c-3.15 1.46-7.88 4.06-9.45 4.54-1.24-.74-3.54-4.51-3.68-5.65z"/></g></svg>
