<svg xmlns="http://www.w3.org/2000/svg" xmlns:xlink="http://www.w3.org/1999/xlink" xml:space="preserve" viewBox="0 0 255 255"><style>.st0{fill:#01015b}.st2{fill:#abcdf5}.st5{fill:#d38742}.st9{fill-rule:evenodd;clip-rule:evenodd;fill:#01015b}.st11{fill:#0067e2}.st12{fill:#ff2d2d}.st14{fill:#000090}.st19{fill:none;stroke:#000090;stroke-width:2.3368;stroke-linecap:round;stroke-miterlimit:10}</style><g id="Calque_1"><defs><path id="SVGID_3_" d="M193.38 128.92c18.69 0 33.88-15.19 33.88-33.76-.06-18.67-15.22-33.77-33.88-33.77a33.89 33.89 0 0 0-31.67 16.02 33.9 33.9 0 0 0 0 35.5 33.89 33.89 0 0 0 31.67 16.01"/></defs><use xlink:href="#SVGID_3_" style="overflow:visible;fill:#abcdf5"/><clipPath id="SVGID_2_"><use xlink:href="#SVGID_3_" style="overflow:visible"/></clipPath><g style="clip-path:url(#SVGID_2_)"><path d="M173.31 297.48c-1.76 3.33-4.12 7.07-7.35 7.89-2.24.57-8.27-3.88-9.45-5.62s6.15-82.54 9.14-87.35c4.02-6.45 33.1 3.94 31.59 15.37-1.92 14.61-6.77 30.03-12.35 44.36-3.35 8.6-7.22 17.08-11.58 25.35" class="st9"/><path d="M213.69 234.21c-2.78 2-6.35 2.17-9.68 2.03-27.44-1.17-42.93-10.77-38.6-23.22 4.45-12.78 28.92-9.64 41.56-4.92 2.73 1.02 6.72 2.06 8.5 4.72 2.58 3.86 4.97 16.52-1.78 21.39" class="st9"/><path d="M179.95 143.84c-1.43 12.57-4.46 25.39-12 35.55-1.63 2.19-3.95 4.44-6.64 4.04-1.58-.23-2.91-1.38-3.71-2.76s-1.13-2.98-1.36-4.56c-1.77-12.42 2.53-24.82 6.78-36.62 1.75-4.86 4.18-13.5 9.31-15.94 5.34-2.54 7.61 6.12 7.94 9.62.34 3.55.09 7.14-.32 10.67" class="st5"/><path d="M181.32 125.95c-.15-2.1-.6-4.58-2.5-5.57-2-1.05-4.25.26-5.91 1.62-10 8.23-14.17 20.27-16.48 33.29l23.04 2.41c1.99-10.36 2.62-21.06 1.85-31.75" class="st14"/><path d="M208.59 298.98c-1.07 3.36-2.66 7.14-5.7 7.96-2.11.57-8.99-3.91-10.5-5.66s-11.33-70.22-9.33-75.07c2.68-6.51 8.89-10.54 15.12-11.26 9.06-1.05 19.29 2.19 20.1 13.72 1.03 14.74-.66 30.29-3.31 44.75-1.59 8.67-3.72 17.23-6.38 25.56" class="st9"/><path d="M140.33 143.29c-1.49-1.16-3.31-2.4-5.11-1.83-1.52.48-2.39 2.17-2.42 3.76s17.8 33.67 25.75 37.26c4 1.81 7.29-.32 9.09-3.81 2.5-4.86-21.9-31.14-27.31-35.38" class="st5"/><path d="M166 129.45c-2.97 4.02-2.21 9.95-1.72 14.76 1.05 10.29 4.14 20.35 5.77 30.59s1.69 21.03-3.03 30.42c-.74 1.47-1.6 2.93-1.81 4.54s.42 3.43 2.01 4.23c.94.47 2.05.52 3.12.56 14.41.52 28.83 1.05 43.24 1.57.96.03 1.98.05 2.79-.4 1.78-1.01 1.28-3.38.73-5.2-3.64-12.18.46-24.96 4.75-36.9 4.26-11.85 9.49-26.49 7.95-39.14-4.82-6.43-14.6-21.28-35.22-22.16-14.46-.62-25.91 13.52-28.58 17.13" class="st14"/><path d="M235.91 159.59c-2.42-11.16-8.16-21.57-16.3-29.57-1.47-1.44-3.47-2.91-5.4-2.18-1.05.39-1.78 1.39-2.13 2.46s-.37 2.21-.37 3.33c-.04 13.07 1.78 26.07 3.6 39.02.56 3.98 1.13 8.01 2.68 11.71 1.55 3.71 4.21 7.11 7.91 8.7 1.93.83 5.13 1.4 7 .07 1.51-1.08 1.87-3.96 2.31-5.59a59.5 59.5 0 0 0 1.99-17.81 59.5 59.5 0 0 0-1.29-10.14" class="st5"/><path d="M239.01 163.88c.02.08.02.16.02.25 0-.09-.01-.17-.02-.25" style="fill-rule:evenodd;clip-rule:evenodd;fill:#18898d"/><path d="M211.61 127.24c.2-2.08.71-4.52 2.62-5.35 2.02-.88 5.63 1.09 7.25 2.59 9.81 9.08 14.97 21.11 16.98 34.31l-25.72.33a123.3 123.3 0 0 1-1.13-31.88" class="st14"/><path d="M201.6 152.48c-2.03-.28-3.91 1.46-4.45 3.43s21.65 34.59 27.16 39.21c1.68 1.4 3.71 2.89 5.84 2.4 1.9-.44 3.1-2.32 3.84-4.12 1.26-3.03 2.19-6.87 1.68-10.16-.35-2.27-2.37-3.06-3.96-4.42-5.86-5.01-28.81-26.16-30.11-26.34" class="st5"/><path d="M196.18 129.84c-.58-.58-1.42-1.17-2.14-.79-.46.24-.67.81-.65 1.34.02.52.21 1.02.35 1.52.72 2.6.08 5.34-.2 8.02-.63 6 .62 12.18 3.52 17.47 2.48 4.52 7.39-2.34 7.33-5.44-.1-5.05-.97-10.54-3.2-15.11-1.28-2.59-2.97-4.98-5.01-7.01" class="st5"/><path d="M177.32 91.13c.64 1.18 1.52.91 1.54-.42.04-4.25-.08-4.92 2-8.65 1.15-2.05 1.49-2.21.56-2.96-3.1-2.5-9.38 2.27-4.1 12.03" class="st9"/><path d="M189.41 97.62c1.68-6.17 6.46-7.43 9.14-5.82 1.26 11.74 2.83 17 7.13 23.56-5.84 3.4-15.52 2.31-17.49-.75-.05-.93.35-13.8 1.22-16.99" class="st5"/><path d="M195.75 81.22c-4.08-5.52-12.88-4.94-16.32 1.52-3.15 5.91-.52 18.8 1.87 21.57 4.18 4.83 13.7-.09 15.14-3.52 2.11-5.02 2.74-14.93-.69-19.57" class="st5"/><path d="M193.4 82.87c-.31.96 1.43 13.97 1.8 13.84 1.29-.47 3.06-4.03 5.44-3.79.76.08 1.8.62 1.89-.91.6-9.69.96-9.18-.73-10.15-3.72-2.12-7.84-.71-8.4 1.01" class="st9"/><path d="M204.27 77.26c-7.68-5.9-20.57-8.55-24.42-6.51-5.73 3.05-2.02 12.62.06 13.22.95.28 1.86-.44 2.7-.96 3.98-2.47 7.36-.31 10.25.35 5.12 1.18 17.95-1.07 11.41-6.1" class="st9"/><path d="M202.81 91.52a6.2 6.2 0 0 1-1.52 4.35c-2.99 3.37-5.64-1.47-4.86-4.38.94-3.47 6.16-4.24 6.38.03m-66.03 40.19c-1.79-1.72-4.35-2.88-6.77-2.32-2.26.52-4.02 2.52-4.59 4.77s-.06 4.68 1.07 6.71 5.57 6.14 10.6 5c3.08-.7 3.65-2.77 3.53-5.54-.15-3.14-1.6-6.46-3.84-8.62" class="st5"/><path d="m134.74 137.45 7.88 1.05c-.14 2.11-.73 4.35-1.15 6.05-.53 2.12-8.47 2.4-8.67.68-.18-1.51 1.11-5.44 1.94-7.78" class="st5"/><path d="m138.75 141.8-9.58-.41c-.57-.02-1.14-.51-1.27-1.08l-4.98-20.58c-.13-.57.22-1.02.78-.99l9.58.41c.57.02 1.14.51 1.27 1.08l4.98 20.58c.14.57-.21 1.02-.78.99" class="st0"/><path d="m139.69 141.84-9.58-.41c-.57-.02-1.14-.51-1.27-1.08l-4.98-20.58c-.13-.57.22-1.02.78-.99l9.58.41c.57.02 1.14.51 1.27 1.08l4.98 20.58c.13.57-.22 1.02-.78.99" class="st0"/><path d="m138.94 140.7-8.63-.37c-.51-.02-1.02-.46-1.14-.98l-4.49-18.55c-.12-.52.19-.92.71-.9l8.63.37c.51.02 1.02.46 1.14.98l4.49 18.55c.12.53-.19.93-.71.9" style="fill-rule:evenodd;clip-rule:evenodd;fill:#0067e2"/><path d="M140.49 138.62c-1.81-2.41-4.29-6.35-5.42-7.83-.3-.39-.69-.71-.92-1.15-.24-.43-.26-1.04.12-1.35.49-.4 1.21-.06 1.73.29 2.55 1.7 5.27 3.6 6.28 6.5.35 1.01.43 2.19.35 3.42-.01 0-2.26.45-2.14.12m-9.16 1.62c.19.51.42 1.02.47 1.56s-.13 1.14-.6 1.43c-.61.38-1.4.08-2.02-.27-3-1.68-5.3-4.56-6.28-7.86-.47-1.56-.53-3.52.74-4.54 1.16-.93 2.96-.59 4.1.37 3.11 2.6 2.32 5.93 3.59 9.31" class="st5"/></g><path d="M75.57 147.02c3.51-4.32 30.26-37.62 37.27-46.15 6.89-8.65 11.92.12 6.43 7.95s-31.55 44.75-31.55 44.75 1.75-.23 10.17-10.87c4.91-6.19 13.44 2.57 10.28 7.13-7.83 11.33-7.48 13.2-7.48 13.2s5.37-7.13 10.05-13.09c4.79-5.96 11.45 3.15 9 5.73-8.3 10.75-10.4 15.31-10.4 15.31s5.02-5.73 9.81-11.57c4.67-5.84 11.33 4.67 5.02 12.5s-19.16 23.72-29.09 36.1c-10.05 12.39-33.54 25.75-33.54 25.75l-26.51-13.11s4.08-34.71 7.12-45.23c3.04-10.63 11.03-35.82 12.55-44.7s11.06-4.96 9.89 2.17c-1.17 7.24-2.63 26.11-2.98 28.68-.35 2.56 10.45-10.23 13.96-14.55" class="st11"/><path d="M73.89 210.88V88.43c0-6.43 4.83-11.57 10.86-11.57h56.15c6.03 0 10.86 5.14 10.86 11.57V211c0 8.53-6.47 15.54-14.59 15.54H88.48c-8.01-.12-14.59-7.01-14.59-15.66" class="st14"/><path d="M138.4 218.41H88.63c-2.92 0-5.32-2.89-5.32-6.4V90.22c0-3.52 2.4-6.4 5.32-6.4h49.67c2.92 0 5.32 2.89 5.32 6.4V212c.1 3.52-2.3 6.41-5.22 6.41" class="st2"/><path d="M129.62 147.23H90.84c-.75 0-1.39-.7-1.39-1.52v-1.52c0-.82.64-1.52 1.39-1.52h38.78c.75 0 1.39.7 1.39 1.52v1.52c.1.82-.54 1.52-1.39 1.52m0 9.32H90.84c-.75 0-1.39-.7-1.39-1.52v-1.52c0-.82.64-1.52 1.39-1.52h38.78c.75 0 1.39.7 1.39 1.52v1.52c.1.82-.54 1.52-1.39 1.52m0 9.32H90.84c-.75 0-1.39-.7-1.39-1.52v-1.52c0-.82.64-1.52 1.39-1.52h38.78c.75 0 1.39.7 1.39 1.52v1.52c.1.82-.54 1.52-1.39 1.52m-28.85-56.2c-2.8 0-5.49-1.05-7.48-3.15-1.99-1.99-3.15-4.67-3.15-7.48 0-2.8 1.05-5.49 3.15-7.48 1.99-1.99 4.67-3.15 7.48-3.15 2.8 0 5.49 1.05 7.48 3.15 1.99 1.99 3.15 4.67 3.15 7.48 0 2.8-1.05 5.49-3.15 7.48-1.98 2.1-4.55 3.15-7.48 3.15" class="st14"/><path d="M100.77 107.1c-4.44 0-7.95-3.62-7.95-7.95 0-4.32 3.62-7.95 7.95-7.95s7.95 3.62 7.95 7.95-3.51 7.95-7.95 7.95" class="st2"/><path d="M102.53 103.36h-2.34v-4.79h-1.05v-1.29h2.34v4.79h1.05zm-2.34-8.53h1.29v1.29h-1.29zm36.14 24.42H90.84c-.75 0-1.39-.7-1.39-1.52v-1.52c0-.82.64-1.52 1.39-1.52h45.49c.75 0 1.39.7 1.39 1.52v1.52c0 .82-.64 1.52-1.39 1.52m-17.26 9.33H90.84c-.75 0-1.39-.7-1.39-1.52v-1.52c0-.82.64-1.52 1.39-1.52h28.23c.75 0 1.39.7 1.39 1.52v1.52c.1.82-.54 1.52-1.39 1.52m17.26 9.38H90.84c-.75 0-1.39-.7-1.39-1.52v-1.64c0-.82.64-1.52 1.39-1.52h45.49c.75 0 1.39.7 1.39 1.52v1.52c0 .94-.64 1.64-1.39 1.64" class="st14"/><defs><path id="SVGID_5_" d="M124.03 65.34c18.15 0 32.67-14.52 32.67-32.34S141.85.66 124.03.66C106.14.66 91.62 15.11 91.53 33c0 17.81 14.52 32.34 32.5 32.34"/></defs><use xlink:href="#SVGID_5_" style="overflow:visible;fill:#abcdf5"/><clipPath id="SVGID_4_"><use xlink:href="#SVGID_5_" style="overflow:visible"/></clipPath><g style="clip-path:url(#SVGID_4_)"><path d="M115.75 205.5c-.67-7.74-1.35-15.49-2.02-23.23-.72-8.31-1.44-16.77.03-25.21 1.48-8.44 3.41-19.47 10.05-24.26 8.49-6.12 21.25-7.55 22.77 4.13 5.35 41.1-21.78 103.84-27.43 118.03-1.56 3.93-3.19 7.83-4.87 11.72l-11.13-.97c3.71-22.45 5.87-48.55 12.6-60.21" class="st9"/><path d="M107.15 214.52c-1.68 3.57-4.24 7.53-7.75 7.35-2.13-.11-3.95-1.85-4.99-3.95s-1.43-4.54-1.8-6.93c-1.62-10.33-3.25-20.65-4.87-30.98-1.31-8.36-2.63-16.87-1.77-25.37s4.24-17.14 10.5-21.96c8-6.16 21.4-4.16 23.02 7.67 2.15 15.68.49 32.76-3.21 48.11-2.17 9.02-5.23 17.79-9.13 26.06" class="st9"/><path d="M91.87 200.55c7.79-9.31 20.31-1.92 16.36 9.87-4.77 14.25-11.66 28.15-18.52 41.49-1.81 3.52-3.69 7.02-5.6 10.49l-10.54-4.45c5.69-22.29 10.34-47.89 18.3-57.4m28.52-41.73c-5.68-.66-48.03-.67-21.53-35.55 3.69-4.86 11.96-4.7 18.06-4.93 8.26-.32 24.17 1.15 27.44 8.91 10.23 24.21-17.68 32.29-23.97 31.57" class="st9"/><path d="M134.17 77.72c-1.2-6.17-1.92-13.14.61-19.09.79-1.86.94-2.15 2.56-1.05 1.28.87 2.39 2.35 3.36 3.54 1.97 2.44 3.59 5.15 4.93 7.98 1.41 2.96 2.52 6.04 3.52 9.16l-13.6 5.56c-.52-2.03-.98-4.06-1.38-6.1" class="st12"/><path d="M149.15 78.25c.66 2.07 1.27 4.15 1.88 6.23 3.34 11.44 6.69 22.89 10.03 34.33.32 1.08.63 2.26.22 3.31-.65 1.67-2.91 2.19-4.57 1.54-1.66-.66-2.85-2.13-3.91-3.57-8.01-10.83-13.89-23.23-17.25-36.28z" class="st11"/><path d="M171.26 84.05c-.14-1.2-.55-2.66-1.74-2.9-1.13-.23-2.06.84-2.7 1.8-5.38 8.1-13.73 35.13-11.55 38.91 2.04 3.53 4.86 3.94 7.34.74 5.04-6.51 9.21-33.73 8.65-38.55" class="st11"/><path d="m154.42 83.06 9.55.83c.57.05 1.19-.36 1.4-.91l7.6-19.76c.21-.55-.08-1.04-.65-1.09l-9.55-.83c-.57-.05-1.19.36-1.4.91l-7.6 19.76c-.2.55.09 1.04.65 1.09" class="st0"/><path d="m153.77 81.97 7.6-19.76c.21-.55.83-.96 1.4-.91l1.02.09c-.57-.05-1.19.36-1.4.91l-7.6 19.76c-.21.55.08 1.04.65 1.09l-1.02-.09c-.56-.05-.85-.54-.65-1.09" class="st0"/><path d="M172.21 81.26c.49-2.54.14-5.37-1.53-7.35-1.34-1.59-3.37-2.46-5.42-2.82-.89-.16-2.04-.09-2.39.74-.31.74.25 1.53.5 2.29.58 1.73-.44 3.55-.8 5.34-.4 1.99.04 4.13 1.21 5.79.93 1.32 3.64 3.76 5.43 2.82 1.67-.89 2.68-5.12 3-6.81" class="st11"/><path d="M109.18 106.16c2.75-14.12-11.51-27.41-8.82-41.54 1.83-9.64 12.12-16.48 21.88-15.49s18.12 8.87 20.82 18.31c1.28 4.48 1.42 9.27.43 13.81-.7 3.17-1.93 6.21-2.75 9.35-1.69 6.44-1.6 13.17-.62 19.71.86 5.71 3.29 11.29 4.26 16.94l-45.5-3.98c1.5-2.19 9.51-13.03 10.3-17.11" class="st12"/><path d="M92.18 69.35c1.86-4.57 4.85-8.83 9.1-11.33 1.05-.61 2.36-1.11 3.43-.54 1 .54 1.35 1.79 1.53 2.92 1.18 7.39-.51 14.86-2.43 22.13L89.5 78.99c.63-3.29 1.42-6.54 2.68-9.64" class="st12"/><path d="M88.65 83.69c.27-1.57.54-3.13.84-4.7l14.31 3.54c-.18.69-.37 1.39-.56 2.08-1.96 7.26-3.91 14.52-5.87 21.79-.73 2.72-.96 6.06-3.6 7.64-1.9 1.14-4.55 1.21-6.33-.2-1.54-1.22-2.33-3.2-2.53-5.16-.19-1.96.14-3.93.47-5.87 1.1-6.37 2.19-12.75 3.27-19.12" class="st11"/><path d="M90.66 150.46c-.1 1.72-.42 5.77-2.14 5.76-1.33-.01-2.43-3.44-2.61-4.76-1.27-9.17-1.68-39.57-.99-41.61 1.13-3.37 9.74-5.32 11.46-.59 1.74 4.78-4.83 25.57-5.72 41.2" class="st11"/><path d="m92.58 155.29 1.05 8.05c-.26.53-1.13.32-1.44-.19-.31-.5-.29-1.13-.48-1.69-.18-.56-.75-1.11-1.3-.88s-.56.98-.49 1.57l1.02 8.12c-1.87 1.06-4.37.3-5.84-1.28-1.46-1.58-2.06-3.76-2.35-5.89-.39-2.96-.25-6 .4-8.91.38-1.68 1.02-3.45 2.43-4.43 3.64-2.52 6.63 2.69 7 5.53" class="st11"/><path d="M138.4 10.45c-.94-3.11-3.67-5.6-6.84-6.27-3.18-.67-6.67.5-8.8 2.96-1.08 1.25-1.86 2.82-3.26 3.69-1.85 1.14-4.22.74-6.36 1.09-3.26.53-6.12 3.01-7.1 6.16-1.99 6.38 3.43 13.28 1.62 19.71-.83 2.93-3.04 5.24-5.3 7.28s-4.7 3.98-6.25 6.6-2 6.17-.18 8.61c1.3 1.74 3.46 2.59 5.53 3.24 2.31.73 4.71 1.01 7.13 1.22 5.59.49 6.59-11.01 7.65-19.88.61-5.13 12.58-4.65 14.46-9.46 1.03-2.64.38-5.63.9-8.42.51-2.72 2.08-4.53 4-6.38 1.43-1.38 2.51-3.6 2.94-5.51.35-1.54.31-3.15-.14-4.64" class="st9"/><path d="M128.42 38.44c-.91 3.55-1.01 7.31-.29 10.91.22 1.11.48 2.41-.25 3.27-.7.83-1.95.84-3.03.78-1.81-.1-3.66-.21-5.35-.87-1.69-.67-3.41-1.16-3.83-2.92.24-2 .46-4.11.72-5.26l2.52-8.25c.25-.81.52-1.65 1.13-2.23 1.03-.96 2.75-.82 3.94-.06s1.99 2 2.74 3.19z" class="st11"/><path d="M133.85 37.69c1.06-1.73 1.47-3.77 1.85-5.77.52-2.75 1.03-5.53.8-8.32s-1.31-5.61-3.47-7.39c-2.61-2.14-6.35-2.4-9.63-1.6-2.85.69-5.66 2.26-6.99 4.87-.72 1.42-.95 3.03-1.16 4.61-.28 2.05-.56 4.15-.1 6.17.51 2.23 1.89 4.2 3.59 5.73s3.71 2.68 5.74 3.74c1.17.61 2.38 1.2 3.69 1.4 2.61.39 4.4-1.36 5.68-3.44" class="st11"/><path d="M124.04 19.63c-1.4 2.54-1.24 5.91-3.28 7.98-1.65 1.68-4.58 1.89-6.46.45-1.43-1.09-2.16-2.95-2.11-4.74.06-1.8.84-3.52 1.96-4.92s2.58-2.51 4.1-3.46c2.35-1.46 4.95-2.59 7.69-2.93 1.74-.21 3.54-.09 5.21.44 1.26.4 3.7 1.32 3.91 2.88.21 1.54-1.14 1.7-2.19 1.31-1.59-.59-3.04-.85-4.72-.34a7.1 7.1 0 0 0-4.11 3.33" class="st9"/><path d="M116.95 26.68c-.49-.23-1.02-.42-1.56-.45s-1.12.13-1.5.52c-.52.52-.59 1.34-.47 2.06.31 1.82 1.77 3.25 3.69 3.04 1.45-.16 2.12-1.4 1.98-2.8-.13-1.18-1.13-1.9-2.14-2.37" class="st11"/></g><path d="M206.11 23.72c-6.4 6.15-10.5 10.86-14.53 15.75-1.1 1.33-2.93 1.3-4.04 0 0 0-5.75-6.16-8.21-7.94-1.19-.87.84-3.09 2.55-2.15 1.69.93 3.34 2 4.83 3.21l2.42 2.02s7.46-10.68 12.93-14.92c1.09-.84 2.67-.61 3.64.4 1.11 1.11 1.11 2.94 0 4.04z" class="st14"/><path d="M128.38 227.31c7.98 10.18 21.46 17.33 21.46 17.33l12.6 8.75s20.92-3.29 33.59-9.02c3.29-43.93-2.37-68.81-13.77-63.22-.81-7.72-12.53-10.05-14.37-4.47 0-7.01-13.45-9.34-16.41-2.42 0 0-8.09-21.27-16.61-34.48s-18.44-3.87-12.77 6.53c13.62 24.97 13.28 38.56 15.07 44.89s-.42 24.98-17.06 3.91c-7.18-9.1-16.23-4.69-12.18 3.41s12.47 18.61 20.45 28.79" class="st5"/><path d="M161.72 36.62c.78 0 1.56.06 2.33.17" class="st19"/><path d="M167.99 37.8c7.28 2.71 13.24 9.62 15.39 15.47" style="fill:none;stroke:#000090;stroke-width:2.3368;stroke-linecap:round;stroke-miterlimit:10;stroke-dasharray:4.0751,4.0751"/><path d="M183.96 55.22c.18.81.28 1.59.28 2.31" class="st19"/></g></svg>