<svg xmlns="http://www.w3.org/2000/svg" xml:space="preserve" viewBox="0 0 452.91 254.76"><style>.st1{fill:#01015b}.st2{fill:#f7f6f0}.st3{fill:#abcdf5}.st4{fill-rule:evenodd;clip-rule:evenodd;fill:#f7f6f0}.st6{fill:#d38742}.st10,.st7{fill-rule:evenodd;clip-rule:evenodd}.st7{fill:#000090}.st10{fill:#01015b}.st12{fill:#0067e2}.st13{fill:#ff2d2d}.st14{fill:#04518a;stroke:#04518a;stroke-width:.3287;stroke-miterlimit:10}</style><g id="Calque_1"><path d="M0 0h452.91v254.76H0z" style="fill:#fff"/><path d="M314.37 130.67h-20.8l-10.41-23.58h20.81z" class="st1"/><path d="M312.03 130.67h-20.8l-10.41-23.58h20.81z" class="st1"/><path d="M316.05 127.6h-39.93a1.54 1.54 0 0 0 0 3.08h39.93a1.54 1.54 0 0 0 0-3.08m-61.31-12.5c-3.84 0-6.53-3.13-5.99-6.97l9.03-63.89c.54-3.84 4.11-6.97 7.96-6.97h82.15c3.84 0 6.53 3.13 5.99 6.97l-9.03 63.89c-.54 3.84-4.11 6.97-7.96 6.97z" class="st1"/><path d="M250.94 115.1c-3.84 0-6.53-3.13-5.99-6.97l9.03-63.89c.54-3.84 4.11-6.97 7.96-6.97h82.15c3.84 0 6.53 3.13 5.99 6.97l-9.03 63.89c-.54 3.84-4.11 6.97-7.96 6.97z" class="st1"/><path d="M251.66 109.96c-2.23 0-3.78-1.81-3.47-4.04l8.41-59.49c.32-2.23 2.38-4.04 4.61-4.04h82.15c2.23 0 3.78 1.81 3.47 4.04l-8.41 59.49c-.32 2.23-2.38 4.04-4.61 4.04z" class="st2"/><path d="M341.53 56.55h-82.39c-.83 0-1.4-.67-1.28-1.5l.55-3.79c.12-.83.88-1.5 1.71-1.5h82.39c.83 0 1.4.67 1.28 1.5l-.55 3.79c-.11.83-.88 1.5-1.71 1.5m-77.17 40.11h-10.89c-.88 0-1.49-.71-1.36-1.59l4.91-34.11c.13-.88.94-1.59 1.82-1.59h10.89c.88 0 1.49.71 1.36 1.59l-4.91 34.11c-.13.88-.94 1.59-1.82 1.59M337 85.82h-28.95c-.88 0-1.49-.71-1.36-1.59l3.35-23.27c.13-.88.94-1.59 1.82-1.59h28.95c.88 0 1.49.71 1.36 1.59l-3.35 23.27c-.13.88-.94 1.59-1.82 1.59m1.02 3.98c.14-.94-.42-1.71-1.24-1.71h-29.17c-.82 0-1.59.76-1.73 1.71l-1.84 12.8h32.14zm-34.19-11.95c.14-.94-.42-1.71-1.24-1.71h-11.11c-.82 0-1.59.76-1.73 1.71l-3.56 24.75h14.07zm-38.47 22.9c.14-.94-.42-1.71-1.24-1.71h-11.11c-.82 0-1.59.76-1.73 1.71l-.27 1.85h14.07zm18.21-17.09h-10.89c-.88 0-1.49-.71-1.36-1.59l3.04-21.1c.13-.88.94-1.59 1.82-1.59h10.89c.88 0 1.49.71 1.36 1.59l-3.04 21.1c-.13.87-.94 1.59-1.82 1.59m8.85-24.29-1.85 12.89c-.14.94.42 1.71 1.24 1.71h11.11c.82 0 1.59-.76 1.73-1.71l1.85-12.89zm-7.32 28.16c.14-.94-.42-1.71-1.24-1.71h-11.11c-.82 0-1.59.76-1.73 1.71l-2.17 15.07h14.07z" class="st3"/><path d="M264.27 69.06h-6.54l1.09-7.52h6.53zm-6.85 2.18-.19 1.29h10.55l.19-1.29zm-.53 3.72h10.55l.19-1.29h-10.55zm-.35 2.42h10.55l.19-1.29h-10.55zm-.35 2.42h10.55l.19-1.29h-10.55zm-.35 2.42h5.15l.19-1.29h-5.15z" class="st2"/><path d="M281.6 69.06h-6.53l1.08-7.52h6.53z" class="st4"/><path d="m274.76 71.24-.19 1.29h10.55l.19-1.29zm-.54 3.72h10.55l.19-1.29h-10.55zm-.35 2.42h10.55l.19-1.29h-10.55zm-.34 2.42h10.55l.19-1.29h-10.55zm-.35 2.42h5.15l.19-1.29h-5.15z" class="st3"/><path d="M297.03 85.83h-6.53l1.08-7.52h6.53zm-6.85 2.18L290 89.3h10.55l.19-1.29zm-.53 3.71h10.55l.19-1.29h-10.55zm-.35 2.43h10.55l.19-1.29h-10.55zm-.35 2.42h10.55l.19-1.29h-10.55zm-.35 2.42h5.15l.19-1.29h-5.15zm5.53-38.44-.19 1.29h10.55l.19-1.29zm-.53 3.71h10.55l.19-1.29h-10.55zm-.35 2.42h4.9l.19-1.29h-4.9zm45.36 2.38h-27.78l1.09-7.52h27.77zm-28.09 2.18-.19 1.29h27.77l.19-1.29zm-.53 3.72h16.47l.19-1.29h-16.47z" class="st2"/><path d="M277.78 95.61h-6.53l1.08-7.52h6.53z" class="st4"/><path d="m270.94 97.8-.19 1.29h10.55l.19-1.29zm-.54 3.71h6.78l.19-1.29h-6.78z" class="st2"/><path d="M260.96 92.03h-6.53l1.08-7.52h6.53z" style="fill-rule:evenodd;clip-rule:evenodd;fill:#66bcd5"/><path d="m254.11 94.21-.19 1.29h10.55l.19-1.29z" class="st2"/><path d="M229.25 78.17c2.25 9.4 5.59 18.54 9.96 27.16 1.18 2.34 2.88 4.93 5.49 5.08 3.02.17 5.53-2.9 6.04-5.88 1.39-8.17-.66-21.27-2.89-32.37z" class="st6"/><path d="M248.77 68.06c-1.44-6.81-3.68-24.26-12.83-25.03-10.72-.9-10.92 14.81-10.11 21.63.57 4.84 1.43 9.64 2.57 14.37l21.23-6.85c-.29-1.38-.57-2.75-.86-4.12" class="st7"/><path d="M276.02 68.65c1.63-.98 3.67-1.97 5.33-1.05 2.45 1.36 1.47 5.08.07 7.52-7.32 12.76-17.39 23.93-29.29 32.58-6.59 4.79-9.7 3.79-13.18-3.55-3.83-8.1 26.91-29.41 37.07-35.5" class="st6"/><path d="M279.5 61.96c4.21-3.34 10.08-3.32 15.45-3.15.29.68-.29 1.44-.96 1.75s-1.44.35-2.11.65c-1.77.8-2.28 3.06-2.26 5s.32 4.02-.65 5.7c-.99 1.71-3.06 2.52-5.04 2.66-2.4.17-8.37-.99-9.01-3.97-.58-2.73 2.61-7.08 4.58-8.64" class="st6"/><path d="M281.88 72.71c-1.72 0-3.43-.44-4.91-1.32a.54.54 0 1 1 .55-.93c2.27 1.35 5.2 1.55 7.64.52.41-.17.83-.47.78-.73-.05-.33-.83-.47-1.25-.54-2.58-.45-4.85-2.33-5.76-4.79-.1-.28.04-.59.32-.7.28-.1.59.04.7.32.78 2.1 2.72 3.71 4.94 4.1.69.12 1.96.34 2.14 1.44.12.76-.41 1.47-1.43 1.9a9.9 9.9 0 0 1-3.72.73" style="fill:#f4a086"/><path d="M215.67 99.62c-2.34-5.69-27.08 1.17-31.27 10.68-2.74 1.9-5.01 4.88-6.1 7.9-1.81 5.02-1.17 10.01-.45 14.74 2.59 16.95 5.93 33.64 10.01 50.01.3 1.21.62 2.45 1.45 3.31 2.1 2.2 5.58 1.28 8.61-.75.21.1.42.19.64.26 1.96.61 8.32-3.27 9.71-4.83 1.41-1.56 9.29-76.74 7.4-81.32" class="st1"/><path d="M187.17 247.95c2.92.44 6.06.19 9.1-.72.4-3.53.8-7.06 1.21-10.59.05-.45.1-.91-.08-1.29-.26-.55-.91-.77-1.54-.88-2.37-.43-6.07-.57-6.68 2.5-.72 3.65-1.34 7.32-2.01 10.98" class="st6"/><path d="M209.64 169.51c-2.04-6.25-10.17-10.53-17.37.31-10.98 16.53-1.09 47.44-4.21 67.4h10.25c.86-1.94 12.46-64.25 11.33-67.71" class="st1"/><path d="M162.61 117.93c2.5 1.97 5.79 2.27 8.89 2.27 25.48 0 40.22-8.29 36.7-19.99-3.62-12.02-26.42-10.08-38.33-6.21-2.57.83-6.31 1.64-8.06 4.04-2.55 3.47-5.26 15.11.8 19.89" style="fill:#a0b5bf"/><path d="M157.77 109.44c3.61-16.99 34.09-12.79 37.61 4.08 1.81 8.69-.48 17.68-3.41 26.06-2.4 6.87-5.23 13.6-8.47 20.11-2.91 5.86-6.31 13.53-9.86 19.02-.39.61-15.49-.21-16.05-3.43-1.37-8-4.01-15.87-4.35-24.05-.55-13.61 1.68-28.39 4.53-41.79m58.62 143.69c.13-1.47-1.26-2.68-2.69-3.02s-2.93-.08-4.4-.1c-4.2-.05-8.28-2.57-10.2-6.3-.26-.51-.52-1.08-1.02-1.36-.67-.38-1.54-.1-2.13.39s-1.01 1.15-1.56 1.7c-.97.98-2.36 1.52-3.74 1.5-1.15-.02-2.44-.9-3.55-.32-.98.51-1.24 1.87-1.49 2.83-.43 1.66-.81 3.33-1.22 5-.09.37-.18.75-.21 1.13h8c.37-.52.68-2.05.83-2.68.03.65.28 2.18.69 2.68h21.99c.39-.4.65-.89.7-1.45" class="st1"/><path d="M127.33 243.65c2.6 1.54 5.56 2.48 8.58 2.73 1.15-3.34 2.3-6.69 3.44-10.03.14-.42.29-.87.21-1.31-.11-.65-.68-1.11-1.23-1.46-2.1-1.32-5.49-2.86-6.73-.05-1.46 3.35-2.84 6.75-4.27 10.12" class="st6"/><path d="M173.85 177.92c.12-6.69-6.88-14.87-16.18-6.28-14.98 13.83-20.55 41.37-27.14 61.72l9.49 3.88c1.42-1.51 33.76-55.6 33.83-59.32m-16.09 74.79c.61-1.34-18.51-3.77-18.97-4.33-.45-.55-1.8-1.47-1.65-5.3.07-1.75-2.83-3.43-5.44-1.44-.85.65-1.53 1.01-2.09.76-.46-.21-.65-1.24-1.32-.88-.59.31-1.21 1.52-1.68 2.37-.8 1.47-1.59 2.95-2.39 4.43-.18.33-2 5.71-2.15 6.06l5.25.07 1.41-1.75 1.78 1.79 26.67.08c.32-.3.35-1.36.58-1.86" class="st1"/><path d="M216.4 113.36c-.44-21.6 8.46-36.54 19.32-47.48 4.24-4.27 9.38-9.28 8.28-15.19-.94-5.03-6.03-8.03-10.7-10.12-8.07-3.62-16.42-6.42-24.96-8.71-5.11-1.37-18.24-8.63-23.56-7.23-14.32 3.75-12.15 30.12-16.1 42.1-3.18 9.63-10.7 39.82-10.61 40.52l56.61 17.86c3.13-2.15 1.82-6.86 1.72-11.75" class="st7"/><path d="M226.74 24.87c-2.39-6.49-8.65-9.31-12.08-8.68-1.24 10.83-1.45 11.48-6.82 16.31-1.59 5.78 14.09 11.39 16.55 9.12.03-.88 3.59-13.4 2.35-16.75" class="st6"/><path d="M234.86 10.68c.89 1.07 1.75 2.32 1.67 3.71-.06 1.06-.67 2.01-1.26 2.9l-2.28 3.45c-.74-1.59-.82-3.4-1-5.14-.18-1.75-.53-3.57-1.69-4.9-.71-.82-1.77-1.55-1.77-2.64 0-1.56 1.73-1.89 2.71-1.03 1.29 1.14 2.52 2.34 3.62 3.65" class="st10"/><path d="M217.82 9.2c4.1-4.88 12.2-3.84 15.02 2.34 2.58 5.66-.59 17.44-2.96 19.86-4.15 4.23-12.68-.87-13.82-4.12-1.66-4.77-1.68-13.98 1.76-18.08" class="st6"/><path d="M219.9 10.86c.23.91-2.13 12.85-2.45 12.71-1.17-.51-2.6-3.9-4.82-3.82-.71.03-1.7.47-1.7-.95 0-9.01-.37-8.56 1.25-9.35 3.57-1.76 7.31-.21 7.72 1.41" class="st10"/><path d="M210.69 18.34c-.17 1.45.26 2.96 1.16 4.11 2.58 3.29 5.31-1.04 4.75-3.78-.67-3.27-5.46-4.28-5.91-.33" class="st6"/><path d="M230.83 12.29c-.22.79-.68 1.65-1.49 1.76-.84.12-8.49-5.33-8.98-5.39s.04 2.3-.51 2.66c-.46.31-1.08.08-1.59-.14-2.27-.94-4.76-.85-7.21-.74-.15-.71.06-1.99.44-2.62s.9-1.15 1.45-1.63c2.43-2.13 5.53-3.72 8.76-3.61 1.93.07 3.82.62 5.59 1.37 6.82 2.92 3.87 7.15 3.54 8.34" class="st10"/><path d="m193.04 61.32-19.73 1.84c-.01 8.75.66 17.5 1.91 26.05l16.48-1.65c.15-8.7.62-17.35 1.34-26.24" class="st6"/><path d="M194.65 48.26c.82-7.52 6.65-18.58-1.7-22.17-7.7-3.31-14.86 1.86-16.42 9.16-2.19 10.23-3.2 20.86-3.21 31.5l21.53-.89c.44-5.44-.83-11.92-.2-17.6" class="st7"/><path d="m191.78 83.77-16.56 5.44c.89 1.86 17.06 29.03 25.21 38.66 1.36 1.61 3.57 3.32 5.31 2.14 1.44-.98 1.52-3.22.83-4.82-6.08-14.16-10.9-28.1-14.79-41.42" class="st6"/><path d="M211.26 11.12c-.79.07-1.52.62-1.8 1.36-.18-1.9.68-3.86 2.2-5.01-.96.13-1.69-1.04-1.48-1.98s1.01-1.63 1.82-2.16c2.66-1.73 5.94-2.49 9.09-2.12l.18-1.22c1.92.42 3.7 1.44 5.04 2.87 6.24-3.88 14.65 4.04 9.83 10.36a16.44 16.44 0 0 0-6.15-4.47c-3.54-1.46-7.55-1.67-10.9-3.52.46 1.89-1.44 3.94-3.36 3.62.33-.33.66-.67.99-1z" class="st10"/><path d="M210.33 121.31c1.43.33 2.53 1.43 3.55 2.48 1.48 1.52 2.96 3.05 4.43 4.57.59.61 1.23 1.46.88 2.23-.32.7-1.32.83-2 .47s-1.11-1.05-1.5-1.71c-.15 1.24-1.35 2.26-2.6 2.19-.58-.63-1.15-1.26-1.73-1.89-1.1 1.37-3.16 1.33-4.91 1.16-2.85-.26-6.37-1.18-4.32-4.47 1.49-2.39 5.12-5.73 8.2-5.03" style="fill:#f7b690"/><path d="M123.6 96.26v.05a4.34 4.34 0 0 1 4.97 3.87l7.35 77.22a3.06 3.06 0 0 0 3.06 2.79h46.47c2.39 0 4.34 1.94 4.34 4.34 0 2.39-1.94 4.34-4.34 4.34h-46.47c-3.55 0-6.75-1.59-8.91-4.11-2.56.19-12.46 1.04-12.46 1.04l-10.15-3.23-9.22-86.3h25.36z" class="st6"/><path d="M112.96 180.19c-1.59 0-2.91-1.2-3.06-2.79l-7.35-77.22a4.327 4.327 0 0 0-4.32-3.92c-2.56 0-4.56 2.2-4.32 4.75l7.34 77.21c.57 6.03 5.63 10.65 11.69 10.65h46.47c2.39 0 4.34-1.94 4.34-4.34 0-2.39-1.94-4.34-4.34-4.34z" class="st6"/><path d="M139.26 188.86h7.05v65.53h-7.05z" class="st6"/><path d="M146 195.6h-6.44c-2.2 0-4.24-1.12-5.43-2.96l-2.43-3.78h22.16l-2.43 3.78a6.43 6.43 0 0 1-5.43 2.96" class="st6"/><path d="M204.19 124.93c-3.41-1.61-22.94-4.34-26.4-5.84-4.76-2.07-8.36-7.66-10.7-12.3-1.29-2.56-2.32-5.24-3.35-7.92l-14.6 7.71c1.98 3.39 4.18 6.64 6.6 9.72 3.71 4.73 8.01 9.15 13.32 11.98 5.53 2.95 28.41 3.31 34.61 2.33 4.99-1.03 3.93-4.08.52-5.68" class="st12"/><path d="M153.44 83.02c-3.85-2.09-11.76-1.64-12.15 3.91-.22 3.27 1.65 6.84 2.89 9.77 1.39 3.28 2.98 6.47 4.76 9.55.06.11.13.22.2.33l16.09-6.71c-3.53-4.45-6.84-14.18-11.79-16.85" class="st13"/><path d="M218.23 123.7c1.28 1.21 2.24 2.85 2.28 4.62.04 1.76-1.4 5.29-2.71 4.11-1.08-.97-1.35-2.6-2.81-2.56-1.45.04-2.76.85-4.11 1.38-3.99 1.59-16.08-.57-10.93-6.88 3.94-4.84 13.98-4.76 18.28-.67" class="st6"/><path d="M244.95 243.35c.83 1.24 1.93 2.62 3.41 2.59 2.56-.06 2.75-3.72 2.11-6.18-.69-2.66-1.38-5.31-2.08-7.97l-8.05 2.35c.88 3.34 3.05 6.87 4.61 9.21" class="st12"/><path d="M224.65 166.44c-6.48-7.15-46.97-16.05-66.01-21.87-14.22-4.35-28.85-6.8-31.02 12.41-.93 8.28 3.28 16.79 10.38 21.15 7.73 4.75 17.45 4.3 26.5 3.7 17.26-1.14 27.84-1.84 45.09-2.99 1.65 22.58 20.84 30.67 29.43 55.68l12.91-2.63c-7.81-11.77-24.06-61.33-27.28-65.45" class="st7"/><path d="M156.46 231.69c-.66 1.33-1.31 2.98-.53 4.25 1.33 2.19 4.59.52 6.41-1.26 1.95-1.93 3.91-3.86 5.86-5.78l-7.9-4.72c-1.3 2.48-2.59 4.98-3.84 7.51" class="st12"/><path d="M124.41 178.13c7.73 4.75 17.45 4.3 26.5 3.7 17.87-1.18 35.74-2.37 53.61-3.55 2.85-.19 6.05-.55 7.83-2.79 2.08-2.61 1.07-6.7-1.29-9.05-2.37-2.36-5.69-3.41-8.89-4.39-19.04-5.83-38.08-11.66-57.12-17.48-14.22-4.35-28.85-6.8-31.02 12.41-.94 8.28 3.28 16.79 10.38 21.15" class="st7"/><path d="M213.4 171.36c-3.94-12.19-28.49 11.87-32.78 18.34a385 385 0 0 0-20.32 34.46l9.59 7.85c6.29-12.67 18.82-23.36 29.08-33.47 3.37-3.32 6.81-6.74 8.87-11.06 2.05-4.31 6.26-13.94 5.56-16.12" class="st7"/><path d="M124.79 97.41c.97 7.27 3.77 14.32 3.65 21.66-.12 7.35-3.32 14.59-8.67 19.62-3.3 3.1-7.83 6.62-6.65 10.99 1.06 3.93 5.98 5.1 10.03 5.56 8.83 1 18.89 1.62 25.39-4.44 3.98-3.71 5.7-9.2 6.96-14.49 2.24-9.37 3.56-18.96 3.92-28.59.31-8.2-.24-16.94-4.95-23.66-4.7-6.69-9.97-11.13-17.65-8.77-8.76 8.58-13 14.91-12.03 22.12" class="st13"/><path d="M241.31 237.76c.5.88 2.81 1.29 3.76 1.33.75.03 4.2-1.54 4.94-1.28.54.19 2.54 7.38 5.02 8.9 2.48 1.53 5.24 2.37 7.88 3.5.92.4 1.85.84 2.6 1.55.74.7 1.26 1.72 1.1 2.61-.02.09-.05.15-.08.22h-16.24c-.47-.55-.9-1.16-1.31-1.75l-4.46-6.38c-.47 2.32-.87 5.05-1.32 8.12h-1.81c-.58-2.47-2.18-14.25-.08-16.82m-90.99 1.98c.55-1.75 1.12-3.54 2.19-5.04 1.04-1.46 2.28-2.88 3.98-3.48.01.95.42 2.39 1.28 2.77.68.3 4.71.2 5.27.69.38.33-1.23 6.45-.21 9.08 0 0 3.66 2.77 5.55 4.11.77.54 1.54 1.14 2.02 1.95.49.81.65 1.87.19 2.69-.04.08-.1.13-.15.2l-13.96-2.56-1.9-.75c-.15-.65-.24-1.33-.31-2l-.84-7.18c-1.57 2.23-2.81 4.7-3.66 7.29l-1.69-.66c.75-2.37 1.49-4.74 2.24-7.11" class="st7"/><path d="M194.9 124.06c-3.41-1.61-22.94-3.47-26.4-4.97-4.76-2.07-8.36-7.66-10.7-12.3-1.29-2.56-2.32-5.24-3.35-7.92l-14.6 7.71c1.98 3.39 4.18 6.64 6.6 9.72 3.71 4.73 8.01 9.15 13.32 11.98 5.53 2.95 28.41 2.45 34.61 1.47 4.98-1.03 3.92-4.08.52-5.69" class="st12"/><path d="M151.81 92.42c-1.72-3.74-4.05-7.44-7.67-9.4-3.85-2.09-11.76-1.64-12.15 3.91-.22 3.27 1.65 6.84 2.89 9.77 1.39 3.28 2.98 6.47 4.76 9.55.06.11.13.22.2.33l16.09-6.71c-.83-2.17-3.15-5.34-4.12-7.45" class="st13"/><path d="M208.87 117.29c1.61.71 3.07 1.93 3.71 3.57.63 1.64.48 5.45-1.15 4.78-1.35-.55-2.15-1.99-3.51-1.46-1.35.53-2.31 1.73-3.4 2.7-3.22 2.84-15.32 4.92-12.62-2.77 2.06-5.88 11.53-9.21 16.97-6.82m-70.58-58.73c.68-1.28 8.14 2.56 8.58 3.48s.91 11.34 2.51 17.84c.34 1.4-13.57-2.89-12.58-4.59 1.6-2.75 3.24-13.26 1.49-16.73" class="st12"/><path d="M159.79 49.17c-2.58-10.69-17.2-8.43-20.67-7.37-3.47 1.07-3.56 5.98-3.9 9.59-.21 2.23.6 4.45 1.93 6.22 1.28 1.7 6.84 4.27 7.15 4.34 2.06 3.56 5.42 7.62 8.83 7.57 1.54-.02 2.93-1.01 3.83-2.25s1.4-2.73 1.88-4.19c1.5-4.52 2.07-9.27.95-13.91" class="st12"/><path d="M134.49 55.38c-1.27-1.54-2.27-3.37-2.52-5.35-.3-2.34.48-4.74 1.8-6.7 2.35-3.5 8.44-8.02 13.35-8.12 5.25-.11 14.26 5.12 13.41 11.61-.26 1.94-1.32 1.96-3.18 2.58-2.45.82-5.74 1.38-7.77 2.98-2.43 1.91-1.35 6.5-6.32 8-1.61.48-3.26 3.32-4.33 5.53-1.27-1.43-3.21-9.04-4.44-10.53" class="st10"/><path d="M127.11 68.77c-.47 2 .24 4.09.12 6.14-.26 4.77-4.73 8.22-6.22 12.77-.57 1.75-.67 3.73.14 5.38s2.67 2.85 4.48 2.52c2-.36 3.29-2.31 4.04-4.2s1.24-3.97 2.64-5.44c2.16-2.27 5.9-2.48 7.98-4.82 2.01-2.26 3.5-8.53 3.5-13.16 0-8.93-2.86-17.07-7.15-15.78-2.56.77-3.29 5.42-3.97 7.46-1.13 3.47-4.73 5.6-5.56 9.13" class="st10"/><path d="M141.1 56.2c-.26.24-.39.59-.48.94-.26 1.09-.05 2.27.55 3.22.6.94 1.59 1.63 2.69 1.85.43.09.91.1 1.29-.13 1.3-.79.64-3.56.02-4.63-.66-1.1-2.96-2.28-4.07-1.25" class="st12"/><path d="m220.95 124.38-28.48 2.28c-1.05.08-1.85.96-1.85 2.01 0 1.11.9 2.01 2.01 2.01h28.48c1.11 0 2.01-.9 2.01-2.01v-2.28c0-1.18-1-2.11-2.17-2.01" class="st1"/><path d="m212.655 254.462 10.806-117.223 3.237.299L215.89 254.76zM360.782 137.528l3.236-.299 10.84 117.22-3.235.299z" class="st14"/><path d="M391.39 137.39H196.11a3.36 3.36 0 0 1 0-6.72h195.28c1.85 0 3.36 1.5 3.36 3.36 0 1.85-1.51 3.36-3.36 3.36z" class="st14"/><path d="M118.23 254.56c0-3.81 3.08-6.89 6.89-6.89h35.33c3.81 0 6.89 3.08 6.89 6.89z" class="st6"/></g></svg>