<svg xmlns="http://www.w3.org/2000/svg" viewBox="0 0 255 255" style="enable-background:new 0 0 255 255" xml:space="preserve"><style>.st5{fill:#d38742}.st9{fill-rule:evenodd;clip-rule:evenodd;fill:#01015b}.st14{fill:#000090}.st22{fill:#fff}</style><g id="Calque_1"><path class="st5" d="M141.41 145.71c1.39 19.59 5.23 39.66 16.25 55.92 2.38 3.5 8.4 8.42 12.62 8.14 8.15-.53 5.3-10.03 5.75-12.46 3.57-19.14-2.27-38.65-8.09-57.23-2.4-7.65-5.58-21.2-13.37-25.33-8.12-4.3-12.2 8.98-12.95 14.39-.75 5.49-.6 11.07-.21 16.57z"/><path class="st14" d="M140.48 117.88c.37-3.24-8.21-19.75-5.13-18.51 36.07 14.54 39.07 45.31 41.78 65.64l-35.88 2.21c-2.4-16.18-2.68-32.82-.77-49.34z"/><path class="st5" d="M200.84 145.66c2.19-1.95 4.9-4.04 7.74-3.32 2.4.6 5.87 2.08 6.07 4.54.2 2.46-27.74 55.11-39.71 61.45-6.02 3.19-8.54-.18-11.66-5.42-4.35-7.3 29.6-50.16 37.56-57.25z"/><path d="M48.51 172.87c-.03.12-.05.25-.05.38.02-.13.04-.26.05-.38z" style="fill-rule:evenodd;clip-rule:evenodd;fill:#18898d"/><path class="st5" d="M208.2 127.25c2.61-2.84 9.23-7.93 12.07-5.32 2.36 2.16 3.53 9.39.9 15.13-1.17 2.56-3.92 9.27-8.48 10.87-1.27.44-1.91-.73-3.63-1.01-4.84-.79-5.92-3.93-6-8.24-.08-4.85 1.88-7.87 5.14-11.43z"/><path class="st5" d="M203.93 136.29c2.17-4.15 5.11-9.31 6.47-11.86.36-.67.88-1.27 1.13-1.99.25-.72.14-1.66-.52-2.05-.85-.49-1.86.22-2.58.88-3.48 3.25-7.16 6.83-7.99 11.52-.29 1.63 2.92 8.6 3.35 10.46 0 .01.4-6.49.14-6.96z"/><path d="M244.7 83.71c-8.41 17.28-13.2 39.36-20.86 57.62-.21.59-.83.94-1.45.81l-43.72-16.69c-.58-.21-.93-.83-.81-1.45 3.76-17 16.61-46.48 20.7-55.4a3.385 3.385 0 0 1 4.04-1.63l.2.07c12.84 5.13 28.2 9.63 41.17 15.03.65.25.98.99.73 1.64" style="fill:#0067e2"/><path class="st22" d="m201.12 115.58 5.96 2.28 6.04 2.08 2.98 1.14c.92.42 1.92.65 2.94.66 1.41-.13 1.35-1.76.7-2.46a8.2 8.2 0 0 0-2.98-1.14l-2.98-1.14-6.11-1.88-5.71-1.72-3.06-.94c-.89-.37-1.79-.76-2.74-.66-.8-.3-1.33 1.16-.53 1.47-.01-.01 3.58 1.91 5.49 2.31zm.35-12.85 14.11 5.39c1.83 1 3.85 1.61 5.92 1.81 1.22-.22 1.35-1.76.64-2.26a7.022 7.022 0 0 0-2.91-1.33l-2.98-1.14-5.64-1.93-5.72-1.73a17.41 17.41 0 0 0-5.79-1.52c-.95.09-.94.92-.49 1.54 0-.02 1.91.83 2.86 1.17zm3.29-14c1.52.92 3.17 1.63 4.89 2.09l16.1 6.14c1.35-.02 1.98-1.66.98-2.58l-10.81-3.9-5.36-2.05c-1.67-.67-3.41-1.1-5.19-1.31-1.06-.39-1.66 1.21-.61 1.61z"/><path d="M191.22 66.94c-4.54 4.86-9.5 9.29-14.85 13.24-1.18.69-.11.87.37.83l12.95-.52c.23-.13.51-.02.6.23l.01 10.7c.04 2.29-.07 3.16 1.15 2.94 1.22-.21 9.04-12.94 13.41-19.01.17-.32-.1-.69-.45-.62-4.7-.21-8.63-3.07-12.46-6.12l-.73-1.67z" style="fill:#ff2d2d"/><path class="st14" d="M154.71 194.37c3.2-15.77 8.65-31.16 10.97-47.05 1.08-7.43 2.66-16.58-1.68-23-3.9-5.76-20.71-28.45-43.18-28.45-32.02 0-48.51 10.97-56.41 20.61-3.22 19.51 4.25 53.97 10.07 72.63 1.94 6.21 3.04 13.88 4 20.68 1.1 7.75 2.01 14.36 3.77 16.38 3.29 3.79 67.85 4.91 70.88.91 1.63-2.16 1.27-8.11.97-14.97-.27-5.84-.48-12.35.61-17.74z"/><path class="st5" d="M64.97 195.92c-2.79-4.36-5.51-7.17-10.09-9.41-2.72-1.33-5.9 2.44-8.57 3.89-2.98 1.61.36 13.98-.14 17.34-.71 4.68 1.66 5.1 5.69 11.33 3.87 5.98 7.36 7.51 9.34 2.64 2.2-5.43-2.93-14.83-2.36-18.83-1.94 13.64 1.67-13.93 6.13-6.96z"/><path class="st5" d="M51.67 153.85c4.49-17.14 8.67-20.33 21.82-32.2 2.37-2.14 5.58-4.28 8.51-3.03 1.6.68 2.67 2.27 3.14 3.95.47 1.67 4.27 5.16 4.2 6.9-.81 20.27-17.34 55.74-24.07 71.48-2.45 5.73.13 15.8-5.7 18.01-3.05 1.16-15.85-5.85-17.82-17.66-1.8-10.72 8.58-42.34 9.92-47.45z"/><path class="st14" d="M97.87 121.65c.53-3.2.73-7.07-1.82-9.07-2.69-2.11-29.37 1.34-31.64 3.9-6.87 7.74-14.26 26.78-17.61 37.69l38.73 13.06c8.5-19.3 9.66-29.25 12.34-45.58z"/><path class="st5" d="M43.32 214.88c-2.04-9.36-3.38-14.49-2.76-21.81.25-3 7.96-33.98 10.6-37.44 1.64-2.14-.52 40.08 2.03 40.94 4.28 1.44 11.73 1.15 12.24 3.99.7 3.89 1.45 11.02 0 21.4-1.14 8.22-18.63 8.92-22.11-7.08z"/><path class="st9" d="M144.79 60.93c-.74 1.94-2.16 1.71-2.45-.34-.93-6.53-.89-7.59-4.85-12.89-2.18-2.92-2.75-3.1-1.47-4.45 4.26-4.46 14.89 1.59 8.77 17.68z"/><path class="st5" d="M129.81 73.42c-2.19-9.68-12.2-11.63-16.46-9.31-2.73 18.12-1.9 24.48-7.14 34.89 8.83 5.66 21.12 5.46 24.38.85.13-1.45.36-21.43-.78-26.43z"/><path class="st5" d="M114.41 49.46c5.15-9.33 18.79-10.24 25.42-1.01 6.06 8.45 4.66 28.82 1.55 33.56-5.44 8.29-21.09 2.67-24.01-2.3-4.29-7.29-7.29-22.4-2.96-30.25z"/><path class="st9" d="M118.35 51.52c.67 1.41.37 21.14.07 21.66-2.32 4.1-.39 5.33-4.85 4-10.93-3.26-15.02-19.03-9.8-24.12 4.77-4.66 13.38-4.07 14.58-1.54z"/><path class="st9" d="M100.48 45.13c10.6-10.64 29.88-17.38 36.23-15.01 9.45 3.52 6.07 20.17 1.26 20.17-1.53 0-3.17-.33-4.57-.96-6.64-2.99-9.8 1.25-14.11 2.86-7.63 2.84-27.84 2.01-18.81-7.06z"/><path class="st5" d="M110.26 68.3c.2 2.43 1.38 4.78 3.23 6.37 5.29 4.57 8.37-3.42 6.57-7.73-2.15-5.14-10.34-5.26-9.8 1.36z"/><path class="st14" d="M191.82 55.77c-2.23 3.8-2.27 10.04.18 13.7 2.48 3.6 7.61 4.7 11.95 5.29 3.25.66 6.63-.24 9.12-2.43 2.95-2.98 7.46-10.91-.46-17.89-11.66-10.29-18.7-1.5-20.79 1.33z"/><path class="st22" d="M196.89 60.46c-.1-.77 1.12-1.17 1.57-.54.67.76 1.27 1.61 1.78 2.49l.81 1.45 3.88-2.38 2.55-1.3c.85-.53 1.78-.93 2.75-1.23.71-.17 1.43.2 1.72.88.34.76 0 1.66-.76 1.99l.27-.12c-3.49 1.62-8.72 4.49-10.46 5.02-1.41-.83-3.95-5-4.11-6.26z"/></g></svg>
