<svg width="267" height="306" xmlns="http://www.w3.org/2000/svg" xmlns:xlink="http://www.w3.org/1999/xlink"><defs><path id="a" d="M0 0h76.414v50.746H0z"/><path id="c" d="M0 0h83.623v47.43H0z"/></defs><g fill="none" fill-rule="evenodd"><path d="M254.545 162.92c-7.022-18.81-30.505-33.706-47.483-42.152-3.056-1.52-6.917-2.765-9.245-.447-1.27 1.265-1.694 3.335-1.517 5.297.178 1.961.884 3.856 1.601 5.708 8.361 21.591 16.113 42.284 27.086 62.583 3.371 6.237 10.038 17.964 14.675 23.172 4.637 5.208 7.987 10.957 14.37 11.41 3.341.236 8.792.14 10.65-3.159 1.495-2.654 2.46-15.856 2.047-18.805-1.465-10.464-7.438-30.894-12.184-43.608M134.588 152.066c-.677 24.632-3.067 49.6-16.001 70.574-2.788 4.52-8.343 7.225-21.206 4.592-3.041-.623-3.312-5.506-3.393-8.61-1.18-45.204 4.159-65.387 7.044-72.179 3.933-9.262 5.85-26.88 15.393-32.475 9.94-5.828 15.78 10.595 17.006 17.343 1.24 6.833 1.347 13.832 1.157 20.755" fill="#5F5FF1"/><path d="M124.05 263.775c13.134-60.338-6.353-70.497-9.046-100.38l-17.263-5.543c1.99-34.854 18.613-64.147 63.739-69.135 7.044-.779 21.785 1.336 27.956 1.336 25.609 0 47.343 6.902 66.604 65.412l-30.952 18.583c-6.326 23.885-12.546 58.471-3.443 81.495 1.36 3.44 6.019 15.091-.972 16.997-16.488-12.663-86.322-7.222-95.183.5-4.15-3.793-2.121-6.13-1.44-9.265" fill="#01015B"/><path d="M135.063 41.455c1.331 2.245 3.035 1.646 2.957-.94-.248-8.276-.532-9.573 3.232-16.98 2.071-4.077 2.735-4.419.858-5.81-6.22-4.607-18.066 5.15-7.047 23.73" fill="#1B1B35"/><path d="M157.792 60.819c1.804-12.323 13.012-17.552 18.566-15.06 5.175 22.404 3.206 29.415 7.627 44.05-4.425 8.49-21.899 11.745-29.065.963-.129-1.825 1.94-23.581 2.872-29.953M195.013 144.068c-2.211-3.314-7.511 3.086-8.437 6.961-.925 3.875 39.434 59.018 50.448 67.646 3.352 2.625 12.895 10.913 17.009 9.815 3.674-.98 6.925-.53 8.267-4.089 2.253-5.977 3.817-13.5 2.607-19.883-.835-4.403-4.811-5.805-8.001-8.35-11.722-9.358-48.013-31.289-61.893-52.1" fill="#5F5FF1"/><path d="M184.425 112.822c-.876-.818-2.136-1.641-3.179-1.05-.666.377-.939 1.222-.891 1.986.048.764.352 1.485.581 2.215 1.18 3.766.38 7.82.099 11.756-.629 8.812 1.494 17.8 5.997 25.4 3.849 6.495 10.708-3.783 10.467-8.316-.392-7.393-1.928-15.39-5.414-21.962a38.308 38.308 0 0 0-7.66-10.03M167.952 22.435c-8.37-10.429-25.43-8.621-31.635 4.21-5.68 11.747-.815 35.904 3.526 41.539 7.591 9.854 28.407-.952 30.953-7.728 3.728-9.924 4.196-29.251-2.844-38.021" fill="#5F5FF1"/><path d="M186.442 12.413C171.055 1.531 145.771-2.652 138.434 1.63c-10.921 6.375-2.965 24.7 1.123 25.723 1.866.467 3.584-1.002 5.177-2.08 7.561-5.119 14.304-1.163 19.973-.099 10.045 1.885 34.847-3.488 21.735-12.761" fill="#1B1B35"/><path d="M165.725 24.146c-.528 1.893 3.862 27.071 4.556 26.786 2.472-1.014-.044-9.042 4.618-8.76.652.04 3.02 9.16 3.519 16.94 2.414.233 5.734-16.206 5.772-17.885.429-18.906 1.17-17.94-2.193-19.684-7.413-3.846-15.331-.773-16.272 2.603" fill="#1B1B35"/><path d="M184.697 40.028c.279 3.052-.687 6.2-2.63 8.571-5.56 6.782-11.086-2.43-9.783-8.15 1.553-6.82 11.655-8.723 12.413-.42M34.524 190.704c-3.675.02-7.957.35-10.004 3.402-1.73 2.576-1.038 4.128.85 6.59 1.887 2.46 67.913 31.88 84.39 27.738 8.293-2.085 10.736-9.31 9.244-16.82-2.077-10.454-71.098-20.988-84.48-20.91M32.313 190.132c-.202-.048-1.697-4.716-1.84-4.866-4.021-4.217-2.558-6.464-5.09-9.037-.671-.683-3.472-4.382-4.03-5.159-.56-.778-.761-1.949-.103-2.645.843-.893 2.32-.399 3.419.151 5.344 2.673 11.04 5.69 13.7 11.04.928 1.864 1.352 4.131 1.494 6.516 0 0-5.67 4.444-7.55 4" fill="#5F5FF1"/><path d="M33.31 184.237c9.523 5.421-1.938 20.578-9.743 18.47C17.105 200.958 3.625 190.45.934 184.32c-1.276-2.906-1.865-6.675.348-8.95 2.02-2.076 7.845-4.219 10.278-2.65 6.63 4.278 10.23 4.96 21.75 11.516" fill="#5F5FF1"/><path d="M54.387 194.046c.116.11.22.231.308.368-.1-.125-.208-.243-.308-.368" fill="#18898D"/><g transform="translate(104.278 254.13)"><mask id="b" fill="#fff"><use xlink:href="#a"/></mask><path d="M40.1 188.446c-3.193 6.606-14.87 4.5-21.1 6.31-4.32 1.255-16.37-6.985-18.77-10.275-2.194-3.007 11.88-126.91 18.156-155.8.59-2.715 2.825-9.772 2.825-9.772C24.8 11.856 48.71-5.53 64.03 1.744c13.329 6.33 12.66 37.111 12.19 47.542-1.293 28.662-5.963 19.286-13.774 48.191-7.58 28.055-14.424 74.587-22.346 90.97" fill="#1B1B35" mask="url(#b)"/></g><g transform="translate(147.737 257.447)"><mask id="d" fill="#fff"><use xlink:href="#c"/></mask><path d="M79.642 158.458c.466 6.856-5.465 37.367-11.082 39.822-3.894 1.702-18.423-4.97-21.832-7.904C43.32 187.444-1.9 20.787.062 10.757 2.696-2.697 10.323 9.081 21.95 5.32 38.845-.145 66.804-6.553 72.935 15.094c22.918 80.912.952 58.8 6.707 143.364" fill="#1B1B35" mask="url(#d)"/></g><path d="M263.502 181.314c.046.153.074.31.081.473-.023-.158-.057-.315-.081-.473" fill="#18898D"/><path d="m24.379 185.993 15.484.14c.245 4.111-.363 8.577-.77 11.972-.505 4.226-15.783 6.672-16.59 3.396-.705-2.873.839-10.774 1.876-15.508" fill="#5F5FF1"/></g></svg>
