<svg xmlns="http://www.w3.org/2000/svg" viewBox="0 0 255 255" style="enable-background:new 0 0 255 255" xml:space="preserve"><style>.st2{fill:#abcdf5}.st5{fill:#d38742}.st6,.st9{fill-rule:evenodd;clip-rule:evenodd;fill:#000090}.st9{fill:#01015b}.st21{fill:none;stroke:#000090;stroke-width:4;stroke-linecap:round;stroke-miterlimit:10}</style><g id="Calque_1"><path class="st9" d="M155.44 197.76c0-17.46-36.73-14.02-53.29-8.63-3.57 1.16-8.77 2.29-11.21 5.62-2.18 2.98-13.21 35.57-4.58 37.68 27.94 6.83 67 3.44 67.38-2.21.38-5.65 1.5-21.52 1.44-28.42.16-1.29.26-2.63.26-4.04z"/><path d="M140.51 107.81c1.15 16.28 4.35 32.96 13.51 46.47 1.97 2.91 4.84 5.93 8.34 5.57 2.05-.22 3.82-1.62 4.93-3.36 1.1-1.74 1.62-3.77 2-5.8 2.97-15.91-1.89-32.12-6.73-47.57-1.99-6.36-4.64-17.62-11.12-21.05-6.75-3.57-10.14 7.46-10.76 11.96-.63 4.57-.5 9.2-.17 13.78z" style="fill:#f4a086"/><path d="M139.73 84.68c.31-2.69 1.03-5.87 3.53-7.04 2.64-1.24 5.47.57 7.52 2.41 12.44 11.16 17.15 26.9 19.4 43.81l-29.82 1.84a158.096 158.096 0 0 1-.63-41.02z" style="fill-rule:evenodd;clip-rule:evenodd;fill:#66bcd5"/><path d="M181.22 151.8c.84 1.88-.03 4.17-1.54 5.56s-11.99 6.33-22.29 1.78c-5.18-2.29-5.97-7.28-4.15-12.02 2.54-6.59 26.99 2.46 27.98 4.68z" style="fill:#f7b690"/><path class="st6" d="M84.87 143.88c-4.83-15.51-10.77-34.66-8.09-50.87 6.56-8.01 19.99-26.62 46.6-26.62 18.67 0 32.65 18.85 35.89 23.64 3.61 5.34 2.3 12.95 1.4 19.12-1.92 13.16-7.61 64.87-2.67 100.76H82.62c.15-17.12 7.12-50.41 2.25-66.03z"/><path class="st5" d="M67.53 125.02c3.73-14.24 11.7-27.35 22.64-37.21 1.97-1.78 4.64-3.55 7.07-2.52 1.33.57 2.22 1.89 2.61 3.28.39 1.39.35 2.86.3 4.31-.67 16.85-3.73 33.5-6.79 50.09-.94 5.1-1.9 10.26-4.1 14.95-2.2 4.69-5.82 8.94-10.67 10.77-2.54.96-6.69 1.53-9.02-.3-1.88-1.47-2.19-5.21-2.67-7.34a77.02 77.02 0 0 1-1.59-23.06c.37-4.37 1.11-8.72 2.22-12.97z"/><path class="st6" d="M100.62 84.68c-.14-2.69-.66-5.87-3.09-7.04-2.56-1.24-7.32 1.1-9.48 2.94-13.14 11.16-20.45 26.38-23.77 43.28l33.12 1.84c2.84-13.47 3.94-27.29 3.22-41.02z"/><path class="st5" d="M130.87 47.72c-1.82-8.05-7.91-9.93-11.45-8-2.27 15.06-4.58 21.76-10.48 29.97 7.34 4.71 19.87 3.83 22.58 0 .1-1.2.29-17.81-.65-21.97z"/><path class="st5" d="M130.47 28.83c7.29-5.04 17.77-.67 19.29 8.65 1.39 8.53-7.19 23.17-11.26 25.55-7.12 4.15-16.68-5.82-17.02-10.6-.49-7 2.86-19.36 8.99-23.6z"/><path class="st9" d="M125.29 30.62c-.57-.38-1.33-.34-1.96-.07s-1.14.74-1.64 1.21c-1.7 1.57-3.42 3.16-4.77 5.05-1.35 1.89-2.31 4.13-2.32 6.45 0 1.5.39 3.07-.13 4.48-.46 1.27-1.64 2.43-1.29 3.73.26.97 1.36 1.54 2.36 1.43s1.86-.76 2.49-1.53c.63-.78 1.07-1.69 1.58-2.55 1.69-2.86 4.16-5.19 5.93-8.01 1.76-2.82 2.74-6.52 1.15-9.44l-1.4-.75z"/><path class="st9" d="M159.09 34.39c-1.57-.64-3.15-1.27-4.72-1.91.72.9 1.47 1.83 1.75 2.94.28 1.12-.03 2.47-1.02 3.05-.77.45-1.77.33-2.57-.08-.8-.41-1.43-1.07-2.05-1.72.32.6.66 1.23.66 1.91s-.44 1.42-1.12 1.49c-.54.06-1.03-.29-1.45-.63-2.14-1.68-4.27-3.37-6.41-5.05.13.67.25 1.36.14 2.03s-.5 1.34-1.13 1.59c-1.11.44-2.26-.55-2.94-1.54s-1.38-2.17-2.57-2.35c-1.33-.2-2.42.99-3.23 2.06-.15.19-.29.38-.44.58-1.5 1.97-3 3.94-4.49 5.91-.46.6-.93 1.22-1.55 1.65-.63.43-1.45.64-2.15.37-1.21-.46-14.25-19.71 2.44-25.59 2.42-.85 5.83.09 8.27.86 2.44.77 4.76 1.99 7.28 2.44 2 .36 4.05.22 6.07.42 5.66.57 11.08 5.75 11.23 11.57z"/><path class="st5" d="M117.55 38.47c-.75 1.89-.74 4.07.05 5.94 2.25 5.36 7.5.55 7.75-3.33.31-4.62-5.75-7.74-7.8-2.61z"/><path d="M121.52 173.87h45.23c2.68 0 5.45-2.17 6.2-4.85l19.9-71.07c.75-2.68-.81-4.85-3.49-4.85h-45.23c-2.68 0-5.45 2.17-6.2 4.85l-19.9 71.07c-.75 2.68.81 4.85 3.49 4.85z" style="fill:#0067e2"/><path class="st2" d="m118.03 169.02 19.9-71.07c.75-2.68 3.53-4.85 6.2-4.85h4.82c-2.68 0-5.45 2.17-6.2 4.85l-19.9 71.07c-.75 2.68.81 4.85 3.49 4.85h-4.82c-2.68 0-4.24-2.17-3.49-4.85z"/><path class="st5" d="M124.49 152.78c2.21 1.44 2.58 4.72 1.44 7.1s-39.6 11.71-48.87 11.55c-2.82-.05-6.06-.32-7.72-2.6-1.48-2.04-1.06-4.87-.27-7.26 1.33-4.02 3.67-8.54 6.95-11.32 2.27-1.91 47.05 1.61 48.47 2.53z"/><path class="st5" d="M138.37 145.98c.93-1.29 1.86-3.06.92-4.34-.63-.85-1.87-1.02-2.87-.7-1 .32-1.83 1.02-2.65 1.69-1.1.9-2.31 1.79-3.72 1.99s-3.05-.53-3.38-1.92c-.36-1.51.82-3.42-.3-4.5-.58-.57-1.57-.53-2.28-.14-.71.4-1.22 1.07-1.71 1.73-2.58 3.49-5.22 7.09-6.26 11.31-1.04 4.21-.07 9.23 3.45 11.76 3.15 2.27 7.79 1.93 10.82-.49 2.59-2.07 3.58-5.02 3.92-8.19.37-3.49 1.95-5.27 4.06-8.2zM183.65 142.37c-.17-.49-.64-7.84-.84-8.57-.24-.91-4.15 2.34-2.89 9.3-1.97-.21-1.47-.5-3.44-.71-1.44-.15-4.22.08-5.83 2.39-1.88 2.7-1.74 10.34 2.46 15.06 2.97 3.34 10.01-2.34 11.16-5.45 1.59-4.32.8-7.88-.62-12.02z"/><path class="st2" d="M159.33 124.61c-.11 1.07 1.15 2.18 2.4 2.51 1.77.46 3.16-.52 3.49-1.54.48-1.52-.03-2.83-1.31-3.02-2.38-.36-4.35-.14-4.58 2.05z"/><path class="st21" d="m212.03 73.56-12.82 12.39M191.55 64.69l-3.78 16.43M216.61 100.03l-12.51.97"/></g></svg>
