<svg xmlns="http://www.w3.org/2000/svg" xmlns:xlink="http://www.w3.org/1999/xlink" width="267" height="306"><defs><path id="a" d="M0 0h71.344v48.29H0z"/><path id="c" d="M0 0h66.71v56.707H0z"/><path id="e" d="M0 0h114.908v66.183H0z"/><path id="g" d="M0 0h44.23v24.95H0z"/></defs><g fill="none" fill-rule="evenodd"><g transform="translate(56.568 256.586)"><mask id="b" fill="#fff"><use xlink:href="#a"/></mask><path fill="#1B1B35" d="m13.512 166.716-8.532-48.5C1.932 100.863-1.134 83.205.416 65.166c1.556-18.038 3.59-41.595 16.692-52.889C33.852-2.159 60.44-7.526 65.79 16.788c18.813 85.498-15.444 222.5-24.705 253.382a909 909 0 0 1-8.09 25.551H9.392c3.66-47.925-7.892-103.233 4.12-129.005" mask="url(#b)"/></g><g transform="translate(4.991 248.17)"><mask id="d" fill="#fff"><use xlink:href="#c"/></mask><path fill="#1B1B35" d="M48.665 195.683c-2.885 7.821-7.542 16.622-14.955 16.884-4.499.157-8.649-3.17-11.219-7.402-2.57-4.225-3.84-9.284-5.07-14.244-5.316-21.429-34.532-150.092-2.996-185.7 14.144-15.97 40.971 7.542 46.572 32.142 7.414 32.585 7.064 68.83 2.092 101.811-2.914 19.378-7.733 38.39-14.424 56.51" mask="url(#d)"/></g><g transform="translate(7.667 238.694)"><mask id="f" fill="#fff"><use xlink:href="#e"/></mask><path fill="#1B1B35" d="M63.598 85.526c-10.408-.13-93.888 8.338-51.846-70.829C17.796 3.315 36.055 2.61 48.84.997c17.32-2.187 51.06-2.018 59.389 13.7 25.975 49.056-31.274 71.202-44.632 70.83" mask="url(#f)"/></g><path fill="#01015B" d="M96.247 151.727c-2.524-13.026-4.045-27.76 1.288-40.325 1.667-3.928 1.976-4.551 5.414-2.226 2.705 1.83 5.053 4.96 7.093 7.478 4.167 5.146 7.577 10.886 10.421 16.86 2.966 6.242 5.315 12.746 7.425 19.338L99.161 164.6a220 220 0 0 1-2.914-12.874"/><path fill="#5F5FF1" d="M125.968 152.685c1.352 3.427 2.61 6.883 3.864 10.333 6.87 18.965 6.448 30.304 13.319 49.275.653 1.789 1.3 3.74.525 5.46-1.23 2.734-5.647 3.532-8.935 2.407-3.281-1.13-5.641-3.59-7.768-5.991-16.016-18.09-20.593-31.073-27.54-52.684z"/><path fill="#5F5FF1" d="M203.459 165.623c1.043-2.337 1.87-5.438-.023-7.151-1.801-1.632-4.651-.7-6.842.355-18.5 8.888-66.441 42.417-66.558 51.637-.11 8.608 4.564 12.402 12.513 9.267 16.179-6.37 56.737-44.754 60.91-54.108"/><path fill="#5F5FF1" d="M214.285 162.604c4.517-2.628 8.363-6.912 9.168-12.076.647-4.144-.729-8.392-2.89-11.982-.939-1.562-2.56-3.223-4.29-2.652-1.539.507-2 2.401-2.816 3.8-1.865 3.194-5.985 4.044-9.196 5.87-3.56 2.015-6.23 5.541-7.215 9.516-.776 3.153-.904 10.531 2.908 11.994 3.543 1.364 11.33-2.722 14.331-4.47"/><path fill="#01015B" d="M43.46 211.807c5.812-29.816-24.302-57.885-18.631-87.73 3.869-20.358 25.59-34.8 46.21-32.719 20.62 2.075 38.274 18.743 43.962 38.67 2.698 9.452 3 19.576.897 29.175-1.468 6.708-4.074 13.107-5.816 19.745-3.573 13.597-3.386 27.806-1.306 41.624 1.813 12.053 5.409 20.708 8.987 35.773-33.64-15.916-96.111-8.41-96.111-8.41 3.212-4.616 20.13-27.52 21.809-36.128"/><path fill="#01015B" d="M14.768 127.468c3.928-9.645 10.24-18.65 19.221-23.918 2.21-1.3 4.99-2.355 7.244-1.143 2.122 1.137 2.85 3.783 3.23 6.161 2.494 15.595-1.073 31.39-5.14 46.735L9.09 147.82c1.347-6.942 3.014-13.813 5.677-20.352"/><path fill="#5F5FF1" d="M7.637 156.885c.54-3.305 1.085-6.621 1.697-9.92l28.875 7.478a909 909 0 0 1-1.125 4.394L25.246 204.85c-1.474 5.752-1.925 12.793-7.268 16.132-3.83 2.4-9.172 2.559-12.762-.413-3.117-2.582-4.71-6.767-5.098-10.905-.395-4.138.278-8.293.946-12.39q3.282-20.194 6.573-40.39"/><path fill="#5F5FF1" d="M60.23 284.544c1.854 3.13 3.066 4.955.024 6.954-2.355 1.545-5.31 2.488-7.186.378C40.06 277.288 1.812 217.919.6 213.525c-1.988-7.244 9.614-19.915 18.193-13.656 8.7 6.359 21.616 50.565 38.442 79.017"/><g transform="translate(52.325 279.927)"><mask id="h" fill="#fff"><use xlink:href="#g"/></mask><path fill="#5F5FF1" d="M16.952.735c5.45 1.713 10.904 3.42 16.354 5.135.775.973-.397 2.447-1.632 2.587-1.236.146-2.436-.443-3.672-.594-1.236-.152-2.792.46-2.844 1.707s1.381 1.953 2.576 2.332q8.235 2.62 16.47 5.25c.367 4.523-3.322 8.644-7.64 10.043-4.319 1.398-9.046.61-13.376-.741a53.7 53.7 0 0 1-16.72-8.695c-2.89-2.221-5.7-5.012-6.33-8.602C-1.459.012 11.171-1.077 16.952.735" mask="url(#h)"/></g><path fill="#1B1B35" d="M105.183 13.917c-1.993-6.333-7.74-11.427-14.448-12.8-6.702-1.374-14.098 1.024-18.58 6.028-2.284 2.55-3.928 5.759-6.894 7.532-3.905 2.325-8.912 1.509-13.44 2.218-6.877 1.075-12.92 6.136-14.99 12.564-4.196 13.015 14.611 39.061-1.603 54.716-4.545 4.391-6.807 9.683-9.872 15.137-19.734 35.194 22.251 44.358 35.516 26.615 15.048-20.118-4.744-23.744-2.5-41.836 1.3-10.47 26.564-9.485 30.551-19.297 2.185-5.387.81-11.49 1.905-17.169 1.073-5.545 4.401-9.243 8.457-13.015 3.031-2.82 5.31-7.335 6.213-11.242.717-3.113.647-6.4-.315-9.45"/><path fill="#5F5FF1" d="M84.106 68.767a52.2 52.2 0 0 0-.612 23.044c.472 2.35 1.02 5.082-.53 6.912-1.481 1.75-4.121 1.766-6.405 1.644-3.83-.216-7.74-.443-11.307-1.848-3.572-1.41-6.807-4.23-7.693-7.96-.728-3.084.204-6.289 1.13-9.32 1.778-5.81 3.55-11.62 5.328-17.432.524-1.7 1.095-3.49 2.395-4.703 2.185-2.04 5.805-1.737 8.322-.134 2.524 1.61 4.197 4.214 5.794 6.743z"/><path fill="#5959E9" d="M95.572 67.187c2.244-3.66 3.1-7.973 3.905-12.186 1.107-5.8 2.185-11.686 1.69-17.566-.501-5.887-2.774-11.855-7.338-15.602-5.501-4.53-13.404-5.071-20.328-3.386-6.015 1.463-11.965 4.76-14.763 10.28-1.521 3.002-1.993 6.406-2.447 9.733-.595 4.33-1.178 8.772-.216 13.032 1.067 4.72 3.992 8.864 7.582 12.105s7.839 5.665 12.129 7.897c2.477 1.288 5.035 2.54 7.798 2.955 5.507.827 9.29-2.856 11.988-7.262"/><path fill="#1B1B35" d="M74.86 29.046c-2.967 5.362-2.623 12.478-6.924 16.843-3.49 3.55-9.68 3.987-13.638.962-3.013-2.302-4.563-6.225-4.446-10.019s1.766-7.436 4.138-10.397c2.372-2.966 5.437-5.303 8.66-7.308 4.96-3.083 10.45-5.479 16.255-6.19 3.671-.449 7.465-.18 11.01.933 2.668.845 7.814 2.791 8.263 6.078.443 3.252-2.413 3.59-4.622 2.763-3.362-1.253-6.422-1.795-9.977-.717-3.666 1.107-6.866 3.695-8.719 7.052"/><path fill="#5F5FF1" d="M59.881 43.943c-1.043-.478-2.15-.886-3.299-.938-1.148-.06-2.36.274-3.164 1.095-1.09 1.102-1.253 2.833-.99 4.36.657 3.852 3.735 6.859 7.791 6.417 3.071-.333 4.476-2.955 4.173-5.904-.256-2.518-2.372-4.045-4.51-5.03"/></g></svg>