<svg width="384" height="166" viewBox="0 0 384 166" fill="none" xmlns="http://www.w3.org/2000/svg">
<g clip-path="url(#clip0_157_11810)">
<path d="M240.389 113.007C238.852 113.007 237.113 112.211 235.986 109.245C233.957 103.915 234.353 92.4121 237.045 78.4723C239.096 67.8389 242.476 56.3639 244.959 55.006C246.195 54.3305 247.176 54.2527 247.878 54.7832C249.755 56.2012 248.6 61.4914 248.462 62.0926L247.771 61.9334C248.119 60.4305 248.735 56.3179 247.449 55.349C246.992 55.0024 246.269 55.0979 245.299 55.6283C243.34 56.6998 240.021 66.7922 237.74 78.6103C235.072 92.4263 234.665 103.785 236.649 108.997C237.655 111.639 239.192 112.685 241.353 112.19C255.139 109.043 362.144 97.3699 363.225 97.2532L363.303 97.9569C362.222 98.0736 255.26 109.743 241.512 112.88C241.158 112.961 240.783 113.011 240.389 113.011V113.007Z" fill="#FFED33"/>
<path d="M384 116.321H251.902C247.669 116.321 244.413 112.098 242.235 103.77C240.513 97.1967 239.564 88.3384 239.564 78.826C239.564 70.7669 240.517 55.5293 244.126 55.5293C245.901 55.5293 247.332 56.0739 248.384 57.1454C250.244 59.0443 250.194 61.9016 250.191 62.0254L249.128 62.0006L249.659 62.0148L249.128 62.0041C249.128 61.9794 249.164 59.4616 247.619 57.888C246.776 57.0287 245.604 56.5937 244.126 56.5937C242.649 56.5937 240.627 64.5113 240.627 78.8295C240.627 88.2535 241.562 97.0198 243.262 103.505C244.668 108.87 247.307 115.263 251.902 115.263H384V116.324V116.321Z" fill="#F92385"/>
<path d="M143.678 117.07C96.573 117.07 1.14415 110.896 0 110.822L0.0708454 109.764C1.43108 109.853 136.275 118.573 164.209 115.263C181.967 113.156 181.371 95.6301 180.847 80.1627C180.55 71.3787 180.291 63.7935 183.362 59.9036C186.161 56.3568 188.127 54.9847 189.543 55.5824C191.602 56.4487 191.081 61.1484 190.957 62.0819L189.905 61.9405C190.17 59.9531 190.103 56.9686 189.133 56.5584C188.732 56.3886 187.45 56.4417 184.198 60.5578C181.368 64.1436 181.63 71.9056 181.91 80.1273C182.168 87.7019 182.459 96.2843 180.369 103.084C177.939 110.995 172.696 115.323 164.333 116.313C159.852 116.844 152.64 117.067 143.678 117.067V117.07Z" fill="#00D1FF"/>
<path d="M197.864 106.108L195.072 104.58L193.025 108.307L195.818 109.835L197.864 106.108Z" fill="#D38742"/>
<path d="M219.04 111.083L215.986 110.676L215.44 114.752L218.495 115.16L219.04 111.083Z" fill="#D38742"/>
<path fill-rule="evenodd" clip-rule="evenodd" d="M220.91 11.9171C220.351 12.3662 219.971 12.0479 220.241 11.3902C221.101 9.28966 221.3 8.98201 221.045 6.71883C220.903 5.47407 220.765 5.32202 221.385 5.14521C223.429 4.55819 225.536 8.20404 220.914 11.9171H220.91Z" fill="#01015B"/>
<path fill-rule="evenodd" clip-rule="evenodd" d="M241.473 53.8673C242.217 53.8991 242.922 53.8249 243.666 53.8602C244.927 53.9133 245.717 54.3765 246.804 54.9741C246.935 55.0449 247.084 55.1863 247.006 55.3136C246.974 55.3667 246.907 55.3914 246.847 55.4091C246.255 55.5894 245.738 55.4126 245.129 55.3136C246.113 55.9501 246.956 56.8483 247.885 57.5662C248.001 57.6546 248.129 57.7748 248.111 57.9198C248.09 58.1072 247.86 58.1815 247.672 58.2063C246.142 58.3937 244.565 58.1285 243.166 57.4849C242.245 57.064 239.794 55.7769 240.18 54.5003C240.301 54.0972 240.786 53.7789 241.129 53.9522" fill="#D38742"/>
<path fill-rule="evenodd" clip-rule="evenodd" d="M225.926 37.1763C226.751 37.2612 227.478 37.735 228.129 38.2478C233.453 42.4064 236.471 49.6592 241.618 54.037C242.674 54.8645 241.519 56.1835 240.559 55.5435C238.239 54.1042 235.915 52.665 233.595 51.2293C232.543 50.5786 231.495 49.9279 230.492 49.203C229.189 48.2624 227.343 46.9787 226.132 45.9214C225.271 45.1717 224.406 44.415 223.698 43.5203C223.007 42.6433 222.667 41.6426 222.554 40.5393C222.511 40.1503 222.487 39.7542 222.554 39.3688C222.812 37.8482 224.484 37.0313 225.93 37.1799L225.926 37.1763Z" fill="#D38742"/>
<path fill-rule="evenodd" clip-rule="evenodd" d="M217.191 30.896C216.118 29.1385 215.076 27.2643 214.963 25.2097C214.849 23.1552 215.955 20.8885 217.938 20.3333C218.983 20.0398 220.127 20.2555 221.094 20.7506C222.061 21.2456 221.25 22.3772 221.973 23.187C225.349 26.9602 231.367 39.977 230.435 40.9636C229.557 41.8936 228.487 45.6102 227.145 45.1576C226.199 44.8393 225.753 43.7997 225.296 42.9121C224.137 40.6736 222.986 38.9444 221.396 37.0172C219.823 35.1112 218.477 33.0036 217.191 30.8995V30.896Z" fill="#D38742"/>
<path fill-rule="evenodd" clip-rule="evenodd" d="M219.086 49.9881C216.245 45.4829 207.223 48.2836 206.833 50.7625C206.571 52.4316 207.163 56.18 206.946 57.2939C206.592 59.1186 199.115 76.6158 200.783 78.9179C201.498 79.9045 210.751 84.0773 211.608 80.6047C212.416 77.3337 219.16 65.0099 219.706 61.7566C220.467 57.2373 222.88 56.0103 219.086 49.9845V49.9881Z" fill="#01015B"/>
<path fill-rule="evenodd" clip-rule="evenodd" d="M190.064 111.264C190.914 112.02 191.417 111.96 192.016 112.597C192.82 113.453 192.724 113.615 193.613 114.386C194.977 115.567 196.175 116.561 199.005 116.497C200.067 116.473 196.979 113.41 196.288 112.314C195.859 110.291 195.969 112.724 196.121 109.319C195.37 109.354 193.971 108.795 193.582 107.427C192.862 107.466 192.831 108.406 192.037 108.711C190.185 109.425 189.983 111.189 190.064 111.26V111.264Z" fill="#00005C"/>
<path fill-rule="evenodd" clip-rule="evenodd" d="M211.608 80.6082C214.169 74.0485 211.381 77.0578 205.476 79.4802C203.046 80.4774 201.746 75.5974 200.361 78.4511C199.55 80.1238 198.19 83.0482 196.894 87.0512C195.948 89.9651 194.421 101.154 194.077 102.653C193.706 104.276 193.939 103.385 193.518 105.019C193.252 105.323 198.527 107.423 198.898 106.967C199.122 106.695 201.109 102.2 201.555 101.433C203.199 98.6076 206.702 89.8554 208.126 86.832C209.199 84.5546 210.801 82.6734 211.608 80.6082Z" fill="#01015B"/>
<path fill-rule="evenodd" clip-rule="evenodd" d="M221.35 46.7913C218.682 46.6145 212.164 46.123 210.893 53.2767C210.535 55.2959 210.882 61.0883 211.063 63.0862C211.477 67.7116 215.193 79.1159 215.402 82.9138C215.59 86.2803 225.14 82.9598 224.807 81.0679C224.081 76.9341 225.749 64.7765 225.657 61.2191C225.533 56.279 225.03 47.0353 221.35 46.7913Z" fill="#01015B"/>
<path fill-rule="evenodd" clip-rule="evenodd" d="M216.723 120.044C218.108 120.186 219.316 119.832 220.765 120.196C222.621 120.663 224.134 120.179 224.86 119.107C225.636 117.961 223.152 118.435 219.925 116.996C218.962 116.565 218.714 115.405 218.54 114.457C217.18 114.712 215.912 114.422 215.338 114.146C214.113 116.101 214.229 118.679 214.077 119.747C214.307 119.857 215.342 119.896 216.727 120.041L216.723 120.044Z" fill="#00005C"/>
<path fill-rule="evenodd" clip-rule="evenodd" d="M225.575 63.4646C225.462 56.3603 217.591 77.2771 215.54 83.37C212.976 90.9977 216.376 97.7837 214.283 112.045C214.134 112.427 220.315 112.809 220.51 112.25C220.627 111.914 224.357 88.4869 224.665 85.1311C224.895 82.6027 225.827 79.4024 225.575 63.4681V63.4646Z" fill="#01015B"/>
<path fill-rule="evenodd" clip-rule="evenodd" d="M214.053 15.3896C213.872 16.5955 213.461 17.7306 213.224 18.9294C215.785 20.2131 218.186 21.6594 218.112 20.4571C218.034 19.0107 218.204 16.9385 218.448 15.5134C219.203 11.8039 215.792 10.789 214.63 12.4687C214.46 12.9178 214.123 14.9264 214.053 15.3932V15.3896Z" fill="#D38742"/>
<path fill-rule="evenodd" clip-rule="evenodd" d="M213.092 5.73929C212.632 6.7648 211.849 9.4983 213.429 12.5713C214.137 13.9469 215.317 15.0077 216.66 15.5488C218.161 16.1499 219.84 15.7716 220.556 14.3995C221.934 11.765 222.731 9.29673 221.969 6.65517C221.449 4.84109 220.361 4.70318 218.509 4.10202C216.9 3.58219 214.187 3.30991 213.092 5.73929Z" fill="#D38742"/>
<path fill-rule="evenodd" clip-rule="evenodd" d="M213.999 17.4371C200.652 16.3939 206.199 46.5332 207.056 50.0659C209.235 48.9838 216.139 49.3268 224.654 51.0914C223.875 46.7595 223.663 40.3483 224.36 38.0498C225.519 34.2413 227.021 18.452 213.999 17.4336V17.4371Z" fill="#000090"/>
<path fill-rule="evenodd" clip-rule="evenodd" d="M191.97 54.6488C191.775 55.3667 191.69 56.0704 191.495 56.7847C191.162 58.0011 190.539 58.666 189.713 59.5924C189.614 59.7021 189.444 59.8188 189.338 59.7162C189.292 59.6702 189.285 59.603 189.278 59.5394C189.232 58.9241 189.519 58.4608 189.749 57.888C188.909 58.7084 187.847 59.3308 186.94 60.0769C186.826 60.1688 186.685 60.2679 186.547 60.2219C186.366 60.1618 186.348 59.9178 186.366 59.7304C186.518 58.1992 187.128 56.721 188.063 55.501C188.679 54.6983 190.475 52.5943 191.637 53.2485C192.005 53.4571 192.211 53.9981 191.963 54.2952" fill="#D38742"/>
<path fill-rule="evenodd" clip-rule="evenodd" d="M200.748 35.73C200.829 35.8538 200.896 35.9846 200.943 36.1296C201.311 37.3178 200.082 39.4855 199.55 40.6595C198.81 42.3003 197.864 43.8704 196.887 45.4193C195.902 46.9787 194.875 48.5205 193.954 50.1118C193.511 50.8792 193.089 51.6572 192.717 52.4493C192.367 53.1954 192.19 54.1714 191.754 54.8645C191.194 55.7486 190.061 55.4445 190.05 54.7301C190.443 52.2972 190.836 49.8678 191.23 47.4349C191.407 46.3351 191.587 45.2318 191.846 44.1356C192.268 42.3463 192.65 40.808 193.624 39.1106C194.659 37.3107 195.594 35.1006 197.177 33.6649C197.354 33.5022 197.963 33.8735 198.197 33.8417C198.42 33.8134 198.622 33.9159 198.799 34.022C199.384 34.3756 199.915 34.8 200.379 35.2809C200.514 35.4224 200.645 35.5673 200.751 35.73H200.748Z" fill="#D38742"/>
<path fill-rule="evenodd" clip-rule="evenodd" d="M204.984 22.4409C206.221 20.8284 207.57 19.184 209.363 18.1939C211.155 17.2037 213.503 17.0729 214.602 18.3848C215.179 19.0744 215.693 20.1353 215.544 21.1113C215.399 22.0873 214.991 22.9289 214.492 23.8518C212.876 26.8399 209.476 29.1774 207.156 31.6351C203.482 35.5284 202.473 35.8113 200.787 37.9967C200.316 38.6085 198.038 39.8851 197.354 39.6269C195.626 38.9727 193.975 38.5943 197.177 33.6648C198.002 32.3953 198.838 31.1294 199.685 29.874C201.378 27.3598 203.128 24.8703 204.984 22.4444V22.4409Z" fill="#D38742"/>
<path fill-rule="evenodd" clip-rule="evenodd" d="M204.984 22.4409C206.22 20.8284 207.57 19.184 209.362 18.1939C211.155 17.2037 213.503 17.0729 214.601 18.3848C215.179 19.0744 215.692 20.1353 215.544 21.1113C215.398 22.0873 214.991 22.9289 214.492 23.8518C213.213 26.2176 210.907 28.1413 209.061 30.1251C206.72 28.8238 204.453 27.4163 202.271 25.9064C202.398 25.9948 204.757 22.7308 204.981 22.4409H204.984Z" fill="#000090"/>
<path fill-rule="evenodd" clip-rule="evenodd" d="M217.917 30.6343C216.975 28.8344 216.054 26.9177 215.912 24.8773C215.77 22.8369 216.642 20.6586 218.296 20.2166C219.168 19.9832 220.347 19.9691 221.169 20.5136C221.991 21.0582 222.586 21.7796 223.213 22.6212C224.821 24.7783 225.597 27.6745 226.617 30.1852C224.445 31.7553 222.21 33.2122 219.922 34.5489C220.057 34.4711 218.087 30.9561 217.921 30.6308L217.917 30.6343Z" fill="#000090"/>
<path fill-rule="evenodd" clip-rule="evenodd" d="M216.447 6.12828C217.24 14.7708 214.69 8.69204 214.534 8.67436C213.51 8.57534 214.035 13.1866 212.986 11.5564C211.814 9.73876 211.307 7.64885 211.863 5.7888C212.366 4.10909 216.38 5.39274 216.447 6.12474V6.12828Z" fill="#01015B"/>
<path fill-rule="evenodd" clip-rule="evenodd" d="M213.085 2.23136C209.823 4.0419 211.102 8.62131 216.684 5.90549C217.889 5.31848 220.014 5.81002 222.079 6.29448C224.662 6.90271 225.653 -4.73854 213.085 2.23136Z" fill="#01015B"/>
<path d="M273.814 77.9207L276.917 83.7236C277.735 85.4175 276.23 86.008 274.71 87.129L271.714 89.3356C271.118 89.7741 270.268 89.5725 269.939 88.9113L266.683 82.4117C266.418 81.8813 266.584 81.2377 267.073 80.8982L272.057 77.4574C272.659 77.0402 273.492 77.263 273.811 77.9207" fill="#03299C"/>
<path d="M267.261 57.1631L274.937 53.2626L276.449 59.4475L270.169 62.0749L267.261 57.1631Z" fill="#F92385"/>
<path d="M378.173 7.71604L381.91 15.4568C382.778 17.2532 382.239 19.4139 380.635 20.5985L375.088 24.6899C374.06 25.4467 372.601 25.0966 372.031 23.9579L367.287 14.4914C366.831 13.5791 367.114 12.4687 367.957 11.8888L375.155 6.92039C376.193 6.20254 377.627 6.58091 378.173 7.71604Z" fill="#57FFE1"/>
<path d="M342.028 66.2476L336.339 70.682C336.339 70.682 332.41 64.674 332.262 63.3161C332.113 61.9617 337.95 58.8817 337.95 58.8817L342.028 66.2441V66.2476Z" fill="#C9E0FF"/>
<path d="M332.743 32.9682C334.44 33.969 338.439 36.2569 342.201 37.9119C342.683 38.124 343.242 37.9225 343.48 37.4557L348.467 27.6321C348.726 27.1264 348.499 26.5075 347.979 26.2848L338.804 22.3313C338.344 22.1332 337.812 22.31 337.561 22.7415L332.393 31.6244C332.12 32.0912 332.276 32.6924 332.743 32.9647" fill="#00D0FF"/>
<path d="M299.003 81.6125L299.51 75.5055C299.552 74.9856 300.034 74.6179 300.548 74.7098C302.652 75.0882 307.572 76.0324 308.504 76.7219C309.439 77.4115 308.518 81.7929 308.071 83.6777C307.958 84.1551 307.476 84.4486 307.002 84.3319L299.673 82.539C299.251 82.4365 298.968 82.0404 299.003 81.609" fill="#D48743"/>
<path d="M312.109 69.7449L308.539 68.0688C307.845 67.7434 307.554 66.9124 307.891 66.2264L309.995 61.9546C310.306 61.3217 311.05 61.0281 311.713 61.2792L314.929 62.4992C315.634 62.768 315.992 63.5566 315.726 64.2603C315.315 65.3423 314.685 67.0327 313.98 68.9705C313.703 69.7273 312.839 70.0844 312.109 69.7414" fill="#F92385"/>
<path d="M361.733 77.3726L369.569 73.3873C370.614 72.8568 371.885 73.3908 372.236 74.5082L374.609 82.1253C374.9 83.0553 374.432 84.0525 373.532 84.4309L367.11 87.1219C366.242 87.4862 365.236 87.1573 364.751 86.3511L360.964 80.0283C360.401 79.0876 360.755 77.8712 361.73 77.3726" fill="#FFED33"/>
<path d="M255.369 49.5177C255.369 49.5177 258.607 51.4167 261.434 51.5192L264.693 45.5607L257.916 43.683L255.369 49.5177Z" fill="#00D0FF"/>
<path d="M145.594 52.7781L142.491 58.5811C141.673 60.2749 143.179 60.8655 144.698 61.9865L147.695 64.1931C148.29 64.6316 149.14 64.43 149.47 63.7687L152.725 57.2691C152.991 56.7387 152.824 56.0951 152.335 55.7556L147.351 52.3149C146.749 51.8976 145.917 52.1204 145.598 52.7781" fill="#03299C"/>
<path d="M153.331 83.8545L145.655 79.9505L144.146 86.1353L150.423 88.7663L153.331 83.8545Z" fill="#00D0FF"/>
<path d="M81.7131 33.6542L77.976 41.395C77.1081 43.1914 77.6466 45.3521 79.2512 46.5367L84.7984 50.6281C85.8257 51.3849 87.2851 51.0348 87.8554 49.8961L92.5985 40.4296C93.0555 39.5173 92.7721 38.4069 91.929 37.827L84.7311 32.8586C83.6932 32.1407 82.2586 32.5191 81.7131 33.6542Z" fill="#F92385"/>
<path d="M51.8694 47.8981L57.5583 52.3326C57.5583 52.3326 61.4867 46.3245 61.6354 44.9666C61.7842 43.6122 55.9465 40.5322 55.9465 40.5322L51.8694 47.8946V47.8981Z" fill="#C9E0FF"/>
<path d="M32.1639 63.0756C30.4672 64.0764 26.468 66.3643 22.7061 68.0193C22.2243 68.2314 21.6646 68.0299 21.4273 67.5631L16.4398 57.7395C16.1812 57.2338 16.4079 56.6149 16.9286 56.3922L26.1031 52.4387C26.5636 52.2406 27.0949 52.4174 27.3464 52.8489L32.5146 61.7319C32.7874 62.1986 32.6315 62.7998 32.1639 63.0721" fill="#FFED33"/>
<path d="M113.19 86.443L112.683 80.3359C112.641 79.8161 112.159 79.4483 111.645 79.5403C109.541 79.9187 104.621 80.8628 103.689 81.5524C102.754 82.242 103.675 86.6233 104.122 88.5081C104.235 88.9855 104.717 89.279 105.191 89.1623L112.52 87.3695C112.942 87.2669 113.225 86.8709 113.19 86.4395" fill="#D48743"/>
<path d="M98.5885 66.2229L102.159 64.5467C102.853 64.2214 103.144 63.3904 102.807 62.7043L100.703 58.4326C100.392 57.7996 99.6476 57.5061 98.9852 57.7571L95.7688 58.9771C95.0639 59.2459 94.7062 60.0345 94.9718 60.7382C95.3827 61.8203 96.0133 63.5106 96.7182 65.4484C96.9945 66.2052 97.8588 66.5623 98.5885 66.2193" fill="#00D1FF"/>
<path d="M69.7155 68.974L61.88 64.9887C60.835 64.4583 59.5633 64.9923 59.2127 66.1097L56.8393 73.7267C56.5489 74.6568 57.0165 75.654 57.9162 76.0323L64.3383 78.7234C65.2062 79.0876 66.2122 78.7588 66.6975 77.9525L70.4842 71.6297C71.0474 70.6891 70.6932 69.4727 69.719 68.974" fill="#F92385"/>
<path d="M181.765 48.1245C181.765 48.1245 178.527 50.0234 175.7 50.126L172.441 44.1674L179.218 42.2897L181.765 48.1245Z" fill="#E0000F"/>
</g>
<defs>
<clipPath id="clip0_157_11810">
<rect width="384" height="120.373" fill="white"/>
</clipPath>
</defs>
</svg>
