<svg width="384" height="166" viewBox="0 0 384 166" fill="none" xmlns="http://www.w3.org/2000/svg">
<g clip-path="url(#clip0_175_12160)">
<path d="M162.613 33.5543C162.427 34.3742 162.219 35.1872 162.008 36.0037C160.864 40.4769 161.275 38.0863 160.131 42.5596C160.024 42.9816 159.896 43.4348 159.55 43.7047C159.004 44.1302 158.15 43.8603 157.725 43.3137C157.3 42.7671 157.137 42.0475 157.127 41.3522C157.051 36.1075 157.193 37.4498 158.42 32.468L162.61 33.5578L162.613 33.5543Z" fill="#0067E2"/>
<path fill-rule="evenodd" clip-rule="evenodd" d="M157.905 79.7221C157.383 76.7573 156.864 73.7924 156.342 70.8276C155.782 67.6448 155.222 64.4066 155.506 61.0993C155.789 57.792 156.162 53.471 158.565 51.4022C161.635 48.7556 166.506 47.7696 167.484 52.229C170.931 67.9077 162.586 93.0276 160.888 98.6909C160.418 100.258 159.924 101.822 159.405 103.375H155.08C155.751 94.5878 155.703 84.4444 157.905 79.7186V79.7221Z" fill="#01015B"/>
<path d="M155.08 103.375H159.405C158.8 105.198 158.168 107.011 157.497 108.817C157.262 109.45 156.93 110.17 156.287 110.36C155.461 110.602 154.361 109.876 154.486 109.032C154.745 107.267 154.932 105.354 155.08 103.375Z" fill="#0067E2"/>
<path fill-rule="evenodd" clip-rule="evenodd" d="M154.894 83.4896C154.365 84.9253 153.511 86.5375 152.152 86.5859C151.329 86.6136 150.565 86.0047 150.095 85.2297C149.625 84.4548 149.39 83.5276 149.165 82.6178C148.19 78.6877 147.219 74.7577 146.244 70.8276C145.456 67.6448 144.661 64.4067 144.706 61.0993C144.751 57.792 145.764 54.3463 148.014 52.274C150.89 49.6274 156.124 49.9457 157.148 54.457C158.506 60.4316 158.441 67.0774 157.531 73.1247C156.996 76.6777 156.114 80.1649 154.887 83.4861L154.894 83.4896Z" fill="#01015B"/>
<path fill-rule="evenodd" clip-rule="evenodd" d="M148.533 78.615C151.222 74.7576 156.297 77.1862 155.174 81.8704C153.815 87.5268 151.627 93.1244 149.431 98.5005C148.851 99.9224 148.246 101.33 147.623 102.735L143.413 101.375C144.854 92.5882 145.784 82.552 148.533 78.615Z" fill="#01015B"/>
<path d="M143.409 101.375L147.62 102.735C146.828 104.524 146.006 106.298 145.148 108.056C144.858 108.647 144.467 109.315 143.81 109.398C142.974 109.502 141.957 108.599 142.154 107.779C142.632 105.811 143.036 103.635 143.406 101.375H143.409Z" fill="#0067E2"/>
<path fill-rule="evenodd" clip-rule="evenodd" d="M140.893 110.37C140.965 109.606 141.041 108.827 141.345 108.122C141.643 107.433 141.85 106.714 142.49 106.323C142.576 106.707 143.043 107.291 143.43 107.374C143.734 107.437 145.376 106.873 145.646 107.025C145.843 107.136 145.681 110.325 146.493 111.107C147.309 111.889 148.325 112.411 149.259 113.048C149.584 113.269 149.909 113.512 150.116 113.847C150.327 114.179 150.403 114.622 150.216 114.968C150.199 115.003 150.175 115.023 150.154 115.051L143.471 113.944C143.354 113.691 143.261 113.418 143.171 113.155C142.849 112.204 142.524 111.249 142.203 110.298C141.757 111.346 141.466 112.46 141.342 113.595L140.595 113.47C140.692 112.439 140.792 111.408 140.889 110.374L140.893 110.37Z" fill="#01015B"/>
<path fill-rule="evenodd" clip-rule="evenodd" d="M158.119 61.5525C155.907 61.4902 139.579 62.9156 148.619 48.5653C149.877 46.5657 153.072 46.3477 155.416 46.0537C158.589 45.6524 164.77 45.6835 166.299 48.5653C171.059 57.5602 160.567 61.6217 158.119 61.5525Z" fill="#01015B"/>
<path d="M157.732 30.4199C158.551 28.1297 159.689 25.663 161.701 24.1789C162.33 23.7153 162.437 23.6461 162.762 24.3346C163.018 24.8777 163.097 25.5904 163.18 26.175C163.356 27.3755 163.356 28.6002 163.246 29.8076C163.132 31.0703 162.893 32.3158 162.61 33.5543L156.985 32.7205C157.21 31.9456 157.459 31.1776 157.728 30.4165L157.732 30.4199Z" fill="#FF2D2D"/>
<path d="M152.024 41.6151C152.608 36.0763 146.662 31.4301 147.222 25.8879C147.603 22.1066 151.336 19.121 155.136 19.1729C158.931 19.2213 162.42 21.9855 163.778 25.535C164.421 27.2198 164.639 29.0638 164.407 30.8489C164.245 32.0978 163.872 33.3087 163.661 34.5472C163.225 37.09 163.488 39.6812 164.086 42.1721C164.608 44.3447 165.735 46.4169 166.298 48.5619H148.622C149.134 47.6658 151.858 43.2134 152.028 41.6151H152.024Z" fill="#FF2D2D"/>
<path fill-rule="evenodd" clip-rule="evenodd" d="M153.587 111.796C153.535 111.031 153.483 110.249 153.666 109.505C153.85 108.775 154.112 108.035 154.679 107.547C154.828 107.914 155.205 108.412 155.599 108.426C155.91 108.44 157.455 107.782 157.749 107.89C157.96 107.966 158.302 110.969 159.232 111.605C160.162 112.242 161.255 112.595 162.278 113.069C162.634 113.235 162.993 113.422 163.256 113.716C163.519 114.01 163.664 114.435 163.536 114.805C163.522 114.84 163.505 114.868 163.488 114.899H156.712C156.553 114.667 156.418 114.418 156.283 114.169C155.81 113.28 155.336 112.394 154.862 111.505C154.593 112.612 154.489 113.761 154.555 114.895H153.798C153.725 113.861 153.652 112.827 153.583 111.796H153.587Z" fill="#01015B"/>
<path fill-rule="evenodd" clip-rule="evenodd" d="M160.062 3.70169C159.592 2.53582 158.461 1.66401 157.213 1.51179C155.965 1.35957 154.659 1.9304 153.922 2.95097C153.549 3.4699 153.3 4.103 152.788 4.48355C152.114 4.98519 151.188 4.91254 150.372 5.11665C149.134 5.43147 148.114 6.48318 147.845 7.73208C147.295 10.261 149.615 12.7381 149.131 15.2808C148.913 16.4398 148.139 17.405 147.333 18.2664C146.531 19.1279 145.653 19.9616 145.145 21.0237C144.637 22.0858 144.581 23.4696 145.366 24.3518C145.926 24.9814 146.787 25.234 147.606 25.4173C148.522 25.618 149.459 25.6491 150.396 25.6491C152.567 25.6491 152.567 21.1794 152.678 17.7198C152.743 15.7202 157.369 15.5022 157.936 13.5822C158.247 12.5305 157.894 11.3958 158.002 10.306C158.105 9.24045 158.652 8.48972 159.329 7.71132C159.837 7.13011 160.176 6.23755 160.276 5.48682C160.356 4.88832 160.29 4.2656 160.062 3.70515V3.70169Z" fill="#01015B"/>
<path d="M157.158 14.838C156.926 16.2392 157.016 17.6922 157.414 19.0587C157.538 19.4808 157.68 19.972 157.428 20.3318C157.186 20.6743 156.705 20.7193 156.283 20.7331C155.582 20.7573 154.862 20.7781 154.188 20.5774C153.514 20.3768 152.878 19.9132 152.657 19.2455C152.474 18.6954 152.595 18.0935 152.716 17.5261C152.947 16.4364 153.179 15.3466 153.41 14.2568C153.48 13.9386 153.556 13.603 153.773 13.3608C154.14 12.9526 154.804 12.9491 155.291 13.2051C155.775 13.4577 156.124 13.9074 156.456 14.3433L157.158 14.845V14.838Z" fill="#0067E2"/>
<path d="M159.225 14.3675C159.575 13.6618 159.664 12.8626 159.744 12.0773C159.855 11.0014 159.955 9.90814 159.772 8.8426C159.585 7.77705 159.077 6.72189 158.185 6.10955C157.106 5.3692 155.658 5.39688 154.42 5.81548C153.345 6.17874 152.311 6.87757 151.89 7.92928C151.661 8.5001 151.627 9.12974 151.599 9.74554C151.561 10.5447 151.523 11.3646 151.769 12.1292C152.038 12.9733 152.64 13.686 153.345 14.2188C154.054 14.755 154.866 15.1286 155.685 15.4677C156.159 15.6648 156.646 15.8517 157.155 15.8828C158.171 15.9451 158.804 15.2116 159.225 14.3641V14.3675Z" fill="#0067E2"/>
<path fill-rule="evenodd" clip-rule="evenodd" d="M154.838 7.7286C154.382 8.75608 154.558 10.05 153.843 10.9148C153.262 11.6171 152.138 11.797 151.367 11.3092C150.78 10.9356 150.434 10.2437 150.396 9.54832C150.358 8.85295 150.6 8.16104 150.984 7.58329C151.371 7.00555 151.893 6.52813 152.45 6.10952C153.307 5.46604 154.271 4.94019 155.319 4.71878C155.983 4.57694 156.681 4.56656 157.345 4.71186C157.846 4.82257 158.817 5.09587 158.952 5.69092C159.084 6.27558 158.569 6.38629 158.154 6.26866C157.521 6.09222 156.954 6.04379 156.321 6.29634C155.689 6.54889 155.129 7.08166 154.842 7.72514L154.838 7.7286Z" fill="#01015B"/>
<path d="M152.342 10.69C152.145 10.6174 151.934 10.562 151.724 10.5724C151.513 10.5828 151.298 10.6624 151.163 10.8215C150.984 11.0395 150.98 11.3577 151.053 11.6345C151.236 12.3264 151.845 12.8281 152.577 12.6828C153.134 12.572 153.348 12.0704 153.245 11.5376C153.158 11.081 152.747 10.8353 152.342 10.69Z" fill="#0067E2"/>
<path fill-rule="evenodd" clip-rule="evenodd" d="M216.108 84.4755C215.51 85.7383 214.694 87.1636 213.508 87.5165C212.689 87.7621 210.38 86.2088 209.92 85.586C209.457 84.9633 210.888 54.8894 211.921 53.0593C213.308 50.603 224.246 53.9968 223.869 58.2555C223.388 63.7009 221.836 69.4956 219.997 74.8995C218.894 78.1411 217.591 81.3446 216.108 84.479V84.4755Z" fill="#01015B"/>
<path d="M229.677 112.394C228.481 112.571 227.243 112.47 226.088 112.104C226.168 110.692 226.251 109.281 226.33 107.869C226.341 107.689 226.355 107.502 226.448 107.354C226.586 107.132 226.866 107.046 227.125 107.001C228.104 106.828 229.59 106.776 229.622 108.001C229.66 109.464 229.656 110.931 229.673 112.394H229.677Z" fill="#D38742"/>
<path d="M209.84 112.394C208.62 112.571 207.396 112.47 206.29 112.104C206.553 110.692 206.812 109.281 207.075 107.869C207.109 107.689 207.144 107.502 207.258 107.354C207.427 107.132 207.714 107.046 207.98 107.001C208.979 106.828 210.473 106.776 210.352 108.001C210.203 109.464 210.013 110.931 209.844 112.394H209.84Z" fill="#D38742"/>
<path fill-rule="evenodd" clip-rule="evenodd" d="M210.241 81.0159C211.804 78.5181 215.569 76.8056 217.148 81.1404C219.561 87.7517 211.911 100.116 210.77 108.101H206.674C206.559 107.329 209.374 82.4032 210.241 81.0159Z" fill="#01015B"/>
<path fill-rule="evenodd" clip-rule="evenodd" d="M230.064 60.3832C229.065 61.1685 227.748 61.2896 226.51 61.2896C216.326 61.2896 210.435 57.9753 211.842 53.2945C213.287 48.4858 222.403 49.2607 227.163 50.8106C228.19 51.1462 229.684 51.4679 230.385 52.4262C231.402 53.8169 232.487 58.47 230.064 60.3832Z" fill="#01015B"/>
<path d="M213.532 25.9951C210.777 29.7971 207.465 33.3847 203.175 35.2944C202.252 35.7061 201.09 36.0071 200.295 35.3843C199.828 35.0211 199.607 34.4053 199.604 33.8137C199.597 33.2221 199.78 32.6444 199.994 32.0943C201.688 27.756 205.336 24.5352 208.862 21.4977C210.314 20.2453 212.671 17.8997 214.773 18.045C216.962 18.1972 216.115 21.4112 215.582 22.6013C215.043 23.8086 214.307 24.9226 213.532 25.9916V25.9951Z" fill="#D38742"/>
<path d="M217.238 20.4633C217.57 19.7575 217.878 18.8719 217.446 18.2076C216.989 17.5053 216.025 17.5157 215.244 17.6541C210.514 18.4879 206.971 21.6188 203.853 25.4035L210.853 30.3853C213.384 27.3997 215.537 24.0577 217.238 20.4633Z" fill="#000090"/>
<path fill-rule="evenodd" clip-rule="evenodd" d="M229.2 84.4755C228.854 85.7383 228.325 87.1636 227.215 87.5165C226.444 87.7621 223.824 86.2088 223.236 85.586C222.648 84.9633 217.926 59.7328 218.59 57.9027C219.482 55.4464 221.715 53.855 224.014 53.4883C227.354 52.9555 231.198 53.9934 231.678 58.2555C232.294 63.7009 231.913 69.4956 231.16 74.8995C230.707 78.1411 230.054 81.3446 229.2 84.479V84.4755Z" fill="#01015B"/>
<path d="M187.307 36.3496C186.733 36.7509 186.097 37.2629 186.104 37.9618C186.111 38.5533 186.612 39.0481 187.176 39.2314C187.736 39.4148 201.049 36.5918 203.189 34.1632C204.267 32.9419 203.87 31.5443 202.826 30.5237C201.374 29.1053 189.402 34.8931 187.307 36.3496Z" fill="#D38742"/>
<path fill-rule="evenodd" clip-rule="evenodd" d="M222.406 81.016C223.374 78.5216 227.201 76.5497 229.345 81.1405C232.795 88.5267 230.69 99.5696 230.053 108.101H225.957C225.66 107.329 221.871 82.4032 222.41 81.016H222.406Z" fill="#01015B"/>
<path d="M210.739 22.2969C209.702 23.8329 210.079 26.0228 210.338 27.7976C210.891 31.5962 212.194 35.2772 212.958 39.0481C213.722 42.819 213.919 46.8182 212.319 50.3747C212.066 50.9317 211.769 51.4887 211.717 52.0872C211.665 52.6857 211.925 53.3534 212.53 53.6232C212.882 53.7823 213.297 53.7823 213.695 53.7789C219.043 53.7443 224.391 53.7097 229.739 53.6751C230.095 53.6751 230.475 53.6647 230.766 53.4814C231.409 53.08 231.184 52.2082 230.956 51.544C229.414 47.0846 230.731 42.2828 232.131 37.7888C233.521 33.3294 235.225 27.8184 234.458 23.1514C232.57 20.8439 228.712 15.4919 221.058 15.4919C215.689 15.4919 211.672 20.9165 210.742 22.2934L210.739 22.2969Z" fill="#000090"/>
<path d="M237.116 32.3676C236.041 28.2715 233.753 24.5006 230.61 21.6637C230.043 21.1517 229.279 20.6397 228.577 20.9407C228.194 21.1033 227.938 21.4838 227.827 21.8851C227.713 22.2865 227.724 22.7085 227.741 23.1237C227.934 27.9705 228.813 32.762 229.691 37.5327C229.96 38.9996 230.237 40.4837 230.869 41.833C231.502 43.1822 232.543 44.4034 233.936 44.9327C234.665 45.2095 235.858 45.3721 236.529 44.8462C237.068 44.4242 237.158 43.3482 237.296 42.7359C237.78 40.5633 237.936 38.3181 237.752 36.1005C237.649 34.8412 237.438 33.5923 237.116 32.3676Z" fill="#D38742"/>
<path fill-rule="evenodd" clip-rule="evenodd" d="M238.333 33.9071C238.34 33.938 238.344 33.9655 238.344 33.9965C238.344 33.9655 238.337 33.938 238.333 33.9071Z" fill="#18898D"/>
<path d="M227.603 20.7608C227.644 19.9858 227.793 19.0725 228.491 18.7335C229.227 18.3771 230.593 19.0483 231.219 19.5776C234.997 22.7881 237.096 27.1644 238.05 32.0285L228.526 32.5579C227.71 28.6866 227.395 24.7081 227.603 20.7573V20.7608Z" fill="#000090"/>
<path d="M224.294 30.2745C223.54 30.2019 222.87 30.8765 222.7 31.6169C222.531 32.3572 231.27 44.0989 233.383 45.7215C234.026 46.2162 234.804 46.7351 235.585 46.5172C236.283 46.3234 236.695 45.6108 236.944 44.9292C237.362 43.7876 237.645 42.3484 237.403 41.1341C237.237 40.2969 236.477 40.0374 235.865 39.5565C233.614 37.7956 224.778 30.3161 224.294 30.2711V30.2745Z" fill="#D38742"/>
<path d="M221.923 21.9647C221.698 21.7606 221.376 21.5531 221.117 21.7053C220.948 21.8021 220.882 22.0166 220.896 22.2104C220.91 22.4041 220.989 22.584 221.048 22.7708C221.356 23.7222 221.162 24.7497 221.1 25.7495C220.962 27.9844 221.522 30.2538 222.68 32.1704C223.668 33.8068 225.38 31.1879 225.311 30.0394C225.193 28.1677 224.785 26.1474 223.886 24.4902C223.375 23.5492 222.711 22.6913 221.923 21.9682V21.9647Z" fill="#D38742"/>
<path fill-rule="evenodd" clip-rule="evenodd" d="M214.324 7.91198C214.58 8.3375 214.901 8.22334 214.887 7.73208C214.836 6.15452 214.78 5.90889 215.492 4.49393C215.883 3.71553 216.011 3.6498 215.651 3.38687C214.466 2.5116 212.215 4.37977 214.324 7.91544V7.91198Z" fill="#01015B"/>
<path d="M218.908 10.1296C219.434 7.81519 221.183 7.27204 222.199 7.82903C222.853 12.1639 223.516 14.0874 225.214 16.4502C223.105 17.8029 219.503 17.5538 218.721 16.4502C218.69 16.1043 218.635 11.3266 218.908 10.1296Z" fill="#D38742"/>
<path d="M220.996 3.94741C219.395 1.96509 216.149 2.32142 214.974 4.77079C213.899 7.01258 215.078 11.7487 216.008 12.7347C217.632 14.4576 221.082 12.4856 221.563 11.1917C222.268 9.29935 222.344 5.61492 220.996 3.94741Z" fill="#D38742"/>
<path fill-rule="evenodd" clip-rule="evenodd" d="M220.153 4.59434C220.052 4.95413 220.906 9.75254 221.038 9.69719C221.508 9.50345 222.106 8.15768 222.994 8.20612C223.278 8.22342 223.669 8.40677 223.679 7.8394C223.748 4.23454 223.89 4.42136 223.25 4.08924C221.836 3.35928 220.329 3.95086 220.153 4.59434Z" fill="#01015B"/>
<path fill-rule="evenodd" clip-rule="evenodd" d="M224.09 2.34563C221.152 0.280274 216.336 -0.501586 214.939 0.321789C212.862 1.54301 214.39 5.03025 215.168 5.22398C215.524 5.31047 215.849 5.03025 216.153 4.82267C217.591 3.84362 218.877 4.59088 219.956 4.79154C221.871 5.14441 226.59 4.10655 224.087 2.34563H224.09Z" fill="#01015B"/>
<path d="M223.776 7.656C223.831 8.23721 223.648 8.83917 223.281 9.29237C222.227 10.5897 221.169 8.83571 221.415 7.74595C221.705 6.44515 223.627 6.07498 223.779 7.65946L223.776 7.656Z" fill="#D38742"/>
<path fill-rule="evenodd" clip-rule="evenodd" d="M198.473 114.466C198.422 113.878 198.978 113.394 199.549 113.256C200.122 113.121 200.721 113.225 201.308 113.218C202.988 113.197 204.617 112.19 205.388 110.699C205.495 110.495 205.595 110.267 205.795 110.156C206.062 110.004 206.411 110.118 206.649 110.312C206.888 110.505 207.054 110.772 207.272 110.99C207.662 111.381 208.215 111.595 208.765 111.588C209.225 111.581 209.74 111.228 210.182 111.464C210.573 111.668 210.677 112.211 210.777 112.595C210.947 113.259 211.102 113.93 211.265 114.594C211.299 114.743 211.337 114.895 211.348 115.048H208.15C208.001 114.837 207.88 114.228 207.814 113.975C207.804 114.235 207.7 114.847 207.538 115.048H198.747C198.594 114.885 198.491 114.688 198.47 114.466H198.473Z" fill="#01015B"/>
<path fill-rule="evenodd" clip-rule="evenodd" d="M224.495 114.466C224.47 113.878 224.716 113.394 224.968 113.256C225.221 113.117 225.611 112.135 226.133 110.695C226.372 110.038 227.699 109.855 228.363 110.986C228.577 111.353 228.778 111.591 229.02 111.585C229.224 111.578 229.449 111.225 229.642 111.46C229.815 111.664 229.86 112.207 229.905 112.591C229.981 113.256 230.047 113.927 230.119 114.591C230.137 114.74 230.15 114.892 230.154 115.044H224.616C224.55 114.882 224.501 114.684 224.495 114.463V114.466Z" fill="#01015B"/>
<path d="M182.816 36.3461C182.011 36.7924 181.32 37.5742 181.257 38.4945C181.199 39.3524 181.71 40.1931 182.447 40.6429C183.183 41.0891 184.099 41.1722 184.939 40.9957C185.779 40.8193 187.722 39.688 187.864 37.7818C187.95 36.6125 187.283 36.1869 186.284 35.9275C185.164 35.6369 183.826 35.7891 182.816 36.3495V36.3461Z" fill="#D38742"/>
<path d="M184.628 37.6953L185.858 35.0142C186.591 35.2909 187.321 35.7476 187.877 36.0832C188.572 36.5018 187.805 39.349 187.172 39.2314C186.619 39.131 185.364 38.2454 184.624 37.6953H184.628Z" fill="#D38742"/>
<path d="M185.247 39.2106C185.447 39.1968 185.651 39.1726 185.848 39.2141C186.045 39.2556 186.239 39.3871 186.291 39.5808C186.36 39.8368 186.166 40.0859 185.976 40.2693C185.053 41.148 183.781 41.6531 182.505 41.6427C181.9 41.6393 181.198 41.4455 180.977 40.8851C180.773 40.3731 181.091 39.7711 181.555 39.4701C182.816 38.6502 183.909 39.2937 185.243 39.2141L185.247 39.2106Z" fill="#D38742"/>
<path fill-rule="evenodd" clip-rule="evenodd" d="M157.905 79.7221C157.383 76.7573 156.864 73.7924 156.342 70.8276C155.782 67.6448 155.222 64.4066 155.506 61.0993C155.789 57.792 156.162 53.471 158.565 51.4022C161.635 48.7556 166.506 47.7696 167.484 52.229C170.931 67.9077 162.586 93.0276 160.888 98.6909C160.418 100.258 159.924 101.822 159.405 103.375H155.08C155.751 94.5878 155.703 84.4444 157.905 79.7186V79.7221Z" fill="#01015B"/>
<path d="M155.08 103.375H159.405C158.8 105.198 158.168 107.011 157.497 108.817C157.262 109.45 156.93 110.17 156.287 110.36C155.461 110.602 154.361 109.876 154.486 109.032C154.745 107.267 154.932 105.354 155.08 103.375Z" fill="#0067E2"/>
<path fill-rule="evenodd" clip-rule="evenodd" d="M154.894 83.4896C154.365 84.9253 153.511 86.5375 152.152 86.5859C151.329 86.6136 150.565 86.0047 150.095 85.2297C149.625 84.4548 149.39 83.5276 149.165 82.6178C148.19 78.6877 147.219 74.7577 146.244 70.8276C145.456 67.6448 144.661 64.4067 144.706 61.0993C144.751 57.792 145.764 54.3463 148.014 52.274C150.89 49.6274 156.124 49.9457 157.148 54.457C158.506 60.4316 158.441 67.0774 157.531 73.1247C156.996 76.6777 156.114 80.1649 154.887 83.4861L154.894 83.4896Z" fill="#01015B"/>
<path fill-rule="evenodd" clip-rule="evenodd" d="M148.533 78.615C151.222 74.7576 156.297 77.1862 155.174 81.8704C153.815 87.5268 151.627 93.1244 149.431 98.5005C148.851 99.9224 148.246 101.33 147.623 102.735L143.413 101.375C144.854 92.5882 145.784 82.552 148.533 78.615Z" fill="#01015B"/>
<path d="M143.409 101.375L147.62 102.735C146.828 104.524 146.006 106.298 145.148 108.056C144.858 108.647 144.467 109.315 143.81 109.398C142.974 109.502 141.957 108.599 142.154 107.779C142.632 105.811 143.036 103.635 143.406 101.375H143.409Z" fill="#0067E2"/>
<path fill-rule="evenodd" clip-rule="evenodd" d="M140.893 110.37C140.965 109.606 141.041 108.827 141.345 108.122C141.643 107.433 141.85 106.714 142.49 106.323C142.576 106.707 143.043 107.291 143.43 107.374C143.734 107.437 145.376 106.873 145.646 107.025C145.843 107.136 145.681 110.325 146.493 111.107C147.309 111.889 148.325 112.411 149.259 113.048C149.584 113.269 149.909 113.512 150.116 113.847C150.327 114.179 150.403 114.622 150.216 114.968C150.199 115.003 150.175 115.023 150.154 115.051L143.471 113.944C143.354 113.691 143.261 113.418 143.171 113.155C142.849 112.204 142.524 111.249 142.203 110.298C141.757 111.346 141.466 112.46 141.342 113.595L140.595 113.47C140.692 112.439 140.792 111.408 140.889 110.374L140.893 110.37Z" fill="#01015B"/>
<path fill-rule="evenodd" clip-rule="evenodd" d="M158.119 61.5525C155.907 61.4902 139.579 62.9156 148.619 48.5653C149.877 46.5657 153.072 46.3477 155.416 46.0537C158.589 45.6524 164.77 45.6835 166.299 48.5653C171.059 57.5602 160.567 61.6217 158.119 61.5525Z" fill="#01015B"/>
<path fill-rule="evenodd" clip-rule="evenodd" d="M153.587 111.796C153.535 111.031 153.483 110.249 153.666 109.505C153.85 108.775 154.112 108.035 154.679 107.547C154.828 107.914 155.205 108.412 155.599 108.426C155.91 108.44 157.455 107.782 157.749 107.89C157.96 107.966 158.302 110.969 159.232 111.605C160.162 112.242 161.255 112.595 162.278 113.069C162.634 113.235 162.993 113.422 163.256 113.716C163.519 114.01 163.664 114.435 163.536 114.805C163.522 114.84 163.505 114.868 163.488 114.899H156.712C156.553 114.667 156.418 114.418 156.283 114.169C155.81 113.28 155.336 112.394 154.862 111.505C154.593 112.612 154.489 113.761 154.555 114.895H153.798C153.725 113.861 153.652 112.827 153.583 111.796H153.587Z" fill="#01015B"/>
<path d="M149.528 29.472C148.27 28.0363 147.312 26.2615 147.188 24.3553C147.157 23.8883 147.212 23.3451 147.596 23.0718C147.955 22.8193 148.45 22.9161 148.868 23.0476C151.627 23.9194 153.922 25.8014 156.104 27.7284L152.398 32.0701C151.371 31.2779 150.382 30.4407 149.528 29.4685V29.472Z" fill="#FF2D2D"/>
<path d="M153.877 33.1772C153.383 32.8139 152.885 32.4472 152.398 32.0701L156.104 27.7284C156.311 27.9118 156.519 28.0986 156.726 28.2819C158.9 30.2193 160.003 31.8626 162.178 33.7999C162.994 34.5264 165.178 35.4743 165.268 36.6644C165.331 37.5189 164.898 38.4496 164.103 38.8232C163.412 39.1449 161.521 38.7851 160.809 38.5118C160.097 38.2385 159.474 37.7819 158.859 37.3321C156.84 35.8514 155.896 34.6614 153.877 33.1807V33.1772Z" fill="#0067E2"/>
<path d="M179.622 36.3877C180.289 36.4119 181.859 36.5018 181.866 37.1695C181.873 37.685 180.555 38.1382 180.047 38.2212C176.511 38.7886 163.668 39.4355 162.869 39.1864C161.555 38.7782 160.733 35.457 162.548 34.7547C164.387 34.0386 173.569 36.1766 179.622 36.3911V36.3877Z" fill="#0067E2"/>
<path d="M181.479 35.6058C182.512 35.4467 183.549 35.291 184.583 35.1318C184.79 35.2287 184.714 35.5677 184.524 35.6888C184.334 35.8099 184.089 35.8134 183.874 35.886C183.66 35.9621 183.452 36.187 183.542 36.3946C183.636 36.6056 183.926 36.6056 184.154 36.571C185.198 36.4153 186.242 36.2631 187.286 36.1074C187.712 36.8236 187.438 37.7992 186.84 38.3769C186.242 38.9546 185.402 39.2072 184.579 39.3317C183.435 39.5082 182.26 39.4805 181.126 39.2487C180.473 39.1138 179.785 38.882 179.39 38.3423C178.391 36.9654 180.383 35.7649 181.479 35.5989V35.6058Z" fill="#0067E2"/>
<path fill-rule="evenodd" clip-rule="evenodd" d="M160.062 3.70169C159.592 2.53582 158.461 1.66401 157.213 1.51179C155.965 1.35957 154.659 1.9304 153.922 2.95097C153.549 3.4699 153.3 4.103 152.788 4.48355C152.114 4.98519 151.188 4.91254 150.372 5.11665C149.134 5.43147 148.114 6.48318 147.845 7.73208C147.295 10.261 149.615 12.7381 149.131 15.2808C148.913 16.4398 148.139 17.405 147.333 18.2664C146.531 19.1279 145.653 19.9616 145.145 21.0237C144.637 22.0858 144.581 23.4696 145.366 24.3518C145.926 24.9814 146.787 25.234 147.606 25.4173C148.522 25.618 149.459 25.6491 150.396 25.6491C152.567 25.6491 152.567 21.1794 152.678 17.7198C152.743 15.7202 157.369 15.5022 157.936 13.5822C158.247 12.5305 157.894 11.3958 158.002 10.306C158.105 9.24045 158.652 8.48972 159.329 7.71132C159.837 7.13011 160.176 6.23755 160.276 5.48682C160.356 4.88832 160.29 4.2656 160.062 3.70515V3.70169Z" fill="#01015B"/>
<path d="M157.158 14.838C156.926 16.2392 157.016 17.6922 157.414 19.0587C157.538 19.4808 157.68 19.972 157.428 20.3318C157.186 20.6743 156.705 20.7193 156.283 20.7331C155.582 20.7573 154.862 20.7781 154.188 20.5774C153.514 20.3768 152.878 19.9132 152.657 19.2455C152.474 18.6954 152.595 18.0935 152.716 17.5261C152.947 16.4364 153.179 15.3466 153.41 14.2568C153.48 13.9386 153.556 13.603 153.773 13.3608C154.14 12.9526 154.804 12.9491 155.291 13.2051C155.775 13.4577 156.124 13.9074 156.456 14.3433L157.158 14.845V14.838Z" fill="#0067E2"/>
<path d="M159.225 14.3675C159.575 13.6618 159.664 12.8626 159.744 12.0773C159.855 11.0014 159.955 9.90814 159.772 8.8426C159.585 7.77705 159.077 6.72189 158.185 6.10955C157.106 5.3692 155.658 5.39688 154.42 5.81548C153.345 6.17874 152.311 6.87757 151.89 7.92928C151.661 8.5001 151.627 9.12974 151.599 9.74554C151.561 10.5447 151.523 11.3646 151.769 12.1292C152.038 12.9733 152.64 13.686 153.345 14.2188C154.054 14.755 154.866 15.1286 155.685 15.4677C156.159 15.6648 156.646 15.8517 157.155 15.8828C158.171 15.9451 158.804 15.2116 159.225 14.3641V14.3675Z" fill="#0067E2"/>
<path fill-rule="evenodd" clip-rule="evenodd" d="M154.838 7.7286C154.382 8.75608 154.558 10.05 153.843 10.9148C153.262 11.6171 152.138 11.797 151.367 11.3092C150.78 10.9356 150.434 10.2437 150.396 9.54832C150.358 8.85295 150.6 8.16104 150.984 7.58329C151.371 7.00555 151.893 6.52813 152.45 6.10952C153.307 5.46604 154.271 4.94019 155.319 4.71878C155.983 4.57694 156.681 4.56656 157.345 4.71186C157.846 4.82257 158.817 5.09587 158.952 5.69092C159.084 6.27558 158.569 6.38629 158.154 6.26866C157.521 6.09222 156.954 6.04379 156.321 6.29634C155.689 6.54889 155.129 7.08166 154.842 7.72514L154.838 7.7286Z" fill="#01015B"/>
<path d="M152.342 10.69C152.145 10.6174 151.934 10.562 151.724 10.5724C151.513 10.5828 151.298 10.6624 151.163 10.8215C150.984 11.0395 150.98 11.3577 151.053 11.6345C151.236 12.3264 151.845 12.8281 152.577 12.6828C153.134 12.572 153.348 12.0704 153.245 11.5376C153.158 11.081 152.747 10.8353 152.342 10.69Z" fill="#0067E2"/>
<path d="M185.672 35.7857C184.621 36.1628 182.955 36.6125 182.305 36.8547C182.135 36.917 181.976 37.0208 181.796 37.0588C181.617 37.0969 181.399 37.0381 181.33 36.8686C181.24 36.6506 181.44 36.4326 181.624 36.2873C182.505 35.5678 183.473 34.8136 184.611 34.7686C185.008 34.7513 185.433 34.8551 185.859 35.0177C185.859 35.0177 185.772 35.8653 185.672 35.7892V35.7857Z" fill="#D38742"/>
<path d="M106.388 44.4692L103.359 50.1463C102.561 51.8035 104.03 52.3812 105.513 53.4779L108.438 55.6367C109.018 56.0656 109.848 55.8684 110.17 55.2215L113.347 48.8628C113.606 48.3439 113.443 47.7143 112.966 47.3822L108.102 44.016C107.515 43.6078 106.702 43.8257 106.391 44.4692" fill="#03299C"/>
<path d="M117.793 29.3717L110.301 25.5558L108.825 31.6031L114.954 34.177L117.793 29.3717Z" fill="#F92385"/>
<path d="M4.0481 7.84283L0.400897 15.4193C-0.446083 17.1767 0.0793906 19.2905 1.64544 20.4495L7.0592 24.4522C8.06175 25.1925 9.48605 24.85 10.0426 23.736L14.6716 14.4748C15.1176 13.5822 14.841 12.4959 14.0183 11.9286L6.99351 7.06789C5.98059 6.3656 4.58048 6.73577 4.0481 7.84629" fill="#57FFE1"/>
<path d="M32.5171 40.4388L38.0691 44.7771C38.0691 44.7771 41.903 38.8993 42.0482 37.5708C42.1934 36.2458 36.4962 33.2325 36.4962 33.2325L32.5171 40.4353V40.4388Z" fill="#C9E0FF"/>
<path d="M59.6964 16.6959C58.0405 17.6749 54.1375 19.9133 50.4661 21.5323C49.9959 21.7399 49.4497 21.5427 49.2181 21.0861L44.3505 11.4754C44.0982 10.9807 44.3194 10.3753 44.8276 10.1573L53.7814 6.28953C54.2308 6.0958 54.7494 6.26877 54.9948 6.69084L60.0387 15.3813C60.3049 15.8379 60.1528 16.426 59.6964 16.6924" fill="#00D0FF"/>
<path d="M78.3922 36.0452L77.8979 30.0705C77.8564 29.562 77.3862 29.2022 76.885 29.2921C74.8315 29.6623 70.0296 30.586 69.1204 31.2606C68.2077 31.9352 69.1066 36.2216 69.5422 38.0656C69.6528 38.5326 70.123 38.8198 70.5862 38.7056L77.7389 36.9516C78.1503 36.8513 78.4268 36.4638 78.3922 36.0417" fill="#D48743"/>
<path d="M54.3138 67.5029L57.7985 65.8631C58.4761 65.5448 58.7596 64.7318 58.4312 64.0607L56.3777 59.8815C56.0735 59.2623 55.3475 58.9751 54.701 59.2207L51.562 60.4143C50.874 60.6772 50.5249 61.4487 50.7842 62.1372C51.1852 63.1958 51.8005 64.8494 52.4885 66.7453C52.7582 67.4856 53.6017 67.835 54.3138 67.4995" fill="#F92385"/>
<path d="M18.8859 53.0351L11.2388 49.1361C10.219 48.6172 8.97793 49.1396 8.63568 50.2328L6.31945 57.6847C6.03597 58.5946 6.4923 59.5702 7.3704 59.9403L13.638 62.5731C14.485 62.9294 15.4668 62.6077 15.9405 61.8189L19.6361 55.6332C20.1857 54.7129 19.84 53.5229 18.8893 53.0351" fill="#FFED33"/>
<path d="M135.365 38.3665C135.365 38.3665 132.205 40.2243 129.446 40.3246L126.266 34.4952L132.879 32.6582L135.365 38.3665Z" fill="#00D0FF"/>
<path d="M287.945 29.2713L290.974 34.9485C291.772 36.6056 290.303 37.1833 288.82 38.28L285.895 40.4388C285.315 40.8678 284.485 40.6706 284.163 40.0236L280.986 33.665C280.727 33.146 280.89 32.5164 281.367 32.1843L286.231 28.8181C286.818 28.4099 287.631 28.6278 287.942 29.2713" fill="#03299C"/>
<path d="M268.707 52.6614L276.198 48.8455L277.671 54.8928L271.542 57.4667L268.707 52.6614Z" fill="#00D0FF"/>
<path d="M379.952 11.247L383.599 18.82C384.446 20.5775 383.92 22.6913 382.354 23.8502L376.941 27.8529C375.938 28.5933 374.514 28.2508 373.957 27.1368L369.328 17.8756C368.882 16.983 369.159 15.8967 369.982 15.3293L377.006 10.4686C378.019 9.76636 379.419 10.1365 379.952 11.247Z" fill="#F92385"/>
<path d="M356.25 34.99L350.698 39.3282C350.698 39.3282 346.864 33.4504 346.719 32.122C346.574 30.797 352.271 27.7837 352.271 27.7837L356.25 34.9865V34.99Z" fill="#C9E0FF"/>
<path d="M324.304 20.0965C325.96 21.0756 329.863 23.3139 333.534 24.933C334.004 25.1406 334.55 24.9434 334.782 24.4867L339.649 14.876C339.902 14.3813 339.681 13.7759 339.172 13.558L330.219 9.69017C329.769 9.49643 329.251 9.66941 329.005 10.0915L323.961 18.7819C323.695 19.2385 323.847 19.8267 324.304 20.0931" fill="#FFED33"/>
<path d="M300.775 63.604L301.269 57.6294C301.31 57.1208 301.781 56.761 302.282 56.851C304.335 57.2211 309.137 58.1448 310.046 58.8195C310.959 59.4941 310.06 63.7805 309.625 65.6244C309.514 66.0914 309.044 66.3786 308.581 66.2644L301.428 64.5104C301.017 64.4101 300.74 64.0226 300.775 63.6006" fill="#D48743"/>
<path d="M324.151 46.5276L320.667 44.8878C319.989 44.5695 319.706 43.7565 320.034 43.0853L322.087 38.9062C322.392 38.2869 323.118 37.9998 323.764 38.2454L326.903 39.439C327.591 39.7019 327.94 40.4734 327.681 41.1618C327.28 42.2204 326.665 43.8741 325.977 45.7699C325.707 46.5103 324.863 46.8597 324.151 46.5241" fill="#00D1FF"/>
<path d="M345.665 58.4977L353.312 54.5988C354.332 54.0798 355.573 54.6022 355.915 55.6955L358.231 63.1473C358.515 64.0572 358.058 65.0328 357.18 65.403L350.913 68.0357C350.066 68.392 349.084 68.0703 348.61 67.2815L344.915 61.0958C344.365 60.1756 344.711 58.9855 345.661 58.4977" fill="#F92385"/>
<path d="M248.635 41.7672C248.635 41.7672 251.795 43.625 254.554 43.7253L257.734 37.896L251.121 36.059L248.635 41.7672Z" fill="#E0000F"/>
</g>
<defs>
<clipPath id="clip0_175_12160">
<rect width="384" height="115.048" fill="white"/>
</clipPath>
</defs>
</svg>
