<svg width="384" height="166" viewBox="0 0 384 166" fill="none" xmlns="http://www.w3.org/2000/svg">
<g clip-path="url(#clip0_175_12063)">
<g clip-path="url(#clip1_175_12063)">
<path fill-rule="evenodd" clip-rule="evenodd" d="M314.897 88.1015C314.261 88.2842 313.685 88.5416 313.049 88.7244C311.971 89.0302 311.176 88.8624 310.091 88.6572C309.961 88.6311 309.793 88.5565 309.823 88.426C309.838 88.37 309.886 88.3327 309.931 88.2991C310.377 87.9784 310.864 87.9858 311.407 87.8963C310.396 87.6352 309.433 87.1093 308.452 86.7587C308.329 86.7139 308.188 86.6505 308.162 86.5237C308.125 86.3596 308.303 86.2328 308.455 86.1582C309.693 85.5688 311.098 85.3525 312.455 85.5054C313.35 85.6061 315.777 86.0052 315.807 87.1951C315.818 87.5718 315.499 87.9784 315.16 87.9261" fill="#D38742"/>
<path fill-rule="evenodd" clip-rule="evenodd" d="M334.265 87.5494C333.76 88.038 332.485 87.5904 331.786 87.7322C326.099 88.8847 320.658 87.1839 314.927 88.1014C313.797 88.329 313.544 86.8407 314.496 86.5722C316.722 85.8597 318.952 85.1473 321.178 84.4386C322.186 84.1179 323.197 83.7934 324.226 83.5434C325.564 83.2189 326.936 83.0175 328.3 82.8161C329.27 82.6744 331.645 82.5102 332.63 82.5475C333.239 82.5699 331.671 82.8086 332.474 83.3495C332.756 83.5397 335.444 83.7486 335.667 84.006C336.544 85.0242 335.154 86.699 334.265 87.5569V87.5494Z" fill="#D38742"/>
<path fill-rule="evenodd" clip-rule="evenodd" d="M346.902 84.8303C348.687 85.2369 350.534 85.7329 351.913 86.9414C353.295 88.1462 354.057 90.2611 353.188 91.8799C352.727 92.7303 351.883 93.3271 350.969 93.6404C350.054 93.95 349.073 94.0022 348.107 93.9612C345.26 93.8456 342.502 92.984 339.803 92.0739C337.019 91.1376 334.295 89.5188 331.533 88.5229C331.251 88.4222 331.099 88.4483 330.853 88.273C330.311 87.8851 330.151 86.9526 330.69 85.345C331.229 83.7374 331.994 83.0399 332.79 82.5438C333.619 82.5401 333.76 82.6184 334.7 82.7452C336.064 82.9317 337.428 83.122 338.789 83.3308C341.509 83.7449 344.219 84.226 346.906 84.834L346.902 84.8303Z" fill="#00D0FF"/>
<path d="M361.29 81.768C360.855 82.4506 359.755 82.7005 359.933 81.9172C360.506 79.4144 360.669 79.0377 359.974 76.561C359.591 75.1958 359.019 75.0914 359.539 74.5841C362.108 72.0664 365.345 75.4084 361.294 81.768" fill="#00005C"/>
<path d="M365.33 161.649C366.088 161.529 366.092 161.339 366.676 161.335C367.467 161.328 367.501 161.421 368.289 161.365C369.56 161.272 369.913 161.212 371.106 160.832C371.314 160.765 371.545 160.903 371.106 160.832C370.221 160.69 370.158 159.627 369.352 159.28C368.155 158.564 368.902 158.855 367.289 157.217C367.155 157.083 366.575 155.118 366.43 154.968C365.646 154.148 364.293 155.431 363.914 155.886C363.605 156.259 364.17 158.348 364.022 158.903C363.762 159.884 363.944 161.306 364.289 162.141C364.512 162.186 364.94 161.708 365.326 161.645" fill="#D48742"/>
<path d="M352.166 84.6624C351.682 85.8374 350.984 86.878 350.452 88.0269C352.705 89.9627 354.756 92.0254 354.979 90.7907C355.262 89.3062 355.596 87.1205 356.198 85.7441C357.882 82.1857 355.065 80.4476 353.478 81.8501C353.195 82.2603 352.355 84.2037 352.169 84.6587" fill="#D48742"/>
<path d="M352.953 76.5572C352.429 77.6464 353.96 80.8877 353.039 84.3715C352.611 85.9791 354.83 85.013 356.191 85.7478C358.967 87.251 360.034 87.0459 360.881 85.6173C361.346 84.8377 362.368 81.7642 362.197 79.1719C362.063 77.1503 360.747 75.6658 358.785 74.9608C357.083 74.3528 354.187 73.9798 352.949 76.5572" fill="#D48742"/>
<path d="M351.894 75.3637C352.437 74.7632 355.25 74.4834 356.06 74.5655C356.893 74.6475 358.071 75.4868 358.317 76.285C358.566 77.0944 358.358 77.8254 358.049 78.6162C357.863 79.0862 357.231 80.1977 356.756 80.4364C356.261 80.6863 353.381 83.2078 352.671 83.4726C352.671 83.4726 352.277 81.8762 351.764 80.6527C351.147 79.1906 350.991 76.3708 351.894 75.3674" fill="#00005C"/>
<path d="M354.864 75.2928C355.258 75.2369 355.678 75.1958 356.083 75.2107C356.388 75.2219 356.659 75.3115 356.956 75.3674C357.592 75.4905 357.923 79.7464 358.116 79.0601C358.265 78.5416 359.588 76.2701 360.108 76.3969C360.662 76.5312 361.294 77.016 361.398 76.3148C362.223 70.6453 351.433 71.6002 352.857 76.0164C352.857 76.0164 354.299 75.3711 354.864 75.2928Z" fill="#00005C"/>
<path d="M340.078 113.122C338.108 114.42 332.05 116.897 336.246 121.775C337.428 123.152 343.483 127.452 344.951 128.448C348.352 130.753 354.154 134.099 354.893 134.838C355.89 135.837 356.845 136.587 358.346 136.434C359.469 136.322 361.74 135.401 362.706 133.417C362.944 132.928 364.003 130.224 361.888 127.926C360.74 126.677 362.483 127.859 361.305 126.632C358.937 124.166 347.917 114.084 347.917 114.084L346.203 111.414C344.958 111.19 341.576 112.134 340.078 113.122Z" fill="#00005C"/>
<path d="M363.309 130.358C361.55 124.211 356.793 124.42 353.979 129.355C352.823 131.384 354.306 132.156 354.882 134.976C355.217 136.628 356.217 139.672 357.934 143.088C359.919 147.046 361.097 153.588 361.911 156.68C363.543 156.77 366.505 156.057 367.906 155.222C367.665 153.816 367.843 155.285 367.657 153.849C367.278 150.91 366.234 143.226 365.598 140.265C365.119 138.034 363.862 132.298 363.309 130.362" fill="#00005C"/>
<path d="M299.342 122.98C298.762 123.446 298.744 123.778 298.272 124.096C297.632 124.521 297.554 124.465 296.945 124.931C295.963 125.684 295.347 124.528 294.581 125.472C294.447 125.636 294.261 126.751 294.655 126.576C295.451 126.222 296.346 127.341 297.183 127.191C298.654 127.128 300.45 127.743 301.873 128.079C301.94 128.094 302.52 128.482 302.583 128.452C302.658 128.419 303.048 128.001 303.077 127.922C303.364 127.195 303.137 126.744 303.423 126.016C302.758 125.692 301.494 124.853 301.141 124.207C301 123.95 300.576 122.469 300.033 122.611C299.703 122.697 299.394 122.939 299.338 122.98" fill="#D48742"/>
<path d="M321.16 137.05C325.434 138.392 330.846 135.125 328.337 130.201C327.304 128.172 323.449 130.153 321.197 128.579C319.026 127.065 314.875 126.423 310.381 126.11C307.37 125.905 304.497 125.017 302.602 124.767C302.145 126.199 300.985 127.382 300.524 128.818C300.412 129.176 303.464 130.015 303.839 130.194C306.397 131.41 312.838 133.476 315.544 134.491C317.584 135.256 319.324 136.501 321.164 137.05" fill="#00005C"/>
<path d="M346.542 110.257C346.542 109.817 344.457 107.154 344.063 106.725C342.32 104.849 336.752 106.587 335.425 107.788C331.217 111.593 332.169 114.868 331.243 115.972C326.683 121.417 322.873 129.358 321.193 128.579C318.569 127.359 318.673 130.418 318.896 132.969C318.993 134.062 319.859 136.285 321.766 137.247C322.238 137.486 324.839 138.542 327.084 136.509C328.307 135.401 331.712 132.906 334.161 130.679C336.428 128.616 338.759 125.468 340.651 123.066C343.279 119.728 346.542 114.972 346.542 110.254" fill="#00005C"/>
<path d="M359.517 97.6725C360.368 93.7113 359.889 92.0739 357.759 89.5636C356.239 87.777 349.028 85.718 348.174 85.4681C343.319 84.0395 340.011 93.6815 338.789 100.254C338.216 103.32 335.425 107.788 335.425 107.788C339.197 107.329 341.279 107.314 347.913 114.084C346.683 109.985 358.428 102.723 359.517 97.6725Z" fill="#00D0FF"/>
<path d="M345.542 141.433C345.535 141.385 345.524 141.336 345.516 141.287L345.542 141.433Z" fill="#00005C"/>
<path d="M355.678 88.1499C357.451 88.6087 359.402 89.4107 359.956 91.1638C358.566 89.668 356.548 88.8624 354.522 88.6125C352.496 88.3626 342.754 88.7393 335.96 91.7643C334.585 92.376 329.422 94.9161 328.058 95.3749C327.887 94.972 327.716 94.5692 327.542 94.1664C329.924 93.6106 334.54 90.8542 336.86 90.097C344.739 87.5233 352.671 87.3778 355.678 88.1499Z" fill="#2E29FF"/>
<path d="M331.894 104.308C338.316 101.88 351.66 100.463 357.19 96.382C358.718 95.2555 360.201 93.965 361.048 92.2641C358.867 97.6651 356.964 98.5118 351.749 100.242C346.973 101.828 333.785 104.965 332.432 105.3" fill="#2E29FF"/>
<path d="M379.611 91.4323C379.704 90.7721 379.696 90.138 379.789 89.4778C379.945 88.3588 380.421 87.6949 381.049 86.7773C381.123 86.6691 381.261 86.546 381.369 86.6244C381.413 86.6579 381.432 86.7176 381.439 86.7736C381.551 87.3181 381.35 87.762 381.209 88.2991C381.859 87.4748 382.729 86.7997 383.45 86.035C383.539 85.9381 383.655 85.8336 383.781 85.8635C383.948 85.897 383.993 86.1096 383.997 86.2812C384.034 87.6613 383.666 89.0451 382.974 90.2387C382.521 91.022 381.168 93.0996 380.068 92.6445C379.718 92.5028 379.477 92.044 379.659 91.7531" fill="#D48742"/>
<path d="M365.732 103.681C365.832 102.947 368.746 100.899 369.311 100.418C373.054 97.2249 375.682 95.7255 379.785 91.1973C380.61 90.6677 381.398 91.5256 381.101 92.1858C379.755 94.2261 379.618 95.718 378.272 97.7583C377.663 98.6796 377.053 99.6047 376.38 100.481C375.503 101.623 374.529 102.682 373.552 103.737C372.86 104.487 372.162 105.241 371.34 105.852C370.541 106.449 369.634 106.721 368.646 106.796C368.296 106.822 367.943 106.833 367.601 106.766C366.248 106.49 365.564 104.972 365.735 103.685" fill="#D48742"/>
<path d="M355.005 98.5341C353.585 97.3592 352.158 96.0761 351.459 94.3678C350.764 92.6594 351.032 90.414 352.541 89.3622C353.336 88.8064 354.362 88.6535 355.321 88.7915C356.284 88.9258 358.703 89.6979 359.551 90.1678C362.052 91.5666 367.085 98.1275 369.096 100.168C371.173 102.272 367.449 106.807 366.591 106.419C364.498 105.476 362.733 104.368 361.606 103.566C359.354 101.958 357.135 100.298 355.005 98.5341Z" fill="#00D0FF"/>
<path d="M378.886 157.557C378.659 156.885 377.381 157.038 373.894 158.329C372.002 159.03 370.739 159.183 369.17 157.907C368.955 157.732 368.732 157.531 368.457 157.505C368.089 157.467 367.761 157.762 367.594 158.094C367.427 158.426 367.371 158.799 367.237 159.146C366.996 159.765 366.49 160.272 365.884 160.53C365.375 160.746 364.29 160.802 363.915 161.276C363.584 161.69 364.119 164.476 365.323 165.569C366.487 165.177 367.813 164.685 368.795 164.398C368.795 164.398 368.137 163.014 368.085 162.708C368.222 162.988 369.568 164.036 369.568 164.036C378.812 160.869 378.971 157.811 378.886 157.561" fill="#00005C"/>
<path d="M286.749 129.441C286.861 129.672 287.199 130.019 287.626 129.966C288.336 129.881 289.459 129.124 291.458 128.072C293.19 127.158 295.09 126.404 296.759 127.434C296.989 127.576 297.55 127.508 297.669 127.169C297.788 126.83 297.677 126.8 297.762 126.453C297.915 125.826 298.338 125.274 298.892 124.95C299.357 124.677 300.765 124.297 301.066 123.797C301.33 123.357 300.468 120.742 299.178 119.843C298.231 119.843 296.781 120.753 295.978 121.429C295.978 121.429 296.417 122.842 296.506 123.133C296.339 122.883 295.38 121.664 295.38 121.664C293.217 123.577 291.589 123.014 289.221 125.162C286.768 127.389 286.671 129.288 286.749 129.444" fill="#00005C"/>
<path d="M330.399 104.942C330.411 104.912 330.44 104.875 330.396 104.953C330.403 104.938 330.411 104.92 330.422 104.901C330.444 104.86 330.47 104.827 330.492 104.786C330.451 104.856 330.485 104.797 330.515 104.767C330.548 104.73 330.589 104.696 330.626 104.659C330.563 104.722 330.626 104.659 330.667 104.636C330.7 104.618 330.734 104.599 330.767 104.58C330.693 104.599 330.827 104.551 330.767 104.58C330.786 104.577 330.808 104.565 330.827 104.562C330.849 104.554 330.868 104.551 330.89 104.547C330.935 104.536 330.979 104.539 330.909 104.543C330.95 104.543 330.994 104.543 331.035 104.543C331.124 104.543 331.057 104.543 331.035 104.539C331.054 104.539 331.076 104.547 331.098 104.551C331.147 104.562 331.195 104.577 331.239 104.592C331.232 104.592 331.176 104.558 331.221 104.584C331.251 104.603 331.277 104.614 331.306 104.633C331.343 104.655 331.392 104.703 331.332 104.648C331.366 104.677 331.399 104.707 331.429 104.737C331.451 104.759 331.522 104.86 331.462 104.774C331.488 104.812 331.514 104.849 331.537 104.89C331.559 104.927 331.581 104.968 331.6 105.009C331.604 105.017 331.63 105.076 331.607 105.024C331.581 104.965 331.615 105.043 331.619 105.058C331.648 105.136 331.667 105.214 331.685 105.297C331.689 105.319 331.693 105.341 331.697 105.364C331.704 105.416 331.689 105.319 331.689 105.319C331.678 105.345 331.697 105.412 331.697 105.438C331.697 105.52 331.693 105.599 331.689 105.681C331.685 105.737 331.693 105.64 331.697 105.636C331.689 105.647 331.689 105.688 331.685 105.703C331.682 105.737 331.671 105.77 331.663 105.804C331.652 105.845 331.641 105.882 331.626 105.919C331.626 105.931 331.607 105.957 331.607 105.968C331.6 105.905 331.637 105.904 331.607 105.96C331.585 106.001 331.54 106.132 331.496 106.147C331.496 106.147 331.574 106.057 331.511 106.128C331.5 106.139 331.488 106.154 331.477 106.166C331.448 106.199 331.41 106.225 331.381 106.259C331.343 106.296 331.407 106.233 331.41 106.236C331.403 106.236 331.362 106.27 331.355 106.274C331.336 106.285 331.314 106.296 331.295 106.307C331.239 106.345 331.303 106.315 331.317 106.3C331.295 106.326 331.217 106.33 331.184 106.341C331.12 106.367 331.169 106.345 331.184 106.341C331.247 106.315 331.173 106.341 331.147 106.341C331.128 106.341 331.113 106.341 331.094 106.341C330.998 106.341 331.113 106.341 331.109 106.348C331.106 106.356 331.009 106.322 330.998 106.319C330.935 106.307 331.083 106.356 331.024 106.33C331.013 106.326 331.005 106.322 330.998 106.315C330.976 106.3 330.979 106.304 331.005 106.326C331.028 106.326 331.039 106.36 331.005 106.326C330.983 106.3 330.961 106.277 330.942 106.251C330.786 106.05 330.422 106.072 330.258 106.251C330.065 106.464 330.091 106.725 330.258 106.938C330.619 107.396 331.31 107.389 331.786 107.143C332.217 106.919 332.518 106.449 332.615 105.979C332.841 104.909 332.228 103.599 331.013 103.573C330.303 103.558 329.712 104.036 329.47 104.685C329.381 104.924 329.571 105.226 329.808 105.282C330.084 105.345 330.307 105.196 330.403 104.942" fill="#05528A"/>
<path d="M354.771 79.7016C354.697 80.3879 354.838 81.0854 355.154 81.6001C356.053 83.0772 357.079 80.981 356.901 79.7091C356.689 78.1947 354.972 77.8403 354.771 79.7016Z" fill="#D48742"/>
<path d="M351.441 73.5994C354.518 71.0929 358.153 70.5446 360.51 71.2309C362.614 71.8464 362.116 75.5315 361.376 75.9941C361.038 76.2067 360.614 75.9941 360.239 75.8598C358.454 75.222 355.983 75.815 355.042 76.5647C352.34 78.7169 348.802 75.7442 351.441 73.5957" fill="#00005C"/>
<path d="M357.031 78.1388C357.031 78.1388 357.789 77.9858 358.298 77.9299C358.807 77.8702 358.599 77.9821 358.116 79.0638C357.484 80.4849 357.12 81.313 357.12 81.313L356.711 81.1265C356.782 80.9064 356.9 80.6229 356.9 80.3282L357.027 78.1388H357.031Z" fill="#00005C"/>
<path d="M325.913 95.0616C325.921 95.0168 325.932 94.9758 325.947 94.931C325.954 94.9124 325.958 94.8937 325.965 94.8788C325.962 94.8974 325.921 94.9683 325.965 94.89C325.984 94.8564 326.003 94.8228 326.021 94.7893C326.036 94.7669 326.051 94.7482 326.062 94.7259C326.04 94.7594 326.021 94.7743 326.058 94.7333C326.088 94.6997 326.118 94.6699 326.151 94.6363C326.166 94.6251 326.181 94.6102 326.192 94.599C326.185 94.6028 326.125 94.6438 326.17 94.6177C326.211 94.5953 326.248 94.5692 326.289 94.5468C326.296 94.5468 326.359 94.517 326.307 94.5394C326.248 94.5617 326.356 94.5244 326.367 94.5207C326.408 94.5095 326.449 94.5021 326.486 94.4909C326.382 94.517 326.504 94.4909 326.542 94.4909C326.579 94.4909 326.69 94.5058 326.594 94.4909C326.646 94.5021 326.698 94.517 326.75 94.5319C326.835 94.558 326.694 94.4983 326.772 94.5394C326.809 94.558 326.846 94.5804 326.883 94.6028C326.898 94.614 326.913 94.6252 326.928 94.6326C326.913 94.6214 326.854 94.5692 326.917 94.6251C326.947 94.655 326.98 94.6848 327.01 94.7147C327.036 94.7445 327.099 94.8228 327.043 94.7445C327.069 94.7818 327.095 94.8154 327.118 94.8527C327.136 94.8825 327.155 94.9161 327.173 94.9497C327.185 94.972 327.196 94.9944 327.207 95.0168C327.214 95.028 327.248 95.1026 327.218 95.0392C327.188 94.9758 327.237 95.0914 327.244 95.11C327.255 95.1473 327.266 95.1884 327.277 95.2257C327.285 95.2592 327.292 95.2928 327.3 95.3301C327.3 95.3488 327.318 95.4234 327.307 95.3525C327.296 95.2816 327.307 95.3599 327.307 95.3749C327.315 95.4495 327.315 95.5278 327.311 95.6024C327.311 95.621 327.289 95.7479 327.303 95.677C327.318 95.6099 327.303 95.6695 327.303 95.6807C327.296 95.7106 327.292 95.7367 327.285 95.7665C327.274 95.8075 327.266 95.8448 327.251 95.8821C327.244 95.8971 327.24 95.912 327.233 95.9306C327.214 95.9829 327.248 95.8933 327.248 95.8933C327.248 95.9157 327.207 95.9754 327.192 95.9978C327.185 96.0127 327.173 96.0276 327.166 96.0425C327.159 96.0574 327.095 96.1283 327.144 96.0761C327.188 96.0276 327.103 96.1171 327.092 96.1283C327.092 96.1283 327.051 96.1768 327.04 96.1768C327.058 96.1768 327.114 96.1283 327.054 96.1656C327.047 96.1694 326.932 96.2365 326.932 96.2365C326.932 96.2328 327.021 96.2066 326.965 96.2216C326.936 96.229 326.91 96.2402 326.88 96.2477C326.861 96.2514 326.846 96.2551 326.828 96.2589C326.772 96.2775 326.943 96.2589 326.835 96.2589C326.817 96.2589 326.802 96.2589 326.783 96.2589C326.761 96.2589 326.701 96.2402 326.765 96.2589C326.857 96.2887 326.649 96.1992 326.727 96.2477C326.783 96.2812 326.739 96.2477 326.727 96.2439C326.634 96.1955 326.798 96.3111 326.72 96.2365C326.534 96.0649 326.218 96.0388 326.036 96.2365C325.865 96.423 325.839 96.74 326.036 96.9228C326.467 97.3219 327.136 97.307 327.597 96.9601C328.036 96.6281 328.255 96.1246 328.277 95.5837C328.318 94.5133 327.478 93.3793 326.33 93.536C325.672 93.6218 325.111 94.1403 324.98 94.8005C324.928 95.0466 325.051 95.3338 325.319 95.3972C325.56 95.4495 325.861 95.3227 325.913 95.0578" fill="#05528A"/>
<path d="M329.79 109.966L321.048 113.409C317.974 108.277 315.347 102.887 313.209 97.3256C316.257 96.244 319.023 94.6811 321.94 93.3607C323.059 92.8534 324.412 93.3197 324.999 94.42C327.244 98.6535 329.088 103.074 330.831 107.531C331.214 108.504 330.753 109.586 329.787 109.963" fill="#00008F"/>
<path d="M323.077 94.1179C322.416 94.6102 321.301 94.8004 320.635 95.2928C320.446 95.4345 320.253 95.58 320.108 95.7702C319.688 96.326 319.784 97.1205 319.978 97.7919C320.182 98.5005 320.468 99.1757 320.751 99.8545C321.513 101.66 322.275 103.465 323.085 105.248C323.702 106.609 324.43 108.967 325.846 109.646C326.631 110.022 327.095 109.545 327.943 109.366" stroke="#00005C" stroke-width="2" stroke-miterlimit="10"/>
<path d="M121.157 49.8844C124.279 48.8251 130.665 46.7587 136.571 45.4868C137.411 45.304 138.244 45.815 138.47 46.6468L142.8 62.6483C143.116 63.812 142.388 65.0019 141.21 65.2481L127.495 68.0828C126.186 68.3551 124.882 67.5979 124.458 66.326L119.86 52.5028C119.5 51.4211 120.079 50.2499 121.157 49.8844Z" fill="#C9E0FF"/>
<path d="M228.217 103.555L224.162 109.176C223.069 110.828 224.552 111.664 225.968 113.047L228.767 115.785C229.321 116.33 230.235 116.24 230.674 115.595L234.985 109.269C235.338 108.75 235.257 108.057 234.796 107.631L230.105 103.323C229.536 102.801 228.641 102.913 228.217 103.555Z" fill="#03299C"/>
<path d="M253.655 95.2853L246.236 90.1119L243.779 96.3558L249.931 100.004L253.655 95.2853Z" fill="#F92385"/>
<path d="M165.019 69.0302L160.028 76.5871C158.868 78.3402 159.117 80.6751 160.619 82.1447L165.804 87.2138C166.763 88.15 168.331 87.9933 169.086 86.8855L175.367 77.6725C175.973 76.7848 175.835 75.5838 175.044 74.8564L168.272 68.6349C167.294 67.7359 165.752 67.9262 165.019 69.034" fill="#57FFE1"/>
<path d="M184.774 92.1969L190.052 97.6464C190.052 97.6464 194.996 91.9284 195.345 90.5334C195.694 89.1384 190.067 85.0876 190.067 85.0876L184.774 92.2007V92.1969Z" fill="#C9E0FF"/>
<path d="M104.198 37.8329C104.198 37.8329 110.278 39.4778 112.512 41.3577L110.877 48.7094C110.639 49.7837 109.546 50.4364 108.494 50.1343C106.138 49.4592 102.309 48.1499 100.812 46.4416L104.194 37.8292L104.198 37.8329Z" fill="#D48743"/>
<path d="M220.802 98.4148C218.895 99.2167 214.413 101.037 210.261 102.227C209.729 102.38 209.176 102.089 208.997 101.567L205.217 90.5894C205.024 90.0224 205.343 89.4107 205.92 89.2503L216.022 86.4342C216.527 86.2925 217.055 86.5536 217.256 87.0384L221.359 97.0608C221.575 97.5905 221.326 98.191 220.802 98.4111" fill="#00D0FF"/>
<path d="M270.536 109.164L270.882 102.712C270.912 102.163 270.466 101.708 269.919 101.731C267.678 101.828 262.43 102.111 261.36 102.697C260.289 103.282 260.62 107.993 260.813 110.03C260.865 110.545 261.319 110.918 261.832 110.865L269.704 110.041C270.157 109.992 270.51 109.623 270.533 109.164" fill="#D48743"/>
<path d="M147.212 86.4976C145.235 88.3141 141.767 91.2383 138.184 93.0511C137.177 93.5621 135.95 93.2488 135.296 92.3275L131.089 86.4043C130.397 85.4308 130.561 84.0918 131.468 83.3159L138.649 77.1876C139.563 76.4081 140.927 76.4789 141.756 77.3517L147.32 83.2152C148.205 84.1477 148.153 85.6285 147.208 86.4976" fill="#E0000F"/>
<path d="M191.889 114.909L195.84 113.667C196.609 113.424 197.029 112.6 196.776 111.835L195.197 107.072C194.962 106.363 194.23 105.953 193.509 106.121L189.989 106.938C189.216 107.117 188.737 107.889 188.911 108.665C189.183 109.855 189.595 111.708 190.056 113.838C190.235 114.666 191.086 115.166 191.892 114.912" fill="#F92385"/>
<path d="M72.5525 82.7974L76.5035 81.5554C77.2729 81.3129 77.6929 80.4886 77.4401 79.724L75.8605 74.9608C75.6263 74.2521 74.8941 73.8418 74.173 74.0097L70.6569 74.8265C69.8838 75.0056 69.4006 75.7777 69.579 76.5535C69.8504 77.7434 70.2629 79.5971 70.7201 81.727C70.8985 82.555 71.7497 83.0548 72.5562 82.8012" fill="#F92385"/>
<path d="M168.417 103.648L160.838 98.3626C159.827 97.6576 158.43 98.0343 157.906 99.1533L154.349 106.774C153.914 107.702 154.256 108.814 155.137 109.336L161.429 113.066C162.28 113.57 163.373 113.372 163.99 112.596L168.829 106.531C169.547 105.629 169.357 104.304 168.413 103.648" fill="#FFED33"/>
<path d="M76.3286 53.0996C76.3286 53.0996 83.4203 51.0369 88.858 52.2268L92.1623 65.2294L78.3394 65.5203L76.3286 53.0996Z" fill="#00D0FF"/>
<path d="M114.891 98.1574C111.761 97.7471 105.402 96.8184 99.7894 95.4159C98.9903 95.2145 98.4885 94.4238 98.6446 93.6144L101.644 78.0269C101.863 76.893 102.99 76.1768 104.105 76.4678L117.088 79.8322C118.329 80.153 119.132 81.354 118.961 82.6259L117.106 96.4566C116.961 97.5383 115.969 98.3029 114.891 98.1612" fill="#FFED33"/>
<path d="M62.1415 45.9978C61.6249 49.1235 60.4801 55.4681 58.8856 61.0482C58.6589 61.8426 57.8523 62.3163 57.0495 62.1336L41.6284 58.5789C40.5059 58.3216 39.8331 57.1653 40.1602 56.0575L43.9625 43.1556C44.3268 41.9247 45.5496 41.1601 46.8096 41.3727L60.5173 43.7151C61.5914 43.8978 62.3162 44.9198 62.1378 45.9978" fill="#7672FF"/>
<path d="M294.629 105.065C294.629 105.065 290.994 106.587 288.039 106.289L285.504 99.5971L292.819 98.605L294.632 105.069L294.629 105.065Z" fill="#00D0FF"/>
<path d="M68.9583 32.6781L78.4547 42.4804C78.4547 42.4804 87.3454 32.197 87.9735 29.6867C88.6017 27.1765 78.477 19.8844 78.477 19.8844L68.9583 32.6781Z" fill="#C9E0FF"/>
<path d="M58.1088 18.549L58.7889 4.10294C58.8484 2.84595 57.9452 1.75307 56.6964 1.57776C53.3066 1.0966 46.7204 0.223792 42.2491 -5.59085e-06C41.3942 -0.0410351 40.6471 0.570677 40.5208 1.41365C39.9893 4.97575 38.7813 14.1962 39.5953 19.6307C39.7179 20.4439 40.4204 21.0407 41.2455 21.0295L55.6668 20.8915C56.9751 20.8765 58.0456 19.8471 58.1088 18.549Z" fill="#00D1FF"/>
<path d="M15.1238 50.3432L0 42.1634C0 42.1634 4.18886 31.7829 6.85383 27.1429C6.85383 27.1429 19.4985 32.1224 23.6093 36.3335L15.1238 50.3432Z" fill="#E0000F"/>
</g>
</g>
<defs>
<clipPath id="clip0_175_12063">
<rect width="384" height="166" fill="white"/>
</clipPath>
<clipPath id="clip1_175_12063">
<rect width="384" height="165.569" fill="white"/>
</clipPath>
</defs>
</svg>
