<svg width="384" height="166" fill="none" xmlns="http://www.w3.org/2000/svg"><g clip-path="url(#a)"><path d="M240.389 113.007c-1.537 0-3.276-.796-4.403-3.762-2.029-5.33-1.633-16.833 1.059-30.773 2.051-10.633 5.431-22.108 7.914-23.466 1.236-.675 2.217-.753 2.919-.223 1.877 1.418.722 6.708.584 7.31l-.691-.16c.348-1.502.964-5.615-.322-6.584-.457-.347-1.18-.251-2.15.28-1.959 1.07-5.278 11.163-7.559 22.981-2.668 13.816-3.075 25.175-1.091 30.387 1.006 2.642 2.543 3.688 4.704 3.193 13.786-3.147 120.791-14.82 121.872-14.937l.078.704c-1.081.117-108.043 11.786-121.791 14.923a5.022 5.022 0 0 1-1.123.131v-.004z" fill="#FFED33"/><path d="M384 116.321H251.902c-4.233 0-7.489-4.223-9.667-12.551-1.722-6.573-2.671-15.432-2.671-24.944 0-8.06.953-23.297 4.562-23.297 1.775 0 3.206.545 4.258 1.616 1.86 1.9 1.81 4.757 1.807 4.88l-1.063-.024.531.014-.531-.01c0-.026.036-2.543-1.509-4.117-.843-.86-2.015-1.294-3.493-1.294-1.477 0-3.499 7.917-3.499 22.235 0 9.425.935 18.19 2.635 24.676 1.406 5.365 4.045 11.758 8.64 11.758H384v1.061-.003z" fill="#F92385"/><path d="M143.678 117.07c-47.105 0-142.534-6.174-143.678-6.248l.07-1.058c1.361.089 136.205 8.809 164.139 5.499 17.758-2.107 17.162-19.633 16.638-35.1-.297-8.784-.556-16.37 2.515-20.26 2.799-3.546 4.765-4.918 6.181-4.32 2.059.866 1.538 5.565 1.414 6.499l-1.052-.142c.265-1.987.198-4.971-.772-5.382-.401-.17-1.683-.116-4.935 4-2.83 3.586-2.568 11.348-2.288 19.57.258 7.574.549 16.156-1.541 22.956-2.43 7.911-7.673 12.239-16.036 13.229-4.481.531-11.693.754-20.655.754v.003z" fill="#00D1FF"/><path d="m197.864 106.108-2.792-1.528-2.047 3.727 2.793 1.528 2.046-3.727zM219.04 111.083l-3.054-.407-.546 4.076 3.055.408.545-4.077z" fill="#D38742"/><path fill-rule="evenodd" clip-rule="evenodd" d="M220.91 11.917c-.559.45-.939.13-.669-.527.86-2.1 1.059-2.408.804-4.671-.142-1.245-.28-1.397.34-1.574 2.044-.587 4.151 3.059-.471 6.772h-.004z" fill="#01015B"/><path fill-rule="evenodd" clip-rule="evenodd" d="M241.473 53.867c.744.032 1.449-.042 2.193-.007 1.261.053 2.051.517 3.138 1.114.131.07.28.212.202.34-.032.053-.099.077-.159.095-.592.18-1.109.004-1.718-.095.984.636 1.827 1.534 2.756 2.252.116.089.244.209.226.354-.021.187-.251.261-.439.286a8.409 8.409 0 0 1-4.506-.721c-.921-.421-3.372-1.708-2.986-2.985.121-.403.606-.721.949-.548" fill="#D38742"/><path fill-rule="evenodd" clip-rule="evenodd" d="M225.926 37.176c.825.085 1.552.559 2.203 1.072 5.324 4.158 8.342 11.411 13.489 15.789 1.056.828-.099 2.147-1.059 1.507-2.32-1.44-4.644-2.879-6.964-4.315-1.052-.65-2.1-1.301-3.103-2.026-1.303-.94-3.149-2.224-4.36-3.282-.861-.75-1.726-1.506-2.434-2.4-.691-.878-1.031-1.878-1.144-2.982-.043-.389-.067-.785 0-1.17.258-1.52 1.93-2.338 3.376-2.19l-.004-.003z" fill="#D38742"/><path fill-rule="evenodd" clip-rule="evenodd" d="M217.191 30.896c-1.073-1.758-2.115-3.632-2.228-5.686-.114-2.055.992-4.322 2.975-4.877 1.045-.293 2.189-.077 3.156.418.967.495.156 1.626.879 2.436 3.376 3.773 9.394 16.79 8.462 17.777-.878.93-1.948 4.646-3.29 4.194-.946-.319-1.392-1.358-1.849-2.246-1.159-2.238-2.31-3.968-3.9-5.895-1.573-1.906-2.919-4.013-4.205-6.118v-.003z" fill="#D38742"/><path fill-rule="evenodd" clip-rule="evenodd" d="M219.086 49.988c-2.841-4.505-11.863-1.704-12.253.775-.262 1.669.33 5.417.113 6.53-.354 1.826-7.831 19.323-6.163 21.625.715.986 9.968 5.16 10.825 1.687.808-3.271 7.552-15.595 8.098-18.848.761-4.52 3.174-5.747-.62-11.773v.004z" fill="#01015B"/><path fill-rule="evenodd" clip-rule="evenodd" d="M190.064 111.264c.85.756 1.353.696 1.952 1.333.804.856.708 1.018 1.597 1.789 1.364 1.181 2.562 2.175 5.392 2.111 1.062-.024-2.026-3.087-2.717-4.183-.429-2.023-.319.41-.167-2.995-.751.035-2.15-.524-2.539-1.892-.72.039-.751.979-1.545 1.284-1.852.714-2.054 2.478-1.973 2.549v.004z" fill="#00005C"/><path fill-rule="evenodd" clip-rule="evenodd" d="M211.608 80.608c2.561-6.56-.227-3.55-6.132-1.128-2.43.997-3.73-3.883-5.115-1.029a65.646 65.646 0 0 0-3.467 8.6c-.946 2.914-2.473 14.103-2.817 15.602-.371 1.623-.138.732-.559 2.366-.266.304 5.009 2.404 5.38 1.948.224-.272 2.211-4.767 2.657-5.534 1.644-2.825 5.147-11.578 6.571-14.601 1.073-2.277 2.675-4.159 3.482-6.224zM221.35 46.791c-2.668-.176-9.186-.668-10.457 6.486-.358 2.019-.011 7.811.17 9.81.414 4.625 4.13 16.029 4.339 19.827.188 3.366 9.738.046 9.405-1.846-.726-4.134.942-16.291.85-19.849-.124-4.94-.627-14.184-4.307-14.428z" fill="#01015B"/><path fill-rule="evenodd" clip-rule="evenodd" d="M216.723 120.044c1.385.142 2.593-.212 4.042.152 1.856.467 3.369-.017 4.095-1.089.776-1.146-1.708-.672-4.935-2.111-.963-.431-1.211-1.591-1.385-2.539-1.36.255-2.628-.035-3.202-.311-1.225 1.955-1.109 4.533-1.261 5.601.23.11 1.265.149 2.65.294l-.004.003z" fill="#00005C"/><path fill-rule="evenodd" clip-rule="evenodd" d="M225.575 63.465c-.113-7.105-7.984 13.812-10.035 19.905-2.564 7.628.836 14.414-1.257 28.675-.149.382 6.032.764 6.227.205.117-.336 3.847-23.763 4.155-27.119.23-2.528 1.162-5.729.91-21.663v-.003z" fill="#01015B"/><path fill-rule="evenodd" clip-rule="evenodd" d="M214.053 15.39c-.181 1.206-.592 2.34-.829 3.54 2.561 1.283 4.962 2.73 4.888 1.527-.078-1.446.092-3.518.336-4.944.755-3.71-2.656-4.724-3.818-3.044-.17.449-.507 2.457-.577 2.924v-.003z" fill="#D38742"/><path fill-rule="evenodd" clip-rule="evenodd" d="M213.092 5.74c-.46 1.025-1.243 3.758.337 6.831.708 1.376 1.888 2.437 3.231 2.978 1.501.6 3.18.223 3.896-1.15 1.378-2.634 2.175-5.102 1.413-7.744-.52-1.814-1.608-1.952-3.46-2.553-1.609-.52-4.322-.792-5.417 1.637z" fill="#D38742"/><path fill-rule="evenodd" clip-rule="evenodd" d="M213.999 17.437c-13.347-1.043-7.8 29.096-6.943 32.629 2.179-1.082 9.083-.74 17.598 1.025-.779-4.331-.991-10.743-.294-13.041 1.159-3.809 2.661-19.598-10.361-20.616v.003z" fill="#000090"/><path fill-rule="evenodd" clip-rule="evenodd" d="M191.97 54.649c-.195.718-.28 1.421-.475 2.136-.333 1.216-.956 1.881-1.782 2.807-.099.11-.269.227-.375.124-.046-.046-.053-.113-.06-.177-.046-.615.241-1.078.471-1.651-.84.82-1.902 1.443-2.809 2.189-.114.092-.255.19-.393.145-.181-.06-.199-.304-.181-.492.152-1.53.762-3.009 1.697-4.229.616-.803 2.412-2.907 3.574-2.252.368.208.574.75.326 1.046" fill="#D38742"/><path fill-rule="evenodd" clip-rule="evenodd" d="M200.748 35.73c.081.124.148.255.195.4.368 1.188-.861 3.355-1.393 4.53-.74 1.64-1.686 3.21-2.663 4.76-.985 1.559-2.012 3.1-2.933 4.692a31.388 31.388 0 0 0-1.237 2.337c-.35.746-.527 1.722-.963 2.416-.56.884-1.693.58-1.704-.135l1.18-7.295c.177-1.1.357-2.203.616-3.3.422-1.789.804-3.327 1.778-5.024 1.035-1.8 1.97-4.01 3.553-5.446.177-.163.786.209 1.02.177.223-.029.425.074.602.18a7.808 7.808 0 0 1 1.58 1.259c.135.141.266.286.372.449h-.003z" fill="#D38742"/><path fill-rule="evenodd" clip-rule="evenodd" d="M204.984 22.44c1.237-1.612 2.586-3.256 4.379-4.246 1.792-.99 4.14-1.121 5.239.19.577.69 1.091 1.751.942 2.727-.145.976-.553 1.818-1.052 2.74-1.616 2.989-5.016 5.326-7.336 7.784-3.674 3.893-4.683 4.176-6.369 6.362-.471.611-2.749 1.888-3.433 1.63-1.728-.654-3.379-1.033-.177-5.962.825-1.27 1.661-2.536 2.508-3.791 1.693-2.514 3.443-5.004 5.299-7.43v-.003z" fill="#D38742"/><path fill-rule="evenodd" clip-rule="evenodd" d="M204.984 22.44c1.236-1.612 2.586-3.256 4.378-4.246 1.793-.99 4.141-1.121 5.239.19.578.69 1.091 1.751.943 2.727-.146.976-.553 1.818-1.052 2.74-1.279 2.367-3.585 4.29-5.431 6.274a81.63 81.63 0 0 1-6.79-4.219c.127.089 2.486-3.175 2.71-3.465h.003zM217.917 30.634c-.942-1.8-1.863-3.716-2.005-5.757-.142-2.04.73-4.218 2.384-4.66.872-.234 2.051-.248 2.873.297.822.544 1.417 1.266 2.044 2.107 1.608 2.157 2.384 5.053 3.404 7.564a82.282 82.282 0 0 1-6.695 4.364c.135-.078-1.835-3.593-2.001-3.918l-.004.003z" fill="#000090"/><path fill-rule="evenodd" clip-rule="evenodd" d="M216.447 6.128c.793 8.643-1.757 2.564-1.913 2.546-1.024-.099-.499 4.513-1.548 2.882-1.172-1.817-1.679-3.907-1.123-5.767.503-1.68 4.517-.396 4.584.336v.003z" fill="#01015B"/><path fill-rule="evenodd" clip-rule="evenodd" d="M213.085 2.231c-3.262 1.81-1.983 6.39 3.599 3.674 1.205-.587 3.33-.095 5.395.39 2.583.608 3.574-11.034-8.994-4.064z" fill="#01015B"/><path d="m273.814 77.92 3.103 5.804c.818 1.694-.687 2.284-2.207 3.405l-2.996 2.207a1.193 1.193 0 0 1-1.775-.425l-3.256-6.5a1.193 1.193 0 0 1 .39-1.513l4.984-3.44a1.195 1.195 0 0 1 1.754.463" fill="#03299C"/><path d="m267.261 57.163 7.676-3.9 1.512 6.184-6.28 2.628-2.908-4.912z" fill="#F92385"/><path d="m378.173 7.716 3.737 7.74a4.15 4.15 0 0 1-1.275 5.143l-5.547 4.09a2.055 2.055 0 0 1-3.057-.731l-4.744-9.467a2.047 2.047 0 0 1 .67-2.602l7.198-4.969a2.053 2.053 0 0 1 3.018.796z" fill="#57FFE1"/><path d="m342.028 66.248-5.689 4.434s-3.929-6.008-4.077-7.366c-.149-1.354 5.688-4.434 5.688-4.434l4.078 7.362v.004z" fill="#C9E0FF"/><path d="M332.743 32.968c1.697 1.001 5.696 3.289 9.458 4.944a.987.987 0 0 0 1.279-.456l4.987-9.824a.981.981 0 0 0-.488-1.347l-9.175-3.954a.985.985 0 0 0-1.243.41l-5.168 8.883a.98.98 0 0 0 .35 1.34" fill="#00D0FF"/><path d="m299.003 81.612.507-6.106a.883.883 0 0 1 1.038-.796c2.104.378 7.024 1.322 7.956 2.012.935.69.014 5.07-.433 6.956a.884.884 0 0 1-1.069.654l-7.329-1.793a.883.883 0 0 1-.67-.93" fill="#D48743"/><path d="m312.109 69.745-3.57-1.676a1.369 1.369 0 0 1-.648-1.843l2.104-4.271a1.372 1.372 0 0 1 1.718-.676l3.216 1.22a1.37 1.37 0 0 1 .797 1.761 379.098 379.098 0 0 0-1.746 4.71 1.37 1.37 0 0 1-1.871.771" fill="#F92385"/><path d="m361.733 77.373 7.836-3.986a1.895 1.895 0 0 1 2.667 1.121l2.373 7.617a1.89 1.89 0 0 1-1.077 2.306l-6.422 2.69a1.898 1.898 0 0 1-2.359-.77l-3.787-6.323a1.891 1.891 0 0 1 .766-2.655" fill="#FFED33"/><path d="M255.369 49.518s3.238 1.899 6.065 2.001l3.259-5.958-6.777-1.878-2.547 5.835z" fill="#00D0FF"/><path d="m145.594 52.778-3.103 5.803c-.818 1.694.688 2.284 2.207 3.405l2.997 2.207a1.194 1.194 0 0 0 1.775-.424l3.255-6.5a1.192 1.192 0 0 0-.39-1.513l-4.984-3.441a1.194 1.194 0 0 0-1.753.463" fill="#03299C"/><path d="m153.331 83.855-7.676-3.904-1.509 6.184 6.277 2.631 2.908-4.912z" fill="#00D0FF"/><path d="m81.713 33.654-3.737 7.741a4.15 4.15 0 0 0 1.275 5.142l5.547 4.091a2.055 2.055 0 0 0 3.057-.732l4.743-9.466a2.045 2.045 0 0 0-.669-2.603l-7.198-4.968a2.053 2.053 0 0 0-3.018.795z" fill="#F92385"/><path d="m51.87 47.898 5.688 4.435s3.929-6.008 4.077-7.366c.15-1.355-5.688-4.435-5.688-4.435l-4.078 7.363v.003z" fill="#C9E0FF"/><path d="M32.164 63.076c-1.697 1-5.696 3.288-9.458 4.943a.987.987 0 0 1-1.279-.456L16.44 57.74a.981.981 0 0 1 .489-1.347l9.174-3.953a.986.986 0 0 1 1.243.41l5.169 8.883a.98.98 0 0 1-.351 1.34" fill="#FFED33"/><path d="m113.19 86.443-.507-6.107a.883.883 0 0 0-1.038-.796c-2.104.379-7.024 1.323-7.956 2.012-.935.69-.014 5.071.433 6.956a.884.884 0 0 0 1.069.654l7.329-1.793a.883.883 0 0 0 .67-.93" fill="#D48743"/><path d="m98.588 66.223 3.571-1.676a1.369 1.369 0 0 0 .648-1.843l-2.104-4.271a1.372 1.372 0 0 0-1.718-.676l-3.216 1.22a1.37 1.37 0 0 0-.797 1.761c.41 1.082 1.041 2.773 1.746 4.71a1.37 1.37 0 0 0 1.87.771" fill="#00D1FF"/><path d="m69.716 68.974-7.836-3.985a1.896 1.896 0 0 0-2.667 1.12l-2.374 7.618c-.29.93.178 1.927 1.077 2.305l6.422 2.691a1.898 1.898 0 0 0 2.36-.77l3.786-6.323a1.892 1.892 0 0 0-.765-2.656" fill="#F92385"/><path d="M181.765 48.124s-3.238 1.9-6.065 2.002l-3.259-5.959 6.777-1.877 2.547 5.834z" fill="#E0000F"/></g><defs><clipPath id="a"><path fill="#fff" d="M0 0h384v120.373H0z"/></clipPath></defs></svg>