<svg width="384" height="166" fill="none" xmlns="http://www.w3.org/2000/svg"><g clip-path="url(#a)"><g clip-path="url(#b)"><path fill-rule="evenodd" clip-rule="evenodd" d="M314.897 88.102c-.636.182-1.212.44-1.848.622-1.078.306-1.873.138-2.958-.067-.13-.026-.298-.1-.268-.231.015-.056.063-.093.108-.127.446-.32.933-.313 1.476-.403-1.011-.26-1.974-.787-2.955-1.137-.123-.045-.264-.109-.29-.235-.037-.164.141-.291.293-.366a7.424 7.424 0 0 1 4-.653c.895.101 3.322.5 3.352 1.69.011.377-.308.783-.647.731" fill="#D38742"/><path fill-rule="evenodd" clip-rule="evenodd" d="M334.265 87.55c-.505.488-1.78.04-2.479.182-5.687 1.153-11.128-.548-16.859.37-1.13.227-1.383-1.261-.431-1.53 2.226-.712 4.456-1.425 6.682-2.133 1.008-.321 2.019-.646 3.048-.896 1.338-.324 2.71-.526 4.074-.727.97-.142 3.345-.306 4.33-.269.609.023-.959.262-.156.803.282.19 2.97.399 3.193.656.877 1.018-.513 2.693-1.402 3.55v-.007z" fill="#D38742"/><path fill-rule="evenodd" clip-rule="evenodd" d="M346.902 84.83c1.785.407 3.632.903 5.011 2.111 1.382 1.205 2.144 3.32 1.275 4.939-.461.85-1.305 1.447-2.219 1.76-.915.31-1.896.362-2.862.321-2.847-.115-5.605-.977-8.304-1.887-2.784-.936-5.508-2.555-8.27-3.551-.282-.1-.434-.075-.68-.25-.542-.388-.702-1.32-.163-2.928.539-1.608 1.304-2.305 2.1-2.801.829-.004.97.074 1.91.201 1.364.187 2.728.377 4.089.586 2.72.414 5.43.895 8.117 1.503l-.004-.004z" fill="#00D0FF"/><path d="M361.29 81.768c-.435.683-1.535.933-1.357.15.573-2.504.736-2.88.041-5.357-.383-1.365-.955-1.47-.435-1.977 2.569-2.518 5.806.824 1.755 7.184" fill="#00005C"/><path d="M365.33 161.649c.758-.12.762-.31 1.346-.314.791-.007.825.086 1.613.03 1.271-.093 1.624-.153 2.817-.533.208-.067.439.071 0 0-.885-.142-.948-1.205-1.754-1.552-1.197-.716-.45-.425-2.063-2.063-.134-.134-.714-2.099-.859-2.249-.784-.82-2.137.463-2.516.918-.309.373.256 2.462.108 3.017-.26.981-.078 2.403.267 3.238.223.045.651-.433 1.037-.496M352.166 84.662c-.484 1.175-1.182 2.216-1.714 3.365 2.253 1.936 4.304 3.998 4.527 2.764.283-1.485.617-3.67 1.219-5.047 1.684-3.558-1.133-5.296-2.72-3.894-.283.41-1.123 2.354-1.309 2.809" fill="#D48742"/><path d="M352.953 76.557c-.524 1.09 1.007 4.33.086 7.814-.428 1.608 1.791.642 3.152 1.377 2.776 1.503 3.843 1.298 4.69-.13.465-.78 1.487-3.854 1.316-6.446-.134-2.022-1.45-3.506-3.412-4.211-1.702-.608-4.598-.981-5.836 1.596" fill="#D48742"/><path d="M351.894 75.364c.543-.6 3.356-.88 4.166-.799.833.082 2.011.922 2.257 1.72.249.81.041 1.54-.268 2.331-.186.47-.818 1.582-1.293 1.82-.495.25-3.375 2.772-4.085 3.037 0 0-.394-1.597-.907-2.82-.617-1.462-.773-4.282.13-5.286" fill="#00005C"/><path d="M354.864 75.293a6.984 6.984 0 0 1 1.219-.082c.305.01.576.1.873.156.636.123.967 4.38 1.16 3.693.149-.518 1.472-2.79 1.992-2.663.554.134 1.186.619 1.29-.082.825-5.67-9.965-4.715-8.541-.299 0 0 1.442-.645 2.007-.723zM340.078 113.122c-1.97 1.298-8.028 3.775-3.832 8.653 1.182 1.377 7.237 5.677 8.705 6.673 3.401 2.305 9.203 5.651 9.942 6.39.997.999 1.952 1.749 3.453 1.596 1.123-.112 3.394-1.033 4.36-3.017.238-.489 1.297-3.193-.818-5.491-1.148-1.249.595-.067-.583-1.294-2.368-2.466-13.388-12.548-13.388-12.548l-1.714-2.67c-1.245-.224-4.627.72-6.125 1.708z" fill="#00005C"/><path d="M363.309 130.358c-1.759-6.147-6.516-5.938-9.33-1.003-1.156 2.029.327 2.801.903 5.621.335 1.652 1.335 4.696 3.052 8.112 1.985 3.958 3.163 10.5 3.977 13.592 1.632.09 4.594-.623 5.995-1.458-.241-1.406-.063.063-.249-1.373-.379-2.939-1.423-10.623-2.059-13.584-.479-2.231-1.736-7.967-2.289-9.903" fill="#00005C"/><path d="M299.342 122.98c-.58.466-.598.798-1.07 1.116-.64.425-.718.369-1.327.835-.982.753-1.598-.403-2.364.541-.134.164-.32 1.279.074 1.104.796-.354 1.691.765 2.528.615 1.471-.063 3.267.552 4.69.888.067.015.647.403.71.373.075-.033.465-.451.494-.53.287-.727.06-1.178.346-1.906-.665-.324-1.929-1.163-2.282-1.809-.141-.257-.565-1.738-1.108-1.596-.33.086-.639.328-.695.369" fill="#D48742"/><path d="M321.16 137.05c4.274 1.342 9.686-1.925 7.177-6.849-1.033-2.029-4.888-.048-7.14-1.622-2.171-1.514-6.322-2.156-10.816-2.469-3.011-.205-5.884-1.093-7.779-1.343-.457 1.432-1.617 2.615-2.078 4.051-.112.358 2.94 1.197 3.315 1.376 2.558 1.216 8.999 3.282 11.705 4.297 2.04.765 3.78 2.01 5.62 2.559" fill="#00005C"/><path d="M346.542 110.257c0-.44-2.085-3.103-2.479-3.532-1.743-1.876-7.311-.138-8.638 1.063-4.208 3.805-3.256 7.08-4.182 8.184-4.56 5.445-8.37 13.386-10.05 12.607-2.624-1.22-2.52 1.839-2.297 4.39.097 1.093.963 3.316 2.87 4.278.472.239 3.073 1.295 5.318-.738 1.223-1.108 4.628-3.603 7.077-5.83 2.267-2.063 4.598-5.211 6.49-7.613 2.628-3.338 5.891-8.094 5.891-12.812" fill="#00005C"/><path d="M359.517 97.672c.851-3.96.372-5.598-1.758-8.108-1.52-1.787-8.731-3.846-9.585-4.096-4.855-1.428-8.163 8.213-9.385 14.786-.573 3.066-3.364 7.534-3.364 7.534 3.772-.459 5.854-.474 12.488 6.296-1.23-4.099 10.515-11.361 11.604-16.412z" fill="#00D0FF"/><path d="M345.542 141.433c-.007-.048-.018-.097-.026-.146l.026.146z" fill="#00005C"/><path d="M355.678 88.15c1.773.459 3.724 1.26 4.278 3.014-1.39-1.496-3.408-2.302-5.434-2.552-2.026-.25-11.768.127-18.562 3.152-1.375.612-6.538 3.152-7.902 3.61-.171-.402-.342-.805-.516-1.208 2.382-.555 6.998-3.312 9.318-4.069 7.879-2.574 15.811-2.72 18.818-1.947zM331.894 104.308c6.422-2.428 19.766-3.845 25.296-7.926 1.528-1.127 3.011-2.417 3.858-4.118-2.181 5.401-4.084 6.248-9.299 7.978-4.776 1.586-17.964 4.723-19.317 5.058" fill="#2E29FF"/><path d="M379.611 91.432c.093-.66.085-1.294.178-1.954.156-1.12.632-1.783 1.26-2.7.074-.109.212-.232.32-.154.044.034.063.094.07.15.112.544-.089.988-.23 1.525.65-.824 1.52-1.5 2.241-2.264.089-.097.205-.201.331-.171.167.033.212.246.216.417a7.543 7.543 0 0 1-1.023 3.958c-.453.783-1.806 2.86-2.906 2.405-.35-.141-.591-.6-.409-.89" fill="#D48742"/><path d="M365.732 103.681c.1-.734 3.014-2.782 3.579-3.263 3.743-3.193 6.371-4.693 10.474-9.22.825-.53 1.613.328 1.316.988-1.346 2.04-1.483 3.532-2.829 5.572-.609.922-1.219 1.847-1.892 2.723-.877 1.142-1.851 2.201-2.828 3.256-.692.75-1.39 1.504-2.212 2.115-.799.597-1.706.869-2.694.944-.35.026-.703.037-1.045-.03-1.353-.276-2.037-1.794-1.866-3.081" fill="#D48742"/><path d="M355.005 98.534c-1.42-1.175-2.847-2.458-3.546-4.166-.695-1.709-.427-3.954 1.082-5.006.795-.556 1.821-.709 2.78-.57.963.134 3.382.906 4.23 1.376 2.501 1.399 7.534 7.96 9.545 10 2.077 2.104-1.647 6.639-2.505 6.251a30.4 30.4 0 0 1-4.985-2.853c-2.252-1.608-4.471-3.268-6.601-5.032z" fill="#00D0FF"/><path d="M378.886 157.557c-.227-.672-1.505-.519-4.992.772-1.892.701-3.155.854-4.724-.422-.215-.175-.438-.376-.713-.402-.368-.038-.696.257-.863.589-.167.332-.223.705-.357 1.052a2.529 2.529 0 0 1-1.353 1.384c-.509.216-1.594.272-1.969.746-.331.414.204 3.2 1.408 4.293 1.164-.392 2.49-.884 3.472-1.171 0 0-.658-1.384-.71-1.69.137.28 1.483 1.328 1.483 1.328 9.244-3.167 9.403-6.225 9.318-6.475M286.749 129.441c.112.231.45.578.877.525.71-.085 1.833-.842 3.832-1.894 1.732-.914 3.632-1.668 5.301-.638.23.142.791.074.91-.265s.008-.369.093-.716a2.44 2.44 0 0 1 1.13-1.503c.465-.273 1.873-.653 2.174-1.153.264-.44-.598-3.055-1.888-3.954-.947 0-2.397.91-3.2 1.586 0 0 .439 1.413.528 1.704-.167-.25-1.126-1.469-1.126-1.469-2.163 1.913-3.791 1.35-6.159 3.498-2.453 2.227-2.55 4.126-2.472 4.282" fill="#00005C"/><path d="M330.399 104.942c.012-.03.041-.067-.003.011.007-.015.015-.033.026-.052.022-.041.048-.074.07-.115-.041.07-.007.011.023-.019.033-.037.074-.071.111-.108-.063.063 0 0 .041-.023l.1-.056c-.074.019.06-.029 0 0 .019-.003.041-.015.06-.018.022-.008.041-.011.063-.015.045-.011.089-.008.019-.004h.126c.089 0 .022 0 0-.004.019 0 .041.008.063.012.049.011.097.026.141.041-.007 0-.063-.034-.018-.008.03.019.056.03.085.049.037.022.086.07.026.015.034.029.067.059.097.089.022.022.093.123.033.037.026.038.052.075.075.116.022.037.044.078.063.119.004.008.03.067.007.015-.026-.059.008.019.012.034a1.72 1.72 0 0 1 .078.306c.007.052-.008-.045-.008-.045-.011.026.008.093.008.119 0 .082-.004.161-.008.243-.004.056.004-.041.008-.045-.008.011-.008.052-.012.067-.003.034-.014.067-.022.101a.967.967 0 0 1-.037.115c0 .012-.019.038-.019.049-.007-.063.03-.064 0-.008-.022.041-.067.172-.111.187 0 0 .078-.09.015-.019l-.034.038c-.029.033-.067.059-.096.093-.038.037.026-.026.029-.023-.007 0-.048.034-.055.038l-.06.033c-.056.038.008.008.022-.007-.022.026-.1.03-.133.041-.064.026-.015.004 0 0 .063-.026-.011 0-.037 0h-.053c-.096 0 .019 0 .015.007-.003.008-.1-.026-.111-.029-.063-.012.085.037.026.011a.066.066 0 0 1-.026-.015c-.022-.015-.019-.011.007.011.023 0 .034.034 0 0-.022-.026-.044-.049-.063-.075-.156-.201-.52-.179-.684 0-.193.213-.167.474 0 .687.361.458 1.052.451 1.528.205.431-.224.732-.694.829-1.164.226-1.07-.387-2.38-1.602-2.406-.71-.015-1.301.463-1.543 1.112-.089.239.101.541.338.597.276.063.499-.086.595-.34" fill="#05528A"/><path d="M354.771 79.702c-.074.686.067 1.383.383 1.898.899 1.477 1.925-.619 1.747-1.89-.212-1.515-1.929-1.87-2.13-.008z" fill="#D48742"/><path d="M351.441 73.6c3.077-2.507 6.712-3.055 9.069-2.37 2.104.616 1.606 4.301.866 4.764-.338.213-.762 0-1.137-.134-1.785-.638-4.256-.045-5.197.705-2.702 2.152-6.24-.82-3.601-2.97M357.031 78.139s.758-.153 1.267-.21c.509-.059.301.053-.182 1.135-.632 1.42-.996 2.249-.996 2.249l-.409-.187c.071-.22.189-.503.189-.798l.127-2.19h.004z" fill="#00005C"/><path d="M325.913 95.062a.897.897 0 0 1 .034-.131c.007-.019.011-.037.018-.052-.003.018-.044.09 0 .011l.056-.1c.015-.023.03-.042.041-.064-.022.033-.041.048-.004.007.03-.033.06-.063.093-.097a.38.38 0 0 0 .041-.037c-.007.004-.067.045-.022.019.041-.023.078-.049.119-.071.007 0 .07-.03.018-.008-.059.023.049-.015.06-.018.041-.011.082-.019.119-.03-.104.026.018 0 .056 0 .037 0 .148.015.052 0 .052.011.104.026.156.04.085.027-.056-.033.022.008.037.019.074.041.111.064.015.011.03.022.045.03-.015-.012-.074-.064-.011-.008l.093.09c.026.03.089.108.033.03.026.037.052.07.075.108a2.21 2.21 0 0 1 .089.164c.007.011.041.086.011.022-.03-.063.019.052.026.071l.033.116.023.104c0 .019.018.093.007.023-.011-.071 0 .007 0 .022.008.075.008.153.004.227 0 .019-.022.146-.008.075.015-.067 0-.008 0 .004l-.018.085c-.011.041-.019.079-.034.116-.007.015-.011.03-.018.049-.019.052.015-.038.015-.038 0 .023-.041.082-.056.105-.007.015-.019.03-.026.044-.007.015-.071.086-.022.034.044-.048-.041.041-.052.052 0 0-.041.049-.052.049.018 0 .074-.049.014-.011l-.122.07c0-.003.089-.03.033-.014-.029.007-.055.018-.085.026l-.052.01c-.056.02.115 0 .007 0h-.052c-.022 0-.082-.018-.018 0 .092.03-.116-.059-.038-.01.056.033.012 0 0-.004-.093-.049.071.067-.007-.007-.186-.172-.502-.198-.684 0-.171.186-.197.503 0 .686.431.399 1.1.384 1.561.037.439-.332.658-.835.68-1.376.041-1.07-.799-2.205-1.947-2.048a1.61 1.61 0 0 0-1.35 1.264c-.052.247.071.534.339.597.241.052.542-.074.594-.34" fill="#05528A"/><path d="m329.79 109.966-8.742 3.443a103.842 103.842 0 0 1-7.839-16.083c3.048-1.082 5.814-2.645 8.731-3.965 1.119-.508 2.472-.041 3.059 1.059 2.245 4.233 4.089 8.654 5.832 13.111a1.86 1.86 0 0 1-1.044 2.432" fill="#00008F"/><path d="M323.077 94.118c-.661.492-1.776.682-2.442 1.175-.189.141-.382.287-.527.477-.42.556-.324 1.35-.13 2.022.204.709.49 1.384.773 2.063.762 1.805 1.524 3.61 2.334 5.393.617 1.361 1.345 3.719 2.761 4.398.785.376 1.249-.101 2.097-.28" stroke="#00005C" stroke-width="2" stroke-miterlimit="10"/><path d="M121.157 49.884c3.122-1.059 9.508-3.125 15.414-4.397a1.614 1.614 0 0 1 1.899 1.16l4.33 16.001a2.094 2.094 0 0 1-1.59 2.6l-13.715 2.835a2.64 2.64 0 0 1-3.037-1.757l-4.598-13.823a2.073 2.073 0 0 1 1.297-2.619z" fill="#C9E0FF"/><path d="m228.217 103.555-4.055 5.621c-1.093 1.652.39 2.488 1.806 3.871l2.799 2.738a1.248 1.248 0 0 0 1.907-.19l4.311-6.326a1.26 1.26 0 0 0-.189-1.638l-4.691-4.308a1.248 1.248 0 0 0-1.888.232z" fill="#03299C"/><path d="m253.655 95.285-7.419-5.173-2.457 6.244 6.152 3.648 3.724-4.719z" fill="#F92385"/><path d="m165.019 69.03-4.991 7.557a4.391 4.391 0 0 0 .591 5.558l5.185 5.069a2.15 2.15 0 0 0 3.282-.329l6.281-9.213a2.168 2.168 0 0 0-.323-2.816l-6.772-6.221a2.15 2.15 0 0 0-3.253.399" fill="#57FFE1"/><path d="m184.774 92.197 5.278 5.45s4.944-5.719 5.293-7.114c.349-1.395-5.278-5.445-5.278-5.445l-5.293 7.113v-.004z" fill="#C9E0FF"/><path d="M104.198 37.833s6.08 1.645 8.314 3.525l-1.635 7.351a1.907 1.907 0 0 1-2.383 1.425c-2.356-.675-6.185-1.984-7.682-3.692l3.382-8.613.004.004z" fill="#D48743"/><path d="M220.802 98.415c-1.907.802-6.389 2.622-10.541 3.812a1.033 1.033 0 0 1-1.264-.66l-3.78-10.978a1.039 1.039 0 0 1 .703-1.339l10.102-2.816a1.034 1.034 0 0 1 1.234.604l4.103 10.023c.216.53-.033 1.13-.557 1.35" fill="#00D0FF"/><path d="m270.536 109.164.346-6.452a.928.928 0 0 0-.963-.981c-2.241.097-7.489.38-8.559.966-1.071.585-.74 5.296-.547 7.333a.928.928 0 0 0 1.019.835l7.872-.824a.928.928 0 0 0 .829-.877" fill="#D48743"/><path d="M147.212 86.498c-1.977 1.816-5.445 4.74-9.028 6.553a2.28 2.28 0 0 1-2.888-.724l-4.207-5.923a2.305 2.305 0 0 1 .379-3.088l7.181-6.128a2.26 2.26 0 0 1 3.107.164l5.564 5.863a2.307 2.307 0 0 1-.112 3.283" fill="#E0000F"/><path d="m191.889 114.909 3.951-1.242a1.445 1.445 0 0 0 .936-1.832l-1.579-4.763a1.436 1.436 0 0 0-1.688-.951l-3.52.817a1.444 1.444 0 0 0-1.078 1.727c.272 1.19.684 3.043 1.145 5.173a1.44 1.44 0 0 0 1.836 1.074M72.552 82.797l3.951-1.242a1.444 1.444 0 0 0 .937-1.831l-1.58-4.763a1.435 1.435 0 0 0-1.687-.951l-3.516.816a1.44 1.44 0 0 0-1.078 1.728c.271 1.19.684 3.043 1.141 5.173a1.44 1.44 0 0 0 1.836 1.074" fill="#F92385"/><path d="m168.417 103.648-7.579-5.285a1.982 1.982 0 0 0-2.932.79l-3.557 7.621a1.997 1.997 0 0 0 .788 2.562l6.292 3.73a1.98 1.98 0 0 0 2.561-.47l4.839-6.065a1.998 1.998 0 0 0-.416-2.883" fill="#FFED33"/><path d="M76.329 53.1s7.091-2.063 12.529-.873l3.304 13.002-13.823.291-2.01-12.42z" fill="#00D0FF"/><path d="M114.891 98.157c-3.13-.41-9.489-1.339-15.102-2.741-.799-.201-1.3-.992-1.144-1.802l2.999-15.587a1.996 1.996 0 0 1 2.461-1.56l12.983 3.365a2.534 2.534 0 0 1 1.873 2.794l-1.855 13.83a1.98 1.98 0 0 1-2.215 1.705" fill="#FFED33"/><path d="M62.142 45.998c-.517 3.126-1.662 9.47-3.256 15.05a1.55 1.55 0 0 1-1.837 1.086l-15.42-3.555a2.004 2.004 0 0 1-1.469-2.522l3.803-12.901a2.533 2.533 0 0 1 2.847-1.783l13.707 2.342a1.985 1.985 0 0 1 1.62 2.283" fill="#7672FF"/><path d="M294.629 105.065s-3.635 1.522-6.59 1.224l-2.535-6.692 7.315-.992 1.813 6.464-.003-.004z" fill="#00D0FF"/><path d="m68.958 32.678 9.497 9.802s8.89-10.283 9.519-12.793c.628-2.51-9.497-9.803-9.497-9.803l-9.519 12.794z" fill="#C9E0FF"/><path d="m58.109 18.549.68-14.446a2.43 2.43 0 0 0-2.093-2.525C53.306 1.097 46.72.224 42.25 0a1.665 1.665 0 0 0-1.728 1.414c-.532 3.562-1.74 12.782-.926 18.217.123.813.825 1.41 1.65 1.398l14.422-.137a2.47 2.47 0 0 0 2.442-2.343z" fill="#00D1FF"/><path d="M15.124 50.343 0 42.163s4.189-10.38 6.854-15.02c0 0 12.645 4.98 16.755 9.19l-8.485 14.01z" fill="#E0000F"/></g></g><defs><clipPath id="a"><path fill="#fff" d="M0 0h384v166H0z"/></clipPath><clipPath id="b"><path fill="#fff" d="M0 0h384v165.569H0z"/></clipPath></defs></svg>