<svg width="384" height="166" fill="none" xmlns="http://www.w3.org/2000/svg"><g clip-path="url(#a)"><path d="M162.613 33.554c-.186.82-.394 1.633-.605 2.45-1.144 4.473-.733 2.082-1.877 6.556-.107.422-.235.875-.581 1.145-.546.425-1.4.155-1.825-.391-.425-.547-.588-1.267-.598-1.962-.076-5.244.066-3.902 1.293-8.884l4.19 1.09.003-.004z" fill="#0067E2"/><path fill-rule="evenodd" clip-rule="evenodd" d="M157.905 79.722c-.522-2.965-1.041-5.93-1.563-8.894-.56-3.183-1.12-6.421-.836-9.729.283-3.307.656-7.628 3.059-9.697 3.07-2.646 7.941-3.632 8.919.827 3.447 15.679-4.898 40.799-6.596 46.462a157.88 157.88 0 0 1-1.483 4.684h-4.325c.671-8.787.623-18.93 2.825-23.656v.003z" fill="#01015B"/><path d="M155.08 103.375h4.325a163.253 163.253 0 0 1-1.908 5.442c-.235.633-.567 1.353-1.21 1.543-.826.242-1.926-.484-1.801-1.328.259-1.765.446-3.678.594-5.657z" fill="#0067E2"/><path fill-rule="evenodd" clip-rule="evenodd" d="M154.894 83.49c-.529 1.435-1.383 3.047-2.742 3.096-.823.028-1.587-.581-2.057-1.356-.47-.775-.705-1.702-.93-2.612-.975-3.93-1.946-7.86-2.921-11.79-.788-3.183-1.583-6.421-1.538-9.729.045-3.307 1.058-6.753 3.308-8.825 2.876-2.647 8.11-2.328 9.134 2.183 1.358 5.975 1.293 12.62.383 18.668a52.506 52.506 0 0 1-2.644 10.361l.007.004z" fill="#01015B"/><path fill-rule="evenodd" clip-rule="evenodd" d="M148.533 78.615c2.689-3.857 7.764-1.429 6.641 3.255-1.359 5.657-3.547 11.254-5.743 16.63-.58 1.422-1.185 2.83-1.808 4.235l-4.21-1.36c1.441-8.787 2.371-18.823 5.12-22.76z" fill="#01015B"/><path d="m143.409 101.375 4.211 1.36a157.379 157.379 0 0 1-2.472 5.321c-.29.591-.681 1.259-1.338 1.342-.836.104-1.853-.799-1.656-1.619.478-1.968.882-4.144 1.252-6.404h.003z" fill="#0067E2"/><path fill-rule="evenodd" clip-rule="evenodd" d="M140.893 110.37c.072-.764.148-1.543.452-2.248.298-.689.505-1.408 1.145-1.799.086.384.553.968.94 1.051.304.063 1.946-.501 2.216-.349.197.111.035 3.3.847 4.082.816.782 1.832 1.304 2.766 1.941.325.221.65.464.857.799.211.332.287.775.1 1.121-.017.035-.041.055-.062.083l-6.683-1.107c-.117-.253-.21-.526-.3-.789-.322-.951-.647-1.906-.968-2.857a11.667 11.667 0 0 0-.861 3.297l-.747-.125c.097-1.031.197-2.062.294-3.096l.004-.004zM158.119 61.553c-2.212-.063-18.54 1.363-9.5-12.988 1.258-2 4.453-2.217 6.797-2.511 3.173-.402 9.354-.37 10.883 2.511 4.76 8.995-5.732 13.057-8.18 12.988z" fill="#01015B"/><path d="M157.732 30.42c.819-2.29 1.957-4.757 3.969-6.241.629-.464.736-.533 1.061.156.256.543.335 1.255.418 1.84.176 1.2.176 2.425.066 3.633-.114 1.262-.353 2.508-.636 3.746l-5.625-.834c.225-.774.474-1.542.743-2.303l.004.003z" fill="#FF2D2D"/><path d="M152.024 41.615c.584-5.539-5.362-10.185-4.802-15.727.381-3.781 4.114-6.767 7.914-6.715 3.795.048 7.284 2.813 8.642 6.362.643 1.685.861 3.529.629 5.314-.162 1.249-.535 2.46-.746 3.698-.436 2.543-.173 5.134.425 7.625.522 2.173 1.649 4.245 2.212 6.39h-17.676c.512-.896 3.236-5.349 3.406-6.947h-.004z" fill="#FF2D2D"/><path fill-rule="evenodd" clip-rule="evenodd" d="M153.587 111.796c-.052-.765-.104-1.547.079-2.291.184-.73.446-1.47 1.013-1.958.149.367.526.865.92.879.311.014 1.856-.644 2.15-.536.211.076.553 3.079 1.483 3.715.93.637 2.023.99 3.046 1.464.356.166.715.353.978.647.263.294.408.719.28 1.089-.014.035-.031.063-.048.094h-6.776c-.159-.232-.294-.481-.429-.73-.473-.889-.947-1.775-1.421-2.664a11.555 11.555 0 0 0-.307 3.39h-.757a850.348 850.348 0 0 1-.215-3.099h.004zM160.062 3.702c-.47-1.166-1.601-2.038-2.849-2.19a3.602 3.602 0 0 0-3.291 1.439c-.373.519-.622 1.152-1.134 1.533-.674.501-1.6.429-2.416.633-1.238.314-2.258 1.366-2.527 2.615-.55 2.529 1.77 5.006 1.286 7.549-.218 1.159-.992 2.124-1.798 2.985-.802.862-1.68 1.696-2.188 2.758-.508 1.062-.564 2.446.221 3.328.56.63 1.421.882 2.24 1.065.916.201 1.853.232 2.79.232 2.171 0 2.171-4.47 2.282-7.93.065-1.999 4.691-2.217 5.258-4.137.311-1.052-.042-2.186.066-3.276.103-1.066.65-1.816 1.327-2.595.508-.58.847-1.473.947-2.224a3.517 3.517 0 0 0-.214-1.782v-.003z" fill="#01015B"/><path d="M157.158 14.838a9.564 9.564 0 0 0 .256 4.22c.124.423.266.914.014 1.274-.242.342-.723.387-1.145.401-.701.024-1.421.045-2.095-.156-.674-.2-1.31-.664-1.531-1.332-.183-.55-.062-1.152.059-1.719l.694-3.27c.07-.317.146-.653.363-.895.367-.408 1.031-.412 1.518-.156.484.253.833.702 1.165 1.138l.702.502v-.007z" fill="#0067E2"/><path d="M159.225 14.367c.35-.705.439-1.504.519-2.29.111-1.076.211-2.169.028-3.234-.187-1.066-.695-2.121-1.587-2.733-1.079-.74-2.527-.713-3.765-.295-1.075.364-2.109 1.063-2.53 2.114-.229.571-.263 1.2-.291 1.817-.038.799-.076 1.619.17 2.383.269.844.871 1.557 1.576 2.09.709.536 1.521.91 2.34 1.249.474.197.961.384 1.47.415 1.016.062 1.649-.671 2.07-1.519v.003z" fill="#0067E2"/><path fill-rule="evenodd" clip-rule="evenodd" d="M154.838 7.729c-.456 1.027-.28 2.321-.995 3.186-.581.702-1.705.882-2.476.394-.587-.373-.933-1.065-.971-1.76-.038-.696.204-1.388.588-1.966.387-.577.909-1.055 1.466-1.473.857-.644 1.821-1.17 2.869-1.391a4.819 4.819 0 0 1 2.026-.007c.501.11 1.472.384 1.607.979.132.585-.383.695-.798.578-.633-.177-1.2-.225-1.833.027a2.804 2.804 0 0 0-1.479 1.43l-.004.003z" fill="#01015B"/><path d="M152.342 10.69a1.587 1.587 0 0 0-.618-.118c-.211.01-.426.09-.561.25-.179.218-.183.536-.11.813.183.691.792 1.193 1.524 1.048.557-.111.771-.613.668-1.145-.087-.457-.498-.703-.903-.848z" fill="#0067E2"/><path fill-rule="evenodd" clip-rule="evenodd" d="M216.108 84.475c-.598 1.263-1.414 2.689-2.6 3.041-.819.246-3.128-1.307-3.588-1.93-.463-.623.968-30.697 2.001-32.527 1.387-2.456 12.325.938 11.948 5.197-.481 5.445-2.033 11.24-3.872 16.644a90.87 90.87 0 0 1-3.889 9.579v-.004z" fill="#01015B"/><path d="M229.677 112.394a8.039 8.039 0 0 1-3.589-.29c.08-1.412.163-2.823.242-4.235.011-.18.025-.367.118-.515.138-.222.418-.308.677-.353.979-.173 2.465-.225 2.497 1 .038 1.463.034 2.93.051 4.393h.004zM209.84 112.394a7.784 7.784 0 0 1-3.55-.29c.263-1.412.522-2.823.785-4.235.034-.18.069-.367.183-.515.169-.222.456-.308.722-.353.999-.173 2.493-.225 2.372 1-.149 1.463-.339 2.93-.508 4.393h-.004z" fill="#D38742"/><path fill-rule="evenodd" clip-rule="evenodd" d="M210.241 81.016c1.563-2.498 5.328-4.21 6.907.124 2.413 6.612-5.237 18.976-6.378 26.961h-4.096c-.115-.772 2.7-25.698 3.567-27.085zM230.064 60.383c-.999.785-2.316.907-3.554.907-10.184 0-16.075-3.315-14.668-7.995 1.445-4.81 10.561-4.034 15.321-2.484 1.027.335 2.521.657 3.222 1.615 1.017 1.39 2.102 6.044-.321 7.957z" fill="#01015B"/><path d="M213.532 25.995c-2.755 3.802-6.067 7.39-10.357 9.3-.923.411-2.085.712-2.88.09-.467-.364-.688-.98-.691-1.571-.007-.592.176-1.17.39-1.72 1.694-4.338 5.342-7.559 8.868-10.596 1.452-1.253 3.809-3.598 5.911-3.453 2.189.152 1.342 3.366.809 4.556-.539 1.208-1.275 2.322-2.05 3.39v.004z" fill="#D38742"/><path d="M217.238 20.463c.332-.706.64-1.591.208-2.255-.457-.703-1.421-.692-2.202-.554-4.73.834-8.273 3.965-11.391 7.75l7 4.981a45.358 45.358 0 0 0 6.385-9.922z" fill="#000090"/><path fill-rule="evenodd" clip-rule="evenodd" d="M229.2 84.475c-.346 1.263-.875 2.689-1.985 3.041-.771.246-3.391-1.307-3.979-1.93-.588-.623-5.31-25.853-4.646-27.683.892-2.457 3.125-4.048 5.424-4.415 3.34-.532 7.184.505 7.664 4.767.616 5.446.235 11.24-.518 16.645a76.992 76.992 0 0 1-1.96 9.579v-.004z" fill="#01015B"/><path d="M187.307 36.35c-.574.4-1.21.913-1.203 1.612.007.591.508 1.086 1.072 1.27.56.183 13.873-2.64 16.013-5.069 1.078-1.221.681-2.619-.363-3.64-1.452-1.418-13.424 4.37-15.519 5.827z" fill="#D38742"/><path fill-rule="evenodd" clip-rule="evenodd" d="M222.406 81.016c.968-2.494 4.795-4.466 6.939.124 3.45 7.387 1.345 18.43.708 26.961h-4.096c-.297-.772-4.086-25.698-3.547-27.085h-.004z" fill="#01015B"/><path d="M210.739 22.297c-1.037 1.536-.66 3.726-.401 5.5.553 3.8 1.856 7.48 2.62 11.251.764 3.771.961 7.77-.639 11.327-.253.557-.55 1.114-.602 1.712-.052.599.208 1.266.813 1.536.352.16.767.16 1.165.156l16.044-.104c.356 0 .736-.01 1.027-.194.643-.401.418-1.273.19-1.937-1.542-4.46-.225-9.261 1.175-13.755 1.39-4.46 3.094-9.97 2.327-14.638-1.888-2.307-5.746-7.66-13.4-7.66-5.369 0-9.386 5.425-10.316 6.802l-.003.004z" fill="#000090"/><path d="M237.116 32.368a22.055 22.055 0 0 0-6.506-10.704c-.567-.512-1.331-1.024-2.033-.723-.383.162-.639.543-.75.944-.114.401-.103.823-.086 1.239.193 4.847 1.072 9.638 1.95 14.409.269 1.467.546 2.95 1.178 4.3.633 1.35 1.674 2.57 3.067 3.1.729.276 1.922.44 2.593-.087.539-.422.629-1.498.767-2.11a22.15 22.15 0 0 0 .456-6.636 21.6 21.6 0 0 0-.636-3.732z" fill="#D38742"/><path fill-rule="evenodd" clip-rule="evenodd" d="M238.333 33.907a.39.39 0 0 1 .011.09c0-.032-.007-.059-.011-.09z" fill="#18898D"/><path d="M227.603 20.76c.041-.774.19-1.688.888-2.027.736-.356 2.102.315 2.728.845 3.778 3.21 5.877 7.586 6.831 12.45l-9.524.53a45.663 45.663 0 0 1-.923-11.8v.003z" fill="#000090"/><path d="M224.294 30.274c-.754-.072-1.424.602-1.594 1.343-.169.74 8.57 12.482 10.683 14.104.643.495 1.421 1.014 2.202.796.698-.194 1.11-.906 1.359-1.588.418-1.141.701-2.58.459-3.795-.166-.837-.926-1.097-1.538-1.578-2.251-1.76-11.087-9.24-11.571-9.285v.003z" fill="#D38742"/><path d="M221.923 21.965c-.225-.204-.547-.412-.806-.26-.169.097-.235.312-.221.505.014.194.093.374.152.56.308.952.114 1.98.052 2.98a11.172 11.172 0 0 0 1.58 6.42c.988 1.637 2.7-.982 2.631-2.13-.118-1.872-.526-3.893-1.425-5.55a9.727 9.727 0 0 0-1.963-2.522v-.003z" fill="#D38742"/><path fill-rule="evenodd" clip-rule="evenodd" d="M214.324 7.912c.256.426.577.311.563-.18-.051-1.577-.107-1.823.605-3.238.391-.778.519-.844.159-1.107-1.185-.875-3.436.993-1.327 4.528v-.003z" fill="#01015B"/><path d="M218.908 10.13c.526-2.315 2.275-2.858 3.291-2.301.654 4.335 1.317 6.258 3.015 8.621-2.109 1.353-5.711 1.104-6.493 0-.031-.346-.086-5.123.187-6.32z" fill="#D38742"/><path d="M220.996 3.947c-1.601-1.982-4.847-1.626-6.022.824-1.075 2.242.104 6.978 1.034 7.964 1.624 1.723 5.074-.25 5.555-1.543.705-1.893.781-5.577-.567-7.245z" fill="#D38742"/><path fill-rule="evenodd" clip-rule="evenodd" d="M220.153 4.594c-.101.36.753 5.159.885 5.103.47-.194 1.068-1.54 1.956-1.49.284.016.675.2.685-.368.069-3.604.211-3.418-.429-3.75-1.414-.73-2.921-.138-3.097.505z" fill="#01015B"/><path fill-rule="evenodd" clip-rule="evenodd" d="M224.09 2.346C221.152.28 216.336-.502 214.939.322c-2.077 1.221-.549 4.708.229 4.902.356.086.681-.194.985-.401 1.438-.98 2.724-.232 3.803-.031 1.915.352 6.634-.685 4.131-2.446h.003z" fill="#01015B"/><path d="M223.776 7.656a2.292 2.292 0 0 1-.495 1.636c-1.054 1.298-2.112-.456-1.866-1.546.29-1.3 2.212-1.671 2.364-.087l-.003-.003z" fill="#D38742"/><path fill-rule="evenodd" clip-rule="evenodd" d="M198.473 114.466c-.051-.588.505-1.072 1.076-1.21.573-.135 1.172-.031 1.759-.038 1.68-.021 3.309-1.028 4.08-2.519.107-.204.207-.432.407-.543.267-.152.616-.038.854.156.239.193.405.46.623.678.39.391.943.605 1.493.598.46-.007.975-.36 1.417-.124.391.204.495.747.595 1.131.17.664.325 1.335.488 1.999.034.149.072.301.083.454h-3.198c-.149-.211-.27-.82-.336-1.073-.01.26-.114.872-.276 1.073h-8.791a.985.985 0 0 1-.277-.582h.003zM224.495 114.466c-.025-.588.221-1.072.473-1.21.253-.139.643-1.121 1.165-2.561.239-.657 1.566-.84 2.23.291.214.367.415.605.657.599.204-.007.429-.36.622-.125.173.204.218.747.263 1.131.076.665.142 1.336.214 2 .018.149.031.301.035.453h-5.538a1.667 1.667 0 0 1-.121-.581v.003z" fill="#01015B"/><path d="M182.816 36.346c-.805.446-1.496 1.228-1.559 2.149-.058.857.453 1.698 1.19 2.148.736.446 1.652.53 2.492.353.84-.177 2.783-1.308 2.925-3.214.086-1.17-.581-1.595-1.58-1.854-1.12-.291-2.458-.139-3.468.422v-.004z" fill="#D38742"/><path d="m184.628 37.695 1.23-2.68c.733.276 1.463.733 2.019 1.068.695.419-.072 3.266-.705 3.148-.553-.1-1.808-.986-2.548-1.536h.004zM185.247 39.21c.2-.013.404-.037.601.004.197.042.391.173.443.367.069.256-.125.505-.315.688a5.035 5.035 0 0 1-3.471 1.374c-.605-.004-1.307-.197-1.528-.758-.204-.512.114-1.114.578-1.415 1.261-.82 2.354-.176 3.688-.256l.004-.003z" fill="#D38742"/><path fill-rule="evenodd" clip-rule="evenodd" d="M157.905 79.722c-.522-2.965-1.041-5.93-1.563-8.894-.56-3.183-1.12-6.421-.836-9.729.283-3.307.656-7.628 3.059-9.697 3.07-2.646 7.941-3.632 8.919.827 3.447 15.679-4.898 40.799-6.596 46.462a157.88 157.88 0 0 1-1.483 4.684h-4.325c.671-8.787.623-18.93 2.825-23.656v.003z" fill="#01015B"/><path d="M155.08 103.375h4.325a163.253 163.253 0 0 1-1.908 5.442c-.235.633-.567 1.353-1.21 1.543-.826.242-1.926-.484-1.801-1.328.259-1.765.446-3.678.594-5.657z" fill="#0067E2"/><path fill-rule="evenodd" clip-rule="evenodd" d="M154.894 83.49c-.529 1.435-1.383 3.047-2.742 3.096-.823.028-1.587-.581-2.057-1.356-.47-.775-.705-1.702-.93-2.612-.975-3.93-1.946-7.86-2.921-11.79-.788-3.183-1.583-6.421-1.538-9.729.045-3.307 1.058-6.753 3.308-8.825 2.876-2.647 8.11-2.328 9.134 2.183 1.358 5.975 1.293 12.62.383 18.668a52.506 52.506 0 0 1-2.644 10.361l.007.004z" fill="#01015B"/><path fill-rule="evenodd" clip-rule="evenodd" d="M148.533 78.615c2.689-3.857 7.764-1.429 6.641 3.255-1.359 5.657-3.547 11.254-5.743 16.63-.58 1.422-1.185 2.83-1.808 4.235l-4.21-1.36c1.441-8.787 2.371-18.823 5.12-22.76z" fill="#01015B"/><path d="m143.409 101.375 4.211 1.36a157.379 157.379 0 0 1-2.472 5.321c-.29.591-.681 1.259-1.338 1.342-.836.104-1.853-.799-1.656-1.619.478-1.968.882-4.144 1.252-6.404h.003z" fill="#0067E2"/><path fill-rule="evenodd" clip-rule="evenodd" d="M140.893 110.37c.072-.764.148-1.543.452-2.248.298-.689.505-1.408 1.145-1.799.086.384.553.968.94 1.051.304.063 1.946-.501 2.216-.349.197.111.035 3.3.847 4.082.816.782 1.832 1.304 2.766 1.941.325.221.65.464.857.799.211.332.287.775.1 1.121-.017.035-.041.055-.062.083l-6.683-1.107c-.117-.253-.21-.526-.3-.789-.322-.951-.647-1.906-.968-2.857a11.667 11.667 0 0 0-.861 3.297l-.747-.125c.097-1.031.197-2.062.294-3.096l.004-.004zM158.119 61.553c-2.212-.063-18.54 1.363-9.5-12.988 1.258-2 4.453-2.217 6.797-2.511 3.173-.402 9.354-.37 10.883 2.511 4.76 8.995-5.732 13.057-8.18 12.988zM153.587 111.796c-.052-.765-.104-1.547.079-2.291.184-.73.446-1.47 1.013-1.958.149.367.526.865.92.879.311.014 1.856-.644 2.15-.536.211.076.553 3.079 1.483 3.715.93.637 2.023.99 3.046 1.464.356.166.715.353.978.647.263.294.408.719.28 1.089-.014.035-.031.063-.048.094h-6.776c-.159-.232-.294-.481-.429-.73-.473-.889-.947-1.775-1.421-2.664a11.555 11.555 0 0 0-.307 3.39h-.757a850.348 850.348 0 0 1-.215-3.099h.004z" fill="#01015B"/><path d="M149.528 29.472c-1.258-1.436-2.216-3.21-2.34-5.117-.031-.467.024-1.01.408-1.283.359-.253.854-.156 1.272-.024 2.759.871 5.054 2.753 7.236 4.68l-3.706 4.342c-1.027-.792-2.016-1.63-2.87-2.602v.004z" fill="#FF2D2D"/><path d="M153.877 33.177c-.494-.363-.992-.73-1.479-1.107l3.706-4.342.622.554c2.174 1.937 3.277 3.58 5.452 5.518.816.726 3 1.674 3.09 2.864.063.855-.37 1.786-1.165 2.16-.691.32-2.582-.039-3.294-.312-.712-.273-1.335-.73-1.95-1.18-2.019-1.48-2.963-2.67-4.982-4.151v-.004z" fill="#0067E2"/><path d="M179.622 36.388c.667.024 2.237.114 2.244.782.007.515-1.311.968-1.819 1.051-3.536.568-16.379 1.215-17.178.965-1.314-.408-2.136-3.729-.321-4.431 1.839-.716 11.021 1.422 17.074 1.636v-.003z" fill="#0067E2"/><path d="M181.479 35.606c1.033-.16 2.07-.315 3.104-.474.207.097.131.436-.059.557-.19.12-.435.124-.65.197-.214.076-.422.301-.332.509.094.21.384.21.612.176 1.044-.156 2.088-.308 3.132-.464.426.717.152 1.692-.446 2.27-.598.578-1.438.83-2.261.955a9.813 9.813 0 0 1-3.453-.083c-.653-.135-1.341-.367-1.736-.907-.999-1.377.993-2.577 2.089-2.743v.007z" fill="#0067E2"/><path fill-rule="evenodd" clip-rule="evenodd" d="M160.062 3.702c-.47-1.166-1.601-2.038-2.849-2.19a3.602 3.602 0 0 0-3.291 1.439c-.373.519-.622 1.152-1.134 1.533-.674.501-1.6.429-2.416.633-1.238.314-2.258 1.366-2.527 2.615-.55 2.529 1.77 5.006 1.286 7.549-.218 1.159-.992 2.124-1.798 2.985-.802.862-1.68 1.696-2.188 2.758-.508 1.062-.564 2.446.221 3.328.56.63 1.421.882 2.24 1.065.916.201 1.853.232 2.79.232 2.171 0 2.171-4.47 2.282-7.93.065-1.999 4.691-2.217 5.258-4.137.311-1.052-.042-2.186.066-3.276.103-1.066.65-1.816 1.327-2.595.508-.58.847-1.473.947-2.224a3.517 3.517 0 0 0-.214-1.782v-.003z" fill="#01015B"/><path d="M157.158 14.838a9.564 9.564 0 0 0 .256 4.22c.124.423.266.914.014 1.274-.242.342-.723.387-1.145.401-.701.024-1.421.045-2.095-.156-.674-.2-1.31-.664-1.531-1.332-.183-.55-.062-1.152.059-1.719l.694-3.27c.07-.317.146-.653.363-.895.367-.408 1.031-.412 1.518-.156.484.253.833.702 1.165 1.138l.702.502v-.007z" fill="#0067E2"/><path d="M159.225 14.367c.35-.705.439-1.504.519-2.29.111-1.076.211-2.169.028-3.234-.187-1.066-.695-2.121-1.587-2.733-1.079-.74-2.527-.713-3.765-.295-1.075.364-2.109 1.063-2.53 2.114-.229.571-.263 1.2-.291 1.817-.038.799-.076 1.619.17 2.383.269.844.871 1.557 1.576 2.09.709.536 1.521.91 2.34 1.249.474.197.961.384 1.47.415 1.016.062 1.649-.671 2.07-1.519v.003z" fill="#0067E2"/><path fill-rule="evenodd" clip-rule="evenodd" d="M154.838 7.729c-.456 1.027-.28 2.321-.995 3.186-.581.702-1.705.882-2.476.394-.587-.373-.933-1.065-.971-1.76-.038-.696.204-1.388.588-1.966.387-.577.909-1.055 1.466-1.473.857-.644 1.821-1.17 2.869-1.391a4.819 4.819 0 0 1 2.026-.007c.501.11 1.472.384 1.607.979.132.585-.383.695-.798.578-.633-.177-1.2-.225-1.833.027a2.804 2.804 0 0 0-1.479 1.43l-.004.003z" fill="#01015B"/><path d="M152.342 10.69a1.587 1.587 0 0 0-.618-.118c-.211.01-.426.09-.561.25-.179.218-.183.536-.11.813.183.691.792 1.193 1.524 1.048.557-.111.771-.613.668-1.145-.087-.457-.498-.703-.903-.848z" fill="#0067E2"/><path d="M185.672 35.786c-1.051.377-2.717.826-3.367 1.069-.17.062-.329.166-.509.204-.179.038-.397-.02-.466-.19-.09-.218.11-.436.294-.582.881-.72 1.849-1.473 2.987-1.518.397-.018.822.086 1.248.249 0 0-.087.847-.187.771v-.003z" fill="#D38742"/><path d="m106.388 44.47-3.029 5.676c-.798 1.657.671 2.235 2.154 3.332l2.925 2.159c.58.429 1.41.231 1.732-.416l3.177-6.358a1.168 1.168 0 0 0-.381-1.48l-4.864-3.367a1.164 1.164 0 0 0-1.711.453" fill="#03299C"/><path d="m117.793 29.372-7.492-3.816-1.476 6.047 6.129 2.574 2.839-4.805z" fill="#F92385"/><path d="M4.048 7.843.401 15.419a4.066 4.066 0 0 0 1.244 5.03l5.414 4.003a2.003 2.003 0 0 0 2.984-.716l4.629-9.261a2.004 2.004 0 0 0-.654-2.546L6.994 7.068a2.001 2.001 0 0 0-2.946.778" fill="#57FFE1"/><path d="m32.517 40.439 5.552 4.338s3.834-5.878 3.98-7.206c.144-1.325-5.553-4.338-5.553-4.338l-3.979 7.202v.004z" fill="#C9E0FF"/><path d="M59.696 16.696c-1.655.979-5.558 3.217-9.23 4.836a.962.962 0 0 1-1.248-.446l-4.868-9.61a.961.961 0 0 1 .478-1.319L53.78 6.29a.96.96 0 0 1 1.214.4l5.044 8.691a.96.96 0 0 1-.343 1.311" fill="#00D0FF"/><path d="m78.392 36.045-.494-5.975a.862.862 0 0 0-1.013-.778c-2.053.37-6.855 1.294-7.765 1.969-.912.674-.013 4.96.422 6.805.11.467.581.754 1.044.64l7.153-1.754a.864.864 0 0 0 .653-.91" fill="#D48743"/><path d="m54.314 67.503 3.484-1.64a1.34 1.34 0 0 0 .633-1.802l-2.053-4.18a1.338 1.338 0 0 0-1.677-.66l-3.139 1.193a1.342 1.342 0 0 0-.778 1.723 371.462 371.462 0 0 1 1.705 4.608c.27.74 1.113 1.09 1.825.754" fill="#F92385"/><path d="m18.886 53.035-7.647-3.899a1.849 1.849 0 0 0-2.603 1.097l-2.317 7.452A1.852 1.852 0 0 0 7.37 59.94l6.268 2.633a1.85 1.85 0 0 0 2.303-.754l3.695-6.186c.55-.92.204-2.11-.747-2.598" fill="#FFED33"/><path d="M135.365 38.367s-3.16 1.857-5.919 1.958l-3.18-5.83 6.613-1.837 2.486 5.709z" fill="#00D0FF"/><path d="m287.945 29.271 3.029 5.678c.798 1.657-.671 2.234-2.154 3.331l-2.925 2.159c-.58.429-1.41.232-1.732-.415l-3.177-6.359a1.169 1.169 0 0 1 .381-1.48l4.864-3.367c.587-.408 1.4-.19 1.711.453" fill="#03299C"/><path d="m268.707 52.661 7.491-3.816 1.473 6.048-6.129 2.574-2.835-4.806z" fill="#00D0FF"/><path d="m379.952 11.247 3.647 7.573a4.067 4.067 0 0 1-1.245 5.03l-5.413 4.003a2.003 2.003 0 0 1-2.984-.716l-4.629-9.261a2.004 2.004 0 0 1 .654-2.547l7.024-4.86a2.002 2.002 0 0 1 2.946.778z" fill="#F92385"/><path d="m356.25 34.99-5.552 4.338s-3.834-5.878-3.979-7.206c-.145-1.325 5.552-4.338 5.552-4.338l3.979 7.203v.003z" fill="#C9E0FF"/><path d="M324.304 20.096c1.656.98 5.559 3.218 9.23 4.837a.962.962 0 0 0 1.248-.446l4.867-9.611a.96.96 0 0 0-.477-1.318l-8.953-3.868a.962.962 0 0 0-1.214.402l-5.044 8.69a.96.96 0 0 0 .343 1.311" fill="#FFED33"/><path d="m300.775 63.604.494-5.975a.862.862 0 0 1 1.013-.778c2.053.37 6.855 1.294 7.764 1.968.913.675.014 4.962-.421 6.805a.863.863 0 0 1-1.044.64l-7.153-1.754a.863.863 0 0 1-.653-.91" fill="#D48743"/><path d="m324.151 46.528-3.484-1.64a1.341 1.341 0 0 1-.633-1.803l2.053-4.179a1.34 1.34 0 0 1 1.677-.66l3.139 1.193a1.342 1.342 0 0 1 .778 1.723 372.945 372.945 0 0 0-1.704 4.608 1.337 1.337 0 0 1-1.826.754" fill="#00D1FF"/><path d="m345.665 58.498 7.647-3.9a1.848 1.848 0 0 1 2.603 1.098l2.316 7.451a1.851 1.851 0 0 1-1.051 2.256l-6.267 2.633a1.851 1.851 0 0 1-2.303-.755l-3.695-6.185c-.55-.92-.204-2.11.746-2.598" fill="#F92385"/><path d="M248.635 41.767s3.16 1.858 5.919 1.958l3.18-5.829-6.613-1.837-2.486 5.708z" fill="#E0000F"/></g><defs><clipPath id="a"><path fill="#fff" d="M0 0h384v115.048H0z"/></clipPath></defs></svg>