<svg width="384" height="166" viewBox="0 0 384 166" fill="none" xmlns="http://www.w3.org/2000/svg">
<g clip-path="url(#clip0_175_12439)">
<path d="M221.743 29.7921C222.528 29.013 223.3 27.9499 222.979 26.8908C222.792 26.27 222.255 25.8033 221.653 25.5639C221.051 25.3245 220.388 25.2839 219.742 25.2839C214.642 25.2921 201.985 31.0703 197.222 33.7525C195.128 34.9333 211.864 37.1042 213.295 37.0352C214.743 36.9622 218.09 33.4076 221.743 29.7921Z" fill="#D38742"/>
<path d="M218.412 8.72412L221.763 8.77281C222.434 14.3928 223.557 26.5539 222.357 28.7086C221.491 30.2668 219.904 30.3723 218.469 29.6703C216.911 28.9074 217.777 14.7296 218.412 8.72412Z" fill="#D38742"/>
<path d="M220.84 4.02121C219.612 3.14068 217.765 3.25023 216.655 4.27685C215.728 2.95402 214.577 -1.14838 213.873 0.304302C213.56 0.949485 215.471 5.98111 217.436 8.13578C218.087 8.84994 218.867 9.52353 219.823 9.67367C223.004 10.1849 222.605 5.28317 220.84 4.01715V4.02121Z" fill="#D38742"/>
<path fill-rule="evenodd" clip-rule="evenodd" d="M199.805 107.441C200.517 108.935 201.48 110.619 202.884 111.037C203.856 111.325 206.589 109.491 207.138 108.752C207.687 108.014 205.987 72.4757 204.763 70.313C203.119 67.4117 190.154 71.4207 190.601 76.4523C191.17 82.8879 193.009 89.7374 195.193 96.1203C196.502 99.9508 198.044 103.737 199.805 107.441Z" fill="#01015B"/>
<path d="M183.715 140.431C185.135 140.642 186.603 140.524 187.97 140.09C187.872 138.422 187.778 136.754 187.681 135.087C187.669 134.876 187.652 134.657 187.542 134.478C187.376 134.214 187.046 134.113 186.741 134.06C185.582 133.857 183.821 133.792 183.78 135.241C183.736 136.97 183.74 138.702 183.715 140.435V140.431Z" fill="#D38742"/>
<path d="M207.231 140.431C208.679 140.642 210.127 140.524 211.441 140.09C211.132 138.422 210.823 136.754 210.513 135.087C210.473 134.876 210.432 134.657 210.294 134.478C210.095 134.214 209.753 134.113 209.44 134.06C208.256 133.857 206.483 133.792 206.629 135.241C206.804 136.97 207.032 138.702 207.231 140.435V140.431Z" fill="#D38742"/>
<path fill-rule="evenodd" clip-rule="evenodd" d="M206.756 103.347C204.905 100.393 200.443 98.3681 198.569 103.493C195.709 111.304 204.779 125.92 206.129 135.355H210.985C211.12 134.442 207.785 104.986 206.756 103.347Z" fill="#01015B"/>
<path fill-rule="evenodd" clip-rule="evenodd" d="M180.982 86.5154C181.108 88.0127 186.005 80.0352 187.469 80.0352C199.54 80.0352 206.524 76.1194 204.856 70.5846C203.14 64.9038 192.338 65.8208 186.697 67.6509C185.48 68.0445 183.707 68.4259 182.878 69.5621C181.674 71.2055 180.043 75.5432 180.982 86.5154Z" fill="#01015B"/>
<path fill-rule="evenodd" clip-rule="evenodd" d="M184.281 107.441C184.687 108.935 185.314 110.619 186.636 111.036C187.551 111.325 190.654 109.49 191.349 108.752C192.045 108.013 197.645 78.197 196.856 76.0342C195.799 73.1329 193.151 71.2501 190.426 70.82C186.469 70.191 181.914 71.4165 181.34 76.4522C180.608 82.8878 181.064 89.7373 181.954 96.1201C182.491 99.9507 183.264 103.737 184.277 107.441H184.281Z" fill="#01015B"/>
<path fill-rule="evenodd" clip-rule="evenodd" d="M192.334 103.347C191.187 100.401 186.652 98.0721 184.11 103.493C180.018 112.226 182.516 125.271 183.272 135.355H188.128C188.482 134.442 192.972 104.986 192.334 103.347Z" fill="#01015B"/>
<path d="M206.162 33.9595C207.39 35.7733 206.947 38.3622 206.638 40.46C205.983 44.952 204.437 49.3019 203.53 53.7573C202.623 58.2127 202.392 62.94 204.291 67.1439C204.588 67.8012 204.942 68.4586 205.003 69.1687C205.064 69.8747 204.755 70.666 204.039 70.9825C203.62 71.1691 203.128 71.1692 202.66 71.1692C196.319 71.1286 189.979 71.088 183.638 71.0474C183.215 71.0474 182.768 71.0352 182.422 70.8202C181.661 70.3454 181.926 69.3188 182.198 68.5316C184.029 63.2606 182.467 57.5878 180.807 52.2762C179.16 47.0052 177.139 40.4925 178.05 34.978C180.287 32.2512 184.862 25.9292 193.932 25.9292C200.293 25.9292 205.06 32.3405 206.162 33.9676V33.9595Z" fill="#000090"/>
<path d="M174.898 45.8568C176.171 41.0159 178.888 36.5605 182.613 33.2047C183.284 32.6001 184.191 31.9955 185.025 32.3485C185.476 32.5392 185.781 32.9896 185.916 33.4644C186.05 33.9392 186.038 34.4383 186.017 34.9293C185.789 40.6588 184.744 46.3194 183.703 51.9597C183.382 53.6923 183.056 55.4453 182.308 57.04C181.56 58.6347 180.323 60.0792 178.672 60.7041C177.806 61.0328 176.394 61.2235 175.597 60.6027C174.955 60.1036 174.849 58.8335 174.69 58.1072C174.117 55.5427 173.934 52.8889 174.149 50.2676C174.271 48.7784 174.524 47.3014 174.902 45.8568H174.898Z" fill="#D38742"/>
<path fill-rule="evenodd" clip-rule="evenodd" d="M173.458 47.6787C173.45 47.715 173.446 47.7473 173.446 47.7835C173.446 47.7473 173.454 47.711 173.458 47.6787Z" fill="#18898D"/>
<path d="M186.176 32.1374C186.127 31.2203 185.952 30.141 185.122 29.7433C184.252 29.3213 182.629 30.1166 181.889 30.7415C177.411 34.5355 174.922 39.7092 173.792 45.4549L185.078 46.0798C186.046 41.5027 186.42 36.8038 186.172 32.1374H186.176Z" fill="#000090"/>
<path d="M190.097 43.3815C190.991 43.2963 191.785 44.0916 191.988 44.9681C192.187 45.8446 181.828 59.7181 179.327 61.6374C178.566 62.2217 177.643 62.8344 176.716 62.5788C175.89 62.3515 175.398 61.5075 175.105 60.7C174.609 59.3488 174.272 57.6527 174.56 56.2162C174.76 55.2261 175.658 54.9177 176.382 54.3537C179.05 52.2721 189.523 43.4343 190.097 43.3775V43.3815Z" fill="#D38742"/>
<path d="M192.907 33.5658C193.171 33.3224 193.554 33.0789 193.863 33.2615C194.062 33.3751 194.139 33.6308 194.123 33.858C194.107 34.0852 194.013 34.3003 193.944 34.5194C193.578 35.6434 193.806 36.8607 193.879 38.0375C194.042 40.675 193.379 43.3613 192.008 45.6255C190.833 47.557 188.807 44.4609 188.893 43.1056C189.031 40.8942 189.515 38.5041 190.581 36.5483C191.187 35.4365 191.972 34.422 192.907 33.5699V33.5658Z" fill="#D38742"/>
<path fill-rule="evenodd" clip-rule="evenodd" d="M201.916 16.9573C201.615 17.4605 201.228 17.3266 201.249 16.7423C201.31 14.8798 201.375 14.5876 200.533 12.9158C200.069 11.9947 199.919 11.9176 200.342 11.6052C201.749 10.5704 204.417 12.7779 201.916 16.9533V16.9573Z" fill="#01015B"/>
<path d="M196.482 19.5746C195.86 16.8397 193.785 16.1986 192.578 16.8559C191.805 21.9768 191.016 24.2532 189.007 27.0449C191.508 28.6437 195.778 28.3475 196.702 27.0449C196.738 26.6351 196.803 20.9908 196.482 19.5746Z" fill="#D38742"/>
<path d="M194.009 12.2707C195.909 9.92942 199.756 10.3474 201.147 13.2406C202.42 15.8903 201.025 21.49 199.923 22.6546C197.995 24.6916 193.908 22.3583 193.338 20.8326C192.504 18.5927 192.411 14.2428 194.009 12.2707Z" fill="#D38742"/>
<path fill-rule="evenodd" clip-rule="evenodd" d="M195.005 13.0376C195.123 13.4636 194.115 19.1323 193.956 19.0674C193.399 18.8361 192.687 17.2455 191.638 17.3063C191.3 17.3266 190.837 17.5417 190.825 16.8722C190.743 12.6156 190.572 12.8306 191.333 12.4411C193.009 11.5808 194.794 12.2788 195.005 13.0376Z" fill="#01015B"/>
<path fill-rule="evenodd" clip-rule="evenodd" d="M190.337 10.3797C193.818 7.94095 199.528 7.01578 201.184 7.98558C203.644 9.43015 201.834 13.5488 200.911 13.776C200.488 13.8815 200.102 13.5488 199.744 13.3053C198.04 12.1488 196.515 13.0334 195.233 13.2688C192.964 13.6867 187.372 12.4572 190.337 10.3797Z" fill="#01015B"/>
<path d="M190.711 16.6532C190.646 17.3389 190.861 18.049 191.296 18.5847C192.545 20.1144 193.802 18.045 193.509 16.7546C193.163 15.2167 190.886 14.7825 190.707 16.6491L190.711 16.6532Z" fill="#D38742"/>
<path fill-rule="evenodd" clip-rule="evenodd" d="M220.702 142.882C220.763 142.188 220.104 141.616 219.425 141.454C218.745 141.291 218.038 141.417 217.338 141.409C215.349 141.385 213.417 140.196 212.502 138.431C212.376 138.187 212.254 137.919 212.018 137.785C211.701 137.607 211.29 137.741 211.006 137.972C210.721 138.203 210.526 138.516 210.27 138.775C209.81 139.238 209.151 139.494 208.5 139.481C207.955 139.473 207.345 139.059 206.821 139.331C206.357 139.575 206.235 140.212 206.117 140.67C205.914 141.458 205.731 142.245 205.54 143.036C205.499 143.211 205.454 143.393 205.442 143.572H209.232C209.407 143.324 209.554 142.602 209.627 142.306C209.639 142.61 209.761 143.336 209.956 143.572H220.376C220.555 143.381 220.681 143.146 220.702 142.886V142.882Z" fill="#01015B"/>
<path fill-rule="evenodd" clip-rule="evenodd" d="M189.861 142.882C189.889 142.188 189.596 141.616 189.299 141.453C189.002 141.291 188.535 140.131 187.917 138.43C187.636 137.651 186.062 137.436 185.273 138.775C185.017 139.21 184.781 139.494 184.496 139.481C184.256 139.473 183.988 139.059 183.756 139.331C183.553 139.575 183.5 140.212 183.447 140.67C183.357 141.458 183.276 142.245 183.195 143.036C183.174 143.211 183.158 143.393 183.15 143.572H189.714C189.791 143.381 189.848 143.146 189.857 142.886L189.861 142.882Z" fill="#01015B"/>
<path fill-rule="evenodd" clip-rule="evenodd" d="M199.805 107.441C200.517 108.935 201.48 110.619 202.884 111.037C203.856 111.325 206.589 109.491 207.138 108.752C207.687 108.014 205.987 72.4757 204.763 70.313C203.119 67.4117 190.154 71.4207 190.601 76.4523C191.17 82.8879 193.009 89.7374 195.193 96.1203C196.502 99.9508 198.044 103.737 199.805 107.441Z" fill="#00005C"/>
<path d="M183.715 140.431C185.135 140.642 186.603 140.524 187.97 140.09C187.872 138.422 187.778 136.754 187.681 135.087C187.669 134.876 187.652 134.657 187.542 134.478C187.376 134.214 187.046 134.113 186.741 134.06C185.582 133.857 183.821 133.792 183.78 135.241C183.736 136.97 183.74 138.702 183.715 140.435V140.431Z" fill="#D38742"/>
<path d="M207.231 140.431C208.679 140.642 210.127 140.524 211.441 140.09C211.132 138.422 210.823 136.754 210.513 135.087C210.473 134.876 210.432 134.657 210.294 134.478C210.095 134.214 209.753 134.113 209.44 134.06C208.256 133.857 206.483 133.792 206.629 135.241C206.804 136.97 207.032 138.702 207.231 140.435V140.431Z" fill="#D38742"/>
<path fill-rule="evenodd" clip-rule="evenodd" d="M206.756 103.347C204.905 100.393 200.443 98.3681 198.569 103.493C195.709 111.304 204.779 125.92 206.129 135.355H210.985C211.12 134.442 207.785 104.986 206.756 103.347Z" fill="#00005C"/>
<path fill-rule="evenodd" clip-rule="evenodd" d="M180.982 86.5154C181.108 88.0127 186.005 80.0352 187.469 80.0352C199.54 80.0352 206.524 76.1194 204.856 70.5846C203.14 64.9038 192.338 65.8208 186.697 67.6509C185.48 68.0445 183.707 68.4259 182.878 69.5621C181.674 71.2055 180.043 75.5432 180.982 86.5154Z" fill="#00005C"/>
<path d="M200.667 42.087C203.181 47.0375 206.389 51.8459 211.05 54.8689C212.055 55.5222 213.356 56.0903 214.406 55.5141C215.02 55.1773 215.394 54.4997 215.508 53.8139C215.626 53.1241 215.52 52.418 215.37 51.7323C214.198 46.3558 210.53 41.9125 206.971 37.7127C205.503 35.9801 203.185 32.8028 200.696 32.5797C198.105 32.3484 198.495 36.256 198.898 37.7492C199.305 39.2587 199.955 40.6952 200.663 42.087H200.667Z" fill="#D38742"/>
<path d="M197.909 34.0893C197.71 33.1884 197.588 32.0888 198.263 31.4355C198.975 30.7457 200.089 31.0094 200.956 31.3746C206.202 33.5739 209.476 38.1105 212.087 43.2923L202.688 47.1999C200.549 43.0975 198.934 38.6826 197.913 34.0933L197.909 34.0893Z" fill="#00D0FF"/>
<path fill-rule="evenodd" clip-rule="evenodd" d="M184.281 107.441C184.687 108.935 185.314 110.619 186.636 111.036C187.551 111.325 190.654 109.49 191.349 108.752C192.045 108.013 197.645 78.197 196.856 76.0342C195.799 73.1329 193.151 71.2501 190.426 70.82C186.469 70.191 181.914 71.4165 181.34 76.4522C180.608 82.8878 181.064 89.7373 181.954 96.1201C182.491 99.9507 183.264 103.737 184.277 107.441H184.281Z" fill="#00005C"/>
<path d="M230.548 46.6074C231.378 46.583 232.346 46.6277 232.83 47.2972C233.241 47.8653 233.106 48.6849 232.7 49.2571C232.293 49.8292 217.607 56.4758 213.857 55.6683C211.97 55.2626 211.364 53.6557 211.644 51.9514C212.035 49.5817 227.526 46.6926 230.544 46.6074H230.548Z" fill="#D38742"/>
<path fill-rule="evenodd" clip-rule="evenodd" d="M192.334 103.347C191.187 100.401 186.652 98.0721 184.11 103.493C180.018 112.226 182.516 125.271 183.272 135.355H188.128C188.482 134.442 192.972 104.986 192.334 103.347Z" fill="#00005C"/>
<path d="M206.162 33.9595C207.39 35.7733 206.947 38.3622 206.638 40.46C205.983 44.952 204.437 49.3019 203.53 53.7573C202.623 58.2127 202.392 62.94 204.291 67.1439C204.588 67.8012 204.942 68.4586 205.003 69.1687C205.064 69.8747 204.755 70.666 204.039 70.9825C203.62 71.1691 203.128 71.1692 202.66 71.1692C196.319 71.1286 189.979 71.088 183.638 71.0474C183.215 71.0474 182.768 71.0352 182.422 70.8202C181.661 70.3454 181.926 69.3188 182.198 68.5316C184.029 63.2606 182.467 57.5878 180.807 52.2762C179.16 47.0052 177.139 40.4925 178.05 34.978C180.287 32.2512 184.862 25.9292 193.932 25.9292C200.293 25.9292 205.06 32.3405 206.162 33.9676V33.9595Z" fill="#00D0FF"/>
<path d="M174.898 45.8568C176.171 41.0159 178.888 36.5605 182.613 33.2047C183.284 32.6001 184.191 31.9955 185.025 32.3485C185.476 32.5392 185.781 32.9896 185.916 33.4644C186.05 33.9392 186.038 34.4383 186.017 34.9293C185.789 40.6588 184.744 46.3194 183.703 51.9597C183.382 53.6923 183.056 55.4453 182.308 57.04C181.56 58.6347 180.323 60.0792 178.672 60.7041C177.806 61.0328 176.394 61.2235 175.597 60.6027C174.955 60.1036 174.849 58.8335 174.69 58.1072C174.117 55.5427 173.934 52.8889 174.149 50.2676C174.271 48.7784 174.524 47.3014 174.902 45.8568H174.898Z" fill="#D38742"/>
<path fill-rule="evenodd" clip-rule="evenodd" d="M173.458 47.6787C173.45 47.715 173.446 47.7473 173.446 47.7835C173.446 47.7473 173.454 47.711 173.458 47.6787Z" fill="#18898D"/>
<path d="M190.097 43.3815C190.991 43.2963 191.785 44.0916 191.988 44.9681C192.187 45.8446 181.828 59.7181 179.327 61.6374C178.566 62.2217 177.643 62.8344 176.716 62.5788C175.89 62.3515 175.398 61.5075 175.105 60.7C174.609 59.3488 174.272 57.6527 174.56 56.2162C174.76 55.2261 175.658 54.9177 176.382 54.3537C179.05 52.2721 189.523 43.4343 190.097 43.3775V43.3815Z" fill="#D38742"/>
<path d="M192.907 33.5658C193.171 33.3224 193.554 33.0789 193.863 33.2615C194.062 33.3751 194.139 33.6308 194.123 33.858C194.107 34.0852 194.013 34.3003 193.944 34.5194C193.578 35.6434 193.806 36.8607 193.879 38.0375C194.042 40.675 193.379 43.3613 192.008 45.6255C190.833 47.557 188.807 44.4609 188.893 43.1056C189.031 40.8942 189.515 38.5041 190.581 36.5483C191.187 35.4365 191.972 34.422 192.907 33.5699V33.5658Z" fill="#D38742"/>
<path fill-rule="evenodd" clip-rule="evenodd" d="M201.916 16.9573C201.615 17.4605 201.228 17.3266 201.249 16.7423C201.31 14.8798 201.375 14.5876 200.533 12.9158C200.069 11.9947 199.919 11.9176 200.342 11.6052C201.749 10.5704 204.417 12.7779 201.916 16.9533V16.9573Z" fill="#01015B"/>
<path d="M196.482 19.5746C195.86 16.8397 193.785 16.1986 192.578 16.8559C191.805 21.9768 191.016 24.2532 189.007 27.0449C191.508 28.6437 195.778 28.3475 196.702 27.0449C196.738 26.6351 196.803 20.9908 196.482 19.5746Z" fill="#D38742"/>
<path d="M194.009 12.2707C195.909 9.92942 199.756 10.3474 201.147 13.2406C202.42 15.8903 201.025 21.49 199.923 22.6546C197.995 24.6916 193.908 22.3583 193.338 20.8326C192.504 18.5927 192.411 14.2428 194.009 12.2707Z" fill="#D38742"/>
<path fill-rule="evenodd" clip-rule="evenodd" d="M195.005 13.0376C195.123 13.4636 194.115 19.1323 193.956 19.0674C193.399 18.8361 192.687 17.2455 191.638 17.3063C191.3 17.3266 190.837 17.5417 190.825 16.8722C190.743 12.6156 190.572 12.8306 191.333 12.4411C193.009 11.5808 194.794 12.2788 195.005 13.0376Z" fill="#01015B"/>
<path fill-rule="evenodd" clip-rule="evenodd" d="M190.337 10.3797C193.818 7.94095 199.528 7.01578 201.184 7.98558C203.644 9.43015 201.834 13.5488 200.911 13.776C200.488 13.8815 200.102 13.5488 199.744 13.3053C198.04 12.1488 196.515 13.0334 195.233 13.2688C192.964 13.6867 187.372 12.4572 190.337 10.3797Z" fill="#01015B"/>
<path d="M190.711 16.6532C190.646 17.3389 190.861 18.049 191.296 18.5847C192.545 20.1144 193.802 18.045 193.509 16.7546C193.163 15.2167 190.886 14.7825 190.707 16.6491L190.711 16.6532Z" fill="#D38742"/>
<path fill-rule="evenodd" clip-rule="evenodd" d="M220.702 142.882C220.763 142.188 220.104 141.616 219.425 141.454C218.745 141.291 218.038 141.417 217.338 141.409C215.349 141.385 213.417 140.196 212.502 138.431C212.376 138.187 212.254 137.919 212.018 137.785C211.701 137.607 211.29 137.741 211.006 137.972C210.721 138.203 210.526 138.516 210.27 138.775C209.81 139.238 209.151 139.494 208.5 139.481C207.955 139.473 207.345 139.059 206.821 139.331C206.357 139.575 206.235 140.212 206.117 140.67C205.914 141.458 205.731 142.245 205.54 143.036C205.499 143.211 205.454 143.393 205.442 143.572H209.232C209.407 143.324 209.554 142.602 209.627 142.306C209.639 142.61 209.761 143.336 209.956 143.572H220.376C220.555 143.381 220.681 143.146 220.702 142.886V142.882Z" fill="#01015B"/>
<path fill-rule="evenodd" clip-rule="evenodd" d="M189.861 142.882C189.889 142.188 189.596 141.616 189.299 141.453C189.002 141.291 188.535 140.131 187.917 138.43C187.636 137.651 186.062 137.436 185.273 138.775C185.017 139.21 184.781 139.494 184.496 139.481C184.256 139.473 183.988 139.059 183.756 139.331C183.553 139.575 183.5 140.212 183.447 140.67C183.357 141.458 183.276 142.245 183.195 143.036C183.174 143.211 183.158 143.393 183.15 143.572H189.714C189.791 143.381 189.848 143.146 189.857 142.886L189.861 142.882Z" fill="#01015B"/>
<path d="M234.835 43.4545C235.921 43.3166 237.125 43.5722 237.832 44.404C238.491 45.1791 238.593 46.3396 238.206 47.281C237.82 48.2224 237.003 48.9447 236.075 49.3667C235.148 49.7887 232.5 50.0768 231.028 48.3604C230.125 47.3094 230.463 46.4329 231.231 45.4875C232.098 44.4243 233.48 43.629 234.835 43.4545Z" fill="#D38742"/>
<path d="M234.054 46.0069L230.995 44.3188C230.491 45.0979 230.117 46.0434 229.82 46.7535C229.45 47.6381 232.183 49.809 232.704 49.2571C233.163 48.7702 233.733 47.0497 234.054 46.0069Z" fill="#D38742"/>
<path d="M231.496 46.4938L234.985 48.8473C235.193 48.9853 235.518 48.965 235.717 48.7986L242.859 42.8459C243.059 42.6795 243.05 42.432 242.843 42.29L239.353 39.9365C239.146 39.7985 238.821 39.8188 238.621 39.9852L231.479 45.9379C231.28 46.1043 231.288 46.3518 231.496 46.4938Z" fill="#01015B"/>
<path d="M231.154 46.2665L234.644 48.62C234.851 48.758 235.176 48.7377 235.376 48.5713L242.517 42.6186C242.717 42.4522 242.709 42.2047 242.501 42.0627L239.012 39.7092C238.804 39.5712 238.479 39.5915 238.28 39.7579L231.138 45.7106C230.938 45.877 230.947 46.1245 231.154 46.2665Z" fill="#01015B"/>
<path fill-rule="evenodd" clip-rule="evenodd" d="M231.715 46.0595L234.859 48.1817C235.046 48.3075 235.339 48.2872 235.518 48.1371L241.956 42.7727C242.135 42.6226 242.127 42.3994 241.94 42.2736L238.796 40.1514C238.609 40.0256 238.316 40.0459 238.137 40.1961L231.699 45.5604C231.52 45.7106 231.528 45.9337 231.715 46.0595Z" fill="#0067E2"/>
<path d="M231.715 44.9236C232.984 44.5462 234.892 43.8036 235.677 43.5804C235.884 43.5196 236.108 43.5074 236.303 43.4181C236.498 43.3289 236.669 43.1219 236.616 42.9109C236.551 42.6431 236.206 42.5741 235.929 42.5619C234.583 42.497 233.127 42.4564 232.012 43.2112C231.622 43.4749 231.288 43.8726 230.996 44.323C230.996 44.323 231.675 45.0696 231.715 44.9236Z" fill="#D38742"/>
<path d="M195.644 28.0431C193.647 29.3497 204.722 36.6577 206.023 37.2258C206.658 37.5018 209.733 37.3963 213.295 37.0392L210.107 27.9295C206.788 27.0733 199.04 25.8195 195.644 28.0431Z" fill="#00D0FF"/>
<path d="M185.545 37.1082C181.511 40.7967 176.891 44.1119 171.551 45.2887C170.4 45.5403 169.005 45.6174 168.24 44.7206C167.793 44.1971 167.683 43.4465 167.813 42.7729C167.943 42.0993 168.289 41.4825 168.663 40.9063C171.607 36.3616 176.525 33.5415 181.263 30.9039C183.215 29.8165 186.452 27.6942 188.819 28.3475C191.284 29.0292 189.568 32.4905 188.681 33.7241C187.795 34.9576 186.684 36.0695 185.55 37.1082H185.545Z" fill="#D38742"/>
<path d="M191.064 31.6708C191.609 30.9444 192.167 30.0112 191.829 29.1509C191.471 28.242 190.365 28.031 189.442 28.0066C183.845 27.8565 179.067 30.5955 174.625 34.1825L181.458 41.4865C185.041 38.6745 188.283 35.3715 191.064 31.6748V31.6708Z" fill="#00D0FF"/>
<path d="M153.176 42.8012C152.427 43.1218 151.577 43.56 151.423 44.3594C151.292 45.033 151.752 45.7147 152.35 46.0515C152.948 46.3923 168.809 46.2746 171.823 44.0064C173.34 42.8661 173.214 41.1822 172.258 39.7782C170.928 37.8264 155.905 41.6285 153.176 42.8012Z" fill="#D38742"/>
<path d="M147.644 41.8719C146.611 42.1966 145.631 42.931 145.342 43.9739C145.07 44.9477 145.464 46.0352 146.209 46.721C146.949 47.4067 147.99 47.7192 148.999 47.7111C150.011 47.7029 152.517 46.863 153.127 44.7043C153.501 43.3814 152.83 42.7322 151.744 42.2006C150.52 41.6041 148.942 41.4621 147.648 41.8719H147.644Z" fill="#D38742"/>
<path d="M149.413 43.8481L151.463 41.0564C152.244 41.5474 152.976 42.2413 153.541 42.7607C154.245 43.4058 152.691 46.4979 151.988 46.2138C151.374 45.9663 150.137 44.6556 149.413 43.8481Z" fill="#D38742"/>
<path d="M151.064 41.8963C149.763 42.0829 147.738 42.2087 146.932 42.3345C146.721 42.367 146.513 42.4481 146.302 42.4481C146.086 42.4481 145.846 42.3304 145.806 42.1235C145.753 41.8557 146.038 41.6487 146.282 41.5229C147.465 40.9021 148.763 40.261 150.08 40.476C150.54 40.5531 151.008 40.7682 151.459 41.0563C151.459 41.0563 151.158 42.0099 151.06 41.8963H151.064Z" fill="#D38742"/>
<path d="M186.176 32.1374C186.127 31.2203 185.952 30.141 185.122 29.7433C184.252 29.3213 182.629 30.1166 181.889 30.7415C177.411 34.5355 174.922 39.7092 173.792 45.4549L185.078 46.0798C186.046 41.5027 186.42 36.8038 186.172 32.1374H186.176Z" fill="#00D0FF"/>
<path d="M42.3792 64.6887L45.1001 71.7329C45.7956 73.7781 43.9939 74.2406 42.1108 75.2997L38.3853 77.3976C37.6451 77.8155 36.7056 77.4666 36.4209 76.6631L33.6227 68.8073C33.395 68.1662 33.6715 67.4561 34.2775 67.1396L40.4433 63.9177C41.1876 63.5282 42.1067 63.8974 42.3752 64.6887" fill="#03299C"/>
<path d="M29.698 35.7205L38.9913 32.3525L39.8454 39.6078L32.3213 41.7219L29.698 35.7205Z" fill="#00D0FF"/>
<path d="M147.38 14.6485L150.552 23.9894C151.288 26.1563 150.373 28.5422 148.376 29.6662L141.478 33.5495C140.201 34.2677 138.587 33.6631 138.099 32.2875L134.023 20.8406C133.629 19.7369 134.113 18.5114 135.15 17.9677L144.053 13.3175C145.338 12.648 146.916 13.2769 147.38 14.6444" fill="#F92385"/>
<path d="M156.161 80.1205L149.056 84.3771C149.056 84.3771 145.424 76.9839 145.444 75.4176C145.464 73.8513 152.549 71.165 152.549 71.165L156.161 80.1205Z" fill="#C9E0FF"/>
<path d="M109.698 57.3849C111.492 58.7605 115.725 61.9296 119.784 64.3399C120.301 64.6483 120.968 64.4982 121.306 63.9991L128.366 53.5098C128.728 52.9701 128.561 52.2356 127.996 51.907L118.093 46.1247C117.596 45.8366 116.966 45.9624 116.616 46.4168L109.478 55.8105C109.104 56.3056 109.198 57.0116 109.69 57.389" fill="#FFED33"/>
<path d="M63.6584 60.6229L65.09 53.7409C65.212 53.1566 65.8099 52.8036 66.3833 52.9781C68.7301 53.7044 74.2003 55.4695 75.1683 56.3866C76.1363 57.2996 74.4728 62.1648 73.7001 64.2505C73.5048 64.778 72.9151 65.0418 72.3905 64.843L64.2928 61.7753C63.8251 61.5968 63.5567 61.1098 63.6584 60.6229Z" fill="#D48743"/>
<path d="M87.4916 34.9009L83.6604 32.4906C82.9161 32.0199 82.7006 31.0338 83.1805 30.3034L86.178 25.7344C86.6213 25.0567 87.512 24.8255 88.2318 25.2069L91.7255 27.0491C92.4942 27.4549 92.787 28.4003 92.3844 29.1673C91.7662 30.344 90.8104 32.1781 89.7326 34.2882C89.3137 35.1119 88.2766 35.3959 87.4916 34.9049" fill="#00D1FF"/>
<path d="M89.1754 77.6859L98.6639 74.2449C99.9288 73.7864 101.303 74.5736 101.548 75.8964L103.182 84.9047C103.382 86.0043 102.711 87.0756 101.633 87.3799L93.938 89.5427C92.8968 89.8348 91.7987 89.3195 91.3594 88.3335L87.9308 80.6034C87.4224 79.4551 87.9918 78.116 89.1754 77.6859Z" fill="#F92385"/>
<path d="M0 44.3066C0 44.3066 3.42044 46.9239 6.62938 47.4351L11.1805 41.105L3.7214 38.0171L0 44.3066Z" fill="#E0000F"/>
<path d="M327.972 51.0426L324.409 57.7014C323.469 59.6451 325.198 60.3227 326.943 61.609L330.384 64.1411C331.067 64.6442 332.043 64.4129 332.421 63.6541L336.159 56.196C336.464 55.5873 336.273 54.8488 335.711 54.4593L329.989 50.511C329.298 50.0322 328.342 50.2879 327.976 51.0426" fill="#03299C"/>
<path d="M360.752 36.7999L351.939 32.3242L350.202 39.4212L357.413 42.4362L360.752 36.7999Z" fill="#F92385"/>
<path d="M218.615 77.4017L214.324 86.2842C213.328 88.3455 213.946 90.8248 215.789 92.1841L222.158 96.879C223.337 97.7473 225.013 97.3456 225.668 96.039L231.113 85.1764C231.638 84.1295 231.313 82.8553 230.345 82.1899L222.08 76.4887C220.889 75.665 219.242 76.0992 218.615 77.4017Z" fill="#57FFE1"/>
<path d="M263.012 88.3862L269.543 93.4746C269.543 93.4746 274.054 86.5804 274.225 85.0223C274.396 83.4681 267.693 79.9338 267.693 79.9338L263.012 88.3821V88.3862Z" fill="#C9E0FF"/>
<path d="M267.624 19.5138C265.676 20.6622 261.084 23.2875 256.765 25.1866C256.212 25.43 255.569 25.1987 255.296 24.6631L249.57 13.3907C249.273 12.8104 249.533 12.1003 250.131 11.8447L260.665 7.30809C261.194 7.08085 261.804 7.28374 262.093 7.77879L268.026 17.9719C268.34 18.5075 268.161 19.1973 267.624 19.5098" fill="#00D0FF"/>
<path d="M305.712 52.0773L305.131 45.0696C305.082 44.4731 304.529 44.0511 303.939 44.1566C301.523 44.5908 295.874 45.6742 294.804 46.4654C293.731 47.2567 294.788 52.2843 295.3 54.4471C295.431 54.9948 295.984 55.3316 296.529 55.1977L304.944 53.1405C305.428 53.0228 305.753 52.5683 305.712 52.0733" fill="#D48743"/>
<path d="M305.342 78.9478L309.442 77.0245C310.239 76.6512 310.572 75.6976 310.186 74.9104L307.77 70.0086C307.412 69.2823 306.558 68.9455 305.798 69.2336L302.105 70.6335C301.295 70.9419 300.885 71.8468 301.19 72.6543C301.661 73.8959 302.385 75.8355 303.195 78.0592C303.512 78.9276 304.504 79.3374 305.342 78.9438" fill="#F92385"/>
<path d="M265.663 55.6481L256.667 51.075C255.467 50.4663 254.007 51.079 253.604 52.3613L250.879 61.1017C250.546 62.1689 251.083 63.3132 252.116 63.7474L259.489 66.8353C260.486 67.2533 261.641 66.8759 262.198 65.9507L266.546 58.6954C267.193 57.6161 266.786 56.2202 265.667 55.6481" fill="#FFED33"/>
<path d="M384 68.5315C384 68.5315 380.283 70.7105 377.037 70.8282L373.295 63.9909L381.076 61.8362L384 68.5315Z" fill="#00D0FF"/>
</g>
<defs>
<clipPath id="clip0_175_12439">
<rect width="384" height="143.568" fill="white"/>
</clipPath>
</defs>
</svg>
