<svg xmlns="http://www.w3.org/2000/svg" width="384" height="166" fill="none"><g clip-path="url(#a)"><path fill="#D38742" d="M221.743 29.792c.785-.779 1.557-1.842 1.236-2.901-.187-.621-.724-1.088-1.326-1.327-.602-.24-1.265-.28-1.911-.28-5.1.008-17.757 5.786-22.52 8.468-2.094 1.181 14.642 3.352 16.073 3.283 1.448-.073 4.795-3.627 8.448-7.243"/><path fill="#D38742" d="m218.412 8.724 3.351.049c.671 5.62 1.794 17.78.594 19.936-.866 1.558-2.453 1.663-3.888.961-1.558-.763-.692-14.94-.057-20.946"/><path fill="#D38742" d="M220.84 4.021c-1.228-.88-3.075-.77-4.185.256-.927-1.323-2.078-5.425-2.782-3.973-.313.645 1.598 5.677 3.563 7.832.651.714 1.431 1.388 2.387 1.538 3.181.51 2.782-4.39 1.017-5.657z"/><path fill="#01015B" fill-rule="evenodd" d="M199.805 107.441c.712 1.494 1.675 3.178 3.079 3.596.972.288 3.705-1.546 4.254-2.285.549-.738-1.151-36.276-2.375-38.439-1.644-2.901-14.609 1.108-14.162 6.14.569 6.435 2.408 13.284 4.592 19.667a107 107 0 0 0 4.612 11.321" clip-rule="evenodd"/><path fill="#D38742" d="M183.715 140.431a9.5 9.5 0 0 0 4.255-.341q-.145-2.502-.289-5.003c-.012-.211-.029-.43-.139-.609-.166-.264-.496-.365-.801-.418-1.159-.203-2.92-.268-2.961 1.181-.044 1.729-.04 3.461-.065 5.194zm23.516 0c1.448.211 2.896.093 4.21-.341l-.928-5.003c-.04-.211-.081-.43-.219-.609-.199-.264-.541-.365-.854-.418-1.184-.203-2.957-.268-2.811 1.181.175 1.729.403 3.461.602 5.194z"/><path fill="#01015B" fill-rule="evenodd" d="M206.756 103.347c-1.851-2.954-6.313-4.979-8.187.146-2.86 7.811 6.21 22.427 7.56 31.862h4.856c.135-.913-3.2-30.369-4.229-32.008m-25.774-16.832c.126 1.498 5.023-6.48 6.487-6.48 12.071 0 19.055-3.916 17.387-9.45-1.716-5.681-12.518-4.764-18.159-2.934-1.217.394-2.99.775-3.819 1.911-1.204 1.644-2.835 5.981-1.896 16.953" clip-rule="evenodd"/><path fill="#01015B" fill-rule="evenodd" d="M184.281 107.441c.406 1.494 1.033 3.178 2.355 3.595.915.289 4.018-1.546 4.713-2.284.696-.739 6.296-30.555 5.507-32.718-1.057-2.901-3.705-4.784-6.43-5.214-3.957-.629-8.512.597-9.086 5.632-.732 6.436-.276 13.285.614 19.668a91 91 0 0 0 2.323 11.321z" clip-rule="evenodd"/><path fill="#01015B" fill-rule="evenodd" d="M192.334 103.347c-1.147-2.946-5.682-5.275-8.224.146-4.092 8.733-1.594 21.778-.838 31.862h4.856c.354-.913 4.844-30.369 4.206-32.008" clip-rule="evenodd"/><path fill="#000090" d="M206.162 33.96c1.228 1.813.785 4.402.476 6.5-.655 4.492-2.201 8.842-3.108 13.297-.907 4.456-1.138 9.183.761 13.387.297.657.651 1.315.712 2.025.061.706-.248 1.497-.964 1.814-.419.186-.911.186-1.379.186l-19.022-.122c-.423 0-.87-.012-1.216-.227-.761-.475-.496-1.501-.224-2.288 1.831-5.271.269-10.944-1.391-16.256-1.647-5.27-3.668-11.784-2.757-17.298 2.237-2.727 6.812-9.049 15.882-9.049 6.361 0 11.128 6.412 12.23 8.039z"/><path fill="#D38742" d="M174.898 45.857a26.07 26.07 0 0 1 7.715-12.652c.671-.605 1.578-1.21 2.412-.856.451.19.756.64.891 1.115.134.475.122.974.101 1.465-.228 5.73-1.273 11.39-2.314 17.03-.321 1.733-.647 3.486-1.395 5.081s-1.985 3.04-3.636 3.664c-.866.329-2.278.52-3.075-.101-.642-.5-.748-1.77-.907-2.496a26.2 26.2 0 0 1-.541-7.84c.122-1.489.375-2.966.753-4.41z"/><path fill="#18898D" fill-rule="evenodd" d="M173.458 47.679a.5.5 0 0 0-.012.104c0-.036.008-.072.012-.104" clip-rule="evenodd"/><path fill="#000090" d="M186.176 32.137c-.049-.917-.224-1.996-1.054-2.394-.87-.422-2.493.374-3.233.998-4.478 3.794-6.967 8.968-8.097 14.714l11.286.625a53.7 53.7 0 0 0 1.094-13.943z"/><path fill="#D38742" d="M190.097 43.382c.894-.086 1.688.71 1.891 1.586.199.877-10.16 14.75-12.661 16.67-.761.584-1.684 1.196-2.611.94-.826-.227-1.318-1.07-1.611-1.878-.496-1.351-.833-3.047-.545-4.484.2-.99 1.098-1.298 1.822-1.862 2.668-2.082 13.141-10.92 13.715-10.977z"/><path fill="#D38742" d="M192.907 33.566c.264-.244.647-.487.956-.305.199.114.276.37.26.597s-.11.442-.179.661c-.366 1.124-.138 2.342-.065 3.519.163 2.637-.5 5.323-1.871 7.588-1.175 1.931-3.201-1.165-3.115-2.52.138-2.212.622-4.602 1.688-6.558a11.4 11.4 0 0 1 2.326-2.978z"/><path fill="#01015B" fill-rule="evenodd" d="M201.916 16.957c-.301.503-.688.37-.667-.215.061-1.862.126-2.154-.716-3.826-.464-.921-.614-.998-.191-1.31 1.407-1.036 4.075 1.172 1.574 5.347z" clip-rule="evenodd"/><path fill="#D38742" d="M196.482 19.575c-.622-2.735-2.697-3.376-3.904-2.72-.773 5.122-1.562 7.398-3.571 10.19 2.501 1.599 6.771 1.302 7.695 0 .036-.41.101-6.054-.22-7.47"/><path fill="#D38742" d="M194.009 12.27c1.9-2.34 5.747-1.923 7.138.97 1.273 2.65-.122 8.25-1.224 9.415-1.928 2.037-6.015-.297-6.585-1.822-.834-2.24-.927-6.59.671-8.562z"/><path fill="#01015B" fill-rule="evenodd" d="M195.005 13.038c.118.426-.89 6.094-1.049 6.03-.557-.232-1.269-1.823-2.318-1.762-.338.02-.801.236-.813-.434-.082-4.256-.253-4.041.508-4.43 1.676-.861 3.461-.163 3.672.596" clip-rule="evenodd"/><path fill="#01015B" fill-rule="evenodd" d="M190.337 10.38c3.481-2.44 9.191-3.364 10.847-2.394 2.46 1.444.65 5.563-.273 5.79-.423.106-.809-.227-1.167-.47-1.704-1.157-3.229-.273-4.511-.037-2.269.418-7.861-.812-4.896-2.89z" clip-rule="evenodd"/><path fill="#D38742" d="M190.711 16.653a2.7 2.7 0 0 0 .585 1.932c1.249 1.53 2.506-.54 2.213-1.83-.346-1.538-2.623-1.972-2.802-.106z"/><path fill="#01015B" fill-rule="evenodd" d="M220.702 142.882c.061-.694-.598-1.266-1.277-1.428-.68-.163-1.387-.037-2.087-.045-1.989-.024-3.921-1.213-4.836-2.978-.126-.244-.248-.512-.484-.646-.317-.178-.728-.044-1.012.187s-.48.544-.736.803a2.46 2.46 0 0 1-1.77.706c-.545-.008-1.155-.422-1.679-.15-.464.244-.586.881-.704 1.339-.203.788-.386 1.575-.577 2.366-.041.175-.086.357-.098.536h3.79c.175-.248.322-.97.395-1.266.012.304.134 1.03.329 1.266h10.42c.179-.191.305-.426.326-.686zm-30.841 0c.028-.694-.265-1.266-.562-1.429-.297-.162-.764-1.322-1.382-3.023-.281-.779-1.855-.994-2.644.345-.256.435-.492.719-.777.706-.24-.008-.508-.422-.74-.15-.203.244-.256.881-.309 1.339-.09.788-.171 1.575-.252 2.366a7 7 0 0 0-.045.536h6.564c.077-.191.134-.426.143-.686z" clip-rule="evenodd"/><path fill="#00005C" fill-rule="evenodd" d="M199.805 107.441c.712 1.494 1.675 3.178 3.079 3.596.972.288 3.705-1.546 4.254-2.285.549-.738-1.151-36.276-2.375-38.439-1.644-2.901-14.609 1.108-14.162 6.14.569 6.435 2.408 13.284 4.592 19.667a107 107 0 0 0 4.612 11.321" clip-rule="evenodd"/><path fill="#D38742" d="M183.715 140.431a9.5 9.5 0 0 0 4.255-.341q-.145-2.502-.289-5.003c-.012-.211-.029-.43-.139-.609-.166-.264-.496-.365-.801-.418-1.159-.203-2.92-.268-2.961 1.181-.044 1.729-.04 3.461-.065 5.194zm23.516 0c1.448.211 2.896.093 4.21-.341l-.928-5.003c-.04-.211-.081-.43-.219-.609-.199-.264-.541-.365-.854-.418-1.184-.203-2.957-.268-2.811 1.181.175 1.729.403 3.461.602 5.194z"/><path fill="#00005C" fill-rule="evenodd" d="M206.756 103.347c-1.851-2.954-6.313-4.979-8.187.146-2.86 7.811 6.21 22.427 7.56 31.862h4.856c.135-.913-3.2-30.369-4.229-32.008m-25.774-16.832c.126 1.498 5.023-6.48 6.487-6.48 12.071 0 19.055-3.916 17.387-9.45-1.716-5.681-12.518-4.764-18.159-2.934-1.217.394-2.99.775-3.819 1.911-1.204 1.644-2.835 5.981-1.896 16.953" clip-rule="evenodd"/><path fill="#D38742" d="M200.667 42.087c2.514 4.95 5.722 9.759 10.383 12.782 1.005.653 2.306 1.221 3.356.645.614-.337.988-1.014 1.102-1.7.118-.69.012-1.396-.138-2.082-1.172-5.376-4.84-9.82-8.399-14.02-1.468-1.732-3.786-4.91-6.275-5.132-2.591-.232-2.201 3.676-1.798 5.17.407 1.509 1.057 2.945 1.765 4.337z"/><path fill="#00D0FF" d="M197.909 34.09c-.199-.902-.321-2.001.354-2.655.712-.69 1.826-.426 2.693-.06 5.246 2.199 8.52 6.736 11.131 11.917l-9.399 3.908a53.5 53.5 0 0 1-4.775-13.107z"/><path fill="#00005C" fill-rule="evenodd" d="M184.281 107.441c.406 1.494 1.033 3.178 2.355 3.595.915.289 4.018-1.546 4.713-2.284.696-.739 6.296-30.555 5.507-32.718-1.057-2.901-3.705-4.784-6.43-5.214-3.957-.629-8.512.597-9.086 5.632-.732 6.436-.276 13.285.614 19.668a91 91 0 0 0 2.323 11.321z" clip-rule="evenodd"/><path fill="#D38742" d="M230.548 46.607c.83-.024 1.798.02 2.282.69.411.568.276 1.388-.13 1.96s-15.093 7.219-18.843 6.411c-1.887-.405-2.493-2.012-2.213-3.717.391-2.37 15.882-5.258 18.9-5.344z"/><path fill="#00005C" fill-rule="evenodd" d="M192.334 103.347c-1.147-2.946-5.682-5.275-8.224.146-4.092 8.733-1.594 21.778-.838 31.862h4.856c.354-.913 4.844-30.369 4.206-32.008" clip-rule="evenodd"/><path fill="#00D0FF" d="M206.162 33.96c1.228 1.813.785 4.402.476 6.5-.655 4.492-2.201 8.842-3.108 13.297-.907 4.456-1.138 9.183.761 13.387.297.657.651 1.315.712 2.025.061.706-.248 1.497-.964 1.814-.419.186-.911.186-1.379.186l-19.022-.122c-.423 0-.87-.012-1.216-.227-.761-.475-.496-1.501-.224-2.288 1.831-5.271.269-10.944-1.391-16.256-1.647-5.27-3.668-11.784-2.757-17.298 2.237-2.727 6.812-9.049 15.882-9.049 6.361 0 11.128 6.412 12.23 8.039z"/><path fill="#D38742" d="M174.898 45.857a26.07 26.07 0 0 1 7.715-12.652c.671-.605 1.578-1.21 2.412-.856.451.19.756.64.891 1.115.134.475.122.974.101 1.465-.228 5.73-1.273 11.39-2.314 17.03-.321 1.733-.647 3.486-1.395 5.081s-1.985 3.04-3.636 3.664c-.866.329-2.278.52-3.075-.101-.642-.5-.748-1.77-.907-2.496a26.2 26.2 0 0 1-.541-7.84c.122-1.489.375-2.966.753-4.41z"/><path fill="#18898D" fill-rule="evenodd" d="M173.458 47.679a.5.5 0 0 0-.012.104c0-.036.008-.072.012-.104" clip-rule="evenodd"/><path fill="#D38742" d="M190.097 43.382c.894-.086 1.688.71 1.891 1.586.199.877-10.16 14.75-12.661 16.67-.761.584-1.684 1.196-2.611.94-.826-.227-1.318-1.07-1.611-1.878-.496-1.351-.833-3.047-.545-4.484.2-.99 1.098-1.298 1.822-1.862 2.668-2.082 13.141-10.92 13.715-10.977z"/><path fill="#D38742" d="M192.907 33.566c.264-.244.647-.487.956-.305.199.114.276.37.26.597s-.11.442-.179.661c-.366 1.124-.138 2.342-.065 3.519.163 2.637-.5 5.323-1.871 7.588-1.175 1.931-3.201-1.165-3.115-2.52.138-2.212.622-4.602 1.688-6.558a11.4 11.4 0 0 1 2.326-2.978z"/><path fill="#01015B" fill-rule="evenodd" d="M201.916 16.957c-.301.503-.688.37-.667-.215.061-1.862.126-2.154-.716-3.826-.464-.921-.614-.998-.191-1.31 1.407-1.036 4.075 1.172 1.574 5.347z" clip-rule="evenodd"/><path fill="#D38742" d="M196.482 19.575c-.622-2.735-2.697-3.376-3.904-2.72-.773 5.122-1.562 7.398-3.571 10.19 2.501 1.599 6.771 1.302 7.695 0 .036-.41.101-6.054-.22-7.47"/><path fill="#D38742" d="M194.009 12.27c1.9-2.34 5.747-1.923 7.138.97 1.273 2.65-.122 8.25-1.224 9.415-1.928 2.037-6.015-.297-6.585-1.822-.834-2.24-.927-6.59.671-8.562z"/><path fill="#01015B" fill-rule="evenodd" d="M195.005 13.038c.118.426-.89 6.094-1.049 6.03-.557-.232-1.269-1.823-2.318-1.762-.338.02-.801.236-.813-.434-.082-4.256-.253-4.041.508-4.43 1.676-.861 3.461-.163 3.672.596" clip-rule="evenodd"/><path fill="#01015B" fill-rule="evenodd" d="M190.337 10.38c3.481-2.44 9.191-3.364 10.847-2.394 2.46 1.444.65 5.563-.273 5.79-.423.106-.809-.227-1.167-.47-1.704-1.157-3.229-.273-4.511-.037-2.269.418-7.861-.812-4.896-2.89z" clip-rule="evenodd"/><path fill="#D38742" d="M190.711 16.653a2.7 2.7 0 0 0 .585 1.932c1.249 1.53 2.506-.54 2.213-1.83-.346-1.538-2.623-1.972-2.802-.106z"/><path fill="#01015B" fill-rule="evenodd" d="M220.702 142.882c.061-.694-.598-1.266-1.277-1.428-.68-.163-1.387-.037-2.087-.045-1.989-.024-3.921-1.213-4.836-2.978-.126-.244-.248-.512-.484-.646-.317-.178-.728-.044-1.012.187s-.48.544-.736.803a2.46 2.46 0 0 1-1.77.706c-.545-.008-1.155-.422-1.679-.15-.464.244-.586.881-.704 1.339-.203.788-.386 1.575-.577 2.366-.041.175-.086.357-.098.536h3.79c.175-.248.322-.97.395-1.266.012.304.134 1.03.329 1.266h10.42c.179-.191.305-.426.326-.686zm-30.841 0c.028-.694-.265-1.266-.562-1.429-.297-.162-.764-1.322-1.382-3.023-.281-.779-1.855-.994-2.644.345-.256.435-.492.719-.777.706-.24-.008-.508-.422-.74-.15-.203.244-.256.881-.309 1.339-.09.788-.171 1.575-.252 2.366a7 7 0 0 0-.045.536h6.564c.077-.191.134-.426.143-.686z" clip-rule="evenodd"/><path fill="#D38742" d="M234.835 43.455c1.086-.138 2.29.117 2.997.949.659.775.761 1.936.374 2.877-.386.941-1.203 1.664-2.131 2.086s-3.575.71-5.047-1.007c-.903-1.05-.565-1.927.203-2.873.867-1.063 2.249-1.858 3.604-2.032"/><path fill="#D38742" d="m234.054 46.007-3.059-1.688c-.504.779-.878 1.724-1.175 2.434-.37.885 2.363 3.056 2.884 2.504.459-.487 1.029-2.207 1.35-3.25"/><path fill="#01015B" d="m231.496 46.494 3.489 2.353a.65.65 0 0 0 .732-.048l7.142-5.953c.2-.166.191-.414-.016-.556l-3.49-2.353a.65.65 0 0 0-.732.048l-7.142 5.953c-.199.166-.191.414.017.556"/><path fill="#01015B" d="m231.154 46.267 3.49 2.353a.65.65 0 0 0 .732-.049l7.141-5.952c.2-.167.192-.414-.016-.556l-3.489-2.354a.65.65 0 0 0-.732.049l-7.142 5.953c-.2.166-.191.413.016.556"/><path fill="#0067E2" fill-rule="evenodd" d="m231.715 46.06 3.144 2.122a.58.58 0 0 0 .659-.045l6.438-5.364c.179-.15.171-.374-.016-.5l-3.144-2.122a.58.58 0 0 0-.659.045l-6.438 5.364c-.179.15-.171.374.016.5" clip-rule="evenodd"/><path fill="#D38742" d="M231.715 44.924c1.269-.378 3.177-1.12 3.962-1.344.207-.06.431-.073.626-.162s.366-.296.313-.507c-.065-.268-.41-.337-.687-.35-1.346-.064-2.802-.105-3.917.65-.39.264-.724.662-1.016 1.112 0 0 .679.747.719.6z"/><path fill="#00D0FF" d="M195.644 28.043c-1.997 1.307 9.078 8.615 10.379 9.183.635.276 3.71.17 7.272-.187l-3.188-9.11c-3.319-.856-11.067-2.11-14.463.114"/><path fill="#D38742" d="M185.545 37.108c-4.034 3.689-8.654 7.004-13.994 8.18-1.151.252-2.546.33-3.311-.567-.447-.524-.557-1.274-.427-1.948s.476-1.29.85-1.867c2.944-4.544 7.862-7.364 12.6-10.002 1.952-1.087 5.189-3.21 7.556-2.556 2.465.681.749 4.142-.138 5.376-.886 1.234-1.997 2.346-3.131 3.384z"/><path fill="#00D0FF" d="M191.064 31.67c.545-.726 1.103-1.659.765-2.52-.358-.908-1.464-1.119-2.387-1.143-5.597-.15-10.375 2.588-14.817 6.175l6.833 7.304a53 53 0 0 0 9.606-9.811v-.004z"/><path fill="#D38742" d="M153.176 42.801c-.749.32-1.599.759-1.753 1.558-.131.674.329 1.356.927 1.692.598.341 16.459.224 19.473-2.045 1.517-1.14 1.391-2.824.435-4.228-1.33-1.952-16.353 1.85-19.082 3.023"/><path fill="#D38742" d="M147.644 41.872c-1.033.325-2.013 1.059-2.302 2.102-.272.974.122 2.061.867 2.747.74.686 1.781.998 2.79.99 1.012-.008 3.518-.848 4.128-3.007.374-1.323-.297-1.972-1.383-2.503-1.224-.597-2.802-.739-4.096-.33z"/><path fill="#D38742" d="m149.413 43.848 2.05-2.792c.781.491 1.513 1.185 2.078 1.705.704.645-.85 3.737-1.553 3.453-.614-.248-1.851-1.558-2.575-2.366"/><path fill="#D38742" d="M151.064 41.896c-1.301.187-3.326.313-4.132.438-.211.033-.419.114-.63.114-.216 0-.456-.118-.496-.325-.053-.267.232-.474.476-.6 1.183-.62 2.481-1.262 3.798-1.047.46.077.928.292 1.379.58 0 0-.301.954-.399.84z"/><path fill="#00D0FF" d="M186.176 32.137c-.049-.917-.224-1.996-1.054-2.394-.87-.422-2.493.374-3.233.998-4.478 3.794-6.967 8.968-8.097 14.714l11.286.625a53.7 53.7 0 0 0 1.094-13.943z"/><path fill="#03299C" d="m42.38 64.689 2.72 7.044c.696 2.045-1.106 2.508-2.99 3.567l-3.725 2.098a1.37 1.37 0 0 1-1.964-.735l-2.798-7.856a1.364 1.364 0 0 1 .655-1.667l6.165-3.222a1.372 1.372 0 0 1 1.932.77"/><path fill="#00D0FF" d="m29.698 35.72 9.293-3.367.854 7.255-7.524 2.114z"/><path fill="#F92385" d="m147.38 14.649 3.172 9.34a4.76 4.76 0 0 1-2.176 5.677l-6.898 3.884a2.358 2.358 0 0 1-3.379-1.262l-4.076-11.447a2.354 2.354 0 0 1 1.127-2.873l8.903-4.65a2.36 2.36 0 0 1 3.327 1.326"/><path fill="#C9E0FF" d="m156.161 80.12-7.105 4.257s-3.632-7.393-3.612-8.96c.02-1.566 7.105-4.252 7.105-4.252l3.612 8.956z"/><path fill="#FFED33" d="M109.698 57.385c1.794 1.376 6.027 4.545 10.086 6.955a1.135 1.135 0 0 0 1.522-.34l7.06-10.49a1.127 1.127 0 0 0-.37-1.603l-9.903-5.782a1.14 1.14 0 0 0-1.477.292l-7.138 9.393a1.13 1.13 0 0 0 .212 1.579"/><path fill="#D48743" d="m63.658 60.623 1.432-6.882c.122-.584.72-.937 1.293-.763 2.347.726 7.817 2.491 8.785 3.409.968.913-.695 5.778-1.468 7.864a1.013 1.013 0 0 1-1.31.592l-8.097-3.068a1.01 1.01 0 0 1-.635-1.152"/><path fill="#00D1FF" d="m87.492 34.9-3.832-2.41a1.57 1.57 0 0 1-.48-2.187l2.998-4.569a1.574 1.574 0 0 1 2.054-.527l3.493 1.842a1.57 1.57 0 0 1 .66 2.118 516 516 0 0 0-2.652 5.121 1.575 1.575 0 0 1-2.241.617"/><path fill="#F92385" d="m89.175 77.686 9.489-3.441a2.18 2.18 0 0 1 2.884 1.651l1.634 9.009a2.17 2.17 0 0 1-1.549 2.475l-7.695 2.163a2.18 2.18 0 0 1-2.579-1.21l-3.428-7.73a2.17 2.17 0 0 1 1.244-2.917"/><path fill="#E0000F" d="M0 44.307s3.42 2.617 6.63 3.128l4.55-6.33-7.459-3.088z"/><path fill="#03299C" d="m327.972 51.043-3.563 6.658c-.94 1.944.789 2.622 2.534 3.908l3.441 2.532a1.37 1.37 0 0 0 2.037-.487l3.738-7.458a1.37 1.37 0 0 0-.448-1.737l-5.722-3.948a1.372 1.372 0 0 0-2.013.532"/><path fill="#F92385" d="m360.752 36.8-8.813-4.476-1.737 7.097 7.211 3.015z"/><path fill="#57FFE1" d="m218.615 77.402-4.291 8.882a4.76 4.76 0 0 0 1.465 5.9l6.369 4.695a2.36 2.36 0 0 0 3.51-.84l5.445-10.863a2.346 2.346 0 0 0-.768-2.986l-8.265-5.701a2.358 2.358 0 0 0-3.465.913"/><path fill="#C9E0FF" d="m263.012 88.386 6.531 5.089s4.511-6.895 4.682-8.453c.171-1.554-6.532-5.088-6.532-5.088l-4.681 8.448z"/><path fill="#00D0FF" d="M267.624 19.514c-1.948 1.148-6.54 3.774-10.859 5.673a1.135 1.135 0 0 1-1.469-.524l-5.726-11.272a1.126 1.126 0 0 1 .561-1.546l10.534-4.537a1.133 1.133 0 0 1 1.428.47l5.933 10.194a1.12 1.12 0 0 1-.402 1.538"/><path fill="#D48743" d="m305.712 52.077-.581-7.007a1.014 1.014 0 0 0-1.192-.913c-2.416.434-8.065 1.517-9.135 2.308-1.073.792-.016 5.82.496 7.982.131.548.684.885 1.229.75l8.415-2.056c.484-.118.809-.573.768-1.068"/><path fill="#F92385" d="m305.342 78.948 4.1-1.923a1.57 1.57 0 0 0 .744-2.115l-2.416-4.901a1.576 1.576 0 0 0-1.972-.775l-3.693 1.4a1.57 1.57 0 0 0-.915 2.02 458 458 0 0 1 2.005 5.405 1.57 1.57 0 0 0 2.147.885"/><path fill="#FFED33" d="m265.663 55.648-8.996-4.573a2.177 2.177 0 0 0-3.063 1.286l-2.725 8.74a2.17 2.17 0 0 0 1.237 2.646l7.373 3.088a2.18 2.18 0 0 0 2.709-.884l4.348-7.256a2.17 2.17 0 0 0-.879-3.047"/><path fill="#00D0FF" d="M384 68.531s-3.717 2.18-6.963 2.297l-3.742-6.837 7.781-2.155z"/></g><defs><clipPath id="a"><path fill="#fff" d="M0 0h384v143.568H0z"/></clipPath></defs></svg>