<svg xmlns="http://www.w3.org/2000/svg" viewBox="0 0 56 56" style="enable-background:new 0 0 56 56" xml:space="preserve"><style>.st22{fill:none}</style><g id="Calque_1"><path class="st22" d="M43.1 8.6c-3.9-.1-7.8-.1-11.8 0-4.6.2-7.8 2.5-9.6 6.7-.1.3-.2.7-.3 1.2 4.4-.1 8.7-.2 12.4 2.6 3.6 2.8 5.4 6.4 5.6 10.4 1.2 1.1 2.2 1.8 3.1 2.6.9.8 1.7 1.8 2.5 2.6.1-.1.2-.1.4-.2 0-1 .1-2 0-2.9-.2-1.3.4-1.8 1.5-2.2 4.7-1.8 7.5-6.8 6.7-11.6-1.1-5.3-5.3-9.1-10.5-9.2z"/><path d="M55.7 16.7c-1.2-5.8-5.9-10.1-11.8-10.4-4.3-.3-8.7-.3-13 0-6 .4-9.9 3.7-11.9 9.4-.1.3-.2.6-.4 1H16c-2.6 0-5.3-.1-7.7 1.1C3 20.1 0 24.2 0 30c0 5.7 2.8 9.9 8 12.4.9.4 1.3.9 1.2 1.9-.1 1.5 0 3.1 0 4.6 0 .4.3.7.5 1.1.4-.2.8-.3 1.1-.5 1.6-1.6 3.3-3.2 4.9-4.9.7-.8 1.5-1 2.5-1 3.1 0 6.2.3 9.2-.1 6.3-.8 10.1-4.5 11.9-10.8.4.3.7.5 1 .8 1.4 1.4 2.8 2.9 4.3 4.2.5.4 1.5.7 2.1.5.5-.2 1-1.1 1.1-1.8.2-1 .1-2 0-3-.1-1.2.3-1.8 1.4-2.4 5-2.8 7.7-8.7 6.5-14.3zm-40.1 15h-3.1v-3.2h3.1v3.2zm5.6 0h-3.1v-3.2h3.1v3.2zm5.5 0h-3.1v-3.2h3.1v3.2zm20.1-2.3c-1.2.4-1.7.9-1.5 2.2.1 1 0 2 0 2.9-.1.1-.2.1-.4.2-.8-.9-1.6-1.8-2.5-2.6-.9-.8-1.8-1.6-3.1-2.6-.1-4-2-7.6-5.6-10.4-3.7-2.8-7.9-2.7-12.4-2.6.1-.5.2-.9.3-1.2 1.8-4.2 5.1-6.6 9.6-6.7 3.9-.2 7.8-.1 11.8 0 5.2.1 9.4 3.9 10.3 9.2 1 4.8-1.8 9.8-6.5 11.6z" style="fill:#fff"/><path class="st22" d="M0-.1h56v56H0z"/></g></svg>
