<svg width="1054" height="344" viewBox="0 0 1054 344" fill="none" xmlns="http://www.w3.org/2000/svg">
<rect width="1054" height="344" fill="white"/>
<path d="M357 197.333C355.527 197.333 354.333 198.527 354.333 200C354.333 201.473 355.527 202.667 357 202.667C358.473 202.667 359.667 201.473 359.667 200C359.667 198.527 358.473 197.333 357 197.333ZM356.5 200L356.5 249L357.5 249L357.5 200L356.5 200Z" fill="#003081"/>
<path d="M526 197.333C524.527 197.333 523.333 198.527 523.333 200C523.333 201.473 524.527 202.667 526 202.667C527.473 202.667 528.667 201.473 528.667 200C528.667 198.527 527.473 197.333 526 197.333ZM525.5 200L525.5 249L526.5 249L526.5 200L525.5 200Z" fill="#003081"/>
<path d="M891 197.333C889.527 197.333 888.333 198.527 888.333 200C888.333 201.473 889.527 202.667 891 202.667C892.473 202.667 893.667 201.473 893.667 200C893.667 198.527 892.473 197.333 891 197.333ZM890.5 200L890.5 249L891.5 249L891.5 200L890.5 200Z" fill="#003081"/>
<path d="M695 197.333C693.527 197.333 692.333 198.527 692.333 200C692.333 201.473 693.527 202.667 695 202.667C696.473 202.667 697.667 201.473 697.667 200C697.667 198.527 696.473 197.333 695 197.333ZM694.5 200L694.5 249L695.5 249L695.5 200L694.5 200Z" fill="#003081"/>
<path d="M161 197.333C159.527 197.333 158.333 198.527 158.333 200C158.333 201.473 159.527 202.667 161 202.667C162.473 202.667 163.667 201.473 163.667 200C163.667 198.527 162.473 197.333 161 197.333ZM160.5 200L160.5 249L161.5 249L161.5 200L160.5 200Z" fill="#003081"/>
<path d="M37 248C35.3431 248 34 249.343 34 251C34 252.657 35.3431 254 37 254V248ZM1054 251L1024 233.679V268.321L1054 251ZM37 254H1027V248H37V254Z" fill="#000091"/>
<circle cx="34" cy="251" r="14.5" fill="#000091" stroke="#E7F0FF" stroke-width="5"/>
<rect width="492" height="32" transform="translate(34 280)" fill="#EEEEEE"/>
<path d="M222.04 302V292.2H227.304V293.32H223.356V296.456H226.744V297.562H223.356V302H222.04ZM231.98 294.664C234.248 294.664 235.802 296.414 235.802 298.472C235.802 300.53 234.248 302.28 231.98 302.28C229.698 302.28 228.158 300.53 228.158 298.472C228.158 296.414 229.698 294.664 231.98 294.664ZM231.994 301.16C233.464 301.16 234.542 299.928 234.542 298.472C234.542 297.002 233.464 295.784 231.994 295.784C230.482 295.784 229.404 297.002 229.404 298.472C229.404 299.942 230.482 301.16 231.994 301.16ZM237.715 302V294.944H238.905V295.826C239.423 295.21 240.067 294.804 240.963 294.804C241.187 294.804 241.397 294.832 241.565 294.888V296.05C241.355 295.994 241.145 295.966 240.865 295.966C239.941 295.966 239.339 296.442 238.905 297.156V302H237.715ZM243.28 302V294.944H244.47V295.714C245.002 295.098 245.702 294.664 246.682 294.664C247.704 294.664 248.544 295.126 248.978 296.022C249.538 295.252 250.28 294.664 251.498 294.664C253.01 294.664 254.116 295.672 254.116 297.59V302H252.926V297.632C252.926 296.456 252.268 295.784 251.26 295.784C250.364 295.784 249.734 296.288 249.272 297.114C249.286 297.268 249.3 297.422 249.3 297.59V302H248.11V297.632C248.11 296.456 247.466 295.784 246.444 295.784C245.478 295.784 244.876 296.386 244.47 297.114V302H243.28ZM258.432 302.196C257.046 302.196 256.108 301.426 256.108 300.222C256.108 299.158 256.92 298.402 258.418 298.15L260.798 297.758V297.268C260.798 296.288 260.098 295.728 259.09 295.728C258.278 295.728 257.62 296.106 257.186 296.708L256.29 296.022C256.906 295.182 257.9 294.664 259.132 294.664C260.924 294.664 261.988 295.714 261.988 297.268V302H260.798V301.104C260.266 301.79 259.342 302.196 258.432 302.196ZM257.312 300.18C257.312 300.782 257.802 301.216 258.628 301.216C259.566 301.216 260.336 300.768 260.798 300.012V298.626L258.712 298.976C257.746 299.144 257.312 299.578 257.312 300.18ZM264.781 299.634V296.022H263.451V294.944H264.781V293.18H265.985V294.944H268.435V296.022H265.985V299.634C265.985 300.74 266.545 301.048 267.399 301.048C267.861 301.048 268.183 300.992 268.449 300.88V301.944C268.113 302.084 267.735 302.14 267.231 302.14C265.663 302.14 264.781 301.356 264.781 299.634ZM270.856 293.11C270.394 293.11 270.016 292.732 270.016 292.27C270.016 291.822 270.394 291.444 270.856 291.444C271.318 291.444 271.682 291.822 271.682 292.27C271.682 292.732 271.318 293.11 270.856 293.11ZM270.254 302V294.944H271.444V302H270.254ZM277.179 294.664C279.447 294.664 281.001 296.414 281.001 298.472C281.001 300.53 279.447 302.28 277.179 302.28C274.897 302.28 273.357 300.53 273.357 298.472C273.357 296.414 274.897 294.664 277.179 294.664ZM277.193 301.16C278.663 301.16 279.741 299.928 279.741 298.472C279.741 297.002 278.663 295.784 277.193 295.784C275.681 295.784 274.603 297.002 274.603 298.472C274.603 299.942 275.681 301.16 277.193 301.16ZM282.914 302V294.944H284.104V295.742C284.678 295.112 285.406 294.664 286.456 294.664C288.038 294.664 289.214 295.728 289.214 297.73V302H288.024V297.772C288.024 296.512 287.31 295.784 286.218 295.784C285.196 295.784 284.552 296.372 284.104 297.114V302H282.914ZM295.985 293.11C295.523 293.11 295.145 292.732 295.145 292.27C295.145 291.822 295.523 291.444 295.985 291.444C296.447 291.444 296.811 291.822 296.811 292.27C296.811 292.732 296.447 293.11 295.985 293.11ZM295.383 302V294.944H296.573V302H295.383ZM299.088 302V294.944H300.278V295.742C300.852 295.112 301.58 294.664 302.63 294.664C304.212 294.664 305.388 295.728 305.388 297.73V302H304.198V297.772C304.198 296.512 303.484 295.784 302.392 295.784C301.37 295.784 300.726 296.372 300.278 297.114V302H299.088ZM308.385 293.11C307.923 293.11 307.545 292.732 307.545 292.27C307.545 291.822 307.923 291.444 308.385 291.444C308.847 291.444 309.211 291.822 309.211 292.27C309.211 292.732 308.847 293.11 308.385 293.11ZM307.783 302V294.944H308.973V302H307.783ZM311.895 299.634V296.022H310.565V294.944H311.895V293.18H313.099V294.944H315.549V296.022H313.099V299.634C313.099 300.74 313.659 301.048 314.513 301.048C314.975 301.048 315.297 300.992 315.563 300.88V301.944C315.227 302.084 314.849 302.14 314.345 302.14C312.777 302.14 311.895 301.356 311.895 299.634ZM317.969 293.11C317.507 293.11 317.129 292.732 317.129 292.27C317.129 291.822 317.507 291.444 317.969 291.444C318.431 291.444 318.795 291.822 318.795 292.27C318.795 292.732 318.431 293.11 317.969 293.11ZM317.367 302V294.944H318.557V302H317.367ZM322.991 302.196C321.605 302.196 320.667 301.426 320.667 300.222C320.667 299.158 321.479 298.402 322.977 298.15L325.357 297.758V297.268C325.357 296.288 324.657 295.728 323.649 295.728C322.837 295.728 322.179 296.106 321.745 296.708L320.849 296.022C321.465 295.182 322.459 294.664 323.691 294.664C325.483 294.664 326.547 295.714 326.547 297.268V302H325.357V301.104C324.825 301.79 323.901 302.196 322.991 302.196ZM321.87 300.18C321.87 300.782 322.361 301.216 323.187 301.216C324.125 301.216 324.895 300.768 325.357 300.012V298.626L323.271 298.976C322.305 299.144 321.87 299.578 321.87 300.18ZM328.934 302V291.5H330.124V302H328.934ZM338.911 300.838C338.253 301.72 337.203 302.28 335.887 302.28C333.507 302.28 332.037 300.53 332.037 298.472C332.037 296.33 333.409 294.664 335.593 294.664C337.511 294.664 338.757 296.008 338.757 297.744C338.757 298.024 338.715 298.29 338.673 298.486H333.255C333.297 300.18 334.375 301.202 335.887 301.202C336.797 301.202 337.567 300.782 338.029 300.152L338.911 300.838ZM335.565 295.672C334.403 295.672 333.591 296.358 333.339 297.576H337.567C337.525 296.54 336.811 295.672 335.565 295.672Z" fill="#161616"/>
<rect width="196" height="32" transform="translate(695 280)" fill="#EEEEEE"/>
<path d="M727.699 302V292.2H732.963V293.32H729.015V296.456H732.403V297.562H729.015V302H727.699ZM737.638 294.664C739.906 294.664 741.46 296.414 741.46 298.472C741.46 300.53 739.906 302.28 737.638 302.28C735.356 302.28 733.816 300.53 733.816 298.472C733.816 296.414 735.356 294.664 737.638 294.664ZM737.652 301.16C739.122 301.16 740.2 299.928 740.2 298.472C740.2 297.002 739.122 295.784 737.652 295.784C736.14 295.784 735.062 297.002 735.062 298.472C735.062 299.942 736.14 301.16 737.652 301.16ZM743.373 302V294.944H744.563V295.826C745.081 295.21 745.725 294.804 746.621 294.804C746.845 294.804 747.055 294.832 747.223 294.888V296.05C747.013 295.994 746.803 295.966 746.523 295.966C745.599 295.966 744.997 296.442 744.563 297.156V302H743.373ZM748.938 302V294.944H750.128V295.714C750.66 295.098 751.36 294.664 752.34 294.664C753.362 294.664 754.202 295.126 754.636 296.022C755.196 295.252 755.938 294.664 757.156 294.664C758.668 294.664 759.774 295.672 759.774 297.59V302H758.584V297.632C758.584 296.456 757.926 295.784 756.918 295.784C756.022 295.784 755.392 296.288 754.93 297.114C754.944 297.268 754.958 297.422 754.958 297.59V302H753.768V297.632C753.768 296.456 753.124 295.784 752.102 295.784C751.136 295.784 750.534 296.386 750.128 297.114V302H748.938ZM764.09 302.196C762.704 302.196 761.766 301.426 761.766 300.222C761.766 299.158 762.578 298.402 764.076 298.15L766.456 297.758V297.268C766.456 296.288 765.756 295.728 764.748 295.728C763.936 295.728 763.278 296.106 762.844 296.708L761.948 296.022C762.564 295.182 763.558 294.664 764.79 294.664C766.582 294.664 767.646 295.714 767.646 297.268V302H766.456V301.104C765.924 301.79 765 302.196 764.09 302.196ZM762.97 300.18C762.97 300.782 763.46 301.216 764.286 301.216C765.224 301.216 765.994 300.768 766.456 300.012V298.626L764.37 298.976C763.404 299.144 762.97 299.578 762.97 300.18ZM770.439 299.634V296.022H769.109V294.944H770.439V293.18H771.643V294.944H774.093V296.022H771.643V299.634C771.643 300.74 772.203 301.048 773.057 301.048C773.519 301.048 773.841 300.992 774.107 300.88V301.944C773.771 302.084 773.393 302.14 772.889 302.14C771.321 302.14 770.439 301.356 770.439 299.634ZM776.514 293.11C776.052 293.11 775.674 292.732 775.674 292.27C775.674 291.822 776.052 291.444 776.514 291.444C776.976 291.444 777.34 291.822 777.34 292.27C777.34 292.732 776.976 293.11 776.514 293.11ZM775.912 302V294.944H777.102V302H775.912ZM782.837 294.664C785.105 294.664 786.659 296.414 786.659 298.472C786.659 300.53 785.105 302.28 782.837 302.28C780.555 302.28 779.015 300.53 779.015 298.472C779.015 296.414 780.555 294.664 782.837 294.664ZM782.851 301.16C784.321 301.16 785.399 299.928 785.399 298.472C785.399 297.002 784.321 295.784 782.851 295.784C781.339 295.784 780.261 297.002 780.261 298.472C780.261 299.942 781.339 301.16 782.851 301.16ZM788.573 302V294.944H789.763V295.742C790.337 295.112 791.065 294.664 792.115 294.664C793.697 294.664 794.873 295.728 794.873 297.73V302H793.683V297.772C793.683 296.512 792.969 295.784 791.877 295.784C790.855 295.784 790.211 296.372 789.763 297.114V302H788.573ZM804.289 301.16C805.157 301.16 805.871 300.74 806.305 300.124L807.243 300.838C806.585 301.72 805.563 302.28 804.275 302.28C801.937 302.28 800.439 300.53 800.439 298.472C800.439 296.414 801.937 294.664 804.275 294.664C805.549 294.664 806.585 295.238 807.243 296.106L806.305 296.82C805.871 296.204 805.157 295.784 804.275 295.784C802.763 295.784 801.685 296.974 801.685 298.472C801.685 299.984 802.763 301.16 804.289 301.16ZM811.822 294.664C814.09 294.664 815.644 296.414 815.644 298.472C815.644 300.53 814.09 302.28 811.822 302.28C809.54 302.28 808 300.53 808 298.472C808 296.414 809.54 294.664 811.822 294.664ZM811.836 301.16C813.306 301.16 814.384 299.928 814.384 298.472C814.384 297.002 813.306 295.784 811.836 295.784C810.324 295.784 809.246 297.002 809.246 298.472C809.246 299.942 810.324 301.16 811.836 301.16ZM817.557 302V294.944H818.747V295.742C819.321 295.112 820.049 294.664 821.099 294.664C822.681 294.664 823.857 295.728 823.857 297.73V302H822.667V297.772C822.667 296.512 821.953 295.784 820.861 295.784C819.839 295.784 819.195 296.372 818.747 297.114V302H817.557ZM826.658 299.634V296.022H825.328V294.944H826.658V293.18H827.862V294.944H830.312V296.022H827.862V299.634C827.862 300.74 828.422 301.048 829.276 301.048C829.738 301.048 830.06 300.992 830.326 300.88V301.944C829.99 302.084 829.612 302.14 829.108 302.14C827.54 302.14 826.658 301.356 826.658 299.634ZM832.733 293.11C832.271 293.11 831.893 292.732 831.893 292.27C831.893 291.822 832.271 291.444 832.733 291.444C833.195 291.444 833.559 291.822 833.559 292.27C833.559 292.732 833.195 293.11 832.733 293.11ZM832.131 302V294.944H833.321V302H832.131ZM835.836 302V294.944H837.026V295.742C837.6 295.112 838.328 294.664 839.378 294.664C840.96 294.664 842.136 295.728 842.136 297.73V302H840.946V297.772C840.946 296.512 840.232 295.784 839.14 295.784C838.118 295.784 837.474 296.372 837.026 297.114V302H835.836ZM849.445 298.976V294.944H850.635V298.934C850.635 301.048 849.417 302.28 847.499 302.28C845.595 302.28 844.377 301.048 844.377 298.934V294.944H845.567V298.976C845.567 300.362 846.309 301.16 847.513 301.16C848.689 301.16 849.445 300.362 849.445 298.976ZM859.253 300.838C858.595 301.72 857.545 302.28 856.229 302.28C853.849 302.28 852.379 300.53 852.379 298.472C852.379 296.33 853.751 294.664 855.935 294.664C857.853 294.664 859.099 296.008 859.099 297.744C859.099 298.024 859.057 298.29 859.015 298.486H853.597C853.639 300.18 854.717 301.202 856.229 301.202C857.139 301.202 857.909 300.782 858.371 300.152L859.253 300.838ZM855.907 295.672C854.745 295.672 853.933 296.358 853.681 297.576H857.909C857.867 296.54 857.153 295.672 855.907 295.672Z" fill="#161616"/>
<path d="M17.3336 194V184.2H20.5676C22.7236 184.2 24.0396 185.306 24.0396 187.126C24.0396 188.932 22.7236 190.038 20.5676 190.038H19.3216V194H17.3336ZM20.6516 185.852H19.3216V188.386H20.6516C21.4916 188.386 21.9956 187.896 21.9956 187.098C21.9956 186.356 21.4916 185.852 20.6516 185.852ZM25.4185 194V186.944H27.1965V187.644C27.6585 187.168 28.2605 186.804 29.0585 186.804C29.2965 186.804 29.5065 186.846 29.6745 186.902V188.652C29.4505 188.596 29.2125 188.554 28.8905 188.554C28.0225 188.554 27.4625 189.03 27.1965 189.478V194H25.4185ZM32.002 185.712C31.372 185.712 30.84 185.18 30.84 184.55C30.84 183.92 31.372 183.388 32.002 183.388C32.632 183.388 33.15 183.92 33.15 184.55C33.15 185.18 32.632 185.712 32.002 185.712ZM31.106 194V186.944H32.884V194H31.106ZM34.3044 192.978L35.4804 191.914C35.9144 192.46 36.4324 192.852 37.1044 192.852C37.6784 192.852 37.9724 192.516 37.9724 192.096C37.9724 190.864 34.5984 191.326 34.5984 188.848C34.5984 187.602 35.6484 186.664 37.1184 186.664C38.1964 186.664 39.1764 187.182 39.6804 187.868L38.5044 188.904C38.1404 188.456 37.6784 188.092 37.1324 188.092C36.5724 188.092 36.3064 188.4 36.3064 188.764C36.3064 189.968 39.6804 189.548 39.6804 191.984C39.6524 193.468 38.4624 194.28 37.1324 194.28C35.8724 194.28 34.9764 193.776 34.3044 192.978ZM47.7875 192.852C47.1295 193.734 46.0375 194.28 44.7075 194.28C42.2015 194.28 40.7875 192.53 40.7875 190.472C40.7875 188.386 42.1035 186.664 44.4135 186.664C46.3735 186.664 47.6615 187.994 47.6615 189.842C47.6615 190.234 47.6055 190.598 47.5495 190.836H42.6075C42.7755 192.152 43.5875 192.684 44.6935 192.684C45.4635 192.684 46.1355 192.348 46.5135 191.844L47.7875 192.852ZM44.3715 188.12C43.4615 188.12 42.8595 188.624 42.6635 189.548H45.9115C45.8835 188.834 45.3655 188.12 44.3715 188.12ZM4.85785 214.472C4.85785 212.414 6.21585 210.664 8.44185 210.664C9.39385 210.664 10.0799 210.958 10.6259 211.504V207.5H12.4179V218H10.6259V217.44C10.0799 217.986 9.39385 218.28 8.44185 218.28C6.21585 218.28 4.85785 216.53 4.85785 214.472ZM6.71985 214.472C6.71985 215.704 7.48985 216.6 8.69385 216.6C9.49185 216.6 10.1499 216.264 10.6259 215.62V213.324C10.1499 212.68 9.49185 212.344 8.69385 212.344C7.48985 212.344 6.71985 213.24 6.71985 214.472ZM21.0454 216.852C20.3874 217.734 19.2954 218.28 17.9654 218.28C15.4594 218.28 14.0454 216.53 14.0454 214.472C14.0454 212.386 15.3614 210.664 17.6714 210.664C19.6314 210.664 20.9194 211.994 20.9194 213.842C20.9194 214.234 20.8634 214.598 20.8074 214.836H15.8654C16.0334 216.152 16.8454 216.684 17.9514 216.684C18.7214 216.684 19.3934 216.348 19.7714 215.844L21.0454 216.852ZM17.6294 212.12C16.7194 212.12 16.1174 212.624 15.9214 213.548H19.1694C19.1414 212.834 18.6234 212.12 17.6294 212.12ZM26.4302 221.444V210.944H28.2082V211.518C28.7542 210.972 29.4402 210.664 30.4062 210.664C32.6462 210.664 33.9902 212.414 33.9902 214.472C33.9902 216.53 32.6462 218.28 30.4062 218.28C29.4402 218.28 28.7542 217.972 28.2082 217.426V221.444H26.4302ZM30.1542 212.344C29.3282 212.344 28.6562 212.708 28.2082 213.366V215.578C28.6842 216.25 29.3422 216.6 30.1542 216.6C31.3582 216.6 32.1422 215.704 32.1422 214.472C32.1422 213.24 31.3582 212.344 30.1542 212.344ZM39.0461 210.664C41.3421 210.664 42.9101 212.358 42.9101 214.472C42.9101 216.586 41.3421 218.28 39.0461 218.28C36.7501 218.28 35.1821 216.586 35.1821 214.472C35.1821 212.358 36.7501 210.664 39.0461 210.664ZM39.0741 216.6C40.2081 216.6 41.0621 215.69 41.0621 214.472C41.0621 213.24 40.2081 212.344 39.0741 212.344C37.8981 212.344 37.0301 213.24 37.0301 214.472C37.0301 215.704 37.8981 216.6 39.0741 216.6ZM43.6834 216.978L44.8594 215.914C45.2934 216.46 45.8114 216.852 46.4834 216.852C47.0574 216.852 47.3514 216.516 47.3514 216.096C47.3514 214.864 43.9774 215.326 43.9774 212.848C43.9774 211.602 45.0274 210.664 46.4974 210.664C47.5754 210.664 48.5554 211.182 49.0594 211.868L47.8834 212.904C47.5194 212.456 47.0574 212.092 46.5114 212.092C45.9514 212.092 45.6854 212.4 45.6854 212.764C45.6854 213.968 49.0594 213.548 49.0594 215.984C49.0314 217.468 47.8414 218.28 46.5114 218.28C45.2514 218.28 44.3554 217.776 43.6834 216.978ZM51.2552 215.424V212.54H49.9392V210.944H51.2552V209.18H53.0472V210.944H55.2032V212.54H53.0472V215.424C53.0472 216.208 53.4672 216.516 54.1672 216.516C54.6572 216.516 54.9792 216.46 55.2172 216.362V217.916C54.8672 218.07 54.4472 218.14 53.8592 218.14C52.0952 218.14 51.2552 217.146 51.2552 215.424ZM63.1547 216.852C62.4967 217.734 61.4047 218.28 60.0747 218.28C57.5687 218.28 56.1547 216.53 56.1547 214.472C56.1547 212.386 57.4707 210.664 59.7807 210.664C61.7407 210.664 63.0287 211.994 63.0287 213.842C63.0287 214.234 62.9727 214.598 62.9167 214.836H57.9747C58.1427 216.152 58.9547 216.684 60.0607 216.684C60.8307 216.684 61.5027 216.348 61.8807 215.844L63.1547 216.852ZM59.7387 212.12C58.8287 212.12 58.2267 212.624 58.0307 213.548H61.2787C61.2507 212.834 60.7327 212.12 59.7387 212.12Z" fill="#000091"/>
<rect x="79.5" y="39" width="164" height="144" rx="8" fill="#E8EDFF"/>
<path d="M123.266 72V62.2H126.5C128.656 62.2 129.972 63.306 129.972 65.126C129.972 66.932 128.656 68.038 126.5 68.038H125.254V72H123.266ZM126.584 63.852H125.254V66.386H126.584C127.424 66.386 127.928 65.896 127.928 65.098C127.928 64.356 127.424 63.852 126.584 63.852ZM133.093 72.21C131.679 72.21 130.713 71.398 130.713 70.096C130.713 69.032 131.539 68.234 133.051 67.982L135.207 67.618V67.436C135.207 66.694 134.647 66.218 133.835 66.218C133.149 66.218 132.617 66.54 132.239 67.058L130.937 66.064C131.567 65.196 132.603 64.664 133.891 64.664C135.935 64.664 136.985 65.882 136.985 67.436V72H135.207V71.314C134.759 71.86 133.919 72.21 133.093 72.21ZM132.477 70.012C132.477 70.488 132.855 70.796 133.457 70.796C134.269 70.796 134.857 70.418 135.207 69.858V68.864L133.527 69.144C132.785 69.27 132.477 69.578 132.477 70.012ZM139.021 72V64.944H140.799V65.644C141.261 65.168 141.863 64.804 142.661 64.804C142.899 64.804 143.109 64.846 143.277 64.902V66.652C143.053 66.596 142.815 66.554 142.493 66.554C141.625 66.554 141.065 67.03 140.799 67.478V72H139.021ZM147.796 70.6C148.496 70.6 149.056 70.278 149.392 69.788L150.778 70.852C150.12 71.72 149.084 72.28 147.796 72.28C145.36 72.28 143.904 70.53 143.904 68.472C143.904 66.414 145.36 64.664 147.796 64.664C149.084 64.664 150.12 65.224 150.778 66.092L149.392 67.156C149.056 66.666 148.496 66.344 147.768 66.344C146.606 66.344 145.752 67.24 145.752 68.472C145.752 69.718 146.606 70.6 147.796 70.6ZM155.192 64.664C157.488 64.664 159.056 66.358 159.056 68.472C159.056 70.586 157.488 72.28 155.192 72.28C152.896 72.28 151.328 70.586 151.328 68.472C151.328 66.358 152.896 64.664 155.192 64.664ZM155.22 70.6C156.354 70.6 157.208 69.69 157.208 68.472C157.208 67.24 156.354 66.344 155.22 66.344C154.044 66.344 153.176 67.24 153.176 68.472C153.176 69.704 154.044 70.6 155.22 70.6ZM165.325 68.948V64.944H167.117V68.864C167.117 70.978 165.885 72.28 163.813 72.28C161.741 72.28 160.523 70.978 160.523 68.864V64.944H162.315V68.948C162.315 69.97 162.847 70.6 163.827 70.6C164.793 70.6 165.325 69.97 165.325 68.948ZM169.085 72V64.944H170.863V65.644C171.325 65.168 171.927 64.804 172.725 64.804C172.963 64.804 173.173 64.846 173.341 64.902V66.652C173.117 66.596 172.879 66.554 172.557 66.554C171.689 66.554 171.129 67.03 170.863 67.478V72H169.085ZM174.157 70.978L175.333 69.914C175.767 70.46 176.285 70.852 176.957 70.852C177.531 70.852 177.825 70.516 177.825 70.096C177.825 68.864 174.451 69.326 174.451 66.848C174.451 65.602 175.501 64.664 176.971 64.664C178.049 64.664 179.029 65.182 179.533 65.868L178.357 66.904C177.993 66.456 177.531 66.092 176.985 66.092C176.425 66.092 176.159 66.4 176.159 66.764C176.159 67.968 179.533 67.548 179.533 69.984C179.505 71.468 178.315 72.28 176.985 72.28C175.725 72.28 174.829 71.776 174.157 70.978ZM184.441 68.472C184.441 66.414 185.799 64.664 188.025 64.664C188.977 64.664 189.663 64.958 190.209 65.504V61.5H192.001V72H190.209V71.44C189.663 71.986 188.977 72.28 188.025 72.28C185.799 72.28 184.441 70.53 184.441 68.472ZM186.303 68.472C186.303 69.704 187.073 70.6 188.277 70.6C189.075 70.6 189.733 70.264 190.209 69.62V67.324C189.733 66.68 189.075 66.344 188.277 66.344C187.073 66.344 186.303 67.24 186.303 68.472ZM200.628 70.852C199.97 71.734 198.878 72.28 197.548 72.28C195.042 72.28 193.628 70.53 193.628 68.472C193.628 66.386 194.944 64.664 197.254 64.664C199.214 64.664 200.502 65.994 200.502 67.842C200.502 68.234 200.446 68.598 200.39 68.836H195.448C195.616 70.152 196.428 70.684 197.534 70.684C198.304 70.684 198.976 70.348 199.354 69.844L200.628 70.852ZM197.212 66.12C196.302 66.12 195.7 66.624 195.504 67.548H198.752C198.724 66.834 198.206 66.12 197.212 66.12ZM101.095 86.944H102.411V86.202C102.411 84.704 103.405 83.5 105.169 83.5C105.813 83.5 106.359 83.654 106.807 83.892L106.051 85.376C105.841 85.222 105.561 85.096 105.197 85.096C104.595 85.096 104.203 85.516 104.203 86.16V86.944H106.359V88.54H104.203V94H102.411V88.54H101.095V86.944ZM110.669 86.664C112.965 86.664 114.533 88.358 114.533 90.472C114.533 92.586 112.965 94.28 110.669 94.28C108.373 94.28 106.805 92.586 106.805 90.472C106.805 88.358 108.373 86.664 110.669 86.664ZM110.697 92.6C111.831 92.6 112.685 91.69 112.685 90.472C112.685 89.24 111.831 88.344 110.697 88.344C109.521 88.344 108.653 89.24 108.653 90.472C108.653 91.704 109.521 92.6 110.697 92.6ZM116.155 94V86.944H117.933V87.644C118.395 87.168 118.997 86.804 119.795 86.804C120.033 86.804 120.243 86.846 120.411 86.902V88.652C120.187 88.596 119.949 88.554 119.627 88.554C118.759 88.554 118.199 89.03 117.933 89.478V94H116.155ZM121.842 94V86.944H123.62V87.476C124.096 87.014 124.698 86.664 125.566 86.664C126.462 86.664 127.246 87.056 127.708 87.812C128.212 87.196 128.884 86.664 130.074 86.664C131.53 86.664 132.678 87.672 132.678 89.66V94H130.886V89.73C130.886 88.876 130.424 88.344 129.626 88.344C128.856 88.344 128.436 88.876 128.156 89.352C128.17 89.45 128.17 89.548 128.17 89.66V94H126.378V89.73C126.378 88.876 125.916 88.344 125.118 88.344C124.306 88.344 123.886 88.946 123.62 89.394V94H121.842ZM136.696 94.21C135.282 94.21 134.316 93.398 134.316 92.096C134.316 91.032 135.142 90.234 136.654 89.982L138.81 89.618V89.436C138.81 88.694 138.25 88.218 137.438 88.218C136.752 88.218 136.22 88.54 135.842 89.058L134.54 88.064C135.17 87.196 136.206 86.664 137.494 86.664C139.538 86.664 140.588 87.882 140.588 89.436V94H138.81V93.314C138.362 93.86 137.522 94.21 136.696 94.21ZM136.08 92.012C136.08 92.488 136.458 92.796 137.06 92.796C137.872 92.796 138.46 92.418 138.81 91.858V90.864L137.13 91.144C136.388 91.27 136.08 91.578 136.08 92.012ZM143.072 91.424V88.54H141.756V86.944H143.072V85.18H144.864V86.944H147.02V88.54H144.864V91.424C144.864 92.208 145.284 92.516 145.984 92.516C146.474 92.516 146.796 92.46 147.034 92.362V93.916C146.684 94.07 146.264 94.14 145.676 94.14C143.912 94.14 143.072 93.146 143.072 91.424ZM149.508 85.712C148.878 85.712 148.346 85.18 148.346 84.55C148.346 83.92 148.878 83.388 149.508 83.388C150.138 83.388 150.656 83.92 150.656 84.55C150.656 85.18 150.138 85.712 149.508 85.712ZM148.612 94V86.944H150.39V94H148.612ZM155.882 86.664C158.178 86.664 159.746 88.358 159.746 90.472C159.746 92.586 158.178 94.28 155.882 94.28C153.586 94.28 152.018 92.586 152.018 90.472C152.018 88.358 153.586 86.664 155.882 86.664ZM155.91 92.6C157.044 92.6 157.898 91.69 157.898 90.472C157.898 89.24 157.044 88.344 155.91 88.344C154.734 88.344 153.866 89.24 153.866 90.472C153.866 91.704 154.734 92.6 155.91 92.6ZM161.368 94V86.944H163.146V87.504C163.636 87.028 164.294 86.664 165.232 86.664C166.758 86.664 167.976 87.714 167.976 89.8V94H166.184V89.87C166.184 88.932 165.652 88.344 164.784 88.344C163.888 88.344 163.412 88.946 163.146 89.394V94H161.368ZM180.264 92.852C179.606 93.734 178.514 94.28 177.184 94.28C174.678 94.28 173.264 92.53 173.264 90.472C173.264 88.386 174.58 86.664 176.89 86.664C178.85 86.664 180.138 87.994 180.138 89.842C180.138 90.234 180.082 90.598 180.026 90.836H175.084C175.252 92.152 176.064 92.684 177.17 92.684C177.94 92.684 178.612 92.348 178.99 91.844L180.264 92.852ZM176.848 88.12C175.938 88.12 175.336 88.624 175.14 89.548H178.388C178.36 88.834 177.842 88.12 176.848 88.12ZM181.876 94V86.944H183.654V87.504C184.144 87.028 184.802 86.664 185.74 86.664C187.266 86.664 188.484 87.714 188.484 89.8V94H186.692V89.87C186.692 88.932 186.16 88.344 185.292 88.344C184.396 88.344 183.92 88.946 183.654 89.394V94H181.876ZM196.362 94H194.178L199.106 85.908H194.052V84.2H201.108V85.908L196.362 94ZM205.506 83.92C208.082 83.92 209.286 86.16 209.286 89.1C209.286 92.04 208.082 94.28 205.506 94.28C202.93 94.28 201.726 92.04 201.726 89.1C201.726 86.16 202.93 83.92 205.506 83.92ZM205.506 85.67C204.26 85.67 203.658 87.042 203.658 89.1C203.658 91.172 204.26 92.53 205.506 92.53C206.738 92.53 207.34 91.158 207.34 89.1C207.34 87.028 206.738 85.67 205.506 85.67ZM210.764 94V83.5H212.542V87.504C213.032 87.028 213.69 86.664 214.628 86.664C216.154 86.664 217.372 87.714 217.372 89.8V94H215.58V89.87C215.58 88.932 215.062 88.344 214.18 88.344C213.284 88.344 212.808 88.946 212.542 89.394V94H210.764ZM220.231 96.24H218.579L219.853 92.054H221.855L220.231 96.24ZM118.1 115.986V108.132L116.07 109.28L115.132 107.936L118.156 106.186H119.99V115.986H118.1ZM124.448 116H122.264L127.192 107.908H122.138V106.2H129.194V107.908L124.448 116ZM130.679 111.66L130.973 106.2H136.811V107.908H132.779L132.667 109.952H133.423C136.027 109.952 137.175 111.142 137.175 113.046C137.175 115.048 135.607 116.28 133.591 116.28C131.771 116.28 130.567 115.482 129.755 114.068L131.407 113.046C131.967 114.124 132.639 114.6 133.591 114.6C134.557 114.6 135.243 114.026 135.243 113.116C135.243 112.192 134.557 111.66 133.339 111.66H130.679ZM138.877 116V105.5H140.655V109.504C141.145 109.028 141.803 108.664 142.741 108.664C144.267 108.664 145.485 109.714 145.485 111.8V116H143.693V111.87C143.693 110.932 143.175 110.344 142.293 110.344C141.397 110.344 140.921 110.946 140.655 111.394V116H138.877ZM151.645 111.058L150.427 111.94L149.307 110.148L148.201 111.94L146.983 111.058L148.341 109.448L146.297 108.944L146.759 107.502L148.719 108.314L148.565 106.2H150.077L149.909 108.314L151.869 107.502L152.331 108.944L150.273 109.448L151.645 111.058ZM159.943 108.664C162.239 108.664 163.807 110.358 163.807 112.472C163.807 114.586 162.239 116.28 159.943 116.28C157.647 116.28 156.079 114.586 156.079 112.472C156.079 110.358 157.647 108.664 159.943 108.664ZM159.971 114.6C161.105 114.6 161.959 113.69 161.959 112.472C161.959 111.24 161.105 110.344 159.971 110.344C158.795 110.344 157.927 111.24 157.927 112.472C157.927 113.704 158.795 114.6 159.971 114.6ZM170.076 112.948V108.944H171.868V112.864C171.868 114.978 170.636 116.28 168.564 116.28C166.492 116.28 165.274 114.978 165.274 112.864V108.944H167.066V112.948C167.066 113.97 167.598 114.6 168.578 114.6C169.544 114.6 170.076 113.97 170.076 112.948ZM184.26 113.2C184.26 115.062 182.734 116.28 180.69 116.28C178.842 116.28 177.652 115.468 176.854 114.068L178.506 113.046C179.052 114.124 179.71 114.6 180.676 114.6C181.628 114.6 182.342 114.026 182.342 113.116C182.342 112.22 181.642 111.66 180.606 111.66H178.996V109.98H180.48C181.306 109.98 181.908 109.518 181.908 108.762C181.908 108.02 181.348 107.6 180.578 107.6C179.794 107.6 179.262 108.02 178.856 108.72L177.316 107.768C178.03 106.606 179.136 105.92 180.718 105.92C182.51 105.92 183.84 106.942 183.84 108.552C183.84 109.462 183.448 110.232 182.72 110.736C183.714 111.24 184.26 112.122 184.26 113.2ZM187.622 115.986V108.132L185.592 109.28L184.654 107.936L187.678 106.186H189.512V115.986H187.622ZM192.134 111.66L192.428 106.2H198.266V107.908H194.234L194.122 109.952H194.878C197.482 109.952 198.63 111.142 198.63 113.046C198.63 115.048 197.062 116.28 195.046 116.28C193.226 116.28 192.022 115.482 191.21 114.068L192.862 113.046C193.422 114.124 194.094 114.6 195.046 114.6C196.012 114.6 196.698 114.026 196.698 113.116C196.698 112.192 196.012 111.66 194.794 111.66H192.134ZM200.333 116V105.5H202.111V109.504C202.601 109.028 203.259 108.664 204.197 108.664C205.723 108.664 206.941 109.714 206.941 111.8V116H205.149V111.87C205.149 110.932 204.631 110.344 203.749 110.344C202.853 110.344 202.377 110.946 202.111 111.394V116H200.333Z" fill="#161616"/>
<path d="M137.062 150V141.6H138.19V148.968H141.574V150H137.062ZM144.888 150.168C143.7 150.168 142.896 149.508 142.896 148.476C142.896 147.564 143.592 146.916 144.876 146.7L146.916 146.364V145.944C146.916 145.104 146.316 144.624 145.452 144.624C144.756 144.624 144.192 144.948 143.82 145.464L143.052 144.876C143.58 144.156 144.432 143.712 145.488 143.712C147.024 143.712 147.936 144.612 147.936 145.944V150H146.916V149.232C146.46 149.82 145.668 150.168 144.888 150.168ZM143.928 148.44C143.928 148.956 144.348 149.328 145.056 149.328C145.86 149.328 146.52 148.944 146.916 148.296V147.108L145.128 147.408C144.3 147.552 143.928 147.924 143.928 148.44ZM153.469 150V141.6H157.981V142.56H154.597V145.248H157.501V146.196H154.597V150H153.469ZM160.826 150.168C159.638 150.168 158.834 149.508 158.834 148.476C158.834 147.564 159.53 146.916 160.814 146.7L162.854 146.364V145.944C162.854 145.104 162.254 144.624 161.39 144.624C160.694 144.624 160.13 144.948 159.758 145.464L158.99 144.876C159.518 144.156 160.37 143.712 161.426 143.712C162.962 143.712 163.874 144.612 163.874 145.944V150H162.854V149.232C162.398 149.82 161.606 150.168 160.826 150.168ZM159.866 148.44C159.866 148.956 160.286 149.328 160.994 149.328C161.798 149.328 162.458 148.944 162.854 148.296V147.108L161.066 147.408C160.238 147.552 159.866 147.924 159.866 148.44ZM172.196 146.976C172.196 148.74 170.984 150.24 169.088 150.24C168.188 150.24 167.48 149.892 166.94 149.28V150H165.92V141H166.94V144.672C167.48 144.06 168.188 143.712 169.088 143.712C170.984 143.712 172.196 145.212 172.196 146.976ZM168.968 144.672C168.128 144.672 167.384 145.08 166.94 145.788V148.164C167.408 148.884 168.14 149.28 168.968 149.28C170.252 149.28 171.128 148.26 171.128 146.976C171.128 145.692 170.252 144.672 168.968 144.672ZM173.853 150V143.952H174.873V144.708C175.317 144.18 175.869 143.832 176.637 143.832C176.829 143.832 177.009 143.856 177.153 143.904V144.9C176.973 144.852 176.793 144.828 176.553 144.828C175.761 144.828 175.245 145.236 174.873 145.848V150H173.853ZM179.139 142.38C178.743 142.38 178.419 142.056 178.419 141.66C178.419 141.276 178.743 140.952 179.139 140.952C179.535 140.952 179.847 141.276 179.847 141.66C179.847 142.056 179.535 142.38 179.139 142.38ZM178.623 150V143.952H179.643V150H178.623ZM181.811 150V141H182.843V146.784L185.687 143.952H186.995L184.463 146.472L187.043 150H185.783L183.731 147.192L182.843 148.068V150H181.811ZM122.819 163.712C124.763 163.712 126.095 165.212 126.095 166.976C126.095 168.74 124.763 170.24 122.819 170.24C120.863 170.24 119.543 168.74 119.543 166.976C119.543 165.212 120.863 163.712 122.819 163.712ZM122.831 169.28C124.091 169.28 125.015 168.224 125.015 166.976C125.015 165.716 124.091 164.672 122.831 164.672C121.535 164.672 120.611 165.716 120.611 166.976C120.611 168.236 121.535 169.28 122.831 169.28ZM131.946 167.408V163.952H132.966V167.372C132.966 169.184 131.922 170.24 130.278 170.24C128.646 170.24 127.602 169.184 127.602 167.372V163.952H128.622V167.408C128.622 168.596 129.258 169.28 130.29 169.28C131.298 169.28 131.946 168.596 131.946 167.408ZM138.463 170V161.6H140.923C142.603 161.6 143.647 162.524 143.647 163.964C143.647 165.404 142.603 166.316 140.923 166.316H139.591V170H138.463ZM140.947 162.56H139.591V165.356H140.947C141.907 165.356 142.483 164.84 142.483 163.94C142.483 163.088 141.907 162.56 140.947 162.56ZM149.143 161.36C151.759 161.36 153.547 163.4 153.547 165.8C153.547 168.2 151.759 170.24 149.143 170.24C146.515 170.24 144.727 168.2 144.727 165.8C144.727 163.4 146.515 161.36 149.143 161.36ZM149.143 169.184C151.027 169.184 152.383 167.672 152.383 165.8C152.383 163.928 151.027 162.416 149.143 162.416C147.247 162.416 145.891 163.928 145.891 165.8C145.891 167.672 147.247 169.184 149.143 169.184ZM155.49 170V161.6H157.95C159.63 161.6 160.674 162.524 160.674 163.964C160.674 165.404 159.63 166.316 157.95 166.316H156.618V170H155.49ZM157.974 162.56H156.618V165.356H157.974C158.934 165.356 159.51 164.84 159.51 163.94C159.51 163.088 158.934 162.56 157.974 162.56ZM164.979 168.848L165.819 168.08C166.395 168.824 167.067 169.22 167.847 169.22C168.783 169.22 169.323 168.656 169.323 167.888C169.323 165.992 165.339 166.4 165.339 163.628C165.339 162.38 166.371 161.36 167.835 161.36C169.011 161.36 169.875 161.9 170.499 162.728L169.647 163.472C169.155 162.764 168.567 162.368 167.847 162.368C167.019 162.368 166.491 162.884 166.491 163.604C166.491 165.488 170.463 165.056 170.463 167.852C170.463 169.304 169.347 170.228 167.859 170.228C166.623 170.228 165.711 169.76 164.979 168.848ZM175.132 169.28C175.876 169.28 176.488 168.92 176.86 168.392L177.664 169.004C177.1 169.76 176.224 170.24 175.12 170.24C173.116 170.24 171.832 168.74 171.832 166.976C171.832 165.212 173.116 163.712 175.12 163.712C176.212 163.712 177.1 164.204 177.664 164.948L176.86 165.56C176.488 165.032 175.876 164.672 175.12 164.672C173.824 164.672 172.9 165.692 172.9 166.976C172.9 168.272 173.824 169.28 175.132 169.28ZM179.062 170V161H180.082V164.636C180.574 164.096 181.198 163.712 182.098 163.712C183.454 163.712 184.462 164.624 184.462 166.34V170H183.442V166.376C183.442 165.296 182.842 164.672 181.894 164.672C181.006 164.672 180.466 165.188 180.082 165.812V170H179.062ZM189.276 163.712C191.22 163.712 192.552 165.212 192.552 166.976C192.552 168.74 191.22 170.24 189.276 170.24C187.32 170.24 186 168.74 186 166.976C186 165.212 187.32 163.712 189.276 163.712ZM189.288 169.28C190.548 169.28 191.472 168.224 191.472 166.976C191.472 165.716 190.548 164.672 189.288 164.672C187.992 164.672 187.068 165.716 187.068 166.976C187.068 168.236 187.992 169.28 189.288 169.28ZM197.01 163.712C198.954 163.712 200.286 165.212 200.286 166.976C200.286 168.74 198.954 170.24 197.01 170.24C195.054 170.24 193.734 168.74 193.734 166.976C193.734 165.212 195.054 163.712 197.01 163.712ZM197.022 169.28C198.282 169.28 199.206 168.224 199.206 166.976C199.206 165.716 198.282 164.672 197.022 164.672C195.726 164.672 194.802 165.716 194.802 166.976C194.802 168.236 195.726 169.28 197.022 169.28ZM201.926 170V161H202.946V170H201.926Z" fill="#000091"/>
<rect x="275.5" y="39" width="164" height="144" rx="8" fill="#BAFAEE"/>
<path d="M294.698 70.642L296.14 69.312C296.728 70.068 297.512 70.516 298.31 70.516C299.094 70.516 299.57 70.096 299.57 69.396C299.57 67.59 295.118 68.08 295.118 64.762C295.118 63.208 296.406 61.92 298.282 61.92C299.752 61.92 300.872 62.578 301.712 63.572L300.256 64.888C299.682 64.146 299.038 63.656 298.296 63.656C297.596 63.656 297.134 64.104 297.134 64.692C297.134 66.47 301.586 65.966 301.586 69.326C301.558 71.174 300.13 72.28 298.324 72.28C296.672 72.28 295.566 71.678 294.698 70.642ZM308.053 68.948V64.944H309.845V68.864C309.845 70.978 308.613 72.28 306.541 72.28C304.469 72.28 303.251 70.978 303.251 68.864V64.944H305.043V68.948C305.043 69.97 305.575 70.6 306.555 70.6C307.521 70.6 308.053 69.97 308.053 68.948ZM312.709 63.712C312.079 63.712 311.547 63.18 311.547 62.55C311.547 61.92 312.079 61.388 312.709 61.388C313.339 61.388 313.857 61.92 313.857 62.55C313.857 63.18 313.339 63.712 312.709 63.712ZM311.813 72V64.944H313.591V72H311.813ZM314.715 64.944H316.619L318.453 69.984L320.273 64.944H322.191L319.615 72H317.277L314.715 64.944ZM324.207 63.712C323.577 63.712 323.045 63.18 323.045 62.55C323.045 61.92 323.577 61.388 324.207 61.388C324.837 61.388 325.355 61.92 325.355 62.55C325.355 63.18 324.837 63.712 324.207 63.712ZM323.311 72V64.944H325.089V72H323.311ZM330.491 68.472C330.491 66.414 331.849 64.664 334.075 64.664C335.027 64.664 335.713 64.958 336.259 65.504V61.5H338.051V72H336.259V71.44C335.713 71.986 335.027 72.28 334.075 72.28C331.849 72.28 330.491 70.53 330.491 68.472ZM332.353 68.472C332.353 69.704 333.123 70.6 334.327 70.6C335.125 70.6 335.783 70.264 336.259 69.62V67.324C335.783 66.68 335.125 66.344 334.327 66.344C333.123 66.344 332.353 67.24 332.353 68.472ZM346.678 70.852C346.02 71.734 344.928 72.28 343.598 72.28C341.092 72.28 339.678 70.53 339.678 68.472C339.678 66.386 340.994 64.664 343.304 64.664C345.264 64.664 346.552 65.994 346.552 67.842C346.552 68.234 346.496 68.598 346.44 68.836H341.498C341.666 70.152 342.478 70.684 343.584 70.684C344.354 70.684 345.026 70.348 345.404 69.844L346.678 70.852ZM343.262 66.12C342.352 66.12 341.75 66.624 341.554 67.548H344.802C344.774 66.834 344.256 66.12 343.262 66.12ZM351.811 72V70.292L355.171 66.988C355.927 66.218 356.403 65.686 356.403 64.888C356.403 64.076 355.843 63.6 355.073 63.6C354.135 63.6 353.561 64.174 353.043 65.042L351.503 64.104C352.329 62.76 353.547 61.92 355.255 61.92C356.963 61.92 358.335 63.012 358.335 64.692C358.335 66.036 357.453 67.072 356.487 68.01L354.121 70.292H358.587V72H351.811ZM364.231 72V64.944H366.009V65.476C366.485 65.014 367.087 64.664 367.955 64.664C368.851 64.664 369.635 65.056 370.097 65.812C370.601 65.196 371.273 64.664 372.463 64.664C373.919 64.664 375.067 65.672 375.067 67.66V72H373.275V67.73C373.275 66.876 372.813 66.344 372.015 66.344C371.245 66.344 370.825 66.876 370.545 67.352C370.559 67.45 370.559 67.548 370.559 67.66V72H368.767V67.73C368.767 66.876 368.305 66.344 367.507 66.344C366.695 66.344 366.275 66.946 366.009 67.394V72H364.231ZM380.456 64.664C382.752 64.664 384.32 66.358 384.32 68.472C384.32 70.586 382.752 72.28 380.456 72.28C378.16 72.28 376.592 70.586 376.592 68.472C376.592 66.358 378.16 64.664 380.456 64.664ZM380.484 70.6C381.618 70.6 382.472 69.69 382.472 68.472C382.472 67.24 381.618 66.344 380.484 66.344C379.308 66.344 378.44 67.24 378.44 68.472C378.44 69.704 379.308 70.6 380.484 70.6ZM385.506 68.472C385.506 66.414 386.864 64.664 389.09 64.664C390.042 64.664 390.728 64.958 391.274 65.504V61.5H393.066V72H391.274V71.44C390.728 71.986 390.042 72.28 389.09 72.28C386.864 72.28 385.506 70.53 385.506 68.472ZM387.368 68.472C387.368 69.704 388.138 70.6 389.342 70.6C390.14 70.6 390.798 70.264 391.274 69.62V67.324C390.798 66.68 390.14 66.344 389.342 66.344C388.138 66.344 387.368 67.24 387.368 68.472ZM399.846 68.948V64.944H401.638V68.864C401.638 70.978 400.406 72.28 398.334 72.28C396.262 72.28 395.044 70.978 395.044 68.864V64.944H396.836V68.948C396.836 69.97 397.368 70.6 398.348 70.6C399.314 70.6 399.846 69.97 399.846 68.948ZM403.606 72V61.5H405.384V72H403.606ZM414.012 70.852C413.354 71.734 412.262 72.28 410.932 72.28C408.426 72.28 407.012 70.53 407.012 68.472C407.012 66.386 408.328 64.664 410.638 64.664C412.598 64.664 413.886 65.994 413.886 67.842C413.886 68.234 413.83 68.598 413.774 68.836H408.832C409 70.152 409.812 70.684 410.918 70.684C411.688 70.684 412.36 70.348 412.738 69.844L414.012 70.852ZM410.596 66.12C409.686 66.12 409.084 66.624 408.888 67.548H412.136C412.108 66.834 411.59 66.12 410.596 66.12ZM414.912 70.978L416.088 69.914C416.522 70.46 417.04 70.852 417.712 70.852C418.286 70.852 418.58 70.516 418.58 70.096C418.58 68.864 415.206 69.326 415.206 66.848C415.206 65.602 416.256 64.664 417.726 64.664C418.804 64.664 419.784 65.182 420.288 65.868L419.112 66.904C418.748 66.456 418.286 66.092 417.74 66.092C417.18 66.092 416.914 66.4 416.914 66.764C416.914 67.968 420.288 67.548 420.288 69.984C420.26 71.468 419.07 72.28 417.74 72.28C416.48 72.28 415.584 71.776 414.912 70.978ZM303.177 92.6C303.877 92.6 304.437 92.278 304.773 91.788L306.159 92.852C305.501 93.72 304.465 94.28 303.177 94.28C300.741 94.28 299.285 92.53 299.285 90.472C299.285 88.414 300.741 86.664 303.177 86.664C304.465 86.664 305.501 87.224 306.159 88.092L304.773 89.156C304.437 88.666 303.877 88.344 303.149 88.344C301.987 88.344 301.133 89.24 301.133 90.472C301.133 91.718 301.987 92.6 303.177 92.6ZM310.572 86.664C312.868 86.664 314.436 88.358 314.436 90.472C314.436 92.586 312.868 94.28 310.572 94.28C308.276 94.28 306.708 92.586 306.708 90.472C306.708 88.358 308.276 86.664 310.572 86.664ZM310.6 92.6C311.734 92.6 312.588 91.69 312.588 90.472C312.588 89.24 311.734 88.344 310.6 88.344C309.424 88.344 308.556 89.24 308.556 90.472C308.556 91.704 309.424 92.6 310.6 92.6ZM316.058 94V86.944H317.836V87.476C318.312 87.014 318.914 86.664 319.782 86.664C320.678 86.664 321.462 87.056 321.924 87.812C322.428 87.196 323.1 86.664 324.29 86.664C325.746 86.664 326.894 87.672 326.894 89.66V94H325.102V89.73C325.102 88.876 324.64 88.344 323.842 88.344C323.072 88.344 322.652 88.876 322.372 89.352C322.386 89.45 322.386 89.548 322.386 89.66V94H320.594V89.73C320.594 88.876 320.132 88.344 319.334 88.344C318.522 88.344 318.102 88.946 317.836 89.394V94H316.058ZM328.923 97.444V86.944H330.701V87.518C331.247 86.972 331.933 86.664 332.899 86.664C335.139 86.664 336.483 88.414 336.483 90.472C336.483 92.53 335.139 94.28 332.899 94.28C331.933 94.28 331.247 93.972 330.701 93.426V97.444H328.923ZM332.647 88.344C331.821 88.344 331.149 88.708 330.701 89.366V91.578C331.177 92.25 331.835 92.6 332.647 92.6C333.851 92.6 334.635 91.704 334.635 90.472C334.635 89.24 333.851 88.344 332.647 88.344ZM338.111 94V83.5H339.889V94H338.111ZM346.123 85.824H344.415L345.871 83.5H347.803L346.123 85.824ZM348.517 92.852C347.859 93.734 346.767 94.28 345.437 94.28C342.931 94.28 341.517 92.53 341.517 90.472C341.517 88.386 342.833 86.664 345.143 86.664C347.103 86.664 348.391 87.994 348.391 89.842C348.391 90.234 348.335 90.598 348.279 90.836H343.337C343.505 92.152 344.317 92.684 345.423 92.684C346.193 92.684 346.865 92.348 347.243 91.844L348.517 92.852ZM345.101 88.12C344.191 88.12 343.589 88.624 343.393 89.548H346.641C346.613 88.834 346.095 88.12 345.101 88.12ZM350.128 94V86.944H351.906V87.476C352.382 87.014 352.984 86.664 353.852 86.664C354.748 86.664 355.532 87.056 355.994 87.812C356.498 87.196 357.17 86.664 358.36 86.664C359.816 86.664 360.964 87.672 360.964 89.66V94H359.172V89.73C359.172 88.876 358.71 88.344 357.912 88.344C357.142 88.344 356.722 88.876 356.442 89.352C356.456 89.45 356.456 89.548 356.456 89.66V94H354.664V89.73C354.664 88.876 354.202 88.344 353.404 88.344C352.592 88.344 352.172 88.946 351.906 89.394V94H350.128ZM369.49 92.852C368.832 93.734 367.74 94.28 366.41 94.28C363.904 94.28 362.49 92.53 362.49 90.472C362.49 88.386 363.806 86.664 366.116 86.664C368.076 86.664 369.364 87.994 369.364 89.842C369.364 90.234 369.308 90.598 369.252 90.836H364.31C364.478 92.152 365.29 92.684 366.396 92.684C367.166 92.684 367.838 92.348 368.216 91.844L369.49 92.852ZM366.074 88.12C365.164 88.12 364.562 88.624 364.366 89.548H367.614C367.586 88.834 367.068 88.12 366.074 88.12ZM371.101 94V86.944H372.879V87.504C373.369 87.028 374.027 86.664 374.965 86.664C376.491 86.664 377.709 87.714 377.709 89.8V94H375.917V89.87C375.917 88.932 375.385 88.344 374.517 88.344C373.621 88.344 373.145 88.946 372.879 89.394V94H371.101ZM380.176 91.424V88.54H378.86V86.944H380.176V85.18H381.968V86.944H384.124V88.54H381.968V91.424C381.968 92.208 382.388 92.516 383.088 92.516C383.578 92.516 383.9 92.46 384.138 92.362V93.916C383.788 94.07 383.368 94.14 382.78 94.14C381.016 94.14 380.176 93.146 380.176 91.424ZM387.704 94.21C386.29 94.21 385.324 93.398 385.324 92.096C385.324 91.032 386.15 90.234 387.662 89.982L389.818 89.618V89.436C389.818 88.694 389.258 88.218 388.446 88.218C387.76 88.218 387.228 88.54 386.85 89.058L385.548 88.064C386.178 87.196 387.214 86.664 388.502 86.664C390.546 86.664 391.596 87.882 391.596 89.436V94H389.818V93.314C389.37 93.86 388.53 94.21 387.704 94.21ZM387.088 92.012C387.088 92.488 387.466 92.796 388.068 92.796C388.88 92.796 389.468 92.418 389.818 91.858V90.864L388.138 91.144C387.396 91.27 387.088 91.578 387.088 92.012ZM394.528 85.712C393.898 85.712 393.366 85.18 393.366 84.55C393.366 83.92 393.898 83.388 394.528 83.388C395.158 83.388 395.676 83.92 395.676 84.55C395.676 85.18 395.158 85.712 394.528 85.712ZM393.632 94V86.944H395.41V94H393.632ZM397.543 94V86.944H399.321V87.644C399.783 87.168 400.385 86.804 401.183 86.804C401.421 86.804 401.631 86.846 401.799 86.902V88.652C401.575 88.596 401.337 88.554 401.015 88.554C400.147 88.554 399.587 89.03 399.321 89.478V94H397.543ZM409.425 92.852C408.767 93.734 407.675 94.28 406.345 94.28C403.839 94.28 402.425 92.53 402.425 90.472C402.425 88.386 403.741 86.664 406.051 86.664C408.011 86.664 409.299 87.994 409.299 89.842C409.299 90.234 409.243 90.598 409.187 90.836H404.245C404.413 92.152 405.225 92.684 406.331 92.684C407.101 92.684 407.773 92.348 408.151 91.844L409.425 92.852ZM406.009 88.12C405.099 88.12 404.497 88.624 404.301 89.548H407.549C407.521 88.834 407.003 88.12 406.009 88.12ZM410.325 92.978L411.501 91.914C411.935 92.46 412.453 92.852 413.125 92.852C413.699 92.852 413.993 92.516 413.993 92.096C413.993 90.864 410.619 91.326 410.619 88.848C410.619 87.602 411.669 86.664 413.139 86.664C414.217 86.664 415.197 87.182 415.701 87.868L414.525 88.904C414.161 88.456 413.699 88.092 413.153 88.092C412.593 88.092 412.327 88.4 412.327 88.764C412.327 89.968 415.701 89.548 415.701 91.984C415.673 93.468 414.483 94.28 413.153 94.28C411.893 94.28 410.997 93.776 410.325 92.978ZM332.046 116.21C330.632 116.21 329.666 115.398 329.666 114.096C329.666 113.032 330.492 112.234 332.004 111.982L334.16 111.618V111.436C334.16 110.694 333.6 110.218 332.788 110.218C332.102 110.218 331.57 110.54 331.192 111.058L329.89 110.064C330.52 109.196 331.556 108.664 332.844 108.664C334.888 108.664 335.938 109.882 335.938 111.436V116H334.16V115.314C333.712 115.86 332.872 116.21 332.046 116.21ZM331.43 114.012C331.43 114.488 331.808 114.796 332.41 114.796C333.222 114.796 333.81 114.418 334.16 113.858V112.864L332.48 113.144C331.738 113.27 331.43 113.578 331.43 114.012ZM342.622 112.948V108.944H344.414V112.864C344.414 114.978 343.182 116.28 341.11 116.28C339.038 116.28 337.82 114.978 337.82 112.864V108.944H339.612V112.948C339.612 113.97 340.144 114.6 341.124 114.6C342.09 114.6 342.622 113.97 342.622 112.948ZM353.544 114.6C354.244 114.6 354.804 114.278 355.14 113.788L356.526 114.852C355.868 115.72 354.832 116.28 353.544 116.28C351.108 116.28 349.652 114.53 349.652 112.472C349.652 110.414 351.108 108.664 353.544 108.664C354.832 108.664 355.868 109.224 356.526 110.092L355.14 111.156C354.804 110.666 354.244 110.344 353.516 110.344C352.354 110.344 351.5 111.24 351.5 112.472C351.5 113.718 352.354 114.6 353.544 114.6ZM357.853 116V105.5H359.631V109.504C360.121 109.028 360.779 108.664 361.717 108.664C363.243 108.664 364.461 109.714 364.461 111.8V116H362.669V111.87C362.669 110.932 362.151 110.344 361.269 110.344C360.373 110.344 359.897 110.946 359.631 111.394V116H357.853ZM369.84 108.664C372.136 108.664 373.704 110.358 373.704 112.472C373.704 114.586 372.136 116.28 369.84 116.28C367.544 116.28 365.976 114.586 365.976 112.472C365.976 110.358 367.544 108.664 369.84 108.664ZM369.868 114.6C371.002 114.6 371.856 113.69 371.856 112.472C371.856 111.24 371.002 110.344 369.868 110.344C368.692 110.344 367.824 111.24 367.824 112.472C367.824 113.704 368.692 114.6 369.868 114.6ZM376.222 107.712C375.592 107.712 375.06 107.18 375.06 106.55C375.06 105.92 375.592 105.388 376.222 105.388C376.852 105.388 377.37 105.92 377.37 106.55C377.37 107.18 376.852 107.712 376.222 107.712ZM375.326 116V108.944H377.104V116H375.326ZM380.51 116H378.466L380.958 112.374L378.606 108.944H380.636L382.092 111.114L383.548 108.944H385.592L383.226 112.374L385.718 116H383.688L382.092 113.634L380.51 116Z" fill="#161616"/>
<path d="M324.871 170V161.6H325.999V168.968H329.383V170H324.871ZM332.697 170.168C331.509 170.168 330.705 169.508 330.705 168.476C330.705 167.564 331.401 166.916 332.685 166.7L334.725 166.364V165.944C334.725 165.104 334.125 164.624 333.261 164.624C332.565 164.624 332.001 164.948 331.629 165.464L330.861 164.876C331.389 164.156 332.241 163.712 333.297 163.712C334.833 163.712 335.745 164.612 335.745 165.944V170H334.725V169.232C334.269 169.82 333.477 170.168 332.697 170.168ZM331.737 168.44C331.737 168.956 332.157 169.328 332.865 169.328C333.669 169.328 334.329 168.944 334.725 168.296V167.108L332.937 167.408C332.109 167.552 331.737 167.924 331.737 168.44ZM341.277 170V161.6H342.717L345.285 165.836L347.853 161.6H349.293V170H348.165V163.112L345.717 167.12H344.853L342.405 163.112V170H341.277ZM357.019 169.004C356.455 169.76 355.555 170.24 354.427 170.24C352.387 170.24 351.127 168.74 351.127 166.976C351.127 165.14 352.303 163.712 354.175 163.712C355.819 163.712 356.887 164.864 356.887 166.352C356.887 166.592 356.851 166.82 356.815 166.988H352.171C352.207 168.44 353.131 169.316 354.427 169.316C355.207 169.316 355.867 168.956 356.263 168.416L357.019 169.004ZM354.151 164.576C353.155 164.576 352.459 165.164 352.243 166.208H355.867C355.831 165.32 355.219 164.576 354.151 164.576ZM358.076 166.976C358.076 165.212 359.288 163.712 361.184 163.712C362.084 163.712 362.792 164.06 363.332 164.672V161H364.352V170H363.332V169.28C362.792 169.892 362.084 170.24 361.184 170.24C359.288 170.24 358.076 168.74 358.076 166.976ZM359.156 166.976C359.156 168.26 360.02 169.28 361.304 169.28C362.144 169.28 362.888 168.872 363.332 168.164V165.788C362.864 165.068 362.132 164.672 361.304 164.672C360.02 164.672 359.156 165.692 359.156 166.976ZM366.502 170V163.952H367.522V164.636C368.014 164.096 368.638 163.712 369.538 163.712C370.894 163.712 371.902 164.624 371.902 166.34V170H370.882V166.376C370.882 165.296 370.27 164.672 369.334 164.672C368.458 164.672 367.906 165.176 367.522 165.812V170H366.502ZM378.167 167.408V163.952H379.187V167.372C379.187 169.184 378.143 170.24 376.499 170.24C374.867 170.24 373.823 169.184 373.823 167.372V163.952H374.843V167.408C374.843 168.596 375.479 169.28 376.511 169.28C377.519 169.28 378.167 168.596 378.167 167.408ZM381.197 170V163.952H382.217V164.612C382.673 164.084 383.273 163.712 384.113 163.712C384.989 163.712 385.709 164.108 386.081 164.876C386.561 164.216 387.197 163.712 388.241 163.712C389.537 163.712 390.485 164.576 390.485 166.22V170H389.465V166.256C389.465 165.248 388.901 164.672 388.037 164.672C387.269 164.672 386.729 165.104 386.333 165.812C386.345 165.944 386.357 166.076 386.357 166.22V170H385.337V166.256C385.337 165.248 384.785 164.672 383.909 164.672C383.081 164.672 382.565 165.188 382.217 165.812V170H381.197Z" fill="#000091"/>
<rect x="471.5" y="39" width="110" height="144" rx="8" fill="#E8EDFF"/>
<path d="M501.808 73V63.2H505.042C507.198 63.2 508.514 64.306 508.514 66.126C508.514 67.932 507.198 69.038 505.042 69.038H503.796V73H501.808ZM505.126 64.852H503.796V67.386H505.126C505.966 67.386 506.47 66.896 506.47 66.098C506.47 65.356 505.966 64.852 505.126 64.852ZM511.635 73.21C510.221 73.21 509.255 72.398 509.255 71.096C509.255 70.032 510.081 69.234 511.593 68.982L513.749 68.618V68.436C513.749 67.694 513.189 67.218 512.377 67.218C511.691 67.218 511.159 67.54 510.781 68.058L509.479 67.064C510.109 66.196 511.145 65.664 512.433 65.664C514.477 65.664 515.527 66.882 515.527 68.436V73H513.749V72.314C513.301 72.86 512.461 73.21 511.635 73.21ZM511.019 71.012C511.019 71.488 511.397 71.796 511.999 71.796C512.811 71.796 513.399 71.418 513.749 70.858V69.864L512.069 70.144C511.327 70.27 511.019 70.578 511.019 71.012ZM516.947 71.978L518.123 70.914C518.557 71.46 519.075 71.852 519.747 71.852C520.321 71.852 520.615 71.516 520.615 71.096C520.615 69.864 517.241 70.326 517.241 67.848C517.241 66.602 518.291 65.664 519.761 65.664C520.839 65.664 521.819 66.182 522.323 66.868L521.147 67.904C520.783 67.456 520.321 67.092 519.775 67.092C519.215 67.092 518.949 67.4 518.949 67.764C518.949 68.968 522.323 68.548 522.323 70.984C522.295 72.468 521.105 73.28 519.775 73.28C518.515 73.28 517.619 72.776 516.947 71.978ZM523.25 71.978L524.426 70.914C524.86 71.46 525.378 71.852 526.05 71.852C526.624 71.852 526.918 71.516 526.918 71.096C526.918 69.864 523.544 70.326 523.544 67.848C523.544 66.602 524.594 65.664 526.064 65.664C527.142 65.664 528.122 66.182 528.626 66.868L527.45 67.904C527.086 67.456 526.624 67.092 526.078 67.092C525.518 67.092 525.252 67.4 525.252 67.764C525.252 68.968 528.626 68.548 528.626 70.984C528.598 72.468 527.408 73.28 526.078 73.28C524.818 73.28 523.922 72.776 523.25 71.978ZM532.198 73.21C530.784 73.21 529.818 72.398 529.818 71.096C529.818 70.032 530.644 69.234 532.156 68.982L534.312 68.618V68.436C534.312 67.694 533.752 67.218 532.94 67.218C532.254 67.218 531.722 67.54 531.344 68.058L530.042 67.064C530.672 66.196 531.708 65.664 532.996 65.664C535.04 65.664 536.09 66.882 536.09 68.436V73H534.312V72.314C533.864 72.86 533.024 73.21 532.198 73.21ZM531.582 71.012C531.582 71.488 531.96 71.796 532.562 71.796C533.374 71.796 533.962 71.418 534.312 70.858V69.864L532.632 70.144C531.89 70.27 531.582 70.578 531.582 71.012ZM537.426 74.232C537.426 73.532 537.776 72.972 538.406 72.51C538.126 72.23 537.972 71.852 537.972 71.488C537.972 70.928 538.21 70.48 538.742 70.088C538.126 69.626 537.79 68.926 537.79 68.142C537.79 66.77 538.854 65.664 540.618 65.664C541.164 65.664 541.64 65.762 542.046 65.944H544.622V67.456H543.376C543.446 67.68 543.474 67.904 543.474 68.142C543.474 69.528 542.438 70.648 540.618 70.648C540.38 70.648 540.156 70.634 539.946 70.592C539.792 70.732 539.708 70.886 539.708 71.04C539.708 71.32 539.862 71.46 540.184 71.46H541.962C543.74 71.46 544.706 72.412 544.706 73.728C544.706 75.296 543.208 76.5 541.01 76.5C538.756 76.5 537.426 75.716 537.426 74.232ZM540.646 69.304C541.388 69.304 541.864 68.842 541.864 68.142C541.864 67.442 541.388 66.994 540.646 66.994C539.876 66.994 539.414 67.456 539.414 68.142C539.414 68.842 539.876 69.304 540.646 69.304ZM539.106 73.98C539.106 74.652 539.75 75.072 540.996 75.072C542.284 75.072 542.942 74.596 542.942 73.896C542.942 73.364 542.62 72.986 541.766 72.986H539.582C539.316 73.238 539.106 73.546 539.106 73.98ZM552.086 71.852C551.428 72.734 550.336 73.28 549.006 73.28C546.5 73.28 545.086 71.53 545.086 69.472C545.086 67.386 546.402 65.664 548.712 65.664C550.672 65.664 551.96 66.994 551.96 68.842C551.96 69.234 551.904 69.598 551.848 69.836H546.906C547.074 71.152 547.886 71.684 548.992 71.684C549.762 71.684 550.434 71.348 550.812 70.844L552.086 71.852ZM548.67 67.12C547.76 67.12 547.158 67.624 546.962 68.548H550.21C550.182 67.834 549.664 67.12 548.67 67.12ZM498.568 93.472C498.568 91.414 499.926 89.664 502.152 89.664C503.104 89.664 503.79 89.958 504.336 90.504V86.5H506.128V97H504.336V96.44C503.79 96.986 503.104 97.28 502.152 97.28C499.926 97.28 498.568 95.53 498.568 93.472ZM500.43 93.472C500.43 94.704 501.2 95.6 502.404 95.6C503.202 95.6 503.86 95.264 504.336 94.62V92.324C503.86 91.68 503.202 91.344 502.404 91.344C501.2 91.344 500.43 92.24 500.43 93.472ZM512.907 93.948V89.944H514.699V93.864C514.699 95.978 513.467 97.28 511.395 97.28C509.323 97.28 508.105 95.978 508.105 93.864V89.944H509.897V93.948C509.897 94.97 510.429 95.6 511.409 95.6C512.375 95.6 512.907 94.97 512.907 93.948ZM525.187 95.418C526.307 95.418 527.189 94.872 527.749 94.074L529.317 95.278C528.421 96.496 526.965 97.28 525.187 97.28C522.093 97.28 519.979 94.9 519.979 92.1C519.979 89.3 522.093 86.92 525.187 86.92C526.965 86.92 528.421 87.718 529.317 88.908L527.749 90.126C527.189 89.328 526.307 88.782 525.187 88.782C523.339 88.782 522.023 90.224 522.023 92.1C522.023 93.976 523.339 95.418 525.187 95.418ZM535.482 95.418C536.602 95.418 537.484 94.872 538.044 94.074L539.612 95.278C538.716 96.496 537.26 97.28 535.482 97.28C532.388 97.28 530.274 94.9 530.274 92.1C530.274 89.3 532.388 86.92 535.482 86.92C537.26 86.92 538.716 87.718 539.612 88.908L538.044 90.126C537.484 89.328 536.602 88.782 535.482 88.782C533.634 88.782 532.318 90.224 532.318 92.1C532.318 93.976 533.634 95.418 535.482 95.418ZM541.477 97V87.2H544.711C546.867 87.2 548.183 88.306 548.183 90.126C548.183 91.932 546.867 93.038 544.711 93.038H543.465V97H541.477ZM544.795 88.852H543.465V91.386H544.795C545.635 91.386 546.139 90.896 546.139 90.098C546.139 89.356 545.635 88.852 544.795 88.852ZM551.521 96.986V89.132L549.491 90.28L548.553 88.936L551.577 87.186H553.411V96.986H551.521Z" fill="#161616"/>
<path d="M502.062 150V141.6H503.19V148.968H506.574V150H502.062ZM509.888 150.168C508.7 150.168 507.896 149.508 507.896 148.476C507.896 147.564 508.592 146.916 509.876 146.7L511.916 146.364V145.944C511.916 145.104 511.316 144.624 510.452 144.624C509.756 144.624 509.192 144.948 508.82 145.464L508.052 144.876C508.58 144.156 509.432 143.712 510.488 143.712C512.024 143.712 512.936 144.612 512.936 145.944V150H511.916V149.232C511.46 149.82 510.668 150.168 509.888 150.168ZM508.928 148.44C508.928 148.956 509.348 149.328 510.056 149.328C510.86 149.328 511.52 148.944 511.916 148.296V147.108L510.128 147.408C509.3 147.552 508.928 147.924 508.928 148.44ZM518.469 150V141.6H522.981V142.56H519.597V145.248H522.501V146.196H519.597V150H518.469ZM525.826 150.168C524.638 150.168 523.834 149.508 523.834 148.476C523.834 147.564 524.53 146.916 525.814 146.7L527.854 146.364V145.944C527.854 145.104 527.254 144.624 526.39 144.624C525.694 144.624 525.13 144.948 524.758 145.464L523.99 144.876C524.518 144.156 525.37 143.712 526.426 143.712C527.962 143.712 528.874 144.612 528.874 145.944V150H527.854V149.232C527.398 149.82 526.606 150.168 525.826 150.168ZM524.866 148.44C524.866 148.956 525.286 149.328 525.994 149.328C526.798 149.328 527.458 148.944 527.854 148.296V147.108L526.066 147.408C525.238 147.552 524.866 147.924 524.866 148.44ZM537.196 146.976C537.196 148.74 535.984 150.24 534.088 150.24C533.188 150.24 532.48 149.892 531.94 149.28V150H530.92V141H531.94V144.672C532.48 144.06 533.188 143.712 534.088 143.712C535.984 143.712 537.196 145.212 537.196 146.976ZM533.968 144.672C533.128 144.672 532.384 145.08 531.94 145.788V148.164C532.408 148.884 533.14 149.28 533.968 149.28C535.252 149.28 536.128 148.26 536.128 146.976C536.128 145.692 535.252 144.672 533.968 144.672ZM538.853 150V143.952H539.873V144.708C540.317 144.18 540.869 143.832 541.637 143.832C541.829 143.832 542.009 143.856 542.153 143.904V144.9C541.973 144.852 541.793 144.828 541.553 144.828C540.761 144.828 540.245 145.236 539.873 145.848V150H538.853ZM544.139 142.38C543.743 142.38 543.419 142.056 543.419 141.66C543.419 141.276 543.743 140.952 544.139 140.952C544.535 140.952 544.847 141.276 544.847 141.66C544.847 142.056 544.535 142.38 544.139 142.38ZM543.623 150V143.952H544.643V150H543.623ZM546.811 150V141H547.843V146.784L550.687 143.952H551.995L549.463 146.472L552.043 150H550.783L548.731 147.192L547.843 148.068V150H546.811ZM487.819 163.712C489.763 163.712 491.095 165.212 491.095 166.976C491.095 168.74 489.763 170.24 487.819 170.24C485.863 170.24 484.543 168.74 484.543 166.976C484.543 165.212 485.863 163.712 487.819 163.712ZM487.831 169.28C489.091 169.28 490.015 168.224 490.015 166.976C490.015 165.716 489.091 164.672 487.831 164.672C486.535 164.672 485.611 165.716 485.611 166.976C485.611 168.236 486.535 169.28 487.831 169.28ZM496.946 167.408V163.952H497.966V167.372C497.966 169.184 496.922 170.24 495.278 170.24C493.646 170.24 492.602 169.184 492.602 167.372V163.952H493.622V167.408C493.622 168.596 494.258 169.28 495.29 169.28C496.298 169.28 496.946 168.596 496.946 167.408ZM503.463 170V161.6H505.923C507.603 161.6 508.647 162.524 508.647 163.964C508.647 165.404 507.603 166.316 505.923 166.316H504.591V170H503.463ZM505.947 162.56H504.591V165.356H505.947C506.907 165.356 507.483 164.84 507.483 163.94C507.483 163.088 506.907 162.56 505.947 162.56ZM514.143 161.36C516.759 161.36 518.547 163.4 518.547 165.8C518.547 168.2 516.759 170.24 514.143 170.24C511.515 170.24 509.727 168.2 509.727 165.8C509.727 163.4 511.515 161.36 514.143 161.36ZM514.143 169.184C516.027 169.184 517.383 167.672 517.383 165.8C517.383 163.928 516.027 162.416 514.143 162.416C512.247 162.416 510.891 163.928 510.891 165.8C510.891 167.672 512.247 169.184 514.143 169.184ZM520.49 170V161.6H522.95C524.63 161.6 525.674 162.524 525.674 163.964C525.674 165.404 524.63 166.316 522.95 166.316H521.618V170H520.49ZM522.974 162.56H521.618V165.356H522.974C523.934 165.356 524.51 164.84 524.51 163.94C524.51 163.088 523.934 162.56 522.974 162.56ZM529.979 168.848L530.819 168.08C531.395 168.824 532.067 169.22 532.847 169.22C533.783 169.22 534.323 168.656 534.323 167.888C534.323 165.992 530.339 166.4 530.339 163.628C530.339 162.38 531.371 161.36 532.835 161.36C534.011 161.36 534.875 161.9 535.499 162.728L534.647 163.472C534.155 162.764 533.567 162.368 532.847 162.368C532.019 162.368 531.491 162.884 531.491 163.604C531.491 165.488 535.463 165.056 535.463 167.852C535.463 169.304 534.347 170.228 532.859 170.228C531.623 170.228 530.711 169.76 529.979 168.848ZM540.132 169.28C540.876 169.28 541.488 168.92 541.86 168.392L542.664 169.004C542.1 169.76 541.224 170.24 540.12 170.24C538.116 170.24 536.832 168.74 536.832 166.976C536.832 165.212 538.116 163.712 540.12 163.712C541.212 163.712 542.1 164.204 542.664 164.948L541.86 165.56C541.488 165.032 540.876 164.672 540.12 164.672C538.824 164.672 537.9 165.692 537.9 166.976C537.9 168.272 538.824 169.28 540.132 169.28ZM544.062 170V161H545.082V164.636C545.574 164.096 546.198 163.712 547.098 163.712C548.454 163.712 549.462 164.624 549.462 166.34V170H548.442V166.376C548.442 165.296 547.842 164.672 546.894 164.672C546.006 164.672 545.466 165.188 545.082 165.812V170H544.062ZM554.276 163.712C556.22 163.712 557.552 165.212 557.552 166.976C557.552 168.74 556.22 170.24 554.276 170.24C552.32 170.24 551 168.74 551 166.976C551 165.212 552.32 163.712 554.276 163.712ZM554.288 169.28C555.548 169.28 556.472 168.224 556.472 166.976C556.472 165.716 555.548 164.672 554.288 164.672C552.992 164.672 552.068 165.716 552.068 166.976C552.068 168.236 552.992 169.28 554.288 169.28ZM562.01 163.712C563.954 163.712 565.286 165.212 565.286 166.976C565.286 168.74 563.954 170.24 562.01 170.24C560.054 170.24 558.734 168.74 558.734 166.976C558.734 165.212 560.054 163.712 562.01 163.712ZM562.022 169.28C563.282 169.28 564.206 168.224 564.206 166.976C564.206 165.716 563.282 164.672 562.022 164.672C560.726 164.672 559.802 165.716 559.802 166.976C559.802 168.236 560.726 169.28 562.022 169.28ZM566.926 170V161H567.946V170H566.926Z" fill="#000091"/>
<rect x="613.5" y="39" width="164" height="144" rx="8" fill="#BAFAEE"/>
<path d="M635.664 71.642L637.106 70.312C637.694 71.068 638.478 71.516 639.276 71.516C640.06 71.516 640.536 71.096 640.536 70.396C640.536 68.59 636.084 69.08 636.084 65.762C636.084 64.208 637.372 62.92 639.248 62.92C640.718 62.92 641.838 63.578 642.678 64.572L641.222 65.888C640.648 65.146 640.004 64.656 639.262 64.656C638.562 64.656 638.1 65.104 638.1 65.692C638.1 67.47 642.552 66.966 642.552 70.326C642.524 72.174 641.096 73.28 639.29 73.28C637.638 73.28 636.532 72.678 635.664 71.642ZM649.02 69.948V65.944H650.812V69.864C650.812 71.978 649.58 73.28 647.508 73.28C645.436 73.28 644.218 71.978 644.218 69.864V65.944H646.01V69.948C646.01 70.97 646.542 71.6 647.522 71.6C648.488 71.6 649.02 70.97 649.02 69.948ZM653.676 64.712C653.046 64.712 652.514 64.18 652.514 63.55C652.514 62.92 653.046 62.388 653.676 62.388C654.306 62.388 654.824 62.92 654.824 63.55C654.824 64.18 654.306 64.712 653.676 64.712ZM652.78 73V65.944H654.558V73H652.78ZM655.682 65.944H657.586L659.42 70.984L661.24 65.944H663.158L660.582 73H658.244L655.682 65.944ZM665.174 64.712C664.544 64.712 664.012 64.18 664.012 63.55C664.012 62.92 664.544 62.388 665.174 62.388C665.804 62.388 666.322 62.92 666.322 63.55C666.322 64.18 665.804 64.712 665.174 64.712ZM664.278 73V65.944H666.056V73H664.278ZM671.457 69.472C671.457 67.414 672.815 65.664 675.041 65.664C675.993 65.664 676.679 65.958 677.225 66.504V62.5H679.017V73H677.225V72.44C676.679 72.986 675.993 73.28 675.041 73.28C672.815 73.28 671.457 71.53 671.457 69.472ZM673.319 69.472C673.319 70.704 674.089 71.6 675.293 71.6C676.091 71.6 676.749 71.264 677.225 70.62V68.324C676.749 67.68 676.091 67.344 675.293 67.344C674.089 67.344 673.319 68.24 673.319 69.472ZM682.098 67.232H680.446L681.706 63.2H683.722L682.098 67.232ZM689.406 69.948V65.944H691.198V69.864C691.198 71.978 689.966 73.28 687.894 73.28C685.822 73.28 684.604 71.978 684.604 69.864V65.944H686.396V69.948C686.396 70.97 686.928 71.6 687.908 71.6C688.874 71.6 689.406 70.97 689.406 69.948ZM693.167 73V65.944H694.945V66.504C695.435 66.028 696.093 65.664 697.031 65.664C698.557 65.664 699.775 66.714 699.775 68.8V73H697.983V68.87C697.983 67.932 697.451 67.344 696.583 67.344C695.687 67.344 695.211 67.946 694.945 68.394V73H693.167ZM705.567 73V65.944H707.345V66.476C707.821 66.014 708.423 65.664 709.291 65.664C710.187 65.664 710.971 66.056 711.433 66.812C711.937 66.196 712.609 65.664 713.799 65.664C715.255 65.664 716.403 66.672 716.403 68.66V73H714.611V68.73C714.611 67.876 714.149 67.344 713.351 67.344C712.581 67.344 712.161 67.876 711.881 68.352C711.895 68.45 711.895 68.548 711.895 68.66V73H710.103V68.73C710.103 67.876 709.641 67.344 708.843 67.344C708.031 67.344 707.611 67.946 707.345 68.394V73H705.567ZM721.792 65.664C724.088 65.664 725.656 67.358 725.656 69.472C725.656 71.586 724.088 73.28 721.792 73.28C719.496 73.28 717.928 71.586 717.928 69.472C717.928 67.358 719.496 65.664 721.792 65.664ZM721.82 71.6C722.954 71.6 723.808 70.69 723.808 69.472C723.808 68.24 722.954 67.344 721.82 67.344C720.644 67.344 719.776 68.24 719.776 69.472C719.776 70.704 720.644 71.6 721.82 71.6ZM726.842 69.472C726.842 67.414 728.2 65.664 730.426 65.664C731.378 65.664 732.064 65.958 732.61 66.504V62.5H734.402V73H732.61V72.44C732.064 72.986 731.378 73.28 730.426 73.28C728.2 73.28 726.842 71.53 726.842 69.472ZM728.704 69.472C728.704 70.704 729.474 71.6 730.678 71.6C731.476 71.6 732.134 71.264 732.61 70.62V68.324C732.134 67.68 731.476 67.344 730.678 67.344C729.474 67.344 728.704 68.24 728.704 69.472ZM741.182 69.948V65.944H742.974V69.864C742.974 71.978 741.742 73.28 739.67 73.28C737.598 73.28 736.38 71.978 736.38 69.864V65.944H738.172V69.948C738.172 70.97 738.704 71.6 739.684 71.6C740.65 71.6 741.182 70.97 741.182 69.948ZM744.942 73V62.5H746.72V73H744.942ZM755.348 71.852C754.69 72.734 753.598 73.28 752.268 73.28C749.762 73.28 748.348 71.53 748.348 69.472C748.348 67.386 749.664 65.664 751.974 65.664C753.934 65.664 755.222 66.994 755.222 68.842C755.222 69.234 755.166 69.598 755.11 69.836H750.168C750.336 71.152 751.148 71.684 752.254 71.684C753.024 71.684 753.696 71.348 754.074 70.844L755.348 71.852ZM751.932 67.12C751.022 67.12 750.42 67.624 750.224 68.548H753.472C753.444 67.834 752.926 67.12 751.932 67.12ZM642.813 100.444V89.944H644.591V90.518C645.137 89.972 645.823 89.664 646.789 89.664C649.029 89.664 650.373 91.414 650.373 93.472C650.373 95.53 649.029 97.28 646.789 97.28C645.823 97.28 645.137 96.972 644.591 96.426V100.444H642.813ZM646.537 91.344C645.711 91.344 645.039 91.708 644.591 92.366V94.578C645.067 95.25 645.725 95.6 646.537 95.6C647.741 95.6 648.525 94.704 648.525 93.472C648.525 92.24 647.741 91.344 646.537 91.344ZM653.824 97.21C652.41 97.21 651.444 96.398 651.444 95.096C651.444 94.032 652.27 93.234 653.782 92.982L655.938 92.618V92.436C655.938 91.694 655.378 91.218 654.566 91.218C653.88 91.218 653.348 91.54 652.97 92.058L651.668 91.064C652.298 90.196 653.334 89.664 654.622 89.664C656.666 89.664 657.716 90.882 657.716 92.436V97H655.938V96.314C655.49 96.86 654.65 97.21 653.824 97.21ZM653.208 95.012C653.208 95.488 653.586 95.796 654.188 95.796C655 95.796 655.588 95.418 655.938 94.858V93.864L654.258 94.144C653.516 94.27 653.208 94.578 653.208 95.012ZM659.752 97V89.944H661.53V90.644C661.992 90.168 662.594 89.804 663.392 89.804C663.63 89.804 663.84 89.846 664.008 89.902V91.652C663.784 91.596 663.546 91.554 663.224 91.554C662.356 91.554 661.796 92.03 661.53 92.478V97H659.752ZM671.201 97.21C669.787 97.21 668.821 96.398 668.821 95.096C668.821 94.032 669.647 93.234 671.159 92.982L673.315 92.618V92.436C673.315 91.694 672.755 91.218 671.943 91.218C671.257 91.218 670.725 91.54 670.347 92.058L669.045 91.064C669.675 90.196 670.711 89.664 671.999 89.664C674.043 89.664 675.093 90.882 675.093 92.436V97H673.315V96.314C672.867 96.86 672.027 97.21 671.201 97.21ZM670.585 95.012C670.585 95.488 670.963 95.796 671.565 95.796C672.377 95.796 672.965 95.418 673.315 94.858V93.864L671.635 94.144C670.893 94.27 670.585 94.578 670.585 95.012ZM677.129 97V89.944H678.907V90.504C679.397 90.028 680.055 89.664 680.993 89.664C682.519 89.664 683.737 90.714 683.737 92.8V97H681.945V92.87C681.945 91.932 681.413 91.344 680.545 91.344C679.649 91.344 679.173 91.946 678.907 92.394V97H677.129ZM686.596 99.24H684.944L686.218 95.054H688.22L686.596 99.24ZM695.291 97.21C693.877 97.21 692.911 96.398 692.911 95.096C692.911 94.032 693.737 93.234 695.249 92.982L697.405 92.618V92.436C697.405 91.694 696.845 91.218 696.033 91.218C695.347 91.218 694.815 91.54 694.437 92.058L693.135 91.064C693.765 90.196 694.801 89.664 696.089 89.664C698.133 89.664 699.183 90.882 699.183 92.436V97H697.405V96.314C696.957 96.86 696.117 97.21 695.291 97.21ZM694.675 95.012C694.675 95.488 695.053 95.796 695.655 95.796C696.467 95.796 697.055 95.418 697.405 94.858V93.864L695.725 94.144C694.983 94.27 694.675 94.578 694.675 95.012ZM705.867 93.948V89.944H707.659V93.864C707.659 95.978 706.427 97.28 704.355 97.28C702.283 97.28 701.065 95.978 701.065 93.864V89.944H702.857V93.948C702.857 94.97 703.389 95.6 704.369 95.6C705.335 95.6 705.867 94.97 705.867 93.948ZM716.789 95.6C717.489 95.6 718.049 95.278 718.385 94.788L719.771 95.852C719.113 96.72 718.077 97.28 716.789 97.28C714.353 97.28 712.897 95.53 712.897 93.472C712.897 91.414 714.353 89.664 716.789 89.664C718.077 89.664 719.113 90.224 719.771 91.092L718.385 92.156C718.049 91.666 717.489 91.344 716.761 91.344C715.599 91.344 714.745 92.24 714.745 93.472C714.745 94.718 715.599 95.6 716.789 95.6ZM721.098 97V86.5H722.876V90.504C723.366 90.028 724.024 89.664 724.962 89.664C726.488 89.664 727.706 90.714 727.706 92.8V97H725.914V92.87C725.914 91.932 725.396 91.344 724.514 91.344C723.618 91.344 723.142 91.946 722.876 92.394V97H721.098ZM733.085 89.664C735.381 89.664 736.949 91.358 736.949 93.472C736.949 95.586 735.381 97.28 733.085 97.28C730.789 97.28 729.221 95.586 729.221 93.472C729.221 91.358 730.789 89.664 733.085 89.664ZM733.113 95.6C734.247 95.6 735.101 94.69 735.101 93.472C735.101 92.24 734.247 91.344 733.113 91.344C731.937 91.344 731.069 92.24 731.069 93.472C731.069 94.704 731.937 95.6 733.113 95.6ZM739.467 88.712C738.837 88.712 738.305 88.18 738.305 87.55C738.305 86.92 738.837 86.388 739.467 86.388C740.097 86.388 740.615 86.92 740.615 87.55C740.615 88.18 740.097 88.712 739.467 88.712ZM738.571 97V89.944H740.349V97H738.571ZM743.755 97H741.711L744.203 93.374L741.851 89.944H743.881L745.337 92.114L746.793 89.944H748.837L746.471 93.374L748.963 97H746.933L745.337 94.634L743.755 97Z" fill="#161616"/>
<path d="M662.871 170V161.6H663.999V168.968H667.383V170H662.871ZM670.697 170.168C669.509 170.168 668.705 169.508 668.705 168.476C668.705 167.564 669.401 166.916 670.685 166.7L672.725 166.364V165.944C672.725 165.104 672.125 164.624 671.261 164.624C670.565 164.624 670.001 164.948 669.629 165.464L668.861 164.876C669.389 164.156 670.241 163.712 671.297 163.712C672.833 163.712 673.745 164.612 673.745 165.944V170H672.725V169.232C672.269 169.82 671.477 170.168 670.697 170.168ZM669.737 168.44C669.737 168.956 670.157 169.328 670.865 169.328C671.669 169.328 672.329 168.944 672.725 168.296V167.108L670.937 167.408C670.109 167.552 669.737 167.924 669.737 168.44ZM679.277 170V161.6H680.717L683.285 165.836L685.853 161.6H687.293V170H686.165V163.112L683.717 167.12H682.853L680.405 163.112V170H679.277ZM695.019 169.004C694.455 169.76 693.555 170.24 692.427 170.24C690.387 170.24 689.127 168.74 689.127 166.976C689.127 165.14 690.303 163.712 692.175 163.712C693.819 163.712 694.887 164.864 694.887 166.352C694.887 166.592 694.851 166.82 694.815 166.988H690.171C690.207 168.44 691.131 169.316 692.427 169.316C693.207 169.316 693.867 168.956 694.263 168.416L695.019 169.004ZM692.151 164.576C691.155 164.576 690.459 165.164 690.243 166.208H693.867C693.831 165.32 693.219 164.576 692.151 164.576ZM696.076 166.976C696.076 165.212 697.288 163.712 699.184 163.712C700.084 163.712 700.792 164.06 701.332 164.672V161H702.352V170H701.332V169.28C700.792 169.892 700.084 170.24 699.184 170.24C697.288 170.24 696.076 168.74 696.076 166.976ZM697.156 166.976C697.156 168.26 698.02 169.28 699.304 169.28C700.144 169.28 700.888 168.872 701.332 168.164V165.788C700.864 165.068 700.132 164.672 699.304 164.672C698.02 164.672 697.156 165.692 697.156 166.976ZM704.502 170V163.952H705.522V164.636C706.014 164.096 706.638 163.712 707.538 163.712C708.894 163.712 709.902 164.624 709.902 166.34V170H708.882V166.376C708.882 165.296 708.27 164.672 707.334 164.672C706.458 164.672 705.906 165.176 705.522 165.812V170H704.502ZM716.167 167.408V163.952H717.187V167.372C717.187 169.184 716.143 170.24 714.499 170.24C712.867 170.24 711.823 169.184 711.823 167.372V163.952H712.843V167.408C712.843 168.596 713.479 169.28 714.511 169.28C715.519 169.28 716.167 168.596 716.167 167.408ZM719.197 170V163.952H720.217V164.612C720.673 164.084 721.273 163.712 722.113 163.712C722.989 163.712 723.709 164.108 724.081 164.876C724.561 164.216 725.197 163.712 726.241 163.712C727.537 163.712 728.485 164.576 728.485 166.22V170H727.465V166.256C727.465 165.248 726.901 164.672 726.037 164.672C725.269 164.672 724.729 165.104 724.333 165.812C724.345 165.944 724.357 166.076 724.357 166.22V170H723.337V166.256C723.337 165.248 722.785 164.672 721.909 164.672C721.081 164.672 720.565 165.188 720.217 165.812V170H719.197Z" fill="#000091"/>
<rect x="809.5" y="39" width="164" height="144" rx="8" fill="#E8EDFF"/>
<path d="M853.266 72V62.2H856.5C858.656 62.2 859.972 63.306 859.972 65.126C859.972 66.932 858.656 68.038 856.5 68.038H855.254V72H853.266ZM856.584 63.852H855.254V66.386H856.584C857.424 66.386 857.928 65.896 857.928 65.098C857.928 64.356 857.424 63.852 856.584 63.852ZM863.093 72.21C861.679 72.21 860.713 71.398 860.713 70.096C860.713 69.032 861.539 68.234 863.051 67.982L865.207 67.618V67.436C865.207 66.694 864.647 66.218 863.835 66.218C863.149 66.218 862.617 66.54 862.239 67.058L860.937 66.064C861.567 65.196 862.603 64.664 863.891 64.664C865.935 64.664 866.985 65.882 866.985 67.436V72H865.207V71.314C864.759 71.86 863.919 72.21 863.093 72.21ZM862.477 70.012C862.477 70.488 862.855 70.796 863.457 70.796C864.269 70.796 864.857 70.418 865.207 69.858V68.864L863.527 69.144C862.785 69.27 862.477 69.578 862.477 70.012ZM869.021 72V64.944H870.799V65.644C871.261 65.168 871.863 64.804 872.661 64.804C872.899 64.804 873.109 64.846 873.277 64.902V66.652C873.053 66.596 872.815 66.554 872.493 66.554C871.625 66.554 871.065 67.03 870.799 67.478V72H869.021ZM877.796 70.6C878.496 70.6 879.056 70.278 879.392 69.788L880.778 70.852C880.12 71.72 879.084 72.28 877.796 72.28C875.36 72.28 873.904 70.53 873.904 68.472C873.904 66.414 875.36 64.664 877.796 64.664C879.084 64.664 880.12 65.224 880.778 66.092L879.392 67.156C879.056 66.666 878.496 66.344 877.768 66.344C876.606 66.344 875.752 67.24 875.752 68.472C875.752 69.718 876.606 70.6 877.796 70.6ZM885.192 64.664C887.488 64.664 889.056 66.358 889.056 68.472C889.056 70.586 887.488 72.28 885.192 72.28C882.896 72.28 881.328 70.586 881.328 68.472C881.328 66.358 882.896 64.664 885.192 64.664ZM885.22 70.6C886.354 70.6 887.208 69.69 887.208 68.472C887.208 67.24 886.354 66.344 885.22 66.344C884.044 66.344 883.176 67.24 883.176 68.472C883.176 69.704 884.044 70.6 885.22 70.6ZM895.325 68.948V64.944H897.117V68.864C897.117 70.978 895.885 72.28 893.813 72.28C891.741 72.28 890.523 70.978 890.523 68.864V64.944H892.315V68.948C892.315 69.97 892.847 70.6 893.827 70.6C894.793 70.6 895.325 69.97 895.325 68.948ZM899.085 72V64.944H900.863V65.644C901.325 65.168 901.927 64.804 902.725 64.804C902.963 64.804 903.173 64.846 903.341 64.902V66.652C903.117 66.596 902.879 66.554 902.557 66.554C901.689 66.554 901.129 67.03 900.863 67.478V72H899.085ZM904.157 70.978L905.333 69.914C905.767 70.46 906.285 70.852 906.957 70.852C907.531 70.852 907.825 70.516 907.825 70.096C907.825 68.864 904.451 69.326 904.451 66.848C904.451 65.602 905.501 64.664 906.971 64.664C908.049 64.664 909.029 65.182 909.533 65.868L908.357 66.904C907.993 66.456 907.531 66.092 906.985 66.092C906.425 66.092 906.159 66.4 906.159 66.764C906.159 67.968 909.533 67.548 909.533 69.984C909.505 71.468 908.315 72.28 906.985 72.28C905.725 72.28 904.829 71.776 904.157 70.978ZM914.441 68.472C914.441 66.414 915.799 64.664 918.025 64.664C918.977 64.664 919.663 64.958 920.209 65.504V61.5H922.001V72H920.209V71.44C919.663 71.986 918.977 72.28 918.025 72.28C915.799 72.28 914.441 70.53 914.441 68.472ZM916.303 68.472C916.303 69.704 917.073 70.6 918.277 70.6C919.075 70.6 919.733 70.264 920.209 69.62V67.324C919.733 66.68 919.075 66.344 918.277 66.344C917.073 66.344 916.303 67.24 916.303 68.472ZM930.628 70.852C929.97 71.734 928.878 72.28 927.548 72.28C925.042 72.28 923.628 70.53 923.628 68.472C923.628 66.386 924.944 64.664 927.254 64.664C929.214 64.664 930.502 65.994 930.502 67.842C930.502 68.234 930.446 68.598 930.39 68.836H925.448C925.616 70.152 926.428 70.684 927.534 70.684C928.304 70.684 928.976 70.348 929.354 69.844L930.628 70.852ZM927.212 66.12C926.302 66.12 925.7 66.624 925.504 67.548H928.752C928.724 66.834 928.206 66.12 927.212 66.12ZM830.815 86.944H832.131V86.202C832.131 84.704 833.125 83.5 834.889 83.5C835.533 83.5 836.079 83.654 836.527 83.892L835.771 85.376C835.561 85.222 835.281 85.096 834.917 85.096C834.315 85.096 833.923 85.516 833.923 86.16V86.944H836.079V88.54H833.923V94H832.131V88.54H830.815V86.944ZM840.389 86.664C842.685 86.664 844.253 88.358 844.253 90.472C844.253 92.586 842.685 94.28 840.389 94.28C838.093 94.28 836.525 92.586 836.525 90.472C836.525 88.358 838.093 86.664 840.389 86.664ZM840.417 92.6C841.551 92.6 842.405 91.69 842.405 90.472C842.405 89.24 841.551 88.344 840.417 88.344C839.241 88.344 838.373 89.24 838.373 90.472C838.373 91.704 839.241 92.6 840.417 92.6ZM845.875 94V86.944H847.653V87.644C848.115 87.168 848.717 86.804 849.515 86.804C849.753 86.804 849.963 86.846 850.131 86.902V88.652C849.907 88.596 849.669 88.554 849.347 88.554C848.479 88.554 847.919 89.03 847.653 89.478V94H845.875ZM851.562 94V86.944H853.34V87.476C853.816 87.014 854.418 86.664 855.286 86.664C856.182 86.664 856.966 87.056 857.428 87.812C857.932 87.196 858.604 86.664 859.794 86.664C861.25 86.664 862.398 87.672 862.398 89.66V94H860.606V89.73C860.606 88.876 860.144 88.344 859.346 88.344C858.576 88.344 858.156 88.876 857.876 89.352C857.89 89.45 857.89 89.548 857.89 89.66V94H856.098V89.73C856.098 88.876 855.636 88.344 854.838 88.344C854.026 88.344 853.606 88.946 853.34 89.394V94H851.562ZM866.415 94.21C865.001 94.21 864.035 93.398 864.035 92.096C864.035 91.032 864.861 90.234 866.373 89.982L868.529 89.618V89.436C868.529 88.694 867.969 88.218 867.157 88.218C866.471 88.218 865.939 88.54 865.561 89.058L864.259 88.064C864.889 87.196 865.925 86.664 867.213 86.664C869.257 86.664 870.307 87.882 870.307 89.436V94H868.529V93.314C868.081 93.86 867.241 94.21 866.415 94.21ZM865.799 92.012C865.799 92.488 866.177 92.796 866.779 92.796C867.591 92.796 868.179 92.418 868.529 91.858V90.864L866.849 91.144C866.107 91.27 865.799 91.578 865.799 92.012ZM872.791 91.424V88.54H871.475V86.944H872.791V85.18H874.583V86.944H876.739V88.54H874.583V91.424C874.583 92.208 875.003 92.516 875.703 92.516C876.193 92.516 876.515 92.46 876.753 92.362V93.916C876.403 94.07 875.983 94.14 875.395 94.14C873.631 94.14 872.791 93.146 872.791 91.424ZM879.228 85.712C878.598 85.712 878.066 85.18 878.066 84.55C878.066 83.92 878.598 83.388 879.228 83.388C879.858 83.388 880.376 83.92 880.376 84.55C880.376 85.18 879.858 85.712 879.228 85.712ZM878.332 94V86.944H880.11V94H878.332ZM885.602 86.664C887.898 86.664 889.466 88.358 889.466 90.472C889.466 92.586 887.898 94.28 885.602 94.28C883.306 94.28 881.738 92.586 881.738 90.472C881.738 88.358 883.306 86.664 885.602 86.664ZM885.63 92.6C886.764 92.6 887.618 91.69 887.618 90.472C887.618 89.24 886.764 88.344 885.63 88.344C884.454 88.344 883.586 89.24 883.586 90.472C883.586 91.704 884.454 92.6 885.63 92.6ZM891.087 94V86.944H892.865V87.504C893.355 87.028 894.013 86.664 894.951 86.664C896.477 86.664 897.695 87.714 897.695 89.8V94H895.903V89.87C895.903 88.932 895.371 88.344 894.503 88.344C893.607 88.344 893.131 88.946 892.865 89.394V94H891.087ZM902.984 90.472C902.984 88.414 904.342 86.664 906.568 86.664C907.52 86.664 908.206 86.958 908.752 87.504V83.5H910.544V94H908.752V93.44C908.206 93.986 907.52 94.28 906.568 94.28C904.342 94.28 902.984 92.53 902.984 90.472ZM904.846 90.472C904.846 91.704 905.616 92.6 906.82 92.6C907.618 92.6 908.276 92.264 908.752 91.62V89.324C908.276 88.68 907.618 88.344 906.82 88.344C905.616 88.344 904.846 89.24 904.846 90.472ZM919.171 92.852C918.513 93.734 917.421 94.28 916.091 94.28C913.585 94.28 912.171 92.53 912.171 90.472C912.171 88.386 913.487 86.664 915.797 86.664C917.757 86.664 919.045 87.994 919.045 89.842C919.045 90.234 918.989 90.598 918.933 90.836H913.991C914.159 92.152 914.971 92.684 916.077 92.684C916.847 92.684 917.519 92.348 917.897 91.844L919.171 92.852ZM915.755 88.12C914.845 88.12 914.243 88.624 914.047 89.548H917.295C917.267 88.834 916.749 88.12 915.755 88.12ZM926.642 94H924.458L929.386 85.908H924.332V84.2H931.388V85.908L926.642 94ZM935.786 83.92C938.362 83.92 939.566 86.16 939.566 89.1C939.566 92.04 938.362 94.28 935.786 94.28C933.21 94.28 932.006 92.04 932.006 89.1C932.006 86.16 933.21 83.92 935.786 83.92ZM935.786 85.67C934.54 85.67 933.938 87.042 933.938 89.1C933.938 91.172 934.54 92.53 935.786 92.53C937.018 92.53 937.62 91.158 937.62 89.1C937.62 87.028 937.018 85.67 935.786 85.67ZM941.044 94V83.5H942.822V87.504C943.312 87.028 943.97 86.664 944.908 86.664C946.434 86.664 947.652 87.714 947.652 89.8V94H945.86V89.87C945.86 88.932 945.342 88.344 944.46 88.344C943.564 88.344 943.088 88.946 942.822 89.394V94H941.044ZM950.511 96.24H948.859L950.133 92.054H952.135L950.511 96.24ZM832.252 114.852C831.594 115.734 830.502 116.28 829.172 116.28C826.666 116.28 825.252 114.53 825.252 112.472C825.252 110.386 826.568 108.664 828.878 108.664C830.838 108.664 832.126 109.994 832.126 111.842C832.126 112.234 832.07 112.598 832.014 112.836H827.072C827.24 114.152 828.052 114.684 829.158 114.684C829.928 114.684 830.6 114.348 830.978 113.844L832.252 114.852ZM828.836 110.12C827.926 110.12 827.324 110.624 827.128 111.548H830.376C830.348 110.834 829.83 110.12 828.836 110.12ZM834.298 113.424V110.54H832.982V108.944H834.298V107.18H836.09V108.944H838.246V110.54H836.09V113.424C836.09 114.208 836.51 114.516 837.21 114.516C837.7 114.516 838.022 114.46 838.26 114.362V115.916C837.91 116.07 837.49 116.14 836.902 116.14C835.138 116.14 834.298 115.146 834.298 113.424ZM843.612 119.444V108.944H845.39V109.518C845.936 108.972 846.622 108.664 847.588 108.664C849.828 108.664 851.172 110.414 851.172 112.472C851.172 114.53 849.828 116.28 847.588 116.28C846.622 116.28 845.936 115.972 845.39 115.426V119.444H843.612ZM847.336 110.344C846.51 110.344 845.838 110.708 845.39 111.366V113.578C845.866 114.25 846.524 114.6 847.336 114.6C848.54 114.6 849.324 113.704 849.324 112.472C849.324 111.24 848.54 110.344 847.336 110.344ZM854.623 116.21C853.209 116.21 852.243 115.398 852.243 114.096C852.243 113.032 853.069 112.234 854.581 111.982L856.737 111.618V111.436C856.737 110.694 856.177 110.218 855.365 110.218C854.679 110.218 854.147 110.54 853.769 111.058L852.467 110.064C853.097 109.196 854.133 108.664 855.421 108.664C857.465 108.664 858.515 109.882 858.515 111.436V116H856.737V115.314C856.289 115.86 855.449 116.21 854.623 116.21ZM854.007 114.012C854.007 114.488 854.385 114.796 854.987 114.796C855.799 114.796 856.387 114.418 856.737 113.858V112.864L855.057 113.144C854.315 113.27 854.007 113.578 854.007 114.012ZM859.935 114.978L861.111 113.914C861.545 114.46 862.063 114.852 862.735 114.852C863.309 114.852 863.603 114.516 863.603 114.096C863.603 112.864 860.229 113.326 860.229 110.848C860.229 109.602 861.279 108.664 862.749 108.664C863.827 108.664 864.807 109.182 865.311 109.868L864.135 110.904C863.771 110.456 863.309 110.092 862.763 110.092C862.203 110.092 861.937 110.4 861.937 110.764C861.937 111.968 865.311 111.548 865.311 113.984C865.283 115.468 864.093 116.28 862.763 116.28C861.503 116.28 860.607 115.776 859.935 114.978ZM866.238 114.978L867.414 113.914C867.848 114.46 868.366 114.852 869.038 114.852C869.612 114.852 869.906 114.516 869.906 114.096C869.906 112.864 866.532 113.326 866.532 110.848C866.532 109.602 867.582 108.664 869.052 108.664C870.13 108.664 871.11 109.182 871.614 109.868L870.438 110.904C870.074 110.456 869.612 110.092 869.066 110.092C868.506 110.092 868.24 110.4 868.24 110.764C868.24 111.968 871.614 111.548 871.614 113.984C871.586 115.468 870.396 116.28 869.066 116.28C867.806 116.28 866.91 115.776 866.238 114.978ZM875.186 116.21C873.772 116.21 872.806 115.398 872.806 114.096C872.806 113.032 873.632 112.234 875.144 111.982L877.3 111.618V111.436C877.3 110.694 876.74 110.218 875.928 110.218C875.242 110.218 874.71 110.54 874.332 111.058L873.03 110.064C873.66 109.196 874.696 108.664 875.984 108.664C878.028 108.664 879.078 109.882 879.078 111.436V116H877.3V115.314C876.852 115.86 876.012 116.21 875.186 116.21ZM874.57 114.012C874.57 114.488 874.948 114.796 875.55 114.796C876.362 114.796 876.95 114.418 877.3 113.858V112.864L875.62 113.144C874.878 113.27 874.57 113.578 874.57 114.012ZM880.414 117.232C880.414 116.532 880.764 115.972 881.394 115.51C881.114 115.23 880.96 114.852 880.96 114.488C880.96 113.928 881.198 113.48 881.73 113.088C881.114 112.626 880.778 111.926 880.778 111.142C880.778 109.77 881.842 108.664 883.606 108.664C884.152 108.664 884.628 108.762 885.034 108.944H887.61V110.456H886.364C886.434 110.68 886.462 110.904 886.462 111.142C886.462 112.528 885.426 113.648 883.606 113.648C883.368 113.648 883.144 113.634 882.934 113.592C882.78 113.732 882.696 113.886 882.696 114.04C882.696 114.32 882.85 114.46 883.172 114.46H884.95C886.728 114.46 887.694 115.412 887.694 116.728C887.694 118.296 886.196 119.5 883.998 119.5C881.744 119.5 880.414 118.716 880.414 117.232ZM883.634 112.304C884.376 112.304 884.852 111.842 884.852 111.142C884.852 110.442 884.376 109.994 883.634 109.994C882.864 109.994 882.402 110.456 882.402 111.142C882.402 111.842 882.864 112.304 883.634 112.304ZM882.094 116.98C882.094 117.652 882.738 118.072 883.984 118.072C885.272 118.072 885.93 117.596 885.93 116.896C885.93 116.364 885.608 115.986 884.754 115.986H882.57C882.304 116.238 882.094 116.546 882.094 116.98ZM895.075 114.852C894.417 115.734 893.325 116.28 891.995 116.28C889.489 116.28 888.075 114.53 888.075 112.472C888.075 110.386 889.391 108.664 891.701 108.664C893.661 108.664 894.949 109.994 894.949 111.842C894.949 112.234 894.893 112.598 894.837 112.836H889.895C890.063 114.152 890.875 114.684 891.981 114.684C892.751 114.684 893.423 114.348 893.801 113.844L895.075 114.852ZM891.659 110.12C890.749 110.12 890.147 110.624 889.951 111.548H893.199C893.171 110.834 892.653 110.12 891.659 110.12ZM899.956 112.472C899.956 110.414 901.314 108.664 903.54 108.664C904.492 108.664 905.178 108.958 905.724 109.504V105.5H907.516V116H905.724V115.44C905.178 115.986 904.492 116.28 903.54 116.28C901.314 116.28 899.956 114.53 899.956 112.472ZM901.818 112.472C901.818 113.704 902.588 114.6 903.792 114.6C904.59 114.6 905.248 114.264 905.724 113.62V111.324C905.248 110.68 904.59 110.344 903.792 110.344C902.588 110.344 901.818 111.24 901.818 112.472ZM914.295 112.948V108.944H916.087V112.864C916.087 114.978 914.855 116.28 912.783 116.28C910.711 116.28 909.493 114.978 909.493 112.864V108.944H911.285V112.948C911.285 113.97 911.817 114.6 912.797 114.6C913.763 114.6 914.295 113.97 914.295 112.948ZM926.575 114.418C927.695 114.418 928.577 113.872 929.137 113.074L930.705 114.278C929.809 115.496 928.353 116.28 926.575 116.28C923.481 116.28 921.367 113.9 921.367 111.1C921.367 108.3 923.481 105.92 926.575 105.92C928.353 105.92 929.809 106.718 930.705 107.908L929.137 109.126C928.577 108.328 927.695 107.782 926.575 107.782C924.727 107.782 923.411 109.224 923.411 111.1C923.411 112.976 924.727 114.418 926.575 114.418ZM936.87 114.418C937.99 114.418 938.872 113.872 939.432 113.074L941 114.278C940.104 115.496 938.648 116.28 936.87 116.28C933.776 116.28 931.662 113.9 931.662 111.1C931.662 108.3 933.776 105.92 936.87 105.92C938.648 105.92 940.104 106.718 941 107.908L939.432 109.126C938.872 108.328 937.99 107.782 936.87 107.782C935.022 107.782 933.706 109.224 933.706 111.1C933.706 112.976 935.022 114.418 936.87 114.418ZM942.865 116V106.2H946.099C948.255 106.2 949.571 107.306 949.571 109.126C949.571 110.932 948.255 112.038 946.099 112.038H944.853V116H942.865ZM946.183 107.852H944.853V110.386H946.183C947.023 110.386 947.527 109.896 947.527 109.098C947.527 108.356 947.023 107.852 946.183 107.852ZM950.725 116V114.292L954.085 110.988C954.841 110.218 955.317 109.686 955.317 108.888C955.317 108.076 954.757 107.6 953.987 107.6C953.049 107.6 952.475 108.174 951.957 109.042L950.417 108.104C951.243 106.76 952.461 105.92 954.169 105.92C955.877 105.92 957.249 107.012 957.249 108.692C957.249 110.036 956.367 111.072 955.401 112.01L953.035 114.292H957.501V116H950.725ZM871.361 136.852C870.703 137.734 869.611 138.28 868.281 138.28C865.775 138.28 864.361 136.53 864.361 134.472C864.361 132.386 865.677 130.664 867.987 130.664C869.947 130.664 871.235 131.994 871.235 133.842C871.235 134.234 871.179 134.598 871.123 134.836H866.181C866.349 136.152 867.161 136.684 868.267 136.684C869.037 136.684 869.709 136.348 870.087 135.844L871.361 136.852ZM867.945 132.12C867.035 132.12 866.433 132.624 866.237 133.548H869.485C869.457 132.834 868.939 132.12 867.945 132.12ZM873.407 135.424V132.54H872.091V130.944H873.407V129.18H875.199V130.944H877.355V132.54H875.199V135.424C875.199 136.208 875.619 136.516 876.319 136.516C876.809 136.516 877.131 136.46 877.369 136.362V137.916C877.019 138.07 876.599 138.14 876.011 138.14C874.247 138.14 873.407 137.146 873.407 135.424ZM887.466 136.418C888.586 136.418 889.468 135.872 890.028 135.074L891.596 136.278C890.7 137.496 889.244 138.28 887.466 138.28C884.372 138.28 882.258 135.9 882.258 133.1C882.258 130.3 884.372 127.92 887.466 127.92C889.244 127.92 890.7 128.718 891.596 129.908L890.028 131.126C889.468 130.328 888.586 129.782 887.466 129.782C885.618 129.782 884.302 131.224 884.302 133.1C884.302 134.976 885.618 136.418 887.466 136.418ZM897.761 136.418C898.881 136.418 899.763 135.872 900.323 135.074L901.891 136.278C900.995 137.496 899.539 138.28 897.761 138.28C894.667 138.28 892.553 135.9 892.553 133.1C892.553 130.3 894.667 127.92 897.761 127.92C899.539 127.92 900.995 128.718 901.891 129.908L900.323 131.126C899.763 130.328 898.881 129.782 897.761 129.782C895.913 129.782 894.597 131.224 894.597 133.1C894.597 134.976 895.913 136.418 897.761 136.418ZM903.756 138V128.2H906.99C909.146 128.2 910.462 129.306 910.462 131.126C910.462 132.932 909.146 134.038 906.99 134.038H905.744V138H903.756ZM907.074 129.852H905.744V132.386H907.074C907.914 132.386 908.418 131.896 908.418 131.098C908.418 130.356 907.914 129.852 907.074 129.852ZM918.519 135.2C918.519 137.062 916.993 138.28 914.949 138.28C913.101 138.28 911.911 137.468 911.113 136.068L912.765 135.046C913.311 136.124 913.969 136.6 914.935 136.6C915.887 136.6 916.601 136.026 916.601 135.116C916.601 134.22 915.901 133.66 914.865 133.66H913.255V131.98H914.739C915.565 131.98 916.167 131.518 916.167 130.762C916.167 130.02 915.607 129.6 914.837 129.6C914.053 129.6 913.521 130.02 913.115 130.72L911.575 129.768C912.289 128.606 913.395 127.92 914.977 127.92C916.769 127.92 918.099 128.942 918.099 130.552C918.099 131.462 917.707 132.232 916.979 132.736C917.973 133.24 918.519 134.122 918.519 135.2Z" fill="#161616"/>
<path d="M859.387 170V161.6H861.847C863.527 161.6 864.571 162.524 864.571 163.964C864.571 165.404 863.527 166.316 861.847 166.316H860.515V170H859.387ZM861.871 162.56H860.515V165.356H861.871C862.831 165.356 863.407 164.84 863.407 163.94C863.407 163.088 862.831 162.56 861.871 162.56ZM870.067 161.36C872.683 161.36 874.471 163.4 874.471 165.8C874.471 168.2 872.683 170.24 870.067 170.24C867.439 170.24 865.651 168.2 865.651 165.8C865.651 163.4 867.439 161.36 870.067 161.36ZM870.067 169.184C871.951 169.184 873.307 167.672 873.307 165.8C873.307 163.928 871.951 162.416 870.067 162.416C868.171 162.416 866.815 163.928 866.815 165.8C866.815 167.672 868.171 169.184 870.067 169.184ZM876.414 170V161.6H878.874C880.554 161.6 881.598 162.524 881.598 163.964C881.598 165.404 880.554 166.316 878.874 166.316H877.542V170H876.414ZM878.898 162.56H877.542V165.356H878.898C879.858 165.356 880.434 164.84 880.434 163.94C880.434 163.088 879.858 162.56 878.898 162.56ZM885.903 168.848L886.743 168.08C887.319 168.824 887.991 169.22 888.771 169.22C889.707 169.22 890.247 168.656 890.247 167.888C890.247 165.992 886.263 166.4 886.263 163.628C886.263 162.38 887.295 161.36 888.759 161.36C889.935 161.36 890.799 161.9 891.423 162.728L890.571 163.472C890.079 162.764 889.491 162.368 888.771 162.368C887.943 162.368 887.415 162.884 887.415 163.604C887.415 165.488 891.387 165.056 891.387 167.852C891.387 169.304 890.271 170.228 888.783 170.228C887.547 170.228 886.635 169.76 885.903 168.848ZM896.055 169.28C896.799 169.28 897.411 168.92 897.783 168.392L898.587 169.004C898.023 169.76 897.147 170.24 896.043 170.24C894.039 170.24 892.755 168.74 892.755 166.976C892.755 165.212 894.039 163.712 896.043 163.712C897.135 163.712 898.023 164.204 898.587 164.948L897.783 165.56C897.411 165.032 896.799 164.672 896.043 164.672C894.747 164.672 893.823 165.692 893.823 166.976C893.823 168.272 894.747 169.28 896.055 169.28ZM899.986 170V161H901.006V164.636C901.498 164.096 902.122 163.712 903.022 163.712C904.378 163.712 905.386 164.624 905.386 166.34V170H904.366V166.376C904.366 165.296 903.766 164.672 902.818 164.672C901.93 164.672 901.39 165.188 901.006 165.812V170H899.986ZM910.199 163.712C912.143 163.712 913.475 165.212 913.475 166.976C913.475 168.74 912.143 170.24 910.199 170.24C908.243 170.24 906.923 168.74 906.923 166.976C906.923 165.212 908.243 163.712 910.199 163.712ZM910.211 169.28C911.471 169.28 912.395 168.224 912.395 166.976C912.395 165.716 911.471 164.672 910.211 164.672C908.915 164.672 907.991 165.716 907.991 166.976C907.991 168.236 908.915 169.28 910.211 169.28ZM917.934 163.712C919.878 163.712 921.21 165.212 921.21 166.976C921.21 168.74 919.878 170.24 917.934 170.24C915.978 170.24 914.658 168.74 914.658 166.976C914.658 165.212 915.978 163.712 917.934 163.712ZM917.946 169.28C919.206 169.28 920.13 168.224 920.13 166.976C920.13 165.716 919.206 164.672 917.946 164.672C916.65 164.672 915.726 165.716 915.726 166.976C915.726 168.236 916.65 169.28 917.946 169.28ZM922.85 170V161H923.87V170H922.85Z" fill="#000091"/>
</svg>
