<svg xmlns="http://www.w3.org/2000/svg" width="931" height="345" fill="none"><path fill="#fff" d="M0 0h931v345H0z"/><rect width="250" height="87" x="340" y="27" fill="#000091" rx="8"/><path fill="#fff" d="M420.754 67.5v-2.196l4.32-4.248c.972-.99 1.584-1.674 1.584-2.7 0-1.044-.72-1.656-1.71-1.656-1.206 0-1.944.738-2.61 1.854l-1.98-1.206c1.062-1.728 2.628-2.808 4.824-2.808s3.96 1.404 3.96 3.564c0 1.728-1.134 3.06-2.376 4.266l-3.042 2.934h5.742V67.5zm16.454 0V54.9h4.158c2.772 0 4.464 1.422 4.464 3.762 0 2.322-1.692 3.744-4.464 3.744h-1.602V67.5zm4.266-10.476h-1.71v3.258h1.71c1.08 0 1.728-.63 1.728-1.656 0-.954-.648-1.602-1.728-1.602m8.369 10.746c-1.818 0-3.06-1.044-3.06-2.718 0-1.368 1.062-2.394 3.006-2.718l2.772-.468v-.234c0-.954-.72-1.566-1.764-1.566-.882 0-1.566.414-2.052 1.08l-1.674-1.278c.81-1.116 2.142-1.8 3.798-1.8 2.628 0 3.978 1.566 3.978 3.564V67.5h-2.286v-.882c-.576.702-1.656 1.152-2.718 1.152m-.792-2.826c0 .612.486 1.008 1.26 1.008 1.044 0 1.8-.486 2.25-1.206v-1.278l-2.16.36c-.954.162-1.35.558-1.35 1.116m8.414 2.556v-9.072h2.286v.9c.594-.612 1.368-1.08 2.394-1.08.306 0 .576.054.792.126v2.25a4 4 0 0 0-1.008-.126c-1.116 0-1.836.612-2.178 1.188V67.5zm11.281-1.8c.9 0 1.62-.414 2.052-1.044l1.782 1.368c-.846 1.116-2.178 1.836-3.834 1.836-3.132 0-5.004-2.25-5.004-4.896s1.872-4.896 5.004-4.896c1.656 0 2.988.72 3.834 1.836l-1.782 1.368c-.432-.63-1.152-1.044-2.088-1.044-1.494 0-2.592 1.152-2.592 2.736 0 1.602 1.098 2.736 2.628 2.736m9.509-7.632c2.952 0 4.968 2.178 4.968 4.896s-2.016 4.896-4.968 4.896-4.968-2.178-4.968-4.896 2.016-4.896 4.968-4.896m.036 7.632c1.458 0 2.556-1.17 2.556-2.736 0-1.584-1.098-2.736-2.556-2.736-1.512 0-2.628 1.152-2.628 2.736s1.116 2.736 2.628 2.736m12.993-2.124v-5.148h2.304v5.04c0 2.718-1.584 4.392-4.248 4.392s-4.23-1.674-4.23-4.392v-5.04h2.304v5.148c0 1.314.684 2.124 1.944 2.124 1.242 0 1.926-.81 1.926-2.124m4.835 3.924v-9.072h2.286v.9c.594-.612 1.368-1.08 2.394-1.08.306 0 .576.054.792.126v2.25a4 4 0 0 0-1.008-.126c-1.116 0-1.836.612-2.178 1.188V67.5zm6.52-1.314 1.512-1.368c.558.702 1.224 1.206 2.088 1.206.738 0 1.116-.432 1.116-.972 0-1.584-4.338-.99-4.338-4.176 0-1.602 1.35-2.808 3.24-2.808 1.386 0 2.646.666 3.294 1.548l-1.512 1.332c-.468-.576-1.062-1.044-1.764-1.044-.72 0-1.062.396-1.062.864 0 1.548 4.338 1.008 4.338 4.14-.036 1.908-1.566 2.952-3.276 2.952-1.62 0-2.772-.648-3.636-1.674m-76.121 27.742v-13.5h2.286v.738c.702-.702 1.584-1.098 2.826-1.098 2.88 0 4.608 2.25 4.608 4.896s-1.728 4.896-4.608 4.896c-1.242 0-2.124-.396-2.826-1.098v5.166zm4.788-11.7c-1.062 0-1.926.468-2.502 1.314v2.844c.612.864 1.458 1.314 2.502 1.314 1.548 0 2.556-1.152 2.556-2.736s-1.008-2.736-2.556-2.736m11.433-2.16c2.952 0 4.968 2.178 4.968 4.896s-2.016 4.896-4.968 4.896-4.968-2.178-4.968-4.896 2.016-4.896 4.968-4.896m.036 7.632c1.458 0 2.556-1.17 2.556-2.736 0-1.584-1.098-2.736-2.556-2.736-1.512 0-2.628 1.152-2.628 2.736s1.116 2.736 2.628 2.736m5.926.486 1.512-1.368c.558.702 1.224 1.206 2.088 1.206.738 0 1.116-.432 1.116-.972 0-1.584-4.338-.99-4.338-4.176 0-1.602 1.35-2.808 3.24-2.808 1.386 0 2.646.666 3.294 1.548l-1.512 1.332c-.468-.576-1.062-1.044-1.764-1.044-.72 0-1.062.396-1.062.864 0 1.548 4.338 1.008 4.338 4.14-.036 1.908-1.566 2.952-3.276 2.952-1.62 0-2.772-.648-3.636-1.674m8.104 0 1.512-1.368c.558.702 1.224 1.206 2.088 1.206.738 0 1.116-.432 1.116-.972 0-1.584-4.338-.99-4.338-4.176 0-1.602 1.35-2.808 3.24-2.808 1.386 0 2.646.666 3.294 1.548l-1.512 1.332c-.468-.576-1.062-1.044-1.764-1.044-.72 0-1.062.396-1.062.864 0 1.548 4.338 1.008 4.338 4.14-.036 1.908-1.566 2.952-3.276 2.952-1.62 0-2.772-.648-3.636-1.674m10.17-9.342c-.81 0-1.494-.684-1.494-1.494s.684-1.494 1.494-1.494 1.476.684 1.476 1.494-.666 1.494-1.476 1.494M465.823 89.5v-9.072h2.286V89.5zm14.747-4.536c0 2.646-1.728 4.896-4.608 4.896-1.242 0-2.124-.396-2.826-1.098v.738h-2.286V76h2.286v5.166c.702-.702 1.584-1.098 2.826-1.098 2.88 0 4.608 2.25 4.608 4.896m-4.932-2.736c-1.062 0-1.944.468-2.502 1.296v2.88c.612.846 1.476 1.296 2.502 1.296 1.548 0 2.556-1.152 2.556-2.736s-1.008-2.736-2.556-2.736m7.025 7.272V76h2.286v13.5zm13.379-1.476c-.846 1.134-2.25 1.836-3.96 1.836-3.222 0-5.04-2.25-5.04-4.896 0-2.682 1.692-4.896 4.662-4.896 2.52 0 4.176 1.71 4.176 4.086 0 .504-.072.972-.144 1.278h-6.354c.216 1.692 1.26 2.376 2.682 2.376.99 0 1.854-.432 2.34-1.08zm-4.392-6.084c-1.17 0-1.944.648-2.196 1.836h4.176c-.036-.918-.702-1.836-1.98-1.836m5.549 6.246 1.512-1.368c.558.702 1.224 1.206 2.088 1.206.738 0 1.116-.432 1.116-.972 0-1.584-4.338-.99-4.338-4.176 0-1.602 1.35-2.808 3.24-2.808 1.386 0 2.646.666 3.294 1.548l-1.512 1.332c-.468-.576-1.062-1.044-1.764-1.044-.72 0-1.062.396-1.062.864 0 1.548 4.338 1.008 4.338 4.14-.036 1.908-1.566 2.952-3.276 2.952-1.62 0-2.772-.648-3.636-1.674"/><rect width="164" height="94" x="40" y="224" fill="#E8EDFF" rx="8"/><path fill="#161616" d="M105.335 260.966c1.44 0 2.574-.702 3.294-1.728l2.016 1.548c-1.152 1.566-3.024 2.574-5.31 2.574-3.978 0-6.696-3.06-6.696-6.66s2.718-6.66 6.696-6.66c2.286 0 4.158 1.026 5.31 2.556l-2.016 1.566c-.72-1.026-1.854-1.728-3.294-1.728-2.376 0-4.068 1.854-4.068 4.266s1.692 4.266 4.068 4.266m13.237 0c1.44 0 2.574-.702 3.294-1.728l2.016 1.548c-1.152 1.566-3.024 2.574-5.31 2.574-3.978 0-6.696-3.06-6.696-6.66s2.718-6.66 6.696-6.66c2.286 0 4.158 1.026 5.31 2.556l-2.016 1.566c-.72-1.026-1.854-1.728-3.294-1.728-2.376 0-4.068 1.854-4.068 4.266s1.692 4.266 4.068 4.266M126.28 263v-12.6h4.158c2.772 0 4.464 1.422 4.464 3.762 0 2.322-1.692 3.744-4.464 3.744h-1.602V263zm4.266-10.476h-1.71v3.258h1.71c1.08 0 1.728-.63 1.728-1.656 0-.954-.648-1.602-1.728-1.602m5.84 10.476v-2.196l4.32-4.248c.972-.99 1.584-1.674 1.584-2.7 0-1.044-.72-1.656-1.71-1.656-1.206 0-1.944.738-2.61 1.854l-1.98-1.206c1.062-1.728 2.628-2.808 4.824-2.808s3.96 1.404 3.96 3.564c0 1.728-1.134 3.06-2.376 4.266l-3.042 2.934h5.742V263z"/><path fill="#000091" d="M92.434 292H90.67l5.068-8.414H90.46V282.2h6.916v1.386zm9.341-10.08c2.506 0 3.71 2.254 3.71 5.18s-1.204 5.18-3.71 5.18-3.724-2.254-3.724-5.18 1.218-5.18 3.724-5.18m0 1.428c-1.428 0-2.142 1.568-2.142 3.752 0 2.198.714 3.752 2.142 3.752 1.414 0 2.128-1.568 2.128-3.752 0-2.198-.714-3.752-2.128-3.752m9.144 8.652v-10.5h1.442v4.13c.532-.56 1.232-.966 2.24-.966 1.568 0 2.744 1.05 2.744 3.094V292h-1.456v-4.186c0-1.12-.616-1.792-1.624-1.792-.966 0-1.526.602-1.904 1.218V292zm15.038-1.148c-.658.882-1.736 1.428-3.052 1.428-2.436 0-3.878-1.75-3.878-3.808 0-2.114 1.344-3.808 3.584-3.808 1.946 0 3.206 1.33 3.206 3.122 0 .322-.042.644-.098.854h-5.208c.098 1.54 1.036 2.338 2.394 2.338.854 0 1.568-.378 2.002-.966zm-3.374-4.984c-1.05 0-1.778.602-2.002 1.694h3.794c-.028-.882-.658-1.694-1.792-1.694m9.818 3.108v-4.032h1.456v3.962c0 2.114-1.218 3.374-3.192 3.374-1.988 0-3.206-1.26-3.206-3.374v-3.962h1.456v4.032c0 1.218.644 1.946 1.75 1.946 1.078 0 1.736-.728 1.736-1.946m3.647 3.024v-7.056h1.442v.798c.49-.546 1.106-.938 1.974-.938.224 0 .434.042.616.098v1.414a3 3 0 0 0-.742-.098c-.896 0-1.484.476-1.848 1.078V292zm11.62-1.148c-.658.882-1.736 1.428-3.052 1.428-2.436 0-3.878-1.75-3.878-3.808 0-2.114 1.344-3.808 3.584-3.808 1.946 0 3.206 1.33 3.206 3.122 0 .322-.042.644-.098.854h-5.208c.098 1.54 1.036 2.338 2.394 2.338.854 0 1.568-.378 2.002-.966zm-3.374-4.984c-1.05 0-1.778.602-2.002 1.694h3.794c-.028-.882-.658-1.694-1.792-1.694m4.343 5.138.994-.868c.462.588 1.022.966 1.722.966.686 0 1.064-.42 1.064-.952 0-1.428-3.458-.91-3.458-3.402 0-1.162.98-2.086 2.394-2.086 1.036 0 1.946.504 2.45 1.176l-.98.854c-.378-.504-.868-.854-1.456-.854-.672 0-1.008.392-1.008.868 0 1.414 3.458.938 3.458 3.36-.014 1.386-1.134 2.212-2.45 2.212-1.19 0-2.072-.476-2.73-1.274"/><rect width="164" height="94" x="220" y="224" fill="#E8EDFF" rx="8"/><path fill="#161616" d="M285.335 260.966c1.44 0 2.574-.702 3.294-1.728l2.016 1.548c-1.152 1.566-3.024 2.574-5.31 2.574-3.978 0-6.696-3.06-6.696-6.66s2.718-6.66 6.696-6.66c2.286 0 4.158 1.026 5.31 2.556l-2.016 1.566c-.72-1.026-1.854-1.728-3.294-1.728-2.376 0-4.068 1.854-4.068 4.266s1.692 4.266 4.068 4.266m13.237 0c1.44 0 2.574-.702 3.294-1.728l2.016 1.548c-1.152 1.566-3.024 2.574-5.31 2.574-3.978 0-6.696-3.06-6.696-6.66s2.718-6.66 6.696-6.66c2.286 0 4.158 1.026 5.31 2.556l-2.016 1.566c-.72-1.026-1.854-1.728-3.294-1.728-2.376 0-4.068 1.854-4.068 4.266s1.692 4.266 4.068 4.266M306.28 263v-12.6h4.158c2.772 0 4.464 1.422 4.464 3.762 0 2.322-1.692 3.744-4.464 3.744h-1.602V263zm4.266-10.476h-1.71v3.258h1.71c1.08 0 1.728-.63 1.728-1.656 0-.954-.648-1.602-1.728-1.602m14.714 6.876c0 2.394-1.962 3.96-4.59 3.96-2.376 0-3.906-1.044-4.932-2.844l2.124-1.314c.702 1.386 1.548 1.998 2.79 1.998 1.224 0 2.142-.738 2.142-1.908 0-1.152-.9-1.872-2.232-1.872h-2.07v-2.16h1.908c1.062 0 1.836-.594 1.836-1.566 0-.954-.72-1.494-1.71-1.494-1.008 0-1.692.54-2.214 1.44l-1.98-1.224c.918-1.494 2.34-2.376 4.374-2.376 2.304 0 4.014 1.314 4.014 3.384 0 1.17-.504 2.16-1.44 2.808 1.278.648 1.98 1.782 1.98 3.168"/><path fill="#000091" d="M272.434 292h-1.764l5.068-8.414h-5.278V282.2h6.916v1.386zm9.341-10.08c2.506 0 3.71 2.254 3.71 5.18s-1.204 5.18-3.71 5.18-3.724-2.254-3.724-5.18 1.218-5.18 3.724-5.18m0 1.428c-1.428 0-2.142 1.568-2.142 3.752 0 2.198.714 3.752 2.142 3.752 1.414 0 2.128-1.568 2.128-3.752 0-2.198-.714-3.752-2.128-3.752m9.144 8.652v-10.5h1.442v4.13c.532-.56 1.232-.966 2.24-.966 1.568 0 2.744 1.05 2.744 3.094V292h-1.456v-4.186c0-1.12-.616-1.792-1.624-1.792-.966 0-1.526.602-1.904 1.218V292zm15.038-1.148c-.658.882-1.736 1.428-3.052 1.428-2.436 0-3.878-1.75-3.878-3.808 0-2.114 1.344-3.808 3.584-3.808 1.946 0 3.206 1.33 3.206 3.122 0 .322-.042.644-.098.854h-5.208c.098 1.54 1.036 2.338 2.394 2.338.854 0 1.568-.378 2.002-.966zm-3.374-4.984c-1.05 0-1.778.602-2.002 1.694h3.794c-.028-.882-.658-1.694-1.792-1.694m9.818 3.108v-4.032h1.456v3.962c0 2.114-1.218 3.374-3.192 3.374-1.988 0-3.206-1.26-3.206-3.374v-3.962h1.456v4.032c0 1.218.644 1.946 1.75 1.946 1.078 0 1.736-.728 1.736-1.946m3.647 3.024v-7.056h1.442v.798c.49-.546 1.106-.938 1.974-.938.224 0 .434.042.616.098v1.414a3 3 0 0 0-.742-.098c-.896 0-1.484.476-1.848 1.078V292zm11.62-1.148c-.658.882-1.736 1.428-3.052 1.428-2.436 0-3.878-1.75-3.878-3.808 0-2.114 1.344-3.808 3.584-3.808 1.946 0 3.206 1.33 3.206 3.122 0 .322-.042.644-.098.854h-5.208c.098 1.54 1.036 2.338 2.394 2.338.854 0 1.568-.378 2.002-.966zm-3.374-4.984c-1.05 0-1.778.602-2.002 1.694h3.794c-.028-.882-.658-1.694-1.792-1.694m4.343 5.138.994-.868c.462.588 1.022.966 1.722.966.686 0 1.064-.42 1.064-.952 0-1.428-3.458-.91-3.458-3.402 0-1.162.98-2.086 2.394-2.086 1.036 0 1.946.504 2.45 1.176l-.98.854c-.378-.504-.868-.854-1.456-.854-.672 0-1.008.392-1.008.868 0 1.414 3.458.938 3.458 3.36-.014 1.386-1.134 2.212-2.45 2.212-1.19 0-2.072-.476-2.73-1.274"/><rect width="341" height="94" x="550" y="224" fill="#BAFAEE" rx="8"/><path fill="#161616" d="M665.796 260.966c1.44 0 2.574-.702 3.294-1.728l2.016 1.548c-1.152 1.566-3.024 2.574-5.31 2.574-3.978 0-6.696-3.06-6.696-6.66s2.718-6.66 6.696-6.66c2.286 0 4.158 1.026 5.31 2.556l-2.016 1.566c-.72-1.026-1.854-1.728-3.294-1.728-2.376 0-4.068 1.854-4.068 4.266s1.692 4.266 4.068 4.266m13.237 0c1.44 0 2.574-.702 3.294-1.728l2.016 1.548c-1.152 1.566-3.024 2.574-5.31 2.574-3.978 0-6.696-3.06-6.696-6.66s2.718-6.66 6.696-6.66c2.286 0 4.158 1.026 5.31 2.556l-2.016 1.566c-.72-1.026-1.854-1.728-3.294-1.728-2.376 0-4.068 1.854-4.068 4.266s1.692 4.266 4.068 4.266m7.708 2.034v-12.6h4.158c2.772 0 4.464 1.422 4.464 3.762 0 2.322-1.692 3.744-4.464 3.744h-1.602V263zm4.266-10.476h-1.71v3.258h1.71c1.08 0 1.728-.63 1.728-1.656 0-.954-.648-1.602-1.728-1.602m5.84 10.476v-2.196l4.32-4.248c.972-.99 1.584-1.674 1.584-2.7 0-1.044-.72-1.656-1.71-1.656-1.206 0-1.944.738-2.61 1.854l-1.98-1.206c1.062-1.728 2.628-2.808 4.824-2.808s3.96 1.404 3.96 3.564c0 1.728-1.134 3.06-2.376 4.266l-3.042 2.934h5.742V263zm24.32-1.476c-.846 1.134-2.25 1.836-3.96 1.836-3.222 0-5.04-2.25-5.04-4.896 0-2.682 1.692-4.896 4.662-4.896 2.52 0 4.176 1.71 4.176 4.086 0 .504-.072.972-.144 1.278h-6.354c.216 1.692 1.26 2.376 2.682 2.376.99 0 1.854-.432 2.34-1.08zm-4.392-6.084c-1.17 0-1.944.648-2.196 1.836h4.176c-.036-.918-.702-1.836-1.98-1.836m7.023 4.248v-3.708h-1.692v-2.052h1.692v-2.268h2.304v2.268h2.772v2.052h-2.772v3.708c0 1.008.54 1.404 1.44 1.404.63 0 1.044-.072 1.35-.198v1.998c-.45.198-.99.288-1.746.288-2.268 0-3.348-1.278-3.348-3.492m18.076 1.278c1.44 0 2.574-.702 3.294-1.728l2.016 1.548c-1.152 1.566-3.024 2.574-5.31 2.574-3.978 0-6.696-3.06-6.696-6.66s2.718-6.66 6.696-6.66c2.286 0 4.158 1.026 5.31 2.556l-2.016 1.566c-.72-1.026-1.854-1.728-3.294-1.728-2.376 0-4.068 1.854-4.068 4.266s1.692 4.266 4.068 4.266m13.237 0c1.44 0 2.574-.702 3.294-1.728l2.016 1.548c-1.152 1.566-3.024 2.574-5.31 2.574-3.978 0-6.696-3.06-6.696-6.66s2.718-6.66 6.696-6.66c2.286 0 4.158 1.026 5.31 2.556l-2.016 1.566c-.72-1.026-1.854-1.728-3.294-1.728-2.376 0-4.068 1.854-4.068 4.266s1.692 4.266 4.068 4.266m7.708 2.034v-12.6h4.158c2.772 0 4.464 1.422 4.464 3.762 0 2.322-1.692 3.744-4.464 3.744h-1.602V263zm4.266-10.476h-1.71v3.258h1.71c1.08 0 1.728-.63 1.728-1.656 0-.954-.648-1.602-1.728-1.602m14.714 6.876c0 2.394-1.962 3.96-4.59 3.96-2.376 0-3.906-1.044-4.932-2.844l2.124-1.314c.702 1.386 1.548 1.998 2.79 1.998 1.224 0 2.142-.738 2.142-1.908 0-1.152-.9-1.872-2.232-1.872h-2.07v-2.16h1.908c1.062 0 1.836-.594 1.836-1.566 0-.954-.72-1.494-1.71-1.494-1.008 0-1.692.54-2.214 1.44l-1.98-1.224c.918-1.494 2.34-2.376 4.374-2.376 2.304 0 4.014 1.314 4.014 3.384 0 1.17-.504 2.16-1.44 2.808 1.278.648 1.98 1.782 1.98 3.168"/><path fill="#000091" d="M687.94 291.986v-8.232l-2.338 1.302-.784-1.092 3.15-1.778h1.498v9.8zm3.479-2.716v-1.386l4.438-5.684h1.82v5.684h1.078v1.386h-1.078V292h-1.526v-2.73zm1.61-1.386h3.122v-3.99zm10.534-5.964c2.506 0 3.71 2.254 3.71 5.18s-1.204 5.18-3.71 5.18-3.724-2.254-3.724-5.18 1.218-5.18 3.724-5.18m0 1.428c-1.428 0-2.142 1.568-2.142 3.752 0 2.198.714 3.752 2.142 3.752 1.414 0 2.128-1.568 2.128-3.752 0-2.198-.714-3.752-2.128-3.752m9.144 8.652v-10.5h1.442v4.13c.532-.56 1.232-.966 2.24-.966 1.568 0 2.744 1.05 2.744 3.094V292h-1.456v-4.186c0-1.12-.616-1.792-1.624-1.792-.966 0-1.526.602-1.904 1.218V292zm15.038-1.148c-.658.882-1.736 1.428-3.052 1.428-2.436 0-3.878-1.75-3.878-3.808 0-2.114 1.344-3.808 3.584-3.808 1.946 0 3.206 1.33 3.206 3.122 0 .322-.042.644-.098.854h-5.208c.098 1.54 1.036 2.338 2.394 2.338.854 0 1.568-.378 2.002-.966zm-3.374-4.984c-1.05 0-1.778.602-2.002 1.694h3.794c-.028-.882-.658-1.694-1.792-1.694m9.818 3.108v-4.032h1.456v3.962c0 2.114-1.218 3.374-3.192 3.374-1.988 0-3.206-1.26-3.206-3.374v-3.962h1.456v4.032c0 1.218.644 1.946 1.75 1.946 1.078 0 1.736-.728 1.736-1.946m3.647 3.024v-7.056h1.442v.798c.49-.546 1.106-.938 1.974-.938.224 0 .434.042.616.098v1.414a3 3 0 0 0-.742-.098c-.896 0-1.484.476-1.848 1.078V292zm11.62-1.148c-.658.882-1.736 1.428-3.052 1.428-2.436 0-3.878-1.75-3.878-3.808 0-2.114 1.344-3.808 3.584-3.808 1.946 0 3.206 1.33 3.206 3.122 0 .322-.042.644-.098.854h-5.208c.098 1.54 1.036 2.338 2.394 2.338.854 0 1.568-.378 2.002-.966zm-3.374-4.984c-1.05 0-1.778.602-2.002 1.694h3.794c-.028-.882-.658-1.694-1.792-1.694m4.343 5.138.994-.868c.462.588 1.022.966 1.722.966.686 0 1.064-.42 1.064-.952 0-1.428-3.458-.91-3.458-3.402 0-1.162.98-2.086 2.394-2.086 1.036 0 1.946.504 2.45 1.176l-.98.854c-.378-.504-.868-.854-1.456-.854-.672 0-1.008.392-1.008.868 0 1.414 3.458.938 3.458 3.36-.014 1.386-1.134 2.212-2.45 2.212-1.19 0-2.072-.476-2.73-1.274M466.5 118a1.5 1.5 0 0 0-3 0zM300.939 221.061a1.5 1.5 0 0 0 2.122 0l9.546-9.546a1.5 1.5 0 0 0 0-2.122 1.5 1.5 0 0 0-2.122 0L302 217.879l-8.485-8.486a1.5 1.5 0 0 0-2.122 0 1.5 1.5 0 0 0 0 2.122zM463.5 118v27h3v-27zM441 167.5H326v3h115zM300.5 193v27h3v-27zm25.5-25.5c-14.083 0-25.5 11.417-25.5 25.5h3c0-12.426 10.074-22.5 22.5-22.5zM463.5 145c0 12.426-10.074 22.5-22.5 22.5v3c14.083 0 25.5-11.417 25.5-25.5z"/><path fill="#000091" d="M466.5 118a1.5 1.5 0 0 0-3 0zM120.939 221.061a1.5 1.5 0 0 0 2.122 0l9.546-9.546a1.5 1.5 0 0 0 0-2.122 1.5 1.5 0 0 0-2.122 0L122 217.879l-8.485-8.486a1.5 1.5 0 0 0-2.122 0 1.5 1.5 0 0 0 0 2.122zM463.5 118v27h3v-27zM441 167.5H146v3h295zM120.5 193v27h3v-27zm25.5-25.5c-14.083 0-25.5 11.417-25.5 25.5h3c0-12.426 10.074-22.5 22.5-22.5zM463.5 145c0 12.426-10.074 22.5-22.5 22.5v3c14.083 0 25.5-11.417 25.5-25.5z"/><path fill="#000091" d="M466.5 118a1.5 1.5 0 0 0-3 0zm252.939 103.061a1.5 1.5 0 0 0 2.122 0l9.546-9.546a1.5 1.5 0 0 0 0-2.122 1.5 1.5 0 0 0-2.122 0l-8.485 8.486-8.485-8.486a1.5 1.5 0 0 0-2.122 0 1.5 1.5 0 0 0 0 2.122zM463.5 118v27h3v-27zm25.5 52.5h207.5v-3H489zM719 193v27h3v-27zm-22.5-22.5c12.426 0 22.5 10.074 22.5 22.5h3c0-14.083-11.417-25.5-25.5-25.5zm-233-25.5c0 14.083 11.417 25.5 25.5 25.5v-3c-12.426 0-22.5-10.074-22.5-22.5z"/></svg>