<svg width="931" height="345" viewBox="0 0 931 345" fill="none" xmlns="http://www.w3.org/2000/svg">
<rect width="931" height="345" fill="white"/>
<rect x="340" y="27" width="250" height="87" rx="8" fill="#000091"/>
<path d="M420.754 67.5V65.304L425.074 61.056C426.046 60.066 426.658 59.382 426.658 58.356C426.658 57.312 425.938 56.7 424.948 56.7C423.742 56.7 423.004 57.438 422.338 58.554L420.358 57.348C421.42 55.62 422.986 54.54 425.182 54.54C427.378 54.54 429.142 55.944 429.142 58.104C429.142 59.832 428.008 61.164 426.766 62.37L423.724 65.304H429.466V67.5H420.754ZM437.208 67.5V54.9H441.366C444.138 54.9 445.83 56.322 445.83 58.662C445.83 60.984 444.138 62.406 441.366 62.406H439.764V67.5H437.208ZM441.474 57.024H439.764V60.282H441.474C442.554 60.282 443.202 59.652 443.202 58.626C443.202 57.672 442.554 57.024 441.474 57.024ZM449.843 67.77C448.025 67.77 446.783 66.726 446.783 65.052C446.783 63.684 447.845 62.658 449.789 62.334L452.561 61.866V61.632C452.561 60.678 451.841 60.066 450.797 60.066C449.915 60.066 449.231 60.48 448.745 61.146L447.071 59.868C447.881 58.752 449.213 58.068 450.869 58.068C453.497 58.068 454.847 59.634 454.847 61.632V67.5H452.561V66.618C451.985 67.32 450.905 67.77 449.843 67.77ZM449.051 64.944C449.051 65.556 449.537 65.952 450.311 65.952C451.355 65.952 452.111 65.466 452.561 64.746V63.468L450.401 63.828C449.447 63.99 449.051 64.386 449.051 64.944ZM457.465 67.5V58.428H459.751V59.328C460.345 58.716 461.119 58.248 462.145 58.248C462.451 58.248 462.721 58.302 462.937 58.374V60.624C462.649 60.552 462.343 60.498 461.929 60.498C460.813 60.498 460.093 61.11 459.751 61.686V67.5H457.465ZM468.746 65.7C469.646 65.7 470.366 65.286 470.798 64.656L472.58 66.024C471.734 67.14 470.402 67.86 468.746 67.86C465.614 67.86 463.742 65.61 463.742 62.964C463.742 60.318 465.614 58.068 468.746 58.068C470.402 58.068 471.734 58.788 472.58 59.904L470.798 61.272C470.366 60.642 469.646 60.228 468.71 60.228C467.216 60.228 466.118 61.38 466.118 62.964C466.118 64.566 467.216 65.7 468.746 65.7ZM478.255 58.068C481.207 58.068 483.223 60.246 483.223 62.964C483.223 65.682 481.207 67.86 478.255 67.86C475.303 67.86 473.287 65.682 473.287 62.964C473.287 60.246 475.303 58.068 478.255 58.068ZM478.291 65.7C479.749 65.7 480.847 64.53 480.847 62.964C480.847 61.38 479.749 60.228 478.291 60.228C476.779 60.228 475.663 61.38 475.663 62.964C475.663 64.548 476.779 65.7 478.291 65.7ZM491.284 63.576V58.428H493.588V63.468C493.588 66.186 492.004 67.86 489.34 67.86C486.676 67.86 485.11 66.186 485.11 63.468V58.428H487.414V63.576C487.414 64.89 488.098 65.7 489.358 65.7C490.6 65.7 491.284 64.89 491.284 63.576ZM496.119 67.5V58.428H498.405V59.328C498.999 58.716 499.773 58.248 500.799 58.248C501.105 58.248 501.375 58.302 501.591 58.374V60.624C501.303 60.552 500.997 60.498 500.583 60.498C499.467 60.498 498.747 61.11 498.405 61.686V67.5H496.119ZM502.639 66.186L504.151 64.818C504.709 65.52 505.375 66.024 506.239 66.024C506.977 66.024 507.355 65.592 507.355 65.052C507.355 63.468 503.017 64.062 503.017 60.876C503.017 59.274 504.367 58.068 506.257 58.068C507.643 58.068 508.903 58.734 509.551 59.616L508.039 60.948C507.571 60.372 506.977 59.904 506.275 59.904C505.555 59.904 505.213 60.3 505.213 60.768C505.213 62.316 509.551 61.776 509.551 64.908C509.515 66.816 507.985 67.86 506.275 67.86C504.655 67.86 503.503 67.212 502.639 66.186ZM426.518 93.928V80.428H428.804V81.166C429.506 80.464 430.388 80.068 431.63 80.068C434.51 80.068 436.238 82.318 436.238 84.964C436.238 87.61 434.51 89.86 431.63 89.86C430.388 89.86 429.506 89.464 428.804 88.762V93.928H426.518ZM431.306 82.228C430.244 82.228 429.38 82.696 428.804 83.542V86.386C429.416 87.25 430.262 87.7 431.306 87.7C432.854 87.7 433.862 86.548 433.862 84.964C433.862 83.38 432.854 82.228 431.306 82.228ZM442.739 80.068C445.691 80.068 447.707 82.246 447.707 84.964C447.707 87.682 445.691 89.86 442.739 89.86C439.787 89.86 437.771 87.682 437.771 84.964C437.771 82.246 439.787 80.068 442.739 80.068ZM442.775 87.7C444.233 87.7 445.331 86.53 445.331 84.964C445.331 83.38 444.233 82.228 442.775 82.228C441.263 82.228 440.147 83.38 440.147 84.964C440.147 86.548 441.263 87.7 442.775 87.7ZM448.701 88.186L450.213 86.818C450.771 87.52 451.437 88.024 452.301 88.024C453.039 88.024 453.417 87.592 453.417 87.052C453.417 85.468 449.079 86.062 449.079 82.876C449.079 81.274 450.429 80.068 452.319 80.068C453.705 80.068 454.965 80.734 455.613 81.616L454.101 82.948C453.633 82.372 453.039 81.904 452.337 81.904C451.617 81.904 451.275 82.3 451.275 82.768C451.275 84.316 455.613 83.776 455.613 86.908C455.577 88.816 454.047 89.86 452.337 89.86C450.717 89.86 449.565 89.212 448.701 88.186ZM456.805 88.186L458.317 86.818C458.875 87.52 459.541 88.024 460.405 88.024C461.143 88.024 461.521 87.592 461.521 87.052C461.521 85.468 457.183 86.062 457.183 82.876C457.183 81.274 458.533 80.068 460.423 80.068C461.809 80.068 463.069 80.734 463.717 81.616L462.205 82.948C461.737 82.372 461.143 81.904 460.441 81.904C459.721 81.904 459.379 82.3 459.379 82.768C459.379 84.316 463.717 83.776 463.717 86.908C463.681 88.816 462.151 89.86 460.441 89.86C458.821 89.86 457.669 89.212 456.805 88.186ZM466.975 78.844C466.165 78.844 465.481 78.16 465.481 77.35C465.481 76.54 466.165 75.856 466.975 75.856C467.785 75.856 468.451 76.54 468.451 77.35C468.451 78.16 467.785 78.844 466.975 78.844ZM465.823 89.5V80.428H468.109V89.5H465.823ZM480.57 84.964C480.57 87.61 478.842 89.86 475.962 89.86C474.72 89.86 473.838 89.464 473.136 88.762V89.5H470.85V76H473.136V81.166C473.838 80.464 474.72 80.068 475.962 80.068C478.842 80.068 480.57 82.318 480.57 84.964ZM475.638 82.228C474.576 82.228 473.694 82.696 473.136 83.524V86.404C473.748 87.25 474.612 87.7 475.638 87.7C477.186 87.7 478.194 86.548 478.194 84.964C478.194 83.38 477.186 82.228 475.638 82.228ZM482.663 89.5V76H484.949V89.5H482.663ZM496.042 88.024C495.196 89.158 493.792 89.86 492.082 89.86C488.86 89.86 487.042 87.61 487.042 84.964C487.042 82.282 488.734 80.068 491.704 80.068C494.224 80.068 495.88 81.778 495.88 84.154C495.88 84.658 495.808 85.126 495.736 85.432H489.382C489.598 87.124 490.642 87.808 492.064 87.808C493.054 87.808 493.918 87.376 494.404 86.728L496.042 88.024ZM491.65 81.94C490.48 81.94 489.706 82.588 489.454 83.776H493.63C493.594 82.858 492.928 81.94 491.65 81.94ZM497.199 88.186L498.711 86.818C499.269 87.52 499.935 88.024 500.799 88.024C501.537 88.024 501.915 87.592 501.915 87.052C501.915 85.468 497.577 86.062 497.577 82.876C497.577 81.274 498.927 80.068 500.817 80.068C502.203 80.068 503.463 80.734 504.111 81.616L502.599 82.948C502.131 82.372 501.537 81.904 500.835 81.904C500.115 81.904 499.773 82.3 499.773 82.768C499.773 84.316 504.111 83.776 504.111 86.908C504.075 88.816 502.545 89.86 500.835 89.86C499.215 89.86 498.063 89.212 497.199 88.186Z" fill="white"/>
<rect x="40" y="224" width="164" height="94" rx="8" fill="#E8EDFF"/>
<path d="M105.335 260.966C106.775 260.966 107.909 260.264 108.629 259.238L110.645 260.786C109.493 262.352 107.621 263.36 105.335 263.36C101.357 263.36 98.6392 260.3 98.6392 256.7C98.6392 253.1 101.357 250.04 105.335 250.04C107.621 250.04 109.493 251.066 110.645 252.596L108.629 254.162C107.909 253.136 106.775 252.434 105.335 252.434C102.959 252.434 101.267 254.288 101.267 256.7C101.267 259.112 102.959 260.966 105.335 260.966ZM118.572 260.966C120.012 260.966 121.146 260.264 121.866 259.238L123.882 260.786C122.73 262.352 120.858 263.36 118.572 263.36C114.594 263.36 111.876 260.3 111.876 256.7C111.876 253.1 114.594 250.04 118.572 250.04C120.858 250.04 122.73 251.066 123.882 252.596L121.866 254.162C121.146 253.136 120.012 252.434 118.572 252.434C116.196 252.434 114.504 254.288 114.504 256.7C114.504 259.112 116.196 260.966 118.572 260.966ZM126.28 263V250.4H130.438C133.21 250.4 134.902 251.822 134.902 254.162C134.902 256.484 133.21 257.906 130.438 257.906H128.836V263H126.28ZM130.546 252.524H128.836V255.782H130.546C131.626 255.782 132.274 255.152 132.274 254.126C132.274 253.172 131.626 252.524 130.546 252.524ZM136.386 263V260.804L140.706 256.556C141.678 255.566 142.29 254.882 142.29 253.856C142.29 252.812 141.57 252.2 140.58 252.2C139.374 252.2 138.636 252.938 137.97 254.054L135.99 252.848C137.052 251.12 138.618 250.04 140.814 250.04C143.01 250.04 144.774 251.444 144.774 253.604C144.774 255.332 143.64 256.664 142.398 257.87L139.356 260.804H145.098V263H136.386Z" fill="#161616"/>
<path d="M92.4338 292H90.6698L95.7378 283.586H90.4598V282.2H97.3758V283.586L92.4338 292ZM101.775 281.92C104.281 281.92 105.485 284.174 105.485 287.1C105.485 290.026 104.281 292.28 101.775 292.28C99.2692 292.28 98.0512 290.026 98.0512 287.1C98.0512 284.174 99.2692 281.92 101.775 281.92ZM101.775 283.348C100.347 283.348 99.6332 284.916 99.6332 287.1C99.6332 289.298 100.347 290.852 101.775 290.852C103.189 290.852 103.903 289.284 103.903 287.1C103.903 284.902 103.189 283.348 101.775 283.348ZM110.919 292V281.5H112.361V285.63C112.893 285.07 113.593 284.664 114.601 284.664C116.169 284.664 117.345 285.714 117.345 287.758V292H115.889V287.814C115.889 286.694 115.273 286.022 114.265 286.022C113.299 286.022 112.739 286.624 112.361 287.24V292H110.919ZM125.957 290.852C125.299 291.734 124.221 292.28 122.905 292.28C120.469 292.28 119.027 290.53 119.027 288.472C119.027 286.358 120.371 284.664 122.611 284.664C124.557 284.664 125.817 285.994 125.817 287.786C125.817 288.108 125.775 288.43 125.719 288.64H120.511C120.609 290.18 121.547 290.978 122.905 290.978C123.759 290.978 124.473 290.6 124.907 290.012L125.957 290.852ZM122.583 285.868C121.533 285.868 120.805 286.47 120.581 287.562H124.375C124.347 286.68 123.717 285.868 122.583 285.868ZM132.401 288.976V284.944H133.857V288.906C133.857 291.02 132.639 292.28 130.665 292.28C128.677 292.28 127.459 291.02 127.459 288.906V284.944H128.915V288.976C128.915 290.194 129.559 290.922 130.665 290.922C131.743 290.922 132.401 290.194 132.401 288.976ZM136.048 292V284.944H137.49V285.742C137.98 285.196 138.596 284.804 139.464 284.804C139.688 284.804 139.898 284.846 140.08 284.902V286.316C139.856 286.26 139.632 286.218 139.338 286.218C138.442 286.218 137.854 286.694 137.49 287.296V292H136.048ZM147.668 290.852C147.01 291.734 145.932 292.28 144.616 292.28C142.18 292.28 140.738 290.53 140.738 288.472C140.738 286.358 142.082 284.664 144.322 284.664C146.268 284.664 147.528 285.994 147.528 287.786C147.528 288.108 147.486 288.43 147.43 288.64H142.222C142.32 290.18 143.258 290.978 144.616 290.978C145.47 290.978 146.184 290.6 146.618 290.012L147.668 290.852ZM144.294 285.868C143.244 285.868 142.516 286.47 142.292 287.562H146.086C146.058 286.68 145.428 285.868 144.294 285.868ZM148.637 291.006L149.631 290.138C150.093 290.726 150.653 291.104 151.353 291.104C152.039 291.104 152.417 290.684 152.417 290.152C152.417 288.724 148.959 289.242 148.959 286.75C148.959 285.588 149.939 284.664 151.353 284.664C152.389 284.664 153.299 285.168 153.803 285.84L152.823 286.694C152.445 286.19 151.955 285.84 151.367 285.84C150.695 285.84 150.359 286.232 150.359 286.708C150.359 288.122 153.817 287.646 153.817 290.068C153.803 291.454 152.683 292.28 151.367 292.28C150.177 292.28 149.295 291.804 148.637 291.006Z" fill="#000091"/>
<rect x="220" y="224" width="164" height="94" rx="8" fill="#E8EDFF"/>
<path d="M285.335 260.966C286.775 260.966 287.909 260.264 288.629 259.238L290.645 260.786C289.493 262.352 287.621 263.36 285.335 263.36C281.357 263.36 278.639 260.3 278.639 256.7C278.639 253.1 281.357 250.04 285.335 250.04C287.621 250.04 289.493 251.066 290.645 252.596L288.629 254.162C287.909 253.136 286.775 252.434 285.335 252.434C282.959 252.434 281.267 254.288 281.267 256.7C281.267 259.112 282.959 260.966 285.335 260.966ZM298.572 260.966C300.012 260.966 301.146 260.264 301.866 259.238L303.882 260.786C302.73 262.352 300.858 263.36 298.572 263.36C294.594 263.36 291.876 260.3 291.876 256.7C291.876 253.1 294.594 250.04 298.572 250.04C300.858 250.04 302.73 251.066 303.882 252.596L301.866 254.162C301.146 253.136 300.012 252.434 298.572 252.434C296.196 252.434 294.504 254.288 294.504 256.7C294.504 259.112 296.196 260.966 298.572 260.966ZM306.28 263V250.4H310.438C313.21 250.4 314.902 251.822 314.902 254.162C314.902 256.484 313.21 257.906 310.438 257.906H308.836V263H306.28ZM310.546 252.524H308.836V255.782H310.546C311.626 255.782 312.274 255.152 312.274 254.126C312.274 253.172 311.626 252.524 310.546 252.524ZM325.26 259.4C325.26 261.794 323.298 263.36 320.67 263.36C318.294 263.36 316.764 262.316 315.738 260.516L317.862 259.202C318.564 260.588 319.41 261.2 320.652 261.2C321.876 261.2 322.794 260.462 322.794 259.292C322.794 258.14 321.894 257.42 320.562 257.42H318.492V255.26H320.4C321.462 255.26 322.236 254.666 322.236 253.694C322.236 252.74 321.516 252.2 320.526 252.2C319.518 252.2 318.834 252.74 318.312 253.64L316.332 252.416C317.25 250.922 318.672 250.04 320.706 250.04C323.01 250.04 324.72 251.354 324.72 253.424C324.72 254.594 324.216 255.584 323.28 256.232C324.558 256.88 325.26 258.014 325.26 259.4Z" fill="#161616"/>
<path d="M272.434 292H270.67L275.738 283.586H270.46V282.2H277.376V283.586L272.434 292ZM281.775 281.92C284.281 281.92 285.485 284.174 285.485 287.1C285.485 290.026 284.281 292.28 281.775 292.28C279.269 292.28 278.051 290.026 278.051 287.1C278.051 284.174 279.269 281.92 281.775 281.92ZM281.775 283.348C280.347 283.348 279.633 284.916 279.633 287.1C279.633 289.298 280.347 290.852 281.775 290.852C283.189 290.852 283.903 289.284 283.903 287.1C283.903 284.902 283.189 283.348 281.775 283.348ZM290.919 292V281.5H292.361V285.63C292.893 285.07 293.593 284.664 294.601 284.664C296.169 284.664 297.345 285.714 297.345 287.758V292H295.889V287.814C295.889 286.694 295.273 286.022 294.265 286.022C293.299 286.022 292.739 286.624 292.361 287.24V292H290.919ZM305.957 290.852C305.299 291.734 304.221 292.28 302.905 292.28C300.469 292.28 299.027 290.53 299.027 288.472C299.027 286.358 300.371 284.664 302.611 284.664C304.557 284.664 305.817 285.994 305.817 287.786C305.817 288.108 305.775 288.43 305.719 288.64H300.511C300.609 290.18 301.547 290.978 302.905 290.978C303.759 290.978 304.473 290.6 304.907 290.012L305.957 290.852ZM302.583 285.868C301.533 285.868 300.805 286.47 300.581 287.562H304.375C304.347 286.68 303.717 285.868 302.583 285.868ZM312.401 288.976V284.944H313.857V288.906C313.857 291.02 312.639 292.28 310.665 292.28C308.677 292.28 307.459 291.02 307.459 288.906V284.944H308.915V288.976C308.915 290.194 309.559 290.922 310.665 290.922C311.743 290.922 312.401 290.194 312.401 288.976ZM316.048 292V284.944H317.49V285.742C317.98 285.196 318.596 284.804 319.464 284.804C319.688 284.804 319.898 284.846 320.08 284.902V286.316C319.856 286.26 319.632 286.218 319.338 286.218C318.442 286.218 317.854 286.694 317.49 287.296V292H316.048ZM327.668 290.852C327.01 291.734 325.932 292.28 324.616 292.28C322.18 292.28 320.738 290.53 320.738 288.472C320.738 286.358 322.082 284.664 324.322 284.664C326.268 284.664 327.528 285.994 327.528 287.786C327.528 288.108 327.486 288.43 327.43 288.64H322.222C322.32 290.18 323.258 290.978 324.616 290.978C325.47 290.978 326.184 290.6 326.618 290.012L327.668 290.852ZM324.294 285.868C323.244 285.868 322.516 286.47 322.292 287.562H326.086C326.058 286.68 325.428 285.868 324.294 285.868ZM328.637 291.006L329.631 290.138C330.093 290.726 330.653 291.104 331.353 291.104C332.039 291.104 332.417 290.684 332.417 290.152C332.417 288.724 328.959 289.242 328.959 286.75C328.959 285.588 329.939 284.664 331.353 284.664C332.389 284.664 333.299 285.168 333.803 285.84L332.823 286.694C332.445 286.19 331.955 285.84 331.367 285.84C330.695 285.84 330.359 286.232 330.359 286.708C330.359 288.122 333.817 287.646 333.817 290.068C333.803 291.454 332.683 292.28 331.367 292.28C330.177 292.28 329.295 291.804 328.637 291.006Z" fill="#000091"/>
<rect x="550" y="224" width="341" height="94" rx="8" fill="#BAFAEE"/>
<path d="M665.796 260.966C667.236 260.966 668.37 260.264 669.09 259.238L671.106 260.786C669.954 262.352 668.082 263.36 665.796 263.36C661.818 263.36 659.1 260.3 659.1 256.7C659.1 253.1 661.818 250.04 665.796 250.04C668.082 250.04 669.954 251.066 671.106 252.596L669.09 254.162C668.37 253.136 667.236 252.434 665.796 252.434C663.42 252.434 661.728 254.288 661.728 256.7C661.728 259.112 663.42 260.966 665.796 260.966ZM679.033 260.966C680.473 260.966 681.607 260.264 682.327 259.238L684.343 260.786C683.191 262.352 681.319 263.36 679.033 263.36C675.055 263.36 672.337 260.3 672.337 256.7C672.337 253.1 675.055 250.04 679.033 250.04C681.319 250.04 683.191 251.066 684.343 252.596L682.327 254.162C681.607 253.136 680.473 252.434 679.033 252.434C676.657 252.434 674.965 254.288 674.965 256.7C674.965 259.112 676.657 260.966 679.033 260.966ZM686.741 263V250.4H690.899C693.671 250.4 695.363 251.822 695.363 254.162C695.363 256.484 693.671 257.906 690.899 257.906H689.297V263H686.741ZM691.007 252.524H689.297V255.782H691.007C692.087 255.782 692.735 255.152 692.735 254.126C692.735 253.172 692.087 252.524 691.007 252.524ZM696.847 263V260.804L701.167 256.556C702.139 255.566 702.751 254.882 702.751 253.856C702.751 252.812 702.031 252.2 701.041 252.2C699.835 252.2 699.097 252.938 698.431 254.054L696.451 252.848C697.513 251.12 699.079 250.04 701.275 250.04C703.471 250.04 705.235 251.444 705.235 253.604C705.235 255.332 704.101 256.664 702.859 257.87L699.817 260.804H705.559V263H696.847ZM721.167 261.524C720.321 262.658 718.917 263.36 717.207 263.36C713.985 263.36 712.167 261.11 712.167 258.464C712.167 255.782 713.859 253.568 716.829 253.568C719.349 253.568 721.005 255.278 721.005 257.654C721.005 258.158 720.933 258.626 720.861 258.932H714.507C714.723 260.624 715.767 261.308 717.189 261.308C718.179 261.308 719.043 260.876 719.529 260.228L721.167 261.524ZM716.775 255.44C715.605 255.44 714.831 256.088 714.579 257.276H718.755C718.719 256.358 718.053 255.44 716.775 255.44ZM723.798 259.688V255.98H722.106V253.928H723.798V251.66H726.102V253.928H728.874V255.98H726.102V259.688C726.102 260.696 726.642 261.092 727.542 261.092C728.172 261.092 728.586 261.02 728.892 260.894V262.892C728.442 263.09 727.902 263.18 727.146 263.18C724.878 263.18 723.798 261.902 723.798 259.688ZM741.874 260.966C743.314 260.966 744.448 260.264 745.168 259.238L747.184 260.786C746.032 262.352 744.16 263.36 741.874 263.36C737.896 263.36 735.178 260.3 735.178 256.7C735.178 253.1 737.896 250.04 741.874 250.04C744.16 250.04 746.032 251.066 747.184 252.596L745.168 254.162C744.448 253.136 743.314 252.434 741.874 252.434C739.498 252.434 737.806 254.288 737.806 256.7C737.806 259.112 739.498 260.966 741.874 260.966ZM755.111 260.966C756.551 260.966 757.685 260.264 758.405 259.238L760.421 260.786C759.269 262.352 757.397 263.36 755.111 263.36C751.133 263.36 748.415 260.3 748.415 256.7C748.415 253.1 751.133 250.04 755.111 250.04C757.397 250.04 759.269 251.066 760.421 252.596L758.405 254.162C757.685 253.136 756.551 252.434 755.111 252.434C752.735 252.434 751.043 254.288 751.043 256.7C751.043 259.112 752.735 260.966 755.111 260.966ZM762.819 263V250.4H766.977C769.749 250.4 771.441 251.822 771.441 254.162C771.441 256.484 769.749 257.906 766.977 257.906H765.375V263H762.819ZM767.085 252.524H765.375V255.782H767.085C768.165 255.782 768.813 255.152 768.813 254.126C768.813 253.172 768.165 252.524 767.085 252.524ZM781.799 259.4C781.799 261.794 779.837 263.36 777.209 263.36C774.833 263.36 773.303 262.316 772.277 260.516L774.401 259.202C775.103 260.588 775.949 261.2 777.191 261.2C778.415 261.2 779.333 260.462 779.333 259.292C779.333 258.14 778.433 257.42 777.101 257.42H775.031V255.26H776.939C778.001 255.26 778.775 254.666 778.775 253.694C778.775 252.74 778.055 252.2 777.065 252.2C776.057 252.2 775.373 252.74 774.851 253.64L772.871 252.416C773.789 250.922 775.211 250.04 777.245 250.04C779.549 250.04 781.259 251.354 781.259 253.424C781.259 254.594 780.755 255.584 779.819 256.232C781.097 256.88 781.799 258.014 781.799 259.4Z" fill="#161616"/>
<path d="M687.94 291.986V283.754L685.602 285.056L684.818 283.964L687.968 282.186H689.466V291.986H687.94ZM691.419 289.27V287.884L695.857 282.2H697.677V287.884H698.755V289.27H697.677V292H696.151V289.27H691.419ZM693.029 287.884H696.151V283.894L693.029 287.884ZM703.563 281.92C706.069 281.92 707.273 284.174 707.273 287.1C707.273 290.026 706.069 292.28 703.563 292.28C701.057 292.28 699.839 290.026 699.839 287.1C699.839 284.174 701.057 281.92 703.563 281.92ZM703.563 283.348C702.135 283.348 701.421 284.916 701.421 287.1C701.421 289.298 702.135 290.852 703.563 290.852C704.977 290.852 705.691 289.284 705.691 287.1C705.691 284.902 704.977 283.348 703.563 283.348ZM712.707 292V281.5H714.149V285.63C714.681 285.07 715.381 284.664 716.389 284.664C717.957 284.664 719.133 285.714 719.133 287.758V292H717.677V287.814C717.677 286.694 717.061 286.022 716.053 286.022C715.087 286.022 714.527 286.624 714.149 287.24V292H712.707ZM727.745 290.852C727.087 291.734 726.009 292.28 724.693 292.28C722.257 292.28 720.815 290.53 720.815 288.472C720.815 286.358 722.159 284.664 724.399 284.664C726.345 284.664 727.605 285.994 727.605 287.786C727.605 288.108 727.563 288.43 727.507 288.64H722.299C722.397 290.18 723.335 290.978 724.693 290.978C725.547 290.978 726.261 290.6 726.695 290.012L727.745 290.852ZM724.371 285.868C723.321 285.868 722.593 286.47 722.369 287.562H726.163C726.135 286.68 725.505 285.868 724.371 285.868ZM734.189 288.976V284.944H735.645V288.906C735.645 291.02 734.427 292.28 732.453 292.28C730.465 292.28 729.247 291.02 729.247 288.906V284.944H730.703V288.976C730.703 290.194 731.347 290.922 732.453 290.922C733.531 290.922 734.189 290.194 734.189 288.976ZM737.836 292V284.944H739.278V285.742C739.768 285.196 740.384 284.804 741.252 284.804C741.476 284.804 741.686 284.846 741.868 284.902V286.316C741.644 286.26 741.42 286.218 741.126 286.218C740.23 286.218 739.642 286.694 739.278 287.296V292H737.836ZM749.456 290.852C748.798 291.734 747.72 292.28 746.404 292.28C743.968 292.28 742.526 290.53 742.526 288.472C742.526 286.358 743.87 284.664 746.11 284.664C748.056 284.664 749.316 285.994 749.316 287.786C749.316 288.108 749.274 288.43 749.218 288.64H744.01C744.108 290.18 745.046 290.978 746.404 290.978C747.258 290.978 747.972 290.6 748.406 290.012L749.456 290.852ZM746.082 285.868C745.032 285.868 744.304 286.47 744.08 287.562H747.874C747.846 286.68 747.216 285.868 746.082 285.868ZM750.425 291.006L751.419 290.138C751.881 290.726 752.441 291.104 753.141 291.104C753.827 291.104 754.205 290.684 754.205 290.152C754.205 288.724 750.747 289.242 750.747 286.75C750.747 285.588 751.727 284.664 753.141 284.664C754.177 284.664 755.087 285.168 755.591 285.84L754.611 286.694C754.233 286.19 753.743 285.84 753.155 285.84C752.483 285.84 752.147 286.232 752.147 286.708C752.147 288.122 755.605 287.646 755.605 290.068C755.591 291.454 754.471 292.28 753.155 292.28C751.965 292.28 751.083 291.804 750.425 291.006Z" fill="#000091"/>
<path d="M466.5 118C466.5 117.172 465.828 116.5 465 116.5C464.172 116.5 463.5 117.172 463.5 118H466.5ZM300.939 221.061C301.525 221.646 302.475 221.646 303.061 221.061L312.607 211.515C313.192 210.929 313.192 209.979 312.607 209.393C312.021 208.808 311.071 208.808 310.485 209.393L302 217.879L293.515 209.393C292.929 208.808 291.979 208.808 291.393 209.393C290.808 209.979 290.808 210.929 291.393 211.515L300.939 221.061ZM463.5 118V145H466.5V118H463.5ZM441 167.5H326V170.5H441V167.5ZM300.5 193V220H303.5V193H300.5ZM326 167.5C311.917 167.5 300.5 178.917 300.5 193H303.5C303.5 180.574 313.574 170.5 326 170.5V167.5ZM463.5 145C463.5 157.426 453.426 167.5 441 167.5V170.5C455.083 170.5 466.5 159.083 466.5 145H463.5Z" fill="#000091"/>
<path d="M466.5 118C466.5 117.172 465.828 116.5 465 116.5C464.172 116.5 463.5 117.172 463.5 118H466.5ZM120.939 221.061C121.525 221.646 122.475 221.646 123.061 221.061L132.607 211.515C133.192 210.929 133.192 209.979 132.607 209.393C132.021 208.808 131.071 208.808 130.485 209.393L122 217.879L113.515 209.393C112.929 208.808 111.979 208.808 111.393 209.393C110.808 209.979 110.808 210.929 111.393 211.515L120.939 221.061ZM463.5 118V145H466.5V118H463.5ZM441 167.5H146V170.5H441V167.5ZM120.5 193V220H123.5V193H120.5ZM146 167.5C131.917 167.5 120.5 178.917 120.5 193H123.5C123.5 180.574 133.574 170.5 146 170.5V167.5ZM463.5 145C463.5 157.426 453.426 167.5 441 167.5V170.5C455.083 170.5 466.5 159.083 466.5 145H463.5Z" fill="#000091"/>
<path d="M466.5 118C466.5 117.172 465.828 116.5 465 116.5C464.172 116.5 463.5 117.172 463.5 118H466.5ZM719.439 221.061C720.025 221.646 720.975 221.646 721.561 221.061L731.107 211.515C731.692 210.929 731.692 209.979 731.107 209.393C730.521 208.808 729.571 208.808 728.985 209.393L720.5 217.879L712.015 209.393C711.429 208.808 710.479 208.808 709.893 209.393C709.308 209.979 709.308 210.929 709.893 211.515L719.439 221.061ZM463.5 118V145H466.5V118H463.5ZM489 170.5H696.5V167.5H489V170.5ZM719 193V220H722V193H719ZM696.5 170.5C708.926 170.5 719 180.574 719 193H722C722 178.917 710.583 167.5 696.5 167.5V170.5ZM463.5 145C463.5 159.083 474.917 170.5 489 170.5V167.5C476.574 167.5 466.5 157.426 466.5 145H463.5Z" fill="#000091"/>
</svg>
