<svg width="1054" height="344" viewBox="0 0 1054 344" fill="none" xmlns="http://www.w3.org/2000/svg">
<rect width="1054" height="344" fill="white"/>
<path d="M357 197.333C355.527 197.333 354.333 198.527 354.333 200C354.333 201.473 355.527 202.667 357 202.667C358.473 202.667 359.667 201.473 359.667 200C359.667 198.527 358.473 197.333 357 197.333ZM356.5 200L356.5 249L357.5 249L357.5 200L356.5 200Z" fill="#003081"/>
<path d="M526 197.333C524.527 197.333 523.333 198.527 523.333 200C523.333 201.473 524.527 202.667 526 202.667C527.473 202.667 528.667 201.473 528.667 200C528.667 198.527 527.473 197.333 526 197.333ZM525.5 200L525.5 249L526.5 249L526.5 200L525.5 200Z" fill="#003081"/>
<path d="M891 197.333C889.527 197.333 888.333 198.527 888.333 200C888.333 201.473 889.527 202.667 891 202.667C892.473 202.667 893.667 201.473 893.667 200C893.667 198.527 892.473 197.333 891 197.333ZM890.5 200L890.5 249L891.5 249L891.5 200L890.5 200Z" fill="#003081"/>
<path d="M695 197.333C693.527 197.333 692.333 198.527 692.333 200C692.333 201.473 693.527 202.667 695 202.667C696.473 202.667 697.667 201.473 697.667 200C697.667 198.527 696.473 197.333 695 197.333ZM694.5 200L694.5 249L695.5 249L695.5 200L694.5 200Z" fill="#003081"/>
<path d="M161 197.333C159.527 197.333 158.333 198.527 158.333 200C158.333 201.473 159.527 202.667 161 202.667C162.473 202.667 163.667 201.473 163.667 200C163.667 198.527 162.473 197.333 161 197.333ZM160.5 200L160.5 249L161.5 249L161.5 200L160.5 200Z" fill="#003081"/>
<path d="M37 248C35.3431 248 34 249.343 34 251C34 252.657 35.3431 254 37 254V248ZM1054 251L1024 233.679V268.321L1054 251ZM37 254H1027V248H37V254Z" fill="#000091"/>
<circle cx="34" cy="251" r="14.5" fill="#000091" stroke="#E7F0FF" stroke-width="5"/>
<rect width="492" height="32" transform="translate(34 280)" fill="#EEEEEE"/>
<path d="M222.04 302V292.2H227.304V293.32H223.356V296.456H226.744V297.562H223.356V302H222.04ZM231.98 294.664C234.248 294.664 235.802 296.414 235.802 298.472C235.802 300.53 234.248 302.28 231.98 302.28C229.698 302.28 228.158 300.53 228.158 298.472C228.158 296.414 229.698 294.664 231.98 294.664ZM231.994 301.16C233.464 301.16 234.542 299.928 234.542 298.472C234.542 297.002 233.464 295.784 231.994 295.784C230.482 295.784 229.404 297.002 229.404 298.472C229.404 299.942 230.482 301.16 231.994 301.16ZM237.715 302V294.944H238.905V295.826C239.423 295.21 240.067 294.804 240.963 294.804C241.187 294.804 241.397 294.832 241.565 294.888V296.05C241.355 295.994 241.145 295.966 240.865 295.966C239.941 295.966 239.339 296.442 238.905 297.156V302H237.715ZM243.28 302V294.944H244.47V295.714C245.002 295.098 245.702 294.664 246.682 294.664C247.704 294.664 248.544 295.126 248.978 296.022C249.538 295.252 250.28 294.664 251.498 294.664C253.01 294.664 254.116 295.672 254.116 297.59V302H252.926V297.632C252.926 296.456 252.268 295.784 251.26 295.784C250.364 295.784 249.734 296.288 249.272 297.114C249.286 297.268 249.3 297.422 249.3 297.59V302H248.11V297.632C248.11 296.456 247.466 295.784 246.444 295.784C245.478 295.784 244.876 296.386 244.47 297.114V302H243.28ZM258.432 302.196C257.046 302.196 256.108 301.426 256.108 300.222C256.108 299.158 256.92 298.402 258.418 298.15L260.798 297.758V297.268C260.798 296.288 260.098 295.728 259.09 295.728C258.278 295.728 257.62 296.106 257.186 296.708L256.29 296.022C256.906 295.182 257.9 294.664 259.132 294.664C260.924 294.664 261.988 295.714 261.988 297.268V302H260.798V301.104C260.266 301.79 259.342 302.196 258.432 302.196ZM257.312 300.18C257.312 300.782 257.802 301.216 258.628 301.216C259.566 301.216 260.336 300.768 260.798 300.012V298.626L258.712 298.976C257.746 299.144 257.312 299.578 257.312 300.18ZM264.781 299.634V296.022H263.451V294.944H264.781V293.18H265.985V294.944H268.435V296.022H265.985V299.634C265.985 300.74 266.545 301.048 267.399 301.048C267.861 301.048 268.183 300.992 268.449 300.88V301.944C268.113 302.084 267.735 302.14 267.231 302.14C265.663 302.14 264.781 301.356 264.781 299.634ZM270.856 293.11C270.394 293.11 270.016 292.732 270.016 292.27C270.016 291.822 270.394 291.444 270.856 291.444C271.318 291.444 271.682 291.822 271.682 292.27C271.682 292.732 271.318 293.11 270.856 293.11ZM270.254 302V294.944H271.444V302H270.254ZM277.179 294.664C279.447 294.664 281.001 296.414 281.001 298.472C281.001 300.53 279.447 302.28 277.179 302.28C274.897 302.28 273.357 300.53 273.357 298.472C273.357 296.414 274.897 294.664 277.179 294.664ZM277.193 301.16C278.663 301.16 279.741 299.928 279.741 298.472C279.741 297.002 278.663 295.784 277.193 295.784C275.681 295.784 274.603 297.002 274.603 298.472C274.603 299.942 275.681 301.16 277.193 301.16ZM282.914 302V294.944H284.104V295.742C284.678 295.112 285.406 294.664 286.456 294.664C288.038 294.664 289.214 295.728 289.214 297.73V302H288.024V297.772C288.024 296.512 287.31 295.784 286.218 295.784C285.196 295.784 284.552 296.372 284.104 297.114V302H282.914ZM295.985 293.11C295.523 293.11 295.145 292.732 295.145 292.27C295.145 291.822 295.523 291.444 295.985 291.444C296.447 291.444 296.811 291.822 296.811 292.27C296.811 292.732 296.447 293.11 295.985 293.11ZM295.383 302V294.944H296.573V302H295.383ZM299.088 302V294.944H300.278V295.742C300.852 295.112 301.58 294.664 302.63 294.664C304.212 294.664 305.388 295.728 305.388 297.73V302H304.198V297.772C304.198 296.512 303.484 295.784 302.392 295.784C301.37 295.784 300.726 296.372 300.278 297.114V302H299.088ZM308.385 293.11C307.923 293.11 307.545 292.732 307.545 292.27C307.545 291.822 307.923 291.444 308.385 291.444C308.847 291.444 309.211 291.822 309.211 292.27C309.211 292.732 308.847 293.11 308.385 293.11ZM307.783 302V294.944H308.973V302H307.783ZM311.895 299.634V296.022H310.565V294.944H311.895V293.18H313.099V294.944H315.549V296.022H313.099V299.634C313.099 300.74 313.659 301.048 314.513 301.048C314.975 301.048 315.297 300.992 315.563 300.88V301.944C315.227 302.084 314.849 302.14 314.345 302.14C312.777 302.14 311.895 301.356 311.895 299.634ZM317.969 293.11C317.507 293.11 317.129 292.732 317.129 292.27C317.129 291.822 317.507 291.444 317.969 291.444C318.431 291.444 318.795 291.822 318.795 292.27C318.795 292.732 318.431 293.11 317.969 293.11ZM317.367 302V294.944H318.557V302H317.367ZM322.991 302.196C321.605 302.196 320.667 301.426 320.667 300.222C320.667 299.158 321.479 298.402 322.977 298.15L325.357 297.758V297.268C325.357 296.288 324.657 295.728 323.649 295.728C322.837 295.728 322.179 296.106 321.745 296.708L320.849 296.022C321.465 295.182 322.459 294.664 323.691 294.664C325.483 294.664 326.547 295.714 326.547 297.268V302H325.357V301.104C324.825 301.79 323.901 302.196 322.991 302.196ZM321.87 300.18C321.87 300.782 322.361 301.216 323.187 301.216C324.125 301.216 324.895 300.768 325.357 300.012V298.626L323.271 298.976C322.305 299.144 321.87 299.578 321.87 300.18ZM328.934 302V291.5H330.124V302H328.934ZM338.911 300.838C338.253 301.72 337.203 302.28 335.887 302.28C333.507 302.28 332.037 300.53 332.037 298.472C332.037 296.33 333.409 294.664 335.593 294.664C337.511 294.664 338.757 296.008 338.757 297.744C338.757 298.024 338.715 298.29 338.673 298.486H333.255C333.297 300.18 334.375 301.202 335.887 301.202C336.797 301.202 337.567 300.782 338.029 300.152L338.911 300.838ZM335.565 295.672C334.403 295.672 333.591 296.358 333.339 297.576H337.567C337.525 296.54 336.811 295.672 335.565 295.672Z" fill="#161616"/>
<rect width="196" height="32" transform="translate(695 280)" fill="#EEEEEE"/>
<path d="M727.699 302V292.2H732.963V293.32H729.015V296.456H732.403V297.562H729.015V302H727.699ZM737.638 294.664C739.906 294.664 741.46 296.414 741.46 298.472C741.46 300.53 739.906 302.28 737.638 302.28C735.356 302.28 733.816 300.53 733.816 298.472C733.816 296.414 735.356 294.664 737.638 294.664ZM737.652 301.16C739.122 301.16 740.2 299.928 740.2 298.472C740.2 297.002 739.122 295.784 737.652 295.784C736.14 295.784 735.062 297.002 735.062 298.472C735.062 299.942 736.14 301.16 737.652 301.16ZM743.373 302V294.944H744.563V295.826C745.081 295.21 745.725 294.804 746.621 294.804C746.845 294.804 747.055 294.832 747.223 294.888V296.05C747.013 295.994 746.803 295.966 746.523 295.966C745.599 295.966 744.997 296.442 744.563 297.156V302H743.373ZM748.938 302V294.944H750.128V295.714C750.66 295.098 751.36 294.664 752.34 294.664C753.362 294.664 754.202 295.126 754.636 296.022C755.196 295.252 755.938 294.664 757.156 294.664C758.668 294.664 759.774 295.672 759.774 297.59V302H758.584V297.632C758.584 296.456 757.926 295.784 756.918 295.784C756.022 295.784 755.392 296.288 754.93 297.114C754.944 297.268 754.958 297.422 754.958 297.59V302H753.768V297.632C753.768 296.456 753.124 295.784 752.102 295.784C751.136 295.784 750.534 296.386 750.128 297.114V302H748.938ZM764.09 302.196C762.704 302.196 761.766 301.426 761.766 300.222C761.766 299.158 762.578 298.402 764.076 298.15L766.456 297.758V297.268C766.456 296.288 765.756 295.728 764.748 295.728C763.936 295.728 763.278 296.106 762.844 296.708L761.948 296.022C762.564 295.182 763.558 294.664 764.79 294.664C766.582 294.664 767.646 295.714 767.646 297.268V302H766.456V301.104C765.924 301.79 765 302.196 764.09 302.196ZM762.97 300.18C762.97 300.782 763.46 301.216 764.286 301.216C765.224 301.216 765.994 300.768 766.456 300.012V298.626L764.37 298.976C763.404 299.144 762.97 299.578 762.97 300.18ZM770.439 299.634V296.022H769.109V294.944H770.439V293.18H771.643V294.944H774.093V296.022H771.643V299.634C771.643 300.74 772.203 301.048 773.057 301.048C773.519 301.048 773.841 300.992 774.107 300.88V301.944C773.771 302.084 773.393 302.14 772.889 302.14C771.321 302.14 770.439 301.356 770.439 299.634ZM776.514 293.11C776.052 293.11 775.674 292.732 775.674 292.27C775.674 291.822 776.052 291.444 776.514 291.444C776.976 291.444 777.34 291.822 777.34 292.27C777.34 292.732 776.976 293.11 776.514 293.11ZM775.912 302V294.944H777.102V302H775.912ZM782.837 294.664C785.105 294.664 786.659 296.414 786.659 298.472C786.659 300.53 785.105 302.28 782.837 302.28C780.555 302.28 779.015 300.53 779.015 298.472C779.015 296.414 780.555 294.664 782.837 294.664ZM782.851 301.16C784.321 301.16 785.399 299.928 785.399 298.472C785.399 297.002 784.321 295.784 782.851 295.784C781.339 295.784 780.261 297.002 780.261 298.472C780.261 299.942 781.339 301.16 782.851 301.16ZM788.573 302V294.944H789.763V295.742C790.337 295.112 791.065 294.664 792.115 294.664C793.697 294.664 794.873 295.728 794.873 297.73V302H793.683V297.772C793.683 296.512 792.969 295.784 791.877 295.784C790.855 295.784 790.211 296.372 789.763 297.114V302H788.573ZM804.289 301.16C805.157 301.16 805.871 300.74 806.305 300.124L807.243 300.838C806.585 301.72 805.563 302.28 804.275 302.28C801.937 302.28 800.439 300.53 800.439 298.472C800.439 296.414 801.937 294.664 804.275 294.664C805.549 294.664 806.585 295.238 807.243 296.106L806.305 296.82C805.871 296.204 805.157 295.784 804.275 295.784C802.763 295.784 801.685 296.974 801.685 298.472C801.685 299.984 802.763 301.16 804.289 301.16ZM811.822 294.664C814.09 294.664 815.644 296.414 815.644 298.472C815.644 300.53 814.09 302.28 811.822 302.28C809.54 302.28 808 300.53 808 298.472C808 296.414 809.54 294.664 811.822 294.664ZM811.836 301.16C813.306 301.16 814.384 299.928 814.384 298.472C814.384 297.002 813.306 295.784 811.836 295.784C810.324 295.784 809.246 297.002 809.246 298.472C809.246 299.942 810.324 301.16 811.836 301.16ZM817.557 302V294.944H818.747V295.742C819.321 295.112 820.049 294.664 821.099 294.664C822.681 294.664 823.857 295.728 823.857 297.73V302H822.667V297.772C822.667 296.512 821.953 295.784 820.861 295.784C819.839 295.784 819.195 296.372 818.747 297.114V302H817.557ZM826.658 299.634V296.022H825.328V294.944H826.658V293.18H827.862V294.944H830.312V296.022H827.862V299.634C827.862 300.74 828.422 301.048 829.276 301.048C829.738 301.048 830.06 300.992 830.326 300.88V301.944C829.99 302.084 829.612 302.14 829.108 302.14C827.54 302.14 826.658 301.356 826.658 299.634ZM832.733 293.11C832.271 293.11 831.893 292.732 831.893 292.27C831.893 291.822 832.271 291.444 832.733 291.444C833.195 291.444 833.559 291.822 833.559 292.27C833.559 292.732 833.195 293.11 832.733 293.11ZM832.131 302V294.944H833.321V302H832.131ZM835.836 302V294.944H837.026V295.742C837.6 295.112 838.328 294.664 839.378 294.664C840.96 294.664 842.136 295.728 842.136 297.73V302H840.946V297.772C840.946 296.512 840.232 295.784 839.14 295.784C838.118 295.784 837.474 296.372 837.026 297.114V302H835.836ZM849.445 298.976V294.944H850.635V298.934C850.635 301.048 849.417 302.28 847.499 302.28C845.595 302.28 844.377 301.048 844.377 298.934V294.944H845.567V298.976C845.567 300.362 846.309 301.16 847.513 301.16C848.689 301.16 849.445 300.362 849.445 298.976ZM859.253 300.838C858.595 301.72 857.545 302.28 856.229 302.28C853.849 302.28 852.379 300.53 852.379 298.472C852.379 296.33 853.751 294.664 855.935 294.664C857.853 294.664 859.099 296.008 859.099 297.744C859.099 298.024 859.057 298.29 859.015 298.486H853.597C853.639 300.18 854.717 301.202 856.229 301.202C857.139 301.202 857.909 300.782 858.371 300.152L859.253 300.838ZM855.907 295.672C854.745 295.672 853.933 296.358 853.681 297.576H857.909C857.867 296.54 857.153 295.672 855.907 295.672Z" fill="#161616"/>
<path d="M17.3336 194V184.2H20.5676C22.7236 184.2 24.0396 185.306 24.0396 187.126C24.0396 188.932 22.7236 190.038 20.5676 190.038H19.3216V194H17.3336ZM20.6516 185.852H19.3216V188.386H20.6516C21.4916 188.386 21.9956 187.896 21.9956 187.098C21.9956 186.356 21.4916 185.852 20.6516 185.852ZM25.4185 194V186.944H27.1965V187.644C27.6585 187.168 28.2605 186.804 29.0585 186.804C29.2965 186.804 29.5065 186.846 29.6745 186.902V188.652C29.4505 188.596 29.2125 188.554 28.8905 188.554C28.0225 188.554 27.4625 189.03 27.1965 189.478V194H25.4185ZM32.002 185.712C31.372 185.712 30.84 185.18 30.84 184.55C30.84 183.92 31.372 183.388 32.002 183.388C32.632 183.388 33.15 183.92 33.15 184.55C33.15 185.18 32.632 185.712 32.002 185.712ZM31.106 194V186.944H32.884V194H31.106ZM34.3044 192.978L35.4804 191.914C35.9144 192.46 36.4324 192.852 37.1044 192.852C37.6784 192.852 37.9724 192.516 37.9724 192.096C37.9724 190.864 34.5984 191.326 34.5984 188.848C34.5984 187.602 35.6484 186.664 37.1184 186.664C38.1964 186.664 39.1764 187.182 39.6804 187.868L38.5044 188.904C38.1404 188.456 37.6784 188.092 37.1324 188.092C36.5724 188.092 36.3064 188.4 36.3064 188.764C36.3064 189.968 39.6804 189.548 39.6804 191.984C39.6524 193.468 38.4624 194.28 37.1324 194.28C35.8724 194.28 34.9764 193.776 34.3044 192.978ZM47.7875 192.852C47.1295 193.734 46.0375 194.28 44.7075 194.28C42.2015 194.28 40.7875 192.53 40.7875 190.472C40.7875 188.386 42.1035 186.664 44.4135 186.664C46.3735 186.664 47.6615 187.994 47.6615 189.842C47.6615 190.234 47.6055 190.598 47.5495 190.836H42.6075C42.7755 192.152 43.5875 192.684 44.6935 192.684C45.4635 192.684 46.1355 192.348 46.5135 191.844L47.7875 192.852ZM44.3715 188.12C43.4615 188.12 42.8595 188.624 42.6635 189.548H45.9115C45.8835 188.834 45.3655 188.12 44.3715 188.12ZM4.85785 214.472C4.85785 212.414 6.21585 210.664 8.44185 210.664C9.39385 210.664 10.0799 210.958 10.6259 211.504V207.5H12.4179V218H10.6259V217.44C10.0799 217.986 9.39385 218.28 8.44185 218.28C6.21585 218.28 4.85785 216.53 4.85785 214.472ZM6.71985 214.472C6.71985 215.704 7.48985 216.6 8.69385 216.6C9.49185 216.6 10.1499 216.264 10.6259 215.62V213.324C10.1499 212.68 9.49185 212.344 8.69385 212.344C7.48985 212.344 6.71985 213.24 6.71985 214.472ZM21.0454 216.852C20.3874 217.734 19.2954 218.28 17.9654 218.28C15.4594 218.28 14.0454 216.53 14.0454 214.472C14.0454 212.386 15.3614 210.664 17.6714 210.664C19.6314 210.664 20.9194 211.994 20.9194 213.842C20.9194 214.234 20.8634 214.598 20.8074 214.836H15.8654C16.0334 216.152 16.8454 216.684 17.9514 216.684C18.7214 216.684 19.3934 216.348 19.7714 215.844L21.0454 216.852ZM17.6294 212.12C16.7194 212.12 16.1174 212.624 15.9214 213.548H19.1694C19.1414 212.834 18.6234 212.12 17.6294 212.12ZM26.4302 221.444V210.944H28.2082V211.518C28.7542 210.972 29.4402 210.664 30.4062 210.664C32.6462 210.664 33.9902 212.414 33.9902 214.472C33.9902 216.53 32.6462 218.28 30.4062 218.28C29.4402 218.28 28.7542 217.972 28.2082 217.426V221.444H26.4302ZM30.1542 212.344C29.3282 212.344 28.6562 212.708 28.2082 213.366V215.578C28.6842 216.25 29.3422 216.6 30.1542 216.6C31.3582 216.6 32.1422 215.704 32.1422 214.472C32.1422 213.24 31.3582 212.344 30.1542 212.344ZM39.0461 210.664C41.3421 210.664 42.9101 212.358 42.9101 214.472C42.9101 216.586 41.3421 218.28 39.0461 218.28C36.7501 218.28 35.1821 216.586 35.1821 214.472C35.1821 212.358 36.7501 210.664 39.0461 210.664ZM39.0741 216.6C40.2081 216.6 41.0621 215.69 41.0621 214.472C41.0621 213.24 40.2081 212.344 39.0741 212.344C37.8981 212.344 37.0301 213.24 37.0301 214.472C37.0301 215.704 37.8981 216.6 39.0741 216.6ZM43.6834 216.978L44.8594 215.914C45.2934 216.46 45.8114 216.852 46.4834 216.852C47.0574 216.852 47.3514 216.516 47.3514 216.096C47.3514 214.864 43.9774 215.326 43.9774 212.848C43.9774 211.602 45.0274 210.664 46.4974 210.664C47.5754 210.664 48.5554 211.182 49.0594 211.868L47.8834 212.904C47.5194 212.456 47.0574 212.092 46.5114 212.092C45.9514 212.092 45.6854 212.4 45.6854 212.764C45.6854 213.968 49.0594 213.548 49.0594 215.984C49.0314 217.468 47.8414 218.28 46.5114 218.28C45.2514 218.28 44.3554 217.776 43.6834 216.978ZM51.2552 215.424V212.54H49.9392V210.944H51.2552V209.18H53.0472V210.944H55.2032V212.54H53.0472V215.424C53.0472 216.208 53.4672 216.516 54.1672 216.516C54.6572 216.516 54.9792 216.46 55.2172 216.362V217.916C54.8672 218.07 54.4472 218.14 53.8592 218.14C52.0952 218.14 51.2552 217.146 51.2552 215.424ZM63.1547 216.852C62.4967 217.734 61.4047 218.28 60.0747 218.28C57.5687 218.28 56.1547 216.53 56.1547 214.472C56.1547 212.386 57.4707 210.664 59.7807 210.664C61.7407 210.664 63.0287 211.994 63.0287 213.842C63.0287 214.234 62.9727 214.598 62.9167 214.836H57.9747C58.1427 216.152 58.9547 216.684 60.0607 216.684C60.8307 216.684 61.5027 216.348 61.8807 215.844L63.1547 216.852ZM59.7387 212.12C58.8287 212.12 58.2267 212.624 58.0307 213.548H61.2787C61.2507 212.834 60.7327 212.12 59.7387 212.12Z" fill="#000091"/>
<rect x="79.5" y="39" width="164" height="144" rx="8" fill="#E8EDFF"/>
<path d="M123.266 73V63.2H126.5C128.656 63.2 129.972 64.306 129.972 66.126C129.972 67.932 128.656 69.038 126.5 69.038H125.254V73H123.266ZM126.584 64.852H125.254V67.386H126.584C127.424 67.386 127.928 66.896 127.928 66.098C127.928 65.356 127.424 64.852 126.584 64.852ZM133.093 73.21C131.679 73.21 130.713 72.398 130.713 71.096C130.713 70.032 131.539 69.234 133.051 68.982L135.207 68.618V68.436C135.207 67.694 134.647 67.218 133.835 67.218C133.149 67.218 132.617 67.54 132.239 68.058L130.937 67.064C131.567 66.196 132.603 65.664 133.891 65.664C135.935 65.664 136.985 66.882 136.985 68.436V73H135.207V72.314C134.759 72.86 133.919 73.21 133.093 73.21ZM132.477 71.012C132.477 71.488 132.855 71.796 133.457 71.796C134.269 71.796 134.857 71.418 135.207 70.858V69.864L133.527 70.144C132.785 70.27 132.477 70.578 132.477 71.012ZM139.021 73V65.944H140.799V66.644C141.261 66.168 141.863 65.804 142.661 65.804C142.899 65.804 143.109 65.846 143.277 65.902V67.652C143.053 67.596 142.815 67.554 142.493 67.554C141.625 67.554 141.065 68.03 140.799 68.478V73H139.021ZM147.796 71.6C148.496 71.6 149.056 71.278 149.392 70.788L150.778 71.852C150.12 72.72 149.084 73.28 147.796 73.28C145.36 73.28 143.904 71.53 143.904 69.472C143.904 67.414 145.36 65.664 147.796 65.664C149.084 65.664 150.12 66.224 150.778 67.092L149.392 68.156C149.056 67.666 148.496 67.344 147.768 67.344C146.606 67.344 145.752 68.24 145.752 69.472C145.752 70.718 146.606 71.6 147.796 71.6ZM155.192 65.664C157.488 65.664 159.056 67.358 159.056 69.472C159.056 71.586 157.488 73.28 155.192 73.28C152.896 73.28 151.328 71.586 151.328 69.472C151.328 67.358 152.896 65.664 155.192 65.664ZM155.22 71.6C156.354 71.6 157.208 70.69 157.208 69.472C157.208 68.24 156.354 67.344 155.22 67.344C154.044 67.344 153.176 68.24 153.176 69.472C153.176 70.704 154.044 71.6 155.22 71.6ZM165.325 69.948V65.944H167.117V69.864C167.117 71.978 165.885 73.28 163.813 73.28C161.741 73.28 160.523 71.978 160.523 69.864V65.944H162.315V69.948C162.315 70.97 162.847 71.6 163.827 71.6C164.793 71.6 165.325 70.97 165.325 69.948ZM169.085 73V65.944H170.863V66.644C171.325 66.168 171.927 65.804 172.725 65.804C172.963 65.804 173.173 65.846 173.341 65.902V67.652C173.117 67.596 172.879 67.554 172.557 67.554C171.689 67.554 171.129 68.03 170.863 68.478V73H169.085ZM174.157 71.978L175.333 70.914C175.767 71.46 176.285 71.852 176.957 71.852C177.531 71.852 177.825 71.516 177.825 71.096C177.825 69.864 174.451 70.326 174.451 67.848C174.451 66.602 175.501 65.664 176.971 65.664C178.049 65.664 179.029 66.182 179.533 66.868L178.357 67.904C177.993 67.456 177.531 67.092 176.985 67.092C176.425 67.092 176.159 67.4 176.159 67.764C176.159 68.968 179.533 68.548 179.533 70.984C179.505 72.468 178.315 73.28 176.985 73.28C175.725 73.28 174.829 72.776 174.157 71.978ZM184.441 69.472C184.441 67.414 185.799 65.664 188.025 65.664C188.977 65.664 189.663 65.958 190.209 66.504V62.5H192.001V73H190.209V72.44C189.663 72.986 188.977 73.28 188.025 73.28C185.799 73.28 184.441 71.53 184.441 69.472ZM186.303 69.472C186.303 70.704 187.073 71.6 188.277 71.6C189.075 71.6 189.733 71.264 190.209 70.62V68.324C189.733 67.68 189.075 67.344 188.277 67.344C187.073 67.344 186.303 68.24 186.303 69.472ZM200.628 71.852C199.97 72.734 198.878 73.28 197.548 73.28C195.042 73.28 193.628 71.53 193.628 69.472C193.628 67.386 194.944 65.664 197.254 65.664C199.214 65.664 200.502 66.994 200.502 68.842C200.502 69.234 200.446 69.598 200.39 69.836H195.448C195.616 71.152 196.428 71.684 197.534 71.684C198.304 71.684 198.976 71.348 199.354 70.844L200.628 71.852ZM197.212 67.12C196.302 67.12 195.7 67.624 195.504 68.548H198.752C198.724 67.834 198.206 67.12 197.212 67.12ZM92.2839 89.944H93.5999V89.202C93.5999 87.704 94.5939 86.5 96.3579 86.5C97.0019 86.5 97.5479 86.654 97.9959 86.892L97.2399 88.376C97.0299 88.222 96.7499 88.096 96.3859 88.096C95.7839 88.096 95.3919 88.516 95.3919 89.16V89.944H97.5479V91.54H95.3919V97H93.5999V91.54H92.2839V89.944ZM101.858 89.664C104.154 89.664 105.722 91.358 105.722 93.472C105.722 95.586 104.154 97.28 101.858 97.28C99.5616 97.28 97.9936 95.586 97.9936 93.472C97.9936 91.358 99.5616 89.664 101.858 89.664ZM101.886 95.6C103.02 95.6 103.874 94.69 103.874 93.472C103.874 92.24 103.02 91.344 101.886 91.344C100.71 91.344 99.8416 92.24 99.8416 93.472C99.8416 94.704 100.71 95.6 101.886 95.6ZM107.343 97V89.944H109.121V90.644C109.583 90.168 110.185 89.804 110.983 89.804C111.221 89.804 111.431 89.846 111.599 89.902V91.652C111.375 91.596 111.137 91.554 110.815 91.554C109.947 91.554 109.387 92.03 109.121 92.478V97H107.343ZM113.031 97V89.944H114.809V90.476C115.285 90.014 115.887 89.664 116.755 89.664C117.651 89.664 118.435 90.056 118.897 90.812C119.401 90.196 120.073 89.664 121.263 89.664C122.719 89.664 123.867 90.672 123.867 92.66V97H122.075V92.73C122.075 91.876 121.613 91.344 120.815 91.344C120.045 91.344 119.625 91.876 119.345 92.352C119.359 92.45 119.359 92.548 119.359 92.66V97H117.567V92.73C117.567 91.876 117.105 91.344 116.307 91.344C115.495 91.344 115.075 91.946 114.809 92.394V97H113.031ZM127.884 97.21C126.47 97.21 125.504 96.398 125.504 95.096C125.504 94.032 126.33 93.234 127.842 92.982L129.998 92.618V92.436C129.998 91.694 129.438 91.218 128.626 91.218C127.94 91.218 127.408 91.54 127.03 92.058L125.728 91.064C126.358 90.196 127.394 89.664 128.682 89.664C130.726 89.664 131.776 90.882 131.776 92.436V97H129.998V96.314C129.55 96.86 128.71 97.21 127.884 97.21ZM127.268 95.012C127.268 95.488 127.646 95.796 128.248 95.796C129.06 95.796 129.648 95.418 129.998 94.858V93.864L128.318 94.144C127.576 94.27 127.268 94.578 127.268 95.012ZM134.26 94.424V91.54H132.944V89.944H134.26V88.18H136.052V89.944H138.208V91.54H136.052V94.424C136.052 95.208 136.472 95.516 137.172 95.516C137.662 95.516 137.984 95.46 138.222 95.362V96.916C137.872 97.07 137.452 97.14 136.864 97.14C135.1 97.14 134.26 96.146 134.26 94.424ZM140.696 88.712C140.066 88.712 139.534 88.18 139.534 87.55C139.534 86.92 140.066 86.388 140.696 86.388C141.326 86.388 141.844 86.92 141.844 87.55C141.844 88.18 141.326 88.712 140.696 88.712ZM139.8 97V89.944H141.578V97H139.8ZM147.07 89.664C149.366 89.664 150.934 91.358 150.934 93.472C150.934 95.586 149.366 97.28 147.07 97.28C144.774 97.28 143.206 95.586 143.206 93.472C143.206 91.358 144.774 89.664 147.07 89.664ZM147.098 95.6C148.232 95.6 149.086 94.69 149.086 93.472C149.086 92.24 148.232 91.344 147.098 91.344C145.922 91.344 145.054 92.24 145.054 93.472C145.054 94.704 145.922 95.6 147.098 95.6ZM152.556 97V89.944H154.334V90.504C154.824 90.028 155.482 89.664 156.42 89.664C157.946 89.664 159.164 90.714 159.164 92.8V97H157.372V92.87C157.372 91.932 156.84 91.344 155.972 91.344C155.076 91.344 154.6 91.946 154.334 92.394V97H152.556ZM171.453 95.852C170.795 96.734 169.703 97.28 168.373 97.28C165.867 97.28 164.453 95.53 164.453 93.472C164.453 91.386 165.769 89.664 168.079 89.664C170.039 89.664 171.327 90.994 171.327 92.842C171.327 93.234 171.271 93.598 171.215 93.836H166.273C166.441 95.152 167.253 95.684 168.359 95.684C169.129 95.684 169.801 95.348 170.179 94.844L171.453 95.852ZM168.037 91.12C167.127 91.12 166.525 91.624 166.329 92.548H169.577C169.549 91.834 169.031 91.12 168.037 91.12ZM173.064 97V89.944H174.842V90.504C175.332 90.028 175.99 89.664 176.928 89.664C178.454 89.664 179.672 90.714 179.672 92.8V97H177.88V92.87C177.88 91.932 177.348 91.344 176.48 91.344C175.584 91.344 175.108 91.946 174.842 92.394V97H173.064ZM187.55 97H185.366L190.294 88.908H185.24V87.2H192.296V88.908L187.55 97ZM196.694 86.92C199.27 86.92 200.474 89.16 200.474 92.1C200.474 95.04 199.27 97.28 196.694 97.28C194.118 97.28 192.914 95.04 192.914 92.1C192.914 89.16 194.118 86.92 196.694 86.92ZM196.694 88.67C195.448 88.67 194.846 90.042 194.846 92.1C194.846 94.172 195.448 95.53 196.694 95.53C197.926 95.53 198.528 94.158 198.528 92.1C198.528 90.028 197.926 88.67 196.694 88.67ZM202.41 99.24H200.758L202.032 95.054H204.034L202.41 99.24ZM211.049 96.986V89.132L209.019 90.28L208.081 88.936L211.105 87.186H212.939V96.986H211.049ZM221.96 94.2C221.96 96.062 220.434 97.28 218.39 97.28C216.542 97.28 215.352 96.468 214.554 95.068L216.206 94.046C216.752 95.124 217.41 95.6 218.376 95.6C219.328 95.6 220.042 95.026 220.042 94.116C220.042 93.22 219.342 92.66 218.306 92.66H216.696V90.98H218.18C219.006 90.98 219.608 90.518 219.608 89.762C219.608 89.02 219.048 88.6 218.278 88.6C217.494 88.6 216.962 89.02 216.556 89.72L215.016 88.768C215.73 87.606 216.836 86.92 218.418 86.92C220.21 86.92 221.54 87.942 221.54 89.552C221.54 90.462 221.148 91.232 220.42 91.736C221.414 92.24 221.96 93.122 221.96 94.2ZM223.778 92.66L224.072 87.2H229.91V88.908H225.878L225.766 90.952H226.522C229.126 90.952 230.274 92.142 230.274 94.046C230.274 96.048 228.706 97.28 226.69 97.28C224.87 97.28 223.666 96.482 222.854 95.068L224.506 94.046C225.066 95.124 225.738 95.6 226.69 95.6C227.656 95.6 228.342 95.026 228.342 94.116C228.342 93.192 227.656 92.66 226.438 92.66H223.778ZM119.734 113.664C122.03 113.664 123.598 115.358 123.598 117.472C123.598 119.586 122.03 121.28 119.734 121.28C117.438 121.28 115.87 119.586 115.87 117.472C115.87 115.358 117.438 113.664 119.734 113.664ZM119.762 119.6C120.896 119.6 121.75 118.69 121.75 117.472C121.75 116.24 120.896 115.344 119.762 115.344C118.586 115.344 117.718 116.24 117.718 117.472C117.718 118.704 118.586 119.6 119.762 119.6ZM129.867 117.948V113.944H131.659V117.864C131.659 119.978 130.427 121.28 128.355 121.28C126.283 121.28 125.065 119.978 125.065 117.864V113.944H126.857V117.948C126.857 118.97 127.389 119.6 128.369 119.6C129.335 119.6 129.867 118.97 129.867 117.948ZM144.051 118.2C144.051 120.062 142.525 121.28 140.481 121.28C138.633 121.28 137.443 120.468 136.645 119.068L138.297 118.046C138.843 119.124 139.501 119.6 140.467 119.6C141.419 119.6 142.133 119.026 142.133 118.116C142.133 117.22 141.433 116.66 140.397 116.66H138.787V114.98H140.271C141.097 114.98 141.699 114.518 141.699 113.762C141.699 113.02 141.139 112.6 140.369 112.6C139.585 112.6 139.053 113.02 138.647 113.72L137.107 112.768C137.821 111.606 138.927 110.92 140.509 110.92C142.301 110.92 143.631 111.942 143.631 113.552C143.631 114.462 143.239 115.232 142.511 115.736C143.505 116.24 144.051 117.122 144.051 118.2ZM147.413 120.986V113.132L145.383 114.28L144.445 112.936L147.469 111.186H149.303V120.986H147.413ZM151.925 116.66L152.219 111.2H158.057V112.908H154.025L153.913 114.952H154.669C157.273 114.952 158.421 116.142 158.421 118.046C158.421 120.048 156.853 121.28 154.837 121.28C153.017 121.28 151.813 120.482 151.001 119.068L152.653 118.046C153.213 119.124 153.885 119.6 154.837 119.6C155.803 119.6 156.489 119.026 156.489 118.116C156.489 117.192 155.803 116.66 154.585 116.66H151.925ZM163.897 121V110.5H165.675V114.504C166.165 114.028 166.823 113.664 167.761 113.664C169.287 113.664 170.505 114.714 170.505 116.8V121H168.713V116.87C168.713 115.932 168.195 115.344 167.313 115.344C166.417 115.344 165.941 115.946 165.675 116.394V121H163.897ZM179.02 119.852C178.362 120.734 177.27 121.28 175.94 121.28C173.434 121.28 172.02 119.53 172.02 117.472C172.02 115.386 173.336 113.664 175.646 113.664C177.606 113.664 178.894 114.994 178.894 116.842C178.894 117.234 178.838 117.598 178.782 117.836H173.84C174.008 119.152 174.82 119.684 175.926 119.684C176.696 119.684 177.368 119.348 177.746 118.844L179.02 119.852ZM175.604 115.12C174.694 115.12 174.092 115.624 173.896 116.548H177.144C177.116 115.834 176.598 115.12 175.604 115.12ZM185.197 117.948V113.944H186.989V117.864C186.989 119.978 185.757 121.28 183.685 121.28C181.613 121.28 180.395 119.978 180.395 117.864V113.944H182.187V117.948C182.187 118.97 182.719 119.6 183.699 119.6C184.665 119.6 185.197 118.97 185.197 117.948ZM188.958 121V113.944H190.736V114.644C191.198 114.168 191.8 113.804 192.598 113.804C192.836 113.804 193.046 113.846 193.214 113.902V115.652C192.99 115.596 192.752 115.554 192.43 115.554C191.562 115.554 191.002 116.03 190.736 116.478V121H188.958ZM200.84 119.852C200.182 120.734 199.09 121.28 197.76 121.28C195.254 121.28 193.84 119.53 193.84 117.472C193.84 115.386 195.156 113.664 197.466 113.664C199.426 113.664 200.714 114.994 200.714 116.842C200.714 117.234 200.658 117.598 200.602 117.836H195.66C195.828 119.152 196.64 119.684 197.746 119.684C198.516 119.684 199.188 119.348 199.566 118.844L200.84 119.852ZM197.424 115.12C196.514 115.12 195.912 115.624 195.716 116.548H198.964C198.936 115.834 198.418 115.12 197.424 115.12ZM201.74 119.978L202.916 118.914C203.35 119.46 203.868 119.852 204.54 119.852C205.114 119.852 205.408 119.516 205.408 119.096C205.408 117.864 202.034 118.326 202.034 115.848C202.034 114.602 203.084 113.664 204.554 113.664C205.632 113.664 206.612 114.182 207.116 114.868L205.94 115.904C205.576 115.456 205.114 115.092 204.568 115.092C204.008 115.092 203.742 115.4 203.742 115.764C203.742 116.968 207.116 116.548 207.116 118.984C207.088 120.468 205.898 121.28 204.568 121.28C203.308 121.28 202.412 120.776 201.74 119.978Z" fill="#161616"/>
<path d="M137.062 150V141.6H138.19V148.968H141.574V150H137.062ZM144.888 150.168C143.7 150.168 142.896 149.508 142.896 148.476C142.896 147.564 143.592 146.916 144.876 146.7L146.916 146.364V145.944C146.916 145.104 146.316 144.624 145.452 144.624C144.756 144.624 144.192 144.948 143.82 145.464L143.052 144.876C143.58 144.156 144.432 143.712 145.488 143.712C147.024 143.712 147.936 144.612 147.936 145.944V150H146.916V149.232C146.46 149.82 145.668 150.168 144.888 150.168ZM143.928 148.44C143.928 148.956 144.348 149.328 145.056 149.328C145.86 149.328 146.52 148.944 146.916 148.296V147.108L145.128 147.408C144.3 147.552 143.928 147.924 143.928 148.44ZM153.469 150V141.6H157.981V142.56H154.597V145.248H157.501V146.196H154.597V150H153.469ZM160.826 150.168C159.638 150.168 158.834 149.508 158.834 148.476C158.834 147.564 159.53 146.916 160.814 146.7L162.854 146.364V145.944C162.854 145.104 162.254 144.624 161.39 144.624C160.694 144.624 160.13 144.948 159.758 145.464L158.99 144.876C159.518 144.156 160.37 143.712 161.426 143.712C162.962 143.712 163.874 144.612 163.874 145.944V150H162.854V149.232C162.398 149.82 161.606 150.168 160.826 150.168ZM159.866 148.44C159.866 148.956 160.286 149.328 160.994 149.328C161.798 149.328 162.458 148.944 162.854 148.296V147.108L161.066 147.408C160.238 147.552 159.866 147.924 159.866 148.44ZM172.196 146.976C172.196 148.74 170.984 150.24 169.088 150.24C168.188 150.24 167.48 149.892 166.94 149.28V150H165.92V141H166.94V144.672C167.48 144.06 168.188 143.712 169.088 143.712C170.984 143.712 172.196 145.212 172.196 146.976ZM168.968 144.672C168.128 144.672 167.384 145.08 166.94 145.788V148.164C167.408 148.884 168.14 149.28 168.968 149.28C170.252 149.28 171.128 148.26 171.128 146.976C171.128 145.692 170.252 144.672 168.968 144.672ZM173.853 150V143.952H174.873V144.708C175.317 144.18 175.869 143.832 176.637 143.832C176.829 143.832 177.009 143.856 177.153 143.904V144.9C176.973 144.852 176.793 144.828 176.553 144.828C175.761 144.828 175.245 145.236 174.873 145.848V150H173.853ZM179.139 142.38C178.743 142.38 178.419 142.056 178.419 141.66C178.419 141.276 178.743 140.952 179.139 140.952C179.535 140.952 179.847 141.276 179.847 141.66C179.847 142.056 179.535 142.38 179.139 142.38ZM178.623 150V143.952H179.643V150H178.623ZM181.811 150V141H182.843V146.784L185.687 143.952H186.995L184.463 146.472L187.043 150H185.783L183.731 147.192L182.843 148.068V150H181.811ZM122.819 163.712C124.763 163.712 126.095 165.212 126.095 166.976C126.095 168.74 124.763 170.24 122.819 170.24C120.863 170.24 119.543 168.74 119.543 166.976C119.543 165.212 120.863 163.712 122.819 163.712ZM122.831 169.28C124.091 169.28 125.015 168.224 125.015 166.976C125.015 165.716 124.091 164.672 122.831 164.672C121.535 164.672 120.611 165.716 120.611 166.976C120.611 168.236 121.535 169.28 122.831 169.28ZM131.946 167.408V163.952H132.966V167.372C132.966 169.184 131.922 170.24 130.278 170.24C128.646 170.24 127.602 169.184 127.602 167.372V163.952H128.622V167.408C128.622 168.596 129.258 169.28 130.29 169.28C131.298 169.28 131.946 168.596 131.946 167.408ZM138.463 170V161.6H140.923C142.603 161.6 143.647 162.524 143.647 163.964C143.647 165.404 142.603 166.316 140.923 166.316H139.591V170H138.463ZM140.947 162.56H139.591V165.356H140.947C141.907 165.356 142.483 164.84 142.483 163.94C142.483 163.088 141.907 162.56 140.947 162.56ZM149.143 161.36C151.759 161.36 153.547 163.4 153.547 165.8C153.547 168.2 151.759 170.24 149.143 170.24C146.515 170.24 144.727 168.2 144.727 165.8C144.727 163.4 146.515 161.36 149.143 161.36ZM149.143 169.184C151.027 169.184 152.383 167.672 152.383 165.8C152.383 163.928 151.027 162.416 149.143 162.416C147.247 162.416 145.891 163.928 145.891 165.8C145.891 167.672 147.247 169.184 149.143 169.184ZM155.49 170V161.6H157.95C159.63 161.6 160.674 162.524 160.674 163.964C160.674 165.404 159.63 166.316 157.95 166.316H156.618V170H155.49ZM157.974 162.56H156.618V165.356H157.974C158.934 165.356 159.51 164.84 159.51 163.94C159.51 163.088 158.934 162.56 157.974 162.56ZM164.979 168.848L165.819 168.08C166.395 168.824 167.067 169.22 167.847 169.22C168.783 169.22 169.323 168.656 169.323 167.888C169.323 165.992 165.339 166.4 165.339 163.628C165.339 162.38 166.371 161.36 167.835 161.36C169.011 161.36 169.875 161.9 170.499 162.728L169.647 163.472C169.155 162.764 168.567 162.368 167.847 162.368C167.019 162.368 166.491 162.884 166.491 163.604C166.491 165.488 170.463 165.056 170.463 167.852C170.463 169.304 169.347 170.228 167.859 170.228C166.623 170.228 165.711 169.76 164.979 168.848ZM175.132 169.28C175.876 169.28 176.488 168.92 176.86 168.392L177.664 169.004C177.1 169.76 176.224 170.24 175.12 170.24C173.116 170.24 171.832 168.74 171.832 166.976C171.832 165.212 173.116 163.712 175.12 163.712C176.212 163.712 177.1 164.204 177.664 164.948L176.86 165.56C176.488 165.032 175.876 164.672 175.12 164.672C173.824 164.672 172.9 165.692 172.9 166.976C172.9 168.272 173.824 169.28 175.132 169.28ZM179.062 170V161H180.082V164.636C180.574 164.096 181.198 163.712 182.098 163.712C183.454 163.712 184.462 164.624 184.462 166.34V170H183.442V166.376C183.442 165.296 182.842 164.672 181.894 164.672C181.006 164.672 180.466 165.188 180.082 165.812V170H179.062ZM189.276 163.712C191.22 163.712 192.552 165.212 192.552 166.976C192.552 168.74 191.22 170.24 189.276 170.24C187.32 170.24 186 168.74 186 166.976C186 165.212 187.32 163.712 189.276 163.712ZM189.288 169.28C190.548 169.28 191.472 168.224 191.472 166.976C191.472 165.716 190.548 164.672 189.288 164.672C187.992 164.672 187.068 165.716 187.068 166.976C187.068 168.236 187.992 169.28 189.288 169.28ZM197.01 163.712C198.954 163.712 200.286 165.212 200.286 166.976C200.286 168.74 198.954 170.24 197.01 170.24C195.054 170.24 193.734 168.74 193.734 166.976C193.734 165.212 195.054 163.712 197.01 163.712ZM197.022 169.28C198.282 169.28 199.206 168.224 199.206 166.976C199.206 165.716 198.282 164.672 197.022 164.672C195.726 164.672 194.802 165.716 194.802 166.976C194.802 168.236 195.726 169.28 197.022 169.28ZM201.926 170V161H202.946V170H201.926Z" fill="#000091"/>
<rect x="275.5" y="39" width="164" height="144" rx="8" fill="#BAFAEE"/>
<path d="M294.698 71.642L296.14 70.312C296.728 71.068 297.512 71.516 298.31 71.516C299.094 71.516 299.57 71.096 299.57 70.396C299.57 68.59 295.118 69.08 295.118 65.762C295.118 64.208 296.406 62.92 298.282 62.92C299.752 62.92 300.872 63.578 301.712 64.572L300.256 65.888C299.682 65.146 299.038 64.656 298.296 64.656C297.596 64.656 297.134 65.104 297.134 65.692C297.134 67.47 301.586 66.966 301.586 70.326C301.558 72.174 300.13 73.28 298.324 73.28C296.672 73.28 295.566 72.678 294.698 71.642ZM308.053 69.948V65.944H309.845V69.864C309.845 71.978 308.613 73.28 306.541 73.28C304.469 73.28 303.251 71.978 303.251 69.864V65.944H305.043V69.948C305.043 70.97 305.575 71.6 306.555 71.6C307.521 71.6 308.053 70.97 308.053 69.948ZM312.709 64.712C312.079 64.712 311.547 64.18 311.547 63.55C311.547 62.92 312.079 62.388 312.709 62.388C313.339 62.388 313.857 62.92 313.857 63.55C313.857 64.18 313.339 64.712 312.709 64.712ZM311.813 73V65.944H313.591V73H311.813ZM314.715 65.944H316.619L318.453 70.984L320.273 65.944H322.191L319.615 73H317.277L314.715 65.944ZM324.207 64.712C323.577 64.712 323.045 64.18 323.045 63.55C323.045 62.92 323.577 62.388 324.207 62.388C324.837 62.388 325.355 62.92 325.355 63.55C325.355 64.18 324.837 64.712 324.207 64.712ZM323.311 73V65.944H325.089V73H323.311ZM330.491 69.472C330.491 67.414 331.849 65.664 334.075 65.664C335.027 65.664 335.713 65.958 336.259 66.504V62.5H338.051V73H336.259V72.44C335.713 72.986 335.027 73.28 334.075 73.28C331.849 73.28 330.491 71.53 330.491 69.472ZM332.353 69.472C332.353 70.704 333.123 71.6 334.327 71.6C335.125 71.6 335.783 71.264 336.259 70.62V68.324C335.783 67.68 335.125 67.344 334.327 67.344C333.123 67.344 332.353 68.24 332.353 69.472ZM346.678 71.852C346.02 72.734 344.928 73.28 343.598 73.28C341.092 73.28 339.678 71.53 339.678 69.472C339.678 67.386 340.994 65.664 343.304 65.664C345.264 65.664 346.552 66.994 346.552 68.842C346.552 69.234 346.496 69.598 346.44 69.836H341.498C341.666 71.152 342.478 71.684 343.584 71.684C344.354 71.684 345.026 71.348 345.404 70.844L346.678 71.852ZM343.262 67.12C342.352 67.12 341.75 67.624 341.554 68.548H344.802C344.774 67.834 344.256 67.12 343.262 67.12ZM351.811 73V71.292L355.171 67.988C355.927 67.218 356.403 66.686 356.403 65.888C356.403 65.076 355.843 64.6 355.073 64.6C354.135 64.6 353.561 65.174 353.043 66.042L351.503 65.104C352.329 63.76 353.547 62.92 355.255 62.92C356.963 62.92 358.335 64.012 358.335 65.692C358.335 67.036 357.453 68.072 356.487 69.01L354.121 71.292H358.587V73H351.811ZM364.231 73V65.944H366.009V66.476C366.485 66.014 367.087 65.664 367.955 65.664C368.851 65.664 369.635 66.056 370.097 66.812C370.601 66.196 371.273 65.664 372.463 65.664C373.919 65.664 375.067 66.672 375.067 68.66V73H373.275V68.73C373.275 67.876 372.813 67.344 372.015 67.344C371.245 67.344 370.825 67.876 370.545 68.352C370.559 68.45 370.559 68.548 370.559 68.66V73H368.767V68.73C368.767 67.876 368.305 67.344 367.507 67.344C366.695 67.344 366.275 67.946 366.009 68.394V73H364.231ZM380.456 65.664C382.752 65.664 384.32 67.358 384.32 69.472C384.32 71.586 382.752 73.28 380.456 73.28C378.16 73.28 376.592 71.586 376.592 69.472C376.592 67.358 378.16 65.664 380.456 65.664ZM380.484 71.6C381.618 71.6 382.472 70.69 382.472 69.472C382.472 68.24 381.618 67.344 380.484 67.344C379.308 67.344 378.44 68.24 378.44 69.472C378.44 70.704 379.308 71.6 380.484 71.6ZM385.506 69.472C385.506 67.414 386.864 65.664 389.09 65.664C390.042 65.664 390.728 65.958 391.274 66.504V62.5H393.066V73H391.274V72.44C390.728 72.986 390.042 73.28 389.09 73.28C386.864 73.28 385.506 71.53 385.506 69.472ZM387.368 69.472C387.368 70.704 388.138 71.6 389.342 71.6C390.14 71.6 390.798 71.264 391.274 70.62V68.324C390.798 67.68 390.14 67.344 389.342 67.344C388.138 67.344 387.368 68.24 387.368 69.472ZM399.846 69.948V65.944H401.638V69.864C401.638 71.978 400.406 73.28 398.334 73.28C396.262 73.28 395.044 71.978 395.044 69.864V65.944H396.836V69.948C396.836 70.97 397.368 71.6 398.348 71.6C399.314 71.6 399.846 70.97 399.846 69.948ZM403.606 73V62.5H405.384V73H403.606ZM414.012 71.852C413.354 72.734 412.262 73.28 410.932 73.28C408.426 73.28 407.012 71.53 407.012 69.472C407.012 67.386 408.328 65.664 410.638 65.664C412.598 65.664 413.886 66.994 413.886 68.842C413.886 69.234 413.83 69.598 413.774 69.836H408.832C409 71.152 409.812 71.684 410.918 71.684C411.688 71.684 412.36 71.348 412.738 70.844L414.012 71.852ZM410.596 67.12C409.686 67.12 409.084 67.624 408.888 68.548H412.136C412.108 67.834 411.59 67.12 410.596 67.12ZM414.912 71.978L416.088 70.914C416.522 71.46 417.04 71.852 417.712 71.852C418.286 71.852 418.58 71.516 418.58 71.096C418.58 69.864 415.206 70.326 415.206 67.848C415.206 66.602 416.256 65.664 417.726 65.664C418.804 65.664 419.784 66.182 420.288 66.868L419.112 67.904C418.748 67.456 418.286 67.092 417.74 67.092C417.18 67.092 416.914 67.4 416.914 67.764C416.914 68.968 420.288 68.548 420.288 70.984C420.26 72.468 419.07 73.28 417.74 73.28C416.48 73.28 415.584 72.776 414.912 71.978ZM303.177 95.6C303.877 95.6 304.437 95.278 304.773 94.788L306.159 95.852C305.501 96.72 304.465 97.28 303.177 97.28C300.741 97.28 299.285 95.53 299.285 93.472C299.285 91.414 300.741 89.664 303.177 89.664C304.465 89.664 305.501 90.224 306.159 91.092L304.773 92.156C304.437 91.666 303.877 91.344 303.149 91.344C301.987 91.344 301.133 92.24 301.133 93.472C301.133 94.718 301.987 95.6 303.177 95.6ZM310.572 89.664C312.868 89.664 314.436 91.358 314.436 93.472C314.436 95.586 312.868 97.28 310.572 97.28C308.276 97.28 306.708 95.586 306.708 93.472C306.708 91.358 308.276 89.664 310.572 89.664ZM310.6 95.6C311.734 95.6 312.588 94.69 312.588 93.472C312.588 92.24 311.734 91.344 310.6 91.344C309.424 91.344 308.556 92.24 308.556 93.472C308.556 94.704 309.424 95.6 310.6 95.6ZM316.058 97V89.944H317.836V90.476C318.312 90.014 318.914 89.664 319.782 89.664C320.678 89.664 321.462 90.056 321.924 90.812C322.428 90.196 323.1 89.664 324.29 89.664C325.746 89.664 326.894 90.672 326.894 92.66V97H325.102V92.73C325.102 91.876 324.64 91.344 323.842 91.344C323.072 91.344 322.652 91.876 322.372 92.352C322.386 92.45 322.386 92.548 322.386 92.66V97H320.594V92.73C320.594 91.876 320.132 91.344 319.334 91.344C318.522 91.344 318.102 91.946 317.836 92.394V97H316.058ZM328.923 100.444V89.944H330.701V90.518C331.247 89.972 331.933 89.664 332.899 89.664C335.139 89.664 336.483 91.414 336.483 93.472C336.483 95.53 335.139 97.28 332.899 97.28C331.933 97.28 331.247 96.972 330.701 96.426V100.444H328.923ZM332.647 91.344C331.821 91.344 331.149 91.708 330.701 92.366V94.578C331.177 95.25 331.835 95.6 332.647 95.6C333.851 95.6 334.635 94.704 334.635 93.472C334.635 92.24 333.851 91.344 332.647 91.344ZM338.111 97V86.5H339.889V97H338.111ZM346.123 88.824H344.415L345.871 86.5H347.803L346.123 88.824ZM348.517 95.852C347.859 96.734 346.767 97.28 345.437 97.28C342.931 97.28 341.517 95.53 341.517 93.472C341.517 91.386 342.833 89.664 345.143 89.664C347.103 89.664 348.391 90.994 348.391 92.842C348.391 93.234 348.335 93.598 348.279 93.836H343.337C343.505 95.152 344.317 95.684 345.423 95.684C346.193 95.684 346.865 95.348 347.243 94.844L348.517 95.852ZM345.101 91.12C344.191 91.12 343.589 91.624 343.393 92.548H346.641C346.613 91.834 346.095 91.12 345.101 91.12ZM350.128 97V89.944H351.906V90.476C352.382 90.014 352.984 89.664 353.852 89.664C354.748 89.664 355.532 90.056 355.994 90.812C356.498 90.196 357.17 89.664 358.36 89.664C359.816 89.664 360.964 90.672 360.964 92.66V97H359.172V92.73C359.172 91.876 358.71 91.344 357.912 91.344C357.142 91.344 356.722 91.876 356.442 92.352C356.456 92.45 356.456 92.548 356.456 92.66V97H354.664V92.73C354.664 91.876 354.202 91.344 353.404 91.344C352.592 91.344 352.172 91.946 351.906 92.394V97H350.128ZM369.49 95.852C368.832 96.734 367.74 97.28 366.41 97.28C363.904 97.28 362.49 95.53 362.49 93.472C362.49 91.386 363.806 89.664 366.116 89.664C368.076 89.664 369.364 90.994 369.364 92.842C369.364 93.234 369.308 93.598 369.252 93.836H364.31C364.478 95.152 365.29 95.684 366.396 95.684C367.166 95.684 367.838 95.348 368.216 94.844L369.49 95.852ZM366.074 91.12C365.164 91.12 364.562 91.624 364.366 92.548H367.614C367.586 91.834 367.068 91.12 366.074 91.12ZM371.101 97V89.944H372.879V90.504C373.369 90.028 374.027 89.664 374.965 89.664C376.491 89.664 377.709 90.714 377.709 92.8V97H375.917V92.87C375.917 91.932 375.385 91.344 374.517 91.344C373.621 91.344 373.145 91.946 372.879 92.394V97H371.101ZM380.176 94.424V91.54H378.86V89.944H380.176V88.18H381.968V89.944H384.124V91.54H381.968V94.424C381.968 95.208 382.388 95.516 383.088 95.516C383.578 95.516 383.9 95.46 384.138 95.362V96.916C383.788 97.07 383.368 97.14 382.78 97.14C381.016 97.14 380.176 96.146 380.176 94.424ZM387.704 97.21C386.29 97.21 385.324 96.398 385.324 95.096C385.324 94.032 386.15 93.234 387.662 92.982L389.818 92.618V92.436C389.818 91.694 389.258 91.218 388.446 91.218C387.76 91.218 387.228 91.54 386.85 92.058L385.548 91.064C386.178 90.196 387.214 89.664 388.502 89.664C390.546 89.664 391.596 90.882 391.596 92.436V97H389.818V96.314C389.37 96.86 388.53 97.21 387.704 97.21ZM387.088 95.012C387.088 95.488 387.466 95.796 388.068 95.796C388.88 95.796 389.468 95.418 389.818 94.858V93.864L388.138 94.144C387.396 94.27 387.088 94.578 387.088 95.012ZM394.528 88.712C393.898 88.712 393.366 88.18 393.366 87.55C393.366 86.92 393.898 86.388 394.528 86.388C395.158 86.388 395.676 86.92 395.676 87.55C395.676 88.18 395.158 88.712 394.528 88.712ZM393.632 97V89.944H395.41V97H393.632ZM397.543 97V89.944H399.321V90.644C399.783 90.168 400.385 89.804 401.183 89.804C401.421 89.804 401.631 89.846 401.799 89.902V91.652C401.575 91.596 401.337 91.554 401.015 91.554C400.147 91.554 399.587 92.03 399.321 92.478V97H397.543ZM409.425 95.852C408.767 96.734 407.675 97.28 406.345 97.28C403.839 97.28 402.425 95.53 402.425 93.472C402.425 91.386 403.741 89.664 406.051 89.664C408.011 89.664 409.299 90.994 409.299 92.842C409.299 93.234 409.243 93.598 409.187 93.836H404.245C404.413 95.152 405.225 95.684 406.331 95.684C407.101 95.684 407.773 95.348 408.151 94.844L409.425 95.852ZM406.009 91.12C405.099 91.12 404.497 91.624 404.301 92.548H407.549C407.521 91.834 407.003 91.12 406.009 91.12ZM410.325 95.978L411.501 94.914C411.935 95.46 412.453 95.852 413.125 95.852C413.699 95.852 413.993 95.516 413.993 95.096C413.993 93.864 410.619 94.326 410.619 91.848C410.619 90.602 411.669 89.664 413.139 89.664C414.217 89.664 415.197 90.182 415.701 90.868L414.525 91.904C414.161 91.456 413.699 91.092 413.153 91.092C412.593 91.092 412.327 91.4 412.327 91.764C412.327 92.968 415.701 92.548 415.701 94.984C415.673 96.468 414.483 97.28 413.153 97.28C411.893 97.28 410.997 96.776 410.325 95.978ZM332.046 121.21C330.632 121.21 329.666 120.398 329.666 119.096C329.666 118.032 330.492 117.234 332.004 116.982L334.16 116.618V116.436C334.16 115.694 333.6 115.218 332.788 115.218C332.102 115.218 331.57 115.54 331.192 116.058L329.89 115.064C330.52 114.196 331.556 113.664 332.844 113.664C334.888 113.664 335.938 114.882 335.938 116.436V121H334.16V120.314C333.712 120.86 332.872 121.21 332.046 121.21ZM331.43 119.012C331.43 119.488 331.808 119.796 332.41 119.796C333.222 119.796 333.81 119.418 334.16 118.858V117.864L332.48 118.144C331.738 118.27 331.43 118.578 331.43 119.012ZM342.622 117.948V113.944H344.414V117.864C344.414 119.978 343.182 121.28 341.11 121.28C339.038 121.28 337.82 119.978 337.82 117.864V113.944H339.612V117.948C339.612 118.97 340.144 119.6 341.124 119.6C342.09 119.6 342.622 118.97 342.622 117.948ZM353.544 119.6C354.244 119.6 354.804 119.278 355.14 118.788L356.526 119.852C355.868 120.72 354.832 121.28 353.544 121.28C351.108 121.28 349.652 119.53 349.652 117.472C349.652 115.414 351.108 113.664 353.544 113.664C354.832 113.664 355.868 114.224 356.526 115.092L355.14 116.156C354.804 115.666 354.244 115.344 353.516 115.344C352.354 115.344 351.5 116.24 351.5 117.472C351.5 118.718 352.354 119.6 353.544 119.6ZM357.853 121V110.5H359.631V114.504C360.121 114.028 360.779 113.664 361.717 113.664C363.243 113.664 364.461 114.714 364.461 116.8V121H362.669V116.87C362.669 115.932 362.151 115.344 361.269 115.344C360.373 115.344 359.897 115.946 359.631 116.394V121H357.853ZM369.84 113.664C372.136 113.664 373.704 115.358 373.704 117.472C373.704 119.586 372.136 121.28 369.84 121.28C367.544 121.28 365.976 119.586 365.976 117.472C365.976 115.358 367.544 113.664 369.84 113.664ZM369.868 119.6C371.002 119.6 371.856 118.69 371.856 117.472C371.856 116.24 371.002 115.344 369.868 115.344C368.692 115.344 367.824 116.24 367.824 117.472C367.824 118.704 368.692 119.6 369.868 119.6ZM376.222 112.712C375.592 112.712 375.06 112.18 375.06 111.55C375.06 110.92 375.592 110.388 376.222 110.388C376.852 110.388 377.37 110.92 377.37 111.55C377.37 112.18 376.852 112.712 376.222 112.712ZM375.326 121V113.944H377.104V121H375.326ZM380.51 121H378.466L380.958 117.374L378.606 113.944H380.636L382.092 116.114L383.548 113.944H385.592L383.226 117.374L385.718 121H383.688L382.092 118.634L380.51 121Z" fill="#161616"/>
<path d="M324.871 170V161.6H325.999V168.968H329.383V170H324.871ZM332.697 170.168C331.509 170.168 330.705 169.508 330.705 168.476C330.705 167.564 331.401 166.916 332.685 166.7L334.725 166.364V165.944C334.725 165.104 334.125 164.624 333.261 164.624C332.565 164.624 332.001 164.948 331.629 165.464L330.861 164.876C331.389 164.156 332.241 163.712 333.297 163.712C334.833 163.712 335.745 164.612 335.745 165.944V170H334.725V169.232C334.269 169.82 333.477 170.168 332.697 170.168ZM331.737 168.44C331.737 168.956 332.157 169.328 332.865 169.328C333.669 169.328 334.329 168.944 334.725 168.296V167.108L332.937 167.408C332.109 167.552 331.737 167.924 331.737 168.44ZM341.277 170V161.6H342.717L345.285 165.836L347.853 161.6H349.293V170H348.165V163.112L345.717 167.12H344.853L342.405 163.112V170H341.277ZM357.019 169.004C356.455 169.76 355.555 170.24 354.427 170.24C352.387 170.24 351.127 168.74 351.127 166.976C351.127 165.14 352.303 163.712 354.175 163.712C355.819 163.712 356.887 164.864 356.887 166.352C356.887 166.592 356.851 166.82 356.815 166.988H352.171C352.207 168.44 353.131 169.316 354.427 169.316C355.207 169.316 355.867 168.956 356.263 168.416L357.019 169.004ZM354.151 164.576C353.155 164.576 352.459 165.164 352.243 166.208H355.867C355.831 165.32 355.219 164.576 354.151 164.576ZM358.076 166.976C358.076 165.212 359.288 163.712 361.184 163.712C362.084 163.712 362.792 164.06 363.332 164.672V161H364.352V170H363.332V169.28C362.792 169.892 362.084 170.24 361.184 170.24C359.288 170.24 358.076 168.74 358.076 166.976ZM359.156 166.976C359.156 168.26 360.02 169.28 361.304 169.28C362.144 169.28 362.888 168.872 363.332 168.164V165.788C362.864 165.068 362.132 164.672 361.304 164.672C360.02 164.672 359.156 165.692 359.156 166.976ZM366.502 170V163.952H367.522V164.636C368.014 164.096 368.638 163.712 369.538 163.712C370.894 163.712 371.902 164.624 371.902 166.34V170H370.882V166.376C370.882 165.296 370.27 164.672 369.334 164.672C368.458 164.672 367.906 165.176 367.522 165.812V170H366.502ZM378.167 167.408V163.952H379.187V167.372C379.187 169.184 378.143 170.24 376.499 170.24C374.867 170.24 373.823 169.184 373.823 167.372V163.952H374.843V167.408C374.843 168.596 375.479 169.28 376.511 169.28C377.519 169.28 378.167 168.596 378.167 167.408ZM381.197 170V163.952H382.217V164.612C382.673 164.084 383.273 163.712 384.113 163.712C384.989 163.712 385.709 164.108 386.081 164.876C386.561 164.216 387.197 163.712 388.241 163.712C389.537 163.712 390.485 164.576 390.485 166.22V170H389.465V166.256C389.465 165.248 388.901 164.672 388.037 164.672C387.269 164.672 386.729 165.104 386.333 165.812C386.345 165.944 386.357 166.076 386.357 166.22V170H385.337V166.256C385.337 165.248 384.785 164.672 383.909 164.672C383.081 164.672 382.565 165.188 382.217 165.812V170H381.197Z" fill="#000091"/>
<rect x="471.5" y="39" width="110" height="144" rx="8" fill="#E8EDFF"/>
<path d="M501.808 73V63.2H505.042C507.198 63.2 508.514 64.306 508.514 66.126C508.514 67.932 507.198 69.038 505.042 69.038H503.796V73H501.808ZM505.126 64.852H503.796V67.386H505.126C505.966 67.386 506.47 66.896 506.47 66.098C506.47 65.356 505.966 64.852 505.126 64.852ZM511.635 73.21C510.221 73.21 509.255 72.398 509.255 71.096C509.255 70.032 510.081 69.234 511.593 68.982L513.749 68.618V68.436C513.749 67.694 513.189 67.218 512.377 67.218C511.691 67.218 511.159 67.54 510.781 68.058L509.479 67.064C510.109 66.196 511.145 65.664 512.433 65.664C514.477 65.664 515.527 66.882 515.527 68.436V73H513.749V72.314C513.301 72.86 512.461 73.21 511.635 73.21ZM511.019 71.012C511.019 71.488 511.397 71.796 511.999 71.796C512.811 71.796 513.399 71.418 513.749 70.858V69.864L512.069 70.144C511.327 70.27 511.019 70.578 511.019 71.012ZM516.947 71.978L518.123 70.914C518.557 71.46 519.075 71.852 519.747 71.852C520.321 71.852 520.615 71.516 520.615 71.096C520.615 69.864 517.241 70.326 517.241 67.848C517.241 66.602 518.291 65.664 519.761 65.664C520.839 65.664 521.819 66.182 522.323 66.868L521.147 67.904C520.783 67.456 520.321 67.092 519.775 67.092C519.215 67.092 518.949 67.4 518.949 67.764C518.949 68.968 522.323 68.548 522.323 70.984C522.295 72.468 521.105 73.28 519.775 73.28C518.515 73.28 517.619 72.776 516.947 71.978ZM523.25 71.978L524.426 70.914C524.86 71.46 525.378 71.852 526.05 71.852C526.624 71.852 526.918 71.516 526.918 71.096C526.918 69.864 523.544 70.326 523.544 67.848C523.544 66.602 524.594 65.664 526.064 65.664C527.142 65.664 528.122 66.182 528.626 66.868L527.45 67.904C527.086 67.456 526.624 67.092 526.078 67.092C525.518 67.092 525.252 67.4 525.252 67.764C525.252 68.968 528.626 68.548 528.626 70.984C528.598 72.468 527.408 73.28 526.078 73.28C524.818 73.28 523.922 72.776 523.25 71.978ZM532.198 73.21C530.784 73.21 529.818 72.398 529.818 71.096C529.818 70.032 530.644 69.234 532.156 68.982L534.312 68.618V68.436C534.312 67.694 533.752 67.218 532.94 67.218C532.254 67.218 531.722 67.54 531.344 68.058L530.042 67.064C530.672 66.196 531.708 65.664 532.996 65.664C535.04 65.664 536.09 66.882 536.09 68.436V73H534.312V72.314C533.864 72.86 533.024 73.21 532.198 73.21ZM531.582 71.012C531.582 71.488 531.96 71.796 532.562 71.796C533.374 71.796 533.962 71.418 534.312 70.858V69.864L532.632 70.144C531.89 70.27 531.582 70.578 531.582 71.012ZM537.426 74.232C537.426 73.532 537.776 72.972 538.406 72.51C538.126 72.23 537.972 71.852 537.972 71.488C537.972 70.928 538.21 70.48 538.742 70.088C538.126 69.626 537.79 68.926 537.79 68.142C537.79 66.77 538.854 65.664 540.618 65.664C541.164 65.664 541.64 65.762 542.046 65.944H544.622V67.456H543.376C543.446 67.68 543.474 67.904 543.474 68.142C543.474 69.528 542.438 70.648 540.618 70.648C540.38 70.648 540.156 70.634 539.946 70.592C539.792 70.732 539.708 70.886 539.708 71.04C539.708 71.32 539.862 71.46 540.184 71.46H541.962C543.74 71.46 544.706 72.412 544.706 73.728C544.706 75.296 543.208 76.5 541.01 76.5C538.756 76.5 537.426 75.716 537.426 74.232ZM540.646 69.304C541.388 69.304 541.864 68.842 541.864 68.142C541.864 67.442 541.388 66.994 540.646 66.994C539.876 66.994 539.414 67.456 539.414 68.142C539.414 68.842 539.876 69.304 540.646 69.304ZM539.106 73.98C539.106 74.652 539.75 75.072 540.996 75.072C542.284 75.072 542.942 74.596 542.942 73.896C542.942 73.364 542.62 72.986 541.766 72.986H539.582C539.316 73.238 539.106 73.546 539.106 73.98ZM552.086 71.852C551.428 72.734 550.336 73.28 549.006 73.28C546.5 73.28 545.086 71.53 545.086 69.472C545.086 67.386 546.402 65.664 548.712 65.664C550.672 65.664 551.96 66.994 551.96 68.842C551.96 69.234 551.904 69.598 551.848 69.836H546.906C547.074 71.152 547.886 71.684 548.992 71.684C549.762 71.684 550.434 71.348 550.812 70.844L552.086 71.852ZM548.67 67.12C547.76 67.12 547.158 67.624 546.962 68.548H550.21C550.182 67.834 549.664 67.12 548.67 67.12ZM498.568 93.472C498.568 91.414 499.926 89.664 502.152 89.664C503.104 89.664 503.79 89.958 504.336 90.504V86.5H506.128V97H504.336V96.44C503.79 96.986 503.104 97.28 502.152 97.28C499.926 97.28 498.568 95.53 498.568 93.472ZM500.43 93.472C500.43 94.704 501.2 95.6 502.404 95.6C503.202 95.6 503.86 95.264 504.336 94.62V92.324C503.86 91.68 503.202 91.344 502.404 91.344C501.2 91.344 500.43 92.24 500.43 93.472ZM512.907 93.948V89.944H514.699V93.864C514.699 95.978 513.467 97.28 511.395 97.28C509.323 97.28 508.105 95.978 508.105 93.864V89.944H509.897V93.948C509.897 94.97 510.429 95.6 511.409 95.6C512.375 95.6 512.907 94.97 512.907 93.948ZM525.187 95.418C526.307 95.418 527.189 94.872 527.749 94.074L529.317 95.278C528.421 96.496 526.965 97.28 525.187 97.28C522.093 97.28 519.979 94.9 519.979 92.1C519.979 89.3 522.093 86.92 525.187 86.92C526.965 86.92 528.421 87.718 529.317 88.908L527.749 90.126C527.189 89.328 526.307 88.782 525.187 88.782C523.339 88.782 522.023 90.224 522.023 92.1C522.023 93.976 523.339 95.418 525.187 95.418ZM535.482 95.418C536.602 95.418 537.484 94.872 538.044 94.074L539.612 95.278C538.716 96.496 537.26 97.28 535.482 97.28C532.388 97.28 530.274 94.9 530.274 92.1C530.274 89.3 532.388 86.92 535.482 86.92C537.26 86.92 538.716 87.718 539.612 88.908L538.044 90.126C537.484 89.328 536.602 88.782 535.482 88.782C533.634 88.782 532.318 90.224 532.318 92.1C532.318 93.976 533.634 95.418 535.482 95.418ZM541.477 97V87.2H544.711C546.867 87.2 548.183 88.306 548.183 90.126C548.183 91.932 546.867 93.038 544.711 93.038H543.465V97H541.477ZM544.795 88.852H543.465V91.386H544.795C545.635 91.386 546.139 90.896 546.139 90.098C546.139 89.356 545.635 88.852 544.795 88.852ZM551.521 96.986V89.132L549.491 90.28L548.553 88.936L551.577 87.186H553.411V96.986H551.521Z" fill="#161616"/>
<path d="M502.062 150V141.6H503.19V148.968H506.574V150H502.062ZM509.888 150.168C508.7 150.168 507.896 149.508 507.896 148.476C507.896 147.564 508.592 146.916 509.876 146.7L511.916 146.364V145.944C511.916 145.104 511.316 144.624 510.452 144.624C509.756 144.624 509.192 144.948 508.82 145.464L508.052 144.876C508.58 144.156 509.432 143.712 510.488 143.712C512.024 143.712 512.936 144.612 512.936 145.944V150H511.916V149.232C511.46 149.82 510.668 150.168 509.888 150.168ZM508.928 148.44C508.928 148.956 509.348 149.328 510.056 149.328C510.86 149.328 511.52 148.944 511.916 148.296V147.108L510.128 147.408C509.3 147.552 508.928 147.924 508.928 148.44ZM518.469 150V141.6H522.981V142.56H519.597V145.248H522.501V146.196H519.597V150H518.469ZM525.826 150.168C524.638 150.168 523.834 149.508 523.834 148.476C523.834 147.564 524.53 146.916 525.814 146.7L527.854 146.364V145.944C527.854 145.104 527.254 144.624 526.39 144.624C525.694 144.624 525.13 144.948 524.758 145.464L523.99 144.876C524.518 144.156 525.37 143.712 526.426 143.712C527.962 143.712 528.874 144.612 528.874 145.944V150H527.854V149.232C527.398 149.82 526.606 150.168 525.826 150.168ZM524.866 148.44C524.866 148.956 525.286 149.328 525.994 149.328C526.798 149.328 527.458 148.944 527.854 148.296V147.108L526.066 147.408C525.238 147.552 524.866 147.924 524.866 148.44ZM537.196 146.976C537.196 148.74 535.984 150.24 534.088 150.24C533.188 150.24 532.48 149.892 531.94 149.28V150H530.92V141H531.94V144.672C532.48 144.06 533.188 143.712 534.088 143.712C535.984 143.712 537.196 145.212 537.196 146.976ZM533.968 144.672C533.128 144.672 532.384 145.08 531.94 145.788V148.164C532.408 148.884 533.14 149.28 533.968 149.28C535.252 149.28 536.128 148.26 536.128 146.976C536.128 145.692 535.252 144.672 533.968 144.672ZM538.853 150V143.952H539.873V144.708C540.317 144.18 540.869 143.832 541.637 143.832C541.829 143.832 542.009 143.856 542.153 143.904V144.9C541.973 144.852 541.793 144.828 541.553 144.828C540.761 144.828 540.245 145.236 539.873 145.848V150H538.853ZM544.139 142.38C543.743 142.38 543.419 142.056 543.419 141.66C543.419 141.276 543.743 140.952 544.139 140.952C544.535 140.952 544.847 141.276 544.847 141.66C544.847 142.056 544.535 142.38 544.139 142.38ZM543.623 150V143.952H544.643V150H543.623ZM546.811 150V141H547.843V146.784L550.687 143.952H551.995L549.463 146.472L552.043 150H550.783L548.731 147.192L547.843 148.068V150H546.811ZM487.819 163.712C489.763 163.712 491.095 165.212 491.095 166.976C491.095 168.74 489.763 170.24 487.819 170.24C485.863 170.24 484.543 168.74 484.543 166.976C484.543 165.212 485.863 163.712 487.819 163.712ZM487.831 169.28C489.091 169.28 490.015 168.224 490.015 166.976C490.015 165.716 489.091 164.672 487.831 164.672C486.535 164.672 485.611 165.716 485.611 166.976C485.611 168.236 486.535 169.28 487.831 169.28ZM496.946 167.408V163.952H497.966V167.372C497.966 169.184 496.922 170.24 495.278 170.24C493.646 170.24 492.602 169.184 492.602 167.372V163.952H493.622V167.408C493.622 168.596 494.258 169.28 495.29 169.28C496.298 169.28 496.946 168.596 496.946 167.408ZM503.463 170V161.6H505.923C507.603 161.6 508.647 162.524 508.647 163.964C508.647 165.404 507.603 166.316 505.923 166.316H504.591V170H503.463ZM505.947 162.56H504.591V165.356H505.947C506.907 165.356 507.483 164.84 507.483 163.94C507.483 163.088 506.907 162.56 505.947 162.56ZM514.143 161.36C516.759 161.36 518.547 163.4 518.547 165.8C518.547 168.2 516.759 170.24 514.143 170.24C511.515 170.24 509.727 168.2 509.727 165.8C509.727 163.4 511.515 161.36 514.143 161.36ZM514.143 169.184C516.027 169.184 517.383 167.672 517.383 165.8C517.383 163.928 516.027 162.416 514.143 162.416C512.247 162.416 510.891 163.928 510.891 165.8C510.891 167.672 512.247 169.184 514.143 169.184ZM520.49 170V161.6H522.95C524.63 161.6 525.674 162.524 525.674 163.964C525.674 165.404 524.63 166.316 522.95 166.316H521.618V170H520.49ZM522.974 162.56H521.618V165.356H522.974C523.934 165.356 524.51 164.84 524.51 163.94C524.51 163.088 523.934 162.56 522.974 162.56ZM529.979 168.848L530.819 168.08C531.395 168.824 532.067 169.22 532.847 169.22C533.783 169.22 534.323 168.656 534.323 167.888C534.323 165.992 530.339 166.4 530.339 163.628C530.339 162.38 531.371 161.36 532.835 161.36C534.011 161.36 534.875 161.9 535.499 162.728L534.647 163.472C534.155 162.764 533.567 162.368 532.847 162.368C532.019 162.368 531.491 162.884 531.491 163.604C531.491 165.488 535.463 165.056 535.463 167.852C535.463 169.304 534.347 170.228 532.859 170.228C531.623 170.228 530.711 169.76 529.979 168.848ZM540.132 169.28C540.876 169.28 541.488 168.92 541.86 168.392L542.664 169.004C542.1 169.76 541.224 170.24 540.12 170.24C538.116 170.24 536.832 168.74 536.832 166.976C536.832 165.212 538.116 163.712 540.12 163.712C541.212 163.712 542.1 164.204 542.664 164.948L541.86 165.56C541.488 165.032 540.876 164.672 540.12 164.672C538.824 164.672 537.9 165.692 537.9 166.976C537.9 168.272 538.824 169.28 540.132 169.28ZM544.062 170V161H545.082V164.636C545.574 164.096 546.198 163.712 547.098 163.712C548.454 163.712 549.462 164.624 549.462 166.34V170H548.442V166.376C548.442 165.296 547.842 164.672 546.894 164.672C546.006 164.672 545.466 165.188 545.082 165.812V170H544.062ZM554.276 163.712C556.22 163.712 557.552 165.212 557.552 166.976C557.552 168.74 556.22 170.24 554.276 170.24C552.32 170.24 551 168.74 551 166.976C551 165.212 552.32 163.712 554.276 163.712ZM554.288 169.28C555.548 169.28 556.472 168.224 556.472 166.976C556.472 165.716 555.548 164.672 554.288 164.672C552.992 164.672 552.068 165.716 552.068 166.976C552.068 168.236 552.992 169.28 554.288 169.28ZM562.01 163.712C563.954 163.712 565.286 165.212 565.286 166.976C565.286 168.74 563.954 170.24 562.01 170.24C560.054 170.24 558.734 168.74 558.734 166.976C558.734 165.212 560.054 163.712 562.01 163.712ZM562.022 169.28C563.282 169.28 564.206 168.224 564.206 166.976C564.206 165.716 563.282 164.672 562.022 164.672C560.726 164.672 559.802 165.716 559.802 166.976C559.802 168.236 560.726 169.28 562.022 169.28ZM566.926 170V161H567.946V170H566.926Z" fill="#000091"/>
<rect x="613.5" y="39" width="164" height="144" rx="8" fill="#BAFAEE"/>
<path d="M632.698 71.642L634.14 70.312C634.728 71.068 635.512 71.516 636.31 71.516C637.094 71.516 637.57 71.096 637.57 70.396C637.57 68.59 633.118 69.08 633.118 65.762C633.118 64.208 634.406 62.92 636.282 62.92C637.752 62.92 638.872 63.578 639.712 64.572L638.256 65.888C637.682 65.146 637.038 64.656 636.296 64.656C635.596 64.656 635.134 65.104 635.134 65.692C635.134 67.47 639.586 66.966 639.586 70.326C639.558 72.174 638.13 73.28 636.324 73.28C634.672 73.28 633.566 72.678 632.698 71.642ZM646.053 69.948V65.944H647.845V69.864C647.845 71.978 646.613 73.28 644.541 73.28C642.469 73.28 641.251 71.978 641.251 69.864V65.944H643.043V69.948C643.043 70.97 643.575 71.6 644.555 71.6C645.521 71.6 646.053 70.97 646.053 69.948ZM650.709 64.712C650.079 64.712 649.547 64.18 649.547 63.55C649.547 62.92 650.079 62.388 650.709 62.388C651.339 62.388 651.857 62.92 651.857 63.55C651.857 64.18 651.339 64.712 650.709 64.712ZM649.813 73V65.944H651.591V73H649.813ZM652.715 65.944H654.619L656.453 70.984L658.273 65.944H660.191L657.615 73H655.277L652.715 65.944ZM662.207 64.712C661.577 64.712 661.045 64.18 661.045 63.55C661.045 62.92 661.577 62.388 662.207 62.388C662.837 62.388 663.355 62.92 663.355 63.55C663.355 64.18 662.837 64.712 662.207 64.712ZM661.311 73V65.944H663.089V73H661.311ZM668.491 69.472C668.491 67.414 669.849 65.664 672.075 65.664C673.027 65.664 673.713 65.958 674.259 66.504V62.5H676.051V73H674.259V72.44C673.713 72.986 673.027 73.28 672.075 73.28C669.849 73.28 668.491 71.53 668.491 69.472ZM670.353 69.472C670.353 70.704 671.123 71.6 672.327 71.6C673.125 71.6 673.783 71.264 674.259 70.62V68.324C673.783 67.68 673.125 67.344 672.327 67.344C671.123 67.344 670.353 68.24 670.353 69.472ZM684.678 71.852C684.02 72.734 682.928 73.28 681.598 73.28C679.092 73.28 677.678 71.53 677.678 69.472C677.678 67.386 678.994 65.664 681.304 65.664C683.264 65.664 684.552 66.994 684.552 68.842C684.552 69.234 684.496 69.598 684.44 69.836H679.498C679.666 71.152 680.478 71.684 681.584 71.684C682.354 71.684 683.026 71.348 683.404 70.844L684.678 71.852ZM681.262 67.12C680.352 67.12 679.75 67.624 679.554 68.548H682.802C682.774 67.834 682.256 67.12 681.262 67.12ZM689.811 73V71.292L693.171 67.988C693.927 67.218 694.403 66.686 694.403 65.888C694.403 65.076 693.843 64.6 693.073 64.6C692.135 64.6 691.561 65.174 691.043 66.042L689.503 65.104C690.329 63.76 691.547 62.92 693.255 62.92C694.963 62.92 696.335 64.012 696.335 65.692C696.335 67.036 695.453 68.072 694.487 69.01L692.121 71.292H696.587V73H689.811ZM702.231 73V65.944H704.009V66.476C704.485 66.014 705.087 65.664 705.955 65.664C706.851 65.664 707.635 66.056 708.097 66.812C708.601 66.196 709.273 65.664 710.463 65.664C711.919 65.664 713.067 66.672 713.067 68.66V73H711.275V68.73C711.275 67.876 710.813 67.344 710.015 67.344C709.245 67.344 708.825 67.876 708.545 68.352C708.559 68.45 708.559 68.548 708.559 68.66V73H706.767V68.73C706.767 67.876 706.305 67.344 705.507 67.344C704.695 67.344 704.275 67.946 704.009 68.394V73H702.231ZM718.456 65.664C720.752 65.664 722.32 67.358 722.32 69.472C722.32 71.586 720.752 73.28 718.456 73.28C716.16 73.28 714.592 71.586 714.592 69.472C714.592 67.358 716.16 65.664 718.456 65.664ZM718.484 71.6C719.618 71.6 720.472 70.69 720.472 69.472C720.472 68.24 719.618 67.344 718.484 67.344C717.308 67.344 716.44 68.24 716.44 69.472C716.44 70.704 717.308 71.6 718.484 71.6ZM723.506 69.472C723.506 67.414 724.864 65.664 727.09 65.664C728.042 65.664 728.728 65.958 729.274 66.504V62.5H731.066V73H729.274V72.44C728.728 72.986 728.042 73.28 727.09 73.28C724.864 73.28 723.506 71.53 723.506 69.472ZM725.368 69.472C725.368 70.704 726.138 71.6 727.342 71.6C728.14 71.6 728.798 71.264 729.274 70.62V68.324C728.798 67.68 728.14 67.344 727.342 67.344C726.138 67.344 725.368 68.24 725.368 69.472ZM737.846 69.948V65.944H739.638V69.864C739.638 71.978 738.406 73.28 736.334 73.28C734.262 73.28 733.044 71.978 733.044 69.864V65.944H734.836V69.948C734.836 70.97 735.368 71.6 736.348 71.6C737.314 71.6 737.846 70.97 737.846 69.948ZM741.606 73V62.5H743.384V73H741.606ZM752.012 71.852C751.354 72.734 750.262 73.28 748.932 73.28C746.426 73.28 745.012 71.53 745.012 69.472C745.012 67.386 746.328 65.664 748.638 65.664C750.598 65.664 751.886 66.994 751.886 68.842C751.886 69.234 751.83 69.598 751.774 69.836H746.832C747 71.152 747.812 71.684 748.918 71.684C749.688 71.684 750.36 71.348 750.738 70.844L752.012 71.852ZM748.596 67.12C747.686 67.12 747.084 67.624 746.888 68.548H750.136C750.108 67.834 749.59 67.12 748.596 67.12ZM752.912 71.978L754.088 70.914C754.522 71.46 755.04 71.852 755.712 71.852C756.286 71.852 756.58 71.516 756.58 71.096C756.58 69.864 753.206 70.326 753.206 67.848C753.206 66.602 754.256 65.664 755.726 65.664C756.804 65.664 757.784 66.182 758.288 66.868L757.112 67.904C756.748 67.456 756.286 67.092 755.74 67.092C755.18 67.092 754.914 67.4 754.914 67.764C754.914 68.968 758.288 68.548 758.288 70.984C758.26 72.468 757.07 73.28 755.74 73.28C754.48 73.28 753.584 72.776 752.912 71.978ZM641.177 95.6C641.877 95.6 642.437 95.278 642.773 94.788L644.159 95.852C643.501 96.72 642.465 97.28 641.177 97.28C638.741 97.28 637.285 95.53 637.285 93.472C637.285 91.414 638.741 89.664 641.177 89.664C642.465 89.664 643.501 90.224 644.159 91.092L642.773 92.156C642.437 91.666 641.877 91.344 641.149 91.344C639.987 91.344 639.133 92.24 639.133 93.472C639.133 94.718 639.987 95.6 641.177 95.6ZM648.572 89.664C650.868 89.664 652.436 91.358 652.436 93.472C652.436 95.586 650.868 97.28 648.572 97.28C646.276 97.28 644.708 95.586 644.708 93.472C644.708 91.358 646.276 89.664 648.572 89.664ZM648.6 95.6C649.734 95.6 650.588 94.69 650.588 93.472C650.588 92.24 649.734 91.344 648.6 91.344C647.424 91.344 646.556 92.24 646.556 93.472C646.556 94.704 647.424 95.6 648.6 95.6ZM654.058 97V89.944H655.836V90.476C656.312 90.014 656.914 89.664 657.782 89.664C658.678 89.664 659.462 90.056 659.924 90.812C660.428 90.196 661.1 89.664 662.29 89.664C663.746 89.664 664.894 90.672 664.894 92.66V97H663.102V92.73C663.102 91.876 662.64 91.344 661.842 91.344C661.072 91.344 660.652 91.876 660.372 92.352C660.386 92.45 660.386 92.548 660.386 92.66V97H658.594V92.73C658.594 91.876 658.132 91.344 657.334 91.344C656.522 91.344 656.102 91.946 655.836 92.394V97H654.058ZM666.923 100.444V89.944H668.701V90.518C669.247 89.972 669.933 89.664 670.899 89.664C673.139 89.664 674.483 91.414 674.483 93.472C674.483 95.53 673.139 97.28 670.899 97.28C669.933 97.28 669.247 96.972 668.701 96.426V100.444H666.923ZM670.647 91.344C669.821 91.344 669.149 91.708 668.701 92.366V94.578C669.177 95.25 669.835 95.6 670.647 95.6C671.851 95.6 672.635 94.704 672.635 93.472C672.635 92.24 671.851 91.344 670.647 91.344ZM676.111 97V86.5H677.889V97H676.111ZM684.123 88.824H682.415L683.871 86.5H685.803L684.123 88.824ZM686.517 95.852C685.859 96.734 684.767 97.28 683.437 97.28C680.931 97.28 679.517 95.53 679.517 93.472C679.517 91.386 680.833 89.664 683.143 89.664C685.103 89.664 686.391 90.994 686.391 92.842C686.391 93.234 686.335 93.598 686.279 93.836H681.337C681.505 95.152 682.317 95.684 683.423 95.684C684.193 95.684 684.865 95.348 685.243 94.844L686.517 95.852ZM683.101 91.12C682.191 91.12 681.589 91.624 681.393 92.548H684.641C684.613 91.834 684.095 91.12 683.101 91.12ZM688.128 97V89.944H689.906V90.476C690.382 90.014 690.984 89.664 691.852 89.664C692.748 89.664 693.532 90.056 693.994 90.812C694.498 90.196 695.17 89.664 696.36 89.664C697.816 89.664 698.964 90.672 698.964 92.66V97H697.172V92.73C697.172 91.876 696.71 91.344 695.912 91.344C695.142 91.344 694.722 91.876 694.442 92.352C694.456 92.45 694.456 92.548 694.456 92.66V97H692.664V92.73C692.664 91.876 692.202 91.344 691.404 91.344C690.592 91.344 690.172 91.946 689.906 92.394V97H688.128ZM707.49 95.852C706.832 96.734 705.74 97.28 704.41 97.28C701.904 97.28 700.49 95.53 700.49 93.472C700.49 91.386 701.806 89.664 704.116 89.664C706.076 89.664 707.364 90.994 707.364 92.842C707.364 93.234 707.308 93.598 707.252 93.836H702.31C702.478 95.152 703.29 95.684 704.396 95.684C705.166 95.684 705.838 95.348 706.216 94.844L707.49 95.852ZM704.074 91.12C703.164 91.12 702.562 91.624 702.366 92.548H705.614C705.586 91.834 705.068 91.12 704.074 91.12ZM709.101 97V89.944H710.879V90.504C711.369 90.028 712.027 89.664 712.965 89.664C714.491 89.664 715.709 90.714 715.709 92.8V97H713.917V92.87C713.917 91.932 713.385 91.344 712.517 91.344C711.621 91.344 711.145 91.946 710.879 92.394V97H709.101ZM718.176 94.424V91.54H716.86V89.944H718.176V88.18H719.968V89.944H722.124V91.54H719.968V94.424C719.968 95.208 720.388 95.516 721.088 95.516C721.578 95.516 721.9 95.46 722.138 95.362V96.916C721.788 97.07 721.368 97.14 720.78 97.14C719.016 97.14 718.176 96.146 718.176 94.424ZM725.704 97.21C724.29 97.21 723.324 96.398 723.324 95.096C723.324 94.032 724.15 93.234 725.662 92.982L727.818 92.618V92.436C727.818 91.694 727.258 91.218 726.446 91.218C725.76 91.218 725.228 91.54 724.85 92.058L723.548 91.064C724.178 90.196 725.214 89.664 726.502 89.664C728.546 89.664 729.596 90.882 729.596 92.436V97H727.818V96.314C727.37 96.86 726.53 97.21 725.704 97.21ZM725.088 95.012C725.088 95.488 725.466 95.796 726.068 95.796C726.88 95.796 727.468 95.418 727.818 94.858V93.864L726.138 94.144C725.396 94.27 725.088 94.578 725.088 95.012ZM732.528 88.712C731.898 88.712 731.366 88.18 731.366 87.55C731.366 86.92 731.898 86.388 732.528 86.388C733.158 86.388 733.676 86.92 733.676 87.55C733.676 88.18 733.158 88.712 732.528 88.712ZM731.632 97V89.944H733.41V97H731.632ZM735.543 97V89.944H737.321V90.644C737.783 90.168 738.385 89.804 739.183 89.804C739.421 89.804 739.631 89.846 739.799 89.902V91.652C739.575 91.596 739.337 91.554 739.015 91.554C738.147 91.554 737.587 92.03 737.321 92.478V97H735.543ZM747.425 95.852C746.767 96.734 745.675 97.28 744.345 97.28C741.839 97.28 740.425 95.53 740.425 93.472C740.425 91.386 741.741 89.664 744.051 89.664C746.011 89.664 747.299 90.994 747.299 92.842C747.299 93.234 747.243 93.598 747.187 93.836H742.245C742.413 95.152 743.225 95.684 744.331 95.684C745.101 95.684 745.773 95.348 746.151 94.844L747.425 95.852ZM744.009 91.12C743.099 91.12 742.497 91.624 742.301 92.548H745.549C745.521 91.834 745.003 91.12 744.009 91.12ZM748.325 95.978L749.501 94.914C749.935 95.46 750.453 95.852 751.125 95.852C751.699 95.852 751.993 95.516 751.993 95.096C751.993 93.864 748.619 94.326 748.619 91.848C748.619 90.602 749.669 89.664 751.139 89.664C752.217 89.664 753.197 90.182 753.701 90.868L752.525 91.904C752.161 91.456 751.699 91.092 751.153 91.092C750.593 91.092 750.327 91.4 750.327 91.764C750.327 92.968 753.701 92.548 753.701 94.984C753.673 96.468 752.483 97.28 751.153 97.28C749.893 97.28 748.997 96.776 748.325 95.978ZM670.046 121.21C668.632 121.21 667.666 120.398 667.666 119.096C667.666 118.032 668.492 117.234 670.004 116.982L672.16 116.618V116.436C672.16 115.694 671.6 115.218 670.788 115.218C670.102 115.218 669.57 115.54 669.192 116.058L667.89 115.064C668.52 114.196 669.556 113.664 670.844 113.664C672.888 113.664 673.938 114.882 673.938 116.436V121H672.16V120.314C671.712 120.86 670.872 121.21 670.046 121.21ZM669.43 119.012C669.43 119.488 669.808 119.796 670.41 119.796C671.222 119.796 671.81 119.418 672.16 118.858V117.864L670.48 118.144C669.738 118.27 669.43 118.578 669.43 119.012ZM680.622 117.948V113.944H682.414V117.864C682.414 119.978 681.182 121.28 679.11 121.28C677.038 121.28 675.82 119.978 675.82 117.864V113.944H677.612V117.948C677.612 118.97 678.144 119.6 679.124 119.6C680.09 119.6 680.622 118.97 680.622 117.948ZM691.544 119.6C692.244 119.6 692.804 119.278 693.14 118.788L694.526 119.852C693.868 120.72 692.832 121.28 691.544 121.28C689.108 121.28 687.652 119.53 687.652 117.472C687.652 115.414 689.108 113.664 691.544 113.664C692.832 113.664 693.868 114.224 694.526 115.092L693.14 116.156C692.804 115.666 692.244 115.344 691.516 115.344C690.354 115.344 689.5 116.24 689.5 117.472C689.5 118.718 690.354 119.6 691.544 119.6ZM695.853 121V110.5H697.631V114.504C698.121 114.028 698.779 113.664 699.717 113.664C701.243 113.664 702.461 114.714 702.461 116.8V121H700.669V116.87C700.669 115.932 700.151 115.344 699.269 115.344C698.373 115.344 697.897 115.946 697.631 116.394V121H695.853ZM707.84 113.664C710.136 113.664 711.704 115.358 711.704 117.472C711.704 119.586 710.136 121.28 707.84 121.28C705.544 121.28 703.976 119.586 703.976 117.472C703.976 115.358 705.544 113.664 707.84 113.664ZM707.868 119.6C709.002 119.6 709.856 118.69 709.856 117.472C709.856 116.24 709.002 115.344 707.868 115.344C706.692 115.344 705.824 116.24 705.824 117.472C705.824 118.704 706.692 119.6 707.868 119.6ZM714.222 112.712C713.592 112.712 713.06 112.18 713.06 111.55C713.06 110.92 713.592 110.388 714.222 110.388C714.852 110.388 715.37 110.92 715.37 111.55C715.37 112.18 714.852 112.712 714.222 112.712ZM713.326 121V113.944H715.104V121H713.326ZM718.51 121H716.466L718.958 117.374L716.606 113.944H718.636L720.092 116.114L721.548 113.944H723.592L721.226 117.374L723.718 121H721.688L720.092 118.634L718.51 121Z" fill="#161616"/>
<path d="M662.871 170V161.6H663.999V168.968H667.383V170H662.871ZM670.697 170.168C669.509 170.168 668.705 169.508 668.705 168.476C668.705 167.564 669.401 166.916 670.685 166.7L672.725 166.364V165.944C672.725 165.104 672.125 164.624 671.261 164.624C670.565 164.624 670.001 164.948 669.629 165.464L668.861 164.876C669.389 164.156 670.241 163.712 671.297 163.712C672.833 163.712 673.745 164.612 673.745 165.944V170H672.725V169.232C672.269 169.82 671.477 170.168 670.697 170.168ZM669.737 168.44C669.737 168.956 670.157 169.328 670.865 169.328C671.669 169.328 672.329 168.944 672.725 168.296V167.108L670.937 167.408C670.109 167.552 669.737 167.924 669.737 168.44ZM679.277 170V161.6H680.717L683.285 165.836L685.853 161.6H687.293V170H686.165V163.112L683.717 167.12H682.853L680.405 163.112V170H679.277ZM695.019 169.004C694.455 169.76 693.555 170.24 692.427 170.24C690.387 170.24 689.127 168.74 689.127 166.976C689.127 165.14 690.303 163.712 692.175 163.712C693.819 163.712 694.887 164.864 694.887 166.352C694.887 166.592 694.851 166.82 694.815 166.988H690.171C690.207 168.44 691.131 169.316 692.427 169.316C693.207 169.316 693.867 168.956 694.263 168.416L695.019 169.004ZM692.151 164.576C691.155 164.576 690.459 165.164 690.243 166.208H693.867C693.831 165.32 693.219 164.576 692.151 164.576ZM696.076 166.976C696.076 165.212 697.288 163.712 699.184 163.712C700.084 163.712 700.792 164.06 701.332 164.672V161H702.352V170H701.332V169.28C700.792 169.892 700.084 170.24 699.184 170.24C697.288 170.24 696.076 168.74 696.076 166.976ZM697.156 166.976C697.156 168.26 698.02 169.28 699.304 169.28C700.144 169.28 700.888 168.872 701.332 168.164V165.788C700.864 165.068 700.132 164.672 699.304 164.672C698.02 164.672 697.156 165.692 697.156 166.976ZM704.502 170V163.952H705.522V164.636C706.014 164.096 706.638 163.712 707.538 163.712C708.894 163.712 709.902 164.624 709.902 166.34V170H708.882V166.376C708.882 165.296 708.27 164.672 707.334 164.672C706.458 164.672 705.906 165.176 705.522 165.812V170H704.502ZM716.167 167.408V163.952H717.187V167.372C717.187 169.184 716.143 170.24 714.499 170.24C712.867 170.24 711.823 169.184 711.823 167.372V163.952H712.843V167.408C712.843 168.596 713.479 169.28 714.511 169.28C715.519 169.28 716.167 168.596 716.167 167.408ZM719.197 170V163.952H720.217V164.612C720.673 164.084 721.273 163.712 722.113 163.712C722.989 163.712 723.709 164.108 724.081 164.876C724.561 164.216 725.197 163.712 726.241 163.712C727.537 163.712 728.485 164.576 728.485 166.22V170H727.465V166.256C727.465 165.248 726.901 164.672 726.037 164.672C725.269 164.672 724.729 165.104 724.333 165.812C724.345 165.944 724.357 166.076 724.357 166.22V170H723.337V166.256C723.337 165.248 722.785 164.672 721.909 164.672C721.081 164.672 720.565 165.188 720.217 165.812V170H719.197Z" fill="#000091"/>
<rect x="809.5" y="39" width="164" height="144" rx="8" fill="#E8EDFF"/>
<path d="M835.465 73V63.2H838.699C840.855 63.2 842.171 64.306 842.171 66.126C842.171 67.932 840.855 69.038 838.699 69.038H837.453V73H835.465ZM838.783 64.852H837.453V67.386H838.783C839.623 67.386 840.127 66.896 840.127 66.098C840.127 65.356 839.623 64.852 838.783 64.852ZM845.292 73.21C843.878 73.21 842.912 72.398 842.912 71.096C842.912 70.032 843.738 69.234 845.25 68.982L847.406 68.618V68.436C847.406 67.694 846.846 67.218 846.034 67.218C845.348 67.218 844.816 67.54 844.438 68.058L843.136 67.064C843.766 66.196 844.802 65.664 846.09 65.664C848.134 65.664 849.184 66.882 849.184 68.436V73H847.406V72.314C846.958 72.86 846.118 73.21 845.292 73.21ZM844.676 71.012C844.676 71.488 845.054 71.796 845.656 71.796C846.468 71.796 847.056 71.418 847.406 70.858V69.864L845.726 70.144C844.984 70.27 844.676 70.578 844.676 71.012ZM850.604 71.978L851.78 70.914C852.214 71.46 852.732 71.852 853.404 71.852C853.978 71.852 854.272 71.516 854.272 71.096C854.272 69.864 850.898 70.326 850.898 67.848C850.898 66.602 851.948 65.664 853.418 65.664C854.496 65.664 855.476 66.182 855.98 66.868L854.804 67.904C854.44 67.456 853.978 67.092 853.432 67.092C852.872 67.092 852.606 67.4 852.606 67.764C852.606 68.968 855.98 68.548 855.98 70.984C855.952 72.468 854.762 73.28 853.432 73.28C852.172 73.28 851.276 72.776 850.604 71.978ZM856.907 71.978L858.083 70.914C858.517 71.46 859.035 71.852 859.707 71.852C860.281 71.852 860.575 71.516 860.575 71.096C860.575 69.864 857.201 70.326 857.201 67.848C857.201 66.602 858.251 65.664 859.721 65.664C860.799 65.664 861.779 66.182 862.283 66.868L861.107 67.904C860.743 67.456 860.281 67.092 859.735 67.092C859.175 67.092 858.909 67.4 858.909 67.764C858.909 68.968 862.283 68.548 862.283 70.984C862.255 72.468 861.065 73.28 859.735 73.28C858.475 73.28 857.579 72.776 856.907 71.978ZM865.855 73.21C864.441 73.21 863.475 72.398 863.475 71.096C863.475 70.032 864.301 69.234 865.813 68.982L867.969 68.618V68.436C867.969 67.694 867.409 67.218 866.597 67.218C865.911 67.218 865.379 67.54 865.001 68.058L863.699 67.064C864.329 66.196 865.365 65.664 866.653 65.664C868.697 65.664 869.747 66.882 869.747 68.436V73H867.969V72.314C867.521 72.86 866.681 73.21 865.855 73.21ZM865.239 71.012C865.239 71.488 865.617 71.796 866.219 71.796C867.031 71.796 867.619 71.418 867.969 70.858V69.864L866.289 70.144C865.547 70.27 865.239 70.578 865.239 71.012ZM871.083 74.232C871.083 73.532 871.433 72.972 872.063 72.51C871.783 72.23 871.629 71.852 871.629 71.488C871.629 70.928 871.867 70.48 872.399 70.088C871.783 69.626 871.447 68.926 871.447 68.142C871.447 66.77 872.511 65.664 874.275 65.664C874.821 65.664 875.297 65.762 875.703 65.944H878.279V67.456H877.033C877.103 67.68 877.131 67.904 877.131 68.142C877.131 69.528 876.095 70.648 874.275 70.648C874.037 70.648 873.813 70.634 873.603 70.592C873.449 70.732 873.365 70.886 873.365 71.04C873.365 71.32 873.519 71.46 873.841 71.46H875.619C877.397 71.46 878.363 72.412 878.363 73.728C878.363 75.296 876.865 76.5 874.667 76.5C872.413 76.5 871.083 75.716 871.083 74.232ZM874.303 69.304C875.045 69.304 875.521 68.842 875.521 68.142C875.521 67.442 875.045 66.994 874.303 66.994C873.533 66.994 873.071 67.456 873.071 68.142C873.071 68.842 873.533 69.304 874.303 69.304ZM872.763 73.98C872.763 74.652 873.407 75.072 874.653 75.072C875.941 75.072 876.599 74.596 876.599 73.896C876.599 73.364 876.277 72.986 875.423 72.986H873.239C872.973 73.238 872.763 73.546 872.763 73.98ZM885.744 71.852C885.086 72.734 883.994 73.28 882.664 73.28C880.158 73.28 878.744 71.53 878.744 69.472C878.744 67.386 880.06 65.664 882.37 65.664C884.33 65.664 885.618 66.994 885.618 68.842C885.618 69.234 885.562 69.598 885.506 69.836H880.564C880.732 71.152 881.544 71.684 882.65 71.684C883.42 71.684 884.092 71.348 884.47 70.844L885.744 71.852ZM882.328 67.12C881.418 67.12 880.816 67.624 880.62 68.548H883.868C883.84 67.834 883.322 67.12 882.328 67.12ZM890.624 69.472C890.624 67.414 891.982 65.664 894.208 65.664C895.16 65.664 895.846 65.958 896.392 66.504V62.5H898.184V73H896.392V72.44C895.846 72.986 895.16 73.28 894.208 73.28C891.982 73.28 890.624 71.53 890.624 69.472ZM892.486 69.472C892.486 70.704 893.256 71.6 894.46 71.6C895.258 71.6 895.916 71.264 896.392 70.62V68.324C895.916 67.68 895.258 67.344 894.46 67.344C893.256 67.344 892.486 68.24 892.486 69.472ZM904.964 69.948V65.944H906.756V69.864C906.756 71.978 905.524 73.28 903.452 73.28C901.38 73.28 900.162 71.978 900.162 69.864V65.944H901.954V69.948C901.954 70.97 902.486 71.6 903.466 71.6C904.432 71.6 904.964 70.97 904.964 69.948ZM917.244 71.418C918.364 71.418 919.246 70.872 919.806 70.074L921.374 71.278C920.478 72.496 919.022 73.28 917.244 73.28C914.15 73.28 912.036 70.9 912.036 68.1C912.036 65.3 914.15 62.92 917.244 62.92C919.022 62.92 920.478 63.718 921.374 64.908L919.806 66.126C919.246 65.328 918.364 64.782 917.244 64.782C915.396 64.782 914.08 66.224 914.08 68.1C914.08 69.976 915.396 71.418 917.244 71.418ZM927.539 71.418C928.659 71.418 929.541 70.872 930.101 70.074L931.669 71.278C930.773 72.496 929.317 73.28 927.539 73.28C924.445 73.28 922.331 70.9 922.331 68.1C922.331 65.3 924.445 62.92 927.539 62.92C929.317 62.92 930.773 63.718 931.669 64.908L930.101 66.126C929.541 65.328 928.659 64.782 927.539 64.782C925.691 64.782 924.375 66.224 924.375 68.1C924.375 69.976 925.691 71.418 927.539 71.418ZM933.534 73V63.2H936.768C938.924 63.2 940.24 64.306 940.24 66.126C940.24 67.932 938.924 69.038 936.768 69.038H935.522V73H933.534ZM936.852 64.852H935.522V67.386H936.852C937.692 67.386 938.196 66.896 938.196 66.098C938.196 65.356 937.692 64.852 936.852 64.852ZM941.394 73V71.292L944.754 67.988C945.51 67.218 945.986 66.686 945.986 65.888C945.986 65.076 945.426 64.6 944.656 64.6C943.718 64.6 943.144 65.174 942.626 66.042L941.086 65.104C941.912 63.76 943.13 62.92 944.838 62.92C946.546 62.92 947.918 64.012 947.918 65.692C947.918 67.036 947.036 68.072 946.07 69.01L943.704 71.292H948.17V73H941.394ZM866.639 89.664C868.935 89.664 870.503 91.358 870.503 93.472C870.503 95.586 868.935 97.28 866.639 97.28C864.343 97.28 862.775 95.586 862.775 93.472C862.775 91.358 864.343 89.664 866.639 89.664ZM866.667 95.6C867.801 95.6 868.655 94.69 868.655 93.472C868.655 92.24 867.801 91.344 866.667 91.344C865.491 91.344 864.623 92.24 864.623 93.472C864.623 94.704 865.491 95.6 866.667 95.6ZM876.773 93.948V89.944H878.565V93.864C878.565 95.978 877.333 97.28 875.261 97.28C873.189 97.28 871.971 95.978 871.971 93.864V89.944H873.763V93.948C873.763 94.97 874.295 95.6 875.275 95.6C876.241 95.6 876.773 94.97 876.773 93.948ZM889.052 95.418C890.172 95.418 891.054 94.872 891.614 94.074L893.182 95.278C892.286 96.496 890.83 97.28 889.052 97.28C885.958 97.28 883.844 94.9 883.844 92.1C883.844 89.3 885.958 86.92 889.052 86.92C890.83 86.92 892.286 87.718 893.182 88.908L891.614 90.126C891.054 89.328 890.172 88.782 889.052 88.782C887.204 88.782 885.888 90.224 885.888 92.1C885.888 93.976 887.204 95.418 889.052 95.418ZM899.347 95.418C900.467 95.418 901.349 94.872 901.909 94.074L903.477 95.278C902.581 96.496 901.125 97.28 899.347 97.28C896.253 97.28 894.139 94.9 894.139 92.1C894.139 89.3 896.253 86.92 899.347 86.92C901.125 86.92 902.581 87.718 903.477 88.908L901.909 90.126C901.349 89.328 900.467 88.782 899.347 88.782C897.499 88.782 896.183 90.224 896.183 92.1C896.183 93.976 897.499 95.418 899.347 95.418ZM905.342 97V87.2H908.576C910.732 87.2 912.048 88.306 912.048 90.126C912.048 91.932 910.732 93.038 908.576 93.038H907.33V97H905.342ZM908.66 88.852H907.33V91.386H908.66C909.5 91.386 910.004 90.896 910.004 90.098C910.004 89.356 909.5 88.852 908.66 88.852ZM920.105 94.2C920.105 96.062 918.579 97.28 916.535 97.28C914.687 97.28 913.497 96.468 912.699 95.068L914.351 94.046C914.897 95.124 915.555 95.6 916.521 95.6C917.473 95.6 918.187 95.026 918.187 94.116C918.187 93.22 917.487 92.66 916.451 92.66H914.841V90.98H916.325C917.151 90.98 917.753 90.518 917.753 89.762C917.753 89.02 917.193 88.6 916.423 88.6C915.639 88.6 915.107 89.02 914.701 89.72L913.161 88.768C913.875 87.606 914.981 86.92 916.563 86.92C918.355 86.92 919.685 87.942 919.685 89.552C919.685 90.462 919.293 91.232 918.565 91.736C919.559 92.24 920.105 93.122 920.105 94.2Z" fill="#161616"/>
<path d="M867.062 150V141.6H868.19V148.968H871.574V150H867.062ZM874.888 150.168C873.7 150.168 872.896 149.508 872.896 148.476C872.896 147.564 873.592 146.916 874.876 146.7L876.916 146.364V145.944C876.916 145.104 876.316 144.624 875.452 144.624C874.756 144.624 874.192 144.948 873.82 145.464L873.052 144.876C873.58 144.156 874.432 143.712 875.488 143.712C877.024 143.712 877.936 144.612 877.936 145.944V150H876.916V149.232C876.46 149.82 875.668 150.168 874.888 150.168ZM873.928 148.44C873.928 148.956 874.348 149.328 875.056 149.328C875.86 149.328 876.52 148.944 876.916 148.296V147.108L875.128 147.408C874.3 147.552 873.928 147.924 873.928 148.44ZM883.469 150V141.6H887.981V142.56H884.597V145.248H887.501V146.196H884.597V150H883.469ZM890.826 150.168C889.638 150.168 888.834 149.508 888.834 148.476C888.834 147.564 889.53 146.916 890.814 146.7L892.854 146.364V145.944C892.854 145.104 892.254 144.624 891.39 144.624C890.694 144.624 890.13 144.948 889.758 145.464L888.99 144.876C889.518 144.156 890.37 143.712 891.426 143.712C892.962 143.712 893.874 144.612 893.874 145.944V150H892.854V149.232C892.398 149.82 891.606 150.168 890.826 150.168ZM889.866 148.44C889.866 148.956 890.286 149.328 890.994 149.328C891.798 149.328 892.458 148.944 892.854 148.296V147.108L891.066 147.408C890.238 147.552 889.866 147.924 889.866 148.44ZM902.196 146.976C902.196 148.74 900.984 150.24 899.088 150.24C898.188 150.24 897.48 149.892 896.94 149.28V150H895.92V141H896.94V144.672C897.48 144.06 898.188 143.712 899.088 143.712C900.984 143.712 902.196 145.212 902.196 146.976ZM898.968 144.672C898.128 144.672 897.384 145.08 896.94 145.788V148.164C897.408 148.884 898.14 149.28 898.968 149.28C900.252 149.28 901.128 148.26 901.128 146.976C901.128 145.692 900.252 144.672 898.968 144.672ZM903.853 150V143.952H904.873V144.708C905.317 144.18 905.869 143.832 906.637 143.832C906.829 143.832 907.009 143.856 907.153 143.904V144.9C906.973 144.852 906.793 144.828 906.553 144.828C905.761 144.828 905.245 145.236 904.873 145.848V150H903.853ZM909.139 142.38C908.743 142.38 908.419 142.056 908.419 141.66C908.419 141.276 908.743 140.952 909.139 140.952C909.535 140.952 909.847 141.276 909.847 141.66C909.847 142.056 909.535 142.38 909.139 142.38ZM908.623 150V143.952H909.643V150H908.623ZM911.811 150V141H912.843V146.784L915.687 143.952H916.995L914.463 146.472L917.043 150H915.783L913.731 147.192L912.843 148.068V150H911.811ZM852.819 163.712C854.763 163.712 856.095 165.212 856.095 166.976C856.095 168.74 854.763 170.24 852.819 170.24C850.863 170.24 849.543 168.74 849.543 166.976C849.543 165.212 850.863 163.712 852.819 163.712ZM852.831 169.28C854.091 169.28 855.015 168.224 855.015 166.976C855.015 165.716 854.091 164.672 852.831 164.672C851.535 164.672 850.611 165.716 850.611 166.976C850.611 168.236 851.535 169.28 852.831 169.28ZM861.946 167.408V163.952H862.966V167.372C862.966 169.184 861.922 170.24 860.278 170.24C858.646 170.24 857.602 169.184 857.602 167.372V163.952H858.622V167.408C858.622 168.596 859.258 169.28 860.29 169.28C861.298 169.28 861.946 168.596 861.946 167.408ZM868.463 170V161.6H870.923C872.603 161.6 873.647 162.524 873.647 163.964C873.647 165.404 872.603 166.316 870.923 166.316H869.591V170H868.463ZM870.947 162.56H869.591V165.356H870.947C871.907 165.356 872.483 164.84 872.483 163.94C872.483 163.088 871.907 162.56 870.947 162.56ZM879.143 161.36C881.759 161.36 883.547 163.4 883.547 165.8C883.547 168.2 881.759 170.24 879.143 170.24C876.515 170.24 874.727 168.2 874.727 165.8C874.727 163.4 876.515 161.36 879.143 161.36ZM879.143 169.184C881.027 169.184 882.383 167.672 882.383 165.8C882.383 163.928 881.027 162.416 879.143 162.416C877.247 162.416 875.891 163.928 875.891 165.8C875.891 167.672 877.247 169.184 879.143 169.184ZM885.49 170V161.6H887.95C889.63 161.6 890.674 162.524 890.674 163.964C890.674 165.404 889.63 166.316 887.95 166.316H886.618V170H885.49ZM887.974 162.56H886.618V165.356H887.974C888.934 165.356 889.51 164.84 889.51 163.94C889.51 163.088 888.934 162.56 887.974 162.56ZM894.979 168.848L895.819 168.08C896.395 168.824 897.067 169.22 897.847 169.22C898.783 169.22 899.323 168.656 899.323 167.888C899.323 165.992 895.339 166.4 895.339 163.628C895.339 162.38 896.371 161.36 897.835 161.36C899.011 161.36 899.875 161.9 900.499 162.728L899.647 163.472C899.155 162.764 898.567 162.368 897.847 162.368C897.019 162.368 896.491 162.884 896.491 163.604C896.491 165.488 900.463 165.056 900.463 167.852C900.463 169.304 899.347 170.228 897.859 170.228C896.623 170.228 895.711 169.76 894.979 168.848ZM905.132 169.28C905.876 169.28 906.488 168.92 906.86 168.392L907.664 169.004C907.1 169.76 906.224 170.24 905.12 170.24C903.116 170.24 901.832 168.74 901.832 166.976C901.832 165.212 903.116 163.712 905.12 163.712C906.212 163.712 907.1 164.204 907.664 164.948L906.86 165.56C906.488 165.032 905.876 164.672 905.12 164.672C903.824 164.672 902.9 165.692 902.9 166.976C902.9 168.272 903.824 169.28 905.132 169.28ZM909.062 170V161H910.082V164.636C910.574 164.096 911.198 163.712 912.098 163.712C913.454 163.712 914.462 164.624 914.462 166.34V170H913.442V166.376C913.442 165.296 912.842 164.672 911.894 164.672C911.006 164.672 910.466 165.188 910.082 165.812V170H909.062ZM919.276 163.712C921.22 163.712 922.552 165.212 922.552 166.976C922.552 168.74 921.22 170.24 919.276 170.24C917.32 170.24 916 168.74 916 166.976C916 165.212 917.32 163.712 919.276 163.712ZM919.288 169.28C920.548 169.28 921.472 168.224 921.472 166.976C921.472 165.716 920.548 164.672 919.288 164.672C917.992 164.672 917.068 165.716 917.068 166.976C917.068 168.236 917.992 169.28 919.288 169.28ZM927.01 163.712C928.954 163.712 930.286 165.212 930.286 166.976C930.286 168.74 928.954 170.24 927.01 170.24C925.054 170.24 923.734 168.74 923.734 166.976C923.734 165.212 925.054 163.712 927.01 163.712ZM927.022 169.28C928.282 169.28 929.206 168.224 929.206 166.976C929.206 165.716 928.282 164.672 927.022 164.672C925.726 164.672 924.802 165.716 924.802 166.976C924.802 168.236 925.726 169.28 927.022 169.28ZM931.926 170V161H932.946V170H931.926Z" fill="#000091"/>
</svg>
