<svg xmlns="http://www.w3.org/2000/svg" width="1054" height="344" fill="none"><path fill="#fff" d="M0 0h1054v344H0z"/><path fill="#003081" d="M357 197.333a2.667 2.667 0 1 0 0 5.334 2.667 2.667 0 0 0 0-5.334m-.5 2.667v49h1v-49zM526 197.333a2.667 2.667 0 1 0 0 5.334 2.667 2.667 0 0 0 0-5.334m-.5 2.667v49h1v-49zM891 197.333a2.667 2.667 0 1 0 0 5.334 2.667 2.667 0 0 0 0-5.334m-.5 2.667v49h1v-49zM695 197.333a2.667 2.667 0 1 0 0 5.334 2.667 2.667 0 0 0 0-5.334m-.5 2.667v49h1v-49zM161 197.333a2.667 2.667 0 1 0 0 5.334 2.667 2.667 0 0 0 0-5.334m-.5 2.667v49h1v-49z"/><path fill="#000091" d="M37 248a3 3 0 1 0 0 6zm1017 3-30-17.321v34.642zM37 254h990v-6H37z"/><circle cx="34" cy="251" r="14.5" fill="#000091" stroke="#E7F0FF" stroke-width="5"/><path fill="#EEE" d="M34 280h492v32H34z"/><path fill="#161616" d="M222.04 302v-9.8h5.264v1.12h-3.948v3.136h3.388v1.106h-3.388V302zm9.94-7.336c2.268 0 3.822 1.75 3.822 3.808s-1.554 3.808-3.822 3.808c-2.282 0-3.822-1.75-3.822-3.808s1.54-3.808 3.822-3.808m.014 6.496c1.47 0 2.548-1.232 2.548-2.688 0-1.47-1.078-2.688-2.548-2.688-1.512 0-2.59 1.218-2.59 2.688s1.078 2.688 2.59 2.688m5.721.84v-7.056h1.19v.882c.518-.616 1.162-1.022 2.058-1.022.224 0 .434.028.602.084v1.162a2.6 2.6 0 0 0-.7-.084c-.924 0-1.526.476-1.96 1.19V302zm5.565 0v-7.056h1.19v.77c.532-.616 1.232-1.05 2.212-1.05 1.022 0 1.862.462 2.296 1.358.56-.77 1.302-1.358 2.52-1.358 1.512 0 2.618 1.008 2.618 2.926V302h-1.19v-4.368c0-1.176-.658-1.848-1.666-1.848-.896 0-1.526.504-1.988 1.33.014.154.028.308.028.476V302h-1.19v-4.368c0-1.176-.644-1.848-1.666-1.848-.966 0-1.568.602-1.974 1.33V302zm15.152.196c-1.386 0-2.324-.77-2.324-1.974 0-1.064.812-1.82 2.31-2.072l2.38-.392v-.49c0-.98-.7-1.54-1.708-1.54a2.29 2.29 0 0 0-1.904.98l-.896-.686c.616-.84 1.61-1.358 2.842-1.358 1.792 0 2.856 1.05 2.856 2.604V302h-1.19v-.896c-.532.686-1.456 1.092-2.366 1.092m-1.12-2.016c0 .602.49 1.036 1.316 1.036.938 0 1.708-.448 2.17-1.204v-1.386l-2.086.35c-.966.168-1.4.602-1.4 1.204m7.469-.546v-3.612h-1.33v-1.078h1.33v-1.764h1.204v1.764h2.45v1.078h-2.45v3.612c0 1.106.56 1.414 1.414 1.414.462 0 .784-.056 1.05-.168v1.064c-.336.14-.714.196-1.218.196-1.568 0-2.45-.784-2.45-2.506m6.075-6.524a.84.84 0 0 1-.84-.84.84.84 0 0 1 .84-.826c.462 0 .826.378.826.826a.83.83 0 0 1-.826.84m-.602 8.89v-7.056h1.19V302zm6.925-7.336c2.268 0 3.822 1.75 3.822 3.808s-1.554 3.808-3.822 3.808c-2.282 0-3.822-1.75-3.822-3.808s1.54-3.808 3.822-3.808m.014 6.496c1.47 0 2.548-1.232 2.548-2.688 0-1.47-1.078-2.688-2.548-2.688-1.512 0-2.59 1.218-2.59 2.688s1.078 2.688 2.59 2.688m5.721.84v-7.056h1.19v.798c.574-.63 1.302-1.078 2.352-1.078 1.582 0 2.758 1.064 2.758 3.066V302h-1.19v-4.228c0-1.26-.714-1.988-1.806-1.988-1.022 0-1.666.588-2.114 1.33V302zm13.071-8.89a.84.84 0 0 1-.84-.84.84.84 0 0 1 .84-.826c.462 0 .826.378.826.826a.83.83 0 0 1-.826.84m-.602 8.89v-7.056h1.19V302zm3.705 0v-7.056h1.19v.798c.574-.63 1.302-1.078 2.352-1.078 1.582 0 2.758 1.064 2.758 3.066V302h-1.19v-4.228c0-1.26-.714-1.988-1.806-1.988-1.022 0-1.666.588-2.114 1.33V302zm9.297-8.89a.84.84 0 0 1-.84-.84.84.84 0 0 1 .84-.826c.462 0 .826.378.826.826a.83.83 0 0 1-.826.84m-.602 8.89v-7.056h1.19V302zm4.112-2.366v-3.612h-1.33v-1.078h1.33v-1.764h1.204v1.764h2.45v1.078h-2.45v3.612c0 1.106.56 1.414 1.414 1.414.462 0 .784-.056 1.05-.168v1.064c-.336.14-.714.196-1.218.196-1.568 0-2.45-.784-2.45-2.506m6.074-6.524a.84.84 0 0 1-.84-.84.84.84 0 0 1 .84-.826c.462 0 .826.378.826.826a.83.83 0 0 1-.826.84m-.602 8.89v-7.056h1.19V302zm5.624.196c-1.386 0-2.324-.77-2.324-1.974 0-1.064.812-1.82 2.31-2.072l2.38-.392v-.49c0-.98-.7-1.54-1.708-1.54a2.29 2.29 0 0 0-1.904.98l-.896-.686c.616-.84 1.61-1.358 2.842-1.358 1.792 0 2.856 1.05 2.856 2.604V302h-1.19v-.896c-.532.686-1.456 1.092-2.366 1.092m-1.121-2.016c0 .602.491 1.036 1.317 1.036.938 0 1.708-.448 2.17-1.204v-1.386l-2.086.35c-.966.168-1.401.602-1.401 1.204m7.064 1.82v-10.5h1.19V302zm9.977-1.162c-.658.882-1.708 1.442-3.024 1.442-2.38 0-3.85-1.75-3.85-3.808 0-2.142 1.372-3.808 3.556-3.808 1.918 0 3.164 1.344 3.164 3.08 0 .28-.042.546-.084.742h-5.418c.042 1.694 1.12 2.716 2.632 2.716.91 0 1.68-.42 2.142-1.05zm-3.346-5.166c-1.162 0-1.974.686-2.226 1.904h4.228c-.042-1.036-.756-1.904-2.002-1.904"/><path fill="#EEE" d="M695 280h196v32H695z"/><path fill="#161616" d="M727.699 302v-9.8h5.264v1.12h-3.948v3.136h3.388v1.106h-3.388V302zm9.939-7.336c2.268 0 3.822 1.75 3.822 3.808s-1.554 3.808-3.822 3.808c-2.282 0-3.822-1.75-3.822-3.808s1.54-3.808 3.822-3.808m.014 6.496c1.47 0 2.548-1.232 2.548-2.688 0-1.47-1.078-2.688-2.548-2.688-1.512 0-2.59 1.218-2.59 2.688s1.078 2.688 2.59 2.688m5.721.84v-7.056h1.19v.882c.518-.616 1.162-1.022 2.058-1.022.224 0 .434.028.602.084v1.162a2.6 2.6 0 0 0-.7-.084c-.924 0-1.526.476-1.96 1.19V302zm5.565 0v-7.056h1.19v.77c.532-.616 1.232-1.05 2.212-1.05 1.022 0 1.862.462 2.296 1.358.56-.77 1.302-1.358 2.52-1.358 1.512 0 2.618 1.008 2.618 2.926V302h-1.19v-4.368c0-1.176-.658-1.848-1.666-1.848-.896 0-1.526.504-1.988 1.33.014.154.028.308.028.476V302h-1.19v-4.368c0-1.176-.644-1.848-1.666-1.848-.966 0-1.568.602-1.974 1.33V302zm15.152.196c-1.386 0-2.324-.77-2.324-1.974 0-1.064.812-1.82 2.31-2.072l2.38-.392v-.49c0-.98-.7-1.54-1.708-1.54a2.29 2.29 0 0 0-1.904.98l-.896-.686c.616-.84 1.61-1.358 2.842-1.358 1.792 0 2.856 1.05 2.856 2.604V302h-1.19v-.896c-.532.686-1.456 1.092-2.366 1.092m-1.12-2.016c0 .602.49 1.036 1.316 1.036.938 0 1.708-.448 2.17-1.204v-1.386l-2.086.35c-.966.168-1.4.602-1.4 1.204m7.469-.546v-3.612h-1.33v-1.078h1.33v-1.764h1.204v1.764h2.45v1.078h-2.45v3.612c0 1.106.56 1.414 1.414 1.414.462 0 .784-.056 1.05-.168v1.064c-.336.14-.714.196-1.218.196-1.568 0-2.45-.784-2.45-2.506m6.075-6.524a.84.84 0 0 1-.84-.84.84.84 0 0 1 .84-.826c.462 0 .826.378.826.826a.83.83 0 0 1-.826.84m-.602 8.89v-7.056h1.19V302zm6.925-7.336c2.268 0 3.822 1.75 3.822 3.808s-1.554 3.808-3.822 3.808c-2.282 0-3.822-1.75-3.822-3.808s1.54-3.808 3.822-3.808m.014 6.496c1.47 0 2.548-1.232 2.548-2.688 0-1.47-1.078-2.688-2.548-2.688-1.512 0-2.59 1.218-2.59 2.688s1.078 2.688 2.59 2.688m5.722.84v-7.056h1.19v.798c.574-.63 1.302-1.078 2.352-1.078 1.582 0 2.758 1.064 2.758 3.066V302h-1.19v-4.228c0-1.26-.714-1.988-1.806-1.988-1.022 0-1.666.588-2.114 1.33V302zm15.716-.84c.868 0 1.582-.42 2.016-1.036l.938.714c-.658.882-1.68 1.442-2.968 1.442-2.338 0-3.836-1.75-3.836-3.808s1.498-3.808 3.836-3.808c1.274 0 2.31.574 2.968 1.442l-.938.714a2.44 2.44 0 0 0-2.03-1.036c-1.512 0-2.59 1.19-2.59 2.688 0 1.512 1.078 2.688 2.604 2.688m7.533-6.496c2.268 0 3.822 1.75 3.822 3.808s-1.554 3.808-3.822 3.808c-2.282 0-3.822-1.75-3.822-3.808s1.54-3.808 3.822-3.808m.014 6.496c1.47 0 2.548-1.232 2.548-2.688 0-1.47-1.078-2.688-2.548-2.688-1.512 0-2.59 1.218-2.59 2.688s1.078 2.688 2.59 2.688m5.721.84v-7.056h1.19v.798c.574-.63 1.302-1.078 2.352-1.078 1.582 0 2.758 1.064 2.758 3.066V302h-1.19v-4.228c0-1.26-.714-1.988-1.806-1.988-1.022 0-1.666.588-2.114 1.33V302zm9.101-2.366v-3.612h-1.33v-1.078h1.33v-1.764h1.204v1.764h2.45v1.078h-2.45v3.612c0 1.106.56 1.414 1.414 1.414.462 0 .784-.056 1.05-.168v1.064c-.336.14-.714.196-1.218.196-1.568 0-2.45-.784-2.45-2.506m6.075-6.524a.84.84 0 0 1-.84-.84.84.84 0 0 1 .84-.826c.462 0 .826.378.826.826a.83.83 0 0 1-.826.84m-.602 8.89v-7.056h1.19V302zm3.705 0v-7.056h1.19v.798c.574-.63 1.302-1.078 2.352-1.078 1.582 0 2.758 1.064 2.758 3.066V302h-1.19v-4.228c0-1.26-.714-1.988-1.806-1.988-1.022 0-1.666.588-2.114 1.33V302zm13.609-3.024v-4.032h1.19v3.99c0 2.114-1.218 3.346-3.136 3.346-1.904 0-3.122-1.232-3.122-3.346v-3.99h1.19v4.032c0 1.386.742 2.184 1.946 2.184 1.176 0 1.932-.798 1.932-2.184m9.808 1.862c-.658.882-1.708 1.442-3.024 1.442-2.38 0-3.85-1.75-3.85-3.808 0-2.142 1.372-3.808 3.556-3.808 1.918 0 3.164 1.344 3.164 3.08 0 .28-.042.546-.084.742h-5.418c.042 1.694 1.12 2.716 2.632 2.716.91 0 1.68-.42 2.142-1.05zm-3.346-5.166c-1.162 0-1.974.686-2.226 1.904h4.228c-.042-1.036-.756-1.904-2.002-1.904"/><path fill="#000091" d="M17.334 194v-9.8h3.234c2.156 0 3.472 1.106 3.472 2.926 0 1.806-1.316 2.912-3.472 2.912h-1.246V194zm3.318-8.148h-1.33v2.534h1.33c.84 0 1.344-.49 1.344-1.288 0-.742-.504-1.246-1.344-1.246M25.419 194v-7.056h1.777v.7c.462-.476 1.064-.84 1.862-.84.239 0 .448.042.616.098v1.75a3 3 0 0 0-.784-.098c-.867 0-1.428.476-1.694.924V194zm6.583-8.288c-.63 0-1.162-.532-1.162-1.162s.532-1.162 1.162-1.162 1.148.532 1.148 1.162-.518 1.162-1.148 1.162M31.106 194v-7.056h1.778V194zm3.198-1.022 1.176-1.064c.434.546.952.938 1.624.938.574 0 .868-.336.868-.756 0-1.232-3.374-.77-3.374-3.248 0-1.246 1.05-2.184 2.52-2.184 1.078 0 2.058.518 2.562 1.204l-1.176 1.036c-.364-.448-.826-.812-1.372-.812-.56 0-.826.308-.826.672 0 1.204 3.374.784 3.374 3.22-.028 1.484-1.218 2.296-2.548 2.296-1.26 0-2.156-.504-2.828-1.302m13.484-.126c-.658.882-1.75 1.428-3.08 1.428-2.506 0-3.92-1.75-3.92-3.808 0-2.086 1.316-3.808 3.626-3.808 1.96 0 3.247 1.33 3.247 3.178 0 .392-.056.756-.111.994h-4.942c.168 1.316.98 1.848 2.086 1.848.77 0 1.441-.336 1.82-.84zm-3.416-4.732c-.91 0-1.513.504-1.709 1.428h3.249c-.029-.714-.547-1.428-1.54-1.428M4.857 214.472c0-2.058 1.358-3.808 3.584-3.808.952 0 1.638.294 2.184.84V207.5h1.792V218h-1.792v-.56c-.546.546-1.232.84-2.184.84-2.226 0-3.584-1.75-3.584-3.808m1.862 0c0 1.232.77 2.128 1.974 2.128.798 0 1.456-.336 1.932-.98v-2.296c-.476-.644-1.134-.98-1.932-.98-1.204 0-1.974.896-1.974 2.128m14.325 2.38c-.658.882-1.75 1.428-3.08 1.428-2.506 0-3.92-1.75-3.92-3.808 0-2.086 1.316-3.808 3.626-3.808 1.96 0 3.248 1.33 3.248 3.178 0 .392-.056.756-.112.994h-4.942c.168 1.316.98 1.848 2.086 1.848.77 0 1.442-.336 1.82-.84zm-3.416-4.732c-.91 0-1.512.504-1.708 1.428h3.248c-.028-.714-.546-1.428-1.54-1.428m8.801 9.324v-10.5h1.778v.574c.546-.546 1.232-.854 2.198-.854 2.24 0 3.584 1.75 3.584 3.808s-1.344 3.808-3.584 3.808c-.966 0-1.652-.308-2.198-.854v4.018zm3.724-9.1c-.826 0-1.498.364-1.946 1.022v2.212c.476.672 1.134 1.022 1.946 1.022 1.204 0 1.988-.896 1.988-2.128s-.784-2.128-1.988-2.128m8.892-1.68c2.296 0 3.864 1.694 3.864 3.808s-1.568 3.808-3.864 3.808-3.864-1.694-3.864-3.808 1.568-3.808 3.864-3.808m.028 5.936c1.134 0 1.988-.91 1.988-2.128 0-1.232-.854-2.128-1.988-2.128-1.176 0-2.044.896-2.044 2.128s.868 2.128 2.044 2.128m4.61.378 1.175-1.064c.434.546.952.938 1.624.938.574 0 .868-.336.868-.756 0-1.232-3.374-.77-3.374-3.248 0-1.246 1.05-2.184 2.52-2.184 1.078 0 2.058.518 2.562 1.204l-1.176 1.036c-.364-.448-.826-.812-1.372-.812-.56 0-.826.308-.826.672 0 1.204 3.374.784 3.374 3.22-.028 1.484-1.218 2.296-2.548 2.296-1.26 0-2.156-.504-2.828-1.302m7.571-1.554v-2.884H49.94v-1.596h1.316v-1.764h1.792v1.764h2.156v1.596h-2.156v2.884c0 .784.42 1.092 1.12 1.092.49 0 .812-.056 1.05-.154v1.554c-.35.154-.77.224-1.358.224-1.764 0-2.604-.994-2.604-2.716m11.9 1.428c-.658.882-1.75 1.428-3.08 1.428-2.506 0-3.92-1.75-3.92-3.808 0-2.086 1.316-3.808 3.626-3.808 1.96 0 3.248 1.33 3.248 3.178 0 .392-.056.756-.112.994h-4.942c.168 1.316.98 1.848 2.086 1.848.77 0 1.442-.336 1.82-.84zm-3.416-4.732c-.91 0-1.512.504-1.708 1.428h3.248c-.028-.714-.546-1.428-1.54-1.428"/><rect width="164" height="144" x="79.5" y="39" fill="#E8EDFF" rx="8"/><path fill="#161616" d="M123.266 72v-9.8h3.234c2.156 0 3.472 1.106 3.472 2.926 0 1.806-1.316 2.912-3.472 2.912h-1.246V72zm3.318-8.148h-1.33v2.534h1.33c.84 0 1.344-.49 1.344-1.288 0-.742-.504-1.246-1.344-1.246m6.509 8.358c-1.414 0-2.38-.812-2.38-2.114 0-1.064.826-1.862 2.338-2.114l2.156-.364v-.182c0-.742-.56-1.218-1.372-1.218-.686 0-1.218.322-1.596.84l-1.302-.994c.63-.868 1.666-1.4 2.954-1.4 2.044 0 3.094 1.218 3.094 2.772V72h-1.778v-.686c-.448.546-1.288.896-2.114.896m-.616-2.198c0 .476.378.784.98.784.812 0 1.4-.378 1.75-.938v-.994l-1.68.28c-.742.126-1.05.434-1.05.868M139.021 72v-7.056h1.778v.7c.462-.476 1.064-.84 1.862-.84.238 0 .448.042.616.098v1.75a3 3 0 0 0-.784-.098c-.868 0-1.428.476-1.694.924V72zm8.775-1.4c.7 0 1.26-.322 1.596-.812l1.386 1.064c-.658.868-1.694 1.428-2.982 1.428-2.436 0-3.892-1.75-3.892-3.808s1.456-3.808 3.892-3.808c1.288 0 2.324.56 2.982 1.428l-1.386 1.064c-.336-.49-.896-.812-1.624-.812-1.162 0-2.016.896-2.016 2.128 0 1.246.854 2.128 2.044 2.128m7.396-5.936c2.296 0 3.864 1.694 3.864 3.808s-1.568 3.808-3.864 3.808-3.864-1.694-3.864-3.808 1.568-3.808 3.864-3.808m.028 5.936c1.134 0 1.988-.91 1.988-2.128 0-1.232-.854-2.128-1.988-2.128-1.176 0-2.044.896-2.044 2.128s.868 2.128 2.044 2.128m10.105-1.652v-4.004h1.792v3.92c0 2.114-1.232 3.416-3.304 3.416s-3.29-1.302-3.29-3.416v-3.92h1.792v4.004c0 1.022.532 1.652 1.512 1.652.966 0 1.498-.63 1.498-1.652m3.76 3.052v-7.056h1.778v.7c.462-.476 1.064-.84 1.862-.84.238 0 .448.042.616.098v1.75a3 3 0 0 0-.784-.098c-.868 0-1.428.476-1.694.924V72zm5.072-1.022 1.176-1.064c.434.546.952.938 1.624.938.574 0 .868-.336.868-.756 0-1.232-3.374-.77-3.374-3.248 0-1.246 1.05-2.184 2.52-2.184 1.078 0 2.058.518 2.562 1.204l-1.176 1.036c-.364-.448-.826-.812-1.372-.812-.56 0-.826.308-.826.672 0 1.204 3.374.784 3.374 3.22-.028 1.484-1.218 2.296-2.548 2.296-1.26 0-2.156-.504-2.828-1.302m10.284-2.506c0-2.058 1.358-3.808 3.584-3.808.952 0 1.638.294 2.184.84V61.5h1.792V72h-1.792v-.56c-.546.546-1.232.84-2.184.84-2.226 0-3.584-1.75-3.584-3.808m1.862 0c0 1.232.77 2.128 1.974 2.128.798 0 1.456-.336 1.932-.98v-2.296c-.476-.644-1.134-.98-1.932-.98-1.204 0-1.974.896-1.974 2.128m14.325 2.38c-.658.882-1.75 1.428-3.08 1.428-2.506 0-3.92-1.75-3.92-3.808 0-2.086 1.316-3.808 3.626-3.808 1.96 0 3.248 1.33 3.248 3.178 0 .392-.056.756-.112.994h-4.942c.168 1.316.98 1.848 2.086 1.848.77 0 1.442-.336 1.82-.84zm-3.416-4.732c-.91 0-1.512.504-1.708 1.428h3.248c-.028-.714-.546-1.428-1.54-1.428m-96.117 20.824h1.316v-.742c0-1.498.994-2.702 2.758-2.702.644 0 1.19.154 1.638.392l-.756 1.484c-.21-.154-.49-.28-.854-.28-.602 0-.994.42-.994 1.064v.784h2.156v1.596h-2.156V94h-1.792v-5.46h-1.316zm9.574-.28c2.296 0 3.864 1.694 3.864 3.808s-1.568 3.808-3.864 3.808-3.864-1.694-3.864-3.808 1.568-3.808 3.864-3.808m.028 5.936c1.134 0 1.988-.91 1.988-2.128 0-1.232-.854-2.128-1.988-2.128-1.176 0-2.044.896-2.044 2.128s.868 2.128 2.044 2.128m5.458 1.4v-7.056h1.778v.7c.462-.476 1.064-.84 1.862-.84.238 0 .448.042.616.098v1.75a3 3 0 0 0-.784-.098c-.868 0-1.428.476-1.694.924V94zm5.687 0v-7.056h1.778v.532c.476-.462 1.078-.812 1.946-.812.896 0 1.68.392 2.142 1.148.504-.616 1.176-1.148 2.366-1.148 1.456 0 2.604 1.008 2.604 2.996V94h-1.792v-4.27c0-.854-.462-1.386-1.26-1.386-.77 0-1.19.532-1.47 1.008.014.098.014.196.014.308V94h-1.792v-4.27c0-.854-.462-1.386-1.26-1.386-.812 0-1.232.602-1.498 1.05V94zm14.854.21c-1.414 0-2.38-.812-2.38-2.114 0-1.064.826-1.862 2.338-2.114l2.156-.364v-.182c0-.742-.56-1.218-1.372-1.218-.686 0-1.218.322-1.596.84l-1.302-.994c.63-.868 1.666-1.4 2.954-1.4 2.044 0 3.094 1.218 3.094 2.772V94h-1.778v-.686c-.448.546-1.288.896-2.114.896m-.616-2.198c0 .476.378.784.98.784.812 0 1.4-.378 1.75-.938v-.994l-1.68.28c-.742.126-1.05.434-1.05.868m6.992-.588V88.54h-1.316v-1.596h1.316V85.18h1.792v1.764h2.156v1.596h-2.156v2.884c0 .784.42 1.092 1.12 1.092.49 0 .812-.056 1.05-.154v1.554c-.35.154-.77.224-1.358.224-1.764 0-2.604-.994-2.604-2.716m6.436-5.712c-.63 0-1.162-.532-1.162-1.162s.532-1.162 1.162-1.162 1.148.532 1.148 1.162-.518 1.162-1.148 1.162M148.612 94v-7.056h1.778V94zm7.27-7.336c2.296 0 3.864 1.694 3.864 3.808s-1.568 3.808-3.864 3.808-3.864-1.694-3.864-3.808 1.568-3.808 3.864-3.808m.028 5.936c1.134 0 1.988-.91 1.988-2.128 0-1.232-.854-2.128-1.988-2.128-1.176 0-2.044.896-2.044 2.128s.868 2.128 2.044 2.128m5.458 1.4v-7.056h1.778v.56a2.87 2.87 0 0 1 2.086-.84c1.526 0 2.744 1.05 2.744 3.136V94h-1.792v-4.13c0-.938-.532-1.526-1.4-1.526-.896 0-1.372.602-1.638 1.05V94zm18.896-1.148c-.658.882-1.75 1.428-3.08 1.428-2.506 0-3.92-1.75-3.92-3.808 0-2.086 1.316-3.808 3.626-3.808 1.96 0 3.248 1.33 3.248 3.178 0 .392-.056.756-.112.994h-4.942c.168 1.316.98 1.848 2.086 1.848.77 0 1.442-.336 1.82-.84zm-3.416-4.732c-.91 0-1.512.504-1.708 1.428h3.248c-.028-.714-.546-1.428-1.54-1.428m5.028 5.88v-7.056h1.778v.56a2.87 2.87 0 0 1 2.086-.84c1.526 0 2.744 1.05 2.744 3.136V94h-1.792v-4.13c0-.938-.532-1.526-1.4-1.526-.896 0-1.372.602-1.638 1.05V94zm14.486 0h-2.184l4.928-8.092h-5.054V84.2h7.056v1.708zm9.144-10.08c2.576 0 3.78 2.24 3.78 5.18s-1.204 5.18-3.78 5.18-3.78-2.24-3.78-5.18 1.204-5.18 3.78-5.18m0 1.75c-1.246 0-1.848 1.372-1.848 3.43 0 2.072.602 3.43 1.848 3.43 1.232 0 1.834-1.372 1.834-3.43 0-2.072-.602-3.43-1.834-3.43m5.258 8.33V83.5h1.778v4.004a2.87 2.87 0 0 1 2.086-.84c1.526 0 2.744 1.05 2.744 3.136V94h-1.792v-4.13c0-.938-.518-1.526-1.4-1.526-.896 0-1.372.602-1.638 1.05V94zm9.467 2.24h-1.652l1.274-4.186h2.002zm-99.478 19.746v-7.854l-2.03 1.148-.938-1.344 3.024-1.75h1.834v9.8zm6.347.014h-2.184l4.928-8.092h-5.054V106.2h7.056v1.708zm6.231-4.34.294-5.46h5.838v1.708h-4.032l-.112 2.044h.756c2.604 0 3.752 1.19 3.752 3.094 0 2.002-1.568 3.234-3.584 3.234-1.82 0-3.024-.798-3.836-2.212l1.652-1.022c.56 1.078 1.232 1.554 2.184 1.554.966 0 1.652-.574 1.652-1.484 0-.924-.686-1.456-1.904-1.456zm8.199 4.34v-10.5h1.778v4.004a2.87 2.87 0 0 1 2.086-.84c1.526 0 2.744 1.05 2.744 3.136v4.2h-1.792v-4.13c0-.938-.518-1.526-1.4-1.526-.896 0-1.372.602-1.638 1.05V116zm15.76-7.336c2.296 0 3.864 1.694 3.864 3.808s-1.568 3.808-3.864 3.808-3.864-1.694-3.864-3.808 1.568-3.808 3.864-3.808m.028 5.936c1.134 0 1.988-.91 1.988-2.128 0-1.232-.854-2.128-1.988-2.128-1.176 0-2.044.896-2.044 2.128s.868 2.128 2.044 2.128m10.106-1.652v-4.004h1.792v3.92c0 2.114-1.232 3.416-3.304 3.416s-3.29-1.302-3.29-3.416v-3.92h1.792v4.004c0 1.022.532 1.652 1.512 1.652.966 0 1.498-.63 1.498-1.652m14.184.252c0 1.862-1.526 3.08-3.57 3.08-1.848 0-3.038-.812-3.836-2.212l1.652-1.022c.546 1.078 1.204 1.554 2.17 1.554.952 0 1.666-.574 1.666-1.484 0-.896-.7-1.456-1.736-1.456h-1.61v-1.68h1.484c.826 0 1.428-.462 1.428-1.218 0-.742-.56-1.162-1.33-1.162-.784 0-1.316.42-1.722 1.12l-1.54-.952c.714-1.162 1.82-1.848 3.402-1.848 1.792 0 3.122 1.022 3.122 2.632 0 .91-.392 1.68-1.12 2.184.994.504 1.54 1.386 1.54 2.464m3.362 2.786v-7.854l-2.03 1.148-.938-1.344 3.024-1.75h1.834v9.8zm4.512-4.326.294-5.46h5.838v1.708h-4.032l-.112 2.044h.756c2.604 0 3.752 1.19 3.752 3.094 0 2.002-1.568 3.234-3.584 3.234-1.82 0-3.024-.798-3.836-2.212l1.652-1.022c.56 1.078 1.232 1.554 2.184 1.554.966 0 1.652-.574 1.652-1.484 0-.924-.686-1.456-1.904-1.456zm8.198 4.34v-10.5h1.778v4.004a2.87 2.87 0 0 1 2.086-.84c1.526 0 2.744 1.05 2.744 3.136v4.2h-1.792v-4.13c0-.938-.518-1.526-1.4-1.526-.896 0-1.372.602-1.638 1.05V116z"/><path fill="#000091" d="M137.062 150v-8.4h1.128v7.368h3.384V150zm7.826.168c-1.188 0-1.992-.66-1.992-1.692 0-.912.696-1.56 1.98-1.776l2.04-.336v-.42c0-.84-.6-1.32-1.464-1.32-.696 0-1.26.324-1.632.84l-.768-.588c.528-.72 1.38-1.164 2.436-1.164 1.536 0 2.448.9 2.448 2.232V150h-1.02v-.768c-.456.588-1.248.936-2.028.936m-.96-1.728c0 .516.42.888 1.128.888.804 0 1.464-.384 1.86-1.032v-1.188l-1.788.3c-.828.144-1.2.516-1.2 1.032m9.541 1.56v-8.4h4.512v.96h-3.384v2.688h2.904v.948h-2.904V150zm7.357.168c-1.188 0-1.992-.66-1.992-1.692 0-.912.696-1.56 1.98-1.776l2.04-.336v-.42c0-.84-.6-1.32-1.464-1.32-.696 0-1.26.324-1.632.84l-.768-.588c.528-.72 1.38-1.164 2.436-1.164 1.536 0 2.448.9 2.448 2.232V150h-1.02v-.768c-.456.588-1.248.936-2.028.936m-.96-1.728c0 .516.42.888 1.128.888.804 0 1.464-.384 1.86-1.032v-1.188l-1.788.3c-.828.144-1.2.516-1.2 1.032m12.33-1.464c0 1.764-1.212 3.264-3.108 3.264-.9 0-1.608-.348-2.148-.96v.72h-1.02v-9h1.02v3.672c.54-.612 1.248-.96 2.148-.96 1.896 0 3.108 1.5 3.108 3.264m-3.228-2.304c-.84 0-1.584.408-2.028 1.116v2.376c.468.72 1.2 1.116 2.028 1.116 1.284 0 2.16-1.02 2.16-2.304s-.876-2.304-2.16-2.304m4.885 5.328v-6.048h1.02v.756c.444-.528.996-.876 1.764-.876.192 0 .372.024.516.072v.996a2.2 2.2 0 0 0-.6-.072c-.792 0-1.308.408-1.68 1.02V150zm5.286-7.62a.72.72 0 0 1-.72-.72.72.72 0 0 1 .72-.708.71.71 0 0 1 .708.708c0 .396-.312.72-.708.72m-.516 7.62v-6.048h1.02V150zm3.188 0v-9h1.032v5.784l2.844-2.832h1.308l-2.532 2.52 2.58 3.528h-1.26l-2.052-2.808-.888.876V150zm-58.992 13.712c1.944 0 3.276 1.5 3.276 3.264s-1.332 3.264-3.276 3.264c-1.956 0-3.276-1.5-3.276-3.264s1.32-3.264 3.276-3.264m.012 5.568c1.26 0 2.184-1.056 2.184-2.304 0-1.26-.924-2.304-2.184-2.304-1.296 0-2.22 1.044-2.22 2.304s.924 2.304 2.22 2.304m9.115-1.872v-3.456h1.02v3.42c0 1.812-1.044 2.868-2.688 2.868-1.632 0-2.676-1.056-2.676-2.868v-3.42h1.02v3.456c0 1.188.636 1.872 1.668 1.872 1.008 0 1.656-.684 1.656-1.872m6.517 2.592v-8.4h2.46c1.68 0 2.724.924 2.724 2.364s-1.044 2.352-2.724 2.352h-1.332V170zm2.484-7.44h-1.356v2.796h1.356c.96 0 1.536-.516 1.536-1.416 0-.852-.576-1.38-1.536-1.38m8.196-1.2c2.616 0 4.404 2.04 4.404 4.44s-1.788 4.44-4.404 4.44c-2.628 0-4.416-2.04-4.416-4.44s1.788-4.44 4.416-4.44m0 7.824c1.884 0 3.24-1.512 3.24-3.384s-1.356-3.384-3.24-3.384c-1.896 0-3.252 1.512-3.252 3.384s1.356 3.384 3.252 3.384m6.347.816v-8.4h2.46c1.68 0 2.724.924 2.724 2.364s-1.044 2.352-2.724 2.352h-1.332V170zm2.484-7.44h-1.356v2.796h1.356c.96 0 1.536-.516 1.536-1.416 0-.852-.576-1.38-1.536-1.38m7.005 6.288.84-.768c.576.744 1.248 1.14 2.028 1.14.936 0 1.476-.564 1.476-1.332 0-1.896-3.984-1.488-3.984-4.26 0-1.248 1.032-2.268 2.496-2.268 1.176 0 2.04.54 2.664 1.368l-.852.744c-.492-.708-1.08-1.104-1.8-1.104-.828 0-1.356.516-1.356 1.236 0 1.884 3.972 1.452 3.972 4.248 0 1.452-1.116 2.376-2.604 2.376-1.236 0-2.148-.468-2.88-1.38m10.153.432c.744 0 1.356-.36 1.728-.888l.804.612c-.564.756-1.44 1.236-2.544 1.236-2.004 0-3.288-1.5-3.288-3.264s1.284-3.264 3.288-3.264c1.092 0 1.98.492 2.544 1.236l-.804.612a2.09 2.09 0 0 0-1.74-.888c-1.296 0-2.22 1.02-2.22 2.304 0 1.296.924 2.304 2.232 2.304m3.93.72v-9h1.02v3.636c.492-.54 1.116-.924 2.016-.924 1.356 0 2.364.912 2.364 2.628V170h-1.02v-3.624c0-1.08-.6-1.704-1.548-1.704-.888 0-1.428.516-1.812 1.14V170zm10.214-6.288c1.944 0 3.276 1.5 3.276 3.264s-1.332 3.264-3.276 3.264c-1.956 0-3.276-1.5-3.276-3.264s1.32-3.264 3.276-3.264m.012 5.568c1.26 0 2.184-1.056 2.184-2.304 0-1.26-.924-2.304-2.184-2.304-1.296 0-2.22 1.044-2.22 2.304s.924 2.304 2.22 2.304m7.722-5.568c1.944 0 3.276 1.5 3.276 3.264s-1.332 3.264-3.276 3.264c-1.956 0-3.276-1.5-3.276-3.264s1.32-3.264 3.276-3.264m.012 5.568c1.26 0 2.184-1.056 2.184-2.304 0-1.26-.924-2.304-2.184-2.304-1.296 0-2.22 1.044-2.22 2.304s.924 2.304 2.22 2.304m4.904.72v-9h1.02v9z"/><rect width="164" height="144" x="275.5" y="39" fill="#BAFAEE" rx="8"/><path fill="#161616" d="m294.698 70.642 1.442-1.33c.588.756 1.372 1.204 2.17 1.204.784 0 1.26-.42 1.26-1.12 0-1.806-4.452-1.316-4.452-4.634 0-1.554 1.288-2.842 3.164-2.842 1.47 0 2.59.658 3.43 1.652l-1.456 1.316c-.574-.742-1.218-1.232-1.96-1.232-.7 0-1.162.448-1.162 1.036 0 1.778 4.452 1.274 4.452 4.634-.028 1.848-1.456 2.954-3.262 2.954-1.652 0-2.758-.602-3.626-1.638m13.355-1.694v-4.004h1.792v3.92c0 2.114-1.232 3.416-3.304 3.416s-3.29-1.302-3.29-3.416v-3.92h1.792v4.004c0 1.022.532 1.652 1.512 1.652.966 0 1.498-.63 1.498-1.652m4.656-5.236c-.63 0-1.162-.532-1.162-1.162s.532-1.162 1.162-1.162 1.148.532 1.148 1.162-.518 1.162-1.148 1.162M311.813 72v-7.056h1.778V72zm2.902-7.056h1.904l1.834 5.04 1.82-5.04h1.918L319.615 72h-2.338zm9.492-1.232c-.63 0-1.162-.532-1.162-1.162s.532-1.162 1.162-1.162 1.148.532 1.148 1.162-.518 1.162-1.148 1.162M323.311 72v-7.056h1.778V72zm7.18-3.528c0-2.058 1.358-3.808 3.584-3.808.952 0 1.638.294 2.184.84V61.5h1.792V72h-1.792v-.56c-.546.546-1.232.84-2.184.84-2.226 0-3.584-1.75-3.584-3.808m1.862 0c0 1.232.77 2.128 1.974 2.128.798 0 1.456-.336 1.932-.98v-2.296c-.476-.644-1.134-.98-1.932-.98-1.204 0-1.974.896-1.974 2.128m14.325 2.38c-.658.882-1.75 1.428-3.08 1.428-2.506 0-3.92-1.75-3.92-3.808 0-2.086 1.316-3.808 3.626-3.808 1.96 0 3.248 1.33 3.248 3.178 0 .392-.056.756-.112.994h-4.942c.168 1.316.98 1.848 2.086 1.848.77 0 1.442-.336 1.82-.84zm-3.416-4.732c-.91 0-1.512.504-1.708 1.428h3.248c-.028-.714-.546-1.428-1.54-1.428m8.549 5.88v-1.708l3.36-3.304c.756-.77 1.232-1.302 1.232-2.1 0-.812-.56-1.288-1.33-1.288-.938 0-1.512.574-2.03 1.442l-1.54-.938c.826-1.344 2.044-2.184 3.752-2.184s3.08 1.092 3.08 2.772c0 1.344-.882 2.38-1.848 3.318l-2.366 2.282h4.466V72zm12.42 0v-7.056h1.778v.532c.476-.462 1.078-.812 1.946-.812.896 0 1.68.392 2.142 1.148.504-.616 1.176-1.148 2.366-1.148 1.456 0 2.604 1.008 2.604 2.996V72h-1.792v-4.27c0-.854-.462-1.386-1.26-1.386-.77 0-1.19.532-1.47 1.008.014.098.014.196.014.308V72h-1.792v-4.27c0-.854-.462-1.386-1.26-1.386-.812 0-1.232.602-1.498 1.05V72zm16.225-7.336c2.296 0 3.864 1.694 3.864 3.808s-1.568 3.808-3.864 3.808-3.864-1.694-3.864-3.808 1.568-3.808 3.864-3.808m.028 5.936c1.134 0 1.988-.91 1.988-2.128 0-1.232-.854-2.128-1.988-2.128-1.176 0-2.044.896-2.044 2.128s.868 2.128 2.044 2.128m5.022-2.128c0-2.058 1.358-3.808 3.584-3.808.952 0 1.638.294 2.184.84V61.5h1.792V72h-1.792v-.56c-.546.546-1.232.84-2.184.84-2.226 0-3.584-1.75-3.584-3.808m1.862 0c0 1.232.77 2.128 1.974 2.128.798 0 1.456-.336 1.932-.98v-2.296c-.476-.644-1.134-.98-1.932-.98-1.204 0-1.974.896-1.974 2.128m12.478.476v-4.004h1.792v3.92c0 2.114-1.232 3.416-3.304 3.416s-3.29-1.302-3.29-3.416v-3.92h1.792v4.004c0 1.022.532 1.652 1.512 1.652.966 0 1.498-.63 1.498-1.652m3.76 3.052V61.5h1.778V72zm10.406-1.148c-.658.882-1.75 1.428-3.08 1.428-2.506 0-3.92-1.75-3.92-3.808 0-2.086 1.316-3.808 3.626-3.808 1.96 0 3.248 1.33 3.248 3.178 0 .392-.056.756-.112.994h-4.942c.168 1.316.98 1.848 2.086 1.848.77 0 1.442-.336 1.82-.84zm-3.416-4.732c-.91 0-1.512.504-1.708 1.428h3.248c-.028-.714-.546-1.428-1.54-1.428m4.316 4.858 1.176-1.064c.434.546.952.938 1.624.938.574 0 .868-.336.868-.756 0-1.232-3.374-.77-3.374-3.248 0-1.246 1.05-2.184 2.52-2.184 1.078 0 2.058.518 2.562 1.204l-1.176 1.036c-.364-.448-.826-.812-1.372-.812-.56 0-.826.308-.826.672 0 1.204 3.374.784 3.374 3.22-.028 1.484-1.218 2.296-2.548 2.296-1.26 0-2.156-.504-2.828-1.302M303.177 92.6c.7 0 1.26-.322 1.596-.812l1.386 1.064c-.658.868-1.694 1.428-2.982 1.428-2.436 0-3.892-1.75-3.892-3.808s1.456-3.808 3.892-3.808c1.288 0 2.324.56 2.982 1.428l-1.386 1.064c-.336-.49-.896-.812-1.624-.812-1.162 0-2.016.896-2.016 2.128 0 1.246.854 2.128 2.044 2.128m7.395-5.936c2.296 0 3.864 1.694 3.864 3.808s-1.568 3.808-3.864 3.808-3.864-1.694-3.864-3.808 1.568-3.808 3.864-3.808m.028 5.936c1.134 0 1.988-.91 1.988-2.128 0-1.232-.854-2.128-1.988-2.128-1.176 0-2.044.896-2.044 2.128s.868 2.128 2.044 2.128m5.458 1.4v-7.056h1.778v.532c.476-.462 1.078-.812 1.946-.812.896 0 1.68.392 2.142 1.148.504-.616 1.176-1.148 2.366-1.148 1.456 0 2.604 1.008 2.604 2.996V94h-1.792v-4.27c0-.854-.462-1.386-1.26-1.386-.77 0-1.19.532-1.47 1.008.014.098.014.196.014.308V94h-1.792v-4.27c0-.854-.462-1.386-1.26-1.386-.812 0-1.232.602-1.498 1.05V94zm12.865 3.444v-10.5h1.778v.574c.546-.546 1.232-.854 2.198-.854 2.24 0 3.584 1.75 3.584 3.808s-1.344 3.808-3.584 3.808c-.966 0-1.652-.308-2.198-.854v4.018zm3.724-9.1c-.826 0-1.498.364-1.946 1.022v2.212c.476.672 1.134 1.022 1.946 1.022 1.204 0 1.988-.896 1.988-2.128s-.784-2.128-1.988-2.128M338.111 94V83.5h1.778V94zm8.012-8.176h-1.708l1.456-2.324h1.932zm2.394 7.028c-.658.882-1.75 1.428-3.08 1.428-2.506 0-3.92-1.75-3.92-3.808 0-2.086 1.316-3.808 3.626-3.808 1.96 0 3.248 1.33 3.248 3.178 0 .392-.056.756-.112.994h-4.942c.168 1.316.98 1.848 2.086 1.848.77 0 1.442-.336 1.82-.84zm-3.416-4.732c-.91 0-1.512.504-1.708 1.428h3.248c-.028-.714-.546-1.428-1.54-1.428m5.027 5.88v-7.056h1.778v.532c.476-.462 1.078-.812 1.946-.812.896 0 1.68.392 2.142 1.148.504-.616 1.176-1.148 2.366-1.148 1.456 0 2.604 1.008 2.604 2.996V94h-1.792v-4.27c0-.854-.462-1.386-1.26-1.386-.77 0-1.19.532-1.47 1.008.014.098.014.196.014.308V94h-1.792v-4.27c0-.854-.462-1.386-1.26-1.386-.812 0-1.232.602-1.498 1.05V94zm19.362-1.148c-.658.882-1.75 1.428-3.08 1.428-2.506 0-3.92-1.75-3.92-3.808 0-2.086 1.316-3.808 3.626-3.808 1.96 0 3.248 1.33 3.248 3.178 0 .392-.056.756-.112.994h-4.942c.168 1.316.98 1.848 2.086 1.848.77 0 1.442-.336 1.82-.84zm-3.416-4.732c-.91 0-1.512.504-1.708 1.428h3.248c-.028-.714-.546-1.428-1.54-1.428m5.027 5.88v-7.056h1.778v.56a2.87 2.87 0 0 1 2.086-.84c1.526 0 2.744 1.05 2.744 3.136V94h-1.792v-4.13c0-.938-.532-1.526-1.4-1.526-.896 0-1.372.602-1.638 1.05V94zm9.075-2.576V88.54h-1.316v-1.596h1.316V85.18h1.792v1.764h2.156v1.596h-2.156v2.884c0 .784.42 1.092 1.12 1.092.49 0 .812-.056 1.05-.154v1.554c-.35.154-.77.224-1.358.224-1.764 0-2.604-.994-2.604-2.716m7.528 2.786c-1.414 0-2.38-.812-2.38-2.114 0-1.064.826-1.862 2.338-2.114l2.156-.364v-.182c0-.742-.56-1.218-1.372-1.218-.686 0-1.218.322-1.596.84l-1.302-.994c.63-.868 1.666-1.4 2.954-1.4 2.044 0 3.094 1.218 3.094 2.772V94h-1.778v-.686c-.448.546-1.288.896-2.114.896m-.616-2.198c0 .476.378.784.98.784.812 0 1.4-.378 1.75-.938v-.994l-1.68.28c-.742.126-1.05.434-1.05.868m7.44-6.3c-.63 0-1.162-.532-1.162-1.162s.532-1.162 1.162-1.162 1.148.532 1.148 1.162-.518 1.162-1.148 1.162M393.632 94v-7.056h1.778V94zm3.911 0v-7.056h1.778v.7c.462-.476 1.064-.84 1.862-.84.238 0 .448.042.616.098v1.75a3 3 0 0 0-.784-.098c-.868 0-1.428.476-1.694.924V94zm11.882-1.148c-.658.882-1.75 1.428-3.08 1.428-2.506 0-3.92-1.75-3.92-3.808 0-2.086 1.316-3.808 3.626-3.808 1.96 0 3.248 1.33 3.248 3.178 0 .392-.056.756-.112.994h-4.942c.168 1.316.98 1.848 2.086 1.848.77 0 1.442-.336 1.82-.84zm-3.416-4.732c-.91 0-1.512.504-1.708 1.428h3.248c-.028-.714-.546-1.428-1.54-1.428m4.316 4.858 1.176-1.064c.434.546.952.938 1.624.938.574 0 .868-.336.868-.756 0-1.232-3.374-.77-3.374-3.248 0-1.246 1.05-2.184 2.52-2.184 1.078 0 2.058.518 2.562 1.204l-1.176 1.036c-.364-.448-.826-.812-1.372-.812-.56 0-.826.308-.826.672 0 1.204 3.374.784 3.374 3.22-.028 1.484-1.218 2.296-2.548 2.296-1.26 0-2.156-.504-2.828-1.302m-78.279 23.232c-1.414 0-2.38-.812-2.38-2.114 0-1.064.826-1.862 2.338-2.114l2.156-.364v-.182c0-.742-.56-1.218-1.372-1.218-.686 0-1.218.322-1.596.84l-1.302-.994c.63-.868 1.666-1.4 2.954-1.4 2.044 0 3.094 1.218 3.094 2.772V116h-1.778v-.686c-.448.546-1.288.896-2.114.896m-.616-2.198c0 .476.378.784.98.784.812 0 1.4-.378 1.75-.938v-.994l-1.68.28c-.742.126-1.05.434-1.05.868m11.192-1.064v-4.004h1.792v3.92c0 2.114-1.232 3.416-3.304 3.416s-3.29-1.302-3.29-3.416v-3.92h1.792v4.004c0 1.022.532 1.652 1.512 1.652.966 0 1.498-.63 1.498-1.652m10.922 1.652c.7 0 1.26-.322 1.596-.812l1.386 1.064c-.658.868-1.694 1.428-2.982 1.428-2.436 0-3.892-1.75-3.892-3.808s1.456-3.808 3.892-3.808c1.288 0 2.324.56 2.982 1.428l-1.386 1.064c-.336-.49-.896-.812-1.624-.812-1.162 0-2.016.896-2.016 2.128 0 1.246.854 2.128 2.044 2.128m4.309 1.4v-10.5h1.778v4.004a2.87 2.87 0 0 1 2.086-.84c1.526 0 2.744 1.05 2.744 3.136v4.2h-1.792v-4.13c0-.938-.518-1.526-1.4-1.526-.896 0-1.372.602-1.638 1.05V116zm11.987-7.336c2.296 0 3.864 1.694 3.864 3.808s-1.568 3.808-3.864 3.808-3.864-1.694-3.864-3.808 1.568-3.808 3.864-3.808m.028 5.936c1.134 0 1.988-.91 1.988-2.128 0-1.232-.854-2.128-1.988-2.128-1.176 0-2.044.896-2.044 2.128s.868 2.128 2.044 2.128m6.354-6.888c-.63 0-1.162-.532-1.162-1.162s.532-1.162 1.162-1.162 1.148.532 1.148 1.162-.518 1.162-1.148 1.162m-.896 8.288v-7.056h1.778V116zm5.184 0h-2.044l2.492-3.626-2.352-3.43h2.03l1.456 2.17 1.456-2.17h2.044l-2.366 3.43 2.492 3.626h-2.03l-1.596-2.366z"/><path fill="#000091" d="M324.871 170v-8.4h1.128v7.368h3.384V170zm7.826.168c-1.188 0-1.992-.66-1.992-1.692 0-.912.696-1.56 1.98-1.776l2.04-.336v-.42c0-.84-.6-1.32-1.464-1.32-.696 0-1.26.324-1.632.84l-.768-.588c.528-.72 1.38-1.164 2.436-1.164 1.536 0 2.448.9 2.448 2.232V170h-1.02v-.768c-.456.588-1.248.936-2.028.936m-.96-1.728c0 .516.42.888 1.128.888.804 0 1.464-.384 1.86-1.032v-1.188l-1.788.3c-.828.144-1.2.516-1.2 1.032m9.54 1.56v-8.4h1.44l2.568 4.236 2.568-4.236h1.44v8.4h-1.128v-6.888l-2.448 4.008h-.864l-2.448-4.008V170zm15.742-.996c-.564.756-1.464 1.236-2.592 1.236-2.04 0-3.3-1.5-3.3-3.264 0-1.836 1.176-3.264 3.048-3.264 1.644 0 2.712 1.152 2.712 2.64 0 .24-.036.468-.072.636h-4.644c.036 1.452.96 2.328 2.256 2.328.78 0 1.44-.36 1.836-.9zm-2.868-4.428c-.996 0-1.692.588-1.908 1.632h3.624c-.036-.888-.648-1.632-1.716-1.632m3.925 2.4c0-1.764 1.212-3.264 3.108-3.264.9 0 1.608.348 2.148.96V161h1.02v9h-1.02v-.72c-.54.612-1.248.96-2.148.96-1.896 0-3.108-1.5-3.108-3.264m1.08 0c0 1.284.864 2.304 2.148 2.304.84 0 1.584-.408 2.028-1.116v-2.376c-.468-.72-1.2-1.116-2.028-1.116-1.284 0-2.148 1.02-2.148 2.304m7.346 3.024v-6.048h1.02v.684c.492-.54 1.116-.924 2.016-.924 1.356 0 2.364.912 2.364 2.628V170h-1.02v-3.624c0-1.08-.612-1.704-1.548-1.704-.876 0-1.428.504-1.812 1.14V170zm11.665-2.592v-3.456h1.02v3.42c0 1.812-1.044 2.868-2.688 2.868-1.632 0-2.676-1.056-2.676-2.868v-3.42h1.02v3.456c0 1.188.636 1.872 1.668 1.872 1.008 0 1.656-.684 1.656-1.872m3.03 2.592v-6.048h1.02v.66c.456-.528 1.056-.9 1.896-.9.876 0 1.596.396 1.968 1.164.48-.66 1.116-1.164 2.16-1.164 1.296 0 2.244.864 2.244 2.508V170h-1.02v-3.744c0-1.008-.564-1.584-1.428-1.584-.768 0-1.308.432-1.704 1.14.012.132.024.264.024.408V170h-1.02v-3.744c0-1.008-.552-1.584-1.428-1.584-.828 0-1.344.516-1.692 1.14V170z"/><rect width="110" height="144" x="471.5" y="39" fill="#E8EDFF" rx="8"/><path fill="#161616" d="M501.808 73v-9.8h3.234c2.156 0 3.472 1.106 3.472 2.926 0 1.806-1.316 2.912-3.472 2.912h-1.246V73zm3.318-8.148h-1.33v2.534h1.33c.84 0 1.344-.49 1.344-1.288 0-.742-.504-1.246-1.344-1.246m6.509 8.358c-1.414 0-2.38-.812-2.38-2.114 0-1.064.826-1.862 2.338-2.114l2.156-.364v-.182c0-.742-.56-1.218-1.372-1.218-.686 0-1.218.322-1.596.84l-1.302-.994c.63-.868 1.666-1.4 2.954-1.4 2.044 0 3.094 1.218 3.094 2.772V73h-1.778v-.686c-.448.546-1.288.896-2.114.896m-.616-2.198c0 .476.378.784.98.784.812 0 1.4-.378 1.75-.938v-.994l-1.68.28c-.742.126-1.05.434-1.05.868m5.928.966 1.176-1.064c.434.546.952.938 1.624.938.574 0 .868-.336.868-.756 0-1.232-3.374-.77-3.374-3.248 0-1.246 1.05-2.184 2.52-2.184 1.078 0 2.058.518 2.562 1.204l-1.176 1.036c-.364-.448-.826-.812-1.372-.812-.56 0-.826.308-.826.672 0 1.204 3.374.784 3.374 3.22-.028 1.484-1.218 2.296-2.548 2.296-1.26 0-2.156-.504-2.828-1.302m6.303 0 1.176-1.064c.434.546.952.938 1.624.938.574 0 .868-.336.868-.756 0-1.232-3.374-.77-3.374-3.248 0-1.246 1.05-2.184 2.52-2.184 1.078 0 2.058.518 2.562 1.204l-1.176 1.036c-.364-.448-.826-.812-1.372-.812-.56 0-.826.308-.826.672 0 1.204 3.374.784 3.374 3.22-.028 1.484-1.218 2.296-2.548 2.296-1.26 0-2.156-.504-2.828-1.302m8.948 1.232c-1.414 0-2.38-.812-2.38-2.114 0-1.064.826-1.862 2.338-2.114l2.156-.364v-.182c0-.742-.56-1.218-1.372-1.218-.686 0-1.218.322-1.596.84l-1.302-.994c.63-.868 1.666-1.4 2.954-1.4 2.044 0 3.094 1.218 3.094 2.772V73h-1.778v-.686c-.448.546-1.288.896-2.114.896m-.616-2.198c0 .476.378.784.98.784.812 0 1.4-.378 1.75-.938v-.994l-1.68.28c-.742.126-1.05.434-1.05.868m5.844 3.22c0-.7.35-1.26.98-1.722a1.47 1.47 0 0 1-.434-1.022c0-.56.238-1.008.77-1.4-.616-.462-.952-1.162-.952-1.946 0-1.372 1.064-2.478 2.828-2.478.546 0 1.022.098 1.428.28h2.576v1.512h-1.246c.07.224.098.448.098.686 0 1.386-1.036 2.506-2.856 2.506-.238 0-.462-.014-.672-.056-.154.14-.238.294-.238.448 0 .28.154.42.476.42h1.778c1.778 0 2.744.952 2.744 2.268 0 1.568-1.498 2.772-3.696 2.772-2.254 0-3.584-.784-3.584-2.268m3.22-4.928c.742 0 1.218-.462 1.218-1.162s-.476-1.148-1.218-1.148c-.77 0-1.232.462-1.232 1.148 0 .7.462 1.162 1.232 1.162m-1.54 4.676c0 .672.644 1.092 1.89 1.092 1.288 0 1.946-.476 1.946-1.176 0-.532-.322-.91-1.176-.91h-2.184c-.266.252-.476.56-.476.994m12.98-2.128c-.658.882-1.75 1.428-3.08 1.428-2.506 0-3.92-1.75-3.92-3.808 0-2.086 1.316-3.808 3.626-3.808 1.96 0 3.248 1.33 3.248 3.178 0 .392-.056.756-.112.994h-4.942c.168 1.316.98 1.848 2.086 1.848.77 0 1.442-.336 1.82-.84zm-3.416-4.732c-.91 0-1.512.504-1.708 1.428h3.248c-.028-.714-.546-1.428-1.54-1.428m-50.102 26.352c0-2.058 1.358-3.808 3.584-3.808.952 0 1.638.294 2.184.84V86.5h1.792V97h-1.792v-.56c-.546.546-1.232.84-2.184.84-2.226 0-3.584-1.75-3.584-3.808m1.862 0c0 1.232.77 2.128 1.974 2.128.798 0 1.456-.336 1.932-.98v-2.296c-.476-.644-1.134-.98-1.932-.98-1.204 0-1.974.896-1.974 2.128m12.477.476v-4.004h1.792v3.92c0 2.114-1.232 3.416-3.304 3.416s-3.29-1.302-3.29-3.416v-3.92h1.792v4.004c0 1.022.532 1.652 1.512 1.652.966 0 1.498-.63 1.498-1.652m12.28 1.47c1.12 0 2.002-.546 2.562-1.344l1.568 1.204c-.896 1.218-2.352 2.002-4.13 2.002-3.094 0-5.208-2.38-5.208-5.18s2.114-5.18 5.208-5.18c1.778 0 3.234.798 4.13 1.988l-1.568 1.218c-.56-.798-1.442-1.344-2.562-1.344-1.848 0-3.164 1.442-3.164 3.318s1.316 3.318 3.164 3.318m10.295 0c1.12 0 2.002-.546 2.562-1.344l1.568 1.204c-.896 1.218-2.352 2.002-4.13 2.002-3.094 0-5.208-2.38-5.208-5.18s2.114-5.18 5.208-5.18c1.778 0 3.234.798 4.13 1.988l-1.568 1.218c-.56-.798-1.442-1.344-2.562-1.344-1.848 0-3.164 1.442-3.164 3.318s1.316 3.318 3.164 3.318M541.477 97v-9.8h3.234c2.156 0 3.472 1.106 3.472 2.926 0 1.806-1.316 2.912-3.472 2.912h-1.246V97zm3.318-8.148h-1.33v2.534h1.33c.84 0 1.344-.49 1.344-1.288 0-.742-.504-1.246-1.344-1.246m6.726 8.134v-7.854l-2.03 1.148-.938-1.344 3.024-1.75h1.834v9.8z"/><path fill="#000091" d="M502.062 150v-8.4h1.128v7.368h3.384V150zm7.826.168c-1.188 0-1.992-.66-1.992-1.692 0-.912.696-1.56 1.98-1.776l2.04-.336v-.42c0-.84-.6-1.32-1.464-1.32-.696 0-1.26.324-1.632.84l-.768-.588c.528-.72 1.38-1.164 2.436-1.164 1.536 0 2.448.9 2.448 2.232V150h-1.02v-.768c-.456.588-1.248.936-2.028.936m-.96-1.728c0 .516.42.888 1.128.888.804 0 1.464-.384 1.86-1.032v-1.188l-1.788.3c-.828.144-1.2.516-1.2 1.032m9.541 1.56v-8.4h4.512v.96h-3.384v2.688h2.904v.948h-2.904V150zm7.357.168c-1.188 0-1.992-.66-1.992-1.692 0-.912.696-1.56 1.98-1.776l2.04-.336v-.42c0-.84-.6-1.32-1.464-1.32-.696 0-1.26.324-1.632.84l-.768-.588c.528-.72 1.38-1.164 2.436-1.164 1.536 0 2.448.9 2.448 2.232V150h-1.02v-.768c-.456.588-1.248.936-2.028.936m-.96-1.728c0 .516.42.888 1.128.888.804 0 1.464-.384 1.86-1.032v-1.188l-1.788.3c-.828.144-1.2.516-1.2 1.032m12.33-1.464c0 1.764-1.212 3.264-3.108 3.264-.9 0-1.608-.348-2.148-.96v.72h-1.02v-9h1.02v3.672c.54-.612 1.248-.96 2.148-.96 1.896 0 3.108 1.5 3.108 3.264m-3.228-2.304c-.84 0-1.584.408-2.028 1.116v2.376c.468.72 1.2 1.116 2.028 1.116 1.284 0 2.16-1.02 2.16-2.304s-.876-2.304-2.16-2.304m4.885 5.328v-6.048h1.02v.756c.444-.528.996-.876 1.764-.876.192 0 .372.024.516.072v.996a2.2 2.2 0 0 0-.6-.072c-.792 0-1.308.408-1.68 1.02V150zm5.286-7.62a.72.72 0 0 1-.72-.72.72.72 0 0 1 .72-.708.71.71 0 0 1 .708.708c0 .396-.312.72-.708.72m-.516 7.62v-6.048h1.02V150zm3.188 0v-9h1.032v5.784l2.844-2.832h1.308l-2.532 2.52 2.58 3.528h-1.26l-2.052-2.808-.888.876V150zm-58.992 13.712c1.944 0 3.276 1.5 3.276 3.264s-1.332 3.264-3.276 3.264c-1.956 0-3.276-1.5-3.276-3.264s1.32-3.264 3.276-3.264m.012 5.568c1.26 0 2.184-1.056 2.184-2.304 0-1.26-.924-2.304-2.184-2.304-1.296 0-2.22 1.044-2.22 2.304s.924 2.304 2.22 2.304m9.115-1.872v-3.456h1.02v3.42c0 1.812-1.044 2.868-2.688 2.868-1.632 0-2.676-1.056-2.676-2.868v-3.42h1.02v3.456c0 1.188.636 1.872 1.668 1.872 1.008 0 1.656-.684 1.656-1.872m6.517 2.592v-8.4h2.46c1.68 0 2.724.924 2.724 2.364s-1.044 2.352-2.724 2.352h-1.332V170zm2.484-7.44h-1.356v2.796h1.356c.96 0 1.536-.516 1.536-1.416 0-.852-.576-1.38-1.536-1.38m8.196-1.2c2.616 0 4.404 2.04 4.404 4.44s-1.788 4.44-4.404 4.44c-2.628 0-4.416-2.04-4.416-4.44s1.788-4.44 4.416-4.44m0 7.824c1.884 0 3.24-1.512 3.24-3.384s-1.356-3.384-3.24-3.384c-1.896 0-3.252 1.512-3.252 3.384s1.356 3.384 3.252 3.384m6.347.816v-8.4h2.46c1.68 0 2.724.924 2.724 2.364s-1.044 2.352-2.724 2.352h-1.332V170zm2.484-7.44h-1.356v2.796h1.356c.96 0 1.536-.516 1.536-1.416 0-.852-.576-1.38-1.536-1.38m7.005 6.288.84-.768c.576.744 1.248 1.14 2.028 1.14.936 0 1.476-.564 1.476-1.332 0-1.896-3.984-1.488-3.984-4.26 0-1.248 1.032-2.268 2.496-2.268 1.176 0 2.04.54 2.664 1.368l-.852.744c-.492-.708-1.08-1.104-1.8-1.104-.828 0-1.356.516-1.356 1.236 0 1.884 3.972 1.452 3.972 4.248 0 1.452-1.116 2.376-2.604 2.376-1.236 0-2.148-.468-2.88-1.38m10.153.432c.744 0 1.356-.36 1.728-.888l.804.612c-.564.756-1.44 1.236-2.544 1.236-2.004 0-3.288-1.5-3.288-3.264s1.284-3.264 3.288-3.264c1.092 0 1.98.492 2.544 1.236l-.804.612a2.09 2.09 0 0 0-1.74-.888c-1.296 0-2.22 1.02-2.22 2.304 0 1.296.924 2.304 2.232 2.304m3.93.72v-9h1.02v3.636c.492-.54 1.116-.924 2.016-.924 1.356 0 2.364.912 2.364 2.628V170h-1.02v-3.624c0-1.08-.6-1.704-1.548-1.704-.888 0-1.428.516-1.812 1.14V170zm10.214-6.288c1.944 0 3.276 1.5 3.276 3.264s-1.332 3.264-3.276 3.264c-1.956 0-3.276-1.5-3.276-3.264s1.32-3.264 3.276-3.264m.012 5.568c1.26 0 2.184-1.056 2.184-2.304 0-1.26-.924-2.304-2.184-2.304-1.296 0-2.22 1.044-2.22 2.304s.924 2.304 2.22 2.304m7.722-5.568c1.944 0 3.276 1.5 3.276 3.264s-1.332 3.264-3.276 3.264c-1.956 0-3.276-1.5-3.276-3.264s1.32-3.264 3.276-3.264m.012 5.568c1.26 0 2.184-1.056 2.184-2.304 0-1.26-.924-2.304-2.184-2.304-1.296 0-2.22 1.044-2.22 2.304s.924 2.304 2.22 2.304m4.904.72v-9h1.02v9z"/><rect width="164" height="144" x="613.5" y="39" fill="#BAFAEE" rx="8"/><path fill="#161616" d="m635.664 71.642 1.442-1.33c.588.756 1.372 1.204 2.17 1.204.784 0 1.26-.42 1.26-1.12 0-1.806-4.452-1.316-4.452-4.634 0-1.554 1.288-2.842 3.164-2.842 1.47 0 2.59.658 3.43 1.652l-1.456 1.316c-.574-.742-1.218-1.232-1.96-1.232-.7 0-1.162.448-1.162 1.036 0 1.778 4.452 1.274 4.452 4.634-.028 1.848-1.456 2.954-3.262 2.954-1.652 0-2.758-.602-3.626-1.638m13.356-1.694v-4.004h1.792v3.92c0 2.114-1.232 3.416-3.304 3.416s-3.29-1.302-3.29-3.416v-3.92h1.792v4.004c0 1.022.532 1.652 1.512 1.652.966 0 1.498-.63 1.498-1.652m4.656-5.236c-.63 0-1.162-.532-1.162-1.162s.532-1.162 1.162-1.162 1.148.532 1.148 1.162-.518 1.162-1.148 1.162M652.78 73v-7.056h1.778V73zm2.902-7.056h1.904l1.834 5.04 1.82-5.04h1.918L660.582 73h-2.338zm9.492-1.232c-.63 0-1.162-.532-1.162-1.162s.532-1.162 1.162-1.162 1.148.532 1.148 1.162-.518 1.162-1.148 1.162M664.278 73v-7.056h1.778V73zm7.179-3.528c0-2.058 1.358-3.808 3.584-3.808.952 0 1.638.294 2.184.84V62.5h1.792V73h-1.792v-.56c-.546.546-1.232.84-2.184.84-2.226 0-3.584-1.75-3.584-3.808m1.862 0c0 1.232.77 2.128 1.974 2.128.798 0 1.456-.336 1.932-.98v-2.296c-.476-.644-1.134-.98-1.932-.98-1.204 0-1.974.896-1.974 2.128m8.779-2.24h-1.652l1.26-4.032h2.016zm7.308 2.716v-4.004h1.792v3.92c0 2.114-1.232 3.416-3.304 3.416s-3.29-1.302-3.29-3.416v-3.92h1.792v4.004c0 1.022.532 1.652 1.512 1.652.966 0 1.498-.63 1.498-1.652M693.167 73v-7.056h1.778v.56a2.87 2.87 0 0 1 2.086-.84c1.526 0 2.744 1.05 2.744 3.136V73h-1.792v-4.13c0-.938-.532-1.526-1.4-1.526-.896 0-1.372.602-1.638 1.05V73zm12.4 0v-7.056h1.778v.532c.476-.462 1.078-.812 1.946-.812.896 0 1.68.392 2.142 1.148.504-.616 1.176-1.148 2.366-1.148 1.456 0 2.604 1.008 2.604 2.996V73h-1.792v-4.27c0-.854-.462-1.386-1.26-1.386-.77 0-1.19.532-1.47 1.008.014.098.014.196.014.308V73h-1.792v-4.27c0-.854-.462-1.386-1.26-1.386-.812 0-1.232.602-1.498 1.05V73zm16.225-7.336c2.296 0 3.864 1.694 3.864 3.808s-1.568 3.808-3.864 3.808-3.864-1.694-3.864-3.808 1.568-3.808 3.864-3.808m.028 5.936c1.134 0 1.988-.91 1.988-2.128 0-1.232-.854-2.128-1.988-2.128-1.176 0-2.044.896-2.044 2.128s.868 2.128 2.044 2.128m5.022-2.128c0-2.058 1.358-3.808 3.584-3.808.952 0 1.638.294 2.184.84V62.5h1.792V73h-1.792v-.56c-.546.546-1.232.84-2.184.84-2.226 0-3.584-1.75-3.584-3.808m1.862 0c0 1.232.77 2.128 1.974 2.128.798 0 1.456-.336 1.932-.98v-2.296c-.476-.644-1.134-.98-1.932-.98-1.204 0-1.974.896-1.974 2.128m12.478.476v-4.004h1.792v3.92c0 2.114-1.232 3.416-3.304 3.416s-3.29-1.302-3.29-3.416v-3.92h1.792v4.004c0 1.022.532 1.652 1.512 1.652.966 0 1.498-.63 1.498-1.652m3.76 3.052V62.5h1.778V73zm10.406-1.148c-.658.882-1.75 1.428-3.08 1.428-2.506 0-3.92-1.75-3.92-3.808 0-2.086 1.316-3.808 3.626-3.808 1.96 0 3.248 1.33 3.248 3.178 0 .392-.056.756-.112.994h-4.942c.168 1.316.98 1.848 2.086 1.848.77 0 1.442-.336 1.82-.84zm-3.416-4.732c-.91 0-1.512.504-1.708 1.428h3.248c-.028-.714-.546-1.428-1.54-1.428m-109.119 33.324v-10.5h1.778v.574c.546-.546 1.232-.854 2.198-.854 2.24 0 3.584 1.75 3.584 3.808s-1.344 3.808-3.584 3.808c-.966 0-1.652-.308-2.198-.854v4.018zm3.724-9.1c-.826 0-1.498.364-1.946 1.022v2.212c.476.672 1.134 1.022 1.946 1.022 1.204 0 1.988-.896 1.988-2.128s-.784-2.128-1.988-2.128m7.287 5.866c-1.414 0-2.38-.812-2.38-2.114 0-1.064.826-1.862 2.338-2.114l2.156-.364v-.182c0-.742-.56-1.218-1.372-1.218-.686 0-1.218.322-1.596.84l-1.302-.994c.63-.868 1.666-1.4 2.954-1.4 2.044 0 3.094 1.218 3.094 2.772V97h-1.778v-.686c-.448.546-1.288.896-2.114.896m-.616-2.198c0 .476.378.784.98.784.812 0 1.4-.378 1.75-.938v-.994l-1.68.28c-.742.126-1.05.434-1.05.868M659.752 97v-7.056h1.778v.7c.462-.476 1.064-.84 1.862-.84.238 0 .448.042.616.098v1.75a3 3 0 0 0-.784-.098c-.868 0-1.428.476-1.694.924V97zm11.449.21c-1.414 0-2.38-.812-2.38-2.114 0-1.064.826-1.862 2.338-2.114l2.156-.364v-.182c0-.742-.56-1.218-1.372-1.218-.686 0-1.218.322-1.596.84l-1.302-.994c.63-.868 1.666-1.4 2.954-1.4 2.044 0 3.094 1.218 3.094 2.772V97h-1.778v-.686c-.448.546-1.288.896-2.114.896m-.616-2.198c0 .476.378.784.98.784.812 0 1.4-.378 1.75-.938v-.994l-1.68.28c-.742.126-1.05.434-1.05.868M677.129 97v-7.056h1.778v.56a2.87 2.87 0 0 1 2.086-.84c1.526 0 2.744 1.05 2.744 3.136V97h-1.792v-4.13c0-.938-.532-1.526-1.4-1.526-.896 0-1.372.602-1.638 1.05V97zm9.467 2.24h-1.652l1.274-4.186h2.002zm8.695-2.03c-1.414 0-2.38-.812-2.38-2.114 0-1.064.826-1.862 2.338-2.114l2.156-.364v-.182c0-.742-.56-1.218-1.372-1.218-.686 0-1.218.322-1.596.84l-1.302-.994c.63-.868 1.666-1.4 2.954-1.4 2.044 0 3.094 1.218 3.094 2.772V97h-1.778v-.686c-.448.546-1.288.896-2.114.896m-.616-2.198c0 .476.378.784.98.784.812 0 1.4-.378 1.75-.938v-.994l-1.68.28c-.742.126-1.05.434-1.05.868m11.192-1.064v-4.004h1.792v3.92c0 2.114-1.232 3.416-3.304 3.416s-3.29-1.302-3.29-3.416v-3.92h1.792v4.004c0 1.022.532 1.652 1.512 1.652.966 0 1.498-.63 1.498-1.652m10.922 1.652c.7 0 1.26-.322 1.596-.812l1.386 1.064c-.658.868-1.694 1.428-2.982 1.428-2.436 0-3.892-1.75-3.892-3.808s1.456-3.808 3.892-3.808c1.288 0 2.324.56 2.982 1.428l-1.386 1.064c-.336-.49-.896-.812-1.624-.812-1.162 0-2.016.896-2.016 2.128 0 1.246.854 2.128 2.044 2.128m4.309 1.4V86.5h1.778v4.004a2.87 2.87 0 0 1 2.086-.84c1.526 0 2.744 1.05 2.744 3.136V97h-1.792v-4.13c0-.938-.518-1.526-1.4-1.526-.896 0-1.372.602-1.638 1.05V97zm11.987-7.336c2.296 0 3.864 1.694 3.864 3.808s-1.568 3.808-3.864 3.808-3.864-1.694-3.864-3.808 1.568-3.808 3.864-3.808m.028 5.936c1.134 0 1.988-.91 1.988-2.128 0-1.232-.854-2.128-1.988-2.128-1.176 0-2.044.896-2.044 2.128s.868 2.128 2.044 2.128m6.354-6.888c-.63 0-1.162-.532-1.162-1.162s.532-1.162 1.162-1.162 1.148.532 1.148 1.162-.518 1.162-1.148 1.162M738.571 97v-7.056h1.778V97zm5.184 0h-2.044l2.492-3.626-2.352-3.43h2.03l1.456 2.17 1.456-2.17h2.044l-2.366 3.43L748.963 97h-2.03l-1.596-2.366z"/><path fill="#000091" d="M662.871 170v-8.4h1.128v7.368h3.384V170zm7.826.168c-1.188 0-1.992-.66-1.992-1.692 0-.912.696-1.56 1.98-1.776l2.04-.336v-.42c0-.84-.6-1.32-1.464-1.32-.696 0-1.26.324-1.632.84l-.768-.588c.528-.72 1.38-1.164 2.436-1.164 1.536 0 2.448.9 2.448 2.232V170h-1.02v-.768c-.456.588-1.248.936-2.028.936m-.96-1.728c0 .516.42.888 1.128.888.804 0 1.464-.384 1.86-1.032v-1.188l-1.788.3c-.828.144-1.2.516-1.2 1.032m9.54 1.56v-8.4h1.44l2.568 4.236 2.568-4.236h1.44v8.4h-1.128v-6.888l-2.448 4.008h-.864l-2.448-4.008V170zm15.742-.996c-.564.756-1.464 1.236-2.592 1.236-2.04 0-3.3-1.5-3.3-3.264 0-1.836 1.176-3.264 3.048-3.264 1.644 0 2.712 1.152 2.712 2.64 0 .24-.036.468-.072.636h-4.644c.036 1.452.96 2.328 2.256 2.328.78 0 1.44-.36 1.836-.9zm-2.868-4.428c-.996 0-1.692.588-1.908 1.632h3.624c-.036-.888-.648-1.632-1.716-1.632m3.925 2.4c0-1.764 1.212-3.264 3.108-3.264.9 0 1.608.348 2.148.96V161h1.02v9h-1.02v-.72c-.54.612-1.248.96-2.148.96-1.896 0-3.108-1.5-3.108-3.264m1.08 0c0 1.284.864 2.304 2.148 2.304.84 0 1.584-.408 2.028-1.116v-2.376c-.468-.72-1.2-1.116-2.028-1.116-1.284 0-2.148 1.02-2.148 2.304m7.346 3.024v-6.048h1.02v.684c.492-.54 1.116-.924 2.016-.924 1.356 0 2.364.912 2.364 2.628V170h-1.02v-3.624c0-1.08-.612-1.704-1.548-1.704-.876 0-1.428.504-1.812 1.14V170zm11.665-2.592v-3.456h1.02v3.42c0 1.812-1.044 2.868-2.688 2.868-1.632 0-2.676-1.056-2.676-2.868v-3.42h1.02v3.456c0 1.188.636 1.872 1.668 1.872 1.008 0 1.656-.684 1.656-1.872m3.03 2.592v-6.048h1.02v.66c.456-.528 1.056-.9 1.896-.9.876 0 1.596.396 1.968 1.164.48-.66 1.116-1.164 2.16-1.164 1.296 0 2.244.864 2.244 2.508V170h-1.02v-3.744c0-1.008-.564-1.584-1.428-1.584-.768 0-1.308.432-1.704 1.14.012.132.024.264.024.408V170h-1.02v-3.744c0-1.008-.552-1.584-1.428-1.584-.828 0-1.344.516-1.692 1.14V170z"/><rect width="164" height="144" x="809.5" y="39" fill="#E8EDFF" rx="8"/><path fill="#161616" d="M853.266 72v-9.8h3.234c2.156 0 3.472 1.106 3.472 2.926 0 1.806-1.316 2.912-3.472 2.912h-1.246V72zm3.318-8.148h-1.33v2.534h1.33c.84 0 1.344-.49 1.344-1.288 0-.742-.504-1.246-1.344-1.246m6.509 8.358c-1.414 0-2.38-.812-2.38-2.114 0-1.064.826-1.862 2.338-2.114l2.156-.364v-.182c0-.742-.56-1.218-1.372-1.218-.686 0-1.218.322-1.596.84l-1.302-.994c.63-.868 1.666-1.4 2.954-1.4 2.044 0 3.094 1.218 3.094 2.772V72h-1.778v-.686c-.448.546-1.288.896-2.114.896m-.616-2.198c0 .476.378.784.98.784.812 0 1.4-.378 1.75-.938v-.994l-1.68.28c-.742.126-1.05.434-1.05.868M869.021 72v-7.056h1.778v.7c.462-.476 1.064-.84 1.862-.84.238 0 .448.042.616.098v1.75a3 3 0 0 0-.784-.098c-.868 0-1.428.476-1.694.924V72zm8.775-1.4c.7 0 1.26-.322 1.596-.812l1.386 1.064c-.658.868-1.694 1.428-2.982 1.428-2.436 0-3.892-1.75-3.892-3.808s1.456-3.808 3.892-3.808c1.288 0 2.324.56 2.982 1.428l-1.386 1.064c-.336-.49-.896-.812-1.624-.812-1.162 0-2.016.896-2.016 2.128 0 1.246.854 2.128 2.044 2.128m7.396-5.936c2.296 0 3.864 1.694 3.864 3.808s-1.568 3.808-3.864 3.808-3.864-1.694-3.864-3.808 1.568-3.808 3.864-3.808m.028 5.936c1.134 0 1.988-.91 1.988-2.128 0-1.232-.854-2.128-1.988-2.128-1.176 0-2.044.896-2.044 2.128s.868 2.128 2.044 2.128m10.105-1.652v-4.004h1.792v3.92c0 2.114-1.232 3.416-3.304 3.416s-3.29-1.302-3.29-3.416v-3.92h1.792v4.004c0 1.022.532 1.652 1.512 1.652.966 0 1.498-.63 1.498-1.652m3.76 3.052v-7.056h1.778v.7c.462-.476 1.064-.84 1.862-.84.238 0 .448.042.616.098v1.75a3 3 0 0 0-.784-.098c-.868 0-1.428.476-1.694.924V72zm5.072-1.022 1.176-1.064c.434.546.952.938 1.624.938.574 0 .868-.336.868-.756 0-1.232-3.374-.77-3.374-3.248 0-1.246 1.05-2.184 2.52-2.184 1.078 0 2.058.518 2.562 1.204l-1.176 1.036c-.364-.448-.826-.812-1.372-.812-.56 0-.826.308-.826.672 0 1.204 3.374.784 3.374 3.22-.028 1.484-1.218 2.296-2.548 2.296-1.26 0-2.156-.504-2.828-1.302m10.284-2.506c0-2.058 1.358-3.808 3.584-3.808.952 0 1.638.294 2.184.84V61.5h1.792V72h-1.792v-.56c-.546.546-1.232.84-2.184.84-2.226 0-3.584-1.75-3.584-3.808m1.862 0c0 1.232.77 2.128 1.974 2.128.798 0 1.456-.336 1.932-.98v-2.296c-.476-.644-1.134-.98-1.932-.98-1.204 0-1.974.896-1.974 2.128m14.325 2.38c-.658.882-1.75 1.428-3.08 1.428-2.506 0-3.92-1.75-3.92-3.808 0-2.086 1.316-3.808 3.626-3.808 1.96 0 3.248 1.33 3.248 3.178 0 .392-.056.756-.112.994h-4.942c.168 1.316.98 1.848 2.086 1.848.77 0 1.442-.336 1.82-.84zm-3.416-4.732c-.91 0-1.512.504-1.708 1.428h3.248c-.028-.714-.546-1.428-1.54-1.428m-96.397 20.824h1.316v-.742c0-1.498.994-2.702 2.758-2.702.644 0 1.19.154 1.638.392l-.756 1.484c-.21-.154-.49-.28-.854-.28-.602 0-.994.42-.994 1.064v.784h2.156v1.596h-2.156V94h-1.792v-5.46h-1.316zm9.574-.28c2.296 0 3.864 1.694 3.864 3.808s-1.568 3.808-3.864 3.808-3.864-1.694-3.864-3.808 1.568-3.808 3.864-3.808m.028 5.936c1.134 0 1.988-.91 1.988-2.128 0-1.232-.854-2.128-1.988-2.128-1.176 0-2.044.896-2.044 2.128s.868 2.128 2.044 2.128m5.458 1.4v-7.056h1.778v.7c.462-.476 1.064-.84 1.862-.84.238 0 .448.042.616.098v1.75a3 3 0 0 0-.784-.098c-.868 0-1.428.476-1.694.924V94zm5.687 0v-7.056h1.778v.532c.476-.462 1.078-.812 1.946-.812.896 0 1.68.392 2.142 1.148.504-.616 1.176-1.148 2.366-1.148 1.456 0 2.604 1.008 2.604 2.996V94h-1.792v-4.27c0-.854-.462-1.386-1.26-1.386-.77 0-1.19.532-1.47 1.008.014.098.014.196.014.308V94h-1.792v-4.27c0-.854-.462-1.386-1.26-1.386-.812 0-1.232.602-1.498 1.05V94zm14.853.21c-1.414 0-2.38-.812-2.38-2.114 0-1.064.826-1.862 2.338-2.114l2.156-.364v-.182c0-.742-.56-1.218-1.372-1.218-.686 0-1.218.322-1.596.84l-1.302-.994c.63-.868 1.666-1.4 2.954-1.4 2.044 0 3.094 1.218 3.094 2.772V94h-1.778v-.686c-.448.546-1.288.896-2.114.896m-.616-2.198c0 .476.378.784.98.784.812 0 1.4-.378 1.75-.938v-.994l-1.68.28c-.742.126-1.05.434-1.05.868m6.992-.588V88.54h-1.316v-1.596h1.316V85.18h1.792v1.764h2.156v1.596h-2.156v2.884c0 .784.42 1.092 1.12 1.092.49 0 .812-.056 1.05-.154v1.554c-.35.154-.77.224-1.358.224-1.764 0-2.604-.994-2.604-2.716m6.437-5.712c-.63 0-1.162-.532-1.162-1.162s.532-1.162 1.162-1.162 1.148.532 1.148 1.162-.518 1.162-1.148 1.162M878.332 94v-7.056h1.778V94zm7.27-7.336c2.296 0 3.864 1.694 3.864 3.808s-1.568 3.808-3.864 3.808-3.864-1.694-3.864-3.808 1.568-3.808 3.864-3.808m.028 5.936c1.134 0 1.988-.91 1.988-2.128 0-1.232-.854-2.128-1.988-2.128-1.176 0-2.044.896-2.044 2.128s.868 2.128 2.044 2.128m5.457 1.4v-7.056h1.778v.56a2.87 2.87 0 0 1 2.086-.84c1.526 0 2.744 1.05 2.744 3.136V94h-1.792v-4.13c0-.938-.532-1.526-1.4-1.526-.896 0-1.372.602-1.638 1.05V94zm11.897-3.528c0-2.058 1.358-3.808 3.584-3.808.952 0 1.638.294 2.184.84V83.5h1.792V94h-1.792v-.56c-.546.546-1.232.84-2.184.84-2.226 0-3.584-1.75-3.584-3.808m1.862 0c0 1.232.77 2.128 1.974 2.128.798 0 1.456-.336 1.932-.98v-2.296c-.476-.644-1.134-.98-1.932-.98-1.204 0-1.974.896-1.974 2.128m14.325 2.38c-.658.882-1.75 1.428-3.08 1.428-2.506 0-3.92-1.75-3.92-3.808 0-2.086 1.316-3.808 3.626-3.808 1.96 0 3.248 1.33 3.248 3.178 0 .392-.056.756-.112.994h-4.942c.168 1.316.98 1.848 2.086 1.848.77 0 1.442-.336 1.82-.84zm-3.416-4.732c-.91 0-1.512.504-1.708 1.428h3.248c-.028-.714-.546-1.428-1.54-1.428M926.642 94h-2.184l4.928-8.092h-5.054V84.2h7.056v1.708zm9.144-10.08c2.576 0 3.78 2.24 3.78 5.18s-1.204 5.18-3.78 5.18-3.78-2.24-3.78-5.18 1.204-5.18 3.78-5.18m0 1.75c-1.246 0-1.848 1.372-1.848 3.43 0 2.072.602 3.43 1.848 3.43 1.232 0 1.834-1.372 1.834-3.43 0-2.072-.602-3.43-1.834-3.43m5.258 8.33V83.5h1.778v4.004a2.87 2.87 0 0 1 2.086-.84c1.526 0 2.744 1.05 2.744 3.136V94h-1.792v-4.13c0-.938-.518-1.526-1.4-1.526-.896 0-1.372.602-1.638 1.05V94zm9.467 2.24h-1.652l1.274-4.186h2.002zm-118.259 18.612c-.658.882-1.75 1.428-3.08 1.428-2.506 0-3.92-1.75-3.92-3.808 0-2.086 1.316-3.808 3.626-3.808 1.96 0 3.248 1.33 3.248 3.178 0 .392-.056.756-.112.994h-4.942c.168 1.316.98 1.848 2.086 1.848.77 0 1.442-.336 1.82-.84zm-3.416-4.732c-.91 0-1.512.504-1.708 1.428h3.248c-.028-.714-.546-1.428-1.54-1.428m5.462 3.304v-2.884h-1.316v-1.596h1.316v-1.764h1.792v1.764h2.156v1.596h-2.156v2.884c0 .784.42 1.092 1.12 1.092.49 0 .812-.056 1.05-.154v1.554c-.35.154-.77.224-1.358.224-1.764 0-2.604-.994-2.604-2.716m9.314 6.02v-10.5h1.778v.574c.546-.546 1.232-.854 2.198-.854 2.24 0 3.584 1.75 3.584 3.808s-1.344 3.808-3.584 3.808c-.966 0-1.652-.308-2.198-.854v4.018zm3.724-9.1c-.826 0-1.498.364-1.946 1.022v2.212c.476.672 1.134 1.022 1.946 1.022 1.204 0 1.988-.896 1.988-2.128s-.784-2.128-1.988-2.128m7.287 5.866c-1.414 0-2.38-.812-2.38-2.114 0-1.064.826-1.862 2.338-2.114l2.156-.364v-.182c0-.742-.56-1.218-1.372-1.218-.686 0-1.218.322-1.596.84l-1.302-.994c.63-.868 1.666-1.4 2.954-1.4 2.044 0 3.094 1.218 3.094 2.772V116h-1.778v-.686c-.448.546-1.288.896-2.114.896m-.616-2.198c0 .476.378.784.98.784.812 0 1.4-.378 1.75-.938v-.994l-1.68.28c-.742.126-1.05.434-1.05.868m5.928.966 1.176-1.064c.434.546.952.938 1.624.938.574 0 .868-.336.868-.756 0-1.232-3.374-.77-3.374-3.248 0-1.246 1.05-2.184 2.52-2.184 1.078 0 2.058.518 2.562 1.204l-1.176 1.036c-.364-.448-.826-.812-1.372-.812-.56 0-.826.308-.826.672 0 1.204 3.374.784 3.374 3.22-.028 1.484-1.218 2.296-2.548 2.296-1.26 0-2.156-.504-2.828-1.302m6.303 0 1.176-1.064c.434.546.952.938 1.624.938.574 0 .868-.336.868-.756 0-1.232-3.374-.77-3.374-3.248 0-1.246 1.05-2.184 2.52-2.184 1.078 0 2.058.518 2.562 1.204l-1.176 1.036c-.364-.448-.826-.812-1.372-.812-.56 0-.826.308-.826.672 0 1.204 3.374.784 3.374 3.22-.028 1.484-1.218 2.296-2.548 2.296-1.26 0-2.156-.504-2.828-1.302m8.948 1.232c-1.414 0-2.38-.812-2.38-2.114 0-1.064.826-1.862 2.338-2.114l2.156-.364v-.182c0-.742-.56-1.218-1.372-1.218-.686 0-1.218.322-1.596.84l-1.302-.994c.63-.868 1.666-1.4 2.954-1.4 2.044 0 3.094 1.218 3.094 2.772V116H877.3v-.686c-.448.546-1.288.896-2.114.896m-.616-2.198c0 .476.378.784.98.784.812 0 1.4-.378 1.75-.938v-.994l-1.68.28c-.742.126-1.05.434-1.05.868m5.844 3.22c0-.7.35-1.26.98-1.722a1.47 1.47 0 0 1-.434-1.022c0-.56.238-1.008.77-1.4-.616-.462-.952-1.162-.952-1.946 0-1.372 1.064-2.478 2.828-2.478.546 0 1.022.098 1.428.28h2.576v1.512h-1.246c.07.224.098.448.098.686 0 1.386-1.036 2.506-2.856 2.506-.238 0-.462-.014-.672-.056-.154.14-.238.294-.238.448 0 .28.154.42.476.42h1.778c1.778 0 2.744.952 2.744 2.268 0 1.568-1.498 2.772-3.696 2.772-2.254 0-3.584-.784-3.584-2.268m3.22-4.928c.742 0 1.218-.462 1.218-1.162s-.476-1.148-1.218-1.148c-.77 0-1.232.462-1.232 1.148 0 .7.462 1.162 1.232 1.162m-1.54 4.676c0 .672.644 1.092 1.89 1.092 1.288 0 1.946-.476 1.946-1.176 0-.532-.322-.91-1.176-.91h-2.184c-.266.252-.476.56-.476.994m12.981-2.128c-.658.882-1.75 1.428-3.08 1.428-2.506 0-3.92-1.75-3.92-3.808 0-2.086 1.316-3.808 3.626-3.808 1.96 0 3.248 1.33 3.248 3.178 0 .392-.056.756-.112.994h-4.942c.168 1.316.98 1.848 2.086 1.848.77 0 1.442-.336 1.82-.84zm-3.416-4.732c-.91 0-1.512.504-1.708 1.428h3.248c-.028-.714-.546-1.428-1.54-1.428m8.297 2.352c0-2.058 1.358-3.808 3.584-3.808.952 0 1.638.294 2.184.84V105.5h1.792V116h-1.792v-.56c-.546.546-1.232.84-2.184.84-2.226 0-3.584-1.75-3.584-3.808m1.862 0c0 1.232.77 2.128 1.974 2.128.798 0 1.456-.336 1.932-.98v-2.296c-.476-.644-1.134-.98-1.932-.98-1.204 0-1.974.896-1.974 2.128m12.477.476v-4.004h1.792v3.92c0 2.114-1.232 3.416-3.304 3.416s-3.29-1.302-3.29-3.416v-3.92h1.792v4.004c0 1.022.532 1.652 1.512 1.652.966 0 1.498-.63 1.498-1.652m12.28 1.47c1.12 0 2.002-.546 2.562-1.344l1.568 1.204c-.896 1.218-2.352 2.002-4.13 2.002-3.094 0-5.208-2.38-5.208-5.18s2.114-5.18 5.208-5.18c1.778 0 3.234.798 4.13 1.988l-1.568 1.218c-.56-.798-1.442-1.344-2.562-1.344-1.848 0-3.164 1.442-3.164 3.318s1.316 3.318 3.164 3.318m10.295 0c1.12 0 2.002-.546 2.562-1.344l1.568 1.204c-.896 1.218-2.352 2.002-4.13 2.002-3.094 0-5.208-2.38-5.208-5.18s2.114-5.18 5.208-5.18c1.778 0 3.234.798 4.13 1.988l-1.568 1.218c-.56-.798-1.442-1.344-2.562-1.344-1.848 0-3.164 1.442-3.164 3.318s1.316 3.318 3.164 3.318m5.995 1.582v-9.8h3.234c2.156 0 3.472 1.106 3.472 2.926 0 1.806-1.316 2.912-3.472 2.912h-1.246V116zm3.318-8.148h-1.33v2.534h1.33c.84 0 1.344-.49 1.344-1.288 0-.742-.504-1.246-1.344-1.246m4.542 8.148v-1.708l3.36-3.304c.756-.77 1.232-1.302 1.232-2.1 0-.812-.56-1.288-1.33-1.288-.938 0-1.512.574-2.03 1.442l-1.54-.938c.826-1.344 2.044-2.184 3.752-2.184s3.08 1.092 3.08 2.772c0 1.344-.882 2.38-1.848 3.318l-2.366 2.282h4.466V116zm-79.364 20.852c-.658.882-1.75 1.428-3.08 1.428-2.506 0-3.92-1.75-3.92-3.808 0-2.086 1.316-3.808 3.626-3.808 1.96 0 3.248 1.33 3.248 3.178 0 .392-.056.756-.112.994h-4.942c.168 1.316.98 1.848 2.086 1.848.77 0 1.442-.336 1.82-.84zm-3.416-4.732c-.91 0-1.512.504-1.708 1.428h3.248c-.028-.714-.546-1.428-1.54-1.428m5.462 3.304v-2.884h-1.316v-1.596h1.316v-1.764h1.792v1.764h2.156v1.596h-2.156v2.884c0 .784.42 1.092 1.12 1.092.49 0 .812-.056 1.05-.154v1.554c-.35.154-.77.224-1.358.224-1.764 0-2.604-.994-2.604-2.716m14.059.994c1.12 0 2.002-.546 2.562-1.344l1.568 1.204c-.896 1.218-2.352 2.002-4.13 2.002-3.094 0-5.208-2.38-5.208-5.18s2.114-5.18 5.208-5.18c1.778 0 3.234.798 4.13 1.988l-1.568 1.218c-.56-.798-1.442-1.344-2.562-1.344-1.848 0-3.164 1.442-3.164 3.318s1.316 3.318 3.164 3.318m10.295 0c1.12 0 2.002-.546 2.562-1.344l1.568 1.204c-.896 1.218-2.352 2.002-4.13 2.002-3.094 0-5.208-2.38-5.208-5.18s2.114-5.18 5.208-5.18c1.778 0 3.234.798 4.13 1.988l-1.568 1.218c-.56-.798-1.442-1.344-2.562-1.344-1.848 0-3.164 1.442-3.164 3.318s1.316 3.318 3.164 3.318m5.995 1.582v-9.8h3.234c2.156 0 3.472 1.106 3.472 2.926 0 1.806-1.316 2.912-3.472 2.912h-1.246V138zm3.318-8.148h-1.33v2.534h1.33c.84 0 1.344-.49 1.344-1.288 0-.742-.504-1.246-1.344-1.246m11.445 5.348c0 1.862-1.526 3.08-3.57 3.08-1.848 0-3.038-.812-3.836-2.212l1.652-1.022c.546 1.078 1.204 1.554 2.17 1.554.952 0 1.666-.574 1.666-1.484 0-.896-.7-1.456-1.736-1.456h-1.61v-1.68h1.484c.826 0 1.428-.462 1.428-1.218 0-.742-.56-1.162-1.33-1.162-.784 0-1.316.42-1.722 1.12l-1.54-.952c.714-1.162 1.82-1.848 3.402-1.848 1.792 0 3.122 1.022 3.122 2.632 0 .91-.392 1.68-1.12 2.184.994.504 1.54 1.386 1.54 2.464"/><path fill="#000091" d="M859.387 170v-8.4h2.46c1.68 0 2.724.924 2.724 2.364s-1.044 2.352-2.724 2.352h-1.332V170zm2.484-7.44h-1.356v2.796h1.356c.96 0 1.536-.516 1.536-1.416 0-.852-.576-1.38-1.536-1.38m8.196-1.2c2.616 0 4.404 2.04 4.404 4.44s-1.788 4.44-4.404 4.44c-2.628 0-4.416-2.04-4.416-4.44s1.788-4.44 4.416-4.44m0 7.824c1.884 0 3.24-1.512 3.24-3.384s-1.356-3.384-3.24-3.384c-1.896 0-3.252 1.512-3.252 3.384s1.356 3.384 3.252 3.384m6.347.816v-8.4h2.46c1.68 0 2.724.924 2.724 2.364s-1.044 2.352-2.724 2.352h-1.332V170zm2.484-7.44h-1.356v2.796h1.356c.96 0 1.536-.516 1.536-1.416 0-.852-.576-1.38-1.536-1.38m7.005 6.288.84-.768c.576.744 1.248 1.14 2.028 1.14.936 0 1.476-.564 1.476-1.332 0-1.896-3.984-1.488-3.984-4.26 0-1.248 1.032-2.268 2.496-2.268 1.176 0 2.04.54 2.664 1.368l-.852.744c-.492-.708-1.08-1.104-1.8-1.104-.828 0-1.356.516-1.356 1.236 0 1.884 3.972 1.452 3.972 4.248 0 1.452-1.116 2.376-2.604 2.376-1.236 0-2.148-.468-2.88-1.38m10.152.432c.744 0 1.356-.36 1.728-.888l.804.612c-.564.756-1.44 1.236-2.544 1.236-2.004 0-3.288-1.5-3.288-3.264s1.284-3.264 3.288-3.264c1.092 0 1.98.492 2.544 1.236l-.804.612a2.09 2.09 0 0 0-1.74-.888c-1.296 0-2.22 1.02-2.22 2.304 0 1.296.924 2.304 2.232 2.304m3.931.72v-9h1.02v3.636c.492-.54 1.116-.924 2.016-.924 1.356 0 2.364.912 2.364 2.628V170h-1.02v-3.624c0-1.08-.6-1.704-1.548-1.704-.888 0-1.428.516-1.812 1.14V170zm10.213-6.288c1.944 0 3.276 1.5 3.276 3.264s-1.332 3.264-3.276 3.264c-1.956 0-3.276-1.5-3.276-3.264s1.32-3.264 3.276-3.264m.012 5.568c1.26 0 2.184-1.056 2.184-2.304 0-1.26-.924-2.304-2.184-2.304-1.296 0-2.22 1.044-2.22 2.304s.924 2.304 2.22 2.304m7.723-5.568c1.944 0 3.276 1.5 3.276 3.264s-1.332 3.264-3.276 3.264c-1.956 0-3.276-1.5-3.276-3.264s1.32-3.264 3.276-3.264m.012 5.568c1.26 0 2.184-1.056 2.184-2.304 0-1.26-.924-2.304-2.184-2.304-1.296 0-2.22 1.044-2.22 2.304s.924 2.304 2.22 2.304m4.904.72v-9h1.02v9z"/></svg>