<svg version="1.1" id="Calque_2" xmlns="http://www.w3.org/2000/svg" x="0" y="0" viewBox="0 0 148.4 184.4" style="enable-background:new 0 0 148.4 184.4" xml:space="preserve"><style>.st0{fill:#000091}.st1{fill:#e1000f}</style><path class="st0" d="M62.3 47.1c.6-.6 1.2-1.2 1.7-1.8 1.1-1.2 2.1-2.4 3.4-3.4.4-.3.7-.6 1.1-.9.1-.1.1-.3.2-.4-.5.2-.8.6-1.3.8-.1 0-.2-.1-.1-.2.4-.3.7-.5 1.1-.8h-.1c-.1 0-.1-.1-.1-.2-1.3-.2-2.3.7-3.2 1.5-.2.1-.4-.1-.5-.1-1.5.5-2.6 1.8-4.1 2.4v-.2c-.6.2-1.2.6-1.8.7-.9.2-1.7.1-2.5.1-1.2.1-2.4.4-3.7.7h-.1c-.7.2-1.3.4-1.9.8h-.1c-.1.1-.1.1-.1.2-.2.2-.4.5-.7.6-.6.3-1.1.9-1.7 1.3 0 0-.1 0-.2.1-.5.5-1.1 1-1.6 1.6 0 0-.2.1-.3 0 0 0 0-.1.1-.1.1-.1.2-.3.3-.4.1-.2.2-.3.3-.5.1-.2.3-.4.4-.6v-.1l-.1-.1c.5-.5 1.1-.9 1.7-1.3-.1 0-.2 0-.1-.1s.1-.2.2-.3v-.1l-.1-.1c-.2.1-.3.2-.5.3-.2.2-.4.7-.8.7H46.8V46.9s0-.1.1-.1c0 0 0-.1.1-.1 0-.1.1-.1.1-.2 0 0 0-.1.1-.1 0-.1.1-.1.1-.2s0-.2-.1-.2c.2-.2.4-.4.7-.6l1.2-.6c.1 0 .1-.1.2-.1-.6.2-1.1.5-1.6.8 0 0-.1.1-.2.1 0 0-.1 0-.3-.1v-.1c.1-.2.4-.3.6-.5.1 0 .2 0 .2.1 3.2-2.5 7.7-1.9 11.4-3.2l.9-.6c.5-.2.9-.7 1.5-1 .8-.6 1.4-1.3 1.7-2.3 0-.1-.1-.2-.1-.2-1.3 1.4-2.8 2.5-4.4 3.3-2.1 1.1-4.4.9-6.7 1.2.1-.2.3-.2.5-.2 0-.3.2-.4.4-.6h.3c.1 0 .1-.2.2-.2.2 0 .5-.1.4-.1-.3-.4-.9.3-1.4 0 .2-.2.1-.5.3-.6h.4c0-.2.2-.4.2-.4 1.5-.9 2.9-1.6 4.3-2.4-.3 0-.5.3-.8.1.2 0 0-.3.2-.3 1.1-.3 2-.9 3.1-1.3-.4 0-.7.3-1.1 0 .2-.1.3-.3.6-.3v-.3c0-.1.1-.1.2-.1-.1 0-.2-.1-.2-.1.1-.2.4-.1.6-.3-.1 0-.3 0-.3-.1.3-.4.8-.5 1.3-.6-.1-.2-.4 0-.4-.2 0-.1.1-.1.2-.1h-.2c-.2-.1-.1-.3-.1-.4.6-.7.6-1.6.9-2.4-.1 0-.2 0-.2-.1-1 1.1-2.6 1.5-4.1 1.9h-.5c-.4-.1-1.1-.1-1.6-.4-.4-.2-.6-.5-1-.8-.8-.5-1.6-.9-2.5-1.2-2.5-.8-5.1-1.2-7.8-1.1 1.1-.6 2.3-.7 3.5-1 1.7-.5 3.3-1.1 5.1-1-.3-.1-.7 0-1 0-1.4-.1-2.8.3-4.3.6-1 .2-1.9.6-2.9.8-.6.2-.9.8-1.6.7v-.3c1-1.2 2.2-2.4 3.8-2.5 1.8-.3 3.5 0 5.3.2 1.3.1 2.5.4 3.8.7.5 0 .6.8 1 .9.6.2 1.2 0 1.8.4 0-.2-.1-.4 0-.6.4-.4.9.1 1.3-.1.8-.5-.7-1.4-1.1-2.1 0-.1.1-.2.1-.2.8.7 1.4 1.5 2.4 2 .5.2 1.7.5 1.5-.1-.5-1.1-1.5-2-2.3-3v-.4c-.2 0-.2-.1-.3-.2V24c-.4-.2-.3-.6-.5-.9-.3-.5-.1-1.2-.3-1.8-.2-.6-.3-1.1-.4-1.7-.3-1.7-.7-3.2-.9-4.8-.2-1.9 1.1-3.4 2-5.1.7-1.2 1.5-2.4 2.8-3.2.4-1.4 1.2-2.5 2-3.5s2.1-1.6 3.1-2c1.4-.6 2.7-1 2.7-1H1.6v53.4h49c1.9-1.4 3.8-2 6.5-3.4 1.3-.6 4.2-1.9 5.2-2.9zm-15.5-7.3c-.2 0-.6.1-.5-.1.1-.5.8-.5 1.2-.7.2-.1.5-.3.7-.2.2.3.5.2.7.4-.6.6-1.4.3-2.1.6zm-15.4-2.2s-.1-.1-.1-.2c1.3-1.7 2.3-3.3 3.2-5.1 1.3-.7 2.4-1.7 3.4-2.8 1.7-1.8 3.5-3.4 5.6-4.4.8-.3 1.8-.2 2.6.1-.3.4-.8.3-1.2.6-.1 0-.2 0-.3-.1.1-.1.1-.2.1-.3-1 1.1-2.4 1.6-3.2 2.9-.6 1-1 2.3-2.3 2.6-.4.1.1-.3-.1-.2-3.1 1.9-5.3 4.2-7.7 6.9zm8.3-6.6c-.1.2-.2.2-.3.4-.1.2-.2.3-.4.4-.1 0-.2 0-.2-.1.1-.4.4-.8.8-.9.1 0 .1.1.1.2zm4.7 15.1c0 .1-.1.2-.2.3.1 0 .2.1.1.2-.2.2-.5.4-.8.5h-.2l-.4.4c-.1.1-.7 0-.5-.1.3-.2.5-.5.7-.7l.4-.4c.1-.1.1-.2.2-.2.3-.2.8-.2.7 0zm-1.8-.8c-.4.3-.8.6-1.2.8-.4.3-.9.4-1.3.7 0 0-.1-.1-.2 0-.4.2-.7.5-1 .8l-.1.1-.1.1-.2.2-.1.1c-.1 0-.2 0-.2-.1-.1 0-.1.1-.2.1s-.1.1-.2.1h-.2c-.1.1-.2.2-.4.3l-.6.6s0 .1-.1.1h-.1v-.1c0-.1-.1-.1-.1-.2v-.1c.1-.1.2-.2.3-.4l.1-.1.2-.2s0-.1.1-.1c.1-.1.2-.3.3-.4v-.1c0-.1.1-.1.1-.2s.1-.1.1-.2.1-.2.1-.2v-.4c.1-.2.2-.4.4-.5-.1.1-.2.2-.4.3-.1.1-.3-.1-.2-.2.1-.1.2-.1.2-.2.2-.2.3-.4.5-.5.1-.1.2-.2.3-.2.1-.1.1-.2.2-.3 1-.9 2.6-.9 3.9-1.5.5-.2 1.1.1 1.6 0 .3 0 .6 0 .9.2-.7.6-1.6 1.1-2.4 1.7zm2.1-7.1c-.1-.1.3 0 .4-.2h-.8c-.1 0-.1-.1-.1-.2-.5.1-1.1.3-1.6.4-.7.2-1.3.7-2.1.9-1.1.4-2 1.3-3.2 1.7-.1 0-.1-.1-.1-.2.1-.3.5-.4.7-.7 0-.1 0-.2-.1-.2.8-1.1 1.9-1.7 2.9-2.6v-.3c.3-.4.8-.6 1-1.1.1-.3.5-.7 1-.9-.1-.1-.3-.1-.3-.3-.4 0-.8.2-1.2-.1.2-.2.4-.3.6-.4-.1 0-.2-.1-.2-.1-.1-.2.2-.4.5-.5.4-.1.9-.1 1.2-.4-.7-.1-1.5.2-2.2-.2.5-1.3 1.3-2.4 2.5-3 .1 0 .3 0 .3.1 0 .5-.3.9-.8 1 .8.2 1.6.2 2.4.6-.1.2-.3.1-.4.1.5.3 1.1.1 1.6.5-.3.3-.6 0-.9 0 3.1.9 6.5 1.6 9.1 3.6-2.2 1.1-4.5 1.6-7 2.1-.3 0-.5 0-.8-.1 0 .1 0 .3-.1.3-.4 0-.7 0-1 .2-.4.2-1 .3-1.3 0z"/><path class="st1" d="M148.4 0H91s.1 0 .5.3c.5.2 1.1.5 1.5.7.7.4 1.5.9 1.9 1.6.2.3.5.9.3 1.3-.2.5-.3 1.3-.8 1.5-.6.3-1.4.3-2.1.2-.4 0-.8-.1-1.2-.2 1.5.7 2.9 1.4 3.9 2.8.1.2.5.3.9.3.1 0 .1.2.1.3-.2.2-.4.3-.3.6h.3c.5-.2.4-1.2 1.1-.9.5.3.7 1 .4 1.5-.4.4-.8.7-1.2 1-.1.2-.1.5 0 .7.3.4.4.8.5 1.2.3.7.4 1.5.7 2.2.4 1.5.8 3 .7 4.5 0 .8-.4 1.5-.1 2.3.2.8.7 1.4 1.1 2.1.4.6.8 1 1.1 1.6.6 1 1.7 2 1.2 3.2-.3.7-1.4.6-2.1 1-.6.5-.1 1.3.2 1.8.5.9-.6 1.5-1.3 1.8.2.3.6.2.7.4.1.5.6.8.3 1.3-.4.6-1.6.9-1 1.8.4.7.1 1.5-.1 2.2-.3.9-1.1 1.3-1.8 1.5-.6.2-1.3.2-1.9.1-.2-.1-.4-.2-.6-.2-1.7-.2-3.4-.7-5.1-.7-.5.1-1 .2-1.4.4-.5.3-.9.7-1.2 1.1-.1.1-.1.2-.2.2 0 .1-.1.1-.1.2l-.1.1c-.3.4-.6.8-.8 1.2v.1l-.1.1c-.3.6-.6 1.2-.8 1.9-.7 2.3-.4 4.3.1 4.8.1.1 3.3 1.1 5.6 2.1 1 .5 1.8.8 2.4 1.2h56.4V0z"/><path d="M94.4 19.5c.4.1 1 .1 1 .3-.2.8-1.4 1-2 1.8h-.3c-.3.2-.2.7-.5.7-.3-.1-.6 0-.9.1.4.4.9.7 1.5.6.1 0 .3.2.3.4 0 0 .1 0 .2-.1.1 0 .2 0 .2.1v.4c-.3.4-.8.2-1.2.3.8.2 1.6.2 2.3 0 .6-.2 0-1.2.4-1.7-.2 0 0-.3-.2-.3.2-.2.4-.5.6-.6.2 0 .5-.1.6-.3 0-.2-.4-.3-.3-.5.6-.4 1.1-1 .9-1.6-.1-.3-.9-.3-1.4-.5-.5-.2-1.1 0-1.7.1-.5 0-1 .3-1.5.4-.7.2-1.3.6-1.9 1 .7-.3 1.4-.4 2.2-.6.6 0 1.1-.2 1.7 0z" style="fill:#9d9d9c"/><path class="st1" d="M3.4 126.2c1.3 1.6 2.8 2.7 4.7 2.7 1.6 0 2.5-.9 2.5-2.1 0-3.6-9.5-2.1-9.5-9.5 0-3.6 3-6.3 7.3-6.3 3.2 0 6 1.5 7.5 3.5l-3.5 3.1c-1.1-1.3-2.4-2.4-4-2.4-1.5 0-2.4.7-2.4 1.9 0 3.5 9.5 2.1 9.5 9.3-.1 4.3-3.5 6.7-7.4 6.7-3.7 0-6.3-1.5-8.2-3.8l3.5-3.1zM29.3 133.1c-7.3 0-11.4-5.1-11.4-11 0-6.1 3.8-11.1 10.5-11.1 5.7 0 9.4 3.8 9.4 9.2 0 1.1-.2 2.2-.3 2.9H23.3c.3 3.4 2.7 5.4 6.2 5.4 2.2 0 4.1-1 5.2-2.4l3.7 2.9c-2 2.5-5.2 4.1-9.1 4.1zm-5.7-13.9h9.2c-.1-2-1.6-3.9-4.3-3.9-2.5 0-4.2 1.3-4.9 3.9zM42.1 111.8h5.2v2c1.3-1.4 3.1-2.4 5.4-2.4.7 0 1.3.1 1.8.3v5.4c-.6-.2-1.3-.3-2.3-.3-2.5 0-4.1 1.4-4.9 2.6v12.8h-5.2v-20.4zM60.7 111.8l5.3 14.6 5.3-14.6h5.6l-7.5 20.5h-6.8l-7.4-20.5h5.5zM78.5 104.9c0-1.8 1.5-3.4 3.4-3.4 1.8 0 3.3 1.5 3.3 3.4 0 1.8-1.5 3.4-3.3 3.4-1.9 0-3.4-1.6-3.4-3.4zm.8 6.9h5.2v20.5h-5.2v-20.5zM104.1 125.9l4.1 3.1c-1.9 2.5-4.9 4.1-8.7 4.1-7.1 0-11.3-5.1-11.3-11 0-6 4.2-11.1 11.3-11.1 3.7 0 6.7 1.6 8.7 4.1l-4.1 3.1c-1-1.4-2.5-2.4-4.6-2.4-3.4 0-5.8 2.6-5.8 6.2s2.5 6.2 5.9 6.2c1.9.1 3.5-.9 4.5-2.3zM121.1 133.1c-7.3 0-11.4-5.1-11.4-11 0-6.1 3.8-11.1 10.5-11.1 5.7 0 9.4 3.8 9.4 9.2 0 1.1-.2 2.2-.3 2.9H115c.3 3.4 2.7 5.4 6.2 5.4 2.2 0 4.1-1 5.2-2.4l3.7 2.9c-2 2.5-5.2 4.1-9 4.1zm-5.8-13.9h9.2c-.1-2-1.6-3.9-4.3-3.9-2.5 0-4.2 1.3-4.9 3.9zM135.4 126.2c1.3 1.6 2.8 2.7 4.7 2.7 1.6 0 2.5-.9 2.5-2.1 0-3.6-9.5-2.1-9.5-9.5 0-3.6 3-6.3 7.3-6.3 3.2 0 6 1.5 7.5 3.5l-3.5 3.1c-1.1-1.3-2.4-2.4-4-2.4-1.5 0-2.4.7-2.4 1.9 0 3.5 9.5 2.1 9.5 9.3-.1 4.3-3.5 6.7-7.4 6.7-3.7 0-6.3-1.5-8.2-3.8l3.5-3.1z"/><g><path d="M52.5 178.9c.4 0 .8.3.6 1.2l-2 .5c.3-1 .9-1.7 1.4-1.7m1.1 3.3h-.4c-.5.6-1 1.1-1.6 1.1-.5 0-.8-.3-.8-1.1 0-.3 0-.6.1-.9l3.2-1.1c.6-1.5-.1-2.1-1-2.1-1.5 0-3.3 2.6-3.3 4.8 0 1 .5 1.6 1.2 1.6.9-.1 1.8-.9 2.6-2.3m-.7-4.7 2.3-2.1v-.2H54l-1.4 2.4h.3zM46 179h1l-1.7 4.7c-.2.4.1.8.5.8 1 0 2.5-1 3.1-2.3h-.3c-.4.5-1.3 1.1-2 1.2l1.6-4.4h1.6l.2-.7h-1.6l.6-1.7h-.6l-1.1 1.7-1.3.2v.5zm-1.5-.3c.1-.4-.2-.7-.4-.7-.9 0-2 .8-2.5 2h.3c.3-.4.8-.9 1.3-1l-1.8 4.6c-.2.4.2.7.4.7.9 0 1.9-.9 2.4-2h-.3c-.3.4-.8.9-1.3 1l1.9-4.6zm.3-2.3c.4 0 .8-.3.8-.8 0-.4-.3-.8-.8-.8-.4 0-.8.3-.8.8.1.5.4.8.8.8m-10.2 7.1c-.2.5 0 .9.5.9.3 0 .5-.1.6-.4l1.2-3.3c.6-.7 1.7-1.4 2.2-1.4.3 0 .3.3.1.7l-1.9 3.6c-.2.4.1.8.5.8.9 0 2-.8 2.5-2H40c-.3.4-.8.9-1.3 1l1.6-3.3c.2-.4.3-.8.3-1.1 0-.5-.3-.9-.9-.9-.8 0-1.6.9-2.6 2v-.9c0-.6-.2-1.2-.8-1.2-.3 0-.7.3-1 .7v.1c.6 0 .9.9.4 1.8l-1.1 2.9zm-.1-4c.2-.8.1-1.4-.5-1.4-.7 0-.9.5-1.6 2v-.9c0-.6-.2-1.2-.8-1.2-.7 0-1.2 1-1.7 2h.3c.3-.5.6-.7.8-.7.3 0 .4.4 0 1.4l-1.3 2.8c-.2.5 0 .9.5.9.3 0 .5-.1.6-.4l1.2-3.3c.3-.4.7-.8 1.1-1.2h1.4zm-7.1-.6c.4 0 .8.3.6 1.2l-2 .5c.3-1 .9-1.7 1.4-1.7m1.1 3.3h-.4c-.5.6-1 1.1-1.6 1.1-.5 0-.8-.3-.8-1.1 0-.3 0-.6.1-.9l3.2-1.1c.6-1.5-.1-2.1-1-2.1-1.5 0-3.3 2.6-3.3 4.8 0 1 .5 1.6 1.2 1.6.9-.1 1.9-.9 2.6-2.3m-7.6-3.2H22l-1.7 4.7c-.2.4.1.8.5.8 1 0 2.5-1 3.1-2.3h-.3c-.4.5-1.3 1.1-2 1.2l1.6-4.4h1.6l.2-.7h-1.6l.6-1.7h-.6l-1.1 1.7-1.3.2v.5zm-5.9 3.6c0-1.4 1.6-3.4 2.5-3.4.2 0 .4 0 .5.1l-.9 2.5c-.5.7-1.4 1.4-1.7 1.4-.3 0-.4-.2-.4-.6m4.9-4.8h-.5l-.5.5h-.1c-2.7 0-5 3-5 5.2 0 .6.4 1 1 1 .7 0 1.4-1 2.1-2v.4c-.1 1.1.2 1.7.8 1.7.7 0 1.2-1 1.7-2H19c-.3.5-.6.7-.8.7-.2 0-.4-.4 0-1.4l1.7-4.1zm-5.7 1.7c.2-.8.1-1.4-.5-1.4-.7 0-.9.5-1.6 2v-.9c0-.6-.2-1.2-.8-1.2-.7 0-1.2 1-1.7 2h.4c.3-.5.6-.7.8-.7.3 0 .4.4 0 1.4l-1.3 2.8c-.2.5 0 .9.5.9.3 0 .5-.1.6-.4l1.2-3.3c.3-.4.7-.8 1.1-1.2h1.3zm-8.9 4.7.1-.4c-1.6-.3-1.7-.3-1.1-2l.6-1.7h1.7c.8 0 .8.3.7 1.2h.4l1-2.8h-.4c-.4.7-.7 1.2-1.5 1.2H5.1l.9-2.5c.3-.8.4-.9 1.5-.9h.7c1.1 0 1.2.3 1.2 1.4h.4l.4-1.9H3.8l-.1.2c1.2.3 1.4.4.8 2l-1.4 3.8c-.6 1.6-.8 1.7-2.3 2l-.1.4h4.6zM36.9 164.4c.4 0 .8.3.6 1.2l-2 .5c.3-1.1.9-1.7 1.4-1.7m1.1 3.2h-.4c-.5.6-1 1.1-1.6 1.1-.5 0-.8-.3-.8-1.1 0-.3 0-.6.1-.9l3.2-1.1c.6-1.5-.1-2.1-1-2.1-1.5 0-3.3 2.6-3.3 4.8 0 1 .5 1.6 1.2 1.6.9-.1 1.8-.9 2.6-2.3m-.7-4.7 2.3-2.1v-.2h-1.2L37 163h.3zm-6.9 1.5h1.1l-1.7 4.7c-.2.4.1.8.5.8 1 0 2.5-1 3.1-2.3H33c-.4.5-1.3 1.1-2 1.2l1.6-4.4h1.6l.2-.7h-1.6l.6-1.7h-.6l-1.1 1.7-1.3.2v.5zm-1.5-.2c.1-.4-.2-.7-.4-.7-.9 0-2 .8-2.5 2h.3c.3-.4.8-.9 1.3-1l-1.8 4.6c-.2.4.2.7.4.7.9 0 1.9-.9 2.4-2h-.3c-.3.4-.8.9-1.3 1l1.9-4.6zm.3-2.4c.4 0 .8-.3.8-.8 0-.4-.3-.8-.8-.8-.4 0-.8.3-.8.8.1.5.4.8.8.8m-6.2 7 3.3-8.5-.1-.1-2 .2v.2l.4.3c.4.3.2.5-.1 1.4L22 169c-.2.4.1.8.5.8.9 0 1.9-.8 2.4-2h-.3c-.5.5-1.1.9-1.6 1m-6.1-.8c0-1.4 1.6-3.4 2.5-3.4.2 0 .4 0 .5.1l-.9 2.5c-.5.7-1.4 1.4-1.7 1.4-.3 0-.4-.1-.4-.6m4.9-4.8h-.5l-.5.5h-.1c-2.7 0-5 3-5 5.2 0 .6.4 1 1 1 .7 0 1.4-1 2.1-2v.4c-.1 1.1.2 1.7.8 1.7.7 0 1.2-1 1.7-2H21c-.3.5-.6.7-.8.7-.2 0-.4-.4 0-1.4l1.6-4.1zM9.9 171c0-.6.6-1 1.4-1.3.3.1.7.3 1.3.5.9.3 1.2.4 1.2.7 0 .6-1 1-2.3 1-1.1-.1-1.6-.3-1.6-.9m2.4-3.8c-.4 0-.5-.3-.5-.7 0-1 .6-2.6 1.4-2.6.4 0 .5.3.5.7 0 1.1-.5 2.6-1.4 2.6m2.5 3.2c0-.7-.7-1-1.7-1.3-.9-.3-1.4-.4-1.4-.7 0-.2.2-.5.6-.7 1.5-.1 2.5-1.5 2.5-2.6 0-.2 0-.5-.1-.6H16l.2-.7h-2.1c-.2-.2-.5-.2-.8-.2-1.6 0-2.7 1.4-2.7 2.6 0 .9.6 1.4 1.2 1.6-.8.3-1.2.7-1.2 1.2 0 .3.1.5.3.6-1.7.5-2.4 1.1-2.4 1.9 0 .8 1.1 1.1 2.3 1.1 2.3-.1 4-1.2 4-2.2m-8.1-5c.8 0 .8.3.7 1.2h.4l1-2.8h-.4c-.4.7-.7 1.2-1.5 1.2H5.2l.9-2.3c.3-.8.4-.9 1.5-.9h.7c1.1 0 1.2.3 1.2 1.4h.4l.4-1.9H3.8l-.1.4c1.2.3 1.4.4.8 2l-1.4 3.8c-.6 1.6-.8 1.7-2.3 2l-.1.4h7.2l1.3-2h-.5c-.8.8-1.8 1.5-3.3 1.5-1.9 0-1.7-.1-1.1-1.8l.7-1.9h1.7zm.9-4.9 2.3-1.6v-.2H8.5l-1.3 1.8h.4zM36.1 149.8c.4 0 .8.3.6 1.2l-2 .5c.3-1 .9-1.7 1.4-1.7m1.1 3.2h-.4c-.5.6-1 1.1-1.6 1.1-.5 0-.8-.3-.8-1.1 0-.3 0-.6.1-.9l3.2-1.1c.6-1.5-.1-2.1-1-2.1-1.5 0-3.3 2.6-3.3 4.8 0 1 .5 1.6 1.2 1.6.9 0 1.9-.9 2.6-2.3m-.6-4.7 2.3-2.1v-.2h-1.2l-1.4 2.4h.3zm-6.7 1.5h.9l-1.7 4.7c-.2.4.1.8.5.8 1 0 2.5-1 3.1-2.3h-.3c-.4.5-1.3 1.1-2 1.2l1.6-4.4h1.6l.2-.7h-1.6l.6-1.7h-.6l-1.1 1.7-1.1.2v.5zm-.9.5c.2-.8.1-1.4-.5-1.4-.7 0-.9.5-1.6 2v-.9c0-.6-.2-1.2-.8-1.2-.7 0-1.2 1-1.7 2h.3c.3-.5.6-.7.8-.7.3 0 .4.4 0 1.4l-1.3 2.8c-.2.5 0 .9.5.9.3 0 .5-.1.6-.4l1.2-3.3c.3-.4.7-.8 1.1-1.2H29zm-7.1-.5c.4 0 .8.3.6 1.2l-2 .5c.3-1 .9-1.7 1.4-1.7M23 153h-.4c-.5.6-1 1.1-1.6 1.1-.5 0-.8-.3-.8-1.1 0-.3 0-.6.1-.9l3.2-1.1c.6-1.5-.1-2.1-1-2.1-1.5 0-3.3 2.6-3.3 4.8 0 1 .5 1.6 1.2 1.6.9 0 1.8-.9 2.6-2.3m-7.9 1.3c-.3 0-.8-.3-.8-.5 0-.1.1-.4.3-.9l.5-1.4c.6-.7 1.4-1.4 1.9-1.4.3 0 .5.2.5.6.1 1.3-1.1 3.6-2.4 3.6m3.7-4.1c0-.9-.3-1.3-1-1.3-.8 0-1.6.9-2.4 1.9l1.9-5.1-.1-.1-2 .2v.2l.4.3c.4.3.2.6-.1 1.4l-2.1 5.4c-.2.4-.3.9-.3 1 0 .6.8 1.1 1.4 1.1 1.6.1 4.3-2.8 4.3-5m-6.4-.6c.1-.4-.2-.7-.4-.7-.9 0-2 .8-2.5 2h.3c.3-.4.8-.9 1.3-1l-1.8 4.6c-.2.4.2.7.4.7.9 0 1.9-.9 2.4-2h-.3c-.3.4-.8.9-1.3 1l1.9-4.6zm.3-2.3c.4 0 .8-.3.8-.8 0-.4-.3-.8-.8-.8-.4 0-.8.3-.8.8.1.4.4.8.8.8m-4.7-.8H3.8l-.1.4c1.2.3 1.4.4.8 2l-1.4 3.8c-.6 1.6-.8 1.7-2.3 2l-.1.3h6.5l1.4-2.5h-.5c-.8.9-1.7 2-3.2 2-1.1 0-1.2-.2-.6-1.8l1.4-3.8c.6-1.6.8-1.7 2.3-2v-.4z"/></g><g><path class="st0" d="M1.6 66.7h16.6v4.9H7.4v6.6h9.2v4.9H7.4v12H1.6V66.7zM21.7 74.7h5.2v2c1.3-1.4 3.1-2.4 5.4-2.4.7 0 1.3.1 1.8.3V80c-.6-.2-1.3-.3-2.3-.3-2.5 0-4.1 1.4-4.9 2.6v12.8h-5.2V74.7zM36.3 89.8c0-3.1 2.4-5.5 6.8-6.3l6.2-1.1v-.5c0-2.2-1.6-3.5-3.9-3.5-2 0-3.7.9-4.6 2.4L37 77.9c1.8-2.5 4.9-4.1 8.6-4.1 5.9 0 9 3.5 9 8V95h-5.2v-1.9C48 94.9 45.6 96 43.2 96c-4.1 0-6.9-2.4-6.9-6.2zm7.9 2c2.3 0 4-1.2 5-2.9v-2.8l-4.8.9c-2.2.4-3 1.3-3 2.6s1.1 2.2 2.8 2.2zM59.4 74.7h5.2v1.6c1.4-1.4 3.3-2.4 6.1-2.4 4.4 0 8 3 8 9.1v12.2h-5.2v-12c0-2.7-1.5-4.4-4-4.4-2.6 0-4 1.7-4.8 3v13.4h-5.2V74.7zM98 88.7l4.1 3.1c-1.9 2.5-4.9 4.1-8.7 4.1-7.1 0-11.3-5.1-11.3-11 0-6 4.2-11.1 11.3-11.1 3.7 0 6.7 1.6 8.7 4.1L98 81.1c-1-1.4-2.5-2.4-4.6-2.4-3.4 0-5.8 2.6-5.8 6.2s2.5 6.2 5.9 6.2c1.9 0 3.5-1 4.5-2.4zM114.9 96c-7.3 0-11.4-5.1-11.4-11 0-6.1 3.8-11.1 10.5-11.1 5.7 0 9.4 3.8 9.4 9.2 0 1.1-.2 2.2-.3 2.9h-14.3c.3 3.4 2.7 5.4 6.2 5.4 2.2 0 4.1-1 5.2-2.4l3.7 2.9c-1.9 2.5-5.1 4.1-9 4.1zm-5.7-13.9h9.2c-.1-2-1.6-3.9-4.3-3.9-2.5 0-4.2 1.2-4.9 3.9z"/></g></svg>
