<svg version="1.1" id="Logo_x5F_BDT" xmlns="http://www.w3.org/2000/svg" x="0" y="0" viewBox="0 0 600.95 122.39" style="enable-background:new 0 0 600.95 122.39" xml:space="preserve"><style>.st0{fill:#f01e1e}.st1{fill:#7c766e}.st2{fill:#fff}</style><path class="st0" d="M159.16 76.47h-10.48v31.49h-7.65V76.47h-10.42v-7.32h28.55v7.32zm28.56 24.17v7.32h-23.73V69.15h23.73v7.32h-16.08v8.26h14.69v7.21h-14.69v8.7h16.08zm19.68-6.15h-5.82v13.47h-7.65V69.15h15.52c7.15 0 12.92 5.77 12.92 12.86 0 4.88-3.05 9.26-7.48 11.31l8.59 14.64h-8.26l-7.82-13.47zm-5.82-6.71h7.87c2.88 0 5.27-2.55 5.27-5.77s-2.38-5.71-5.27-5.71h-7.87v11.48zm40.41 6.71h-5.82v13.47h-7.65V69.15h15.52c7.15 0 12.92 5.77 12.92 12.86 0 4.88-3.05 9.26-7.48 11.31l8.59 14.64h-8.26l-7.82-13.47zm-5.82-6.71h7.87c2.88 0 5.27-2.55 5.27-5.77s-2.38-5.71-5.27-5.71h-7.87v11.48zm34.6-18.63v38.81h-7.65V69.15h7.65zm33.43 7.32h-10.48v31.49h-7.65V76.47h-10.42v-7.32h28.55v7.32zm.83 12.09c0-11.36 8.93-20.18 20.12-20.18 11.2 0 20.18 8.81 20.18 20.18 0 11.31-8.98 20.18-20.18 20.18-11.19 0-20.12-8.87-20.12-20.18zm32.65 0c0-7.48-5.49-12.75-12.53-12.75-7.04 0-12.53 5.27-12.53 12.75 0 7.43 5.49 12.7 12.53 12.7 7.05-.01 12.53-5.27 12.53-12.7zm21.24-19.41v38.81h-7.65V69.15h7.65zm21.23 25.34h-5.82v13.47h-7.65V69.15h15.52c7.15 0 12.92 5.77 12.92 12.86 0 4.88-3.05 9.26-7.48 11.31l8.59 14.64h-8.26l-7.82-13.47zm-5.82-6.71h7.87c2.88 0 5.27-2.55 5.27-5.77s-2.38-5.71-5.27-5.71h-7.87v11.48zM425 100.64v7.32h-23.73V69.15H425v7.32h-16.08v8.26h14.69v7.21h-14.69v8.7H425zm4.22-1.49 6.54-3.83c1.39 3.6 4.1 5.93 8.93 5.93 4.6 0 6.21-1.94 6.21-4.1 0-2.88-2.61-3.99-8.37-5.65-5.93-1.72-11.7-4.21-11.7-11.59 0-7.32 6.1-11.53 12.75-11.53 6.38 0 11.25 3.27 13.86 8.7l-6.43 3.71c-1.39-2.94-3.49-4.99-7.43-4.99-3.22 0-5.1 1.66-5.1 3.88 0 2.38 1.5 3.66 7.37 5.43 6.15 1.94 12.7 3.99 12.7 11.92 0 7.26-5.82 11.7-14.08 11.7-7.93.01-13.15-3.82-15.25-9.58z"/><path class="st1" d="M395.61 13.71v38.22h-2.73V45.6c-2.24 4.2-6.44 6.93-11.74 6.93-7.81 0-14.14-6.17-14.14-14.25s6.33-14.25 14.14-14.25c5.3 0 9.5 2.73 11.74 6.94V13.71h2.73zm-2.73 24.57c0-6.5-5.08-11.63-11.58-11.63s-11.58 5.13-11.58 11.63 5.08 11.63 11.58 11.63 11.58-5.13 11.58-11.63zm38.82.11c0 .44-.05.87-.05 1.31h-24.74c.66 6.17 5.35 10.21 11.58 10.21 4.48 0 7.86-2.08 9.45-4.97l2.4 1.42c-2.24 3.71-6.5 6.17-11.9 6.17-8.41 0-14.36-6.01-14.36-14.25 0-8.03 5.79-14.25 14.14-14.25 8.29 0 13.48 6.88 13.48 14.36zm-24.79-1.36h21.95c-.6-6.66-5.3-10.37-10.65-10.37-6.22-.01-10.75 4.31-11.3 10.37zm51.2 7.75c0 4.48-3.93 7.75-9.77 7.75-5.46 0-9.06-2.57-10.37-6.06l2.35-1.37c.98 2.95 3.93 4.81 8.03 4.81 3.82 0 7.04-1.69 7.04-5.13 0-7.43-16.54-3.17-16.54-13 0-4.31 3.71-7.75 9.28-7.75 4.42 0 7.81 2.13 9.28 5.46l-2.29 1.31c-1.15-2.84-3.99-4.15-6.99-4.15-3.55 0-6.55 1.86-6.55 5.13-.02 7.32 16.53 3.01 16.53 13zm-296.88-3.24c0 5.78-4.63 10.41-10.41 10.41h-16.45V13.8h15.2c5.56 0 10.03 4.52 10.03 10.03 0 3.71-1.96 6.76-4.9 8.34 3.8 1.46 6.53 5.01 6.53 9.37zm-23.98-25.01v14.6h12.31c3.92 0 7.14-3.27 7.14-7.3s-3.22-7.3-7.14-7.3h-12.31zm21.09 25.01c0-4.25-3.38-7.68-7.52-7.68h-13.57v15.37h13.57c4.14-.01 7.52-3.44 7.52-7.69zm33.02.7h-19.12l-3.71 9.7h-3.05L180.3 13.8h3.05l14.77 38.14h-3.05l-3.71-9.7zm-1.04-2.72-8.5-22.18-8.5 22.18h17zm42.39-25.72v38.14h-2.56l-22.5-32.8v32.8h-2.89V13.8h2.51l22.56 32.8V13.8h2.88zm55.57 25.39V13.8h2.89v25.39c0 6.21 3.87 10.57 11.06 10.57 7.25 0 11.12-4.36 11.12-10.57V13.8h2.89v25.39c0 8.06-5.61 13.35-14 13.35s-13.96-5.28-13.96-13.35zm59.66 10.03v2.72h-21.69V13.8h21.69v2.72h-18.8v14.82h17.44v2.72h-17.44v15.15h18.8zm-67.5-16.35c0-10.9-8.77-19.67-19.67-19.67-10.9 0-19.67 8.77-19.67 19.67 0 10.9 8.77 19.67 19.67 19.67 3.36 0 6.53-.85 9.27-2.31l-2.1-2.07c-2.17 1.03-4.59 1.6-7.18 1.6-9.32 0-16.78-7.52-16.78-16.89s7.46-16.89 16.78-16.89 16.78 7.52 16.78 16.89c0 4.79-1.96 9.1-5.12 12.21l-8.76-8.56-1.96 1.8 17.73 17.57 1.96-1.8-6.96-7.05c3.72-3.6 6.01-8.61 6.01-14.17z"/><path class="st0" d="M12.63 100.73 0 93.69v-65l32.01-17.82 12.96 7.22L12.61 36.1l.02 64.63zm77.72-21.69 12.61-7.03V28.69L51.49 0l-13 7.24L90.35 36.1v42.94zm-38.86 28.9L18.94 89.81v14.44l32.55 18.14 51.48-28.69V79.23l-51.48 28.71z"/><path class="st1" d="M484.36 14.75h1.5v93.21h-1.5z"/><path class="st0" d="M507.77 14.64h93.17v93.17h-93.17z"/><path class="st2" d="M519.65 65.04c-2.09 0-3.02 1.72-3.02 3.85 0 1.87.82 3.76 3.02 3.76 1.5 0 2.33-1 2.52-2.51h2.36c-.27 3.01-2.32 4.57-4.89 4.57-3.43 0-5.46-2.55-5.46-5.81 0-3.44 2.13-5.92 5.46-5.92 2.55 0 4.51 1.55 4.79 4.04h-2.36c-.16-1.14-1.24-1.98-2.42-1.98zM532.87 72.65v-4.23c0-2.11-2.28-2.31-3.53-2.31-1.71 0-3.66.59-3.78 2.72h2.21c.09-.93.65-1.23 1.46-1.23.77 0 1.43.16 1.43 1.1.02.53-.38.82-1.65.94-.32.03-.65.07-.98.13-1.3.21-2.72.59-2.72 2.47 0 1.58 1.08 2.42 2.74 2.42.85 0 1.98-.2 2.71-.99.01.19.08.59.16.79h2.24c-.25-.39-.29-1.22-.29-1.81zm-2.21-1.34c0 1.4-.78 1.87-1.79 1.87-.69 0-1.35-.2-1.35-1.04 0-.57.27-1.01 1.31-1.19.18-.03.35-.06.53-.08.42-.04 1.08-.17 1.31-.39-.01 0-.01.83-.01.83zM534.44 65.07v-1.84h2.21v1.84h-2.21zm2.21 1.26v8.12h-2.21v-8.12h2.21zM541.54 73.18c.58 0 1.45-.24 1.45-1.04 0-.19-.07-.35-.21-.49-.78-.76-3.32-.61-4.36-1.68-.3-.3-.48-.71-.48-1.26 0-1.69 1.19-2.61 3.5-2.61 1.51 0 3.37.46 3.55 2.59h-2.1c-.03-.86-.71-1.1-1.51-1.1-.55 0-1.23.12-1.23.75 0 .53.56.79 1.59 1.01.3.06.61.13.92.2 1.27.29 2.55.76 2.55 2.28 0 1.66-1.18 2.81-3.67 2.81-2.01 0-3.7-.78-3.78-2.84h2.1c-.01.92.75 1.38 1.68 1.38zM535.65 88.42c.58 0 1.45-.24 1.45-1.04 0-.19-.07-.35-.21-.49-.78-.76-3.32-.61-4.36-1.68-.3-.3-.48-.71-.48-1.26 0-1.69 1.19-2.61 3.5-2.61 1.51 0 3.37.46 3.55 2.59H537c-.03-.86-.71-1.1-1.51-1.1-.55 0-1.23.12-1.23.75 0 .53.56.79 1.59 1.01.3.06.61.13.92.2 1.27.29 2.55.76 2.55 2.28 0 1.66-1.18 2.81-3.67 2.81-2.01 0-3.7-.78-3.78-2.84h2.1c-.01.92.75 1.38 1.68 1.38zM590.28 88.42c.58 0 1.45-.24 1.45-1.04 0-.19-.07-.35-.21-.49-.78-.76-3.32-.61-4.36-1.68-.3-.3-.48-.71-.48-1.26 0-1.69 1.19-2.61 3.5-2.61 1.51 0 3.37.46 3.55 2.59h-2.1c-.03-.86-.71-1.1-1.51-1.1-.55 0-1.23.12-1.23.75 0 .53.56.79 1.59 1.01.3.06.61.13.92.2 1.27.29 2.55.76 2.55 2.28 0 1.66-1.18 2.81-3.67 2.81-2.01 0-3.7-.78-3.78-2.84h2.1c-.02.92.74 1.38 1.68 1.38zM549.79 73.18c.58 0 1.45-.24 1.45-1.04 0-.19-.07-.35-.21-.49-.78-.76-3.32-.61-4.36-1.68-.3-.3-.48-.71-.48-1.26 0-1.69 1.19-2.61 3.5-2.61 1.51 0 3.37.46 3.55 2.59h-2.1c-.03-.86-.71-1.1-1.51-1.1-.55 0-1.23.12-1.23.75 0 .53.56.79 1.59 1.01.3.06.61.13.92.2 1.27.29 2.55.76 2.55 2.28 0 1.66-1.18 2.81-3.67 2.81-2.01 0-3.7-.78-3.78-2.84h2.1c-.02.92.74 1.38 1.68 1.38zM558.43 72.99c.89 0 1.6-.55 1.74-1.05h1.94c-.69 2.16-2.19 2.72-3.76 2.72-2.67 0-4.11-1.87-4.11-4.26 0-2.47 1.7-4.29 4.11-4.29 2.9 0 4.05 2.54 3.9 4.82h-5.8c.07 1.49.78 2.06 1.98 2.06zm-.14-5.2c-1.16 0-1.77.77-1.84 1.73h3.59c-.2-1.15-.68-1.73-1.75-1.73zM527.33 88.23c.89 0 1.6-.55 1.74-1.05h1.94c-.69 2.16-2.19 2.72-3.76 2.72-2.67 0-4.11-1.87-4.11-4.26 0-2.47 1.7-4.29 4.11-4.29 2.9 0 4.05 2.54 3.9 4.82h-5.8c.07 1.49.78 2.06 1.98 2.06zm-.14-5.2c-1.16 0-1.77.77-1.84 1.73h3.59c-.2-1.15-.68-1.73-1.75-1.73zM520.14 88.66c-.52.88-1.39 1.24-2.44 1.24-2.46 0-3.61-2.09-3.61-4.34 0-2.37 1.35-4.21 3.56-4.21.94 0 1.88.4 2.38 1.21h.03v-4.09h2.21v11.22h-2.1v-1.04h-.03zm-1.89-5.63c-1.36 0-1.94 1.14-1.94 2.59 0 1.23.54 2.61 1.94 2.61 1.46 0 1.9-1.29 1.9-2.62-.01-1.32-.47-2.58-1.9-2.58zM548.4 78.47c2.81 0 5.04 1.76 5.04 5.55 0 3.36-1.75 5.67-5.04 5.67h-4.79V78.47h4.79zm-.18 9.15c1.66 0 2.77-1.15 2.77-3.36 0-2.06-.65-3.71-3.2-3.71h-1.74v7.07h2.17zM558.44 88.23c.89 0 1.6-.55 1.74-1.05h1.94c-.69 2.16-2.19 2.72-3.76 2.72-2.67 0-4.11-1.87-4.11-4.26 0-2.47 1.7-4.29 4.11-4.29 2.9 0 4.05 2.54 3.9 4.82h-5.8c.07 1.49.78 2.06 1.98 2.06zm-.14-5.2c-1.16 0-1.77.77-1.84 1.73h3.59c-.21-1.15-.69-1.73-1.75-1.73zM558.75 77.36l-1.65 2.78h1.54l2.54-2.78h-2.43zM565.27 81.57v1.04h.03c.55-.9 1.43-1.26 2.4-1.26 2.62 0 3.66 2.21 3.66 4.37 0 2.21-1.19 4.18-3.53 4.18-1.04 0-1.89-.45-2.41-1.21h-.03v3.85h-2.21V81.57h2.09zm3.87 4.08c0-1.49-.64-2.62-1.93-2.62-1.24 0-1.91.99-1.91 2.62 0 1.42.56 2.58 1.93 2.58 1.36 0 1.91-1.12 1.91-2.58zM576.36 81.35c2.57 0 4.17 1.73 4.17 4.29 0 2.45-1.5 4.26-4.17 4.26-2.36 0-4.15-1.51-4.15-4.26 0-2.62 1.66-4.29 4.15-4.29zm1.03-3.02 1.71 2.23h-1.82l-.96-1.27-1 1.27h-1.66l1.71-2.23h2.02zm-1.03 9.9c1.49 0 1.96-1.25 1.96-2.59 0-1.24-.4-2.61-1.96-2.61-1.38 0-1.94 1.13-1.94 2.61 0 1.43.53 2.59 1.94 2.59zM585.97 81.57v1.49h-1.62v4.02c0 .75.19.94.93.94.24 0 .48-.02.68-.06v1.73c-.39.07-.93.08-1.29.08-1.47 0-2.54-.35-2.54-1.92v-4.79h-1.34v-1.49h1.34v-2.44h2.21v2.44h1.63z"/><g><path class="st2" d="M514.4 98.03v-.02c0-1.66 1.26-3.07 3.03-3.07 1.02 0 1.65.29 2.26.81l-.65.79c-.45-.39-.9-.64-1.65-.64-1.08 0-1.91.96-1.91 2.09v.02c0 1.22.8 2.12 2 2.12.55 0 1.06-.18 1.42-.45v-1.11h-1.5v-.91h2.5v2.49c-.58.5-1.41.92-2.45.92-1.84.02-3.05-1.31-3.05-3.04zM522.73 95.05h2.62c.74 0 1.32.22 1.7.59.31.32.49.76.49 1.28v.02c0 .98-.58 1.56-1.4 1.8l1.59 2.25h-1.22l-1.44-2.07h-1.3v2.07h-1.03v-5.94zm2.54 2.94c.74 0 1.21-.39 1.21-.99v-.02c0-.64-.45-.98-1.22-.98h-1.5v1.99h1.51zM529.6 98.03v-.02c0-1.67 1.28-3.07 3.08-3.07s3.06 1.38 3.06 3.05v.02c0 1.67-1.28 3.07-3.08 3.07-1.8.01-3.06-1.38-3.06-3.05zm5.06 0v-.02c0-1.15-.83-2.11-2-2.11s-1.98.94-1.98 2.09v.02c0 1.15.83 2.11 2 2.11 1.17.01 1.98-.93 1.98-2.09zM537.97 98.47v-3.42H539v3.38c0 1.1.56 1.7 1.49 1.7.91 0 1.48-.56 1.48-1.65v-3.42H543v3.37c0 1.77-.99 2.66-2.53 2.66-1.52-.01-2.5-.9-2.5-2.62zM545.51 95.05h2.32c1.37 0 2.23.79 2.23 1.98v.02c0 1.33-1.06 2.03-2.35 2.03h-1.17v1.91h-1.03v-5.94zm2.23 3.09c.78 0 1.27-.44 1.27-1.06v-.02c0-.7-.5-1.06-1.27-1.06h-1.2v2.14h1.2zM552.07 95.05h4.36v.93h-3.32v1.54h2.95v.93h-2.95v1.59h3.37v.93h-4.4v-5.92z"/></g><g><path class="st2" d="M576.15 45.72c.3.39.62.75.95 1.09.37-.16.87-.23 1.55-.11-.86-.63-1.64-1.45-2.32-2.44-.37-.53-.7-1.11-.98-1.71-.53-1.18-1.14-2.08-1.79-2.68-1-.94-2.27-1.35-3.63-.31.51.49 1.69 1.04 2.59.11.61.36 1.21 1.08 1.56 2.13.11.33.24.66.37.98-.85-.51-1.77-.43-2.33.3.38.22 1.18.39 1.58-.3.1.02.31.12.36.14.73.39.94 1.08 1.36 1.74-.31.04-.6.18-.86.43.64-.2 1.13.02 1.59.63zM574.11 29.71c.21.71.04 1.3-.07 1.57-.22.56-.77 1.14-1.29 1.5-.83-.8-1.89-.18-2.45.36.99.73 2.38.38 3.38-.57-.12.49-.21.99-.29 1.5-.29-.16-.62-.22-1-.12.56.13.92.53.89 1.14 0 .07-.03.43-.03.51-.28-.29-.73-.62-1.31-.79-.55-.19-1.29-.15-1.93.17.43.83 1.73.92 2.51.42.33.28.71.75.71 1.46 0 .83-.37 1.42-1.3 1.6.57.14 1.03.03 1.38-.25.04.37.09.73.15 1.09.38.29.75.68 1.1 1.17a16.04 16.04 0 0 1-.63-4.47c0-1.71.29-3.05.52-4.06.17-.77.21-1.44.12-2-.22-1.34-1.13-1.91-2.3-2.05.06.78.57 1.99 1.84 1.82zM574.82 29.38c.09.27.14.57.15.91.15-.37.31-.74.49-1.09 1.41-2.67.82-4.09-.83-4.91-.31.75-.39 2.21 1.05 2.71-.05.52-.24 1.2-.69 2.03-.06.12-.11.24-.17.35z"/><path class="st2" d="M574.52 27.83c.08-.57-.29-1.3-1.1-1.33-.19.71.42 1.34 1.1 1.33zM583.21 52.58l-1.48-.87s.17.38.17.87c0 .48-.17.87-.17.87l1.48-.87zM583.33 52.7l-.87 1.48s.38-.17.87-.17c.48 0 .87.17.87.17l-.87-1.48zM583.45 52.58l1.48.87s-.17-.38-.17-.87c0-.48.17-.87.17-.87l-1.48.87zM582.46 50.98l.87 1.48.87-1.48s-.38.17-.87.17-.87-.17-.87-.17zM576.52 46.86c-.27-.2-.54-.33-.8-.39-.05-.67-.79-.97-2.01-.81.13.46.55.81 1.09.99-.42.25-.85.76-1.33 1.61 1.16.3 2.39-.3 3.05-1.4zM574.16 44.05c-.9-.19-1.82.13-2.21.85 1 .39 2.12-.02 2.21-.85zM572.77 41.68c.21-.62-.3-.99-1.31-.99.03.19.12.36.26.51-.36.07-.8.35-1.35.91.75.42 1.73.22 2.4-.43zM572.62 30.4c-.09-.18-.2-.33-.34-.43.17-.4-.16-.76-.89-1-.06.3.07.61.33.86-.31.03-.71.2-1.23.56.56.47 1.43.45 2.13.01zM579 50.84c-.5-.5-1.33-.35-1.66.18.42.35 1.22.43 1.66-.18zM573.07 31.43c-.45-.48-1.23-.37-1.55.12.39.32 1.12.43 1.55-.12zM571.04 37.87c.44.22 1.16.16 1.42-.44-.54-.36-1.23-.08-1.42.44z"/><path class="st2" d="M572.18 46.83c.41.36 1.2.48 1.66-.1-.47-.52-1.3-.41-1.66.1zM576.85 48.88c-.62-.36-1.37-.01-1.55.58.51.22 1.3.11 1.55-.58zM572.27 43.78c-.4-.43-1.08-.32-1.38.1.35.3 1 .39 1.38-.1zM571.75 36.64c-.58-.72-1.67-.65-2.18-.01.51.5 1.53.73 2.18.01zM584.54 49.55c.09-.15.04-.32-.1-.43-.1-.09-.32-.3-.81-.71-.08-.07-.19-.14-.31-.14s-.23.07-.31.14c-.48.4-.7.62-.81.71-.13.11-.18.27-.1.43.08.15.26.2.4.11-.16.25-.05.47.08.54.14.09.32.04.41-.12-.04.28.15.45.32.45s.36-.17.32-.45c.09.15.27.21.41.12.13-.08.24-.3.08-.54.16.09.34.04.42-.11z"/><path class="st2" d="M580.23 47.63c-.84-.38-2.31-.87-3.24-.32-.35.21-.65.57-.73.97.63-.7 2.22-.93 2.66.35.13.36.13.91-.25 1.12.15-.92-.45-1.48-1.24-1.5-.1.42 0 .88.27 1.19-.26-.03-.5.03-.7.11 0 0 .32.52.95.57.46.04.87-.13 1.16-.45.07.58.18 1.09.8 1.27-.62.3-1.15.8-1.29 1.44 2.6-.13 2.35-1.11 2.11-1.71-1.53.4-1.23-1.08-1.23-2.08.13.07.57.27 1 .43-.1.25-.25.46-.45.65.77-.06 1.09-.29 2.42-1.44-.77-.08-1.52-.29-2.24-.6zM593.1 39.87c-.64.6-1.25 1.5-1.79 2.68-.29.6-.62 1.17-.98 1.71-.68.99-1.46 1.8-2.32 2.44.67-.12 1.18-.05 1.55.11.33-.33.65-.7.95-1.09.47-.61.95-.83 1.6-.64-.25-.25-.55-.39-.86-.43.42-.66.63-1.35 1.36-1.74.05-.03.26-.12.36-.14.4.69 1.2.53 1.58.3-.56-.73-1.48-.81-2.33-.3.13-.32.26-.64.37-.98.35-1.06.94-1.77 1.56-2.13.9.93 2.08.38 2.59-.11-1.38-1.03-2.64-.62-3.64.32zM592.1 29.94c-.09.56-.05 1.22.12 2 .23 1.01.52 2.35.52 4.06 0 1.55-.22 3.06-.63 4.47.35-.49.72-.88 1.1-1.17.06-.36.11-.72.15-1.09.35.28.81.39 1.38.25-.92-.19-1.3-.77-1.3-1.6 0-.71.38-1.19.71-1.46.77.5 2.07.41 2.51-.42-.64-.32-1.38-.36-1.93-.17-.57.17-1.02.5-1.31.79 0-.09-.03-.44-.03-.51-.04-.61.32-1.01.89-1.14-.37-.1-.71-.04-1 .12-.07-.51-.17-1.01-.29-1.5 1.01.95 2.39 1.3 3.38.57-.56-.53-1.62-1.16-2.45-.36-.52-.36-1.07-.94-1.29-1.5-.11-.27-.28-.86-.07-1.57 1.26.17 1.77-1.04 1.85-1.82-1.18.14-2.09.7-2.31 2.05zM591.2 29.2c.18.35.34.72.49 1.09.01-.34.07-.64.15-.91-.06-.12-.12-.23-.18-.35-.44-.83-.63-1.51-.69-2.03 1.45-.5 1.37-1.96 1.05-2.71-1.64.82-2.23 2.24-.82 4.91z"/><path class="st2" d="M592.14 27.83c.68.01 1.29-.61 1.1-1.33-.81.03-1.18.76-1.1 1.33zM592.94 45.66c-1.22-.15-1.95.15-2.01.81-.27.05-.53.19-.8.39.66 1.09 1.9 1.7 3.04 1.4-.48-.85-.91-1.36-1.33-1.61.55-.18.97-.53 1.1-.99zM592.5 44.05c.09.83 1.21 1.24 2.21.85-.39-.72-1.31-1.04-2.21-.85zM594.93 41.2c.14-.15.24-.32.26-.51-1.02 0-1.53.37-1.31.99.67.64 1.65.85 2.4.43-.55-.55-.99-.83-1.35-.91zM595.27 28.97c-.73.24-1.06.6-.89 1-.13.1-.24.25-.34.43.7.45 1.57.46 2.13-.01-.52-.36-.92-.53-1.23-.56.25-.26.39-.57.33-.86zM589.32 51.03c-.33-.53-1.16-.68-1.66-.18.44.6 1.23.52 1.66.18zM593.59 31.43c.42.55 1.16.45 1.55.12-.33-.49-1.1-.6-1.55-.12zM595.62 37.87c-.19-.52-.88-.8-1.42-.44.26.6.97.66 1.42.44z"/><path class="st2" d="M594.47 46.83c-.36-.51-1.18-.62-1.66-.1.46.58 1.25.46 1.66.1zM589.8 48.88c.26.69 1.04.8 1.55.58-.18-.59-.93-.94-1.55-.58zM595.76 43.89c-.29-.43-.98-.53-1.38-.1.38.48 1.03.39 1.38.1zM594.91 36.64c.65.72 1.67.49 2.18-.01-.51-.64-1.6-.71-2.18.01z"/><path class="st2" d="M590.39 48.28c-.08-.41-.38-.77-.73-.97-.93-.55-2.4-.05-3.24.32-.72.31-1.47.52-2.24.61 1.33 1.15 1.65 1.37 2.42 1.44-.21-.18-.36-.39-.45-.65.43-.16.87-.36 1-.43.01 1 .3 2.48-1.23 2.08-.24.6-.49 1.58 2.11 1.71-.14-.65-.66-1.15-1.29-1.44.63-.18.73-.7.8-1.27.29.32.7.49 1.16.45.63-.05.95-.57.95-.57-.19-.08-.44-.14-.7-.11.26-.31.37-.77.27-1.19-.79.02-1.39.58-1.24 1.5-.38-.21-.38-.77-.25-1.12.45-1.29 2.03-1.06 2.66-.36zM591.75 36c0-6.29-3.77-11.39-8.42-11.39s-8.43 5.1-8.43 11.39c0 6.28 3.77 11.38 8.42 11.38s8.43-5.1 8.43-11.38zm-8.42 10.61c-4.2 0-7.62-4.76-7.62-10.6 0-5.85 3.42-10.62 7.62-10.62s7.62 4.76 7.62 10.62c0 5.84-3.42 10.6-7.62 10.6z"/><path class="st2" d="M583.33 26.12c-.71 0-1.41.16-2.07.47h4.14c-.67-.31-1.36-.47-2.07-.47zM586.5 27.25h-6.34c-.19.14-.37.3-.55.47h7.45c-.19-.17-.37-.33-.56-.47zM587.67 28.38h-8.69c-.13.15-.25.31-.37.47h9.43c-.12-.16-.24-.32-.37-.47zM576.47 36.33c0 .16.01.31.02.47h13.67c.01-.16.01-.31.02-.47h-13.71zM580.15 44.74h6.35c.19-.14.37-.3.55-.47h-7.45c.18.17.36.33.55.47zM583.33 45.87c.71 0 1.41-.16 2.07-.47h-4.15c.67.31 1.37.47 2.08.47zM579.43 29.52h-1.26c-.09.15-.18.31-.27.47h1.19c.1-.17.21-.32.34-.47zM587.56 29.99h1.19c-.09-.16-.18-.32-.27-.47h-1.26c.13.15.24.3.34.47zM578.78 30.65h-1.21c-.07.15-.14.31-.2.47h1.28c.03-.15.07-.31.13-.47zM588 31.12h1.28c-.06-.16-.13-.31-.2-.47h-1.21c.06.16.1.32.13.47zM578.64 32.02c-.02-.08-.03-.15-.04-.23h-1.48c-.05.15-.1.31-.14.47h.88c.23-.15.5-.23.78-.24zM588.01 32.02c.29.01.55.1.78.24h.88c-.05-.16-.09-.31-.14-.47h-1.48c-.01.07-.02.15-.04.23zM577.25 32.92h-.44c-.04.15-.07.31-.1.47h.39c.03-.16.08-.32.15-.47zM589.56 33.39h.39a7.87 7.87 0 0 0-.1-.47h-.44c.06.15.12.31.15.47zM577.23 34.4a2.3 2.3 0 0 1-.12-.34h-.51l-.06.47h.77a.567.567 0 0 1-.08-.13zM589.42 34.4c-.02.05-.05.09-.08.13h.77l-.06-.47h-.51a2.3 2.3 0 0 1-.12.34zM585.87 29.52h-5.09c.13.15.24.3.34.47h4.41c.1-.17.22-.32.34-.47zM585.22 30.65h-3.79c.06.16.1.32.13.47h3.53c.03-.15.08-.31.13-.47zM585.08 32.02c-.02-.08-.03-.15-.04-.23h-3.44c-.01.08-.02.15-.04.23.29.01.55.1.78.24h1.95c.24-.15.51-.23.79-.24zM583.54 33.39c.03-.17.08-.32.15-.47h-.74c.07.15.13.3.15.47h.44zM583.76 34.53c-.07-.09-.15-.26-.2-.47h-.46c-.05.21-.12.38-.2.47h.86zM582.65 37.46h-6.11l.06.47h5.72c.09-.16.21-.32.33-.47zM584.34 37.93h5.72l.06-.47H584c.13.15.24.31.34.47zM582 38.6h-5.29c.03.16.06.31.1.47h5.06c.03-.16.07-.31.13-.47zM584.78 39.07h5.06c.04-.15.07-.31.1-.47h-5.29c.06.16.1.31.13.47zM581.86 39.97c-.02-.08-.03-.16-.04-.23h-4.85c.05.16.09.31.14.47h3.96c.25-.15.51-.24.79-.24zM584.79 39.97c.28.01.55.09.78.24h3.96c.05-.15.1-.31.14-.47h-4.85c0 .07-.01.15-.03.23zM580.48 40.87h-3.11c.06.16.13.31.2.47h2.75c.03-.17.08-.33.16-.47zM586.33 41.34h2.75c.07-.15.14-.31.2-.47h-3.11c.08.14.13.3.16.47zM581.39 42.47h.92c-.05-.18-.2-.38-.43-.38-.23 0-.39.18-.49.38zM584.35 42.47h.92c-.1-.2-.26-.38-.49-.38-.23 0-.39.2-.43.38zM578.16 34.52h.92c-.05-.18-.2-.38-.43-.38-.22 0-.38.19-.49.38zM581.55 34.14c-.23 0-.38.2-.43.38h.92c-.1-.19-.26-.38-.49-.38zM588 34.14c-.23 0-.38.2-.43.38h.92c-.1-.19-.26-.38-.49-.38zM585.1 34.14c-.23 0-.39.19-.49.38h.92c-.05-.18-.2-.38-.43-.38zM580.34 42h-2.44c.09.16.18.32.27.47h2.37c-.1-.09-.18-.35-.2-.47zM586.12 42.47h2.37c.09-.15.18-.31.27-.47h-2.44c-.03.12-.11.38-.2.47z"/><path class="st2" d="M581.55 33.58c.4 0 .74.24.92.59.07-.15.11-.3.11-.48 0-.62-.48-1.12-1.06-1.12-.19 0-.37.06-.53.15l-.37.54-.14-.1s.58-.96.58-1.55c0-.6-.38-1.51-.95-1.98-.58.47-.95 1.38-.95 1.98 0 .59.58 1.55.58 1.55l-.14.1-.37-.54a.94.94 0 0 0-.53-.15c-.59 0-1.06.5-1.06 1.12 0 .17.04.33.11.48.18-.34.52-.59.92-.59.6 0 1 .56 1 1.05 0 .21-.03.39-.08.56-.06.19-.13.34-.21.47h1.46c-.08-.13-.15-.28-.21-.47a1.89 1.89 0 0 1-.08-.56c0-.49.4-1.05 1-1.05zm-1.44-3.46c.66 1.04.59 1.8 0 2.87v-2.87zM588 33.58c.4 0 .74.24.92.59.07-.15.11-.3.11-.48 0-.62-.48-1.12-1.06-1.12-.19 0-.37.06-.53.15l-.37.54-.14-.1s.58-.96.58-1.55c0-.6-.38-1.51-.95-1.98-.58.47-.95 1.38-.95 1.98 0 .59.58 1.55.58 1.55l-.14.1-.37-.54a.94.94 0 0 0-.53-.15c-.59 0-1.06.5-1.06 1.12 0 .17.04.33.11.48.18-.34.52-.59.92-.59.6 0 1 .56 1 1.05 0 .21-.03.39-.08.56-.06.19-.13.34-.21.47h1.46c-.08-.13-.15-.28-.21-.47a1.89 1.89 0 0 1-.08-.56c-.01-.49.39-1.05 1-1.05zm-1.45-3.46c.66 1.04.59 1.8 0 2.87v-2.87zM583.33 37.58c-.58.47-.95 1.38-.95 1.98 0 .59.58 1.55.58 1.55l-.14.1-.37-.54a.94.94 0 0 0-.53-.15c-.59 0-1.06.5-1.06 1.12 0 .17.04.33.11.48.18-.34.52-.59.92-.59.6 0 1 .56 1 1.05 0 .44-.14.79-.29 1.03h1.46c-.14-.24-.29-.59-.29-1.03 0-.49.4-1.05 1-1.05.4 0 .74.24.92.59.07-.15.11-.3.11-.48 0-.62-.48-1.12-1.06-1.12-.19 0-.37.06-.53.15l-.37.54-.14-.1s.58-.96.58-1.55c0-.6-.38-1.51-.95-1.98zm0 3.37v-2.87c.66 1.03.59 1.79 0 2.87z"/><path class="st2" d="M582.21 43.14h-3.6c.12.16.24.32.37.47h3.01c.07-.13.15-.28.22-.47zM584.67 43.61h3.01c.13-.15.25-.31.37-.47h-3.6c.06.19.14.34.22.47zM584.06 16.84c0-.4-.33-.73-.73-.73s-.73.33-.73.73c0 .4.33.73.73.73s.73-.33.73-.73zM584 23.28l.19.27.33-.54-.32-.52h-1.75l-.31.52.32.54.2-.27zM581.13 23.56l.28.18.09-.62-.49-.37-1.63.63-.08.59.51.39.08-.32zM586.76 24.04l.09.32.51-.39-.09-.59-1.63-.63-.49.37.09.62.29-.18zM578.98 35.19h-2.49c-.01.16-.02.31-.02.47h2.29c.08-.12.16-.28.22-.47zM587.89 35.66h2.29c0-.16-.01-.31-.02-.47h-2.49c.06.19.14.35.22.47zM585.21 35.66c.08-.12.16-.28.22-.47h-4.2c.06.19.14.35.22.47h3.76z"/><path class="st2" d="m588.48 20.13-2.02-.84-.41.82c-.16.3-.46.34-.68.26a.521.521 0 0 1-.33-.63l.22-.95-1.94-.81-1.94.81.22.95c.08.31-.12.54-.33.63-.22.09-.52.04-.68-.26l-.41-.82-2.02.84.22.83c.08.31-.12.54-.33.63-.22.09-.52.04-.68-.26l-.4-.7-1.26.52c-.24-.47-.64-.35-.8-.27l1.87 3.6c.5 1.1.29 1.9.26 2.15.59-.91 1.93-1.78 2.16-1.92l-1.04-.77c-.01.14.02.34.05.51l-.42.33-.58-1c1.72-1.19 3.75-1.91 5.8-1.94-.09-.25-.22-.51-.72-.47-1.84.17-3.65.82-5.33 1.97l-.92-1.59.73-.28c.41.66.9.74 1.47.51.55-.22.76-.66.63-1.34l1.13-.45c.48.77.95.81 1.49.59.55-.22.73-.75.61-1.42l.66-.27c.18 1.24.57 1.93.57 1.93s.39-.69.57-1.93l.66.27c-.12.67.06 1.19.61 1.42.54.22 1.01.18 1.49-.59l1.13.45c-.13.68.08 1.12.63 1.34.56.23 1.06.15 1.47-.51l.73.28-.92 1.59c-1.68-1.15-3.49-1.8-5.33-1.97-.5-.05-.63.22-.72.47 2.05.04 4.08.75 5.8 1.94l-.58 1-.42-.33c.04-.16.06-.37.05-.51l-1.04.77c.23.14 1.57 1.01 2.16 1.92-.03-.25-.24-1.05.26-2.15l1.87-3.6c-.16-.08-.56-.21-.8.27l-1.26-.52-.4.7c-.16.3-.46.34-.68.26a.521.521 0 0 1-.33-.63l.2-.83zM559.07 35.15c0 .25.2.45.45.45s.45-.2.45-.45-.2-.45-.45-.45c-.24 0-.44.2-.45.45zM558.43 37.86h-.02l.18 1.27v.02l.19-.03v-.01c.02-.11.03-.27.02-.45l1.13-.16.09.67c.02.17.11.21.17.23l.16-.02-.13-.92.97-.14.13.88c-.16.06-.27.12-.41.2l-.01.01.02.16h.01c.11.03.34.06.5.03a.43.43 0 0 0 .2-.06l.01-.01-.3-2.09h-.02c-.18.03-.21.11-.22.42l-2.38.34c-.07-.29-.12-.37-.29-.34zM559.79 42.79c.01 0 .01.01.02.01.35.2.79.24 1.22.12.45-.12.78-.36.97-.69.18-.31.21-.69.11-1.09-.1-.39-.34-.7-.67-.89-.01 0-.02-.01-.02-.01-.35-.19-.78-.23-1.21-.12-.45.12-.79.36-.98.69-.18.31-.22.69-.11 1.08.09.39.34.71.67.9zm-.24-1.71c.17-.23.45-.4.81-.5.37-.1.7-.09.96.02a.903.903 0 0 1 .51.59c.07.28.03.54-.13.77-.17.23-.44.4-.8.5-.36.1-.7.09-.96-.02a.843.843 0 0 1-.51-.59.815.815 0 0 1 .12-.77zM562.81 44.01l.01.01.18-.07-.45-1.18-.02.01c-.17.06-.17.16-.11.48l-2.24.86c-.17-.28-.24-.35-.41-.29l-.02.01.45 1.18.18-.07v-.01c-.01-.11-.03-.28-.06-.41l2.25-.86c.08.1.17.25.24.34zM563.56 48.08c.24.08.48.05.69-.07.22-.13.35-.31.38-.53.03-.21-.04-.46-.19-.73-.03-.06-.11-.18-.18-.3-.09-.14-.18-.29-.22-.37l-.27-.47-.02.01c-.16.09-.15.18-.04.48l-2.07 1.21c-.21-.25-.29-.3-.44-.21l-.02.01.65 1.11.01.02.17-.1v-.01a3.25 3.25 0 0 0-.15-.43l.86-.5c.26.58.6.8.84.88zm.39-1.62c.06.08.15.24.2.31.1.18.14.34.12.48-.03.14-.12.26-.28.35-.12.07-.3.14-.5.07-.21-.07-.39-.29-.53-.63l.99-.58zM564.04 51.33c.4.22.88.17 1.33-.18l1.19-.93c.24.22.33.26.46.15l.02-.01-.75-.95-.15.12v.01c.03.11.13.27.2.4l-1.16.92c-.49.39-.9.38-1.22-.03-.35-.45-.28-.84.22-1.24l1.16-.92c.11.1.24.23.34.29l.01.01.15-.12-.8-1.02-.02.01c-.14.11-.12.2.04.49l-1.18.93c-.34.27-.52.55-.55.85-.02.28.09.58.34.9.11.13.24.24.37.32zM566.47 53.87c.39.22.77.17 1.08-.15.26-.28.28-.62.04-.96.28.09.57.03.77-.19.22-.23.37-.61-.15-1.11l-.98-.93-.01.01c-.13.13-.09.21.09.47l-1.65 1.74c-.26-.17-.35-.2-.47-.07l-.01.01.98.94c.1.1.21.18.31.24zm1.17-2.56.3.28c.24.23.25.48.03.71-.17.18-.44.28-.7.05l-.33-.31.7-.73zm-1.59 1.67.7-.74.36.34c.29.27.32.56.08.81-.25.27-.57.27-.85 0l-.28-.27c-.07-.04-.07-.08-.01-.14zM570.15 53.33h.01l.12-.16-.98-.73-.02-.01-.01.02c-.11.15-.07.22.15.45l-1.43 1.93c-.28-.14-.37-.16-.48-.01l-.01.02 1.75 1.3.01.01.01-.01c.05-.03.12-.09.16-.16.1-.13.19-.36.22-.48v-.01l-.13-.1-.01.01c-.12.07-.24.16-.39.3l-.79-.59 1.44-1.94c.12.05.28.13.38.16zM572.24 54.7h.01l.1-.17-1.06-.65-.02-.01-.01.02c-.09.15-.04.23.21.45l-1.25 2.04c-.31-.12-.4-.13-.5.02l-.01.02 1.06.65.02.01.1-.17-.01-.01c-.07-.09-.2-.2-.29-.29l1.26-2.05c.12.06.27.11.39.14zM574.71 57.32c.2-.42.23-.83.09-1.19-.13-.34-.39-.61-.76-.78-.78-.36-1.62-.03-2.01.8-.2.42-.23.83-.11 1.19.12.34.38.61.75.78.04.02.08.03.09.04.21.62.54 1.08.93 1.31.03.02.06.03.09.05.35.16.65.1.77.03l.01-.01v-.16h-.02c-.01 0-.03-.01-.04-.01-.09-.02-.22-.04-.39-.13-.37-.17-.7-.5-.98-.98.66.08 1.27-.29 1.58-.94zm-1.87.55a.886.886 0 0 1-.5-.6c-.07-.28-.02-.6.14-.94.33-.7.87-.98 1.41-.72.03.01.05.03.08.04.48.27.59.85.29 1.49-.33.69-.89.98-1.42.73zM575.86 59.32c.12.07.25.12.41.17.34.1.65.07.91-.09.26-.15.45-.42.56-.78l.43-1.44c.32.04.41.02.46-.15l.01-.02-1.14-.34-.02-.01-.06.19.01.01c.09.07.26.15.39.21l-.42 1.42c-.09.29-.21.5-.38.61-.17.12-.38.14-.63.07-.29-.08-.47-.22-.55-.43-.08-.18-.07-.42.02-.71l.42-1.42c.15.02.33.05.44.04h.01l.06-.19-1.22-.36-.02-.01-.01.02c-.05.17.02.23.31.38l-.43 1.45c-.12.42-.11.75.04 1.01.1.15.23.27.4.37zM580.62 57.59c.01.17.03.3.07.45v.01l.16.02.01-.01c.06-.1.15-.31.18-.47.01-.09.02-.16 0-.21v-.01l-2.11-.32h-.02v.02c-.03.18.05.23.34.33l-.36 2.37c-.32.01-.4.03-.43.21V60l2.11.32h.01l.01-.01c.03-.06.06-.14.07-.21.03-.17 0-.4-.03-.51v-.01l-.16-.02-.01.01c-.08.12-.14.26-.2.43l-.94-.14.17-1.14.71.11c.17.03.23-.04.27-.1l.02-.16-.97-.15.15-.97.95.14zM582.78 59.16v.28h.7c.23 0 .31-.01.38-.1v-.28h-.7c-.23 0-.31.01-.38.1zM585.96 60.3v.02l1.24-.16h.02l-.03-.19h-.01c-.08-.01-.22-.03-.41-.03l-.25-1.91v-.01h-.01a.409.409 0 0 0-.25-.02c-.21.03-.45.13-.53.17l-.01.01.02.16h.01c.09.01.2.03.37.03l.21 1.63c-.31.07-.39.12-.37.3zM587.59 59.36c.04.2.15.36.3.46.01.01.02.01.03.02.2.12.48.14.8.07.57-.13.91-.56.8-1.03-.1-.43-.35-.58-.76-.69.23-.14.47-.39.38-.79-.08-.35-.39-.67-1.03-.53-.27.06-.49.19-.63.36-.13.17-.18.37-.13.58.1.43.39.58.67.66-.33.21-.5.55-.43.89zm.19-1.69a.418.418 0 0 1 .06-.35c.07-.08.18-.14.31-.18.13-.03.25-.01.34.04.01.01.02.01.03.02.1.07.17.18.2.32.05.22-.01.42-.19.61l-.05-.01c-.36-.06-.63-.13-.7-.45zm.48.87.18.03c.39.08.6.17.67.49.06.28-.11.5-.43.57-.34.08-.59-.08-.66-.4-.06-.33.08-.53.24-.69zM590.32 59.44l.01.02 1.19-.38.02-.01-.06-.19h-.01c-.08 0-.22.01-.4.04l-.59-1.84h-.01a.446.446 0 0 0-.25.02c-.2.06-.42.21-.49.26l-.01.01.05.15h.01c.09 0 .2-.01.37-.04l.5 1.57c-.31.15-.38.22-.33.39zM592.16 58.51c.01.01.02.01.03.02.25.13.54.14.84.01.26-.11.46-.32.55-.59.08-.25.07-.54-.04-.8a.988.988 0 0 0-.46-.52.783.783 0 0 0-.7 0c-.35.14-.47.41-.51.58-.14-.7.16-1.35.79-1.75l.02-.01-.11-.17-.02.01c-1.01.43-1.42 1.44-.99 2.46.14.36.35.62.6.76zm.2-1.51c.17-.07.33-.07.47.01.13.08.24.22.32.4.08.2.11.38.07.54-.04.15-.13.27-.27.32-.15.06-.29.06-.43 0-.02-.01-.03-.02-.05-.03-.33-.19-.5-.67-.53-.74.04-.17.19-.41.42-.5zM595.61 56.27c.25 0 .45-.2.45-.45s-.2-.45-.45-.45-.45.2-.45.45c.01.25.21.45.45.45zM558.99 29.92h-.01v.01c-.06.1-.16.46-.2.7-.13.73.13 1.33.68 1.64.17.1.36.17.58.21.9.16 1.58-.27 1.73-1.1.11-.59-.19-.94-.32-1.07l-.01-.01h-.01c-.04.01-.13.07-.15.1l-.01.01.02.02c.07.12.25.39.18.78-.05.3-.22.53-.48.67-.25.13-.57.17-.92.1-.39-.07-.68-.21-.85-.43-.17-.21-.23-.46-.17-.77.03-.19.1-.34.14-.42.25 0 .44-.04.51-.06h.01l.03-.16-.01-.01c-.1-.06-.3-.18-.49-.21-.09 0-.18-.01-.25 0zM559.93 27.58c-.2 0-.35.01-.44.29l-.07.21 2.33 1.71c-.02.21 0 .3.09.36l.06.03.02.01.32-1 .01-.02-.19-.06-.01.01c-.07.11-.15.25-.19.35l-.64-.46.32-1.01.79-.01c-.02.11-.04.26-.05.4v.02l.19.06.35-1.11.01-.02-.02-.01c-.16-.05-.22.02-.34.22l-2.53.02-.01.01zm1.05 1.26-1.14-.82 1.4-.01-.26.83zM560.92 24.85l-.18-.08-.5 1.14-.01.02.02.01c.16.07.24.01.42-.27l2.19.97c-.08.32-.08.41.09.49l.02.01.5-1.14.01-.02-.18-.08-.01.01c-.08.09-.18.22-.25.33l-2.2-.97c.03-.12.07-.29.08-.4v-.02zM561.99 23.03c.16.05.37.08.46.08h.01l.08-.14-.01-.01c-.21-.24-.41-.37-.58-.41h-.01l-.01.01c-.06.06-.23.26-.42.62-.31.56-.25 1.02.17 1.26 0 0 .01 0 .01.01.3.17.6.15.89-.05.14-.09.21-.15.3-.23.05-.05.11-.1.2-.17.21-.18.4-.26.66-.11h.01c.26.15.31.43.14.75a.98.98 0 0 1-.38.4c-.14-.06-.35-.12-.52-.13h-.01l-.08.14.01.01c.09.13.24.27.4.37.06.03.12.06.18.08h.02c.09-.05.4-.25.64-.7.32-.58.23-1.07-.25-1.34-.01 0-.01-.01-.02-.01-.36-.2-.7-.14-1.09.2-.04.03-.07.06-.1.08-.1.09-.16.14-.27.22-.21.16-.38.19-.56.09h-.01c-.23-.13-.27-.38-.1-.68.09-.17.19-.28.24-.34zM563.53 20.26h-.01l-.01.01c-.06.06-.25.23-.49.56-.38.53-.36.99.04 1.28.28.2.58.22.89.05.15-.08.22-.13.32-.2l.21-.14c.23-.15.42-.21.67-.04.12.09.19.2.2.33a.67.67 0 0 1-.14.43c-.14.19-.31.31-.43.36-.13-.07-.33-.16-.5-.19h-.01l-.1.13.01.01c.09.16.25.36.44.47.03.02.06.03.09.04h.02c.09-.04.42-.2.72-.62.39-.55.35-1.05-.11-1.38-.34-.24-.68-.22-1.1.07-.04.03-.07.05-.11.07-.11.08-.18.12-.3.19-.23.13-.4.14-.56.03-.23-.16-.24-.41-.03-.69.11-.16.22-.25.28-.3.15.07.36.12.45.13h.01l.09-.13-.01-.01c-.19-.25-.36-.41-.53-.46zM565.43 18.42c.14.08.26.13.41.18h.01l.11-.12-.01-.01c-.05-.1-.18-.3-.3-.41a.914.914 0 0 0-.17-.12h-.01l-1.43 1.59-.01.01.01.01c.14.12.22.09.47-.11l1.78 1.6c-.17.27-.19.35-.06.48l.01.01 1.44-1.6-.01-.01a.734.734 0 0 0-.14-.18c-.12-.11-.34-.22-.45-.26h-.01l-.11.12.01.01c.06.13.13.26.25.41l-.63.7-.85-.77.48-.54c.11-.12.09-.22.07-.28l-.12-.11-.65.73-.73-.65.64-.68c0-.01 0 0 0 0zM568.86 18.78l.01.02 1.12-.84c.38-.29.6-.65.65-1.04.04-.38-.08-.77-.36-1.14-.54-.71-1.32-.79-2.08-.21l-1.12.85.01.02c.11.15.2.13.48-.01l1.44 1.91c-.22.22-.26.29-.15.44zm-.95-2.64.4-.3c.58-.44 1.15-.35 1.6.24.25.33.36.62.36.89-.01.3-.17.56-.49.81l-.3.23c-.07.05-.1.04-.15-.02l-1.42-1.85zM571.45 16.87l.01.02 1.86-1.06.01-.01v-.01a.69.69 0 0 0-.08-.21c-.08-.15-.25-.31-.34-.39l-.01-.01-.14.08v.01c.01.14.05.29.11.47l-.82.47-.57-1 .63-.36c.14-.08.16-.17.15-.24h-.34l-.59.34-.19-.34h-.51l1.03 1.8c-.25.21-.3.28-.21.44zM575 14.67c-.06.12-.18.22-.35.29-.22.09-.42.1-.55.08-.07-.12-.19-.29-.31-.41h-.1l-.08.03v.01c-.01.21.04.52.18.71v.01h.01c.1.02.46.05.94-.15.29-.12.51-.3.62-.5.02-.04.03-.08.05-.11H575v.04zM600.8 48.9l-.01-.01-.77.86.15.13.01-.01c.1-.06.23-.16.33-.24l.44.39v-.45l-.21-.19c.17-.28.19-.37.06-.48zM600.92 53.2l.01.01.01-.01v-.42c-.13.23-.14.32-.02.42zM600.95 50.82l-1.73-.21h-.01l-.06.07c-.08.09-.1.19-.05.3.05.1.14.19.23.26l1.62 1.44v-.45l-1.3-1.15 1.3.16v-.42zM599.08 54.43c-.13-.1-.32-.21-.41-.24h-.01l-.12.1.01.01c.12.3.25.49.4.58l.01.01.01-.01c.08-.04.3-.17.61-.43.49-.42.59-.88.27-1.25-.22-.26-.51-.35-.85-.27-.16.04-.25.07-.36.11-.07.02-.14.05-.24.09-.26.09-.46.1-.66-.12-.2-.23-.15-.52.13-.76.18-.15.37-.23.5-.24.11.1.29.23.44.31l.01.01.12-.11v-.01c-.05-.2-.2-.48-.39-.62h-.02c-.1.02-.46.09-.85.43-.24.21-.39.44-.43.66-.05.24.03.48.22.7.27.31.61.37 1.09.19.05-.02.09-.03.12-.05.13-.05.2-.08.33-.11.25-.07.42-.04.55.11.18.21.13.45-.13.68-.15.13-.28.2-.35.23z"/><path class="st2" d="M600.95 55.6c-4.71 4.12-10.87 6.63-17.62 6.63-14.78 0-26.76-11.98-26.76-26.76 0-8.41 3.88-15.91 9.95-20.82h-3.31c-5.45 5.27-8.84 12.64-8.84 20.82 0 15.99 12.97 28.96 28.96 28.96 6.63 0 12.74-2.23 17.62-5.98V55.6z"/></g></svg>
