<svg xmlns="http://www.w3.org/2000/svg" xmlns:xlink="http://www.w3.org/1999/xlink" width="176" height="212"><defs><path id="a" d="M0 0h39.288v32.198H0z"/><path id="c" d="M0 0h9.683v13.374H0z"/><path id="e" d="M0 111.727h90V0H0z"/></defs><g fill="none" fill-rule="evenodd"><path fill="#FFF" d="M0 0h176v212H0z"/><path fill="#FFF" d="M44 50h89v32H44z"/><g transform="translate(43 50)"><path fill="#000091" d="M27.115 23.12c-.061-.062.18 0 .241-.123h-.483c-.06 0-.06-.058-.06-.119-.303.061-.666.18-.969.241-.424.122-.788.425-1.27.544-.666.244-1.212.788-1.94 1.03-.058 0-.058-.062-.058-.12.059-.183.303-.244.422-.424 0-.061 0-.122-.058-.122.483-.666 1.148-1.03 1.753-1.573v-.18c.183-.245.486-.364.605-.667.06-.183.305-.424.607-.546-.06-.061-.183-.061-.183-.18-.241 0-.482.119-.727-.061.123-.122.245-.183.364-.242-.061 0-.12-.06-.12-.06-.06-.123.12-.242.303-.303.241-.061.544-.061.727-.244-.425-.059-.91.122-1.332-.12.303-.787.785-1.453 1.512-1.817.061 0 .18 0 .18.061 0 .303-.18.544-.482.605.482.122.968.122 1.453.364-.06.122-.183.06-.244.06.303.181.666.062.968.303-.18.183-.363 0-.543 0 1.875.544 3.933.968 5.506 2.18-1.331.666-2.721.969-4.236 1.271-.18 0-.302 0-.483-.061 0 .061 0 .18-.06.18-.242 0-.425 0-.605.122-.244.122-.608.18-.788 0m-1.27 4.297c-.242.183-.486.364-.727.486-.242.18-.544.241-.788.422 0 0-.059-.061-.12 0-.244.122-.424.302-.604.485l-.061.061-.061.058-.122.122-.061.061c-.059 0-.12 0-.12-.06-.06 0-.06.06-.122.06-.06 0-.06.061-.12.061h-.121a.9.9 0 0 1-.242.18q-.184.183-.363.364s0 .061-.061.061h-.061v-.06c0-.062-.061-.062-.061-.123v-.058a.8.8 0 0 0 .183-.244l.061-.059.12-.122s0-.06.06-.06c.061-.062.122-.181.18-.242v-.061c0-.061.062-.061.062-.122 0-.058.06-.058.06-.12 0-.06.062-.121.062-.121v-.241c.06-.123.122-.242.241-.303a.8.8 0 0 1-.241.18c-.061.061-.183-.06-.122-.12.06-.06.122-.06.122-.121.122-.122.18-.242.302-.303.061-.06.122-.122.18-.122.062-.06.062-.119.123-.18.604-.546 1.572-.546 2.36-.907.303-.122.666.058.968 0 .183 0 .364 0 .544.12-.422.363-.968.665-1.45 1.028m1.09.486c0 .058-.062.12-.123.18.061 0 .122.061.061.122-.122.12-.302.242-.485.303h-.12l-.243.241c-.061.061-.422 0-.303-.061.183-.12.303-.302.425-.424l.241-.242c.061-.06.061-.12.122-.12.18-.121.483-.121.424 0m-2.846-9.14c-.06.122-.122.122-.18.242a.48.48 0 0 1-.244.244c-.058 0-.12 0-.12-.061.062-.242.242-.486.483-.547.061 0 .061.061.061.122m-5.024 3.995s-.06-.061-.06-.122a18.7 18.7 0 0 0 1.938-3.085c.786-.424 1.451-1.03 2.056-1.695 1.03-1.09 2.12-2.058 3.39-2.663.485-.183 1.09-.122 1.573.061-.18.241-.483.18-.724.363-.061 0-.122 0-.183-.06.06-.062.06-.123.06-.184-.604.666-1.453.969-1.935 1.756-.364.605-.605 1.393-1.393 1.573-.241.061.06-.18-.061-.12-1.875 1.15-3.207 2.542-4.66 4.176m9.32 1.332c-.119 0-.363.06-.302-.061.061-.303.485-.303.727-.422.122-.061.302-.183.424-.122.12.18.303.122.422.241-.363.364-.846.183-1.27.364m9.381 4.419a17 17 0 0 0 1.03-1.09c.665-.727 1.27-1.454 2.058-2.059.241-.18.422-.363.666-.544.058-.06.058-.183.12-.241-.303.12-.484.363-.786.483-.061 0-.122-.061-.061-.12.241-.183.422-.305.666-.485h-.061c-.061 0-.061-.061-.061-.122-.785-.12-1.393.424-1.937.91-.122.058-.241-.061-.302-.061-.907.302-1.573 1.09-2.483 1.45v-.119c-.363.12-.724.364-1.087.425-.547.12-1.03.058-1.515.058-.727.061-1.45.244-2.239.424h-.06c-.425.122-.788.242-1.15.486h-.06c-.061.058-.061.058-.061.12-.122.121-.242.302-.425.363-.363.183-.665.543-1.029.787 0 0-.058 0-.12.061-.302.303-.665.605-.967.969 0 0-.122.058-.183 0 0 0 0-.061.06-.061.062-.061.123-.183.181-.242.061-.122.122-.183.183-.305.061-.12.18-.241.241-.36v-.062l-.06-.06c.302-.303.665-.544 1.029-.788-.061 0-.12 0-.061-.061.06-.059.06-.12.122-.18v-.062l-.061-.06c-.12.06-.18.121-.303.182-.12.12-.241.425-.483.425h-.182v-.183s0-.061.06-.061c0 0 0-.061.061-.061 0-.059.061-.059.061-.12 0 0 0-.06.059-.06 0-.062.06-.062.06-.123 0-.058 0-.12-.06-.12a2.7 2.7 0 0 1 .424-.363c.242-.122.486-.24.727-.363.061 0 .061-.06.122-.06-.363.121-.666.301-.968.484 0 0-.061.061-.122.061 0 0-.061 0-.183-.06v-.062c.06-.122.244-.183.363-.302.061 0 .122 0 .122.061 1.937-1.515 4.66-1.151 6.9-1.939q.272-.18.546-.36c.302-.123.544-.425.907-.608.483-.363.846-.785 1.03-1.39 0-.061-.062-.122-.062-.122a9.4 9.4 0 0 1-2.663 1.997c-1.27.666-2.663.544-4.056.727.061-.122.183-.122.303-.122 0-.18.122-.241.241-.363h.183c.061 0 .061-.12.122-.12.12 0 .303-.06.242-.06-.184-.245-.547.18-.85 0 .123-.123.062-.303.184-.364h.241c0-.122.122-.241.122-.241.907-.547 1.753-.971 2.602-1.454-.183 0-.302.18-.485.061.122 0 0-.183.122-.183.666-.18 1.21-.544 1.875-.785-.241 0-.422.18-.666 0 .122-.061.183-.183.364-.183v-.18c0-.062.06-.062.122-.062-.061 0-.122-.06-.122-.06.06-.123.244-.062.363-.181-.06 0-.18 0-.18-.061.18-.241.483-.302.785-.363-.058-.122-.241 0-.241-.122 0-.061.06-.061.122-.061h-.122c-.122-.059-.061-.18-.061-.242.363-.424.363-.968.546-1.45-.061 0-.122 0-.122-.062-.605.666-1.573.907-2.483 1.149h-.302c-.242-.061-.666-.061-.968-.242-.242-.122-.364-.302-.605-.485a7 7 0 0 0-1.512-.724 13.7 13.7 0 0 0-4.722-.666c.666-.363 1.393-.424 2.12-.605 1.026-.305 1.995-.665 3.085-.607-.18-.058-.425 0-.605 0-.846-.058-1.695.183-2.602.363-.605.122-1.151.364-1.756.486-.364.12-.544.482-.968.424v-.183c.604-.727 1.331-1.453 2.3-1.512 1.09-.183 2.119 0 3.206.12.788.06 1.515.244 2.303.424.302 0 .36.485.604.544.364.122.727 0 1.088.244 0-.122-.058-.244 0-.364.244-.244.546.061.788-.06.485-.303-.425-.85-.666-1.271 0-.061.061-.122.061-.122.483.424.846.907 1.454 1.21.302.121 1.026.304.907-.06-.303-.665-.907-1.211-1.393-1.816v-.241c-.122 0-.122-.061-.18-.122v-.242c-.244-.122-.183-.363-.305-.544-.18-.305-.059-.726-.18-1.09a6.3 6.3 0 0 1-.242-1.029c-.183-1.03-.424-1.936-.546-2.904-.12-1.152.665-2.059 1.212-3.088.422-.727.907-1.454 1.695-1.936.241-.85.724-1.515 1.21-2.12.485-.604 1.27-.968 1.875-1.21C42.125.242 42.91 0 42.91 0H1.03v32.318h29.655c1.151-.846 2.3-1.21 3.934-2.058.788-.36 2.544-1.149 3.148-1.753"/><g transform="translate(50.712)"><mask id="b" fill="#fff"><use xlink:href="#a"/></mask><path fill="#E1000F" d="M39.166-.001H4.426s.058 0 .302.18c.303.122.666.305.908.425.424.241.907.546 1.15.968.12.183.303.546.181.788-.122.302-.18.787-.485.907-.361.183-.846.183-1.27.122-.242 0-.484-.061-.728-.122.91.424 1.756.849 2.361 1.695.061.122.303.18.547.18.06 0 .06.122.06.183-.121.122-.243.18-.182.364h.183c.302-.122.241-.727.665-.547.303.183.422.608.242.91-.242.241-.486.422-.727.605a.52.52 0 0 0 0 .424c.18.242.241.483.302.724.183.425.242.91.425 1.332.241.91.482 1.817.424 2.724 0 .485-.244.91-.06 1.393.118.485.42.848.665 1.27.241.364.483.605.666.968.363.605 1.029 1.213.726 1.937-.183.424-.848.363-1.273.607-.363.302-.058.785.122 1.088.303.546-.363.91-.788 1.09.123.183.364.122.425.241.06.303.363.486.183.788-.244.363-.97.544-.608 1.09.245.422.062.907-.058 1.332-.183.543-.666.785-1.09.907-.363.122-.788.122-1.151.06-.12-.06-.242-.121-.364-.121-1.029-.12-2.055-.425-3.085-.425-.302.061-.604.122-.848.245a2.6 2.6 0 0 0-.727.665c-.058.061-.058.12-.12.12 0 .06-.06.06-.06.122l-.061.06c-.18.242-.364.483-.483.727v.059l-.061.06c-.183.364-.364.728-.486 1.152-.421 1.393-.241 2.602.061 2.905.061.06 1.998.665 3.39 1.27.605.302 1.09.485 1.451.727h34.138v-32.2h-.122z" mask="url(#b)"/></g><path fill="#9D9D9C" d="M57.195 11.801c.242.061.605.061.605.18-.12.486-.846.608-1.21 1.09h-.182c-.18.123-.12.425-.303.425-.18-.06-.363 0-.543.061.24.242.543.422.907.364.06 0 .183.12.183.241 0 0 .058 0 .12-.06.06 0 .121 0 .121.06v.241c-.183.242-.485.122-.727.183.486.12.968.12 1.393 0 .363-.122 0-.726.241-1.029-.12 0 0-.183-.12-.183.12-.12.242-.302.362-.363.122 0 .305-.058.363-.18 0-.123-.241-.184-.18-.303.363-.241.665-.605.543-.968-.06-.183-.543-.183-.846-.302-.302-.122-.666 0-1.029.058-.302 0-.605.183-.907.244-.424.12-.788.363-1.151.605.424-.183.849-.242 1.331-.364.364 0 .666-.122 1.03 0"/><g transform="translate(0 67.182)"><mask id="d" fill="#fff"><use xlink:href="#c"/></mask><path fill="#E1000F" d="M2.118 9.199c.788.968 1.695 1.634 2.844 1.634.97 0 1.514-.544 1.514-1.27 0-2.181-5.75-1.271-5.75-5.751C.726 1.634 2.543 0 5.145 0 7.08 0 8.776.907 9.683 2.117L7.567 3.995C6.9 3.207 6.113 2.54 5.145 2.54c-.907 0-1.454.425-1.454 1.151 0 2.117 5.75 1.27 5.75 5.629-.06 2.602-2.118 4.053-4.48 4.053-2.238 0-3.81-.907-4.962-2.3L2.119 9.2z" mask="url(#d)"/></g><path fill="#E1000F" d="M14.344 72.144h5.568c-.061-1.21-.968-2.36-2.602-2.36-1.512 0-2.541.787-2.966 2.36m3.451 8.414c-4.419 0-6.902-3.088-6.902-6.658 0-3.692 2.3-6.719 6.356-6.719 3.45 0 5.69 2.3 5.69 5.568 0 .666-.123 1.331-.18 1.756h-8.595c.18 2.058 1.634 3.268 3.75 3.268 1.332 0 2.483-.605 3.15-1.454l2.238 1.756c-1.21 1.515-3.149 2.483-5.507 2.483m7.746-12.893h3.149v1.21c.785-.846 1.875-1.451 3.268-1.451q.633 0 1.087.18v3.268c-.363-.12-.785-.18-1.39-.18a3.5 3.5 0 0 0-2.965 1.573v7.748h-3.15V67.665zm11.258 0 3.207 8.836 3.21-8.836h3.386l-4.538 12.409H37.95l-4.48-12.409z"/><mask id="f" fill="#fff"><use xlink:href="#e"/></mask><path fill="#E1000F" d="M48.056 80.074h3.148V67.666h-3.148zm-.483-16.586c0-1.087.907-2.056 2.056-2.056 1.09 0 1.997.908 1.997 2.056 0 1.09-.907 2.058-1.997 2.058-1.149 0-2.056-.968-2.056-2.058m15.493 12.711 2.483 1.875c-1.151 1.515-2.968 2.483-5.268 2.483-4.297 0-6.838-3.088-6.838-6.658 0-3.631 2.541-6.719 6.838-6.719 2.242 0 4.056.969 5.268 2.483l-2.483 1.875c-.604-.846-1.512-1.453-2.785-1.453-2.056 0-3.51 1.575-3.51 3.753 0 2.18 1.513 3.754 3.571 3.754 1.151.06 2.12-.547 2.724-1.393m6.779-4.055h5.567c-.06-1.21-.968-2.36-2.602-2.36-1.512 0-2.54.787-2.965 2.36m3.51 8.414c-4.417 0-6.9-3.088-6.9-6.658 0-3.692 2.3-6.719 6.355-6.719 3.451 0 5.69 2.3 5.69 5.568 0 .666-.122 1.331-.183 1.756h-8.653c.18 2.058 1.634 3.268 3.751 3.268 1.332 0 2.483-.605 3.149-1.454l2.238 1.756c-1.21 1.515-3.146 2.483-5.448 2.483m8.656-4.178c.788.969 1.695 1.635 2.844 1.635.97 0 1.514-.544 1.514-1.271 0-2.18-5.75-1.27-5.75-5.75 0-2.178 1.817-3.812 4.419-3.812 1.936 0 3.631.907 4.538 2.116l-2.116 1.878c-.666-.787-1.454-1.453-2.422-1.453-.907 0-1.454.424-1.454 1.151 0 2.117 5.751 1.27 5.751 5.629-.061 2.602-2.12 4.053-4.48 4.053-2.239 0-3.812-.907-4.963-2.3l2.12-1.875z" mask="url(#f)"/><path fill="#000" d="m3.268 111.485.061-.242c-.968-.183-1.029-.183-.666-1.212l.364-1.03h1.029c.483 0 .483.184.422.728h.244l.605-1.695h-.242c-.244.424-.424.726-.91.726H3.146l.547-1.511c.18-.486.241-.547.907-.547h.424c.666 0 .727.183.727.849h.241l.242-1.151H2.36l-.061.122c.727.18.846.241.483 1.21l-.846 2.299c-.364.968-.486 1.03-1.393 1.212l-.061.242zm5.387-2.844c.12-.485.061-.849-.302-.849-.424 0-.546.303-.968 1.21v-.544c0-.363-.122-.727-.486-.727-.424 0-.726.605-1.029 1.213h.242c.183-.303.363-.425.485-.425.18 0 .241.241 0 .846l-.788 1.695c-.12.303 0 .547.303.547.183 0 .305-.061.363-.244l.727-1.998a8 8 0 0 1 .666-.724zm3.449-1.03H11.8l-.302.303h-.061c-1.634 0-3.027 1.815-3.027 3.146 0 .364.244.605.608.605.422 0 .846-.605 1.27-1.21v.242c-.06.666.12 1.029.483 1.029.425 0 .727-.605 1.03-1.21h-.242c-.18.303-.363.425-.485.425-.12 0-.242-.244 0-.849l1.029-2.48zm-2.966 2.905c0-.848.968-2.058 1.515-2.058.12 0 .241 0 .302.061l-.546 1.512c-.303.424-.846.849-1.027.849-.183 0-.244-.122-.244-.364m3.573-2.18h.666l-1.03 2.846c-.121.242.06.483.303.483.605 0 1.512-.605 1.875-1.39h-.18c-.244.302-.788.666-1.212.724l.968-2.663h.968l.122-.422h-.968l.363-1.029h-.363l-.666 1.03-.788.119v.302zm4.6 1.94h-.244c-.303.362-.605.665-.969.665-.302 0-.482-.183-.482-.666 0-.183 0-.363.06-.546l1.937-.666c.363-.907-.061-1.27-.605-1.27-.91 0-1.997 1.572-1.997 2.904 0 .607.302.968.724.968.546-.058 1.151-.544 1.576-1.39zm-.666-1.998c.241 0 .483.18.363.724l-1.212.305c.183-.608.546-1.03.849-1.03zm4.297.363c.12-.485.06-.849-.302-.849-.425 0-.547.303-.969 1.21v-.544c0-.363-.122-.727-.485-.727-.424 0-.727.605-1.03 1.213h.184c.18-.303.36-.425.483-.425.183 0 .24.241 0 .846l-.786 1.695c-.122.303 0 .547.303.547.18 0 .302-.061.36-.244l.727-1.998a8 8 0 0 1 .666-.724zm.06 2.42c-.121.302 0 .546.303.546.18 0 .303-.061.364-.244l.724-1.998c.363-.421 1.029-.846 1.331-.846.183 0 .183.18.061.425l-1.148 2.177c-.122.242.058.486.302.486.544 0 1.21-.486 1.512-1.213h-.18c-.183.244-.486.547-.788.605l.968-1.997a1.6 1.6 0 0 0 .183-.666c0-.302-.183-.544-.546-.544-.483 0-.968.544-1.573 1.21v-.544c0-.363-.122-.727-.486-.727-.18 0-.421.183-.604.425v.06c.363 0 .546.544.244 1.09l-.666 1.754zm6.173-4.298c.242 0 .486-.18.486-.483a.48.48 0 0 0-.486-.485.48.48 0 0 0-.485.485c.06.303.244.483.485.483m-.18 1.393c.058-.242-.122-.425-.244-.425-.544 0-1.21.486-1.512 1.213h.18c.183-.245.486-.547.788-.608l-1.09 2.785c-.12.242.122.425.241.425.547 0 1.152-.547 1.454-1.213h-.18c-.183.244-.486.547-.788.608zm.907.18h.605l-1.03 2.846c-.121.242.062.483.303.483.605 0 1.515-.605 1.875-1.39h-.18c-.241.302-.788.666-1.21.724l.969-2.663h.968l.12-.422h-.969l.363-1.029h-.363l-.666 1.03-.785.119zm4.175-.907 1.393-1.27v-.123h-.727l-.846 1.454h.18zm.425 2.846h-.242c-.302.363-.607.666-.968.666-.305 0-.485-.183-.485-.666 0-.183 0-.363.06-.546l1.937-.666c.363-.907-.061-1.27-.605-1.27-.907 0-1.997 1.572-1.997 2.904 0 .607.302.968.727.968.543-.058 1.087-.544 1.573-1.39m-.666-1.997c.241 0 .483.18.363.724l-1.212.305c.183-.608.546-1.03.849-1.03zM4.66 97.14l1.393-.968v-.122h-.849l-.785 1.09zm-.543 2.966c.482 0 .482.183.421.727h.244l.605-1.695h-.241c-.244.424-.425.726-.91.726h-1.03l.547-1.392c.18-.486.242-.544.907-.544h.425c.666 0 .727.18.727.846h.241l.241-1.148H2.361l-.061.241c.727.18.849.241.485 1.21l-.849 2.3c-.363.968-.482 1.029-1.392 1.212l-.059.241h4.356l.788-1.21h-.303c-.485.483-1.09.908-1.997.908-1.151 0-1.03-.061-.666-1.09l.425-1.15h1.029zm4.902 3.026c0-.424-.425-.604-1.03-.787-.543-.18-.846-.242-.846-.422 0-.122.12-.303.361-.425.91-.06 1.515-.907 1.515-1.573 0-.122 0-.302-.061-.363h.787l.12-.424h-1.27c-.12-.122-.303-.122-.484-.122-.968 0-1.634.848-1.634 1.575 0 .544.361.846.725.968q-.725.27-.725.725 0 .275.18.363c-1.028.305-1.453.666-1.453 1.151 0 .483.666.666 1.393.666 1.392-.061 2.422-.727 2.422-1.332m-1.515-1.936c-.241 0-.302-.183-.302-.424 0-.605.363-1.573.848-1.573.242 0 .303.18.303.424 0 .666-.303 1.573-.849 1.573m-1.45 2.3c0-.364.362-.605.845-.788.183.061.425.183.788.302.544.183.727.244.727.425 0 .363-.605.605-1.393.605-.666-.061-.968-.18-.968-.544zm7.2-4.722h-.302l-.302.303h-.061c-1.634 0-3.027 1.817-3.027 3.148 0 .364.242.605.605.605.425 0 .849-.605 1.273-1.21v.242c-.06.666.12 1.029.483 1.029.424 0 .727-.607 1.03-1.212h-.181c-.183.302-.364.424-.486.424s-.24-.241 0-.846l.969-2.483zm-2.965 2.905c0-.846.968-2.056 1.512-2.056.122 0 .244 0 .305.058l-.546 1.515c-.303.424-.846.846-1.03.846-.18 0-.24-.06-.24-.363zm3.692.485 1.998-5.146-.061-.058-1.21.12v.121l.242.18c.241.184.122.303-.061.85l-1.512 4.053c-.122.244.06.485.302.485.544 0 1.149-.485 1.451-1.21h-.18c-.303.303-.666.544-.969.605m3.754-4.236a.48.48 0 0 0 .483-.485.476.476 0 0 0-.483-.483.476.476 0 0 0-.486.483c.061.302.242.485.486.485m-.183 1.451c.06-.241-.12-.422-.242-.422-.543 0-1.21.483-1.514 1.21h.183c.18-.242.483-.544.788-.605l-1.09 2.783c-.123.244.119.424.24.424.545 0 1.152-.544 1.454-1.21h-.183c-.18.242-.482.544-.785.605zm.907.122h.666l-1.027 2.844c-.122.244.058.485.303.485.604 0 1.511-.605 1.875-1.393h-.242c-.244.303-.787.666-1.212.727l.968-2.663h.969l.122-.424h-.969l.364-1.03h-.364l-.665 1.03-.788.122zm4.178-.907 1.392-1.273v-.12h-.727l-.848 1.451h.183zm.424 2.843h-.244c-.302.364-.605.666-.968.666-.303 0-.483-.18-.483-.666 0-.18 0-.363.058-.543l1.94-.666c.363-.91-.062-1.27-.608-1.27-.907 0-1.997 1.572-1.997 2.904 0 .605.305.968.726.968.547-.061 1.09-.546 1.576-1.393m-.666-1.936c.242 0 .483.18.361.727l-1.21.302c.183-.666.544-1.029.85-1.029zM4.902 88.667h-2.54l-.062.241c.727.184.846.245.483 1.213l-.846 2.3c-.364.968-.486 1.029-1.393 1.209l-.06.18h3.933l.849-1.512h-.303c-.485.544-1.029 1.21-1.936 1.21-.666 0-.727-.12-.363-1.088l.846-2.3c.363-.967.485-1.028 1.392-1.212v-.24zm2.844.486a.48.48 0 0 0 .485-.486.48.48 0 0 0-.485-.485.48.48 0 0 0-.483.485c.061.241.242.486.483.486m-.18 1.39c.06-.242-.122-.422-.242-.422-.546 0-1.212.482-1.514 1.21h.183c.18-.242.482-.545.785-.606L5.69 93.508c-.122.244.12.424.242.424.543 0 1.148-.543 1.453-1.21h-.183c-.18.242-.483.545-.788.606l1.152-2.786zm3.872.363c0-.544-.18-.785-.605-.785-.482 0-.968.543-1.45 1.148l1.148-3.087-.061-.059-1.21.12v.122l.242.18c.241.183.122.363-.061.849l-1.27 3.268c-.12.241-.181.544-.181.605 0 .363.483.665.846.665.968.061 2.602-1.695 2.602-3.026M9.2 93.389c-.18 0-.482-.183-.482-.303q-.002-.092.18-.546l.302-.846c.364-.425.847-.85 1.152-.85.18 0 .302.123.302.364.061.788-.666 2.18-1.454 2.18zm4.783-.788h-.244c-.302.363-.605.666-.968.666-.303 0-.483-.18-.483-.666 0-.18 0-.364.061-.544l1.936-.666c.364-.907-.06-1.27-.604-1.27-.91 0-1.998 1.573-1.998 2.904 0 .605.303.968.724.968.547 0 1.09-.543 1.576-1.392m-.666-1.937c.242 0 .483.18.364.727l-1.213.303c.183-.605.547-1.03.85-1.03zm4.297.303c.12-.483.061-.846-.302-.846-.425 0-.547.302-.968 1.21v-.545c0-.363-.122-.726-.486-.726-.424 0-.726.604-1.029 1.21h.183c.18-.303.36-.425.483-.425.183 0 .241.244 0 .849l-.788 1.695c-.12.302 0 .543.305.543.18 0 .303-.06.36-.241l.728-1.997c.183-.242.424-.486.665-.727h.85zm.544-.303h.544l-1.027 2.844c-.122.244.059.485.303.485.604 0 1.512-.604 1.875-1.392h-.18c-.244.302-.788.666-1.213.727l.969-2.664h.968l.122-.424h-.968l.363-1.03h-.363l-.666 1.03-.666.122v.302zm4.056-.907 1.392-1.27v-.122h-.726l-.85 1.453h.184v-.06zm.363 2.844h-.244c-.302.363-.605.666-.968.666-.302 0-.483-.18-.483-.666 0-.18 0-.364.061-.544l1.937-.666c.363-.907-.061-1.27-.605-1.27-.91 0-1.998 1.573-1.998 2.904 0 .605.303.968.727.968.544 0 1.149-.543 1.573-1.392m-.666-1.937c.242 0 .483.18.364.727l-1.212.303c.183-.605.546-1.03.848-1.03" mask="url(#f)"/><path fill="#000091" d="M1.029 40.369h10.048v2.965H4.538v3.995h5.57v2.965h-5.57v7.263h-3.51zm12.165 4.841h3.149v1.21c.785-.846 1.875-1.45 3.268-1.45q.633 0 1.087.18v3.268c-.363-.12-.785-.18-1.39-.18a3.5 3.5 0 0 0-2.965 1.572v7.748h-3.149zm13.618 10.35c1.393 0 2.422-.727 3.027-1.756V52.11l-2.905.547c-1.331.241-1.817.785-1.817 1.573s.666 1.331 1.695 1.331m-4.782-1.21c0-1.877 1.453-3.328 4.116-3.814l3.754-.665v-.303c0-1.331-.968-2.12-2.361-2.12-1.212 0-2.239.547-2.785 1.454l-2.3-1.756c1.09-1.512 2.966-2.48 5.204-2.48 3.573 0 5.449 2.117 5.449 4.841v7.99H29.96v-1.149c-.85 1.088-2.303 1.753-3.754 1.753-2.482 0-4.177-1.45-4.177-3.75m13.983-9.142h3.148v.969c.847-.846 1.995-1.454 3.69-1.454 2.663 0 4.844 1.817 4.844 5.51v7.384h-3.149v-7.265c0-1.634-.907-2.66-2.419-2.66-1.576 0-2.422 1.026-2.907 1.814v8.111h-3.146V45.211zm23.362 8.474 2.483 1.875c-1.151 1.515-2.968 2.483-5.268 2.483-4.297 0-6.838-3.087-6.838-6.658 0-3.63 2.541-6.718 6.838-6.718 2.242 0 4.056.968 5.268 2.482l-2.483 1.937c-.605-.85-1.512-1.454-2.785-1.454-2.056 0-3.51 1.573-3.51 3.753 0 2.178 1.513 3.754 3.571 3.754 1.151 0 2.12-.608 2.724-1.454m6.779-3.994h5.568c-.061-1.21-.968-2.361-2.602-2.361-1.512 0-2.542.726-2.966 2.36m3.451 8.414c-4.42 0-6.902-3.087-6.902-6.658 0-3.692 2.3-6.718 6.356-6.718 3.45 0 5.69 2.3 5.69 5.567 0 .666-.123 1.332-.181 1.756h-8.655c.18 2.058 1.634 3.268 3.75 3.268 1.332 0 2.483-.605 3.149-1.454l2.239 1.756c-1.149 1.515-3.085 2.483-5.446 2.483" mask="url(#f)"/></g></g></svg>