<svg xmlns="http://www.w3.org/2000/svg" xml:space="preserve" viewBox="0 0 80.1 79.9"><style>.st15{fill:#fff}.st16{fill:#1e1e1e}.st17{fill:#e20e18}.st18{fill:#253574}.st19{fill:#ffe910}.st20{fill:#1f356c}</style><g id="Calque_2"><path d="M-607.1-244.9h53.1v19.3h-53.1zM-28 22.5h-34v34h34zM-189.2 45h-3.8v11.5h-2.8V45h-3.8v-2.7h10.4zm10.4 8.9v2.7h-8.7V42.4h8.7V45h-5.9v3h5.4v2.6h-5.4v3.2c.1.1 5.9.1 5.9.1m7.2-2.3h-2.1v4.9h-2.8V42.4h5.7q.9 0 1.8.3c.9.3 1.1.6 1.5 1s.8 1 1 1.5q.3.9.3 1.8c0 .9-.3 1.7-.8 2.5-.5.7-1.2 1.3-2 1.7l3.1 5.3h-3zm-2.1-2.4h2.9c.5 0 1-.3 1.4-.7.3-.4.6-.9.6-1.4s-.2-1-.6-1.4c-.3-.4-.8-.6-1.4-.7h-2.9zm14.7 2.4h-2.1v4.9h-2.8V42.4h5.7q.9 0 1.8.3c.9.3 1.1.6 1.5 1s.8 1 1 1.5.3 1.2.3 1.8c0 .9-.3 1.7-.8 2.5-.5.7-1.2 1.3-2 1.7l3.1 5.3h-3zm-2.1-2.4h2.9c.5 0 1-.3 1.4-.7.3-.4.6-.9.6-1.4s-.2-1-.6-1.4c-.3-.4-.8-.6-1.4-.7h-2.9zm12.7-6.8v14.1h-2.8V42.4zm12.2 2.6h-3.8v11.5h-2.8V45h-3.8v-2.7h10.4zm.3 4.4c0-1.4.4-2.9 1.3-4.1q1.2-1.8 3.3-2.7c1.3-.6 2.8-.7 4.2-.4s2.7 1 3.8 2c1 1 1.7 2.3 2 3.8.3 1.4.2 2.9-.4 4.2s-1.5 2.5-2.7 3.3-2.6 1.2-4.1 1.2c-1 0-1.9-.2-2.8-.5-.9-.4-1.7-.9-2.4-1.6s-1.2-1.5-1.6-2.4c-.5-.8-.7-1.8-.6-2.8m11.9 0c0-2.7-2-4.7-4.6-4.7-.9 0-1.8.2-2.6.8q-1.2.75-1.8 2.1c-.4.8-.5 1.8-.3 2.7s.6 1.8 1.3 2.4c.6.6 1.5 1.1 2.4 1.3q1.35.3 2.7-.3c.8-.3 1.6-1 2.1-1.7s.8-1.6.8-2.6m7.7-7v14.1h-2.8V42.4zm7.8 9.2h-2.1v4.9h-2.8V42.4h5.7q.9 0 1.8.3c.6.2 1.1.6 1.5 1s.8 1 1 1.5q.3.9.3 1.8c0 .9-.3 1.7-.8 2.5-.5.7-1.2 1.3-2 1.7l3.1 5.3h-3zm-2.1-2.4h2.9c.5 0 1-.3 1.4-.7.3-.4.6-.9.6-1.4s-.2-1-.6-1.4c-.3-.4-.8-.6-1.4-.7h-2.9zm18.4 4.7v2.7h-8.7V42.4h8.7V45H-98v3h5.3v2.6H-98v3.2c0 .1 5.8.1 5.8.1m1.6-.6 2.4-1.4c.5 1.3 1.5 2.2 3.2 2.2s2.2-.7 2.2-1.5c0-1.1-1-1.4-3.1-2.1-2.2-.6-4.3-1.5-4.3-4.2s2.2-4.2 4.7-4.2c1.1 0 2.1.3 3 .8s1.6 1.4 2.1 2.4l-2.4 1.4c-.5-1.1-1.3-1.8-2.7-1.8-1.2 0-1.9.6-1.9 1.4 0 .9.5 1.3 2.7 2s4.7 1.4 4.7 4.4c0 2.6-2.1 4.3-5.1 4.3-2.9-.2-4.8-1.6-5.5-3.7m-12.3-31.2v14h-1v-2.3c-.4.8-1 1.4-1.8 1.9s-1.6.7-2.5.6c-1.4 0-2.7-.5-3.7-1.5s-1.5-2.3-1.5-3.7.5-2.7 1.5-3.7 2.3-1.5 3.7-1.5c.9 0 1.8.2 2.5.6.8.5 1.4 1.1 1.8 1.9v-6.3zm-1 9c0-.8-.3-1.6-.7-2.3-.5-.7-1.1-1.2-1.9-1.6-.8-.3-1.6-.4-2.4-.2s-1.6.6-2.2 1.1c-.6.6-1 1.3-1.1 2.2-.2.8-.1 1.7.2 2.4.3.8.9 1.4 1.6 1.9s1.5.7 2.4.7c.6 0 1.1-.1 1.6-.3s1-.5 1.4-.9.7-.9.9-1.4c.1-.5.2-1 .2-1.6m14.2 0v.5h-9c.2 2.3 1.9 3.7 4.2 3.7 1.6 0 2.9-.8 3.4-1.8l.9.5c-.8 1.3-2.4 2.2-4.3 2.2-3.1 0-5.2-2.2-5.2-5.2 0-2.9 2.1-5.2 5.1-5.2 3 .1 4.9 2.6 4.9 5.3m-9.1-.4h8c-.2-2.4-1.9-3.8-3.9-3.8-1 0-2.1.3-2.8 1.1-.8.6-1.2 1.6-1.3 2.7m18.7 2.8c0 1.6-1.4 2.8-3.6 2.8-2 0-3.3-1-3.8-2.2l.8-.5c.4 1.1 1.4 1.8 2.9 1.8 1.4 0 2.6-.6 2.6-1.9 0-2.7-6-1.1-6-4.7 0-1.6 1.4-2.8 3.4-2.8 1.6 0 2.9.8 3.4 2l-.8.5c-.4-1-1.4-1.5-2.6-1.5-1.3 0-2.4.7-2.4 1.9.1 2.5 6.1.9 6.1 4.6m-108.3-1.2c0 .5-.1 1-.3 1.4-.2.5-.5.9-.8 1.2s-.8.6-1.2.8-1 .3-1.4.3h-6V22.2h5.6c1 0 1.9.4 2.6 1.1s1.1 1.6 1.1 2.6c0 .6-.2 1.2-.5 1.8-.3.5-.8 1-1.3 1.3.7.3 1.3.7 1.7 1.3.2.5.5 1.2.5 2m-8.8-9.1v5.3h4.5a2.73 2.73 0 0 0 2.7-2.7 2.73 2.73 0 0 0-2.7-2.7zm7.7 9.1c0-.4-.1-.7-.2-1.1s-.3-.6-.6-.9q-.45-.45-.9-.6c-.3-.2-.7-.2-1.1-.2h-5v5.6h5c.4 0 .7-.1 1.1-.2.3-.2.6-.3.9-.6q.45-.45.6-.9c.2-.4.2-.7.2-1.1m12 .2h-7l-1.3 3.5h-1.1l5.4-13.9h1.1L-175 36h-1.1zm-.3-1-3.1-8.1-3.1 8.1zm15.4-9.3v13.9h-1l-8.2-12v12h-1.1V22.2h.9l8.2 12v-12zm20.3 9.2v-9.3h1.1v9.3c0 2.2 1.4 3.9 4 3.9s4-1.6 4-3.9v-9.3h1.1v9.3c0 2.9-2.1 4.9-5.1 4.9s-5.1-1.9-5.1-4.9m21.8 3.7v1h-7.9V22.2h7.9v1h-6.9v5.4h6.4v1h-6.4v5.5zm-24.6-6c0-1.6-.5-3.1-1.5-4.3-1-1.3-2.3-2.1-3.8-2.6-1.5-.4-3.1-.3-4.6.3-1.4.6-2.7 1.6-3.5 3-.8 1.3-1.1 2.9-1 4.5.2 1.6.8 3 1.9 4.2 1.1 1.1 2.5 1.9 4 2.1 1.6.3 3.1 0 4.5-.8l-.8-.8c-.8.4-1.7.6-2.6.6-1.2 0-2.4-.3-3.4-1s-1.8-1.6-2.3-2.7-.6-2.4-.3-3.5c.2-1.2.8-2.3 1.7-3.2s1.9-1.4 3.2-1.7c1.2-.2 2.4-.1 3.5.3 1.1.5 2.1 1.3 2.8 2.3s1 2.2 1 3.4c0 .8-.2 1.6-.5 2.4s-.8 1.4-1.4 2l-3.2-3.1-.7.6 6.5 6.4.7-.6-2.6-2.6c.7-.7 1.3-1.5 1.6-2.4.6-.9.8-1.8.8-2.8m-97.8 24.8-4.6-2.6V27.6l11.7-6.5 4.7 2.6-11.8 6.6zm28.4-7.9 4.6-2.6V27.6l-18.8-10.5-4.7 2.7 18.9 10.5zm-14.2 15.8 18.8-10.5V46l-18.8 10.5-11.8-6.6v5.3zM-70 22.5h-.5v34h.5z" class="st15"/><path d="M-57.6 40.9c-.8 0-1.1.6-1.1 1.4 0 .7.3 1.4 1.1 1.4.1 0 .2 0 .3-.1.1 0 .2-.1.3-.2s.2-.2.2-.3.1-.2.1-.3h.9c0 .2 0 .5-.2.6-.1.2-.2.4-.4.5-.2.2-.3.3-.6.3-.2.1-.5.1-.6.1-1.3 0-2-.9-2-2.1 0-1.3.8-2.2 2-2.2.4 0 .8.1 1.2.4.3.3.5.6.6 1.1h-.9c0-.2-.2-.4-.3-.5-.2-.1-.4-.1-.6-.1m4.8 2.7v-1.5c0-.8-.8-.8-1.3-.8-.6 0-1.3.2-1.4 1h.8c0-.3.2-.5.5-.5s.5.1.5.4q0 .3-.6.3h-.4c-.5.1-1 .2-1 .9 0 .6.4.9 1 .9.2 0 .3 0 .5-.1s.3-.2.5-.3c0 .1 0 .2.1.3h.8zm-.8-.4v.3c0 .1-.1.2-.2.2-.1.1-.2.1-.2.2h-.3c-.3 0-.5-.1-.5-.4 0-.2.1-.4.5-.4h.2c.2 0 .3-.1.5-.2zm1.4-2.3v-.7h.8v.7zm.8.4v3h-.8v-3zm1.8 2.5c.2 0 .5-.1.5-.4v-.2c-.3-.3-1.2-.2-1.6-.6l-.2-.2v-.3c0-.6.4-1 1.3-1 .5 0 1.2.2 1.3 1h-.8c0-.3-.3-.4-.5-.4s-.5 0-.5.3.2.3.6.4l.3.1c.5.1.9.3.9.8 0 .6-.4 1-1.3 1-.7 0-1.4-.3-1.4-1h.8c-.1.4.2.5.6.5m-2.2 5.6c.2 0 .5-.1.5-.4v-.2c-.3-.3-1.2-.2-1.6-.6l-.2-.2v-.3c0-.6.4-1 1.3-1 .5 0 1.2.2 1.3 1h-.8c0-.3-.3-.4-.5-.4s-.5 0-.5.3.2.3.6.4l.3.1c.5.1.9.3.9.8s-.4 1-1.3 1c-.7 0-1.3-.3-1.4-1h.8c0 .3.3.5.6.5m19.9 0c.2 0 .5-.1.5-.4v-.2c-.3-.3-1.2-.2-1.6-.6l-.2-.2v-.3c0-.6.4-1 1.3-1 .5 0 1.2.2 1.3 1h-.8c0-.3-.3-.4-.5-.4s-.5 0-.5.3.2.3.6.4l.3.1c.5.1.9.3.9.8s-.4 1-1.3 1c-.7 0-1.3-.3-1.4-1h.8c0 .3.3.5.6.5m-14.8-5.6c.2 0 .5-.1.5-.4 0-.1 0-.1-.1-.2-.3-.3-1.2-.2-1.6-.6l-.2-.2v-.3c0-.6.4-1 1.3-1 .5 0 1.2.2 1.3 1h-.8c0-.3-.3-.4-.5-.4s-.5 0-.5.3.2.3.6.4l.3.1c.5.1.9.3.9.8 0 .6-.4 1-1.3 1-.7 0-1.3-.3-1.4-1h.8c.1.4.4.5.7.5m3.2 0c.1 0 .3 0 .4-.1l.3-.3h.7c-.1.3-.3.6-.5.8-.3.2-.6.3-.9.2-.2 0-.4 0-.6-.1s-.3-.2-.5-.3c-.2-.2-.3-.3-.3-.5-.1-.2-.1-.4-.1-.6s0-.4.1-.6.2-.4.3-.5c.2-.2.3-.3.5-.3.2-.1.4-.1.6-.1 1.1 0 1.5.9 1.4 1.8h-2.1c0 .4.3.6.7.6m0-1.9h-.3c-.1 0-.2.1-.2.2l-.2.2v.3h1.3c-.1-.5-.2-.7-.6-.7m-11.3 7.4c.1 0 .3 0 .4-.1l.3-.3h.7c-.1.3-.3.6-.5.8-.3.2-.6.3-.9.2-.2 0-.4 0-.6-.1s-.3-.2-.5-.3c-.2-.2-.3-.3-.3-.5-.1-.2-.1-.4-.1-.6s0-.4.1-.6.2-.4.3-.5c.2-.2.3-.3.5-.3.2-.1.4-.1.6-.1 1.1 0 1.5.9 1.4 1.8h-2.1c0 .4.2.6.7.6m-.1-1.9h-.3c-.1 0-.2.1-.2.1l-.2.2v.3h1.3q0-.6-.6-.6m-2.5 2.1c-.1.2-.2.3-.4.3-.2.1-.3.1-.5.1-.9 0-1.3-.8-1.3-1.6s.5-1.5 1.3-1.5c.2 0 .3 0 .5.1s.3.2.4.3v-1.5h.8v4.1h-.8zm-.7-2.1c-.5 0-.7.4-.7 1 0 .5.2 1 .7 1s.7-.5.7-1-.2-1-.7-1m10.9-1.6c1 0 1.8.6 1.8 2 0 1.2-.6 2.1-1.8 2.1H-49v-4.1zm0 3.3c.6 0 1-.4 1-1.2s-.2-1.3-1.2-1.3h-.6v2.6zm3.7.2c.1 0 .3 0 .4-.1l.3-.3h.7c-.1.3-.3.6-.5.8-.3.2-.6.3-.9.2-.2 0-.4 0-.6-.1s-.3-.2-.5-.3c-.2-.2-.3-.3-.3-.5-.1-.2-.1-.4-.1-.6s0-.4.1-.6.2-.4.3-.5c.2-.2.3-.3.5-.3s.4-.1.6-.1c1.1 0 1.5.9 1.4 1.8h-2.1c0 .4.3.6.7.6m0-1.9h-.3c-.1 0-.2.1-.2.1l-.2.2v.3h1.3c-.1-.4-.2-.6-.6-.6m.1-2-.6 1h.6l.9-1zm2.4 1.5v.4c.1-.2.2-.3.4-.3.2-.1.3-.1.5-.1 1 0 1.3.8 1.3 1.6s-.4 1.5-1.3 1.5c-.2 0-.3 0-.5-.1s-.3-.2-.4-.3V51h-.8v-4zm1.4 1.5c0-.5-.2-1-.7-1s-.7.4-.7 1c0 .5.2 1 .7 1 .5-.1.7-.5.7-1m2.7-1.6c.3 0 .6.1.9.2.3.2.5.4.6.7s.2.6.1.9c0 .3-.2.6-.4.8s-.5.4-.8.5-.6 0-.9-.1-.5-.3-.7-.6-.3-.6-.3-.9c0-.2 0-.4.1-.6s.2-.4.3-.5c.2-.2.3-.3.5-.3.1-.1.3-.1.6-.1m.3-1.1.6.8h-.6l-.4-.5-.4.5h-.6l.6-.8zm-.3 3.6c.5 0 .7-.5.7-1s-.2-1-.7-1-.7.4-.7 1 .1 1 .7 1m3.5-2.4v.5h-.6v1.4c0 .3.1.3.3.3h.3v.6h-.5c-.5 0-.9-.1-.9-.7v-1.8h-.6v-.5h.5V46h.8v.9zm-26.1 6c0-.2 0-.3.1-.4 0-.2.1-.3.2-.4s.2-.2.3-.2c.2 0 .3-.1.4-.1.3 0 .6.1.8.3l-.2.3c-.1-.1-.2-.2-.3-.2s-.2-.1-.3 0c-.1 0-.2 0-.3.1-.1 0-.2.1-.2.2-.1.1-.1.2-.2.2v.6c0 .1.1.2.2.3s.2.1.2.2c.1 0 .2.1.3.1.2 0 .4 0 .5-.2v-.4h-.5V53h.9v.9c-.2.2-.6.3-.9.3-.2 0-.3 0-.4-.1-.2 0-.3-.2-.3-.2-.1-.1-.2-.2-.2-.3-.1-.4-.1-.5-.1-.7m3-1.1h1.3c.1 0 .2.1.3.2s.2.3.2.5 0 .3-.2.4c-.1.1-.2.2-.4.2l.6.8h-.5l-.5-.8h-.5v.9h-.4zm.9 1.1c.3 0 .5-.2.5-.4s-.2-.4-.5-.4h-.5v.7zm1.6 0c0-.3.2-.6.3-.8s.5-.3.8-.3.6.1.8.3.3.5.3.8c0 .2 0 .3-.1.4 0 .2-.2.3-.2.4-.1.1-.2.2-.4.2s-.3.1-.4.1c-.2 0-.3 0-.4-.1-.2 0-.3-.2-.4-.2-.1-.1-.2-.2-.2-.4-.1-.1-.1-.2-.1-.4m1.9 0v-.3c0-.1-.1-.2-.2-.3s-.2-.1-.2-.2c-.1 0-.2-.1-.3-.1s-.2 0-.3.1c-.1 0-.2.1-.2.2-.1.1-.1.2-.2.3v.6c0 .1.1.2.2.3s.2.1.2.2c.1 0 .2.1.3.1s.2 0 .3-.1c.1 0 .2-.1.2-.2.1-.1.1-.2.2-.3-.1-.1 0-.2 0-.3m1.1.2v-1.2h.4v1.2c0 .4.2.6.5.6s.5-.2.5-.6v-1.3h.4v1.6c0 .1-.1.2-.2.3s-.2.2-.3.2-.3.1-.4 0c-.1 0-.3 0-.4-.1-.1 0-.2-.1-.3-.2s-.2-.2-.2-.3zm2.8-1.3h1.1c.1 0 .2.1.3.2s.2.2.2.3.1.2.1.3 0 .2-.1.3c0 .1-.1.2-.2.3s-.2.1-.3.2h-.7v.6h-.4zm.8 1.1c.3 0 .5-.2.5-.4 0-.3-.2-.4-.5-.4h-.4v.8zm1.6-1.1h1.6v.3h-1.2v.6h1.1v.3h-1.1v.6h1.2v.4h-1.6zm8.8-18c.1.2.2.3.4.4q.3-.15.6 0c-.3-.3-.6-.5-.8-.9-.2-.2-.3-.4-.4-.6-.2-.4-.4-.7-.6-1-.1-.1-.2-.2-.3-.2-.1-.1-.2-.1-.3-.1h-.4c-.1 0-.2.1-.3.2l.2.2c.1 0 .2.1.3.1h.3c.1 0 .2-.1.2-.2.3.2.5.5.6.8 0 .1.1.2.2.4-.1-.1-.3-.2-.5-.1-.2 0-.3.1-.4.2 0 0 .1 0 .2.1h.2s.1 0 .2-.1l.1-.1h.1c.3.2.3.4.5.6-.1 0-.2.1-.3.2h.3c-.1 0-.2 0-.1.1" class="st16"/><path d="M-37.8 28v.6c-.1.2-.3.4-.5.5-.3-.3-.7-.1-.9.1.2.1.4.2.6.1.2 0 .4-.2.6-.3 0 .2-.1.4-.1.5 0 0-.1 0-.2-.1h-.2c.1 0 .2.1.2.2.1.1.1.2.1.3v.2c-.1-.2-.3-.2-.5-.3s-.5 0-.7.1c.1.2.3.2.4.3.2 0 .3 0 .5-.1l.2.2c0 .1.1.2.1.3 0 .2 0 .3-.1.4s-.2.2-.3.2h.3c.1 0 .2 0 .2-.1v.4c.2.1.3.3.4.4-.2-.5-.2-1.1-.2-1.6s.1-1 .2-1.5c.1-.2.1-.5 0-.7 0-.2-.1-.4-.3-.5-.2-.2-.3-.2-.6-.2.2.2.4.6.8.6m.3-.2v.3c0-.2.1-.3.2-.4.5-1 .3-1.5-.3-1.8 0 .1-.1.2-.1.3v.3c0 .1.1.2.2.3s.2.1.3.2c0 .3-.1.5-.3.8" class="st16"/><path d="M-37.6 27.3v-.2c0-.1 0-.1-.1-.2 0 0-.1-.1-.2-.1h-.2v.2c0 .1 0 .1.1.2 0 0 .1.1.2.1zm3.1 9-.5-.3c0 .1.1.2.1.3s0 .2-.1.3zm.1.1-.3.5c.1 0 .2-.1.3-.1s.2 0 .3.1zm.1-.1.5.3q-.15-.3 0-.6zm-.4-.6.3.5.3-.5c-.1 0-.2.1-.3.1s-.2 0-.3-.1m-2.2-1.4c-.1-.1-.2-.1-.3-.2 0-.2-.3-.4-.7-.3 0 .1.1.2.2.2.1.1.2.1.2.1-.2.2-.4.3-.5.6.2 0 .5 0 .6-.1.2 0 .4-.2.5-.3m-.8-1.1h-.5c-.2 0-.3.2-.3.3.3.1.7 0 .8-.3m-.6-.9c.1-.2-.1-.4-.5-.4 0 .1 0 .2.1.2-.2.1-.3.2-.5.3.2.1.3.1.5.1s.3 0 .4-.2m0-4.1c0-.1-.1-.1-.1-.2.1-.2-.1-.3-.3-.4v.2s0 .1.1.2c-.2 0-.3.1-.5.2.1.1.3.1.4.1s.3 0 .4-.1m2.3 7.5s-.1-.1-.2-.1h-.4l-.1.1s.1.1.2.1h.4zm-2.2-7.1s-.1-.1-.2-.1h-.4l-.1.1s.1.1.2.1h.4c.1 0 .1-.1.1-.1m-.7 2.4h.4s.1 0 .1-.1l.1-.1h-.4s-.1 0-.1.1c0 0-.1 0-.1.1" class="st16"/><path d="M-38.5 34.2s.1.1.2.1h.4l.1-.1s-.1-.1-.2-.1h-.4s0 .1-.1.1m1.7.8h-.4s-.1 0-.2.1c0 0-.1.1-.1.2h.4s.1 0 .2-.1.1-.2.1-.2m-1.6-1.9-.1-.1h-.4s-.1 0-.1.1c.1.1.2.1.3.1s.2 0 .3-.1m-.2-2.6c0-.1-.1-.1-.2-.2h-.4c-.1 0-.1.1-.2.2 0 0 .1.1.2.1h.4s.1 0 .2-.1m4.6 4.7V35l-.3-.3h-.2c-.2.2-.3.2-.3.3v.3c0 .1 0 0 0 0 .8 0 .8-.1.8-.1" class="st16"/><path d="M-35.5 34.5c-.3-.2-.8-.3-1.2-.1-.1 0-.1.1-.2.2 0 .1-.1.2-.1.2.2-.3.8-.3 1 .1 0 .1 0 .3-.1.4v-.2c0-.1 0-.1-.1-.2 0 0-.1-.1-.2-.1h-.2v.2c0 .1 0 .2.1.2h-.3c0 .1.1.1.2.2.1 0 .2 0 .2.1h.2c.1 0 .2-.1.2-.1 0 .2.1.4.3.5-.1 0-.2.1-.3.2s-.2.2-.2.3c1 0 .8-.4.8-.6-.6.2-.5-.4-.5-.8l.4.2c0 .1-.1.2-.2.2.3 0 .4-.1.9-.5-.2-.2-.5-.3-.7-.4m4.7-2.8c-.3.3-.5.6-.6 1-.1.2-.2.4-.4.6-.2.3-.5.6-.8.9h.6c.1-.1.2-.3.3-.4 0-.1.2-.2.3-.2h.3c-.1-.1-.2-.2-.3-.2.2-.2.2-.5.5-.6h.1l.1.1s.1 0 .2.1h.2s.1 0 .2-.1c-.1-.1-.2-.2-.4-.2s-.3 0-.5.1c0-.1.1-.2.2-.4.1-.3.3-.6.6-.8.1.1.2.1.2.2h.3c.1 0 .2 0 .3-.1.1 0 .2-.1.2-.2-.1-.1-.2-.2-.3-.2h-.4c-.1 0-.2 0-.3.1q-.6.15-.6.3m-.4-3.6v.7c.1.5.2 1 .2 1.5s-.1 1.1-.2 1.6c.1-.2.3-.3.4-.4v-.4c.1 0 .2.1.2.1h.3c-.2 0-.3-.1-.3-.2-.1-.1-.1-.3-.1-.4s0-.2.1-.3c0-.1.1-.2.2-.2.2.1.3.2.5.1.2 0 .3-.1.4-.3-.2-.1-.5-.1-.7-.1s-.3.2-.5.3v-.4s0-.1.1-.1l.1-.1h.2-.2c-.1 0-.1 0-.2.1 0-.2-.1-.4-.1-.5.2.2.3.3.6.3.2 0 .5 0 .6-.1-.2-.2-.6-.4-.9-.1-.2-.1-.4-.3-.5-.5q-.15-.3 0-.6c.5.1.6-.4.7-.6-.2 0-.4.1-.5.2-.3 0-.4.1-.4.4m-.3-.3c.1.1.1.3.2.4 0-.1 0-.2.1-.3l-.1-.1c-.1-.2-.2-.5-.3-.7.1 0 .2-.1.2-.2.1-.1.1-.2.2-.2v-.3c0-.1 0-.2-.1-.3-.5.2-.7.7-.2 1.7m.3-.5h.2s.1-.1.2-.1c0 0 .1-.1.1-.2v-.2h-.2s-.1.1-.2.1c0 0-.1.1-.1.2z" class="st16"/><path d="M-30.9 33.8c-.5 0-.7 0-.7.3-.1 0-.2.1-.3.2.1.2.3.3.5.4s.4.1.6.1c-.1-.2-.3-.4-.5-.6.1 0 .2-.1.2-.1 0-.1.2-.2.2-.3m-.2-.6c0 .3.5.5.8.3l-.3-.3zm.9-1s.1-.1.1-.2c-.4 0-.6.1-.5.4.1.1.3.2.4.2.2 0 .3 0 .5-.1-.1-.2-.3-.3-.5-.3m.2-4.5c-.3.1-.4.2-.3.4 0 0-.1.1-.1.2.1.1.3.1.4.1.2 0 .3 0 .4-.1-.1-.1-.3-.2-.5-.2 0 0 .1-.1.1-.2zm-2.2 8.1-.1-.1h-.4s-.1 0-.2.1l.1.1h.4c.1-.1.2-.1.2-.1m1.6-7.2.1.1h.4s.1 0 .2-.1l-.1-.1h-.4c-.1.1-.2.1-.2.1m.7 2.4s0-.1-.1-.1l-.1-.1h-.4s0 .1.1.1l.1.1z" class="st16"/><path d="m-30.3 34.2-.1-.1h-.4s-.1 0-.2.1l.1.1h.4c.1 0 .1 0 .2-.1m-1.7.8s0 .1.1.2c0 0 .1.1.2.1h.4s0-.1-.1-.2c0 0-.1-.1-.2-.1h-.2c-.1-.1-.2-.1-.2 0m2.1-1.9-.1-.1h-.4s-.1 0-.1.1c.1.1.2.1.2.1.3 0 .3 0 .4-.1m-.3-2.6s.1.1.2.1h.4c.1 0 .1-.1.2-.1 0-.1-.1-.1-.2-.2h-.4z" class="st16"/><path d="M-31.8 34.7c0-.1 0-.2-.1-.2 0-.1-.1-.1-.2-.2-.3-.2-.9 0-1.2.1s-.5.2-.8.2c.5.4.6.5.9.5-.1-.1-.1-.2-.2-.2.1 0 .2-.1.4-.2 0 .4.1.9-.5.8-.1.2-.2.6.8.6 0-.1-.1-.2-.2-.3s-.2-.2-.3-.2c.2-.1.3-.3.3-.5 0 .1.1.1.2.1h.2c.1 0 .2 0 .2-.1.1 0 .1-.1.2-.2h-.3c0-.1.1-.1.1-.2v-.2h-.2c-.1 0-.1.1-.2.1 0 0-.1.1-.1.2v.2c-.2-.1-.2-.3-.1-.4.3-.2.9-.1 1.1.1" class="st16"/><path d="M-31.3 30.3c0-2.3-1.4-4.2-3.1-4.2s-3.1 1.9-3.1 4.2 1.4 4.2 3.1 4.2c1.7-.1 3.1-1.9 3.1-4.2m-3.1 3.8c-1.5 0-2.8-1.8-2.8-3.9s1.3-3.9 2.8-3.9 2.8 1.8 2.8 3.9c0 2.2-1.3 3.9-2.8 3.9" class="st16"/><path d="M-34.4 26.7c-.3 0-.5.1-.8.2h1.5c-.2-.2-.4-.2-.7-.2m1.2.4h-2.3c-.1 0-.2.1-.2.2h2.7zm.4.4H-36l-.2.2h3.4c.1-.1 0-.2 0-.2m-4.1 2.9v.2h5v-.2zm1.3 3.1h2.3c.1 0 .2-.1.2-.2h-2.7c.1 0 .2.1.2.2m1.2.4c.3 0 .5-.1.8-.2h-1.5c.2.1.5.2.7.2m-1.4-6h-.5l-.1.2h.4zm2.9.2h.4l-.1-.2h-.4c.1.1.1.1.1.2m-3.2.2h-.4s0 .1-.1.2h.5zm3.4.2h.5c0-.1 0-.1-.1-.2h-.4zm-3.4.3-.5-.1v.2h.3c0-.1.1-.1.2-.1m3.4 0c.1 0 .2 0 .3.1h.3v-.2zm-3.9.3h-.2v.2h.2c-.1 0 0-.1 0-.2m4.5.2h.2v-.2h-.2zm-4.5.4v-.1h-.2v.2zm4.4 0h.2v-.2h-.2c.1.1 0 .1 0 .2m-1.3-1.8h-1.9s.1.1.1.2h1.6c.1-.1.2-.1.2-.2m-.2.4h-1.4v.2h1.3c.1-.1.1-.1.1-.2m-.1.5-1.3-.1v.1c.1 0 .2 0 .3.1h.7c.1-.1.3-.1.3-.1m-.5.5c0-.1 0-.1.1-.2h-.3v.2zm.1.4s0-.1-.1-.2h-.2c0 .1 0 .1-.1.2zm-.4 1.1h-2.2v.2h2.1c0-.1 0-.1.1-.2m.6.2h2.1v-.2h-2.2c0 .1 0 .1.1.2m-.9.2h-1.9v.2h1.8c.1-.1.1-.1.1-.2m1 .2h1.9v-.2h-1.9zm-1 .3-1.8-.1v.2h1.4c.2 0 .3-.1.4-.1m1 0c.1 0 .2 0 .3.1h1.4v-.2zq.15 0 0 0m-1.5.3h-1.1c0 .1 0 .1.1.2h1c-.1 0-.1-.1 0-.2m2.1.2h1s0-.1.1-.2h-1.1zm-1.8.5h.3v-.1h-.2c-.1 0-.1 0-.1.1m1.1 0h.3s0-.1-.1-.1h-.2zm-2.3-3h.3v-.1h-.1s-.1 0-.2.1c.1 0 0 0 0 0m1.3-.1h-.1v.1h.3s0-.1-.1-.1zm2.3 0h-.1v.1h.3s0-.1-.1-.1zm-1.1 0h-.1s0 .1-.1.1h.3v-.1zm-1.7 2.9h-.9c0 .1.1.1.1.2h.9c0-.1-.1-.2-.1-.2m2.1.2h.9l.1-.2h-.9s0 .1-.1.2" class="st16"/><path d="M-35 29.4h.2c.1 0 .1.1.2.2v-.4c0-.1-.1-.1-.2-.2s-.1 0-.2 0h-.2l-.2.2c.1-.2.2-.4.2-.6s0-.3-.1-.4l-.3-.3-.3.3c-.1.1-.1.3-.1.4 0 .2.1.4.2.6l-.2-.2h-.2c-.1 0-.2 0-.2.1-.1 0-.1.1-.2.2v.4c0-.1.1-.2.2-.2h.3c.1 0 .2.1.2.2s.1.2.1.2v.2c0 .1 0 .1-.1.2h.5s-.1-.1-.1-.2v-.4s0-.1.1-.1l.1-.1c.2-.1.2-.1.3-.1m-.6-1.3c.1.2.2.3.2.5s-.1.4-.2.5zm2.9 1.3c.1 0 .2 0 .2.1.1 0 .1.1.2.2v-.2c0-.1 0-.2-.1-.3s-.2-.1-.3-.1h-.2l-.2.2c.1-.2.2-.4.2-.6 0-.1.1-.2.1-.2v-.2c0-.1-.1-.2-.2-.2s-.2-.1-.2-.1c-.1 0-.2 0-.2.1-.1 0-.1.1-.2.2v.2c0 .1 0 .2.1.2 0 .2.1.4.2.6l-.2-.2h-.2c-.1 0-.2 0-.3.1s-.1.2-.1.3v.2c0-.1.1-.2.2-.2h.3c.1 0 .2.1.2.2s.1.2.1.2v.2c0 .1 0 .1-.1.2h.5s0-.1-.1-.2v-.2c0-.1 0-.2.1-.3 0-.2.1-.2.2-.2m-.5-1.3c.1.2.2.3.2.5s-.1.4-.2.5zm-1.2 2.8-.3.3c-.1.1-.1.3-.1.4 0 .2.1.4.2.6l-.2-.2h-.4c-.1 0-.1.1-.2.2 0 .1-.1.1-.1.2v.2c0-.1.1-.2.2-.2h.3c.1 0 .2.1.2.2s.1.2.1.2c0 .1 0 .3-.1.4h.5c-.1-.1-.1-.2-.1-.4 0-.1 0-.2.1-.3s.2-.1.3-.1.2 0 .2.1c.1 0 .1.1.2.2v-.2c0-.1 0-.2-.1-.2 0-.1-.1-.1-.2-.2h-.4l-.2.2c.1-.2.2-.4.2-.6.2-.4.1-.7-.1-.8m0 1.2v-1c.1.2.2.3.2.5 0 .1-.1.3-.2.5" class="st16"/><path d="M-34.8 32.9h-1.3c0 .1.1.1.2.2h1.1c-.1-.1 0-.2 0-.2m.9.1h1.1s.1-.1.1-.2H-34c0 .1 0 .2.1.2m-.2-9.7v-.2l-.1-.1h-.2s-.1 0-.2.1c0 0-.1.1-.1.2v.2s0 .1.1.1h.2c.1 0 .2 0 .2-.1s.1-.2.1-.2m0 2.3.2-.1-.1-.2h-.6l-.1.2.1.2.1-.1zm-1.1.1.1.1v-.2l-.2-.2-.6.2v.2l.2.2v-.1zm2 .2v.1l.2-.2v-.2l-.6-.2-.2.2v.2l.1-.1zM-36 30h-.9v.2h.8c.1-.1.1-.2.1-.2m3.3.1h.8v-.2h-.9c0 .1 0 .2.1.2m-1 0s.1-.1.1-.2h-1.5c0 .1 0 .1.1.2z" class="st16"/><path d="m-32.5 24.5-.7-.3-.2.3-.1.1h-.2s-.1 0-.1-.1v-.2l.1-.3-.7-.3-.7.3.1.3v.2l-.1.1h-.3v-.1l-.2-.3-.7.3.1.3v.2l-.1.1h-.2s-.1 0-.1-.1l-.2-.3-.5.2v-.1h-.3l.7 1.3c.1.2.2.5.1.8.2-.3.5-.5.8-.7l-.4-.3v.2l-.2.1-.2-.4c.6-.4 1.4-.7 2.1-.7V25l-.1-.1h-.2c-.7.1-1.4.3-1.9.7l-.3-.6.3-.1c0 .1.1.2.2.2h.3c.1 0 .2-.1.2-.2s.1-.2 0-.3l.4-.2c.2.3.4.3.5.2.1 0 .2-.1.2-.2v-.3l.2-.1c0 .2.1.5.2.7.1-.2.2-.5.2-.7l.2.1v.3c0 .1.1.2.2.2.2.1.4.1.5-.2l.4.2v.3c0 .1.1.2.2.2h.4s.1 0 .2-.1l.1-.1.3.1-.3.6c-.6-.4-1.3-.6-1.9-.7h-.2s-.1.1-.1.2c.8 0 1.5.3 2.1.7l-.2.4-.2-.1v-.2l-.4.3c.3.2.5.4.8.7 0-.3 0-.5.1-.8l.7-1.3h-.3v.1l-.5-.2-.2.3-.1.1h-.2s-.1 0-.1-.1v-.2zm-10.8 5.4v.1h.3v-.2h-.3c.1.1 0 .1 0 .1m-.2 1 .1.5h.1v-.2l.4-.1v.2h.1V31h.4v.3s-.1 0-.2.1h.3l-.1-.8c-.1 0-.1 0-.1.2l-.9.1c0 .1 0 0-.1 0m.5 1.9c.2.1.3.1.5 0 .1 0 .2 0 .2-.1.1 0 .1-.1.2-.2s.1-.3 0-.4c0-.1 0-.1-.1-.2l-.2-.2c-.2-.1-.3-.1-.5 0-.1 0-.2 0-.2.1-.1 0-.1.1-.2.2 0 .1 0 .1-.1.2v.2c0 .1 0 .1.1.2.2.1.3.1.3.2m-.1-.7c.1-.1.2-.2.3-.2h.4s.1 0 .1.1v.4c-.1.1-.2.2-.3.2h-.4s-.1 0-.1-.1c0 0 0-.1-.1-.1v-.2c.1 0 .1 0 .1-.1m1.2 1.1-.1-.5c-.1 0-.1.1 0 .2l-.8.3c-.1-.1-.1-.1-.2-.1l.2.4h.1v-.2l.7-.3c.1.1.1.1.1.2m.3 1.5h.2s.1 0 .1-.1v-.1c0-.1 0-.2-.1-.3 0 0 0-.1-.1-.1l-.1-.2-.1-.2c-.1 0 0 .1 0 .2l-.8.5c-.1-.1-.1-.1-.2-.1l.2.4h.1v-.2l.3-.2c0 .1.1.2.1.2.3.1.3.1.4.2m.1-.6s0 .1.1.1v.3c0 .1 0 0-.1 0h-.2s-.1 0-.1-.1c0 0-.1-.1-.1-.2zm.1 1.8h.3c.1 0 .2 0 .2-.1l.4-.3c.1.1.1.1.2 0l-.3-.4s0 .1.1.2l-.4.3c-.2.2-.3.2-.5 0-.1-.2-.1-.3.1-.5l.4-.3.1.1-.3-.4v.2l-.4.3s-.1.1-.1.2c0 0-.1.1-.1.2s0 .2.1.3zM-40.6 36.8h.2c.1 0 .2 0 .2-.1 0 0 .1-.1.1-.2s0-.2-.1-.2h.2s.1 0 .1-.1c.1-.1.2-.2 0-.4l-.4-.3v.2l-.6.6c-.1-.1-.1-.1-.2 0l.4.3c.1.1.1.2.1.2m.5-.9.1.1v.4h-.4l-.1-.1zm-.6.6.3-.3.1.1.1.1v.3h-.4zm1.5.1-.3-.3v.2l-.5.7h-.2l.6.5h.1s.1-.1.1-.2c0 0-.1.1-.2.1l-.3-.2.5-.7zm.7.5-.3-.3s0 .1.1.2l-.5.7h-.2l.4.2v-.1l-.1-.1.5-.7zm1 1c0-.1 0-.2.1-.2v-.2c0-.1-.1-.1-.1-.2 0 0-.1-.1-.2-.1h-.4c-.1 0-.1.1-.2.1 0 0-.1.1-.1.2-.1.2-.1.3 0 .4 0 .1.1.1.1.2 0 0 .1.1.2.1 0 .2.2.4.3.5h.4-.2c-.2-.1-.3-.2-.4-.4.1 0 .2 0 .3-.1 0-.1.1-.3.2-.3m-.7.2s-.1 0-.1-.1c0 0 0-.1-.1-.1v-.3c.1-.3.3-.4.5-.3l.1.1v.4c0 .1 0 .1-.1.2.1.1-.1.1-.3.1m1.1.5s.1 0 .2.1h.4c.1-.1.2-.2.2-.3l.2-.5h.2l-.4-.1v.1s.1 0 .2.1l-.2.5c0 .1-.1.2-.2.2h-.2c-.3 0-.3-.1-.4-.1 0 0-.1 0 0 0q-.15-.3 0-.3l.2-.5h.2v-.1l-.4-.2c0 .1 0 .1.1.2l-.2.5v.4c0-.1 0 0 .1 0" class="st16"/><path d="M-35.4 38.1v.2h.1s0-.1.1-.2V38h-.8c0 .1 0 .1.1.1l-.1.9c-.1 0-.2 0-.2.1l.8.1v-.3h-.1s0 .1-.1.2h-.3l.1-.4h.3v-.1h-.4v-.4zm.8.6v.1h.5v-.1zm1.2.4.5-.1h-.2l-.1-.7h-.1c-.1 0-.1 0-.2.1v.1h.2l.1.6zm.5-.3v.1l.1.1h.4s.1 0 .1-.1c0 0 0-.1.1-.1v-.1c0-.1 0-.1-.1-.2 0 0-.1-.1-.2-.1l.1-.1v-.2c0-.1-.2-.2-.4-.2-.1 0-.2.1-.2.1v.2c0 .1 0 .1.1.2 0 0 .1.1.2.1-.1 0-.1.1-.2.1zm.1-.6q0-.15 0 0V38s.1 0 .1-.1h.1l.1.1v.1s0 .1-.1.1c-.1.1-.1.1-.2 0m.2.3c.2 0 .3.1.3.2v.2h-.4v-.2c0-.1.1-.2.1-.2m.7.3.4-.2v-.1h-.2l-.2-.6h-.1c-.1 0-.1 0-.2.1h.2l.2.6c0 .2-.1.2-.1.2m.7-.3h.4s.1 0 .1-.1l.1-.1V38c0-.1-.1-.2-.2-.2h-.2s-.1 0-.1.1c0 0 0 .1-.1.1v-.4c0-.1.2-.2.3-.3v-.1c-.1 0-.2.1-.2.2-.1.1-.1.2-.2.2v.3c0 .1 0 .2.1.3-.2.1-.1.2 0 .3m.1-.6h.2s.1.1.1.2v.3h-.3c-.1-.1-.2-.2-.2-.3V38c.1 0 .2 0 .2-.1m1.2-.2h.1v-.2h-.2v.2c0-.1 0 0 .1 0M-43.3 28c0 .1-.1.2-.1.3v.3c.1.1.1.2.2.3.1 0 .2.1.2.1h.2c.1 0 .2 0 .2-.1.1 0 .1-.1.2-.2 0-.1.1-.1.1-.2v-.2c0-.1-.1-.1-.1-.2h-.1c.1.1.1.2.1.3 0 0 0 .1-.1.2l-.1.1c-.1 0-.2.1-.3 0-.1 0-.2-.1-.3-.2 0 0 0-.1-.1-.1zh.2v-.1c0 .1 0 .1-.2.1.1 0 0 0 0 0m.4-.8c-.1 0-.1 0-.2.1v.1l.8.6v.1l.1-.4h-.1s0 .1-.1.1l-.2-.2.1-.4h.3v.2h.1l.1-.4c-.1 0-.1 0-.1.1zm.3.5-.4-.3h.5z" class="st16"/><path d="m-42.6 26.2-.3.4c.1 0 .1 0 .2-.1l.8.4v.2l.2-.4h-.1l-.1.1-.8-.4c.1-.1.1-.2.1-.2m.4-.6h.2c0-.1-.1-.1-.2-.2-.1.1-.1.2-.2.2-.1.2-.1.4.1.5h.4s.1 0 .1-.1l.1-.1s.1 0 .1-.1h.2v.3c0 .1-.1.1-.2.2h-.2l.2.2h.1c.1-.1.2-.2.2-.3.1-.2.1-.4-.1-.5h-.2c-.1 0-.2 0-.2.1l-.1.1h-.2c-.1 0-.1-.2 0-.3zm.6-1.1-.2.2c-.2.2-.1.4 0 .5h.4l.1-.1h.3v.3c0 .1-.1.1-.2.1s-.1 0-.2-.1c0 .1.1.1.2.2.1 0 .2-.1.3-.2.2-.2.1-.4 0-.5-.1 0-.1-.1-.2-.1s-.2 0-.2.1l-.1.1h-.2q-.15-.15 0-.3c-.1-.1-.1-.1 0-.2 0 .1.1.1.1.1zm.7-.7s.1 0 .2.1c0 0-.1-.1-.1-.2h-.1l-.5.6h.2l.6.6c-.1.1-.1.1 0 .2l.5-.6v-.1s-.1-.1-.2-.1c0 0 0 .1.1.2l-.2.3-.3-.3.2-.2-.2.3-.3-.2zm1.2.2.4-.3c.1 0 .1-.1.2-.2 0-.1.1-.1.1-.2 0-.2 0-.3-.1-.4 0-.1-.1-.1-.2-.2s-.1-.1-.2-.1h-.2c-.1 0-.1.1-.2.1l-.4.3h.2l.5.7c-.1.2-.1.2-.1.3m-.3-1 .2-.1s.1-.1.2-.1h.2s.1 0 .2.1l.1.1c.1.1.1.2.1.3v.2l-.1.1-.1.1h-.1zm1.3.3.7-.4v-.1s-.1-.1-.1-.2v.2l-.3.2-.2-.4.2-.1h-.1l-.2.1-.1-.1h-.2l.4.6c-.2.1-.2.1-.1.2m1.3-.8-.1.1h-.2s-.1-.1-.1-.2c0 .1 0 .2.1.3h.3c.1 0 .2-.1.2-.2zM-28 35l-.3.3.1-.1.2.2v-.2l-.1-.1c.1 0 .1-.1.1-.1m0-234.3v-.2zm0 235-.6-.1s0 .1.1.1l.6.5V36l-.5-.4.5.1zm-.7 1.3s-.1-.1-.2-.1c0 .1.1.2.2.2s.2-.1.2-.2c.2-.2.2-.3.1-.5 0 0-.1-.1-.2-.1h-.6s-.1 0-.1-.1v-.3h.1s.1-.1.2-.1c0 0 .1.1.2.1 0-.1-.1-.2-.2-.2s-.2.1-.3.2l-.2.2v.2s0 .1.1.1c0 0 .1.1.2.1h.5c.1.1 0 .2 0 .3.1.2.1.2 0 .2" class="st16"/><path d="M-28 37.4c-2 1.7-4.5 2.5-7.1 2.3s-5-1.4-6.6-3.4c-1.7-2-2.5-4.5-2.3-7.1s1.4-5 3.4-6.6h-1.2c-1.9 1.9-3 4.4-3.1 7.1s.8 5.3 2.6 7.3c1.7 2 4.2 3.3 6.8 3.6s5.3-.4 7.4-2z" class="st16"/><g id="Calque_2_1_"><path d="M40.1 79.9C18 79.9.1 62 .1 39.9S18 0 40.1 0 80 17.9 80 39.9s-17.9 40-39.9 40m0-77.7C19.2 2.2 2.3 19.1 2.3 39.9S19.2 77.6 40 77.6s37.7-16.9 37.7-37.7S60.9 2.2 40.1 2.2" class="st15"/><path d="M40.1 60.3c-11.2 0-20.3-9.1-20.3-20.3s9.1-20.3 20.3-20.3S60.4 28.8 60.4 40s-9.1 20.3-20.3 20.3m0-39.9c-10.8 0-19.5 8.8-19.5 19.5s8.8 19.5 19.5 19.5 19.5-8.8 19.5-19.5-8.8-19.5-19.5-19.5" class="st15"/><path d="m53.26 46.915 6.7-11.605 6.235 3.6-6.7 11.605z" class="st17"/><path d="m46.994 43.327 6.7-11.605 6.236 3.6-6.7 11.605z" class="st15"/><path d="m40.728 39.742 6.7-11.605 6.235 3.6-6.7 11.605z" class="st18"/><path d="m47.7 29.1 17.5 10.1-5.9 10.3-17.5-10.1zm-.3-1-6.7 11.6 18.8 10.9L66.3 39z" class="st18"/><path d="m34.393 50.31 13.302-23.035.693.4L35.085 50.71zM13.812 38.947l18.793-10.85 6.7 11.605-18.793 10.85z" class="st18"/><path d="m28.6 43.8.2-.5.6.1-.4-.4.2-.5-.5.3-.4-.3.1.5-.4.3h.5zm-4.2-7.5.2-.5h.6l-.5-.3.3-.5-.5.2-.4-.3.1.5-.5.3h.6zm-1.8 6 .2-.5h.5l-.4-.3.3-.5-.5.3-.4-.4.1.5-.5.3h.6zm7.8-4.6.2-.5.6.1-.4-.4.2-.4-.5.2-.4-.3.1.5-.4.3h.5zm-3.7-2.1.2-.5.5.1-.4-.4.3-.5-.5.3-.4-.3.1.5-.5.3h.6zm2.2.6.2-.5.5.1-.4-.4.3-.5-.5.3-.4-.4.1.6-.5.2.6.1zm1.9 3.7.3-.5.5.1-.4-.4.3-.5-.5.3-.4-.4.1.6-.5.2.5.1zm-.6 2.2.3-.5.5.1-.4-.4.3-.5-.5.3-.4-.3.1.5-.5.3h.5zm-3.8 2.2.3-.5.5.1-.4-.4.3-.5-.5.3-.4-.4.1.6-.5.3h.5zm-2.1-.6.2-.5.6.1-.4-.4.2-.5-.5.3-.4-.4.1.6-.5.2.6.1zM22 40.2l.2-.5h.6l-.4-.3.2-.5-.5.3-.4-.4.1.5-.5.3.6.1zm.5-2.2.3-.5.5.1-.4-.4.3-.5-.5.3-.4-.3.1.5-.5.3h.5z" class="st19"/><path d="m31.704 27.695.693-.4 13.3 23.036-.693.4z" class="st18"/><path d="m10 25.5 2.9-5 1.4.8-1.9 3.3 2 1.2L16 23l1.4.8-1.6 2.8 3.6 2.1-1 1.7zm6.2-9.1 2.3-1.9c1.7-1.4 3.4-1.4 4.6 0 .8.9.9 2 .4 3l5.2 1.4-1.8 1.5-4.6-1.4-.8.7 2.6 3.1-1.6 1.2zm2.6 0 1.6 2 .9-.7c.6-.5.7-1.2.2-1.9-.5-.6-1.2-.6-1.8-.1zM30.4 8l2.5-.7L39 16l-2 .5-1.6-2.2-3.8 1-.3 2.7-2.1.5zm4 4.8-2.2-3.2-.4 3.9zm8-6.4 2.5.5 2.9 7.9 1.5-7 2 .4-2 9.7-2.5-.5-2.9-7.9-1.5 7-2-.4zm16.5 14.8.5 1.9c-1.5.4-3.1.1-4.5-1-2.4-1.9-2.6-5.1-.9-7.3s4.9-2.8 7.3-.9c1.4 1.1 2.1 2.6 2 4.1h-2c.1-1-.3-2-1.2-2.7-1.5-1.1-3.4-.8-4.6.7s-1 3.4.4 4.6c1 .8 2.1.9 3 .6m8.9 0 2.8 5-1.5.8-1.8-3.3-2 1.1 1.5 2.8-1.5.8-1.5-2.8-2.2 1.4 1.8 3.3-1.5.8-2.8-5zM17.2 47.4l1.3 2.7c1 1.9.6 3.6-1.1 4.5q-1.65.75-3-.3L12 59l-1-2.1 2.4-4.1-.5-.9-3.6 1.8-.9-1.8zm-.6 2.5L14.3 51l.5 1q.6 1.2 1.8.6c.7-.3.9-1 .5-1.8zm5 5.3 4.1 4-1.2 1.2-2.7-2.6-1.6 1.7 2.3 2.2-1.2 1.2-2.3-2.2-1.8 1.8 2.7 2.6-1.2 1.2-4.1-4zm5.9 5.1 1.8.9-3.5 7.2 3.4 1.6-.8 1.6-5.2-2.5zm9.3 3.2 2.6.2 2.9 10.1-2.1-.2-.7-2.6-3.9-.3-1.2 2.5-2.1-.2zm2.2 5.8-1-3.8-1.7 3.6zm5-5.5 2.4-.9 6.6 5.2-2.5-6.7 1.9-.7 3.4 9.3-2.4.9-6.6-5.2 2.5 6.7-1.9.7zm20-4.4 2-.3c.2 1.5-.3 3.1-1.5 4.4-2.2 2.2-5.4 2-7.4 0s-2.2-5.2 0-7.4c1.3-1.3 2.9-1.7 4.4-1.5l-.3 2c-1-.2-2 .1-2.8.9-1.3 1.3-1.2 3.3.1 4.6s3.3 1.4 4.6.1c.8-.8 1.1-1.8.9-2.8m-3.4-7.2L63 47l1.5.7L63 51l2.1 1 1.3-2.9 1.5.7-1.3 2.9 2.3 1 1.5-3.4 1.6.7-2.4 5.2z" class="st15"/></g><path d="M-28-213.4h-34v34h34zm-161.2 22.6h-3.8v11.5h-2.8v-11.5h-3.8v-2.7h10.4zm10.4 8.8v2.7h-8.7v-14.1h8.7v2.7h-5.9v3h5.4v2.6h-5.4v3.2c.1-.1 5.9-.1 5.9-.1m7.2-2.3h-2.1v4.9h-2.8v-14.1h5.7q.9 0 1.8.3c.6.2 1.1.6 1.5 1s.8 1 1 1.5q.3.9.3 1.8c0 .9-.3 1.7-.8 2.5-.5.7-1.2 1.3-2 1.7l3.1 5.3h-3zm-2.1-2.4h2.9c.5 0 1-.3 1.4-.7.3-.4.6-.9.6-1.4s-.2-1-.6-1.4c-.3-.4-.8-.6-1.4-.7h-2.9zm14.7 2.4h-2.1v4.9h-2.8v-14.1h5.7q.9 0 1.8.3c.6.2 1.1.6 1.5 1s.8 1 1 1.5.3 1.2.3 1.8c0 .9-.3 1.7-.8 2.5-.5.7-1.2 1.3-2 1.7l3.1 5.3h-3zm-2.1-2.4h2.9c.5 0 1-.3 1.4-.7.3-.4.6-.9.6-1.4s-.2-1-.6-1.4c-.3-.4-.8-.6-1.4-.7h-2.9zm12.7-6.8v14.1h-2.8v-14.1zm12.2 2.7h-3.8v11.5h-2.8v-11.5h-3.8v-2.7h10.4zm.3 4.4c0-1.4.4-2.9 1.3-4.1q1.2-1.8 3.3-2.7c1.3-.6 2.8-.7 4.2-.4s2.7 1 3.8 2c1 1 1.7 2.3 2 3.8.3 1.4.2 2.9-.4 4.2s-1.5 2.5-2.7 3.3-2.6 1.2-4.1 1.2c-1 0-1.9-.2-2.8-.5-.9-.4-1.7-.9-2.4-1.6s-1.2-1.5-1.6-2.4c-.5-.9-.7-1.8-.6-2.8m11.9 0c0-2.7-2-4.7-4.6-4.7-.9 0-1.8.2-2.6.8q-1.2.75-1.8 2.1c-.4.8-.5 1.8-.3 2.7s.6 1.8 1.3 2.4 1.5 1.1 2.4 1.3q1.35.3 2.7-.3c.8-.3 1.6-1 2.1-1.7s.8-1.7.8-2.6m7.7-7.1v14.1h-2.8v-14.1zm7.8 9.2h-2.1v4.9h-2.8v-14.1h5.7q.9 0 1.8.3c.6.2 1.1.6 1.5 1s.8 1 1 1.5q.3.9.3 1.8c0 .9-.3 1.7-.8 2.5-.5.7-1.2 1.3-2 1.7l3.1 5.3h-3zm-2.1-2.4h2.9c.5 0 1-.3 1.4-.7.3-.4.6-.9.6-1.4s-.2-1-.6-1.4c-.3-.4-.8-.6-1.4-.7h-2.9zm18.4 4.7v2.7h-8.7v-14.1h8.7v2.7H-98v3h5.3v2.6H-98v3.2c0-.1 5.8-.1 5.8-.1m1.6-.5 2.4-1.4c.5 1.3 1.5 2.2 3.2 2.2s2.2-.7 2.2-1.5c0-1.1-1-1.4-3.1-2.1-2.2-.6-4.3-1.5-4.3-4.2s2.2-4.2 4.7-4.2c1.1 0 2.1.3 3 .8s1.6 1.4 2.1 2.4l-2.4 1.4c-.5-1.1-1.3-1.8-2.7-1.8-1.2 0-1.9.6-1.9 1.4 0 .9.5 1.3 2.7 2s4.7 1.4 4.7 4.4c0 2.6-2.1 4.3-5.1 4.3-2.9-.2-4.8-1.6-5.5-3.7m-12.3-31.2v14h-1v-2.3c-.4.8-1 1.4-1.8 1.9s-1.6.7-2.5.6c-1.4 0-2.7-.5-3.7-1.5s-1.5-2.3-1.5-3.7.5-2.7 1.5-3.7 2.3-1.5 3.7-1.5c.9 0 1.8.2 2.5.6.8.5 1.4 1.1 1.8 1.9v-6.3zm-1 8.9c0-.8-.3-1.6-.7-2.3-.5-.7-1.1-1.2-1.9-1.6-.8-.3-1.6-.4-2.4-.2s-1.6.6-2.2 1.1c-.6.6-1 1.3-1.1 2.2-.2.8-.1 1.7.2 2.4.3.8.9 1.4 1.6 1.9s1.5.7 2.4.7c.6 0 1.1-.1 1.6-.3s1-.5 1.4-.9.7-.9.9-1.4c.1-.4.2-1 .2-1.6m14.2.1v.5h-9c.2 2.2 1.9 3.7 4.2 3.7 1.6 0 2.9-.8 3.4-1.8l.9.5c-.8 1.3-2.4 2.2-4.3 2.2-3.1 0-5.2-2.2-5.2-5.2 0-2.9 2.1-5.2 5.1-5.2s4.9 2.6 4.9 5.3m-9.1-.5h8c-.2-2.4-1.9-3.8-3.9-3.8-1 0-2.1.3-2.8 1.1-.8.7-1.2 1.6-1.3 2.7m18.7 2.8c0 1.6-1.4 2.8-3.6 2.8-2 0-3.3-1-3.8-2.2l.8-.5c.4 1.1 1.4 1.8 2.9 1.8 1.4 0 2.6-.6 2.6-1.9 0-2.7-6-1.1-6-4.7 0-1.6 1.4-2.8 3.4-2.8 1.6 0 2.9.8 3.4 2l-.8.5c-.4-1-1.4-1.5-2.6-1.5-1.3 0-2.4.7-2.4 1.9.1 2.5 6.1 1 6.1 4.6m-108.3-1.2c0 .5-.1 1-.3 1.4-.2.5-.5.9-.8 1.2s-.8.6-1.2.8c-.5.2-1 .3-1.4.3h-6v-13.9h5.6c1 0 1.9.4 2.6 1.1s1.1 1.6 1.1 2.6c0 .6-.2 1.2-.5 1.8-.3.5-.8 1-1.3 1.3.7.3 1.3.7 1.7 1.3.2.7.5 1.4.5 2.1m-8.8-9.1v5.3h4.5a2.73 2.73 0 0 0 2.7-2.7 2.73 2.73 0 0 0-2.7-2.7zm7.7 9.1c0-.4-.1-.7-.2-1.1s-.3-.6-.6-.9q-.45-.45-.9-.6c-.3-.2-.7-.2-1.1-.2h-5v5.6h5c.4 0 .7-.1 1.1-.2.3-.2.6-.3.9-.6q.45-.45.6-.9c.15-.45.2-.7.2-1.1m12 .3h-7l-1.3 3.5h-1.1l5.4-13.9h1.1l5.4 13.9h-1.1zm-.3-1-3.1-8.1-3.1 8.1zm15.4-9.4v13.9h-1l-8.2-12v12h-1.1v-13.9h.9l8.2 12v-12zm20.3 9.3v-9.3h1.1v9.3c0 2.2 1.4 3.9 4 3.9s4-1.6 4-3.9v-9.3h1.1v9.3c0 2.9-2.1 4.9-5.1 4.9-3-.1-5.1-2-5.1-4.9m21.8 3.6v1h-7.9v-13.9h7.9v1h-6.9v5.4h6.4v1h-6.4v5.5zm-24.6-5.9c0-1.6-.5-3.1-1.5-4.3-1-1.3-2.3-2.1-3.8-2.6-1.5-.4-3.1-.3-4.6.3-1.4.6-2.7 1.6-3.5 3-.8 1.3-1.1 2.9-1 4.5.2 1.6.8 3 1.9 4.2 1.1 1.1 2.5 1.9 4 2.1 1.6.3 3.1 0 4.5-.8l-.8-.8c-.8.4-1.7.6-2.6.6-1.2 0-2.4-.3-3.4-1s-1.8-1.6-2.3-2.7-.6-2.4-.3-3.5c.2-1.2.8-2.3 1.7-3.2s1.9-1.4 3.2-1.7c1.2-.2 2.4-.1 3.5.3 1.1.5 2.1 1.3 2.8 2.3s1 2.2 1 3.4c0 .8-.2 1.6-.5 2.4s-.8 1.4-1.4 2l-3.2-3.1-.7.6 6.5 6.4.7-.6-2.6-2.6c.7-.7 1.3-1.5 1.6-2.4.6-.9.8-1.9.8-2.8m-97.8 24.7-4.6-2.5v-23.7l11.7-6.6 4.7 2.7-11.8 6.5zm28.4-7.9 4.6-2.5v-15.8l-18.8-10.5-4.7 2.6 18.9 10.5zm-14.2 15.8 18.8-10.5v-5.2l-18.8 10.5-11.8-6.7v5.3zM-70-213.4h-.5v34h.5z" class="st15"/><path d="M-57.6-195c-.8 0-1.1.6-1.1 1.4 0 .7.3 1.4 1.1 1.4.1 0 .2 0 .3-.1.1 0 .2-.1.3-.2s.2-.2.2-.3.1-.2.1-.3h.9c0 .2 0 .5-.2.6-.1.2-.2.4-.4.5-.2.2-.3.3-.6.3-.2.1-.5.1-.6.1-1.3 0-2-.9-2-2.1 0-1.3.8-2.2 2-2.2.4 0 .8.1 1.2.4.3.3.5.6.6 1.1h-.9c0-.2-.2-.4-.3-.5-.2 0-.4-.1-.6-.1m4.8 2.8v-1.5c0-.8-.8-.8-1.3-.8-.6 0-1.3.2-1.4 1h.8c0-.3.2-.5.5-.5s.5.1.5.4q0 .3-.6.3h-.4c-.5.1-1 .2-1 .9 0 .6.4.9 1 .9.2 0 .3 0 .5-.1s.3-.2.5-.3c0 .1 0 .2.1.3h.8zm-.8-.5v.3c0 .1-.1.2-.2.2-.1.1-.2.1-.2.2h-.3c-.3 0-.5-.1-.5-.4 0-.2.1-.4.5-.4h.2c.2 0 .3-.1.5-.2zm1.4-2.3v-.7h.8v.7zm.8.5v3h-.8v-3zm1.8 2.5c.2 0 .5-.1.5-.4v-.2c-.3-.3-1.2-.2-1.6-.6l-.2-.2v-.3c0-.6.4-1 1.3-1 .5 0 1.2.2 1.3 1h-.8c0-.3-.3-.4-.5-.4s-.5 0-.5.3c0 .2.2.3.6.4l.3.1c.5.1.9.3.9.8 0 .6-.4 1-1.3 1-.7 0-1.4-.3-1.4-1h.8c-.1.3.2.5.6.5m-2.2 5.5c.2 0 .5-.1.5-.4v-.2c-.3-.3-1.2-.2-1.6-.6l-.2-.2v-.3c0-.6.4-1 1.3-1 .5 0 1.2.2 1.3 1h-.8c0-.3-.3-.4-.5-.4s-.5 0-.5.3c0 .2.2.3.6.4l.3.1c.5.1.9.3.9.8s-.4 1-1.3 1c-.7 0-1.3-.3-1.4-1h.8c0 .4.3.5.6.5m19.9 0c.2 0 .5-.1.5-.4v-.2c-.3-.3-1.2-.2-1.6-.6l-.2-.2v-.3c0-.6.4-1 1.3-1 .5 0 1.2.2 1.3 1h-.8c0-.3-.3-.4-.5-.4s-.5 0-.5.3c0 .2.2.3.6.4l.3.1c.5.1.9.3.9.8s-.4 1-1.3 1c-.7 0-1.3-.3-1.4-1h.8c0 .4.3.5.6.5m-14.8-5.5c.2 0 .5-.1.5-.4 0-.1 0-.1-.1-.2-.3-.3-1.2-.2-1.6-.6l-.2-.2v-.3c0-.6.4-1 1.3-1 .5 0 1.2.2 1.3 1h-.8c0-.3-.3-.4-.5-.4s-.5 0-.5.3c0 .2.2.3.6.4l.3.1c.5.1.9.3.9.8 0 .6-.4 1-1.3 1-.7 0-1.3-.3-1.4-1h.8c.1.3.4.5.7.5m3.2-.1c.1 0 .3 0 .4-.1l.3-.3h.7c-.1.3-.3.6-.5.8-.3.2-.6.3-.9.2-.2 0-.4 0-.6-.1s-.3-.2-.5-.3c-.2-.2-.3-.3-.3-.5-.1-.2-.1-.4-.1-.6s0-.4.1-.6.2-.4.3-.5c.2-.2.3-.3.5-.3.2-.1.4-.1.6-.1 1.1 0 1.5.9 1.4 1.8h-2.1c0 .4.3.6.7.6m0-1.9h-.3c-.1 0-.2.1-.2.2l-.2.2v.3h1.3c-.1-.5-.2-.7-.6-.7m-11.3 7.5c.1 0 .3 0 .4-.1l.3-.3h.7c-.1.3-.3.6-.5.8-.3.2-.6.3-.9.2-.2 0-.4 0-.6-.1s-.3-.2-.5-.3c-.2-.2-.3-.3-.3-.5-.1-.2-.1-.4-.1-.6s0-.4.1-.6.2-.4.3-.5c.2-.2.3-.3.5-.3s.4-.1.6-.1c1.1 0 1.5.9 1.4 1.8h-2.1c0 .4.2.6.7.6m-.1-1.9h-.3c-.1 0-.2.1-.2.1l-.2.2v.3h1.3q0-.6-.6-.6m-2.5 2c-.1.2-.2.3-.4.3-.2.1-.3.1-.5.1-.9 0-1.3-.8-1.3-1.6s.5-1.5 1.3-1.5c.2 0 .3 0 .5.1s.3.2.4.3v-1.5h.8v4.1h-.8zm-.7-2c-.5 0-.7.4-.7 1 0 .5.2 1 .7 1s.7-.5.7-1c0-.6-.2-1-.7-1m10.9-1.7c1 0 1.8.6 1.8 2 0 1.2-.6 2.1-1.8 2.1H-49v-4.1zm0 3.3c.6 0 1-.4 1-1.2s-.2-1.3-1.2-1.3h-.6v2.6zm3.7.3c.1 0 .3 0 .4-.1l.3-.3h.7c-.1.3-.3.6-.5.8-.3.2-.6.3-.9.2-.2 0-.4 0-.6-.1s-.3-.2-.5-.3c-.2-.2-.3-.3-.3-.5-.1-.2-.1-.4-.1-.6s0-.4.1-.6.2-.4.3-.5c.2-.2.3-.3.5-.3.2-.1.4-.1.6-.1 1.1 0 1.5.9 1.4 1.8h-2.1c0 .4.3.6.7.6m0-1.9h-.3c-.1 0-.2.1-.2.1l-.2.2v.3h1.3c-.1-.4-.2-.6-.6-.6m.1-2.1-.6 1h.6l.9-1zm2.4 1.6v.4c.1-.2.2-.3.4-.3.2-.1.3-.1.5-.1 1 0 1.3.8 1.3 1.6s-.4 1.5-1.3 1.5c-.2 0-.3 0-.5-.1s-.3-.2-.4-.3v1.4h-.8v-4zm1.4 1.4c0-.5-.2-1-.7-1s-.7.4-.7 1c0 .5.2 1 .7 1s.7-.5.7-1m2.7-1.6c.3 0 .6.1.9.2.3.2.5.4.6.7s.2.6.1.9-.2.6-.4.8-.5.4-.8.5-.6 0-.9-.1-.5-.3-.7-.6q-.3-.45-.3-.9c0-.2 0-.4.1-.6s.2-.4.3-.5c.2-.2.3-.3.5-.3.1 0 .3-.1.6-.1m.3-1 .6.8h-.6l-.4-.5-.4.5h-.6l.6-.8zm-.3 3.6c.5 0 .7-.5.7-1s-.2-1-.7-1-.7.4-.7 1 .1 1 .7 1m3.5-2.4v.5h-.6v1.4c0 .3.1.3.3.3h.3v.6h-.5c-.5 0-.9-.1-.9-.7v-1.8h-.6v-.5h.5v-.9h.8v.9h.7zm-26.1 6c0-.2 0-.3.1-.4 0-.2.1-.3.2-.4s.2-.2.3-.2c.2 0 .3-.1.4-.1.3 0 .6.1.8.3l-.2.3c-.1-.1-.2-.2-.3-.2s-.2-.1-.3 0c-.1 0-.2 0-.3.1-.1 0-.2.1-.2.2-.1.1-.1.2-.2.2v.6c0 .1.1.2.2.3s.2.1.2.2c.1 0 .2.1.3.1.2 0 .4 0 .5-.2v-.4h-.5v-.3h.9v.9c-.2.2-.6.3-.9.3-.2 0-.3 0-.4-.1-.2 0-.3-.2-.3-.2-.1-.1-.2-.2-.2-.3-.1-.5-.1-.6-.1-.7m3-1.1h1.3c.1 0 .2.1.3.2s.2.3.2.5 0 .3-.2.4c-.1.1-.2.2-.4.2l.6.8h-.5l-.5-.8h-.5v.8h-.4zm.9 1.1c.3 0 .5-.2.5-.4s-.2-.4-.5-.4h-.5v.7zm1.6 0c0-.3.2-.6.3-.8.2-.2.5-.3.8-.3s.6.1.8.3.3.5.3.8c0 .2 0 .3-.1.4 0 .2-.2.3-.2.4-.1.1-.2.2-.4.2s-.3.1-.4.1c-.2 0-.3 0-.4-.1-.2 0-.3-.2-.4-.2-.1-.1-.2-.2-.2-.4-.1-.2-.1-.3-.1-.4m1.9 0v-.3c0-.1-.1-.2-.2-.3s-.2-.1-.2-.2c-.1 0-.2-.1-.3-.1s-.2 0-.3.1c-.1 0-.2.1-.2.2-.1.1-.1.2-.2.3v.6c0 .1.1.2.2.3s.2.1.2.2c.1 0 .2.1.3.1s.2 0 .3-.1c.1 0 .2-.1.2-.2.1-.1.1-.2.2-.3-.1-.1 0-.2 0-.3m1.1.1v-1.2h.4v1.2c0 .4.2.6.5.6s.5-.2.5-.6v-1.3h.4v1.6c0 .1-.1.2-.2.3s-.2.2-.3.2-.3.1-.4 0c-.1 0-.3 0-.4-.1-.1 0-.2-.1-.3-.2s-.2-.2-.2-.3zm2.8-1.2h1.1c.1 0 .2.1.3.2s.2.2.2.3.1.2.1.3 0 .2-.1.3c0 .1-.1.2-.2.3s-.2.1-.3.2h-.7v.7h-.4zm.8 1.1c.3 0 .5-.2.5-.4 0-.3-.2-.4-.5-.4h-.4v.8zm1.6-1.1h1.6v.3h-1.2v.6h1.1v.3h-1.1v.6h1.2v.3h-1.6zm8.8-18c.1.2.2.3.4.4q.3-.15.6 0c-.3-.3-.6-.5-.8-.9-.2-.2-.3-.4-.4-.6-.2-.4-.4-.7-.6-1-.1-.1-.2-.2-.3-.2-.1-.1-.2-.1-.3-.1h-.4c-.1 0-.2.1-.3.2l.2.2c.1 0 .2.1.3.1h.3c.1 0 .2-.1.2-.2.3.2.5.5.6.8 0 .1.1.2.2.4-.1-.1-.3-.2-.5-.1-.2 0-.3.1-.4.2 0 0 .1 0 .2.1h.2s.1 0 .2-.1l.1-.1h.1c.3.2.3.4.5.6-.1 0-.2.1-.3.2h.3c.1 0-.2 0-.1.1" class="st16"/><path d="M-37.8-207.9v.6c-.1.2-.3.4-.5.5-.3-.3-.7-.1-.9.1.2.1.4.2.6.1.2 0 .4-.2.6-.3 0 .2-.1.4-.1.5 0 0-.1 0-.2-.1h-.2c.1 0 .2.1.2.2.1.1.1.2.1.3v.2c-.1-.2-.3-.2-.5-.3s-.5 0-.7.1c.1.2.3.2.4.3.2 0 .3 0 .5-.1l.2.2c0 .1.1.2.1.3 0 .2 0 .3-.1.4s-.2.2-.3.2h.3c.1 0 .2 0 .2-.1v.4c.2.1.3.3.4.4-.2-.5-.2-1.1-.2-1.6s.1-1 .2-1.5c.1-.2.1-.5 0-.7 0-.2-.1-.4-.3-.5-.2-.2-.3-.2-.6-.2.2.2.4.7.8.6m.3-.1v.3c0-.2.1-.3.2-.4.5-1 .3-1.5-.3-1.8 0 .1-.1.2-.1.3v.3c0 .1.1.2.2.3s.2.1.3.2c0 .2-.1.5-.3.8q0-.15 0 0" class="st16"/><path d="M-37.6-208.6v-.2c0-.1 0-.1-.1-.2s-.1-.1-.2-.1h-.2v.2c0 .1 0 .1.1.2 0 0 .1.1.2.1zm3.1 9-.5-.3c0 .1.1.2.1.3s0 .2-.1.3zm.1.1-.3.5c.1 0 .2-.1.3-.1s.2 0 .3.1zm.1-.1.5.3q-.15-.3 0-.6zm-.4-.5.3.5.3-.5c-.1 0-.2.1-.3.1s-.2-.1-.3-.1m-2.2-1.5c-.1-.1-.2-.1-.3-.2 0-.2-.3-.4-.7-.3 0 .1.1.2.2.2.1.1.2.1.2.1-.2.2-.4.3-.5.6.2 0 .5 0 .6-.1.2 0 .4-.1.5-.3m-.8-1h-.5c-.2 0-.3.2-.3.3.3.1.7 0 .8-.3m-.6-.9c.1-.2-.1-.4-.5-.4 0 .1 0 .2.1.2-.2.1-.3.2-.5.3.2.1.3.1.5.1s.3-.1.4-.2m0-4.1c0-.1-.1-.1-.1-.2.1-.2-.1-.3-.3-.4v.2s0 .1.1.2c-.2 0-.3.1-.5.2.1.1.3.1.4.1s.3-.1.4-.1m2.3 7.4s-.1-.1-.2-.1h-.4l-.1.1s.1.1.2.1h.4s.1 0 .1-.1m-2.2-7.1s-.1-.1-.2-.1h-.4l-.1.1s.1.1.2.1h.4c.1 0 .1 0 .1-.1m-.7 2.4h.4s.1 0 .1-.1l.1-.1h-.4s-.1 0-.1.1c0 0-.1 0-.1.1" class="st16"/><path d="M-38.5-201.6s.1.1.2.1h.4l.1-.1s-.1-.1-.2-.1h-.4zm1.7.7h-.4s-.1 0-.2.1c0 0-.1.1-.1.2h.4s.1 0 .2-.1.1-.1.1-.2m-1.6-1.9-.1-.1h-.4s-.1 0-.1.1c.1.1.2.1.3.1.1.1.2 0 .3-.1m-.2-2.5c0-.1-.1-.1-.2-.2s-.2 0-.2 0h-.2c-.1 0-.1.1-.2.2 0 0 .1.1.2.1h.4c.1-.1.1-.1.2-.1m4.6 4.6v-.2l-.3-.3h-.2c-.2.2-.3.2-.3.3v.3c.8 0 .8 0 .8-.1q0 .15 0 0" class="st16"/><path d="M-35.5-201.3c-.3-.2-.8-.3-1.2-.1-.1 0-.1.1-.2.2 0 .1-.1.2-.1.2.2-.3.8-.3 1 .1 0 .1 0 .3-.1.4v-.2c0-.1 0-.1-.1-.2 0 0-.1-.1-.2-.1h-.2v.2c0 .1 0 .2.1.2h-.3c0 .1.1.1.2.2.1 0 .2 0 .2.1h.2c.1 0 .2-.1.2-.1 0 .2.1.4.3.5-.1 0-.2.1-.3.2s-.2.2-.2.3c1 0 .8-.4.8-.6-.6.2-.5-.4-.5-.8l.4.2c0 .1-.1.2-.2.2.3 0 .4-.1.9-.5-.2-.3-.5-.3-.7-.4m4.7-2.9c-.3.3-.5.6-.6 1-.1.2-.2.4-.4.6-.2.3-.5.6-.8.9h.6c.1-.1.2-.3.3-.4 0-.1.2-.2.3-.2h.3c-.1-.1-.2-.2-.3-.2.2-.2.2-.5.5-.6h.1l.1.1s.1 0 .2.1h.2s.1 0 .2-.1c-.1-.1-.2-.2-.4-.2s-.3 0-.5.1c0-.1.1-.2.2-.4.1-.3.3-.6.6-.8.1.1.2.1.2.2h.3c.1 0 .2 0 .3-.1.1 0 .2-.1.2-.2-.1-.1-.2-.2-.3-.2h-.4c-.1 0-.2 0-.3.1q-.6.15-.6.3m-.4-3.6v.7c.1.5.2 1 .2 1.5s-.1 1.1-.2 1.6c.1-.2.3-.3.4-.4v-.4c.1 0 .2.1.2.1h.3c-.2 0-.3-.1-.3-.2-.1-.1-.1-.3-.1-.4s0-.2.1-.3c0-.1.1-.2.2-.2.2.1.3.2.5.1.2 0 .3-.1.4-.3-.2-.1-.5-.1-.7-.1s-.3.2-.5.3v-.4s0-.1.1-.1l.1-.1h.2-.2c-.1 0-.1 0-.2.1 0-.2-.1-.4-.1-.5.2.2.3.3.6.3.2 0 .5 0 .6-.1-.2-.2-.6-.4-.9-.1-.2-.1-.4-.3-.5-.5q-.15-.3 0-.6c.5.1.6-.4.7-.6-.2 0-.4.1-.5.2-.3 0-.4.2-.4.4m-.3-.3c.1.1.1.3.2.4 0-.1 0-.2.1-.3l-.1-.1c-.1-.2-.2-.5-.3-.7.1 0 .2-.1.2-.2.1-.1.1-.2.2-.2v-.3c0-.1 0-.2-.1-.3-.5.2-.7.8-.2 1.7m.3-.5h.2s.1-.1.2-.1c0 0 .1-.1.1-.2v-.2h-.2s-.1.1-.2.1c0 0-.1.1-.1.2z" class="st16"/><path d="M-30.9-202.1c-.5 0-.7 0-.7.3-.1 0-.2.1-.3.2.1.2.3.3.5.4s.4.1.6.1c-.1-.2-.3-.4-.5-.6.1 0 .2-.1.2-.1s.2-.2.2-.3m-.2-.5c0 .3.5.5.8.3l-.3-.3c-.2-.1-.3-.1-.5 0m.9-1.1s.1-.1.1-.2c-.4 0-.6.1-.5.4.1.1.3.2.4.2.2 0 .3 0 .5-.1-.1-.1-.3-.2-.5-.3m.2-4.5c-.3.1-.4.2-.3.4 0 0-.1.1-.1.2.1.1.3.1.4.1.2 0 .3 0 .4-.1-.1-.1-.3-.2-.5-.2 0 0 .1-.1.1-.2zm-2.2 8.1-.1-.1h-.4s-.1 0-.2.1l.1.1h.4c.1 0 .2 0 .2-.1m1.6-7.2.1.1h.4s.1 0 .2-.1l-.1-.1h-.4c-.1.1-.2.1-.2.1m.7 2.4s0-.1-.1-.1l-.1-.1h-.4s0 .1.1.1l.1.1z" class="st16"/><path d="m-30.3-201.6-.1-.1h-.4s-.1 0-.2.1l.1.1h.4c.1-.1.1-.1.2-.1m-1.7.7s0 .1.1.2c0 0 .1.1.2.1h.4s0-.1-.1-.2c0 0-.1-.1-.2-.1zm2.1-1.8-.1-.1h-.4s-.1 0-.1.1c.1.1.2.1.2.1.3 0 .3 0 .4-.1m-.3-2.6s.1.1.2.1h.4c.1 0 .1-.1.2-.1 0-.1-.1-.1-.2-.2h-.4c-.1 0-.1.1-.2.2" class="st16"/><path d="M-31.8-201.1c0-.1 0-.2-.1-.2 0-.1-.1-.1-.2-.2-.3-.2-.9 0-1.2.1s-.5.2-.8.2c.5.4.6.5.9.5-.1-.1-.1-.2-.2-.2.1 0 .2-.1.4-.2 0 .4.1.9-.5.8-.1.2-.2.6.8.6 0-.1-.1-.2-.2-.3s-.2-.2-.3-.2c.2-.1.3-.3.3-.5 0 .1.1.1.2.1h.2c.1 0 .2 0 .2-.1.1 0 .1-.1.2-.2h-.3c0-.1.1-.1.1-.2v-.2h-.2c-.1 0-.1.1-.2.1 0 0-.1.1-.1.2v.2c-.2-.1-.2-.3-.1-.4.3-.3.9-.2 1.1.1m.5-4.5c0-2.3-1.4-4.2-3.1-4.2s-3.1 1.9-3.1 4.2 1.4 4.2 3.1 4.2c1.7-.1 3.1-1.9 3.1-4.2m-3.1 3.9c-1.5 0-2.8-1.8-2.8-3.9s1.3-3.9 2.8-3.9 2.8 1.8 2.8 3.9c0 2.2-1.3 3.9-2.8 3.9" class="st16"/><path d="M-34.4-209.2c-.3 0-.5.1-.8.2h1.5c-.2-.2-.4-.2-.7-.2m1.2.4h-2.3c-.1 0-.2.1-.2.2h2.7c-.1-.1-.2-.1-.2-.2m.4.4H-36l-.2.2h3.4c.1 0 0-.1 0-.2m-4.1 2.9v.2h5v-.2zm1.3 3.1h2.3c.1 0 .2-.1.2-.2h-2.7zm1.2.4c.3 0 .5-.1.8-.2h-1.5c.2.2.5.2.7.2m-1.4-5.9h-.5l-.1.2h.4c.1-.2.1-.2.2-.2m2.9.1h.4l-.1-.2h-.4c.1.1.1.1.1.2m-3.2.2h-.4s0 .1-.1.2h.5zm3.4.2h.5c0-.1 0-.1-.1-.2h-.4zm-3.4.3-.5-.1v.2h.3s.1 0 .2-.1m3.4 0c.1 0 .2 0 .3.1h.3v-.2zm-3.9.4h-.2v.2h.2c-.1-.1 0-.1 0-.2m4.5.2h.2v-.2h-.2zm-4.5.3v-.1h-.2v.2zq0 .15 0 0m4.4 0s0 .1 0 0h.2v-.2h-.2c.1.1 0 .2 0 .2m-1.3-1.7h-1.9s.1.1.1.2h1.6c.1-.2.2-.2.2-.2m-.2.3h-1.4v.2h1.3c.1 0 .1-.1.1-.2m-.1.5-1.3-.1v.1c.1 0 .2 0 .3.1h.7c.1 0 .3 0 .3-.1m-.5.6c0-.1 0-.1.1-.2h-.3v.2zm.1.4s0-.1-.1-.2h-.2c0 .1 0 .1-.1.2zm-.4 1.1h-2.2v.2h2.1c0-.1 0-.2.1-.2m.6.1h2.1v-.2h-2.2c0 .1 0 .1.1.2m-.9.2h-1.9v.2h1.8c.1 0 .1-.1.1-.2m1 .2h1.9v-.2h-1.9zm-1 .4q0-.15 0 0l-1.8-.1v.2h1.4c.2-.1.3-.1.4-.1m1 0c.1 0 .2 0 .3.1h1.4v-.2zq.15-.15 0 0m-1.5.3h-1.1c0 .1 0 .1.1.2h1c-.1-.1-.1-.1 0-.2m2.1.2h1s0-.1.1-.2h-1.1zm-1.8.4h.3v-.1h-.2c-.1 0-.1.1-.1.1m1.1 0h.3s0-.1-.1-.1h-.2zm-2.3-2.9h.3v-.1h-.1s-.1 0-.2.1c.1-.1 0-.1 0 0m1.3-.2h-.1v.1h.3s0-.1-.1-.1zm2.3 0h-.1v.1h.3s0-.1-.1-.1zm-1.1 0h-.1s0 .1-.1.1h.3v-.1zm-1.7 2.9h-.9c0 .1.1.1.1.2h.9c0-.1-.1-.1-.1-.2m2.1.2h.9l.1-.2h-.9c0 .1 0 .1-.1.2" class="st16"/><path d="M-35-206.5h.2c.1 0 .1.1.2.2v-.4c0-.1-.1-.1-.2-.2s-.1-.1-.2-.1h-.2l-.2.2c.1-.2.2-.4.2-.6s0-.3-.1-.4l-.3-.3-.3.3c-.1.1-.1.3-.1.4 0 .2.1.4.2.6l-.2-.2h-.2c-.1 0-.2 0-.2.1-.1 0-.1.1-.2.2v.4c0-.1.1-.2.2-.2h.3c.1 0 .2.1.2.2s.1.2.1.2v.2c0 .1 0 .1-.1.2h.5s-.1-.1-.1-.2v-.4s0-.1.1-.1l.1-.1zm-.6-1.2c.1.2.2.3.2.5s-.1.4-.2.5zm2.9 1.2c.1 0 .2 0 .2.1.1 0 .1.1.2.2v-.2c0-.1 0-.2-.1-.3s-.2-.1-.3-.1h-.2l-.2.2c.1-.2.2-.4.2-.6 0-.1.1-.2.1-.2v-.2c0-.1-.1-.2-.2-.2s-.2-.1-.2-.1c-.1 0-.2 0-.2.1-.1 0-.1.1-.2.2v.2c0 .1 0 .2.1.2 0 .2.1.4.2.6l-.2-.2h-.2c-.1 0-.2 0-.3.1s-.1.2-.1.3v.2c0-.1.1-.2.2-.2h.3c.1 0 .2.1.2.2s.1.2.1.2v.2c0 .1 0 .1-.1.2h.5s0-.1-.1-.2v-.2c0-.1 0-.2.1-.3 0-.1.1-.2.2-.2m-.5-1.2c.1.2.2.3.2.5s-.1.4-.2.5zm-1.2 2.7-.3.3c-.1.1-.1.3-.1.4 0 .2.1.4.2.6l-.2-.2h-.4c-.1 0-.1.1-.2.2 0 .1-.1.1-.1.2v.2c0-.1.1-.2.2-.2h.3c.1 0 .2.1.2.2s.1.2.1.2c0 .1 0 .3-.1.4h.5c-.1-.1-.1-.2-.1-.4 0-.1 0-.2.1-.3s.2-.1.3-.1.2 0 .2.1c.1 0 .1.1.2.2v-.2c0-.1 0-.2-.1-.2 0-.1-.1-.1-.2-.2h-.4l-.2.2c.1-.2.2-.4.2-.6.2-.3.1-.6-.1-.8m0 1.2v-1c.1.2.2.3.2.5s-.1.4-.2.5" class="st16"/><path d="M-34.8-203h-1.3c0 .1.1.1.2.2h1.1c-.1-.1 0-.1 0-.2m.9.2h1.1s.1-.1.1-.2H-34c0 .1 0 .1.1.2m-.2-9.8v-.2l-.1-.1h-.2s-.1 0-.2.1c0 0-.1.1-.1.2v.2s0 .1.1.1h.2c.1 0 .2 0 .2-.1s.1-.1.1-.2m0 2.4.2-.1-.1-.2h-.6l-.1.2.1.2.1-.1zm-1.1.1.1.1v-.2l-.2-.2-.6.2v.2l.2.2v-.1zm2 .1v.1l.2-.2v-.2l-.6-.2-.2.2v.2l.1-.1zm-2.8 4.1h-.9v.2h.8c.1-.1.1-.1.1-.2m3.3.2h.8v-.2h-.9c0 .1 0 .1.1.2m-1 0s.1-.1.1-.2h-1.5c0 .1 0 .1.1.2z" class="st16"/><path d="m-32.5-211.4-.7-.3-.2.3-.1.1h-.2s-.1 0-.1-.1v-.2l.1-.3-.7-.3-.7.3.1.3v.2l-.1.1h-.3v-.1l-.2-.3-.7.3.1.3v.2l-.1.1h-.2s-.1 0-.1-.1l-.2-.3-.5.2v-.1h-.3l.7 1.3c.1.2.2.5.1.8.2-.3.5-.5.8-.7l-.4-.3v.2l-.2.1-.2-.4c.6-.4 1.4-.7 2.1-.7v-.1l-.1-.1h-.2c-.7.1-1.4.3-1.9.7l-.3-.6.3-.1c0 .1.1.2.2.2h.3c.1 0 .2-.1.2-.2s.1-.2 0-.3l.4-.2c.2.3.4.3.5.2.1 0 .2-.1.2-.2v-.3l.2-.1c0 .2.1.5.2.7.1-.2.2-.5.2-.7l.2.1v.3c0 .1.1.2.2.2.2.1.4.1.5-.2l.4.2v.3c0 .1.1.2.2.2h.4s.1 0 .2-.1l.1-.1.3.1-.3.6c-.6-.4-1.3-.6-1.9-.7h-.2s-.1.1-.1.2c.8 0 1.5.3 2.1.7l-.2.4-.2-.1v-.2l-.4.3c.3.2.5.4.8.7 0-.3 0-.5.1-.8l.7-1.3h-.3v.1l-.5-.2-.2.3-.1.1h-.2s-.1 0-.1-.1v-.2zm-10.8 5.5v.1h.3v-.2h-.3c.1 0 0 0 0 .1m-.2 1 .1.5h.1v-.2l.4-.1v.2h.1v-.3h.4v.3s-.1 0-.2.1h.3l-.1-.8c-.1 0-.1 0-.1.2l-.9.1zm.5 1.8c.2.1.3.1.5 0 .1 0 .2 0 .2-.1.1 0 .1-.1.2-.2s.1-.3 0-.4c0-.1 0-.1-.1-.2 0-.1-.1-.1-.2-.2-.2-.1-.3-.1-.5 0-.1 0-.2 0-.2.1-.1 0-.1.1-.2.2 0 .1 0 .1-.1.2v.2c0 .1 0 .1.1.2.2.1.3.2.3.2m-.1-.6c.1-.1.2-.2.3-.2h.4s.1 0 .1.1v.4c-.1.1-.2.2-.3.2h-.4s-.1 0-.1-.1c0 0 0-.1-.1-.1v-.2zm1.2 1-.1-.5c-.1 0-.1.1 0 .2l-.8.3c-.1-.1-.1-.1-.2-.1l.2.4h.1v-.2l.8-.3zm.3 1.5h.2s.1 0 .1-.1v-.1c0-.1 0-.2-.1-.3 0 0 0-.1-.1-.1l-.1-.2-.1-.2c-.1 0 0 .1 0 .2l-.8.5c-.1-.1-.1-.1-.2-.1l.2.4h.1v-.2l.3-.2c0 .1.1.2.1.2.3.1.3.2.4.2m.1-.6s0 .1.1.1v.3h-.3s-.1 0-.1-.1c0 0-.1-.1-.1-.2zm.1 1.8h.3c.1 0 .2 0 .2-.1l.4-.3c.1.1.1.1.2 0l-.3-.4s0 .1.1.2l-.4.3c-.2.2-.3.2-.5 0s-.1-.3.1-.5l.4-.3.1.1-.3-.4v.2l-.4.3s-.1.1-.1.2c0 0-.1.1-.1.2s0 .2.1.3.1.2.2.2m.8.9h.2c.1 0 .2 0 .2-.1 0 0 .1-.1.1-.2s0-.2-.1-.2h.2s.1 0 .1-.1c.1-.1.2-.2 0-.4l-.4-.3v.2l-.6.6c-.1-.1-.1-.1-.2 0l.4.3zm.5-.9.1.1v.4h-.4l-.1-.1zm-.6.6.3-.3.1.1.1.1v.3h-.4zm1.5.1-.3-.3v.2l-.5.7h-.2l.6.5h.1s.1-.1.1-.2c0 0-.1.1-.2.1l-.3-.2.5-.7zm.7.6-.3-.3s0 .1.1.2l-.5.7h-.2l.4.2v-.1l-.1-.1.5-.7c.1 0 .1 0 .1.1m1 .9c0-.1 0-.2.1-.2v-.2c0-.1-.1-.1-.1-.2 0 0-.1-.1-.2-.1h-.4c-.1 0-.1.1-.2.1 0 0-.1.1-.1.2-.1.2-.1.3 0 .4 0 .1.1.1.1.2 0 0 .1.1.2.1 0 .2.2.4.3.5h.4-.2c-.2-.1-.3-.2-.4-.4.1 0 .2 0 .3-.1 0-.1.1-.2.2-.3m-.7.2s-.1 0-.1-.1c0 0 0-.1-.1-.1v-.3c.1-.3.3-.4.5-.3l.1.1v.4c0 .1 0 .1-.1.2.1.1-.1.2-.3.1m1.1.5s.1 0 .2.1h.4c.1-.1.2-.2.2-.3l.2-.5h.2l-.4-.1v.1s.1 0 .2.1l-.2.5c0 .1-.1.2-.2.2h-.2c-.3 0-.3 0-.4-.1 0 0-.1 0 0 0q-.15-.3 0-.3l.2-.5h.2v-.1l-.4-.2c0 .1 0 .1.1.2l-.2.5v.4c0-.1 0 0 .1 0" class="st16"/><path d="M-35.4-197.7v.2h.1s0-.1.1-.2v-.1l-.8-.1c0 .1 0 .1.1.1l-.1.9c-.1 0-.2 0-.2.1l.8.1v-.3h-.1s0 .1-.1.2h-.3l.1-.4h.3v-.1h-.4v-.4zm.8.6v.1h.5v-.1h-.3c-.1-.1-.2-.1-.2 0m1.2.4.5-.1v-.1h-.2l-.1-.7h-.1c-.1 0-.1 0-.2.1v.1h.2l.1.6c-.2 0-.3 0-.2.1m.5-.4v.1l.1.1h.4s.1 0 .1-.1c0 0 0-.1.1-.1v-.1c0-.1 0-.1-.1-.2 0 0-.1-.1-.2-.1l.1-.1v-.2c0-.1-.2-.2-.4-.2-.1 0-.2.1-.2.1v.2c0 .1 0 .1.1.2 0 0 .1.1.2.1-.1 0-.1.1-.2.1zm.1-.6v-.2s.1 0 .1-.1h.1l.1.1v.1s0 .1-.1.1c-.1.2-.1.1-.2 0m.2.3c.2 0 .3.1.3.2v.2h-.4v-.2c0-.1.1-.1.1-.2m.7.4.4-.2v-.1h-.2l-.2-.6h-.1c-.1 0-.1 0-.2.1h.2l.2.6c0 .1-.1.1-.1.2m.7-.4h.4s.1 0 .1-.1l.1-.1v-.3c0-.1-.1-.2-.2-.2h-.2s-.1 0-.1.1c0 0 0 .1-.1.1v-.4c0-.1.2-.2.3-.3v-.1c-.1 0-.2.1-.2.2-.1.1-.1.2-.2.2v.3c0 .1 0 .2.1.3-.2.2-.1.2 0 .3m.1-.5s0-.1 0 0h.2s.1.1.1.2v.3h-.3c-.1-.1-.2-.2-.2-.3v-.1c.1-.1.2-.1.2-.1m1.2-.3h.1v-.2h-.2v.2zm-13.4-9.6c0 .1-.1.2-.1.3v.3c.1.1.1.2.2.3.1 0 .2.1.2.1h.2c.1 0 .2 0 .2-.1.1 0 .1-.1.2-.2 0-.1.1-.1.1-.2v-.2c0-.1-.1-.1-.1-.2h-.1c.1.1.1.2.1.3 0 0 0 .1-.1.2l-.1.1c-.1 0-.2.1-.3 0-.1 0-.2-.1-.3-.2 0 0 0-.1-.1-.1zh.2v-.1c0 .1 0 0-.2.1.1 0 0 0 0 0m.4-.9c-.1 0-.1 0-.2.1v.1l.8.6v.1l.1-.4h-.1s0 .1-.1.1l-.2-.2.1-.4h.3v.2h.1l.1-.4c-.1 0-.1 0-.1.1zm.3.5-.4-.3h.5z" class="st16"/><path d="m-42.6-209.7-.3.4c.1 0 .1 0 .2-.1l.8.4v.2l.2-.4h-.1l-.1.1-.8-.4c.1-.1.1-.1.1-.2m.4-.6h.2c0-.1-.1-.1-.2-.2-.1.1-.1.2-.2.2-.1.2-.1.4.1.5h.4s.1 0 .1-.1l.1-.1s.1 0 .1-.1h.2v.3c0 .1-.1.1-.2.2h-.2l.2.2h.1c.1-.1.2-.2.2-.3.1-.2.1-.4-.1-.5h-.2c-.1 0-.2 0-.2.1l-.1.1h-.2c-.1 0-.1-.2 0-.3-.1.1-.1 0-.1 0m.6-1-.2.2c-.2.2-.1.4 0 .5h.4l.1-.1h.3v.3c0 .1-.1.1-.2.1s-.1 0-.2-.1c0 .1.1.1.2.2.1 0 .2-.1.3-.2.2-.2.1-.4 0-.5-.1 0-.1-.1-.2-.1s-.2 0-.2.1l-.1.1h-.2q-.15-.15 0-.3c-.1-.1-.1-.2 0-.2 0 .1.1.1.1.1 0-.1 0-.1-.1-.1m.7-.7s.1 0 .2.1c0 0-.1-.1-.1-.2h-.1l-.5.6h.2l.6.6c-.1.1-.1.1 0 .2l.5-.6v-.1s-.1-.1-.2-.1c0 0 0 .1.1.2l-.2.3-.3-.3.2-.2-.2.3-.3-.2zm1.2.1.4-.3c.1 0 .1-.1.2-.2 0-.1.1-.1.1-.2 0-.2 0-.3-.1-.4 0-.1-.1-.1-.2-.2-.1 0-.1-.1-.2-.1h-.2c-.1 0-.1.1-.2.1l-.4.3h.2l.5.7zm-.3-1 .2-.1s.1-.1.2-.1h.2s.1 0 .2.1l.1.1c.1.1.1.2.1.3v.2l-.1.1-.1.1h-.1zm1.3.3.7-.4v-.1s-.1-.1-.1-.2v.2l-.3.2-.2-.4.2-.1h-.1l-.2.1-.1-.1h-.2l.4.6c-.2.1-.2.2-.1.2m1.3-.8-.1.1h-.2s-.1-.1-.1-.2c0 .1 0 .2.1.3h.3c.1 0 .2-.1.2-.2zm9.4 12.5-.3.3.1-.1.2.2v-.2l-.1-.1c.1 0 .1 0 .1-.1m0 .7-.6-.1s0 .1.1.1l.6.5v-.2l-.5-.4.5.1zm-.7 1.3s-.1-.1-.2-.1c0 .1.1.2.2.2s.2-.1.2-.2c.2-.2.2-.3.1-.5 0 0-.1-.1-.2-.1h-.6s-.1 0-.1-.1v-.3h.1s.1-.1.2-.1c0 0 .1.1.2.1 0-.1-.1-.2-.2-.2s-.2.1-.3.2l-.2.2v.2s0 .1.1.1c0 0 .1.1.2.1h.5c.1.1 0 .2 0 .3.1.2.1.2 0 .2" class="st16"/><path d="M-28-198.4c-2 1.7-4.5 2.5-7.1 2.2-2.6-.2-5-1.4-6.6-3.4-1.7-2-2.5-4.5-2.3-7.1s1.4-5 3.4-6.6h-1.2c-1.9 1.9-3 4.4-3.1 7.1s.8 5.3 2.6 7.3c1.7 2 4.2 3.3 6.8 3.6s5.3-.4 7.4-2z" class="st16"/><g id="Calque_2_2_"><path d="M40.1-156c-22 0-39.9-17.9-39.9-39.9s17.9-39.9 39.9-39.9S80-217.9 80-195.9 62.1-156 40.1-156m0-77.7c-20.8 0-37.7 16.9-37.7 37.7s16.9 37.7 37.7 37.7 37.7-16.9 37.7-37.7-16.9-37.7-37.7-37.7" class="st15"/><path d="M40.1-175.6c-11.2 0-20.3-9.1-20.3-20.3s9.1-20.3 20.3-20.3 20.3 9.1 20.3 20.3-9.1 20.3-20.3 20.3m0-39.8c-10.8 0-19.5 8.8-19.5 19.5 0 10.8 8.8 19.5 19.5 19.5s19.5-8.8 19.5-19.5c0-10.8-8.8-19.5-19.5-19.5" class="st15"/><path d="m53.32-188.913 6.7-11.605 6.235 3.6-6.7 11.605z" class="st17"/><path d="m47.053-192.502 6.7-11.605 6.235 3.6-6.7 11.605z" class="st15"/><path d="m40.7-196.137 6.7-11.604 6.236 3.6-6.7 11.604z" class="st18"/><path d="m47.7-206.7 17.5 10.1-5.9 10.3-17.5-10.1zm-.3-1-6.7 11.6 18.8 10.9 6.7-11.6z" class="st18"/><path d="m34.354-185.568 13.303-23.035.693.4-13.303 23.035zM13.796-196.943l18.793-10.85 6.7 11.605-18.793 10.85z" class="st18"/><path d="m28.6-192 .2-.5h.6l-.4-.3.2-.5-.5.2-.4-.3.1.5-.4.3h.5zm-4.2-7.6.2-.5.6.1-.5-.4.3-.5-.5.3-.4-.4.1.6-.5.2.6.1zm-1.8 6 .2-.5.5.1-.4-.4.3-.5-.5.3-.4-.4.1.6-.5.3h.6zm7.8-4.5.2-.5h.6l-.4-.3.2-.5-.5.3-.4-.4.1.5-.4.3h.5zm-3.7-2.1.2-.5h.5l-.4-.3.3-.5-.5.3-.4-.4.1.5-.5.3h.6zm2.2.6.2-.5h.5l-.4-.4.3-.4-.5.2-.4-.3.1.5-.5.3h.6zm1.9 3.6.3-.5.5.1-.4-.4.3-.5-.5.3-.4-.3.1.5-.5.3h.5zm-.6 2.3.3-.5h.5l-.4-.3.3-.5-.5.2-.4-.3.1.5-.5.3h.5zm-3.8 2.2.3-.5h.5l-.4-.4.3-.4-.5.2-.4-.3.1.5-.5.3h.5zm-2.1-.7.2-.5.6.1-.4-.4.2-.5-.5.3-.4-.3.1.5-.5.3h.6zm-2.3-3.5.2-.5.6.1-.4-.4.2-.5-.5.3-.4-.3.1.5-.5.3h.6zm.5-2.1.3-.5h.5l-.4-.3.3-.5-.5.3-.4-.4.1.5-.5.3h.5z" class="st19"/><path d="m31.738-208.11.693-.4 13.3 23.037-.693.4z" class="st18"/><path d="m10-210.4 2.9-5 1.4.8-1.9 3.3 2 1.2 1.6-2.8 1.4.8-1.6 2.8 3.6 2.1-1 1.7zm6.2-9 2.3-1.9c1.7-1.4 3.4-1.4 4.6 0 .8.9.9 2 .4 3l5.2 1.4-1.8 1.5-4.6-1.4-.8.7 2.6 3.1-1.5 1.3zm2.6 0 1.6 2 .9-.7c.6-.5.7-1.2.2-1.9-.5-.6-1.2-.6-1.8-.1zm11.6-8.4 2.5-.7 6.1 8.6-2.1.5-1.6-2.2-3.8 1-.3 2.7-2.1.5zm4 4.7-2.2-3.2-.4 3.9zm8-6.3 2.5.5 2.9 7.9 1.5-7 2 .4-2 9.7-2.5-.5-2.9-7.9-1.5 7-2-.4zm16.5 14.7.5 1.9c-1.5.4-3.1.1-4.5-1-2.4-1.9-2.6-5.1-.9-7.3s4.9-2.8 7.3-.9c1.4 1.1 2.1 2.6 2 4.1h-2c.1-1-.3-2-1.2-2.7-1.5-1.1-3.4-.8-4.6.7s-1 3.4.4 4.6c1 .8 2.1.9 3 .6m8.9.1 2.8 5-1.5.8-1.8-3.3-2 1.1 1.5 2.8-1.5.8-1.5-2.8-2.2 1.2 1.8 3.3-1.5.8-2.8-5zM17.2-188.5l1.3 2.7c1 1.9.6 3.6-1.1 4.5q-1.65.75-3-.3l-2.5 4.7-1-2.1 2.4-4.1-.5-.9-3.6 1.8-.9-1.8zm-.6 2.6-2.3 1.1.5 1q.6 1.2 1.8.6c.7-.3.9-1 .5-1.8zm5 5.3 4.1 4-1.2 1.2-2.7-2.6-1.6 1.7 2.3 2.2-1.2 1.2-2.3-2.2-1.8 1.8 2.7 2.6-1.2 1.2-4.1-4zm5.9 5 1.8.9-3.5 7.2 3.4 1.6-.8 1.6-5.2-2.5zm9.3 3.3 2.6.2 2.9 10.1-2.1-.2-.7-2.6-3.9-.3-1.2 2.5-2.1-.2zm2.2 5.8-1-3.8-1.7 3.6zm5-5.5 2.4-.9 6.6 5.2-2.5-6.7 1.9-.7 3.4 9.3-2.4.9-6.6-5.2 2.5 6.7-1.9.7zm20-4.4 2-.3c.2 1.5-.3 3.1-1.5 4.4-2.2 2.2-5.4 2-7.4 0s-2.2-5.2 0-7.4c1.3-1.3 2.9-1.7 4.4-1.5l-.3 2c-1-.2-2 .1-2.8.9-1.3 1.3-1.2 3.3.1 4.6s3.3 1.4 4.6.1c.8-.8 1.1-1.9.9-2.8m-3.4-7.3L63-189l1.5.7-1.5 3.4 2.1 1 1.3-2.9 1.5.7-1.3 2.9 2.3 1 1.5-3.4 1.5.7-2.4 5.2z" class="st15"/></g><g id="g230" transform="translate(-19.222 -22.188)scale(.84514)"><g id="g86"><path id="path4" d="M-505.5 15.6h4.4l6.5 17h-3.6l-1.7-4.4h-6.8l-1.7 4.4h-3.6zm4.6 9.7-2.4-6.5-2.4 6.5z" class="st15"/><path id="path6" d="M-480.3 28.3v-2.9h-4.2v-3.1h7.8v7.1c-1.5 2-4.2 3.4-7.5 3.4-5.4 0-9.2-4.1-9.2-9 0-4.8 3.6-9 9-9 3.1 0 5.6 1.4 7.1 3.4l-2.7 2c-1-1.4-2.5-2.4-4.4-2.4-3.2 0-5.4 2.5-5.4 5.8s2.4 5.8 5.8 5.8c1.3.4 2.6-.1 3.7-1.1" class="st15"/><path id="path8" d="M-472.9 15.6h9.8v2.9h-6.5v3.9h5.4v2.9h-5.4v4.2h6.5v2.9h-9.8z" class="st15"/><path id="path10" d="M-458.8 15.6h4.4l7.6 12.1V15.6h3.4v17h-4.4l-7.6-12.2v12.2h-3.4z" class="st15"/><path id="path12" d="m-426.4 27.5 2.7 2c-1.5 2-4.1 3.4-7.1 3.4-5.3 0-9-4.1-9-9 0-4.8 3.6-9 9-9 3.1 0 5.6 1.4 7.1 3.4l-2.7 2c-1-1.4-2.5-2.4-4.4-2.4-3.2 0-5.4 2.5-5.4 5.8s2.2 5.8 5.4 5.8c1.9.3 3.4-.7 4.4-2" class="st15"/><path id="path14" d="M-420.6 15.6h9.8v2.9h-6.5v3.9h5.4v2.9h-5.4v4.2h6.5v2.9h-9.8z" class="st15"/><path id="path16" d="M-509.9 41.6h4.4l7.6 12.1V41.6h3.4v17h-4.4l-7.6-12.2v12.2h-3.4z" class="st15"/><path id="path18" d="M-485.1 41.6h4.4l6.5 17h-3.6l-1.7-4.4h-6.8l-1.7 4.4h-3.6zm4.6 9.5-2.4-6.3-2.4 6.3z" class="st15"/><path id="path20" d="M-474.7 41.6h13.9v3.1h-5.3v13.8h-3.4V44.6h-5.3v-3z" class="st15"/><path id="path22" d="M-457.6 41.6h3.4v17h-3.4z" class="st15"/><path id="path24" d="M-432.6 50c0 4.8-3.6 9-9 9-5.3 0-9-4.1-9-9 0-4.8 3.6-9 9-9 5.2 0 9 4.1 9 9m-3.6 0c0-3.2-2.2-5.8-5.4-5.8s-5.4 2.5-5.4 5.8 2.2 5.8 5.4 5.8c3 0 5.4-2.5 5.4-5.8" class="st15"/><path id="path26" d="M-429.2 41.6h4.4l7.6 12.1V41.6h3.4v17h-4.4l-7.6-12.2v12.2h-3.4z" class="st15"/><path id="path28" d="M-404.5 41.6h4.4l6.5 17h-3.6l-1.7-4.4h-6.8l-1.7 4.4h-3.6zm4.6 9.5-2.4-6.3-2.4 6.3z" class="st15"/><path id="path30" d="M-390.7 41.6h3.4v13.8h6.5v3.1h-9.8V41.6z" class="st15"/><path id="path32" d="M-377.6 41.6h9.8v2.9h-6.3v3.9h5.4v2.9h-5.4v4.4h6.5v2.9h-9.8v-17z" class="st15"/><path id="path34" d="M-509.5 67.5h6.5c5.3 0 8.8 3.9 8.8 8.5s-3.6 8.5-8.8 8.5h-6.5zm1.5 1.4V83h4.9c4.2 0 7.1-3.2 7.1-7.1s-3.1-7.1-7.1-7.1z" class="st15"/><path id="path36" d="M-490 67.5h8.7v1.4h-7.1v6.3h6.1v1.4h-6.1v6.6h7.1v1.4h-8.7z" class="st15"/><path id="path38" d="M-470.2 67.5h1.5V83h7.1v1.4h-8.7z" class="st15"/><path id="path40" d="M-452.7 67.5h2l7 17h-1.7l-2.2-5.3h-8.5l-2.2 5.3h-1.7zm4.8 10.2-3.6-9-3.7 9z" class="st15"/><path id="path42" d="m-421.8 79.4 2.7 2c-1.5 2-4.1 3.4-7.1 3.4-5.3 0-9-4.1-9-9 0-4.8 3.6-9 9-9 3.1 0 5.6 1.4 7.1 3.4l-2.7 2c-1-1.4-2.5-2.4-4.4-2.4-3.2 0-5.4 2.5-5.4 5.8 0 3.2 2.2 5.8 5.4 5.8 1.9.2 3.4-.6 4.4-2" class="st15"/><path id="path44" d="M-399.4 75.9c0 4.8-3.6 9-9 9-5.3 0-9-4.1-9-9 0-4.8 3.6-9 9-9 5.3.1 9 4.2 9 9m-3.5 0c0-3.2-2.2-5.8-5.4-5.8s-5.4 2.5-5.4 5.8c0 3.2 2.2 5.8 5.4 5.8 3-.1 5.4-2.5 5.4-5.8" class="st15"/><path id="path46" d="M-396 67.5h3.4v6.8h8.5v-6.8h3.4v17h-3.4v-7.1h-8.5v7.1h-3.4z" class="st15"/><path id="path48" d="M-375.4 67.5h9.8v2.9h-6.5v3.9h5.4v2.9h-5.4v4.2h6.5v3.1h-9.8zm3.2-1.5 2.7-3.2h3.6l-3.2 3.2z" class="st15"/><path id="path50" d="M-360.5 79.8c1 1.4 2.4 2 3.7 2s2.2-.7 2.2-2c0-3.1-7.8-2.4-7.8-8 0-2.7 2.2-4.9 5.4-4.9 2.5 0 4.4 1.2 5.9 2.9l-2.5 2.2c-1-1.4-2-2-3.4-2-1.2 0-1.9.8-1.9 1.7 0 3.1 7.8 2.4 7.8 8.1 0 3.1-2.5 5.1-5.6 5.1-2.9 0-4.8-1-6.3-2.9z" class="st15"/><path id="path52" d="M-347.2 67.5h3.4v17h-3.4z" class="st15"/><path id="path54" d="M-322.3 75.9c0 4.8-3.6 9-9 9-5.3 0-9-4.1-9-9 0-4.8 3.6-9 9-9 5.5.1 9 4.2 9 9m-3.4 0c0-3.2-2.2-5.8-5.4-5.8s-5.4 2.5-5.4 5.8c0 3.2 2.2 5.8 5.4 5.8 3.1-.1 5.4-2.5 5.4-5.8" class="st15"/><path id="path56" d="M-318.7 67.5h4.4l7.6 12.1V67.5h3.4v17h-4.4l-7.6-12.2v12.2h-3.4z" class="st15"/><path id="path58" d="M-509.5 93.3h6.5c5.3 0 8.8 3.9 8.8 8.5s-3.6 8.5-8.8 8.5h-6.5zm1.5 1.6V109h4.9c4.2 0 7.1-3.2 7.1-7.1s-3.1-7.1-7.1-7.1z" class="st15"/><path id="path60" d="M-490 93.3h8.7v1.4h-7.1v6.3h6.1v1.4h-6.1v6.6h7.1v1.4h-8.7z" class="st15"/><path id="path62" d="M-476.8 106.9c1.4 1.7 2.7 2.4 4.4 2.4 2.2 0 3.4-1.5 3.4-3.2 0-4.1-8.1-3.7-8.1-9 0-2.2 1.9-4.2 4.6-4.2 2.2 0 3.9 1 5.1 2.7l-1.2 1c-1-1.5-2.2-2.2-3.9-2.2-1.9 0-3.1 1.2-3.1 2.9 0 4.1 8.1 3.7 8.1 9 0 2.7-2 4.6-4.9 4.6-2.4 0-4.1-.8-5.6-2.7z" class="st15"/><path id="path64" d="M-458.1 93.3h13.9v3.1h-5.3v13.8h-3.4V96.4h-5.3z" class="st15"/><path id="path66" d="M-441 93.3h9.8v3.1h-6.5v3.9h5.4v2.9h-5.4v4.2h6.5v2.9h-9.8z" class="st15"/><path id="path68" d="M-426.9 93.3h5.3c3.7 0 6.1 1.9 6.1 5.1 0 2-1 3.6-2.7 4.4l5.3 7.5h-4.1l-4.4-6.8h-1.7v6.8h-3.4zm3.6 3.1v4.2h1.9c1.5 0 2.4-.8 2.4-2.2s-.8-2-2.4-2z" class="st15"/><path id="path70" d="M-410.6 93.3h5.3c3.7 0 6.1 1.9 6.1 5.1 0 2-1 3.6-2.7 4.4l5.3 7.5h-4.1l-4.4-6.8h-1.7v6.8h-3.4zm3.4 3.1v4.2h1.9c1.5 0 2.4-.8 2.4-2.2s-.8-2-2.4-2z" class="st15"/><path id="path72" d="M-394.4 93.3h3.4v17h-3.4z" class="st15"/><path id="path74" d="M-387.8 93.3h13.9v3.1h-5.3v13.8h-3.4V96.4h-5.1z" class="st15"/><path id="path76" d="M-354.9 101.8c0 4.8-3.6 9-9 9-5.3 0-9-4.1-9-9s3.6-9 9-9c5.5 0 9 4.3 9 9m-3.4 0c0-3.2-2.2-5.8-5.4-5.8s-5.4 2.5-5.4 5.8c0 3.2 2.2 5.8 5.4 5.8 3.1 0 5.4-2.5 5.4-5.8" class="st15"/><path id="path78" d="M-351.3 93.3h3.4v17h-3.4z" class="st15"/><path id="path80" d="M-342.8 93.3h5.3c3.7 0 6.1 1.9 6.1 5.1 0 2-1 3.6-2.7 4.4l5.3 7.5h-4.1l-4.4-6.8h-1.7v6.8h-3.4zm3.4 3.1v4.2h1.9c1.5 0 2.4-.8 2.4-2.2s-.8-2-2.4-2z" class="st15"/><path id="path82" d="M-326.7 93.3h9.8v3.1h-6.5v3.9h5.4v2.9h-5.4v4.2h6.5v2.9h-9.8z" class="st15"/><path id="path84" d="M-311.6 105.7c1 1.4 2.4 2 3.7 2s2.2-.7 2.2-2c0-3.1-7.8-2.4-7.8-8 0-2.7 2.2-4.9 5.4-4.9 2.5 0 4.4 1.2 5.9 2.9l-2.5 2.2c-1-1.4-2-2-3.4-2-1.2 0-1.9.8-1.9 1.7 0 3.1 7.8 2.4 7.8 8.1 0 3.1-2.5 5.1-5.6 5.1-2.9 0-4.8-1-6.3-2.9z" class="st15"/></g></g><g id="g230_1_" transform="translate(-19.222 -22.188)scale(.84514)"><g id="g86_1_"><path id="path4_1_" d="M-505.5-229.1h4.4l6.5 17h-3.6l-1.7-4.4h-6.8l-1.7 4.4h-3.6zm4.6 9.7-2.4-6.5-2.4 6.5z" class="st15"/><path id="path6_1_" d="M-480.3-216.4v-2.9h-4.2v-3.1h7.8v7.1c-1.5 2-4.2 3.4-7.5 3.4-5.4 0-9.2-4.1-9.2-9 0-4.8 3.6-9 9-9 3.1 0 5.6 1.4 7.1 3.4l-2.7 2c-1-1.4-2.5-2.4-4.4-2.4-3.2 0-5.4 2.5-5.4 5.8 0 3.2 2.4 5.8 5.8 5.8 1.3.4 2.6-.1 3.7-1.1" class="st15"/><path id="path8_1_" d="M-472.9-229.1h9.8v2.9h-6.5v3.9h5.4v2.9h-5.4v4.2h6.5v2.9h-9.8z" class="st15"/><path id="path10_1_" d="M-458.8-229.1h4.4l7.6 12.1v-12.1h3.4v17h-4.4l-7.6-12.2v12.2h-3.4z" class="st15"/><path id="path12_1_" d="m-426.4-217.2 2.7 2c-1.5 2-4.1 3.4-7.1 3.4-5.3 0-9-4.1-9-9 0-4.8 3.6-9 9-9 3.1 0 5.6 1.4 7.1 3.4l-2.7 2c-1-1.4-2.5-2.4-4.4-2.4-3.2 0-5.4 2.5-5.4 5.8 0 3.2 2.2 5.8 5.4 5.8 1.9.3 3.4-.7 4.4-2" class="st15"/><path id="path14_1_" d="M-420.6-229.1h9.8v2.9h-6.5v3.9h5.4v2.9h-5.4v4.2h6.5v2.9h-9.8z" class="st15"/><path id="path16_1_" d="M-509.9-203.1h4.4l7.6 12.1v-12.1h3.4v17h-4.4l-7.6-12.2v12.2h-3.4z" class="st15"/><path id="path18_1_" d="M-485.1-203.1h4.4l6.5 17h-3.6l-1.7-4.4h-6.8l-1.7 4.4h-3.6zm4.6 9.5-2.4-6.3-2.4 6.3z" class="st15"/><path id="path20_1_" d="M-474.7-203.1h13.9v3.1h-5.3v13.8h-3.4V-200h-5.3v-3.1z" class="st15"/><path id="path22_1_" d="M-457.6-203.1h3.4v17h-3.4z" class="st15"/><path id="path24_1_" d="M-432.6-194.7c0 4.8-3.6 9-9 9-5.3 0-9-4.1-9-9 0-4.8 3.6-9 9-9 5.2 0 9 4.1 9 9m-3.6 0c0-3.2-2.2-5.8-5.4-5.8s-5.4 2.5-5.4 5.8 2.2 5.8 5.4 5.8c3 0 5.4-2.5 5.4-5.8" class="st15"/><path id="path26_1_" d="M-429.2-203.1h4.4l7.6 12.1v-12.1h3.4v17h-4.4l-7.6-12.2v12.2h-3.4z" class="st15"/><path id="path28_1_" d="M-404.5-203.1h4.4l6.5 17h-3.6l-1.7-4.4h-6.8l-1.7 4.4h-3.6zm4.6 9.5-2.4-6.3-2.4 6.3z" class="st15"/><path id="path30_1_" d="M-390.7-203.1h3.4v13.8h6.5v3.1h-9.8v-16.9z" class="st15"/><path id="path32_1_" d="M-377.6-203.1h9.8v2.9h-6.3v3.9h5.4v2.9h-5.4v4.4h6.5v2.9h-9.8v-17z" class="st15"/><path id="path34_1_" d="M-509.5-177.2h6.5c5.3 0 8.8 3.9 8.8 8.5s-3.6 8.5-8.8 8.5h-6.5zm1.5 1.4v14.1h4.9c4.2 0 7.1-3.2 7.1-7.1s-3.1-7.1-7.1-7.1z" class="st15"/><path id="path36_1_" d="M-490-177.2h8.7v1.4h-7.1v6.3h6.1v1.4h-6.1v6.6h7.1v1.4h-8.7z" class="st15"/><path id="path38_1_" d="M-470.2-177.2h1.5v15.5h7.1v1.4h-8.7z" class="st15"/><path id="path40_1_" d="M-452.7-177.2h2l7 17h-1.7l-2.2-5.3h-8.5l-2.2 5.3h-1.7zm4.8 10.2-3.6-9-3.7 9z" class="st15"/><path id="path42_1_" d="m-421.8-165.3 2.7 2c-1.5 2-4.1 3.4-7.1 3.4-5.3 0-9-4.1-9-9 0-4.8 3.6-9 9-9 3.1 0 5.6 1.4 7.1 3.4l-2.7 2c-1-1.4-2.5-2.4-4.4-2.4-3.2 0-5.4 2.5-5.4 5.8 0 3.2 2.2 5.8 5.4 5.8 1.9.2 3.4-.6 4.4-2" class="st15"/><path id="path44_1_" d="M-399.4-168.8c0 4.8-3.6 9-9 9-5.3 0-9-4.1-9-9 0-4.8 3.6-9 9-9 5.3.1 9 4.2 9 9m-3.5 0c0-3.2-2.2-5.8-5.4-5.8s-5.4 2.5-5.4 5.8 2.2 5.8 5.4 5.8c3-.1 5.4-2.4 5.4-5.8" class="st15"/><path id="path46_1_" d="M-396-177.2h3.4v6.8h8.5v-6.8h3.4v17h-3.4v-7.1h-8.5v7.1h-3.4z" class="st15"/><path id="path48_1_" d="M-375.4-177.2h9.8v2.9h-6.5v3.9h5.4v2.9h-5.4v4.2h6.5v3.1h-9.8zm3.2-1.5 2.7-3.2h3.6l-3.2 3.2z" class="st15"/><path id="path50_1_" d="M-360.5-164.9c1 1.4 2.4 2 3.7 2s2.2-.7 2.2-2c0-3.1-7.8-2.4-7.8-8 0-2.7 2.2-4.9 5.4-4.9 2.5 0 4.4 1.2 5.9 2.9l-2.5 2.2c-1-1.4-2-2-3.4-2-1.2 0-1.9.8-1.9 1.7 0 3.1 7.8 2.4 7.8 8.1 0 3.1-2.5 5.1-5.6 5.1-2.9 0-4.8-1-6.3-2.9z" class="st15"/><path id="path52_1_" d="M-347.2-177.2h3.4v17h-3.4z" class="st15"/><path id="path54_1_" d="M-322.3-168.8c0 4.8-3.6 9-9 9-5.3 0-9-4.1-9-9 0-4.8 3.6-9 9-9 5.5.1 9 4.2 9 9m-3.4 0c0-3.2-2.2-5.8-5.4-5.8s-5.4 2.5-5.4 5.8 2.2 5.8 5.4 5.8c3.1-.1 5.4-2.4 5.4-5.8" class="st15"/><path id="path56_1_" d="M-318.7-177.2h4.4l7.6 12.1v-12.1h3.4v17h-4.4l-7.6-12.2v12.2h-3.4z" class="st15"/><path id="path58_1_" d="M-509.5-151.4h6.5c5.3 0 8.8 3.9 8.8 8.5s-3.6 8.5-8.8 8.5h-6.5zm1.5 1.6v14.1h4.9c4.2 0 7.1-3.2 7.1-7.1s-3.1-7.1-7.1-7.1z" class="st15"/><path id="path60_1_" d="M-490-151.4h8.7v1.4h-7.1v6.3h6.1v1.4h-6.1v6.6h7.1v1.4h-8.7z" class="st15"/><path id="path62_1_" d="M-476.8-137.8c1.4 1.7 2.7 2.4 4.4 2.4 2.2 0 3.4-1.5 3.4-3.2 0-4.1-8.1-3.7-8.1-9 0-2.2 1.9-4.2 4.6-4.2 2.2 0 3.9 1 5.1 2.7l-1.2 1c-1-1.5-2.2-2.2-3.9-2.2-1.9 0-3.1 1.2-3.1 2.9 0 4.1 8.1 3.7 8.1 9 0 2.7-2 4.6-4.9 4.6-2.4 0-4.1-.8-5.6-2.7z" class="st15"/><path id="path64_1_" d="M-458.1-151.4h13.9v3.1h-5.3v13.8h-3.4v-13.8h-5.3z" class="st15"/><path id="path66_1_" d="M-441-151.4h9.8v3.1h-6.5v3.9h5.4v2.9h-5.4v4.2h6.5v2.9h-9.8z" class="st15"/><path id="path68_1_" d="M-426.9-151.4h5.3c3.7 0 6.1 1.9 6.1 5.1 0 2-1 3.6-2.7 4.4l5.3 7.5h-4.1l-4.4-6.8h-1.7v6.8h-3.4zm3.6 3.1v4.2h1.9c1.5 0 2.4-.8 2.4-2.2s-.8-2-2.4-2z" class="st15"/><path id="path70_1_" d="M-410.6-151.4h5.3c3.7 0 6.1 1.9 6.1 5.1 0 2-1 3.6-2.7 4.4l5.3 7.5h-4.1l-4.4-6.8h-1.7v6.8h-3.4zm3.4 3.1v4.2h1.9c1.5 0 2.4-.8 2.4-2.2s-.8-2-2.4-2z" class="st15"/><path id="path72_1_" d="M-394.4-151.4h3.4v17h-3.4z" class="st15"/><path id="path74_1_" d="M-387.8-151.4h13.9v3.1h-5.3v13.8h-3.4v-13.8h-5.1z" class="st15"/><path id="path76_1_" d="M-354.9-142.9c0 4.8-3.6 9-9 9-5.3 0-9-4.1-9-9s3.6-9 9-9c5.5 0 9 4.3 9 9m-3.4 0c0-3.2-2.2-5.8-5.4-5.8s-5.4 2.5-5.4 5.8c0 3.2 2.2 5.8 5.4 5.8 3.1 0 5.4-2.5 5.4-5.8" class="st15"/><path id="path78_1_" d="M-351.3-151.4h3.4v17h-3.4z" class="st15"/><path id="path80_1_" d="M-342.8-151.4h5.3c3.7 0 6.1 1.9 6.1 5.1 0 2-1 3.6-2.7 4.4l5.3 7.5h-4.1l-4.4-6.8h-1.7v6.8h-3.4zm3.4 3.1v4.2h1.9c1.5 0 2.4-.8 2.4-2.2s-.8-2-2.4-2z" class="st15"/><path id="path82_1_" d="M-326.7-151.4h9.8v3.1h-6.5v3.9h5.4v2.9h-5.4v4.2h6.5v2.9h-9.8z" class="st15"/><path id="path84_1_" d="M-311.6-139c1 1.4 2.4 2 3.7 2s2.2-.7 2.2-2c0-3.1-7.8-2.4-7.8-8 0-2.7 2.2-4.9 5.4-4.9 2.5 0 4.4 1.2 5.9 2.9l-2.5 2.2c-1-1.4-2-2-3.4-2-1.2 0-1.9.8-1.9 1.7 0 3.1 7.8 2.4 7.8 8.1 0 3.1-2.5 5.1-5.6 5.1-2.9 0-4.8-1-6.3-2.9z" class="st15"/></g></g><g id="LEF" transform="translate(0 75.236)"><path id="Shape" d="M-559.1-215.9c.4 0 .8.3.6 1.1l-1.9.5c.2-1 .8-1.6 1.3-1.6m1.1 3.1h-.4c-.5.6-1 1-1.5 1s-.8-.3-.8-1c0-.3 0-.6.1-.9l3.2-1c.6-1.5-.1-2.1-1-2.1-1.5 0-3.2 2.6-3.2 4.7 0 1 .5 1.5 1.2 1.5s1.6-.8 2.4-2.2m-.6-4.7 1.8-1.6v-.2h-1.2l-1.1 1.9zm-6.7 1.6h1l-1.7 4.6c-.2.4.1.8.5.8 1.2 0 2.6-1 3.1-2.4h-.3c-.4.6-1.4 1.3-2 1.4l1.5-4.3h1.6l.2-.7h-1.5l.6-1.6h-.6l-1.1 1.6-1.3.2zm-1.1-.2c.1-.4-.2-.7-.4-.7-.9 0-2 .8-2.4 2h.3c.3-.4.8-.9 1.3-1l-1.8 4.6c-.2.4.2.7.4.7.9 0 1.9-.8 2.3-2h-.3c-.3.4-.8.9-1.3 1zm.2-1.9c.4 0 .7-.3.7-.7s-.3-.7-.7-.7-.7.3-.7.7.3.7.7.7m-8.5 2.5c.3 0 .4.4 0 1.4l-1.2 2.7c-.2.5 0 .8.5.8.3 0 .4-.1.6-.4l1.2-3.2c.6-.7 1.6-1.4 2.1-1.4.3 0 .3.3.1.7l-1.9 3.6c-.2.3.1.8.5.8.9 0 2-.8 2.4-2h-.3c-.3.4-.8.9-1.3 1l1.6-3.2c.2-.4.3-.8.3-1.1 0-.5-.3-.9-.8-.9-.8 0-1.5.9-2.4 2v-.8c0-.6-.2-1.1-.7-1.1-.6 0-1.2 1-1.7 2h.3c.2-.7.5-.9.7-.9m-1.2.1c.2-.8.1-1.4-.5-1.4-.7 0-.9.5-1.6 2v-.8c0-.6-.2-1.1-.7-1.1-.6 0-1.2 1-1.7 2h.3c.3-.4.6-.7.8-.7.3 0 .4.4 0 1.4l-1.2 2.7c-.2.5 0 .8.5.8.3 0 .4-.1.6-.4l1.2-3.2c.3-.4.7-.8 1-1.2zm-6.8-.5c.4 0 .8.3.6 1.1l-1.9.5c.3-1 .9-1.6 1.3-1.6m1.1 3.1h-.4c-.5.6-1 1-1.5 1s-.8-.3-.8-1c0-.3 0-.6.1-.9l3.2-1c.6-1.5-.1-2.1-1-2.1-1.5 0-3.2 2.6-3.2 4.7 0 1 .5 1.5 1.2 1.5.8 0 1.7-.8 2.4-2.2m-7.2-3.1h1l-1.7 4.6c-.2.4.1.8.5.8 1.2 0 2.6-1 3.1-2.4h-.3c-.4.6-1.4 1.3-2 1.4l1.5-4.3h1.6l.2-.7h-1.5l.6-1.6h-.6l-1.1 1.6-1.3.2zm-5.6 3.5c0-1.4 1.6-3.3 2.5-3.3.2 0 .4 0 .5.1l-.9 2.4c-.5.6-1.3 1.4-1.7 1.4-.2 0-.4-.1-.4-.6m4.8-4.7h-.5l-.5.5h-.1c-2.3 0-4.8 2.9-4.8 5.1 0 .5.3.9.8.9.7 0 1.3-1 2.1-2v.4c-.1 1 .2 1.6.8 1.6s1.2-1 1.7-2h-.3c-.3.4-.6.7-.8.7s-.4-.4 0-1.4zm-4.9 1.7c.2-.8.1-1.4-.5-1.4-.7 0-.9.5-1.6 2v-.8c0-.6-.2-1.1-.8-1.1s-1.2 1-1.7 2h.3c.3-.4.6-.7.8-.7.3 0 .4.4 0 1.4l-1.3 2.8c-.2.5 0 .8.5.8.3 0 .4-.1.6-.4l1.2-3.2c.3-.4.7-.8 1-1.2zm-8.1 4.6.1-.3c-1.5-.3-1.7-.3-1.1-1.9l.6-1.6h1.2c.8 0 .8.3.7 1.2h.4l1-2.8h-.4c-.4.7-.7 1.2-1.5 1.2h-1.2l.8-2.3c.3-.8.4-1 1.5-1h.3c1.1 0 1.2.3 1.2 1.4h.4l.3-1.9h-5.9l-.1.3c1.2.3 1.3.4.8 1.9l-1.3 3.4c-.6 1.6-.8 1.7-2.2 1.9l-.1.3z" class="st15"/><path id="Shape_1_" d="M-573.4-229.2c.4 0 .8.3.6 1.1l-1.9.5c.3-1 .9-1.6 1.3-1.6m1.1 3.1h-.4c-.5.6-1 1-1.5 1s-.8-.3-.8-1c0-.3 0-.6.1-.9l3.2-1c.6-1.5-.1-2.1-1-2.1-1.5 0-3.2 2.6-3.2 4.7 0 1 .5 1.5 1.2 1.5.8 0 1.7-.8 2.4-2.2m-.5-4.7 1.8-1.6v-.2h-1.2l-1.1 1.9zm-6.7 1.6h1l-1.7 4.6c-.2.4.1.8.5.8 1.2 0 2.6-1 3.1-2.4h-.3c-.4.6-1.4 1.3-2 1.4l1.5-4.3h1.6l.2-.7h-1.5l.6-1.6h-.6l-1.1 1.6-1.3.2zm-1.1-.2c.1-.4-.2-.7-.4-.7-.9 0-2 .8-2.4 2h.3c.3-.4.8-.9 1.3-1l-1.8 4.6c-.2.4.2.7.4.7.9 0 1.9-.8 2.3-2h-.3c-.3.4-.8.9-1.3 1zm.2-1.8c.4 0 .7-.3.7-.7s-.3-.7-.7-.7-.7.3-.7.7c0 .3.3.7.7.7m-5.6 6.3 2.9-7.7-.1-.1-2 .2v.2l.4.3c.3.3.2.5-.1 1.4l-2.2 5.9c-.2.3.1.8.5.8.9 0 1.9-.8 2.3-2h-.3c-.3.5-1 .9-1.4 1m-5.9-.8c0-1.4 1.6-3.3 2.5-3.3.2 0 .4 0 .5.1l-.9 2.4c-.5.6-1.3 1.4-1.7 1.4-.3.1-.4-.1-.4-.6m4.8-4.6h-.5l-.5.5h-.1c-2.3 0-4.8 2.9-4.8 5.1 0 .5.3.9.8.9.7 0 1.3-1 2.1-2v.4c-.1 1 .2 1.6.8 1.6s1.2-1 1.7-2h-.3c-.3.4-.6.7-.8.7s-.4-.4 0-1.4zm-11.2 7.5c0-.6.6-1 1.4-1.3.3.1.7.3 1.2.5.9.3 1.2.4 1.2.7 0 .6-.8 1-2.2 1-1.1-.1-1.6-.3-1.6-.9m2.4-3.6c-.4 0-.5-.3-.5-.7 0-1.1.5-2.5 1.4-2.5.4 0 .5.3.5.7 0 1.1-.6 2.5-1.4 2.5m2.4 3.1c0-.7-.7-1-1.7-1.3-.9-.3-1.3-.3-1.3-.7 0-.2.2-.5.6-.7 1.5-.1 2.5-1.4 2.5-2.6 0-.2 0-.4-.1-.6h1l.2-.7h-1.7c-.2-.2-.5-.2-.8-.2-1.6 0-2.6 1.4-2.6 2.6 0 .8.5 1.3 1.2 1.4-.7.3-1.2.7-1.2 1.2q0 .45.3.6c-1.7.5-2.4 1.1-2.4 1.9s1 1.1 2.3 1.1c2 .1 3.7-1.1 3.7-2m-7.8-4.7c.8 0 .8.3.7 1.2h.4l1-2.8h-.4c-.4.7-.7 1.2-1.5 1.2h-1.7l.8-2.3c.3-.8.4-1 1.5-1h.7c1.1 0 1.2.3 1.2 1.4h.4l.3-1.9h-6.3l-.1.3c1.2.3 1.3.4.8 1.9l-1.3 3.4c-.6 1.6-.8 1.7-2.2 1.9l-.1.3h7l1.3-2h-.5c-.8.8-1.6 1.5-3.2 1.5-1.9 0-1.7-.1-1.1-1.8l.6-1.6zm.9-4.7 1.8-1.3v-.2h-1.2l-1.1 1.5z" class="st15"/><path id="Shape_2_" d="M-573.6-242.5c.4 0 .8.3.6 1.1l-1.9.5c.3-1 .8-1.6 1.3-1.6m1.1 3.1h-.4c-.5.6-1 1-1.5 1s-.8-.3-.8-1c0-.3 0-.6.1-.9l3.2-1c.6-1.5-.1-2.1-1-2.1-1.5 0-3.2 2.6-3.2 4.7 0 1 .5 1.5 1.2 1.5.8 0 1.7-.8 2.4-2.2m-.5-4.7 1.8-1.6v-.2h-1.2l-1.1 1.9zm-6.7 1.6h1.1l-1.7 4.6c-.2.4.1.8.5.8 1.2 0 2.6-1 3.1-2.4h-.3c-.4.6-1.4 1.3-2 1.4l1.5-4.3h1.6l.2-.7h-1.5l.6-1.6h-.6l-1.1 1.6-1.3.2zm-.6.5c.2-.8.1-1.4-.5-1.4-.7 0-.9.5-1.6 2v-.8c0-.6-.2-1.1-.7-1.1-.6 0-1.2 1-1.7 2h.3c.3-.4.6-.7.8-.7.3 0 .4.4 0 1.4l-1.2 2.7c-.2.5 0 .8.5.8.3 0 .4-.1.6-.4l1.2-3.2c.3-.4.7-.8 1-1.2zm-6.7-.5c.4 0 .8.3.6 1.1l-1.9.5c.2-1 .8-1.6 1.3-1.6m1.1 3.1h-.4c-.5.6-1 1-1.5 1s-.8-.3-.8-1c0-.3 0-.6.1-.9l3.2-1c.6-1.5-.1-2.1-1-2.1-1.5 0-3.2 2.6-3.2 4.7 0 1 .5 1.5 1.2 1.5s1.6-.8 2.4-2.2m-7.4 1.3c-.3 0-.8-.3-.8-.5q0-.15.3-.9l.5-1.4c.5-.7 1.4-1.4 1.9-1.4.3 0 .5.2.5.6 0 1.3-1.2 3.6-2.4 3.6m3.5-4c0-.9-.2-1.3-.9-1.3-.8 0-1.6.9-2.3 1.9l1.6-4.4-.1-.1-2 .2v.2l.4.3c.3.3.2.5-.1 1.4l-1.8 4.6c-.2.4-.3.8-.3 1 0 .5.7 1.1 1.4 1.1 1.5 0 4.1-2.8 4.1-4.9m-5.9-.6c.1-.4-.2-.7-.4-.7-.9 0-2 .8-2.4 2h.3c.3-.4.8-.9 1.3-1l-1.8 4.6c-.2.4.2.7.4.7.9 0 1.9-.8 2.3-2h-.3c-.3.4-.8.9-1.3 1zm.2-1.8c.4 0 .7-.3.7-.7s-.3-.7-.7-.7-.7.3-.7.7.3.7.7.7m-4.5-.9h-4.2l-.1.3c1.2.3 1.3.4.8 1.9l-1.3 3.4c-.6 1.6-.8 1.7-2.2 1.9l-.1.3h6.3l1.4-2.5h-.5c-.8.9-1.7 2-3.1 2-1.1 0-1.2-.2-.6-1.8l1.3-3.4c.6-1.6.8-1.7 2.2-1.9z" class="st15"/></g><g id="RF" transform="translate(0 25.384)"><path id="FRANAISE" d="M-604.1-205.8v-6.1h4.7v-2.5h-4.7v-3.4h5.5v-2.5h-8.4v14.5zm10.3 0v-5.9h1.5l3.9 5.9h3.5l-4.6-6.4c.7-.3 1.3-.8 1.7-1.5.4-.6.6-1.4.6-2.3 0-1.3-.5-2.4-1.4-3.2s-2.2-1.2-3.8-1.2h-4.4v14.5h3zm1.7-8.4h-1.7v-3.6h1.7c.6 0 1.1.2 1.4.5s.5.8.5 1.3c0 .6-.2 1-.5 1.4-.3.3-.8.4-1.4.4m10.3 8.4 1.4-3.8h5.8l1.4 3.8h3.1l-5.5-14.5h-3.9l-5.5 14.5zm6.3-6.3h-4l2-5.4zm9.9 6.3v-10.4l6.5 10.4h3.8v-14.5h-2.9v10.4l-6.5-10.4h-3.8v14.5zm19.5 3.3 1.8-3c1-.1 2-.5 2.9-1s1.6-1.1 2.1-1.9l-2.3-1.8c-.4.6-.9 1.1-1.6 1.4-.6.4-1.4.5-2.2.5-.7 0-1.3-.1-1.9-.4s-1.1-.6-1.5-1-.7-1-1-1.6c-.2-.6-.4-1.2-.4-1.9s.1-1.3.4-1.9c.2-.6.6-1.1 1-1.6.4-.4.9-.8 1.5-1s1.2-.4 1.9-.4c.8 0 1.6.2 2.2.5.6.4 1.2.8 1.6 1.4l2.3-1.8c-.7-.9-1.5-1.6-2.6-2.1-1-.5-2.2-.8-3.5-.8-1.1 0-2.2.2-3.1.6-1 .4-1.8 1-2.4 1.7-.7.7-1.2 1.5-1.6 2.4s-.6 1.9-.6 3c0 .9.1 1.8.4 2.6s.7 1.6 1.3 2.3c.5.7 1.2 1.2 2 1.7s1.6.8 2.6.9l-1.8 3h2.5zm9.9-3.3 1.4-3.8h5.8l1.4 3.8h3.1l-5.5-14.5h-3.9l-5.5 14.5zm6.2-6.3h-4l2-5.4zm10 6.3v-14.5h-2.9v14.5zm7.5.4c.7 0 1.3-.1 1.9-.3q.9-.3 1.5-.9c.4-.4.8-.8 1-1.4.3-.5.4-1.1.4-1.8 0-1.2-.3-2.1-1-2.8-.7-.6-1.4-1.1-2.3-1.5-.8-.4-1.6-.8-2.3-1.1s-1-.8-1-1.5c0-.4.2-.8.5-1.1s.7-.4 1.2-.4c.6 0 1.1.2 1.5.5.5.3.9.8 1.4 1.3l2.2-1.9c-.6-.7-1.3-1.3-2.2-1.8-.8-.4-1.8-.7-2.9-.7-.7 0-1.3.1-1.9.3s-1.1.5-1.5.9-.7.8-1 1.3c-.2.5-.3 1.1-.3 1.6 0 1.2.3 2.1 1 2.7s1.4 1.1 2.3 1.5c.8.4 1.6.8 2.3 1.1s1 .8 1 1.5c0 .5-.2.9-.5 1.2s-.8.4-1.4.4-1.2-.2-1.7-.5-1.1-.8-1.5-1.3l-2.1 2c.6.8 1.4 1.4 2.3 1.8.8.7 1.9.9 3.1.9m15.7-.4v-2.5h-5.5v-3.6h4.7v-2.5h-4.7v-3.4h5.5v-2.5h-8.5v14.5z" class="st15"/><path id="RPUBLIQUE" d="M-604.1-226.7v-5.9h1.5l3.8 5.9h3.5l-4.6-6.4c.7-.3 1.3-.8 1.7-1.5.4-.6.6-1.4.6-2.3 0-1.3-.5-2.4-1.4-3.2s-2.2-1.2-3.8-1.2h-4.4v14.5h3.1zm1.6-8.4h-1.7v-3.6h1.7c.6 0 1.1.2 1.4.5s.5.8.5 1.3c0 .6-.2 1-.5 1.4-.3.2-.8.4-1.4.4m13.9-7.4 2.7-2.8h-3l-2.3 2.8zm2.9 15.8v-2.5h-5.5v-3.6h4.7v-2.5h-4.7v-3.4h5.5v-2.5h-8.4v14.5zm5.7 0v-5.9h1.8c1.6 0 2.8-.4 3.8-1.2.9-.8 1.4-1.8 1.4-3.1s-.5-2.4-1.4-3.2-2.2-1.2-3.8-1.2h-4.8v14.5h3zm2-8.4h-2v-3.6h2c.6 0 1.1.2 1.5.5s.5.8.5 1.3c0 .6-.2 1-.5 1.4-.4.2-.9.4-1.5.4m12.4 8.8c1.8 0 3.2-.5 4.3-1.6s1.6-2.6 1.6-4.5v-8.8h-2.9v9.1c0 1-.3 1.7-.8 2.3-.5.5-1.2.8-2.1.8s-1.6-.3-2.2-.8c-.5-.5-.8-1.3-.8-2.3v-9.1h-2.9v8.8c0 1.9.5 3.4 1.6 4.5.9 1 2.4 1.6 4.2 1.6m13.3-.4c1.7 0 3-.4 3.9-1.1 1-.8 1.4-1.8 1.4-3.1 0-.7-.2-1.4-.6-2s-1-1.1-1.8-1.4c.5-.3.9-.8 1.1-1.3s.4-1 .4-1.6c0-1.2-.4-2.2-1.3-2.9s-2-1.1-3.5-1.1h-4.1v14.5zm-.3-8.9h-1.2v-3.2h1.2c.6 0 1 .1 1.3.4s.5.7.5 1.1c0 .5-.2.9-.5 1.2-.3.4-.7.5-1.3.5m.4 6.4h-1.7v-3.8h1.7c.7 0 1.2.2 1.6.5s.6.8.6 1.4-.2 1.1-.6 1.4-.9.5-1.6.5m16 2.5v-2.7h-5.5v-11.8h-2.9v14.5zm4.9 0v-14.5h-2.9v14.5zm18.1 3.6c.3 0 .6 0 .8-.1s.5-.1.7-.2v-2.5c-.2.1-.3.1-.5.1h-.5q-.75 0-1.5-.3c-.5-.2-1-.6-1.6-1.1l-.9-.8c.9-.7 1.6-1.6 2.1-2.6.5-1.1.8-2.2.8-3.4 0-1-.2-2-.6-2.9s-.9-1.7-1.6-2.4-1.5-1.2-2.4-1.7c-.9-.4-2-.6-3.1-.6s-2.2.2-3.1.6c-1 .4-1.8 1-2.4 1.7s-1.2 1.5-1.6 2.4-.6 1.9-.6 2.9.2 2 .6 2.9.9 1.7 1.6 2.4 1.5 1.2 2.4 1.7c1 .4 2 .6 3.1.6.3 0 .7 0 1-.1.3 0 .7-.1 1-.2l1.7 1.5c.7.6 1.4 1.1 2.2 1.4.8.5 1.6.7 2.4.7m-8.3-6c-.7 0-1.3-.1-1.9-.4s-1.1-.6-1.5-1-.7-1-1-1.6-.4-1.2-.4-1.9.1-1.3.4-1.9.6-1.1 1-1.6c.4-.4.9-.8 1.5-1 .6-.3 1.2-.4 1.9-.4s1.3.1 1.9.4 1.1.6 1.5 1 .7 1 1 1.6.4 1.2.4 1.9-.1 1.3-.4 1.9-.6 1.1-1 1.6c-.4.4-.9.8-1.5 1-.6.3-1.2.4-1.9.4m15.5 2.8c1.8 0 3.2-.5 4.3-1.6s1.6-2.6 1.6-4.5v-8.8h-2.9v9.1c0 1-.3 1.7-.8 2.3s-1.2.8-2.1.8-1.6-.3-2.2-.8-.8-1.3-.8-2.3v-9.1h-2.9v8.8c0 1.9.5 3.4 1.6 4.5s2.4 1.6 4.2 1.6m17.3-.4v-2.5h-5.5v-3.6h4.7v-2.5h-4.7v-3.4h5.5v-2.5h-8.4v14.5z" class="st15"/></g><g id="Marianne"><path id="Path" d="M-589.9-228c.1 0 .1-.1.2-.1-.1 0-.1.1-.2.1" class="st20"/><path id="Shape_3_" d="M-585-227.9c.2-.2.4-.4.6-.7l1.2-1.2c.1-.1.3-.2.4-.3 0 0 0-.1.1-.2-.2.1-.3.2-.5.3 0 0-.1 0 0-.1s.3-.2.4-.3v-.1c-.5-.1-.8.3-1.2.5h-.2c-.5.2-.9.7-1.5.9v-.1c-.2.1-.4.2-.7.3s-.6 0-.9 0c-.4 0-.9.1-1.3.2-.2.1-.5.2-.7.3l-.1.1c-.1.1-.2.2-.3.2-.2.1-.4.3-.6.5h-.1l-.6.6h-.1c0-.1.1-.1.1-.2s.1-.1.1-.2c.1-.1.1-.2.2-.2h-.1c.2-.2.4-.3.6-.5 0 0-.1 0 0 0 0 0 0-.1.1-.1-.1 0-.1.1-.2.1-.1.1-.2.2-.3.2h-.1v-.3c.1-.1.2-.2.3-.2.1-.1.3-.2.4-.2l.1-.1-.6.3h-.2c0-.1.2-.1.2-.2h.1c1.2-.9 2.8-.7 4.1-1.2.1-.1.2-.2.3-.2.2-.1.3-.3.5-.4.3-.2.5-.5.6-.8v-.1c-.5.5-1 .9-1.6 1.2-.8.4-1.6.3-2.4.4 0-.1.1-.1.2-.1 0-.1.1-.2.2-.2h.1s0-.1.1-.1h.2c-.1-.2-.3.1-.5 0 .1-.1 0-.2.1-.2h.2c0-.1.1-.2.1-.2.5-.3 1.1-.6 1.6-.9-.1 0-.2.1-.3 0 .1 0 0-.1.1-.1.4-.1.7-.3 1.1-.5-.2 0-.3.1-.4 0 .1 0 .1-.1.2-.1v-.1h.1-.1c0-.1.2 0 .2-.1h-.1c.1-.2.3-.2.5-.2 0-.1-.2 0-.2-.1h.1-.1c-.1 0 0-.1 0-.2.2-.3.2-.6.3-.9h-.1c-.4.4-.9.5-1.5.7h-.3q-.3.15-.6 0c-.2-.1-.2-.2-.4-.3-.3-.2-.6-.3-.9-.4-.9-.3-1.8-.4-2.8-.4.4-.2.8-.2 1.3-.4.6-.2 1.2-.4 1.8-.4h-.4c-.5 0-1 .1-1.6.2-.4.1-.7.2-1.1.3-.2.1-.3.3-.6.3v-.1c.4-.4.8-.9 1.4-.9.7-.1 1.3 0 1.9.1.5 0 .9.2 1.4.3.2 0 .2.3.4.3.2.1.4 0 .7.2v-.2c.2-.2.3 0 .5 0 .3-.2-.3-.5-.4-.8v-.1c.3.3.5.5.9.7.2.1.6.2.5 0-.2-.4-.5-.7-.8-1.1v-.2c-.1 0-.1 0-.1-.1v-.2c-.2-.1-.1-.2-.2-.3-.1-.2 0-.4-.1-.7-.1-.2-.1-.4-.2-.6-.1-.6-.3-1.2-.3-1.8-.1-.7.4-1.2.7-1.8.3-.4.5-.9 1-1.2.1-.4.4-.8.7-1.2.3-.3.8-.6 1.1-.7l1-.4h-25.1v19.2h17.8c.7-.5 1.4-.7 2.3-1.2.9-.1 1.9-.6 2.3-1m-5.6-2.6h-.2c0-.2.3-.2.4-.3.1 0 .2-.1.3-.1.1.1.2.1.3.2-.3.2-.6.1-.8.2m-5.6-.8c.4-.7.8-1.3 1.1-1.9.5-.3.9-.6 1.2-1 .6-.7 1.3-1.2 2-1.6.3-.1.7-.1.9 0-.1.2-.3.1-.4.2h-.1v-.1c-.4.4-.9.6-1.2 1.1-.2.4-.4.8-.8.9-.2 0 0-.1 0-.1-1 .7-1.8 1.5-2.7 2.5m3-2.4c0 .1-.1.1-.1.2s-.1.1-.2.2h-.1c.1-.3.2-.4.4-.4 0-.1 0 0 0 0m1.7 5.5-.1.1s.1 0 0 .1-.2.2-.3.2h-.1l-.1.1h-.2l.3-.3c.1 0 .1-.1.2-.2 0 0 0-.1.1-.1s.2 0 .2.1m-.6-.3c-.2.1-.3.2-.4.3-.2.1-.3.2-.5.2h-.1c-.1.1-.3.2-.4.3l-.1.1-.1.1-.1.1-.1.1h-.3l-.1.1c-.1.1-.2.1-.2.2v-.1l.1-.1s0-.1.1-.1c0-.1.1-.1.1-.2 0 0 0-.1.1-.1v-.3c0-.1.1-.1.2-.2-.1 0-.1.1-.1.1s-.1 0-.1-.1l.1-.1.2-.2.1-.1.1-.1c.3-.3.9-.3 1.4-.5.2-.1.4 0 .6 0 .1 0 .2 0 .3.1-.3.1-.5.3-.8.5m.7-2.6s.1 0 .2-.1h-.3v-.1c-.2 0-.4.1-.6.2-.3.1-.5.3-.8.3-.4.2-.7.5-1.2.6v-.1c0-.1.2-.2.3-.3v-.1c.3-.4.7-.6 1.1-.9v-.1c.1-.2.3-.2.4-.4 0-.1.2-.3.4-.3 0 0-.1 0-.1-.1-.2 0-.3.1-.4 0 .1-.1.2-.1.2-.1s-.1 0-.1-.1.1-.2.2-.2c.2 0 .3 0 .4-.2-.3 0-.5.1-.8-.1.2-.5.5-.9.9-1.1h.1c0 .2-.1.3-.3.4.3.1.6.1.9.2 0 .1-.1 0-.2 0 .2.1.4 0 .6.2-.1.1-.2 0-.3 0 1.1.3 2.3.6 3.3 1.3-.8.4-1.6.6-2.5.8h-.3v.1c-.2 0-.3 0-.4.1-.4.2-.6.2-.7.1" style="fill:#000091"/><path id="Path_2_" d="M-554-244.8h-20.7l.2.1c.2.1.4.2.5.3.3.1.5.3.7.6.1.1.2.3.1.5s-.1.5-.3.5c-.2.1-.5.1-.8.1-.2 0-.3 0-.4-.1.5.2 1.1.5 1.4 1 0 .1.2.1.3.1v.1c-.1.1-.2.1-.1.2h.1c.2-.1.2-.4.4-.3s.3.4.2.5l-.4.4v.3c.1.2.2.3.2.4.1.3.2.5.3.8.2.5.3 1.1.3 1.6 0 .3-.2.5 0 .8.1.3.3.5.4.8.2.2.3.4.4.6.2.4.6.7.4 1.2-.1.3-.5.2-.8.4-.2.2 0 .5.1.7.2.3-.2.5-.5.7.1.1.2.1.3.2 0 .2.2.3.1.5-.2.2-.6.3-.4.7.2.3.1.5 0 .8s-.4.5-.7.5c-.2.1-.5.1-.7 0-.1 0-.2-.1-.2-.1-.6-.1-1.2-.3-1.8-.3-.2 0-.4.1-.5.1-.2.1-.3.3-.4.4l-.1.1v.1c-.1.1-.2.3-.3.4v.1c-.1.2-.2.4-.3.7-.3.8-.1 1.5 0 1.7 0 0 1.2.4 2 .8.4.2.6.3.9.4h20.3z" style="fill:#e1000f"/><path id="Path_3_" d="M-573.5-237.8c.2 0 .4 0 .4.1-.1.3-.5.4-.7.7h-.1c-.1.1-.1.3-.2.3h-.3c.2.2.3.3.5.2 0 0 .1.1.1.2h.2v.2c-.1.2-.3.1-.4.1.3.1.6.1.8 0s0-.4.2-.6c-.1 0 0-.1-.1-.1l.2-.2c.1 0 .2 0 .2-.1s-.2-.1-.1-.2c.2-.2.4-.4.3-.6 0-.1-.3-.1-.5-.2s-.4 0-.6 0-.4.1-.5.2c-.3.1-.5.2-.7.4.3-.1.5-.2.8-.2.1-.2.3-.3.5-.2" style="fill:gray"/></g></g></svg>