<svg xmlns="http://www.w3.org/2000/svg" xmlns:xlink="http://www.w3.org/1999/xlink" xml:space="preserve" style="enable-background:new 0 0 221.84 256" viewBox="0 0 221.84 256"><defs><path id="a" d="M221.76-153.73v-127.98l-110.84-64.01L.08-281.71v127.98l110.84 64.01z"/></defs><radialGradient id="b" cx="216.731" cy="-269.512" r="368.525" gradientUnits="userSpaceOnUse"><stop offset=".233" style="stop-color:#9797f7"/><stop offset=".551" style="stop-color:#518fff"/></radialGradient><use xlink:href="#a" style="overflow:visible;fill:url(#b)"/><clipPath id="c"><use xlink:href="#a" style="overflow:visible"/></clipPath><g style="clip-path:url(#c)"><defs><path id="d" d="M101.51-279.42c-.25 3.74-1.86 10.01-2.29 13.73 8.14 3.31 16.46 4.46 15.93.79-.6-4.41-.57-10.79-.17-15.21 1.4-11.54-9.27-13.81-12.42-8.39-.41 1.41-.95 7.63-1.05 9.08"/></defs><clipPath id="e"><use xlink:href="#d" style="overflow:visible"/></clipPath><defs style="clip-path:url(#e)"><path id="f" d="M-619.43-2564.61h2532.07v7501.25H-619.43z"/></defs><defs><path id="g" d="M99.65-306.24c-1.13 3.38-2.76 13.62 3.19 22.84 2.66 4.12 6.73 5.73 11.13 7.01 4.92 1.43 9.19 1.65 11.14-2.84 1.07-2.46.64-5.93 1.04-8.59.93-.01 2.77-.26 3.85-.35-.74-4.78-.72-6.36-2.19-13.89-1.15-5.87-5.57-9.72-11.61-11.03-5.23-1.16-13.87-1.17-16.55 6.85"/></defs><clipPath id="h"><use xlink:href="#g" style="overflow:visible"/></clipPath><defs style="clip-path:url(#h)"><path id="i" d="M-619.43-2564.61h2532.07v7501.25H-619.43z"/></defs><defs><path id="j" d="M100.41-287.62c.01-2.52-2.66-11.03 2.71-10.46 2.33.25 3.33 4.24 5.95 2.18 1.85-1.46 2.51-5.53 2.62-7.68.11-2.29-.93-6.77-1.53-8.74 3.42.63 8.66 1.89 12.04 1.42-3.72-3.11-10.13-3.27-14.56-2.77-6.2.7-9.23 7.22-9.88 12.98-.25 2.21-.54 7.24 2.5 12.85"/></defs><clipPath id="k"><use xlink:href="#j" style="overflow:visible"/></clipPath><defs style="clip-path:url(#k)"><path id="l" d="M-619.43-2564.61h2532.07v7501.25H-619.43z"/></defs><defs><path id="m" d="M112.58-202.5c-5.56-.16-18.78 3.89-17.24 18.96.43 4.25 4.44 15.67 5.93 19.57 3.47 9.04 12.2 27.81 14.79 35.31 2.29 6.65 2.48 16.73 7.89 19.77 2.32 1.3 7.95 2.6 12.5.09 1.13-.62 6.81-4.39 5.82-11.68-.54-3.97-1.06-3.25-1.68-7.21-1.25-7.95-1.95-14.81-3.81-22.63-1.74-7.37-5.13-18.61-7.34-25.69-3.07-9.85-1.77-26.05-16.86-26.49"/></defs><clipPath id="n"><use xlink:href="#m" style="overflow:visible"/></clipPath><defs style="clip-path:url(#n)"><path id="o" d="M-619.43-2564.61h2532.07v7501.25H-619.43z"/></defs><defs><path id="p" d="M143.78-116.39c-3.74-14.33-16.17-17.75-23.23-6.36-2.91 4.69 1.39 9.78 2.56 16.35.68 3.85.84 10.69 3.57 19.11 1.99 6.13 10.75 22.72 12.01 25.69 1.37 3.22 3.04 7 4.34 10.31-.08.85 10.12-.99 10.19-2.22.04-.74-2.12-10.85-2.31-12.71-.69-6.84-4.08-28.38-5.38-35.28-.98-5.2-.58-10.37-1.75-14.89"/></defs><clipPath id="q"><use xlink:href="#p" style="overflow:visible"/></clipPath><defs style="clip-path:url(#q)"><path id="r" d="M-619.43-2564.61h2532.07v7501.25H-619.43z"/></defs><defs><path id="s" d="M146.44-43.39c1.75-.44 1.72-.88 3.1-1.02 1.86-.18 1.96.03 3.8-.27 2.97-.49 3.79-.7 6.51-1.84.48-.2 2.15-2.37 1.09-2.44-2.11-.15-3.57-.18-5.54-.82-2.96-1.43-1.15-.9-5.28-4.4-2.21-1.86-4.44-.35-5.38 1.01-.65.94-.12 2.45-.67 3.69-1.24 2.81-.79 4.46.2 6.36.54.06 1.27-.04 2.17-.27"/></defs><clipPath id="t"><use xlink:href="#s" style="overflow:visible"/></clipPath><defs style="clip-path:url(#t)"><path id="u" d="M-619.43-2564.61h2532.07v7501.25H-619.43z"/></defs><defs><path id="v" d="M59.19-51.32c1.47 1.05 2.25.87 3.31 1.77 1.42 1.22 1.33 1.43 2.82 2.55 2.4 1.8 3.13 2.26 5.83 3.43.47.2 3.2-.09 2.53-.9-1.35-1.62-2.35-2.7-3.25-4.57-1.02-3.12-.14-1.45-.48-6.85-.18-2.88-2.82-3.45-4.45-3.19-1.13.18-1.86 1.61-3.13 2.07-2.89 1.05-3.83 2.28-4.51 4.3.43.73 1.19 1.29 1.33 1.39"/></defs><clipPath id="w"><use xlink:href="#v" style="overflow:visible"/></clipPath><defs style="clip-path:url(#w)"><path id="x" d="M-619.43-2564.61h2532.07v7501.25H-619.43z"/></defs><defs><path id="y" d="M104.41-107.57c6.29-13.41-1.08-23.98-13.79-19.73-5.23 1.75-5.18 8.41-8.49 14.21-1.94 3.4-6.19 8.75-9.47 16.98-2.39 5.98-6.27 24.34-7.2 27.43-1.01 3.35-2.14 7.33-3.26 10.7-.6.6 8.42 5.71 9.26 4.81.51-.54 5.31-9.69 6.35-11.24 3.85-5.7 15.01-24.43 18.43-30.57 2.57-4.64 6.19-8.37 8.17-12.59"/></defs><clipPath id="z"><use xlink:href="#y" style="overflow:visible"/></clipPath><defs style="clip-path:url(#z)"><path id="A" d="M-619.43-2564.61h2532.07v7501.25H-619.43z"/></defs><defs><path id="B" d="M109.95-202.32c-5.08-2.26-18.85-3.53-23.15 11-1.21 4.1-1.85 16.18-1.95 20.36-.23 9.68.73 30.36.27 38.27-.4 7.02-4.06 16.42-.21 21.28 1.65 2.08 6.37 5.42 11.53 4.82 1.28-.15 7.97-1.48 9.82-8.6 1.01-3.87.26-3.41 1.18-7.31 1.86-7.83 3.82-14.45 5.07-22.38 1.18-7.48 2.32-19.17 2.97-26.56.9-10.25 8.26-24.74-5.53-30.88"/></defs><clipPath id="C"><use xlink:href="#B" style="overflow:visible"/></clipPath><defs style="clip-path:url(#C)"><path id="D" d="M-619.43-2564.61h2532.07v7501.25H-619.43z"/></defs><defs><path id="E" d="M124.71-248.84c-1.95-9.62-3.68-13.59-11.06-16.65-7.7-3.19-13.71-2.51-19.96.23-17.66 7.73-13.96 28.25-9.38 43.78 2.14 7.25 3.48 16.92 4.33 24.4.36 3.19 4.92 2.65 5.53 2.74 7.69 1.14 14.53 1.17 21.4-.23 7.47-1.52 5.13-2.59 6.73-8.67 1.92-7.3 2.64-12.77 2.88-22.8.18-6.95.74-16.87-.47-22.8"/></defs><use xlink:href="#E" style="overflow:visible;fill-rule:evenodd;clip-rule:evenodd;fill:#e1000f"/><clipPath id="F"><use xlink:href="#E" style="overflow:visible"/></clipPath><defs style="clip-path:url(#F)"><path id="G" d="M-619.43-2564.61h2532.07v7501.25H-619.43z"/></defs><defs><path id="H" d="M150.6-168.55c1.32.93 2.7 1.62 4.02 2.54 2.24 1.57 3.15 3.34 4.43 5.71.16.28.27.72-.02.86-.13.06-.27.03-.41-.01-1.29-.36-2.03-1.29-3.03-2.18 1.06 2.32 1.55 4.95 2.41 7.35.1.3.2.66 0 .91-.26.32-.77.18-1.14.01-3.02-1.44-5.59-3.77-7.4-6.58-1.19-1.85-4.17-7.06-1.97-8.95.69-.6 1.96-.62 2.38.1"/></defs><use xlink:href="#H" style="overflow:visible;fill-rule:evenodd;clip-rule:evenodd;fill:#9f714f"/><clipPath id="I"><use xlink:href="#H" style="overflow:visible"/></clipPath><defs style="clip-path:url(#I)"><path id="J" d="M-619.43-2564.61h2532.07v7501.25H-619.43z"/></defs><defs><path id="K" d="M121.66-208.89c1.76.37 3.22 1.56 4.51 2.82 10.54 10.2 15 24.58 25.1 35.21.99 1.29-4.04 6.85-5.97 5.25-4.68-3.64-22.83-21.79-25.2-24.34-1.69-1.82-3.38-3.65-4.7-5.74-1.29-2.05-1.79-4.3-1.79-6.71 0-.85.04-1.71.27-2.53.91-3.22 4.69-4.61 7.78-3.96"/></defs><use xlink:href="#K" style="overflow:visible;fill-rule:evenodd;clip-rule:evenodd;fill:#e1000f"/><clipPath id="L"><use xlink:href="#K" style="overflow:visible"/></clipPath><defs style="clip-path:url(#L)"><path id="M" d="M-619.43-2564.61h2532.07v7501.25H-619.43z"/></defs><defs><path id="N" d="M99.67-235.89c-1.29-4.28-2.46-8.8-1.57-13.18s4.45-8.54 8.92-8.63c2.36-.05 4.64 1.03 6.4 2.6s3.05 3.6 4.12 5.69c3.18 6.19 4.68 13.08 6.01 19.91 1.37 7.04 2.59 14.11 3.81 21.18.13.72.25 1.46.18 2.18-.17 1.62-1.32 3-2.69 3.87-1.38.86-2.98 1.29-4.55 1.7-2.11.55-4.34.72-6.35-.38-2.18-1.19-3.13-4.36-3.99-6.51-1.25-3.12-2.49-6.25-3.69-9.39-2.4-6.27-4.66-12.61-6.6-19.04"/></defs><clipPath id="O"><use xlink:href="#N" style="overflow:visible"/></clipPath><defs style="clip-path:url(#O)"><path id="P" d="M-619.43-2564.61h2532.07v7501.25H-619.43z"/></defs></g><defs><path id="Q" d="M221.84 191.99V64.01L111 0 .16 64.01v127.98L111 256z"/></defs><radialGradient id="R" cx="108.791" cy="104.995" r="130.571" gradientUnits="userSpaceOnUse"><stop offset="0" style="stop-color:#94f6b0"/><stop offset=".194" style="stop-color:#91f2b3"/><stop offset=".392" style="stop-color:#89e6bd"/><stop offset=".593" style="stop-color:#7cd1cc"/><stop offset=".794" style="stop-color:#69b5e2"/><stop offset=".995" style="stop-color:#5290fe"/><stop offset="1" style="stop-color:#518fff"/></radialGradient><use xlink:href="#Q" style="overflow:visible;fill:url(#R)"/><clipPath id="S"><use xlink:href="#Q" style="overflow:visible"/></clipPath><path d="M39 98.37h144v86.19H39z" style="clip-path:url(#S);fill:#c3c3fa"/><path d="M53.4 45.45c7.11 4 24.27 8.22 29.95 10.92s13.69 9 20.3 16.93c2.19 2.63 11.86 15.78 1.19 13.02.5 2.28 2.49 3.67 4 6.2-.73 2.17-2.24 1.84-6.61-1.11 1.21 2.12 2.03 5.05 3.52 6.58-1.68 4.14-5.99 1.13-10.67-3.42 2.17 4.2 1.14 5.57.12 5.61-10.74.39-6.08-4.01-13.15-3.5-13.29.97-31.85-18.8-37.96-23.86-5.22-4.32-12.36-8.54-12.36-8.54z" style="clip-path:url(#S);fill:#d38742"/><path d="m26.95 24.56 28.31 18.68c5.58 8.15-4.1 26.75-14.8 29l-42.4-16.32" style="clip-path:url(#S);fill:#e1000f"/><defs><filter id="T" width="80" height="108.36" x="79" y="40.56" filterUnits="userSpaceOnUse"><feColorMatrix values="1 0 0 0 0 0 1 0 0 0 0 0 1 0 0 0 0 0 1 0"/></filter></defs><mask id="U" width="80" height="108.36" x="79" y="40.56" maskUnits="userSpaceOnUse"><g style="filter:url(#T)"><path d="M-59.97 201.24h342.23V9.6H-59.97z" style="clip-path:url(#S);fill-rule:evenodd;clip-rule:evenodd;fill:#fff"/></g></mask><path d="M79 40.56v108.36h80l-.01-92.36-15.99-16z" style="clip-path:url(#S);mask:url(#U);fill:#fff"/><defs><filter id="V" width="192.07" height="5.05" x="15" y="195.51" filterUnits="userSpaceOnUse"><feColorMatrix values="1 0 0 0 0 0 1 0 0 0 0 0 1 0 0 0 0 0 1 0"/></filter></defs><mask id="W" width="192.07" height="5.05" x="15" y="195.51" maskUnits="userSpaceOnUse"><g style="filter:url(#V)"><path d="M-56.27 201.24h342.23V9.6H-56.27z" style="clip-path:url(#S);fill-rule:evenodd;clip-rule:evenodd;fill:#fff"/></g></mask><path d="M207.07 195.51s-6.84 5.05-30.23 5.05h-64.6.41-65.12c-23.38 0-32.53-4.73-32.53-4.73z" style="clip-path:url(#S);mask:url(#W);fill-rule:evenodd;clip-rule:evenodd;fill:#3f3f3f"/><path d="M15 191.98h192v4H15z" style="clip-path:url(#S);fill:#919191"/><path d="M31 184.56h160v7.42H31z" style="clip-path:url(#S);fill-rule:evenodd;clip-rule:evenodd;fill:#666"/><g style="clip-path:url(#S)"><path d="M185 90.37H37c-3.31 0-6 2.69-6 6v89.61c0 3.31 2.69 6 6 6h148c3.31 0 6-2.69 6-6V96.37c0-3.31-2.69-6-6-6m-2 94.19H39V98.37h144z" style="fill:#666"/></g><path d="M39 98.37h24v86.19H39z" style="clip-path:url(#S);fill-rule:evenodd;clip-rule:evenodd;fill:#fff"/><path d="M95 191.98h32v2H95z" style="clip-path:url(#S);fill-rule:evenodd;clip-rule:evenodd;fill:#ddd"/><path d="M57 108.56H45c-1.1 0-2-.9-2-2s.9-2 2-2h12a2 2 0 1 1 0 4m1.51 12.5H43.5c-.28 0-.5-.22-.5-.5s.22-.5.5-.5h15.01c.28 0 .5.22.5.5s-.22.5-.5.5m-3.32 8H43.5c-.28 0-.5-.22-.5-.5s.22-.5.5-.5h11.69c.28 0 .5.22.5.5s-.22.5-.5.5m0 16H43.5c-.28 0-.5-.22-.5-.5s.22-.5.5-.5h11.69c.28 0 .5.22.5.5s-.22.5-.5.5m3.32-8H43.5c-.28 0-.5-.22-.5-.5s.22-.5.5-.5h15.01c.28 0 .5.22.5.5s-.22.5-.5.5m-3.32 16H43c-.28 0-.5-.22-.5-.5s.22-.5.5-.5h12.19c.28 0 .5.22.5.5s-.22.5-.5.5" style="clip-path:url(#S);fill:#000091"/><path d="M78.86 40.56H143l16.14 16v33.81H78.86z" style="clip-path:url(#S);fill:#f5f5fe"/><path d="M148.33 73.56H95c-.55 0-1-.45-1-1s.45-1 1-1h53.33c.55 0 1 .45 1 1s-.45 1-1 1m-10.67 8H95c-.55 0-1-.45-1-1s.45-1 1-1h42.67c.55 0 1 .45 1 1s-.45 1-1.01 1m-10.64-16H95c-.55 0-1-.45-1-1s.45-1 1-1h32.02c.55 0 1 .45 1 1s-.45 1-1 1" style="clip-path:url(#S);fill:#000091"/><path d="M95 48.4h2.83v4H95z" style="clip-path:url(#S);fill:#e1000f"/><path d="M97.83 48.4h2.83v4h-2.83z" style="clip-path:url(#S);fill:#fff"/><path d="M100.66 48.4h2.83v4h-2.83z" style="clip-path:url(#S);fill:#000091"/><path d="M75.64 56.56c6.29 1.67 4.68-.63 13.38 6.99s14.19 9.82 14.19 9.82-2.44 8.13-11.19 3.62-8.31-5.56-16.09-3.89c-7.77 1.67-15.03.26-15.03.26zm116.07 77.81c-8.13-.71-24.68-6.89-30.89-7.87s-16.38-.29-26.31 2.54c-3.29.94-18.69 6.34-8.32 10.08-1.69 1.6-4.12 1.63-6.8 2.86-.62 2.21.81 2.78 6.08 2.81-2.19 1.07-4.52 3.03-6.62 3.45-.94 4.36 4.31 4.31 10.74 3.19-4.16 2.25-4.08 3.96-3.26 4.56 8.65 6.37 7.29.11 12.83 4.52 10.43 8.29 36.9 2.43 44.8 1.7 6.74-.63 15.02-.09 15.02-.09z" style="clip-path:url(#S);fill:#d38742"/><path d="m247.25 135.2-55.84-3.7c-9.21 3.59-12.19 23.85-4.62 31.74l52.06 12.89" style="clip-path:url(#S);fill:#000091"/><path d="M143 56.56h15.99l-15.99-16z" style="clip-path:url(#S);fill:#d4d4d4"/><path d="M78.86 98.37h80.13v50.55H78.86z" style="clip-path:url(#S);fill:#fff"/><path d="M148.33 105.56H95c-.55 0-1-.45-1-1s.45-1 1-1h53.33c.55 0 1 .45 1 1s-.45 1-1 1m0 15.96H95c-.55 0-1-.45-1-1s.45-1 1-1h53.33c.55 0 1 .45 1 1s-.45 1-1 1m-10.67 8.01H95c-.55 0-1-.45-1-1s.45-1 1-1h42.67c.55 0 1 .45 1 1-.01.55-.45 1-1.01 1" style="clip-path:url(#S);fill:#000091"/><path d="M165.94 131.81c-6.44-.96-4.05-2.44-15.05 1.11-11.01 3.55-16.91 3.39-16.91 3.39s-.98 8.43 8.84 7.76 9.84-1.81 16.31 2.8c6.47 4.62 13.69 6.19 13.69 6.19z" style="clip-path:url(#S);fill:#d38742"/></svg>