<svg xmlns="http://www.w3.org/2000/svg" xmlns:xlink="http://www.w3.org/1999/xlink" xml:space="preserve" viewBox="0 0 221.68 256"><defs><path id="a" d="M-813.67 191.99V64.01L-924.51 0l-110.84 64.01v127.98L-924.51 256z"/></defs><radialGradient id="b" cx="-818.699" cy="76.203" r="368.525" gradientUnits="userSpaceOnUse"><stop offset=".233" style="stop-color:#9797f7"/><stop offset=".551" style="stop-color:#518fff"/></radialGradient><use xlink:href="#a" style="overflow:visible;fill:url(#b)"/><clipPath id="c"><use xlink:href="#a" style="overflow:visible"/></clipPath><g style="clip-path:url(#c)"><defs><path id="d" d="M-933.92 66.3c-.25 3.74-1.86 10.01-2.29 13.73 8.14 3.31 16.46 4.46 15.93.79-.6-4.41-.57-10.79-.17-15.21 1.4-11.54-9.27-13.81-12.42-8.39-.41 1.41-.95 7.63-1.05 9.08"/></defs><clipPath id="e"><use xlink:href="#d" style="overflow:visible"/></clipPath><defs style="clip-path:url(#e)"><path id="f" d="M-1654.86-2218.9H877.21v7501.25h-2532.07z"/></defs><defs><path id="g" d="M-935.78 39.47c-1.13 3.38-2.76 13.62 3.19 22.84 2.66 4.12 6.73 5.73 11.13 7.01 4.92 1.43 9.19 1.65 11.14-2.84 1.07-2.46.64-5.93 1.04-8.59.93-.01 2.77-.26 3.85-.35-.74-4.78-.72-6.36-2.19-13.89-1.15-5.87-5.57-9.72-11.61-11.03-5.23-1.16-13.87-1.16-16.55 6.85"/></defs><clipPath id="h"><use xlink:href="#g" style="overflow:visible"/></clipPath><defs style="clip-path:url(#h)"><path id="i" d="M-1654.86-2218.9H877.21v7501.25h-2532.07z"/></defs><defs><path id="j" d="M-935.02 58.09c.01-2.52-2.66-11.03 2.71-10.46 2.33.25 3.33 4.24 5.95 2.18 1.85-1.46 2.51-5.53 2.62-7.68.11-2.29-.93-6.77-1.54-8.74 3.42.63 8.66 1.89 12.04 1.42-3.72-3.11-10.13-3.27-14.56-2.77-6.2.7-9.23 7.22-9.88 12.98-.25 2.21-.54 7.24 2.5 12.85"/></defs><clipPath id="k"><use xlink:href="#j" style="overflow:visible"/></clipPath><defs style="clip-path:url(#k)"><path id="l" d="M-1654.86-2218.9H877.21v7501.25h-2532.07z"/></defs><defs><path id="m" d="M-922.85 143.22c-5.56-.16-18.78 3.89-17.24 18.96.43 4.25 4.44 15.67 5.93 19.57 3.47 9.04 12.2 27.81 14.79 35.31 2.29 6.65 2.48 16.73 7.89 19.77 2.32 1.3 7.95 2.6 12.5.09 1.13-.62 6.81-4.39 5.82-11.68-.54-3.97-1.06-3.25-1.68-7.21-1.25-7.95-1.95-14.81-3.81-22.63-1.74-7.37-5.13-18.61-7.34-25.69-3.07-9.85-1.77-26.05-16.86-26.49"/></defs><clipPath id="n"><use xlink:href="#m" style="overflow:visible"/></clipPath><defs style="clip-path:url(#n)"><path id="o" d="M-1654.86-2218.9H877.21v7501.25h-2532.07z"/></defs><defs><path id="p" d="M-891.65 229.33c-3.74-14.33-16.17-17.75-23.23-6.36-2.91 4.69 1.39 9.78 2.56 16.35.68 3.85.84 10.69 3.57 19.11 1.99 6.13 10.75 22.72 12.01 25.69 1.37 3.22 3.04 7 4.34 10.31-.08.85 10.12-.99 10.19-2.22.04-.74-2.12-10.85-2.31-12.71-.69-6.84-4.08-28.38-5.38-35.28-.98-5.2-.58-10.38-1.75-14.89"/></defs><clipPath id="q"><use xlink:href="#p" style="overflow:visible"/></clipPath><defs style="clip-path:url(#q)"><path id="r" d="M-1654.86-2218.9H877.21v7501.25h-2532.07z"/></defs><defs><path id="s" d="M-888.99 302.33c1.75-.44 1.72-.88 3.1-1.02 1.86-.18 1.96.03 3.8-.27 2.97-.49 3.79-.7 6.51-1.84.48-.2 2.15-2.37 1.09-2.44-2.11-.15-3.57-.18-5.54-.82-2.96-1.43-1.15-.9-5.28-4.4-2.21-1.86-4.44-.35-5.38 1.01-.65.94-.12 2.45-.67 3.69-1.24 2.81-.79 4.46.2 6.36.54.06 1.27-.05 2.17-.27"/></defs><clipPath id="t"><use xlink:href="#s" style="overflow:visible"/></clipPath><defs style="clip-path:url(#t)"><path id="u" d="M-1654.86-2218.9H877.21v7501.25h-2532.07z"/></defs><defs><path id="v" d="M-976.23 294.4c1.47 1.05 2.25.87 3.31 1.77 1.42 1.22 1.33 1.43 2.82 2.55 2.4 1.8 3.13 2.26 5.83 3.43.47.2 3.2-.09 2.53-.9-1.35-1.62-2.35-2.7-3.25-4.57-1.02-3.12-.14-1.45-.48-6.85-.18-2.88-2.82-3.45-4.45-3.19-1.13.18-1.86 1.61-3.13 2.07-2.89 1.05-3.83 2.28-4.51 4.3.42.73 1.18 1.29 1.33 1.39"/></defs><clipPath id="w"><use xlink:href="#v" style="overflow:visible"/></clipPath><defs style="clip-path:url(#w)"><path id="x" d="M-1654.86-2218.9H877.21v7501.25h-2532.07z"/></defs><defs><path id="y" d="M-931.01 238.15c6.29-13.41-1.08-23.98-13.79-19.73-5.23 1.75-5.18 8.41-8.49 14.21-1.94 3.4-6.19 8.75-9.47 16.98-2.39 5.98-6.27 24.34-7.2 27.43-1.01 3.35-2.14 7.33-3.26 10.7-.6.6 8.42 5.71 9.26 4.81.51-.54 5.31-9.69 6.35-11.24 3.85-5.7 15.01-24.43 18.43-30.57 2.56-4.65 6.18-8.37 8.17-12.59"/></defs><clipPath id="z"><use xlink:href="#y" style="overflow:visible"/></clipPath><defs style="clip-path:url(#z)"><path id="A" d="M-1654.86-2218.9H877.21v7501.25h-2532.07z"/></defs><defs><path id="B" d="M-925.48 143.4c-5.08-2.26-18.85-3.53-23.15 11-1.21 4.1-1.85 16.18-1.95 20.36-.23 9.68.73 30.36.27 38.27-.4 7.02-4.06 16.42-.21 21.28 1.65 2.08 6.37 5.42 11.53 4.82 1.28-.15 7.97-1.48 9.82-8.6 1.01-3.87.26-3.41 1.18-7.31 1.86-7.83 3.82-14.45 5.07-22.38 1.18-7.48 2.32-19.17 2.97-26.56.9-10.25 8.26-24.74-5.53-30.88"/></defs><clipPath id="C"><use xlink:href="#B" style="overflow:visible"/></clipPath><defs style="clip-path:url(#C)"><path id="D" d="M-1654.86-2218.9H877.21v7501.25h-2532.07z"/></defs><defs><path id="E" d="M-910.72 96.88c-1.95-9.62-3.68-13.59-11.06-16.65-7.7-3.19-13.71-2.51-19.96.23-17.66 7.73-13.96 28.25-9.38 43.78 2.14 7.25 3.48 16.92 4.33 24.4.36 3.19 4.92 2.65 5.53 2.74 7.69 1.14 14.53 1.17 21.4-.23 7.47-1.52 5.13-2.59 6.73-8.67 1.92-7.3 2.64-12.77 2.88-22.8.18-6.96.74-16.88-.47-22.8"/></defs><use xlink:href="#E" style="overflow:visible;fill-rule:evenodd;clip-rule:evenodd;fill:#e1000f"/><clipPath id="F"><use xlink:href="#E" style="overflow:visible"/></clipPath><defs style="clip-path:url(#F)"><path id="G" d="M-1654.86-2218.9H877.21v7501.25h-2532.07z"/></defs><defs><path id="H" d="M-884.83 177.16c1.32.93 2.7 1.62 4.02 2.54 2.24 1.57 3.15 3.34 4.43 5.71.16.28.27.72-.02.86-.13.06-.27.03-.41-.01-1.29-.36-2.03-1.29-3.03-2.18 1.06 2.32 1.55 4.95 2.41 7.35.1.3.2.66 0 .91-.26.32-.77.18-1.14.01-3.02-1.44-5.59-3.77-7.4-6.58-1.19-1.85-4.17-7.06-1.97-8.95.69-.6 1.96-.62 2.38.1"/></defs><use xlink:href="#H" style="overflow:visible;fill-rule:evenodd;clip-rule:evenodd;fill:#9f714f"/><clipPath id="I"><use xlink:href="#H" style="overflow:visible"/></clipPath><defs style="clip-path:url(#I)"><path id="J" d="M-1654.86-2218.9H877.21v7501.25h-2532.07z"/></defs><defs><path id="K" d="M-913.77 136.83c1.76.37 3.22 1.56 4.51 2.82 10.54 10.2 15 24.58 25.1 35.21.99 1.29-4.04 6.85-5.97 5.25-4.68-3.64-22.83-21.79-25.2-24.34-1.69-1.82-3.38-3.65-4.7-5.74-1.29-2.05-1.79-4.3-1.79-6.71 0-.85.04-1.71.27-2.53.91-3.23 4.7-4.61 7.78-3.96"/></defs><use xlink:href="#K" style="overflow:visible;fill-rule:evenodd;clip-rule:evenodd;fill:#e1000f"/><clipPath id="L"><use xlink:href="#K" style="overflow:visible"/></clipPath><defs style="clip-path:url(#L)"><path id="M" d="M-1654.86-2218.9H877.21v7501.25h-2532.07z"/></defs><defs><path id="N" d="M-935.76 109.82c-1.29-4.28-2.46-8.8-1.57-13.18s4.45-8.54 8.92-8.63c2.36-.05 4.64 1.03 6.4 2.6s3.05 3.6 4.12 5.69c3.18 6.19 4.68 13.08 6.01 19.91 1.37 7.04 2.59 14.11 3.81 21.18.13.72.25 1.46.18 2.18-.17 1.62-1.32 3-2.69 3.87-1.38.86-2.98 1.29-4.55 1.7-2.11.55-4.34.72-6.35-.38-2.18-1.19-3.13-4.36-3.99-6.51-1.25-3.12-2.49-6.25-3.69-9.39-2.4-6.27-4.66-12.6-6.6-19.04"/></defs><clipPath id="O"><use xlink:href="#N" style="overflow:visible"/></clipPath><defs style="clip-path:url(#O)"><path id="P" d="M-1654.86-2218.9H877.21v7501.25h-2532.07z"/></defs></g><defs><path id="Q" d="M221.68 191.99V64.01L110.84 0 0 64.01v127.98L110.84 256z"/></defs><linearGradient id="R" x1="110.841" x2="110.841" y1="130.711" y2="255.32" gradientUnits="userSpaceOnUse"><stop offset=".438" style="stop-color:#7fb651"/><stop offset="1" style="stop-color:#447049"/></linearGradient><use xlink:href="#Q" style="overflow:visible;fill:url(#R)"/><clipPath id="S"><use xlink:href="#Q" style="overflow:visible"/></clipPath><g style="clip-path:url(#S)"><path d="m21.65 85.54-7.15 39.43 10.24 27.32 22.1 18.18-.03 37.53 48.03-16.56-.16-127.41-44.99 3.98z" style="fill:#ffeb86"/><path d="M142.55 80 94.68 64.03l.16 127.41 48 16.56z" style="fill:#caaa2a"/></g><path d="M70 176V66l37.33 11.81 14.41 22.43 1.69 20.49 1.37 17.97-14.63 20.84-24.04 15.2z" style="clip-path:url(#S);fill:#caaa2a"/><path d="m142.55 80 .29 128 48-16.01v-128z" style="clip-path:url(#S);fill:#ffeb86"/><path d="M32.33 163.69h8.98v13h-8.98z" style="clip-path:url(#S);fill:#161616" transform="rotate(33.571 36.818 170.186)"/><path d="m23.1 205.33-13.88-8.02 17.33-26.11 13.33 8.84z" style="clip-path:url(#S);fill:#161616"/><path d="m38.72 187.59 14.33-33.47" style="clip-path:url(#S);fill:#fff"/><circle cx="163.25" cy="127.46" r="9.47" style="clip-path:url(#S);fill:none;stroke:#c3b141;stroke-width:2;stroke-miterlimit:10"/><path d="m189.75 100.24-19.64 20.04m-.68-48.31 11.43 37.25m-18.4 27.7-5.39 35.16 6.38 27.94m26.81-44.72-28.78-10.31m-18.93-33.83 14.3 9.33" style="clip-path:url(#S);fill:none;stroke:#c3b141;stroke-width:2;stroke-miterlimit:10"/><path d="m142.55 172.08-24.53-22.45" style="clip-path:url(#S);fill:none;stroke:#908331;stroke-width:2;stroke-miterlimit:10"/><path d="m94.84 184.05-32.01-8.04-8.7 29.47" style="clip-path:url(#S);fill:none;stroke:#c3b141;stroke-width:2;stroke-miterlimit:10"/><path d="m132.7 170.47-25.87 13.11 1.53 5.31 23.86-3.14z" style="clip-path:url(#S);fill:#908331"/><path d="m36.67 168.47 9.79-23.88M36.25 86.17 31.3 80" style="clip-path:url(#S);fill:none;stroke:#c3b141;stroke-width:3;stroke-miterlimit:10"/><path d="m121.25 136.92-10.62-8.8" style="clip-path:url(#S);fill:none;stroke:#908331;stroke-width:2;stroke-miterlimit:10"/><path d="m70 155.26.13.04 40.5-27.18-15.95-39.75L70 87.44" style="clip-path:url(#S);fill:none;stroke:#908331;stroke-width:4;stroke-miterlimit:10"/><path d="m70 87.44-33.75-1.27-5.41 45.7 22.44 18.27L70 155.26" style="clip-path:url(#S);fill:none;stroke:#c3b141;stroke-width:4;stroke-miterlimit:10"/><path d="m126.96 113.77 15.59-2.61" style="clip-path:url(#S);fill:none;stroke:#908331;stroke-width:2;stroke-miterlimit:10"/><path d="m94.68 88.37 19.44-5.29" style="clip-path:url(#S);fill:none;stroke:#908331;stroke-width:4;stroke-miterlimit:10"/><circle cx="70.5" cy="120" r="56" style="clip-path:url(#S);fill:none;stroke:#3d5232;stroke-width:10;stroke-miterlimit:10"/><path d="M70.13 96c-8.84 0-16 7.16-16 16 0 1.48.22 2.9.59 4.26a16 16 0 0 0 1.29 3.28l.26.44L70.21 144l13.63-23.78c.16-.27.32-.54.47-.82.52-.99.93-2.05 1.23-3.15.37-1.36.59-2.78.59-4.26 0-8.83-7.16-15.99-16-15.99" style="clip-path:url(#S);fill:#f0454d"/><circle cx="70.18" cy="112" r="6" style="clip-path:url(#S);fill:#fff"/><path d="m130.28 160.86-35.44 23.19" style="clip-path:url(#S);fill:none;stroke:#908331;stroke-width:2;stroke-miterlimit:10"/><path d="M157.07 172.08h-14.52" style="clip-path:url(#S);fill:none;stroke:#c3b141;stroke-width:2;stroke-miterlimit:10"/></svg>