<svg xmlns="http://www.w3.org/2000/svg" viewBox="0 0 56 56" style="enable-background:new 0 0 56 56" xml:space="preserve"><style>.st3{fill:#fff}</style><g id="Calque_1"><path class="st3" d="M28 28.1v-2.9c.1-1.7 1.3-2.6 2.8-2.4.6.1 1.3 0 1.9-.3 2.3-1.2 4.8-.1 5.7 2.3 1.1 3 2.7 5.6 5.9 6.9.6.2 1.1.5 1.6.8 1.1.5 1.7 1.3 1.1 2.4-.5 1.1-1.5 1.1-2.5.6-1.5-.8-3.1-1.5-4.9-2.3 0 1.1.1 2.1 0 3-.1 1.3.1 3-.5 4-1.3 2-1 4-1 6.1v7c0 1.7-1 2.8-2.4 2.8-1.5 0-2.5-1.1-2.5-2.8V43.2c0-.4.1-.9-.1-1.1-1.6-1.8-1.3-3.9-1.2-6-3 .6-3.9-.2-3.7-3.2.1-.8 0-1.5 0-2.6-1.9 1.8-3.2.5-4.5-.6-.8-.8-1.7-1.5-2.9-2.1.6 3.7 1.1 7.3 1.7 11.1-.9.1-1.6.1-2.6.2v13.8c-.1 1.8-1.4 2.7-3.1 2.1-.4-.1-.9-.2-1.3 0-2 .6-3.3-.3-3.3-2.4V38.9c-.8-.1-1.3-.1-2.1-.2.3-1.5.4-3 .8-4.3 1.5-5.3 1-10.5.1-15.8-.1-.9-.3-1.7-.4-2.6-.3-2.4 1.2-4.6 3.5-5.1 2.4-.5 4.4 1 5.4 3.3 1.5 3.6 3.2 7.2 5.1 10.6.6 1.3 2.1 2.1 3.4 3.3M12.3 5c0-2.7 2-4.7 4.7-4.8 2.6 0 4.8 2 4.8 4.7S19.7 9.8 17 9.8c-2.6 0-4.7-2.1-4.7-4.8"/><path class="st3" d="M34.9 20.9c-2.1 0-3.7-1.7-3.7-3.8 0-2 1.7-3.7 3.8-3.7 2 0 3.7 1.7 3.7 3.8 0 2.2-1.7 3.8-3.8 3.7"/><path style="fill:none" d="M0 0h56v56H0z"/></g></svg>
