<svg xmlns="http://www.w3.org/2000/svg" viewBox="0 0 56 56" style="enable-background:new 0 0 56 56" xml:space="preserve"><style>.st3{fill:#fff}</style><g id="Calque_1"><path class="st3" d="M52.9 22.5H27.4c-1.7 0-3.1-1.4-3.1-3.1V3.1c0-1.7 1.4-3.1 3.1-3.1h25.5C54.6 0 56 1.4 56 3.1v16.3c0 1.7-1.4 3.1-3.1 3.1zM27.4 2.3c-.4 0-.8.3-.8.8v16.3c0 .4.3.8.8.8h25.5c.4 0 .8-.3.8-.8V3.1c0-.4-.3-.8-.8-.8H27.4z"/><circle class="st3" cx="49" cy="46.8" r="3.8"/><path class="st3" d="M56 56H41.9c0-5.6 14.1-5.6 14.1 0z"/><circle class="st3" cx="28" cy="46.8" r="3.8"/><path class="st3" d="M35 56H20.9C21 50.4 35 50.4 35 56z"/><circle class="st3" cx="7" cy="46.8" r="3.8"/><path class="st3" d="M14.1 56H0c0-5.6 14.1-5.6 14.1 0zM21.9 16.6c.4 1.6 1.3 9.8 1.2 9.8-1 .5-2.1 1-2 2.4.1 1 1.1 9 1.4 11.9.1 1.3-.2 2.3-1.6 2.5-1.4.2-2-.8-2.1-2.1-.4-3.8-1.2-12-1.4-12.2l-1.2 12c-.1 1.3-.5 2.4-2 2.3-1.5-.1-1.7-1.2-1.5-2.5.3-3.5 1.1-11.4 1.2-11.9.1-.7-.7-2.1-2.1-2.4l1.8-8.5s-2.4 4.4-3.2 5.3c-.8.9-1.7 1.5-2.6.8-1-.7-.6-1.8.2-2.9 2-2.7 5.2-8.6 6.6-8.6h6.3s7.8-8.5 9.9-6.1c2.6 3-4.6 6-8.9 10.2z"/><circle class="st3" cx="17.4" cy="7.5" r="3.8"/></g></svg>
