<svg xmlns="http://www.w3.org/2000/svg" viewBox="0 0 56 56" style="enable-background:new 0 0 56 56" xml:space="preserve"><style>.st2{fill:#2a2a2a}</style><g id="Calque_1"><path class="st2" d="M54.9 8.6c-.8-.8-1.8-1.3-2.9-1.4L24 5.6c-1.1-.1-2.2.3-3.1 1.1-.8.8-1.3 1.8-1.4 2.9l-1.9 34.7c-.1 1.1.3 2.2 1.1 3.1.8.8 1.8 1.4 2.9 1.4l28 1.6h.2c1 0 2-.4 2.8-1.1.8-.8 1.3-1.8 1.4-2.9l2-34.8c.1-1.1-.3-2.2-1.1-3zM51 47.4c-.4.3-.8.5-1.3.5l-28-1.6c-.5 0-.9-.2-1.2-.6-.3-.4-.5-.8-.5-1.3l2-34.7c.1-.9.8-1.7 1.8-1.7h.1l28 1.6c1 .1 1.7.9 1.7 1.9l-1.9 34.7c-.1.5-.4.9-.7 1.2z"/><circle class="st2" cx="26.4" cy="41.5" r="2.5"/><path class="st2" d="m46.4 25.9-18.9-1.1c-1.4-.1-2.5-1.3-2.4-2.7l.4-7.9c.1-1.4 1.3-2.5 2.7-2.4l18.9 1.1c1.4.1 2.5 1.3 2.4 2.7l-.4 7.9c-.1 1.4-1.3 2.5-2.7 2.4zm-18.3-13c-.8 0-1.5.6-1.6 1.4l-.4 7.9c0 .8.6 1.5 1.4 1.6l18.9 1.1c.8 0 1.5-.6 1.6-1.4l.4-7.9c0-.8-.6-1.5-1.4-1.6l-18.9-1.1zM48.2 30.5l-23-1.3c-.3 0-.5-.3-.5-.6s.3-.5.6-.5l23 1.3c.3 0 .5.3.5.6s-.3.5-.6.5zM48 34.4l-23-1.3c-.3 0-.5-.3-.5-.6s.3-.5.6-.5l23 1.3c.3 0 .5.3.5.6-.1.3-.3.5-.6.5zM47.7 38.2l-23-1.3c-.3 0-.5-.3-.5-.6s.3-.5.6-.5l23 1.3c.3 0 .5.3.5.6s-.3.6-.6.5z"/><path class="st2" d="M47.4 25.5 26.6 13.2l.6-1L48 24.6z"/><path class="st2" d="m26.5 24.4-.4-1.1 22-9.9.4 1zM10.3 12.7l6.6-2.4.1-2L9.7 11c-1 .4-1.8 1.1-2.2 2s-.5 2-.1 3l8 22 .3-4.7-6.7-18c-.4-1 .2-2.2 1.3-2.6zM14.4 42.3 1.6 20.9c-.7-1.1-.3-2.6.7-3.2l3-1.2-.4-1.2-3.1 1.3c-1.7 1-2.3 3.3-1.2 5l15.9 26.5-2.1-5.8z"/><path style="fill:none" d="M0 0h56v56H0z"/></g></svg>
