<svg xmlns="http://www.w3.org/2000/svg" viewBox="0 0 56 56" style="enable-background:new 0 0 56 56" xml:space="preserve"><style>.st3{fill:#fff}</style><g id="Calque_1"><path class="st3" d="M35.4 32.4c0 1.4-1.1 2.5-2.5 2.5h-9.8c-1.4 0-2.5-1.1-2.5-2.5v-.9L0 22.7V44c0 2.2 1.8 4 4 4h48c2.2 0 4-1.8 4-4V22.7l-20.6 8.8v.9z"/><path class="st3" d="M52 12.1H38.4V9.3c0-2.8-2.3-5.1-5.1-5.1H22.7c-2.8 0-5.1 2.3-5.1 5.1v2.8H4c-2.2 0-4 1.8-4 4v3.3l20.6 8.8v-.6c0-1.4 1.1-2.5 2.5-2.5h9.8c1.4 0 2.5 1.1 2.5 2.5v.6L56 19.4v-3.3c0-2.2-1.8-4-4-4zM20.5 9.3c0-1.2 1-2.1 2.1-2.1h10.6c1.2 0 2.1 1 2.1 2.1v2.8H20.5V9.3z"/><path class="st3" d="M25.5 27.7h5v5h-5z"/><path style="fill:none" d="M0 0h56v56H0z"/></g></svg>
