<svg xmlns="http://www.w3.org/2000/svg" viewBox="0 0 56 56" style="enable-background:new 0 0 56 56" xml:space="preserve"><style>.st3{fill:#fff}</style><g id="Calque_1"><path class="st3" d="M38.5 10.5c-1.6-1.8-3.4-3.8-5.3-5.9v5.9h5.3zm-18.1 17h33.9v-3.7H20.4v3.7zm6 25.1c0-1.2.1-2.1 0-3.1-.1-.9 0-2-.5-2.6-2-2.3-4.3-4.4-6.5-6.6-2.6 2.7-5.3 5.2-7.8 7.9-1 1-1.8 1.3-2.6 0-.5-.8-1-1.5-1.5-2.2-2 1.8-5.5 5-5.5 5v1.7h24.4zM1.8 32.7v16.6c1.5-1.6 2.8-2.8 4-4.2.8-.9 1.5-.9 2.3 0 .6.8 1.2 1.6 1.9 2.5 2.5-2.6 4.6-4.7 6.8-6.9 3.1-3.1 2.2-3.1 5.3 0l4.3 4.3V33.8c0-1.2-.7-1.1-1.5-1.1H1.8m17-1.6c0-2.3.1-4.5 0-6.7-.1-1.7.4-2.2 2.1-2.2 5.8.1 11.6 0 17.5 0h1.9V12h-6.4c-2.4 0-2.4 0-2.4-2.5V3.6H14.3v27.5h4.5zm1.6.1c2 0 3.9.1 5.7 0 1.3-.1 1.7.4 1.7 1.7-.1 3.5 0 7 0 10.5v5.9h26.5V29.2h-34v2zm7.7 19.6c-.6 3.3-.6 3.3-4.1 3.3H2.2C.6 54.1.1 53.7.1 52c.1-6.3.1-12.6 0-18.9 0-1.6.5-2.1 2.1-2.1 3.4.1 6.8 0 10.4 0V3.8c0-1.7.5-2.2 2.2-2.2 5.5.1 11.1 0 16.6.1.8 0 1.8.4 2.4.9 2.5 2.3 4.9 4.7 7.3 7.1.5.5.8 1.4.9 2.1.1 3.3 0 6.6 0 10.1.8 0 1.4.1 2 .1h10.5c1.1 0 1.6.3 1.6 1.5v25.7c0 1.4-.7 1.5-1.8 1.5H28.1z"/><path class="st3" d="M34.3 39.5v-3.1c0-1.1.6-1.5 1.6-.9 1.7 1 3.5 2.1 5.2 3.1 1 .6 1.1 1.2.1 1.8-1.7 1-3.5 2.1-5.2 3.1-1 .6-1.7.4-1.7-.9v-3.1M26.9 18.2h-6.6c-.5 0-1-.5-1.5-.8.5-.3.9-.7 1.4-.7 4.5-.1 9.1-.1 13.6 0 .4 0 .9.5 1.3.8-.5.2-.9.7-1.4.7h-6.8M23.2 12c-1.1 0-2.2.1-3.3 0-.4 0-.7-.4-1-.7.3-.3.6-.7 1-.7 2.3-.1 4.7-.1 7 0 .4 0 .7.4 1 .7-.4.3-.7.7-1.1.7-1.3.1-2.4 0-3.6 0M8.9 35.5c-1.8 0-3.3 1.5-3.4 3.3 0 1.8 1.4 3.4 3.2 3.4 1.9.1 3.5-1.5 3.5-3.3 0-1.8-1.5-3.3-3.3-3.4"/><path style="fill:none" d="M0 0h56v56H0z"/></g></svg>
