<svg xmlns="http://www.w3.org/2000/svg" viewBox="0 0 56 56" style="enable-background:new 0 0 56 56" xml:space="preserve"><style>.st3{fill:#fff}</style><g id="Calque_1"><path class="st3" d="M.6 33v-6.5c0-3.5 2.4-6.1 5.6-6.1 3.4 0 5.9 2.5 6 6.1.1 2.3.1 4.6 0 6.9-.1 1.4.5 1.8 1.8 1.7.8-.1 1.6 0 2.4 0 2.2.1 3.8 1.4 3.8 3.6.1 4.2.1 8.4 0 12.7 0 1.7-1.1 2.6-2.7 2.6h-2.8c-1.9 0-2.9-1-2.9-2.9v-6.3c0-1-.3-1.4-1.4-1.4-2.1.1-4.2 0-6.3 0-2.2 0-3.5-1.3-3.5-3.5V33M55.4 33.1v6.5c0 2.7-1.1 3.8-3.9 3.8h-5.9c-1.1 0-1.5.4-1.5 1.5.1 2.2 0 4.3 0 6.5 0 1.7-1 2.6-2.6 2.7h-3.1c-1.6 0-2.5-.9-2.6-2.4 0-4.4-.1-8.8 0-13.3 0-1.8 1.4-3.1 3.2-3.2 1-.1 2-.1 2.9 0 1.2.1 1.7-.3 1.6-1.6-.1-2.4-.1-4.8 0-7.2.1-3.2 2.3-5.6 5.1-5.9 3.1-.3 5.9 1.6 6.4 4.6.3 2 .1 4.1.1 6.2.3.5.3 1.2.3 1.8M25.5 31.6h-5.1c-1.7 0-2.9-1-2.9-2.5s1.1-2.5 2.9-2.5h15.2c1.8 0 2.8 1 2.8 2.5s-1.1 2.4-2.9 2.4h-5.1V51c0 2-.8 3-2.4 3-1.6 0-2.4-1-2.5-3V31.6M49.6 18.7c-3.6 0-6.5-2.9-6.5-6.4 0-3.5 3-6.5 6.5-6.5S56 8.7 56 12.3s-2.8 6.4-6.4 6.4M6.4 18.7c-3.6 0-6.4-2.8-6.4-6.5 0-3.6 3-6.5 6.5-6.4 3.5.1 6.5 3 6.4 6.5 0 3.6-2.9 6.4-6.5 6.4M28 1.7c-5.8 0-10.5 4.7-10.5 10.5S22.2 22.7 28 22.7 38.5 18 38.5 12.2 33.8 1.7 28 1.7zm3.3 11.6H27l-.1-6.8 1-1.3 1 1.2v4.8h2.3l1.2 1-1.1 1.1z"/><path style="fill:none" d="M0 0h56v56H0z"/></g></svg>
