<svg xmlns="http://www.w3.org/2000/svg" viewBox="0 0 56 56" style="enable-background:new 0 0 56 56" xml:space="preserve"><style>.st3{fill:#fff}</style><g id="Calque_1"><path class="st3" d="M26.6 12.1c3.4 0 6.1-2.7 6.1-6 0-3.4-2.7-6.1-6-6.1-3.5 0-6.2 2.6-6.1 6.1-.1 3.4 2.6 6 6 6m18.7 25.3H28.8v11.9h16.4V37.4zM32.6 51.8c-.2-.1-.3-.2-.4-.2h-3c-1.9 0-2.6-.7-2.6-2.6V38.2c0-2.6.6-3.2 3.1-3.2h7.1c0-4.8.1-9.3 0-13.9-.1-3.3-2.6-6.1-5.9-6.5-2.3-.3-4.7-.2-7-.2-4.7.1-7.7 3.1-7.7 7.8v11.5c0 3.7.5 4.2 4.1 4.5.1 0 .2.1.3.3V53c0 1.9 1 2.9 2.9 2.9h5.2c3.2.1 4.1-.9 3.9-4.1"/><path class="st3" d="M32.6 51.8c.3 3.2-.7 4.2-3.8 4.2h-5.2c-1.9 0-2.9-1-2.9-2.9V38.6c-.2-.1-.2-.3-.3-.3-3.6-.3-4.1-.8-4.1-4.5V22.3c0-4.7 3-7.8 7.7-7.8 2.3 0 4.7-.1 7 .2 3.3.4 5.8 3.1 5.9 6.5.1 4.6 0 9.1 0 13.9h-7.1c-2.6 0-3.1.6-3.1 3.2v10.8c0 1.9.7 2.6 2.6 2.6h3c0-.1.1 0 .3.1"/><path style="fill:none" d="M0 0h56v56H0z"/></g></svg>
