<svg width="180" height="208" fill="none" xmlns="http://www.w3.org/2000/svg"><g clip-path="url(#a)"><path d="M90.01 0 0 51.977v103.975L90 208l90-52.048V51.977L90.01 0z" fill="url(#b)"/><path d="M40.22 60.675h2.566l7.245 11.749 7.276-11.749h2.535v21.142H57.91V63.212l-7.064 11.356h-1.63l-7.064-11.356v18.605H40.22V60.676zM65.85 60.434c0-.725.634-1.329 1.388-1.329.755 0 1.359.604 1.359 1.329 0 .785-.604 1.359-1.359 1.359-.754 0-1.388-.574-1.388-1.36zm.483 6.161h1.78v15.222h-1.78V66.595zM73.548 78.736c1.147 1.45 2.475 2.144 4.105 2.144 1.993 0 3.14-1.268 3.14-2.838 0-3.866-7.819-2.568-7.819-7.944 0-2.204 1.872-4.107 4.68-4.107 2.052 0 3.773.997 4.83 2.446l-1.329 1.057c-.845-1.268-2.083-1.963-3.472-1.963-1.901 0-2.958 1.178-2.958 2.567 0 3.957 7.819 2.749 7.819 7.883 0 2.628-2.083 4.44-4.86 4.44-2.265 0-4.136-.906-5.465-2.598l1.329-1.087zM86.619 78.736c1.147 1.45 2.475 2.144 4.106 2.144 1.992 0 3.14-1.268 3.14-2.838 0-3.866-7.82-2.568-7.82-7.944 0-2.204 1.872-4.107 4.68-4.107 2.052 0 3.773.997 4.83 2.446l-1.329 1.057c-.845-1.268-2.083-1.963-3.471-1.963-1.902 0-2.959 1.178-2.959 2.567 0 3.957 7.819 2.749 7.819 7.883 0 2.628-2.083 4.44-4.86 4.44-2.264 0-4.136-.906-5.464-2.598l1.328-1.087zM99.75 60.434c0-.725.635-1.329 1.389-1.329.755 0 1.359.604 1.359 1.329 0 .785-.604 1.359-1.359 1.359-.754 0-1.388-.574-1.388-1.36zm.484 6.161h1.781v15.222h-1.781V66.595zM122.905 74.206c0 4.349-3.291 8.215-8.181 8.215-4.89 0-8.151-3.866-8.151-8.215 0-4.35 3.291-8.215 8.151-8.215 4.86 0 8.181 3.866 8.181 8.215zm-1.902 0c0-3.504-2.657-6.524-6.249-6.524-3.592 0-6.339 3.05-6.339 6.524 0 3.473 2.626 6.523 6.339 6.523 3.713 0 6.249-3.08 6.249-6.523zM127.433 66.595h1.781v2.084c1.328-1.661 3.049-2.688 5.434-2.688 3.471 0 5.977 2.295 5.977 6.493v9.333h-1.781v-9.272c0-3.141-1.781-4.863-4.438-4.863-2.415 0-4.015 1.239-5.192 3.202v10.933h-1.781V66.595zM88.631 117.092l-11.672 6.605-5.394-7.732 17.388-10.067H99.5v56.376H88.631v-45.182z" fill="#fff"/></g><defs><linearGradient id="b" x1=".231" y1="14.145" x2="222.165" y2="235.985" gradientUnits="userSpaceOnUse"><stop stop-color="#2F29FF"/><stop offset="1" stop-color="#ED6A81"/></linearGradient><clipPath id="a"><path fill="#fff" d="M0 0h180v208H0z"/></clipPath></defs></svg>