<svg width="180" height="208" viewBox="0 0 180 208" fill="none" xmlns="http://www.w3.org/2000/svg">
<g clip-path="url(#clip0_175_12135)">
<path d="M90.01 0L0 51.9801V155.95L90 208L180 155.95V51.9801L90.01 0Z" fill="url(#paint0_radial_175_12135)"/>
<path d="M41.582 60.0851H44.123L51.2975 71.7193L58.5019 60.0851H61.0129V81.0207H59.0997V62.5974L52.1046 73.8428H50.4904L43.4952 62.5974V81.0207H41.582V60.0851Z" fill="white"/>
<path d="M66.9619 59.8459C66.9619 59.1281 67.5897 58.5299 68.337 58.5299C69.0844 58.5299 69.6822 59.1281 69.6822 59.8459C69.6822 60.6235 69.0844 61.1917 68.337 61.1917C67.5897 61.1917 66.9619 60.6235 66.9619 59.8459ZM67.4402 65.9471H69.2039V81.0207H67.4402V65.9471Z" fill="white"/>
<path d="M74.5849 77.97C75.7208 79.4056 77.0361 80.0935 78.6504 80.0935C80.6234 80.0935 81.7593 78.8374 81.7593 77.2822C81.7593 73.4539 74.0169 74.74 74.0169 69.4164C74.0169 67.2331 75.8703 65.3489 78.6504 65.3489C80.6832 65.3489 82.3871 66.3358 83.4334 67.7714L82.1181 68.8182C81.2811 67.5621 80.0554 66.8742 78.6803 66.8742C76.797 66.8742 75.7507 68.0406 75.7507 69.4164C75.7507 73.3343 83.4932 72.138 83.4932 77.2223C83.4932 79.8243 81.4305 81.6188 78.6803 81.6188C76.4383 81.6188 74.5849 80.7216 73.2695 79.0467L74.5849 77.97Z" fill="white"/>
<path d="M87.5287 77.97C88.6647 79.4056 89.98 80.0935 91.5942 80.0935C93.5672 80.0935 94.7032 78.8374 94.7032 77.2822C94.7032 73.4539 86.9607 74.74 86.9607 69.4164C86.9607 67.2331 88.8141 65.3489 91.5942 65.3489C93.627 65.3489 95.331 66.3358 96.3772 67.7714L95.0619 68.8182C94.2249 67.5621 92.9993 66.8742 91.6241 66.8742C89.7408 66.8742 88.6946 68.0406 88.6946 69.4164C88.6946 73.3343 96.437 72.138 96.437 77.2223C96.437 79.8243 94.3744 81.6188 91.6241 81.6188C89.3821 81.6188 87.5287 80.7216 86.2134 79.0467L87.5287 77.97Z" fill="white"/>
<path d="M100.532 59.8459C100.532 59.1281 101.16 58.5299 101.908 58.5299C102.655 58.5299 103.253 59.1281 103.253 59.8459C103.253 60.6235 102.655 61.1917 101.908 61.1917C101.16 61.1917 100.532 60.6235 100.532 59.8459ZM101.011 65.9471H102.774V81.0207H101.011V65.9471Z" fill="white"/>
<path d="M123.451 73.4838C123.451 77.7906 120.193 81.6188 115.35 81.6188C110.507 81.6188 107.279 77.7906 107.279 73.4838C107.279 69.1771 110.537 65.3489 115.35 65.3489C120.163 65.3489 123.451 69.1771 123.451 73.4838ZM121.568 73.4838C121.568 70.0145 118.937 67.0237 115.38 67.0237C111.822 67.0237 109.102 70.0444 109.102 73.4838C109.102 76.9233 111.703 79.944 115.38 79.944C119.057 79.944 121.568 76.8934 121.568 73.4838Z" fill="white"/>
<path d="M127.935 65.947H129.699V68.0107C131.014 66.3657 132.718 65.3489 135.08 65.3489C138.517 65.3489 140.999 67.6219 140.999 71.7791V81.0206H139.235V71.8389C139.235 68.7285 137.471 67.0237 134.841 67.0237C132.449 67.0237 130.865 68.25 129.699 70.194V81.0206H127.935V65.947Z" fill="white"/>
<path d="M90.5579 162.37C80.0353 162.37 73.2594 157.745 68.7156 149.769L78.1221 143.947C81.2311 150.088 84.9778 152.8 90.4782 152.8C95.9786 152.8 99.9645 149.53 99.9645 144.346C99.9645 139.162 95.9786 136.051 90.0796 136.051H80.9122V126.481H89.3622C94.0654 126.481 97.4933 123.849 97.4933 119.542C97.4933 115.235 94.3046 112.923 89.9202 112.923C85.5358 112.923 82.4268 115.315 80.115 119.303L71.3462 113.88C75.4118 107.26 81.7094 103.352 90.7174 103.352C100.921 103.352 108.494 109.174 108.494 118.346C108.494 123.53 106.262 127.916 102.117 130.788C107.777 133.659 110.886 138.683 110.886 144.824C110.886 155.432 102.197 162.37 90.5579 162.37Z" fill="white"/>
</g>
<defs>
<radialGradient id="paint0_radial_175_12135" cx="0" cy="0" r="1" gradientUnits="userSpaceOnUse" gradientTransform="translate(-1.95305 48.3213) scale(168.531 168.611)">
<stop offset="0.47" stop-color="#ABB8DF"/>
<stop offset="1" stop-color="#DEBA48"/>
</radialGradient>
<clipPath id="clip0_175_12135">
<rect width="180" height="208" fill="white"/>
</clipPath>
</defs>
</svg>
