<svg xmlns="http://www.w3.org/2000/svg" width="180" height="208" fill="none"><g clip-path="url(#a)"><path fill="url(#b)" d="M90.01 0 0 51.977v103.975L90 208l90-52.048V51.977z"/><path fill="#fff" d="M40.22 60.675h2.566l7.245 11.749 7.276-11.749h2.535v21.142H57.91V63.212l-7.064 11.356h-1.63l-7.064-11.356v18.605H40.22V60.676zm25.63-.241c0-.725.634-1.329 1.388-1.329.755 0 1.359.604 1.359 1.329 0 .785-.604 1.359-1.359 1.359-.754 0-1.388-.574-1.388-1.36zm.483 6.161h1.78v15.222h-1.78zm7.215 12.141c1.147 1.45 2.475 2.144 4.105 2.144 1.993 0 3.14-1.268 3.14-2.838 0-3.866-7.819-2.568-7.819-7.944 0-2.204 1.872-4.107 4.68-4.107a5.93 5.93 0 0 1 4.83 2.446l-1.329 1.057c-.845-1.268-2.083-1.963-3.472-1.963-1.901 0-2.958 1.178-2.958 2.567 0 3.957 7.819 2.749 7.819 7.883 0 2.628-2.083 4.44-4.86 4.44-2.265 0-4.136-.906-5.465-2.598zm13.071 0c1.147 1.45 2.475 2.144 4.106 2.144 1.992 0 3.14-1.268 3.14-2.838 0-3.866-7.82-2.568-7.82-7.944 0-2.204 1.872-4.107 4.68-4.107a5.93 5.93 0 0 1 4.83 2.446l-1.329 1.057c-.845-1.268-2.083-1.963-3.471-1.963-1.902 0-2.959 1.178-2.959 2.567 0 3.957 7.819 2.749 7.819 7.883 0 2.628-2.083 4.44-4.86 4.44-2.264 0-4.136-.906-5.464-2.598zM99.75 60.434c0-.725.635-1.329 1.389-1.329.755 0 1.359.604 1.359 1.329 0 .785-.604 1.359-1.359 1.359-.754 0-1.388-.574-1.388-1.36zm.484 6.161h1.781v15.222h-1.781zm22.671 7.611c0 4.349-3.291 8.215-8.181 8.215s-8.151-3.866-8.151-8.215 3.291-8.215 8.151-8.215 8.181 3.866 8.181 8.215m-1.902 0c0-3.504-2.657-6.524-6.249-6.524s-6.339 3.05-6.339 6.524c0 3.473 2.626 6.523 6.339 6.523s6.249-3.08 6.249-6.523m6.43-7.611h1.781v2.084c1.328-1.661 3.049-2.688 5.434-2.688 3.471 0 5.977 2.295 5.977 6.493v9.333h-1.781v-9.272c0-3.141-1.781-4.863-4.438-4.863-2.415 0-4.015 1.239-5.192 3.202v10.933h-1.781zm-38.802 50.497-11.672 6.605-5.394-7.732 17.388-10.067H99.5v56.376H88.631z"/></g><defs><linearGradient id="b" x1=".231" x2="222.165" y1="14.145" y2="235.985" gradientUnits="userSpaceOnUse"><stop stop-color="#2F29FF"/><stop offset="1" stop-color="#ED6A81"/></linearGradient><clipPath id="a"><path fill="#fff" d="M0 0h180v208H0z"/></clipPath></defs></svg>