<svg width="180" height="208" viewBox="0 0 180 208" fill="none" xmlns="http://www.w3.org/2000/svg">
<g clip-path="url(#clip0_175_12038)">
<path d="M90.0101 0L0 51.9774V155.952L90 208L180 155.952V51.9774L90.0101 0Z" fill="url(#paint0_radial_175_12038)"/>
<path d="M40.2202 60.6755H42.7862L50.0313 72.424L57.3065 60.6755H59.8423V81.8168H57.9103V63.2124L50.8463 74.5683H49.2162L42.1522 63.2124V81.8168H40.2202V60.6755Z" fill="white"/>
<path d="M65.8496 60.4339C65.8496 59.709 66.4836 59.105 67.2382 59.105C67.9929 59.105 68.5967 59.709 68.5967 60.4339C68.5967 61.2191 67.9929 61.7929 67.2382 61.7929C66.4836 61.7929 65.8496 61.2191 65.8496 60.4339ZM66.3326 66.595H68.1137V81.8168H66.3326V66.595Z" fill="white"/>
<path d="M73.5475 78.7362C74.6946 80.1859 76.0229 80.8805 77.653 80.8805C79.6454 80.8805 80.7926 79.612 80.7926 78.0415C80.7926 74.1757 72.9739 75.4744 72.9739 70.0984C72.9739 67.8937 74.8456 65.991 77.653 65.991C79.7058 65.991 81.4265 66.9877 82.4831 68.4373L81.1548 69.4944C80.3096 68.2259 79.0719 67.5313 77.6832 67.5313C75.7814 67.5313 74.7248 68.7092 74.7248 70.0984C74.7248 74.0549 82.5435 72.8468 82.5435 77.9811C82.5435 80.6087 80.4605 82.4208 77.6832 82.4208C75.4191 82.4208 73.5475 81.5147 72.2192 79.8234L73.5475 78.7362Z" fill="white"/>
<path d="M86.619 78.7362C87.7662 80.1859 89.0944 80.8805 90.7246 80.8805C92.717 80.8805 93.8641 79.612 93.8641 78.0415C93.8641 74.1757 86.0455 75.4744 86.0455 70.0984C86.0455 67.8937 87.9171 65.991 90.7246 65.991C92.7774 65.991 94.4981 66.9877 95.5546 68.4373L94.2264 69.4944C93.3811 68.2259 92.1434 67.5313 90.7548 67.5313C88.8529 67.5313 87.7964 68.7092 87.7964 70.0984C87.7964 74.0549 95.615 72.8468 95.615 77.9811C95.615 80.6087 93.5321 82.4208 90.7548 82.4208C88.4907 82.4208 86.619 81.5147 85.2908 79.8234L86.619 78.7362Z" fill="white"/>
<path d="M99.7507 60.4339C99.7507 59.709 100.385 59.105 101.139 59.105C101.894 59.105 102.498 59.709 102.498 60.4339C102.498 61.2191 101.894 61.7929 101.139 61.7929C100.385 61.7929 99.7507 61.2191 99.7507 60.4339ZM100.234 66.595H102.015V81.8168H100.234V66.595Z" fill="white"/>
<path d="M122.905 74.2059C122.905 78.555 119.614 82.4208 114.724 82.4208C109.834 82.4208 106.573 78.555 106.573 74.2059C106.573 69.8568 109.864 65.991 114.724 65.991C119.584 65.991 122.905 69.8568 122.905 74.2059ZM121.003 74.2059C121.003 70.7025 118.346 67.6823 114.754 67.6823C111.162 67.6823 108.415 70.7327 108.415 74.2059C108.415 77.6791 111.041 80.7295 114.754 80.7295C118.467 80.7295 121.003 77.6489 121.003 74.2059Z" fill="white"/>
<path d="M127.433 66.595H129.214V68.679C130.542 67.0179 132.263 65.991 134.648 65.991C138.12 65.991 140.625 68.2863 140.625 72.4844V81.8168H138.844V72.5448C138.844 69.4038 137.063 67.6823 134.407 67.6823C131.991 67.6823 130.392 68.9206 129.214 70.8837V81.8168H127.433V66.595Z" fill="white"/>
<path d="M70.5188 152.529L89.839 133.522C94.1861 129.093 96.9231 126.032 96.9231 121.442C96.9231 116.851 93.7031 114.032 89.2755 114.032C83.882 114.032 80.5814 117.334 77.6029 122.327L68.7478 116.931C73.4974 109.2 80.5009 104.367 90.322 104.367C100.143 104.367 108.032 110.649 108.032 120.314C108.032 128.046 102.961 134.005 97.4061 139.402L83.8015 152.529H109.481V162.355H70.5188V152.529Z" fill="white"/>
</g>
<defs>
<radialGradient id="paint0_radial_175_12038" cx="0" cy="0" r="1" gradientUnits="userSpaceOnUse" gradientTransform="translate(6.14826 122.056) scale(174.113 174.194)">
<stop stop-color="#70A0FE"/>
<stop offset="1" stop-color="#ED6A81"/>
</radialGradient>
<clipPath id="clip0_175_12038">
<rect width="180" height="208" fill="white"/>
</clipPath>
</defs>
</svg>
