<svg width="180" height="208" viewBox="0 0 180 208" fill="none" xmlns="http://www.w3.org/2000/svg">
<g clip-path="url(#clip0_175_12414)">
<path d="M90.01 0L0 51.9774V155.952L90 208L180 155.952V51.9774L90.01 0Z" fill="url(#paint0_radial_175_12414)"/>
<path d="M40.7031 60.4647H43.2602L50.4803 72.1724L57.7304 60.4647H60.2574V81.5326H58.3321V62.9929L51.2925 74.3093H49.668L42.6285 62.9929V81.5326H40.7031V60.4647Z" fill="white"/>
<path d="M66.2439 60.224C66.2439 59.5017 66.8757 58.8998 67.6277 58.8998C68.3798 58.8998 68.9815 59.5017 68.9815 60.224C68.9815 61.0066 68.3798 61.5784 67.6277 61.5784C66.8757 61.5784 66.2439 61.0066 66.2439 60.224ZM66.7252 66.3638H68.5002V81.5327H66.7252V66.3638Z" fill="white"/>
<path d="M73.9152 78.4627C75.0584 79.9074 76.3821 80.5996 78.0066 80.5996C79.9921 80.5996 81.1353 79.3356 81.1353 77.7705C81.1353 73.9181 73.3436 75.2123 73.3436 69.855C73.3436 67.6579 75.2088 65.7618 78.0066 65.7618C80.0523 65.7618 81.767 66.755 82.82 68.1997L81.4963 69.2531C80.6539 67.989 79.4205 67.2968 78.0367 67.2968C76.1414 67.2968 75.0885 68.4706 75.0885 69.855C75.0885 73.7977 82.8801 72.5938 82.8801 77.7103C82.8801 80.3288 80.8044 82.1346 78.0367 82.1346C75.7804 82.1346 73.9152 81.2317 72.5916 79.5462L73.9152 78.4627Z" fill="white"/>
<path d="M86.9416 78.4627C88.0848 79.9074 89.4085 80.5996 91.033 80.5996C93.0185 80.5996 94.1617 79.3356 94.1617 77.7705C94.1617 73.9181 86.37 75.2123 86.37 69.855C86.37 67.6579 88.2352 65.7618 91.033 65.7618C93.0786 65.7618 94.7934 66.755 95.8463 68.1997L94.5227 69.2531C93.6803 67.989 92.4469 67.2968 91.063 67.2968C89.1678 67.2968 88.1149 68.4706 88.1149 69.855C88.1149 73.7977 95.9065 72.5938 95.9065 77.7103C95.9065 80.3288 93.8307 82.1346 91.063 82.1346C88.8068 82.1346 86.9416 81.2317 85.6179 79.5462L86.9416 78.4627Z" fill="white"/>
<path d="M100.028 60.224C100.028 59.5017 100.66 58.8998 101.412 58.8998C102.164 58.8998 102.765 59.5017 102.765 60.224C102.765 61.0066 102.164 61.5784 101.412 61.5784C100.66 61.5784 100.028 61.0066 100.028 60.224ZM100.509 66.3638H102.284V81.5327H100.509V66.3638Z" fill="white"/>
<path d="M123.102 73.9482C123.102 78.2822 119.823 82.1346 114.949 82.1346C110.076 82.1346 106.827 78.2822 106.827 73.9482C106.827 69.6142 110.106 65.7618 114.949 65.7618C119.793 65.7618 123.102 69.6142 123.102 73.9482ZM121.207 73.9482C121.207 70.457 118.559 67.4473 114.979 67.4473C111.399 67.4473 108.662 70.4871 108.662 73.9482C108.662 77.4094 111.279 80.4492 114.979 80.4492C118.68 80.4492 121.207 77.3793 121.207 73.9482Z" fill="white"/>
<path d="M127.614 66.3638H129.389V68.4405C130.713 66.7851 132.428 65.7618 134.804 65.7618C138.264 65.7618 140.761 68.0492 140.761 72.2327V81.5326H138.986V72.2929C138.986 69.1628 137.211 67.4473 134.564 67.4473C132.157 67.4473 130.562 68.6812 129.389 70.6375V81.5326H127.614V66.3638Z" fill="white"/>
<path d="M69.1321 137.072L93.1989 105.61H105.874V137.072H111.57V146.863H105.874V161.791H95.0441V146.863H69.1321V137.072ZM95.0441 137.072V117.89L80.283 137.072H95.0441Z" fill="white"/>
</g>
<defs>
<radialGradient id="paint0_radial_175_12414" cx="0" cy="0" r="1" gradientUnits="userSpaceOnUse" gradientTransform="translate(-6.93928 37.5309) scale(199.996 200.084)">
<stop stop-color="#FFC29E"/>
<stop offset="0.48" stop-color="#CB634B"/>
<stop offset="0.53" stop-color="#C16351"/>
<stop offset="0.61" stop-color="#A96364"/>
<stop offset="0.71" stop-color="#816481"/>
<stop offset="0.83" stop-color="#4965AB"/>
<stop offset="0.96" stop-color="#0067E2"/>
</radialGradient>
<clipPath id="clip0_175_12414">
<rect width="180" height="208" fill="white"/>
</clipPath>
</defs>
</svg>
