<svg width="180" height="208" fill="none" xmlns="http://www.w3.org/2000/svg"><g clip-path="url(#a)"><path d="M90.01 0 0 51.98v103.97L90 208l90-52.05V51.98L90.01 0z" fill="url(#b)"/><path d="M41.582 60.085h2.541l7.175 11.634 7.204-11.634h2.51v20.936H59.1V62.597l-6.995 11.246H50.49l-6.995-11.246v18.424h-1.913V60.085zM66.962 59.846c0-.718.628-1.316 1.375-1.316s1.345.598 1.345 1.316c0 .778-.598 1.346-1.345 1.346s-1.375-.569-1.375-1.346zm.478 6.101h1.764v15.074H67.44V65.947zM74.585 77.97c1.136 1.436 2.451 2.124 4.065 2.124 1.973 0 3.11-1.257 3.11-2.812 0-3.828-7.743-2.542-7.743-7.866 0-2.183 1.853-4.067 4.633-4.067 2.033 0 3.737.987 4.783 2.422l-1.315 1.047c-.837-1.256-2.063-1.944-3.438-1.944-1.883 0-2.93 1.167-2.93 2.542 0 3.918 7.743 2.722 7.743 7.806 0 2.602-2.063 4.397-4.813 4.397-2.242 0-4.095-.897-5.41-2.572l1.315-1.077zM87.529 77.97c1.136 1.436 2.451 2.124 4.065 2.124 1.973 0 3.11-1.257 3.11-2.812 0-3.828-7.743-2.542-7.743-7.866 0-2.183 1.853-4.067 4.633-4.067 2.033 0 3.737.987 4.783 2.422l-1.315 1.047c-.837-1.256-2.063-1.944-3.438-1.944-1.883 0-2.93 1.167-2.93 2.542 0 3.918 7.743 2.722 7.743 7.806 0 2.602-2.063 4.397-4.813 4.397-2.242 0-4.095-.897-5.41-2.572l1.315-1.077zM100.532 59.846c0-.718.628-1.316 1.376-1.316.747 0 1.345.598 1.345 1.316 0 .778-.598 1.346-1.345 1.346-.748 0-1.376-.569-1.376-1.346zm.479 6.101h1.763v15.074h-1.763V65.947zM123.451 73.484c0 4.307-3.258 8.135-8.101 8.135-4.843 0-8.071-3.828-8.071-8.135s3.258-8.135 8.071-8.135 8.101 3.828 8.101 8.135zm-1.883 0c0-3.47-2.631-6.46-6.188-6.46-3.558 0-6.278 3.02-6.278 6.46s2.601 6.46 6.278 6.46c3.677 0 6.188-3.05 6.188-6.46zM127.935 65.947h1.764v2.064c1.315-1.645 3.019-2.662 5.381-2.662 3.437 0 5.919 2.273 5.919 6.43v9.242h-1.764v-9.182c0-3.11-1.764-4.815-4.394-4.815-2.392 0-3.976 1.226-5.142 3.17v10.827h-1.764V65.947zM90.558 162.37c-10.523 0-17.299-4.625-21.842-12.601l9.406-5.822c3.11 6.141 6.856 8.853 12.356 8.853s9.487-3.27 9.487-8.454c0-5.184-3.986-8.295-9.885-8.295h-9.168v-9.57h8.45c4.703 0 8.131-2.632 8.131-6.939s-3.188-6.619-7.573-6.619c-4.384 0-7.493 2.392-9.805 6.38l-8.769-5.423c4.066-6.62 10.363-10.528 19.371-10.528 10.204 0 17.777 5.822 17.777 14.994 0 5.184-2.232 9.57-6.377 12.442 5.66 2.871 8.769 7.895 8.769 14.036 0 10.608-8.689 17.546-20.328 17.546z" fill="#fff"/></g><defs><radialGradient id="b" cx="0" cy="0" r="1" gradientUnits="userSpaceOnUse" gradientTransform="matrix(168.531 0 0 168.611 -1.953 48.321)"><stop offset=".47" stop-color="#ABB8DF"/><stop offset="1" stop-color="#DEBA48"/></radialGradient><clipPath id="a"><path fill="#fff" d="M0 0h180v208H0z"/></clipPath></defs></svg>