<svg xmlns="http://www.w3.org/2000/svg" width="180" height="208" fill="none"><g clip-path="url(#a)"><path fill="url(#b)" d="M90.01 0 0 51.977v103.975L90 208l90-52.048V51.977z"/><path fill="#fff" d="M40.703 60.465h2.557l7.22 11.707 7.25-11.707h2.527v21.068h-1.925v-18.54l-7.04 11.316h-1.624l-7.04-11.316v18.54h-1.925zm25.541-.241c0-.722.632-1.324 1.384-1.324s1.353.602 1.353 1.324a1.33 1.33 0 0 1-1.353 1.354c-.752 0-1.384-.571-1.384-1.354m.481 6.14H68.5v15.169h-1.775v-15.17zm7.19 12.099c1.143 1.444 2.467 2.137 4.092 2.137 1.985 0 3.128-1.264 3.128-2.83 0-3.852-7.791-2.558-7.791-7.915 0-2.197 1.865-4.093 4.663-4.093 2.045 0 3.76.993 4.813 2.438l-1.324 1.053c-.842-1.264-2.075-1.956-3.46-1.956-1.895 0-2.948 1.174-2.948 2.558 0 3.943 7.792 2.739 7.792 7.855 0 2.619-2.076 4.425-4.843 4.425-2.257 0-4.122-.903-5.445-2.589zm13.027 0c1.143 1.444 2.467 2.137 4.091 2.137 1.986 0 3.129-1.264 3.129-2.83 0-3.852-7.792-2.558-7.792-7.915 0-2.197 1.865-4.093 4.663-4.093 2.046 0 3.76.993 4.813 2.438l-1.323 1.053c-.843-1.264-2.076-1.956-3.46-1.956-1.895 0-2.948 1.174-2.948 2.558 0 3.943 7.791 2.739 7.791 7.855 0 2.619-2.075 4.425-4.843 4.425-2.256 0-4.121-.903-5.445-2.589zm13.086-18.239c0-.722.632-1.324 1.384-1.324s1.353.602 1.353 1.324a1.33 1.33 0 0 1-1.353 1.354c-.752 0-1.384-.571-1.384-1.354m.481 6.14h1.775v15.169h-1.775v-15.17zm22.593 7.584c0 4.334-3.279 8.187-8.153 8.187-4.873 0-8.122-3.853-8.122-8.187s3.279-8.186 8.122-8.186c4.844 0 8.153 3.852 8.153 8.186m-1.895 0c0-3.491-2.648-6.5-6.228-6.5s-6.317 3.04-6.317 6.5 2.617 6.501 6.317 6.501 6.228-3.07 6.228-6.5zm6.407-7.584h1.775v2.076c1.324-1.655 3.039-2.678 5.415-2.678 3.46 0 5.957 2.287 5.957 6.47v9.3h-1.775v-9.24c0-3.13-1.775-4.845-4.422-4.845-2.407 0-4.002 1.234-5.175 3.19v10.896h-1.775v-15.17zm-58.482 70.708L93.2 105.61h12.675v31.462h5.696v9.791h-5.696v14.928h-10.83v-14.928H69.132zm25.912 0V117.89l-14.761 19.182z"/></g><defs><radialGradient id="b" cx="0" cy="0" r="1" gradientTransform="matrix(199.996 0 0 200.084 -6.94 37.53)" gradientUnits="userSpaceOnUse"><stop stop-color="#FFC29E"/><stop offset=".48" stop-color="#CB634B"/><stop offset=".53" stop-color="#C16351"/><stop offset=".61" stop-color="#A96364"/><stop offset=".71" stop-color="#816481"/><stop offset=".83" stop-color="#4965AB"/><stop offset=".96" stop-color="#0067E2"/></radialGradient><clipPath id="a"><path fill="#fff" d="M0 0h180v208H0z"/></clipPath></defs></svg>