<svg width="180" height="208" viewBox="0 0 180 208" fill="none" xmlns="http://www.w3.org/2000/svg">
<g clip-path="url(#clip0_157_11785)">
<path d="M90.0101 0L0 51.9773V155.952L90 208L180 155.952V51.9773L90.0101 0Z" fill="url(#paint0_linear_157_11785)"/>
<path d="M40.2202 60.6755H42.7862L50.0313 72.424L57.3065 60.6755H59.8423V81.8168H57.9103V63.2124L50.8463 74.5683H49.2162L42.1522 63.2124V81.8168H40.2202V60.6755Z" fill="white"/>
<path d="M65.8496 60.4339C65.8496 59.709 66.4836 59.105 67.2382 59.105C67.9929 59.105 68.5967 59.709 68.5967 60.4339C68.5967 61.2191 67.9929 61.7929 67.2382 61.7929C66.4836 61.7929 65.8496 61.2191 65.8496 60.4339ZM66.3326 66.595H68.1137V81.8168H66.3326V66.595Z" fill="white"/>
<path d="M73.5477 78.7362C74.6949 80.1859 76.0232 80.8805 77.6533 80.8805C79.6457 80.8805 80.7928 79.612 80.7928 78.0415C80.7928 74.1757 72.9742 75.4744 72.9742 70.0984C72.9742 67.8937 74.8458 65.991 77.6533 65.991C79.7061 65.991 81.4268 66.9877 82.4834 68.4373L81.1551 69.4944C80.3098 68.2259 79.0721 67.5313 77.6835 67.5313C75.7816 67.5313 74.7251 68.7092 74.7251 70.0984C74.7251 74.0549 82.5437 72.8468 82.5437 77.9811C82.5437 80.6087 80.4608 82.4208 77.6835 82.4208C75.4194 82.4208 73.5477 81.5147 72.2195 79.8234L73.5477 78.7362Z" fill="white"/>
<path d="M86.619 78.7362C87.7662 80.1859 89.0944 80.8805 90.7246 80.8805C92.717 80.8805 93.8641 79.612 93.8641 78.0415C93.8641 74.1757 86.0455 75.4744 86.0455 70.0984C86.0455 67.8937 87.9171 65.991 90.7246 65.991C92.7774 65.991 94.4981 66.9877 95.5546 68.4373L94.2264 69.4944C93.3811 68.2259 92.1434 67.5313 90.7548 67.5313C88.8529 67.5313 87.7964 68.7092 87.7964 70.0984C87.7964 74.0549 95.615 72.8468 95.615 77.9811C95.615 80.6087 93.5321 82.4208 90.7548 82.4208C88.4907 82.4208 86.619 81.5147 85.2908 79.8234L86.619 78.7362Z" fill="white"/>
<path d="M99.7507 60.4339C99.7507 59.709 100.385 59.105 101.139 59.105C101.894 59.105 102.498 59.709 102.498 60.4339C102.498 61.2191 101.894 61.7929 101.139 61.7929C100.385 61.7929 99.7507 61.2191 99.7507 60.4339ZM100.234 66.595H102.015V81.8168H100.234V66.595Z" fill="white"/>
<path d="M122.905 74.2059C122.905 78.555 119.614 82.4208 114.724 82.4208C109.834 82.4208 106.573 78.555 106.573 74.2059C106.573 69.8568 109.864 65.991 114.724 65.991C119.584 65.991 122.905 69.8568 122.905 74.2059ZM121.003 74.2059C121.003 70.7025 118.346 67.6823 114.754 67.6823C111.162 67.6823 108.415 70.7327 108.415 74.2059C108.415 77.6791 111.041 80.7295 114.754 80.7295C118.467 80.7295 121.003 77.6489 121.003 74.2059Z" fill="white"/>
<path d="M127.433 66.595H129.214V68.679C130.542 67.0179 132.263 65.991 134.648 65.991C138.119 65.991 140.625 68.2863 140.625 72.4844V81.8168H138.844V72.5448C138.844 69.4038 137.063 67.6823 134.406 67.6823C131.991 67.6823 130.391 68.9206 129.214 70.8837V81.8168H127.433V66.595Z" fill="white"/>
<path d="M88.6314 117.092L76.9587 123.697L71.5652 115.965L88.9534 105.898H99.499V162.274H88.6314V117.092Z" fill="white"/>
</g>
<defs>
<linearGradient id="paint0_linear_157_11785" x1="0.231443" y1="14.1445" x2="222.165" y2="235.985" gradientUnits="userSpaceOnUse">
<stop stop-color="#2F29FF"/>
<stop offset="1" stop-color="#ED6A81"/>
</linearGradient>
<clipPath id="clip0_157_11785">
<rect width="180" height="208" fill="white"/>
</clipPath>
</defs>
</svg>
